<svg xmlns="http://www.w3.org/2000/svg" width="295.929" height="99.173" viewBox="0 0 295.929 99.173"><defs><style>.a{fill:#e32c1b;}</style></defs><g transform="translate(-1097 -5974.827)"><path class="a" d="M4886.154,908.208l-6.612,5.646-52.617,44.927h152.594l-40.408-34.5-13.2-11.267h0l-15.463-13.2a11.539,11.539,0,0,0-14.462,0l-9.836,8.4" transform="translate(-3694.201 5115.218)"/><path class="a" d="M4745.536,1069.024c5.655-3.322,11.452-.1,11.452-.1a14.49,14.49,0,0,1,2.231-.894.84.84,0,0,1-.25-.58c0-.57.647-1.032,1.446-1.032a1.965,1.965,0,0,1,.427.051,2.463,2.463,0,0,1,1.722-1.424,1.821,1.821,0,0,1-.237-.884c0-1.335,1.516-2.417,3.385-2.417a4.548,4.548,0,0,1,1.325.193c.313-3.454,3.653-6.317,8.146-7.252a11.745,11.745,0,0,1,5.421-5.261c7.113-3.489,18.793-2,23.483,4.383a3.163,3.163,0,0,1,2.933.261,1.863,1.863,0,0,1,.472.477c1.05-4.13,6.045-7.807,13.73-6.786,6.67.886,8.427,4.541,9.04,6.183,0,0,5.313-4.616,11.261-.493a4.773,4.773,0,0,1,1.42,1.578,5.411,5.411,0,0,1,1.728-.279c2.24,0,4.055,1.3,4.055,2.9a2.971,2.971,0,0,1-2.224,2.581,3.476,3.476,0,0,1,1.082,2.436,3.8,3.8,0,0,1-1.877,3.088c.22.341,4.911,1.043,5.734,5.167a6.158,6.158,0,0,1-4.172,7.427H4744.309S4739.22,1072.734,4745.536,1069.024Z" transform="translate(-3627.021 4995.651)"/><path class="a" d="M5067,1086.169a4.342,4.342,0,0,1,5.336-.065,5.83,5.83,0,0,1,1.04-.583.668.668,0,0,1,.756-1.019,1.35,1.35,0,0,1,.8-.929,1.577,1.577,0,0,1,2.084-2.027,5.292,5.292,0,0,1,3.8-4.731,6.959,6.959,0,0,1,2.526-3.432,7.761,7.761,0,0,1,10.943,2.859,1.121,1.121,0,0,1,1.586.482,5.3,5.3,0,0,1,6.4-4.427,5.151,5.151,0,0,1,4.212,4.034s2.476-3.012,5.248-.321a3,3,0,0,1,.662,1.03,1.888,1.888,0,0,1,1.658,3.392,2.759,2.759,0,0,1-.371,3.6,4.385,4.385,0,0,1,2.672,3.371c.549,3.847-1.944,4.846-1.944,4.846h-47.979S5064.052,1088.589,5067,1086.169Z" transform="translate(-3814.705 4981.748)"/><g transform="translate(1097 6028.095)"><path class="a" d="M4714.982,1028.138c-.407-1.223-1.082-1.845-2.175-.975-.422.336-.682.966-1.221,1a.906.906,0,0,1-.849-.809,2.937,2.937,0,0,1,.184-1.262,17.272,17.272,0,0,0-1.217-12.471,6.657,6.657,0,0,0-1.837-2.39,3.039,3.039,0,0,0-2.866-.51c-1.623.652-1.986,2.8-1.734,4.535.26,1.78.9,3.483,1.219,5.254a7.064,7.064,0,0,1-.747,5.207,2.212,2.212,0,0,0-3.055-1.344c-2.792,1.292-2.081,6.987-1.778,9.47.671,5.521,3.049,11.2,7.958,14.2.617.376,3.529-2.375,3.959-2.813a17.452,17.452,0,0,0,4.641-9.819A22.821,22.821,0,0,0,4714.982,1028.138Z" transform="translate(-4698.598 -1010.551)"/><path class="a" d="M4713.061,1070.386l-.419-5.643,4.1-5.879-4.171,4.956-.383-5.166-.356,8.788-3.242-5.5,3.183,6.99-.621,15.324a4.58,4.58,0,0,0,2.92-.225l-.917-12.356,3.417-4.92Z" transform="translate(-4704.402 -1038.488)"/></g><g transform="translate(1344.194 6028.095)"><path class="a" d="M5304.655,1028.138c-.407-1.223-1.082-1.845-2.175-.975-.423.336-.683.966-1.222,1a.905.905,0,0,1-.848-.809,2.937,2.937,0,0,1,.183-1.262,17.272,17.272,0,0,0-1.216-12.471,6.653,6.653,0,0,0-1.837-2.39,3.039,3.039,0,0,0-2.866-.51c-1.623.652-1.986,2.8-1.733,4.535.26,1.78.9,3.483,1.218,5.254a7.064,7.064,0,0,1-.747,5.207,2.213,2.213,0,0,0-3.055-1.344c-2.792,1.292-2.08,6.987-1.778,9.47.672,5.521,3.049,11.2,7.958,14.2.617.376,3.529-2.375,3.959-2.813a17.446,17.446,0,0,0,4.641-9.819A22.792,22.792,0,0,0,5304.655,1028.138Z" transform="translate(-5288.271 -1010.551)"/><path class="a" d="M5302.734,1070.386l-.418-5.643,4.1-5.879-4.171,4.956-.383-5.166-.356,8.788-3.242-5.5,3.182,6.99-.621,15.324a4.579,4.579,0,0,0,2.919-.225l-.917-12.356,3.417-4.92Z" transform="translate(-5294.076 -1038.488)"/></g><g transform="translate(1285.318 5974.827)"><path class="a" d="M5170.967,937.564h26.921v-5h.788l3.041-1.973,2-1.295h-40.3l2,1.295,3.041,1.973h.789v5Z" transform="translate(-5156.876 -910.092)"/><path class="a" d="M5150.445,900.72l.765.552.709,1.417H5197.1l.709-1.417.765-.551,2.478-1.787.142-.1c-19.444-1.968-23.065-10.627-23.065-10.627l-1.181-2.834-.708-1.338-1.711-.544-.021-.007-1.732.551-.707,1.338-1.182,2.834s-3.621,8.659-23.064,10.626l.142.1Z" transform="translate(-5147.825 -883.482)"/><path class="a" d="M5192.458,952.4v-3.385h-35.9V952.4h.675a54.416,54.416,0,0,1-9.413,1.731l.141.1h0l2.479,1.787.765.551.708,1.417h2.44l2,1.295,3.041,1.973h.788v5h28.654v-5h.788l3.041-1.973,2-1.295h2.441l.709-1.417.765-.551,2.478-1.787h0l.141-.1a54.42,54.42,0,0,1-9.414-1.731Zm-17.928,1.5-.02-.01h0l.021.01c.074.037.151.071.228.107C5174.683,953.977,5174.605,953.943,5174.53,953.905Z" transform="translate(-5147.825 -921.544)"/><path class="a" d="M5192.458,993.522v-3.385h-35.9v3.385h.676a54.452,54.452,0,0,1-9.413,1.73l.141.1h0l2.479,1.787.765.551.708,1.417h2.44l2,1.294,3.041,1.973h.788v5h28.654v-5h.788l3.041-1.973,2-1.294h2.441l.709-1.417.765-.551,2.478-1.787h0l.141-.1a54.456,54.456,0,0,1-9.414-1.73Zm-17.928,1.5-.02-.01.021.01c.074.037.151.071.228.107C5174.683,995.1,5174.605,995.063,5174.53,995.026Z" transform="translate(-5147.825 -945.427)"/><path class="a" d="M5192.458,1034.643v-3.385h-35.9v3.385h.526a54.611,54.611,0,0,1-9.264,1.69l.141.1h0l2.479,1.788.765.552.708,1.416h2.44l2,1.295,3.041,1.973h.788v5h28.654v-5h.788l3.041-1.973,2-1.295h2.441l.709-1.416.765-.552,2.478-1.786h0l.141-.1a54.615,54.615,0,0,1-9.265-1.69Zm-17.167,1.82c-.155-.068-.3-.142-.455-.214l-.228-.107.229.107c.151.072.3.146.454.213Zm.308.124-.214-.087.215.087c.1.043.209.085.314.127C5175.809,1036.672,5175.7,1036.631,5175.6,1036.588Z" transform="translate(-5147.825 -969.31)"/><path class="a" d="M5192.458,1075.668v-3.385h-35.9v3.385h.676a54.423,54.423,0,0,1-9.413,1.73l.141.1h0l2.479,1.787.765.552.708,1.417h2.44l2,1.295,3.041,1.973h.788v5h0v.039h-1.022a1.375,1.375,0,0,0,0,2.75h30.7a1.375,1.375,0,0,0,0-2.75h-1.022v-5h0v-.038h.788l3.041-1.973,2-1.295h2.441l.709-1.417.765-.552,2.478-1.786h0l.141-.1a54.426,54.426,0,0,1-9.414-1.73Zm-17.947,1.494h0l.007,0Zm1.1,12.4h0v-.039h0Zm-.015-11.907c-.1-.042-.207-.081-.308-.125s-.228-.106-.34-.16c.113.054.225.109.341.16s.206.083.309.125.209.085.314.127C5175.809,1077.738,5175.7,1077.7,5175.6,1077.653Z" transform="translate(-5147.825 -993.137)"/></g><path class="a" d="M5365.468,1008.287c-.739-.051-1.636.183-2.109-.387a1.611,1.611,0,0,1,0-1.623,19.455,19.455,0,0,1,2.6-3.95,9.223,9.223,0,0,0,2.025-4.231,3.817,3.817,0,0,0-1.929-3.984,3.885,3.885,0,0,0-3.663.556,11.461,11.461,0,0,0-2.606,2.834c-1.308-6.292,4.153-12.829,2-18.884a8.014,8.014,0,0,0-15.565,2.754c.032,3.728,2.577,6.888,4.044,10.315a2.26,2.26,0,0,1,.135,2.047,1.691,1.691,0,0,1-2.34.217,6.767,6.767,0,0,1-1.6-2.061,3.19,3.19,0,0,0-1.974-1.618,2.469,2.469,0,0,0-2.551,2.1,6.379,6.379,0,0,0,.614,3.547,37.415,37.415,0,0,0,6.414,10.559c.734.85,1.5,2.19.674,2.948a1.815,1.815,0,0,1-2.174-.179,5.819,5.819,0,0,0-2-1.214,2.5,2.5,0,0,0-2.648,2.292,6.307,6.307,0,0,0,1.044,3.718,31.51,31.51,0,0,0,8.795,10.057l1.152.809-.393,9.716a6.4,6.4,0,0,0,4.08-.314l-.673-9.079c3.588-2.789,7.127-5.71,9.694-9.444a7.5,7.5,0,0,0,1.617-4.244A3.228,3.228,0,0,0,5365.468,1008.287Z" transform="translate(-3975.202 5039.179)"/></g></svg>