<svg xmlns="http://www.w3.org/2000/svg" width="177.384" height="59.446" viewBox="0 0 177.384 59.446">
  <defs>
    <style>
      .a {
        fill: #e32c1b;
      }
    </style>
  </defs>
  <g transform="translate(-239.585 -2727.447)">
    <path class="a"
      d="M4857.748,907.223l-3.44,5.138-27.382,40.884h79.409l-21.028-31.4-6.867-10.253h0l-8.047-12.015c-2.07-3.09-5.456-3.09-7.526,0l-5.119,7.644"
      transform="translate(-4555.095 1833.648)" />
    <path class="a"
      d="M4743.709,1060.278a3.938,3.938,0,0,1,4.842-.058,5.282,5.282,0,0,1,.944-.529.607.607,0,0,1,.686-.924,1.226,1.226,0,0,1,.728-.843,1.431,1.431,0,0,1,1.892-1.84,4.8,4.8,0,0,1,3.444-4.293,6.309,6.309,0,0,1,2.292-3.114,7.041,7.041,0,0,1,9.929,2.595,1.018,1.018,0,0,1,1.44.437,4.807,4.807,0,0,1,5.806-4.017,4.674,4.674,0,0,1,3.822,3.66s2.247-2.733,4.761-.292a2.711,2.711,0,0,1,.6.934,1.713,1.713,0,0,1,1.505,3.078,2.5,2.5,0,0,1-.337,3.27,3.975,3.975,0,0,1,2.425,3.059c.5,3.49-1.764,4.4-1.764,4.4H4743.19S4741.039,1062.475,4743.709,1060.278Z"
      transform="translate(-4491.787 1721.095)" />
    <path class="a"
      d="M5066.4,1080.567a2.6,2.6,0,0,1,3.2-.039,3.507,3.507,0,0,1,.624-.349.4.4,0,0,1,.334-.631.407.407,0,0,1,.12.02.809.809,0,0,1,.48-.557.954.954,0,0,1-.065-.346.945.945,0,0,1,1.315-.87,3.173,3.173,0,0,1,2.275-2.836,4.174,4.174,0,0,1,1.514-2.057,4.652,4.652,0,0,1,6.559,1.714.672.672,0,0,1,.951.289,3.176,3.176,0,0,1,3.835-2.654,3.087,3.087,0,0,1,2.525,2.418,2.073,2.073,0,0,1,3.146-.193,1.789,1.789,0,0,1,.4.617,1.132,1.132,0,0,1,.994,2.033,1.654,1.654,0,0,1-.222,2.161,2.628,2.628,0,0,1,1.6,2.021c.33,2.306-1.165,2.9-1.165,2.9h-28.76S5064.641,1082.018,5066.4,1080.567Z"
      transform="translate(-4733.736 1702.68)" />
    <g transform="translate(239.585 2759.377)">
      <path class="a"
        d="M4708.419,1021.093c-.244-.733-.648-1.106-1.3-.585-.253.2-.409.579-.732.6a.544.544,0,0,1-.509-.485,1.773,1.773,0,0,1,.11-.756,10.352,10.352,0,0,0-.729-7.475,3.99,3.99,0,0,0-1.1-1.433,1.822,1.822,0,0,0-1.718-.306c-.973.391-1.191,1.681-1.04,2.718.156,1.067.541,2.088.73,3.149a4.233,4.233,0,0,1-.448,3.121,1.326,1.326,0,0,0-1.831-.806c-1.674.774-1.247,4.188-1.066,5.676.4,3.31,1.828,6.716,4.77,8.509.37.225,2.115-1.424,2.373-1.686a10.463,10.463,0,0,0,2.782-5.886A13.68,13.68,0,0,0,4708.419,1021.093Z"
        transform="translate(-4698.598 -1010.551)" />
      <path class="a"
        d="M4711.271,1065.686l-.251-3.383,2.459-3.524-2.5,2.97-.23-3.1-.213,5.268-1.943-3.3,1.908,4.19-.372,9.186a2.746,2.746,0,0,0,1.75-.135l-.55-7.407,2.048-2.949Z"
        transform="translate(-4706.081 -1046.566)" />
    </g>
    <g transform="translate(387.757 2759.377)">
      <path class="a"
        d="M5298.092,1021.093c-.244-.733-.648-1.106-1.3-.585-.253.2-.409.579-.732.6a.542.542,0,0,1-.508-.485,1.757,1.757,0,0,1,.109-.756,10.352,10.352,0,0,0-.729-7.475,3.991,3.991,0,0,0-1.1-1.433,1.822,1.822,0,0,0-1.718-.306c-.973.391-1.19,1.681-1.039,2.718.155,1.067.541,2.088.73,3.149a4.233,4.233,0,0,1-.448,3.121,1.326,1.326,0,0,0-1.831-.806c-1.674.774-1.247,4.188-1.066,5.676.4,3.31,1.828,6.716,4.77,8.509.37.225,2.115-1.424,2.373-1.686a10.46,10.46,0,0,0,2.782-5.886A13.665,13.665,0,0,0,5298.092,1021.093Z"
        transform="translate(-5288.271 -1010.551)" />
      <path class="a"
        d="M5300.944,1065.686l-.251-3.383,2.459-3.524-2.5,2.97-.229-3.1-.214,5.268-1.943-3.3,1.907,4.19L5299.8,1074a2.746,2.746,0,0,0,1.75-.135l-.549-7.407,2.048-2.949Z"
        transform="translate(-5295.754 -1046.566)" />
    </g>
    <g transform="translate(352.466 2727.447)">
      <path class="a" d="M5167.939,934.253h16.137v-3h.472l1.823-1.182,1.2-.776h-24.159l1.2.776,1.823,1.182h.473v3Z"
        transform="translate(-5159.493 -917.786)" />
      <path class="a"
        d="M5149.4,893.815l.459.331.425.849h27.083l.425-.849.458-.33,1.485-1.071.084-.061c-11.655-1.179-13.825-6.37-13.825-6.37l-.708-1.7-.424-.8-1.026-.326-.012,0-1.039.33-.423.8-.708,1.7s-2.17,5.19-13.825,6.37l.085.061Z"
        transform="translate(-5147.825 -883.482)" />
      <path class="a"
        d="M5174.579,951.045v-2.029h-21.516v2.029h.4a32.618,32.618,0,0,1-5.643,1.037l.084.061h0l1.486,1.071.458.33.424.849h1.463l1.2.776,1.823,1.182h.473v3h17.175v-3h.472l1.823-1.182,1.2-.776h1.463l.425-.849.458-.33,1.485-1.071h0l.084-.061a32.618,32.618,0,0,1-5.643-1.037Zm-10.746.9-.012-.006h0l.012.006c.045.022.091.043.137.064C5163.924,951.99,5163.878,951.969,5163.833,951.947Z"
        transform="translate(-5147.825 -932.549)" />
      <path class="a"
        d="M5174.579,992.166v-2.029h-21.517v2.029h.405a32.636,32.636,0,0,1-5.643,1.037l.084.061h0l1.486,1.071.458.33.424.849h1.463l1.2.776,1.823,1.182h.473v3h17.175v-3h.472l1.823-1.182,1.2-.776h1.463l.425-.849.458-.33,1.485-1.071h0l.084-.061a32.636,32.636,0,0,1-5.643-1.037Zm-10.746.9-.012-.006.012.006c.045.022.091.043.137.064C5163.924,993.111,5163.878,993.09,5163.833,993.068Z"
        transform="translate(-5147.825 -963.337)" />
      <path class="a"
        d="M5174.579,1033.287v-2.029h-21.517v2.029h.315a32.731,32.731,0,0,1-5.553,1.013l.084.061h0l1.486,1.072.458.331.424.849h1.463l1.2.776,1.823,1.183h.473v3h17.175v-3h.472l1.823-1.183,1.2-.776h1.463l.425-.849.458-.331,1.485-1.071h0l.084-.061a32.731,32.731,0,0,1-5.553-1.013Zm-10.291,1.091c-.093-.041-.181-.085-.272-.128l-.136-.064.137.064c.091.043.18.087.272.128Zm.185.075-.128-.052.129.052.188.076Z"
        transform="translate(-5147.825 -994.125)" />
      <path class="a"
        d="M5174.579,1074.312v-2.029h-21.517v2.029h.405a32.63,32.63,0,0,1-5.643,1.037l.084.061h0l1.486,1.071.458.331.424.849h1.463l1.2.776,1.823,1.183h.473v3h0v.023h-.612a.824.824,0,1,0,0,1.648h18.4a.824.824,0,1,0,0-1.648h-.612v-3h0v-.023h.472l1.823-1.183,1.2-.776h1.463l.425-.849.458-.331,1.485-1.071h0l.084-.061a32.63,32.63,0,0,1-5.643-1.037Zm-10.758.9h0l0,0Zm.661,7.432h0v-.023h0Zm-.009-7.137c-.061-.025-.124-.048-.185-.075s-.136-.063-.2-.1c.068.032.134.066.2.1s.123.049.185.075l.188.076Z"
        transform="translate(-5147.825 -1024.841)" />
    </g>
    <path class="a"
      d="M5356.012,994.272c-.443-.031-.981.11-1.265-.232a.966.966,0,0,1,0-.973,11.669,11.669,0,0,1,1.561-2.368,5.525,5.525,0,0,0,1.213-2.536,2.287,2.287,0,0,0-1.156-2.388,2.328,2.328,0,0,0-2.2.333,6.864,6.864,0,0,0-1.562,1.7c-.784-3.771,2.489-7.69,1.2-11.319a4.8,4.8,0,0,0-9.33,1.651c.019,2.234,1.544,4.129,2.424,6.183a1.355,1.355,0,0,1,.081,1.227,1.014,1.014,0,0,1-1.4.13,4.05,4.05,0,0,1-.962-1.235,1.912,1.912,0,0,0-1.183-.97,1.48,1.48,0,0,0-1.529,1.256,3.826,3.826,0,0,0,.368,2.126,22.436,22.436,0,0,0,3.845,6.329c.44.51.9,1.313.4,1.767a1.087,1.087,0,0,1-1.3-.108,3.5,3.5,0,0,0-1.2-.728,1.5,1.5,0,0,0-1.587,1.374,3.781,3.781,0,0,0,.625,2.229,18.885,18.885,0,0,0,5.272,6.028l.69.485-.236,5.824a3.837,3.837,0,0,0,2.446-.188l-.4-5.442a26.488,26.488,0,0,0,5.811-5.661,4.494,4.494,0,0,0,.969-2.544A1.935,1.935,0,0,0,5356.012,994.272Z"
      transform="translate(-4940.639 1776.716)" />
  </g>
</svg>
