<svg xmlns="http://www.w3.org/2000/svg" viewBox="0 0 313.14 342.76"><title>Artboard 24</title><path d="M268.1,339a69,69,0,0,1-6.82,3.43,3.51,3.51,0,0,1-2.58.21c-6.34-1.7-12.88-2.35-19.3-3.62-7.52-1.49-15.06-2.88-22.63-4.08-6.63-1.06-13.3-1.81-20-2.68s-13.47-1.71-20.2-2.63c-8.71-1.19-17.41-2.39-26.1-3.69-6.79-1-13.61-1.92-20.31-3.44,2.48-1.18,2.87-2,2.12-4.7-.11-.38-.23-.76-.35-1.14-1.65-5.23-3.49-10.41-4.85-15.72a8.54,8.54,0,0,0-3.95-5.58c-.14-.08-.29-.15-.42-.24a5.88,5.88,0,0,1-2.69-5.27,42.74,42.74,0,0,1,.82-5.87c.26-1.58.54-3.21-.39-4.65-1.15-1.8-2.19-3.81-3.93-5.06-2.31-1.66-3.93-3.92-5.82-5.94-1.68-1.79-3.15-3.78-4.81-5.6a71.32,71.32,0,0,0-5.06-5.08c-1.31-1.17-2.22-.8-2.82.88a4.94,4.94,0,0,0-.13.95c-.69-.54-1.36-1.09-2.06-1.62s-1.74,1.37-2.67,1.95c-1.21,0-2.14,6.89-3.29,7.24-2.14.64-2.37-8.17-2.39-10.49,0-1.76,0-3.52,0-5.28,0-7.36,0-14.71,0-22.07,0-5.84.43-11.66.78-17.48a124.06,124.06,0,0,0-.5-20.12c-.18-1.76-.48-3.59.7-5.22a2.27,2.27,0,0,1,1.73-1.09c1.51-.16,3-.4,4.51-.61.11,1.1-.13,1.7-1.44,1.28-.7-.23-1.55-.16-1.76.73a1.8,1.8,0,0,0,1,2,2.66,2.66,0,0,0,.87.37,22.43,22.43,0,0,0,3.76.55c2.3,0,4.6.07,6.9.11a7.54,7.54,0,0,0,.87,4.71c.8-1.55.84-3.19,1.8-4.42l3.84.07c.28,2-.42,4.25,1.34,6.13,1.31-1.93.91-4.13,1.56-6a11.08,11.08,0,0,0,3.58.36,26.74,26.74,0,0,1-.28,9.27,3,3,0,0,0-.09,1.88c.26.68.57,1.12,1.41.72a3.66,3.66,0,0,0,2.27-2.53c.22-.91.15-2,.9-2.69,2.35-2.08,4.73-4.12,7.17-6.68,0,2.56-1.36,3.92-2.67,5.3a7.61,7.61,0,0,0-1.22,8,14.23,14.23,0,0,0,1.65-3.76,5.61,5.61,0,0,1,1.84-3,11.48,11.48,0,0,0,2.61-3.4,5.48,5.48,0,0,1,2.63-2.66c2.88.79,5.86.56,8.79.9,5.37.62,10.8.68,16.21,1,6.13.33,12.28.12,18.42.53,3.81.25,7.62.58,11.46.66a45.56,45.56,0,0,1,5.7.43c3.55.54,7.14.49,10.7.88,2.37.25,4.77.29,7.14.59a138.22,138.22,0,0,0,16.64,1.33c3.74,0,7.49.3,11.22.58,5.15.39,10.31.79,15.45,1.35,4.26.47,8.32-.76,12.48-1.19,3.08-.31,6.09-1.17,9.21-1.22-2.14,1.1-4.56,1.23-6.82,1.9-4.06,1.2-6,3.22-6.65,6.8s-.62,7.46-.82,11.17c-.49,8.91.21,17.87-.57,26.79-.27,2.95.34,5.87.42,8.81.3,11.25-.34,22.5.44,33.75.5,7.07-.15,14.18.46,21.29.41,4.68.08,9.42.11,14.13a34.24,34.24,0,0,0,.34,5.24,20.25,20.25,0,0,1,0,6C262.82,337.27,263.64,338.53,268.1,339Zm-13.58-5a11.74,11.74,0,0,0-3.39-.38,6.75,6.75,0,0,0-4.56,1.77c-.33.36-.76.6-.59,1.17a1.08,1.08,0,0,0,1.06.83c1.53,0,3,.7,4.49.55a4,4,0,0,1,3.65,1.41,2.76,2.76,0,0,0,3.25.83,2.82,2.82,0,0,0,1.78-2.65,39.4,39.4,0,0,0-.06-5.75c-.33-3.32-.86-6.62-.86-10q0-23,0-46.06a17.28,17.28,0,0,1,0-2.16,125.35,125.35,0,0,0,.86-15.24c.17-12.48,0-25,.09-37.43,0-4.4-.79-8.75-.51-13.14a1.94,1.94,0,0,0,0-.48c-.12-.86-.51-1.6-1.43-1.65s-.87.79-1.05,1.39a5.36,5.36,0,0,0-.34,1.38c0,2.24-.33,4.45-.43,6.67-.25,5.57,0,11.16-.51,16.74-.39,4.6-.1,9.23-.38,13.86-.29,4.92-.86,9.86-.61,14.81.2,4-.76,7.95-.52,11.94a2,2,0,0,1,0,.48,74.71,74.71,0,0,0-.85,11.17c-.11,12.39,0,24.79-.08,37.18A64.63,64.63,0,0,0,254.52,334ZM259,203.73c-.58-2.17-.77-2.38-2.72-2.58a10.72,10.72,0,0,1-1.61-.35,13.1,13.1,0,0,0-9.88,1.48C249.61,202.37,254.25,203.67,259,203.73Z" fill="#e4a73f"/><path d="M173.78,159.5A61.7,61.7,0,0,1,163,161.3c-2.84.3-5.75.17-8.55.58a27.89,27.89,0,0,1-7-.26c.19-.32.78-.36.71-.84s-.41-.44-.73-.42a16.41,16.41,0,0,0-4.13.2c.29.84.87.59,1.26.76-.51.49-1.21.31-1.8.52l-.51-.63c-.11-.38-.25-.76-.72-.83-.29,0-.71-.17-.83.13s.28.5.43.75c-2.12,0-4.26.31-6.35-.33a1.23,1.23,0,0,0-1.3.39c-2.14-.75-4.41-.66-6.61-.94-8.54-1.12-16.81-3-24.43-7.24A77.36,77.36,0,0,1,87.94,143c-6-5.39-11.83-11-16.49-17.66-3.33-4.75-5.63-10-8-15.26a58.57,58.57,0,0,1-5-15.19c-1-6.57-1.75-13.17-1.16-19.81a68.56,68.56,0,0,1,4.66-20C64.09,49.8,67,45,71.58,41.34c-.77-1.74-.76-1.73.62-3.28a11.85,11.85,0,0,0,1-1.33c1.74-2.54,2.55-5.47,3.42-8.36,1.19-4-.41-6.76-4.49-7.7-4.84-1.13-9.62-.49-14.35.85a5.42,5.42,0,0,1-2.54.56,47.64,47.64,0,0,1,6.16-5.64A127.71,127.71,0,0,1,75.42,6,40.4,40.4,0,0,1,95.4.07c8.55-.44,16.78,1.37,25,3.64,12.7,3.49,24.18,9.57,35.47,16.07,7.48,4.31,14.78,8.91,22.28,13.16,4.58,2.59,9.22,5.11,14,7.35a69.71,69.71,0,0,0,27.34,6.35c1.3.92,2.91,0,4.38.69-3.27.42-6.44.71-9.55,1.29a14.64,14.64,0,0,1-4.74.28,71.67,71.67,0,0,0-8.28-1c-1.25,0-2.49-.79-3.86-.42a1.07,1.07,0,0,1-.86-.31c-.56-.61-1.29-.5-2-.61a43.52,43.52,0,0,1-11-3.2c-4.15-1.82-8.41-3.42-12.72-4.83C166.08,37,161,36,156.26,34.24c-.47-.17-1.09-.38-1.44.47a9.8,9.8,0,0,0,3.11,1.68c4.31,1.68,8.67,3.2,12.93,5,2.4,1,4.93,1.83,6.84,3.76h0a4.2,4.2,0,0,1-1.63-.27c-3.28-1-6.42-2.37-9.61-3.62a13.82,13.82,0,0,0-2.49-.78.91.91,0,0,0-1,.82.7.7,0,0,0,.78.92,7.15,7.15,0,0,1,3.55,1.32,110.42,110.42,0,0,0,20.61,8.13c4.81,1.4,9.58,3,14.44,4.19.43.11,1,.16,1.3.71-2.2.46-4.21-.23-6.26-.37-.08-.22-.14-.26-.17-.11s.12.06.18.09c-.79.86-1.82.55-2.7.41-2.66-.45-5.31-1-8-1.53a88.5,88.5,0,0,1-16.53-4.71,5.1,5.1,0,0,0-3.67-.48c2,1.2,3.95,1.24,5.65,2a56,56,0,0,0,5.37,2c1.79.64,3.6,1.24,5.41,1.82a30,30,0,0,0,5.53,1.52,40.83,40.83,0,0,1,5.63.94c1.91.5,3.82.21,5.72.35s3.72-.38,5.83.5a45.05,45.05,0,0,1-12.49,3.28c-4.13.54-8.29-.27-12.41-.55-3.56-.25-7.1-1-10.69-.81-1.3.06-2.52-.74-3.78-.37a24.65,24.65,0,0,1-4.51.41c-2.21.25-4.42.58-6.59,1-1.34.27-.17.77,0,1.25-.77.2-1.52.38-2.26.6a19.4,19.4,0,0,0-8.4,4.29l-.17.07a.5.5,0,0,0,0,.13l.2-.2a5.41,5.41,0,0,0,3.12-1.11A23.51,23.51,0,0,1,160,64.58a60.09,60.09,0,0,1,11.08,1.5,32.17,32.17,0,0,0,7.28,1.26,5.06,5.06,0,0,1,3.27.93c-4,1.81-8.3,2.26-11.65,5a3.14,3.14,0,0,0,2.36-.28,17.7,17.7,0,0,1,3.84-1.34,19.55,19.55,0,0,0,6-1.9,32,32,0,0,1,14.11-3A48.11,48.11,0,0,0,211,64.16,19.44,19.44,0,0,0,216,62.4a31.9,31.9,0,0,0,6.55-5.17,3.75,3.75,0,0,1,2.65-1.48c3.81,0,7.35-1.41,10.93-2.41a112.59,112.59,0,0,0,14.27-4.86,82.89,82.89,0,0,0,10-4.68c1.3-.77,1.84-2.09,1.2-2.94s-1.72-.56-2.63-.29c-5.57,1.65-11.24,2.9-16.87,4.33-.86.21-1.72.52-2.45-.28a1,1,0,0,1,.44-.07.78.78,0,0,0,1-.33c6.95-2,13.7-4.64,20.72-6.42a73.82,73.82,0,0,0,17.64-7.16,2.52,2.52,0,0,1-.9,1.64c-3.63,2.91-6.66,6.43-10,9.64a57.23,57.23,0,0,1-10.94,8.48,31.67,31.67,0,0,0-4.13,2.82c-4.33,3.54-9.22,6.27-13.5,9.88-2.41,2-5.38,3.41-8,5.27-4.84,3.49-10.63,5.53-14.89,9.88a8.76,8.76,0,0,1-1.59,1,3.94,3.94,0,0,0-1.36,1.33,2.64,2.64,0,0,0-1.49,1.88c-1.29.31-1.66,1.32-1.84,2.46a1.37,1.37,0,0,0-1,1.44.57.57,0,0,0-.44.52h0c-.44.16-.51.52-.51.92a1.52,1.52,0,0,0-1,1.4c-.77,0-1,.73-1.36,1.21-3.73,4.62-7.31,9.39-12.66,12.36-.42.23-.87.59-.59,1.13s.79,1.25,1.68.94a11.17,11.17,0,0,0,4.77-2.52,37.26,37.26,0,0,0,14.13-10.29,50.7,50.7,0,0,1,4.06-4.35,20,20,0,0,1,9.19-5.23,2.08,2.08,0,0,0,1.94-.93l1.45,0c0,1.21-1.07,1.69-1.71,2.45-1,1.21-2.42,2.14-3.33,3.59,1.17.43,1.87-.15,2.63-.55A17.79,17.79,0,0,0,232,83.67a1.22,1.22,0,0,0,.51-1.22,1.66,1.66,0,0,1,.32-.22,6.94,6.94,0,0,0,3.37-1.65A51.34,51.34,0,0,1,242,76.06c4.06-2.42,8.73-3.41,12.92-5.53l.11.11a2.58,2.58,0,0,1-.83,1.91c-1.33,1.58-2.53,3.29-3.94,4.8-3.22,3.45-6.46,6.82-10.94,8.78-3.51,1.54-7.18,2.64-10.69,4.18-2.55,1.13-5.26,2-7.06,4.33s-4.16,4.61-6,7.15a37.3,37.3,0,0,1-14.44,11.84,77.65,77.65,0,0,1-10.49,4.07,12.66,12.66,0,0,0-2,.81.76.76,0,0,0-.31,1,.66.66,0,0,0,.8.35c.31-.07.61-.22.92-.29a112.23,112.23,0,0,0,11.83-3.79,46.09,46.09,0,0,0,17-10.43c1.21-1.14,2.2-2.57,4.2-2.26.34.06.74-.25,1.11-.4a83.44,83.44,0,0,0,11.36-5.65c.4-.25.87-.8,1.57-.14a18.14,18.14,0,0,1-3.56,3.76c-3.09,2.77-6.44,5.18-9.77,7.66a227.83,227.83,0,0,1-27.78,17.81,8.7,8.7,0,0,0-2.93,3c1.39,1.09,2.56-.2,3.77,0l.06.52c-.06.14-.11.28-.16.43a2.56,2.56,0,0,0-1.56.49c-4.35,3.13-9.3,4.75-14.49,5.86a22.22,22.22,0,0,0-7.36,2.69c3.8-.42,7.29-2.26,11.45-2.67a3.92,3.92,0,0,1-1.82,1.32c-2.66,1.28-5.22,2.76-8,3.8-1.6.6-1.57.68-1.74,2.28a18.61,18.61,0,0,0,4.56-1.32,8.09,8.09,0,0,1,3.67-.93l0,.06a3.24,3.24,0,0,1-.53.46c-3.89,1.86-7.79,3.67-11.84,5.14-1.33.48-2.86,1.22-4.12,1-2-.42-3.59.16-5.34.57-5,1.2-10,2.59-15.26,2.43-1.93-.06-3.8.82-5.69.4-2.22-.49-4.45-.23-6.67-.44-1.77-.17-3.69,0-5.13-1.43a.79.79,0,0,0-1.08-.14c-.45.34-.41.76-.23,1.28a2.54,2.54,0,0,0,2.22,1.57,44.21,44.21,0,0,0,8.25,1.17c5.41,0,10.85.29,16.18-1,2.7-.65,5.51-.69,8.18-1.42,4.21-1.16,8.27-2.82,12.49-4A77.75,77.75,0,0,0,192,138.79a29.42,29.42,0,0,0,8.83-7.21c1,.07,1.89-.86,3-.4,0,.68-.53,1-1,1.21a23.72,23.72,0,0,0-5,4.25,2.68,2.68,0,0,0-.9,2.54h0c-1.71-.1-1.91,1.61-2.87,2.41a3.41,3.41,0,0,0-1.45,1.34,7,7,0,0,0-2,1.21,30,30,0,0,1-7.65,4.73,122.84,122.84,0,0,0-15.1,6.61c-5.47,2.86-11.41,3.82-17.43,4.48a.47.47,0,0,0-.5.36h0c-.36.17-.36.33,0,.49.4,0,.8,0,1.2,0a49.57,49.57,0,0,0,7-.37c3.48-.64,6.83-2.07,10.47-1.11a8.47,8.47,0,0,0,1.43,0A24.14,24.14,0,0,1,173.78,159.5ZM160.43,75.87a27.09,27.09,0,0,0-3.83.13,48.84,48.84,0,0,1-8.27.86c-3,0-5.83,1.26-8.85,1.14a1.28,1.28,0,0,0,.72.22c4.64.35,9.18-.66,13.76-1.09,2.14-.2,4.45-.13,6.45-1.28l1.9-.11C161.64,75.46,161,75.2,160.43,75.87Zm12.95,5.26h0c-.43-.58-.91-.45-1.47-.17a28.24,28.24,0,0,1-7.31,2.73c-1.56.31-3.12.6-4.67.94a81.26,81.26,0,0,1-18,1.78c-2.4,0-4.81-.13-7.19,0a28.85,28.85,0,0,0-8.63,1.64c-1.93.76-3.73,2.17-6,1.85-.24,0-.4.22-.46.47-.2.83-1,1-1.57,1.35-3.35,2-6.78,3.89-10,6.17-2.65,1.89-5.43,3.36-8.85,2.9-.06,0-.13.17-.28.35a10.76,10.76,0,0,1,2.9.22,4.16,4.16,0,0,0,3.43-.38c4.12-1.94,7.91-4.45,11.82-6.74,3.46-2,7-4,10.89-4.82a78.69,78.69,0,0,1,14-1.62c3.5-.13,7,.15,10.5-.37a17.56,17.56,0,0,1,5.21-.49,1.92,1.92,0,0,1-1.72.85,27.94,27.94,0,0,0-4.45.84c-5.44,1.24-10.63,3.33-16,4.68-1.78.45-3.54.95-5.29,1.45-7.9,2.28-15.43,5.58-23.1,8.49-.73.28-1.55.55-1.52,1.59,1.5.07,2.39-.12,5-1.23a75.05,75.05,0,0,1,29.23-6.19,50.33,50.33,0,0,0,12-1.82,48.15,48.15,0,0,0,13-5.82c.53-.32,1.36-.48,1.53-1.42-1.7-.78-3.36.33-5-.09h0l7.16-2.4c3.24-1.08,6.57-1.89,9.57-3.62,3.93-2.28,7.6-4.95,11.29-7.58,1.38-1,2.59-2.21,4.21-3.61a16.14,16.14,0,0,0-7,1.25c-3.67,1.51-7.22,3.36-11,4.52-3,.92-6,2.22-9.28,1.87a3.3,3.3,0,0,0-3.14,1.06,100.56,100.56,0,0,1,13,.1A3.54,3.54,0,0,1,173.38,81.13ZM99.31,55.23a5.32,5.32,0,0,1,2.77.65,20.65,20.65,0,0,0,6.33,1.18c9,.18,16.46-3,21.79-10.35s6.35-15.43,2.5-23.77C128,12.66,116.27,7.39,105.27,9.85a39.23,39.23,0,0,0-9,3.7,2.8,2.8,0,0,0-.93.1,22.61,22.61,0,0,0-9,7.35C80.93,29,79.94,37.94,81,47.15a30.93,30.93,0,0,0,6.54,15.44A29.41,29.41,0,0,0,99.3,71.68a11.65,11.65,0,0,0,2,.71c.67.16,1.5.41,1.87-.48s-.3-1.32-1-1.63-1.19-.47-1.78-.7A25.59,25.59,0,0,1,86.31,56.65a26.32,26.32,0,0,1-2.86-8.58c-.16-1.35-.11-2.73-.4-4-.69-3,.06-6,.1-9a2,2,0,0,1,1-2.06,24.34,24.34,0,0,0,7.28,20.12c5.85,5.84,13.85,9.08,19.61,8.1-2.16-.91-4.23-1.71-6.23-2.65S100.72,57,99.31,55.23ZM178,121.46a8.14,8.14,0,0,0-3.19.56c-2,.65-4,1.09-5.91,1.92s-4.32,1.18-6.18,2.44a22.19,22.19,0,0,1-5.82,2.76,10.28,10.28,0,0,0-1.1.46.61.61,0,0,0-.39.76.92.92,0,0,0,.71.59c.58.15,1.08-.2,1.6-.37,7-2.31,14.18-4.25,21.3-6.27a5.35,5.35,0,0,0,.67-.24,1.92,1.92,0,0,0,1.13-1.84c0-.74-.89-.76-1.54-.77Zm-46.62,26c-.26-1.05-.81-1-1.25-1.16q-4.8-1.41-9.62-2.8c-1.15-.33-2.29-.69-3.46-.92a75.15,75.15,0,0,1-8.35-1.89c-1-.33-1.61-1.22-2.65-1.53a19.17,19.17,0,0,1-6.44-3.58c-.87-.7-1.62-1.54-2.44-2.3a.89.89,0,0,0-1.1-.2.77.77,0,0,0-.24,1.06,6.54,6.54,0,0,0,1.86,2.71,29.93,29.93,0,0,0,10.12,4.72c5.62,1.47,11.26,2.86,16.89,4.27C126.8,146.42,128.94,146.92,131.34,147.5Zm58.32-42.84c0-.92-.87-1.46-1.94-1.13a19.48,19.48,0,0,0-5.74,2.84c-2,1.49-4.18,2.89-6.22,4.39-.59.44-1.31.55-1.89,1a.87.87,0,0,0-.36,1c.21.51.61.37,1,.18.14-.07.29-.13.43-.21a77.16,77.16,0,0,1,9-4.75c1.51-.7,3.05-1.35,4.56-2C189.13,105.69,189.73,105.4,189.66,104.66Zm-71.32-46a1.54,1.54,0,0,0,1.25.42c2.35.13,4.5-.92,6.77-1.21,3.55-.45,6-2.66,8.55-4.86a11,11,0,0,0,1.75-2.25,1.08,1.08,0,0,0-.11-1.52,1.21,1.21,0,0,0-1.55.09,11.84,11.84,0,0,0-1.24,1.11c-1.07,1.07-2.19,2.1-3.17,3.25-2.67,3.14-6.14,4.37-10.14,4.46C119.79,58.18,119,57.93,118.34,58.67ZM105,66.19a9.38,9.38,0,0,0,4.49,2.48c4,.89,8.12.54,12.17.35a7.53,7.53,0,0,0,4.9-2.28c.32-.32.84-.66.46-1.18a.8.8,0,0,0-1.1,0c-2.53,1.63-5.48,1.7-8.28,2a26.8,26.8,0,0,1-9.06-.23C107.38,67,106.4,66.09,105,66.19Zm42.1,52.44c1.44-.51,3.15-.31,4.76-.62,2.11-.4,4.3-.13,6.36-.83.43-.14,1.07-.07.95-.75a1,1,0,0,0-1.12-.69,25.91,25.91,0,0,1-3.06.44,32.77,32.77,0,0,0-6.83.81c-.78.14-1.57.18-2.35.33a.7.7,0,0,0-.43.5.69.69,0,0,0,.37.54A8.37,8.37,0,0,0,147.13,118.63Zm3.24,17.23a5.06,5.06,0,0,0-2.88-.44c-2.46-.12-5,.23-7.37-.49-.44-.13-.88-.1-1.25-.54-1.25-1.51-2.53-1.76-4-.87-.34.21-.7.43-.61.92s.42.44.72.51a29,29,0,0,0,5.63.92c1.66.07,3.32.07,5,.26C147,136.28,148.59,136.79,150.37,135.86Zm20.7-3.82c-1.74.63-3.52,1.25-5.28,1.92a.75.75,0,0,0-.43,1,1.13,1.13,0,0,0,1,.88c1.13.19,4.82-1.55,5.42-2.56a.75.75,0,0,0,0-.88C171.62,132.22,171.35,132.17,171.07,132ZM101.93,66.65a15.13,15.13,0,0,0-6.06-4.53A16.92,16.92,0,0,0,101.93,66.65Zm51.52,69.24a.45.45,0,0,0-.51-.4c-.26,0-.46.13-.43.41a.43.43,0,0,0,.5.33C153.27,136.22,153.44,136.11,153.45,135.89Zm-50.5-31c-.11-.07-.22-.19-.34-.19s-.25.1-.37.15c.11.08.22.2.34.2S102.83,105,103,104.92Zm65.67-31.15s0-.15,0-.16a.93.93,0,0,0-.43,0c-.2.07-.18.22,0,.27A1,1,0,0,0,168.62,73.77Zm-4.71,1.32a.7.7,0,0,0-.19-.06s-.05.1-.07.16a.73.73,0,0,0,.2,0S163.89,75.14,163.91,75.09Z" fill="#9261bd"/><path d="M268.1,339c-4.46-.44-5.28-1.7-4.61-6.31a20.25,20.25,0,0,0,0-6,34.24,34.24,0,0,1-.34-5.24c0-4.71.3-9.45-.11-14.13-.61-7.11,0-14.22-.46-21.29-.78-11.25-.14-22.5-.44-33.75-.08-2.94-.69-5.86-.42-8.81.78-8.92.08-17.88.57-26.79.2-3.71.11-7.47.82-11.17s2.59-5.6,6.65-6.8c2.26-.67,4.68-.8,6.82-1.9.62-.15,1.23-.35,1.86-.44,8.89-1.34,17.77-2.69,26.59-4.41,2.41-.47,4.94-.53,7.13-1.86,0,3.12,0,6.24-.08,9.35-.22,20.46-.07,40.91.1,61.36.15,17.66.62,35.31.94,53,.07,3.54-1.54,5.93-4.85,7.4q-18.48,8.24-36.95,16.51a6.74,6.74,0,0,1-2.23.83.7.7,0,0,0-.68.34A.32.32,0,0,1,268.1,339Z" fill="#ba8f45"/><path d="M196.8,130.07c0-.15.1-.29.16-.43l.45-.43a1.7,1.7,0,0,0,1.43-1c.92,0,1.74-.12,2-1.22a4.69,4.69,0,0,0-2.56,1.2c-.5.3-1.13.41-1.45,1l0,0c-1.21-.17-2.38,1.12-3.77,0a8.7,8.7,0,0,1,2.93-3,227.83,227.83,0,0,0,27.78-17.81c3.33-2.48,6.68-4.89,9.77-7.66a18.14,18.14,0,0,0,3.56-3.76c-.7-.66-1.17-.11-1.57.14a83.44,83.44,0,0,1-11.36,5.65c-.37.15-.77.46-1.11.4-2-.31-3,1.12-4.2,2.26a46.09,46.09,0,0,1-17,10.43,112.23,112.23,0,0,1-11.83,3.79c-.31.07-.61.22-.92.29a.66.66,0,0,1-.8-.35.76.76,0,0,1,.31-1,12.66,12.66,0,0,1,2-.81,77.65,77.65,0,0,0,10.49-4.07,37.3,37.3,0,0,0,14.44-11.84c1.82-2.54,4.06-4.71,6-7.15s4.51-3.2,7.06-4.33c3.51-1.54,7.18-2.64,10.69-4.18,4.48-2,7.72-5.33,10.94-8.78,1.41-1.51,2.61-3.22,3.94-4.8a2.58,2.58,0,0,0,.83-1.91l.18-.29-.29.18c-4.19,2.12-8.86,3.11-12.92,5.53a51.34,51.34,0,0,0-5.86,4.52,6.94,6.94,0,0,1-3.37,1.65c.31-.85,1-1.84-.33-2.36-1.06-.43-1.82,0-2,1.25v.5l0,0-1.45,0c-1.22-.88-1.66-.14-1.94.93a20,20,0,0,0-9.19,5.23,50.7,50.7,0,0,0-4.06,4.35,37.13,37.13,0,0,1-14.13,10.28c0-.72.89-1.06.88-1.61-.06-1.89,1.36-2.77,2.43-3.9,1.45-1.55,3.2-2.86,3.94-5a1.92,1.92,0,0,0,1-1.62l0,0a1.34,1.34,0,0,0,1-1.46v0c.47-.17.54-.55.49-1v0c.54-.21.3-.41,0-.6a2.07,2.07,0,0,0,0-.35h.34c1.32,0,1.64-.83,1.57-2l0,0a.55.55,0,0,0,.5-.5h0a.54.54,0,0,0,.5-.49h0a.56.56,0,0,0,.5-.49v0a1.38,1.38,0,0,0,1-1.47l0,0a4.63,4.63,0,0,0,.85-.24c.18-.08.4-.31.23-.51s-.38-.11-.58-.15l0-.59a3.94,3.94,0,0,1,1.36-1.33,8.76,8.76,0,0,0,1.59-1c4.26-4.35,10.05-6.39,14.89-9.88,2.58-1.86,5.55-3.23,8-5.27,4.28-3.61,9.17-6.34,13.5-9.88a31.67,31.67,0,0,1,4.13-2.82,57.23,57.23,0,0,0,10.94-8.48c3.33-3.21,6.36-6.73,10-9.64a2.52,2.52,0,0,0,.9-1.64c1.24-.68,1.8-2.05,2.92-2.85.87.76.4,1.55.08,2.37-.83,2.11-1.63,4.24-2.44,6.37h0a.5.5,0,0,0-.42.54l-1.09,1.8a.52.52,0,0,0-.39.54l-.21.35a.44.44,0,0,0-.36.53l-.38.59c-.73.45-1.41.93-1.42,1.91l-.61.87a.82.82,0,0,0-.78,1.08l0,0c-.15,0-.36,0-.46.06-2,1.8-3.4,4.14-5.19,6.13-.17.19-.09.61-.13.93l0,0c-.53,0-1.26-.15-1.5.42-.48,1.13-1.73,1.34-2.38,2.12-1.13,1.33-2.83,2.25-3.28,4.13a.56.56,0,0,0-.55.46,2.33,2.33,0,0,0-2.06,1,10.32,10.32,0,0,1-2.32,2c-2.76,2-5.11,4.6-8.07,6.58,2.59-.65,5.35-.27,7.68-1.85a3,3,0,0,1,.43-.11,1.25,1.25,0,0,0,1.42-.47h0a1.35,1.35,0,0,0,1.4-.48h0a.79.79,0,0,0,.93-.47l0,0c2.62-.19,4.29-1.85,5.81-3.75l.34-.22c1.2.29,1.87-.43,2.45-1.31h0a.82.82,0,0,0,1-.41h0a.85.85,0,0,0,.89-.52h0a.48.48,0,0,0,.56-.33,1.58,1.58,0,0,0,.36-.2.49.49,0,0,0,.55-.34h0c.27.12.83.12.76.4-.22.87,0,1.85-.67,2.62a3.36,3.36,0,0,0-1,2.28l-.87,1.72a.41.41,0,0,0-.27.5l-1.46,2.43a1.34,1.34,0,0,0-.95,1.41l-1.2,1.89-.28.33-.45.69a.92.92,0,0,0-.79,1.08,2.43,2.43,0,0,0-.53,2.36,2.82,2.82,0,0,0-.07,2.56A33,33,0,0,1,259,90.53c-3.44,4.91-6,10.36-9.07,15.48A104.46,104.46,0,0,1,237,122.87,63.72,63.72,0,0,1,227,132c-2.24,1.57-3.89,3.77-5.81,5.69a60,60,0,0,1-19.63,13,154.57,154.57,0,0,1-25.4,8.4c-.78.18-1.58.26-2.36.38a24.14,24.14,0,0,0-3.8-.12,8.47,8.47,0,0,1-1.43,0c-3.64-1-7,.47-10.47,1.11a49.57,49.57,0,0,1-7,.37c-.4,0-.8,0-1.2,0v-.49h0l.5-.36c6-.66,12-1.62,17.43-4.48a122.84,122.84,0,0,1,15.1-6.61,30,30,0,0,0,7.65-4.73,7,7,0,0,1,2-1.21c.77.89,1.55,1.5,2.66.4.46-.46,1.17-.25,1.77-.36,2.11.28,3.28-.94,3.88-2.7a7,7,0,0,1,2.35-3.13,40,40,0,0,0,6.18-6.1l0,0,.51-.51,0,0,.88-.06c1.39-.49,1.39-.49,2.08-1.94a30.06,30.06,0,0,0-4.75,1.77,40.5,40.5,0,0,0-9.39,7.31,4.52,4.52,0,0,1-1.81,1.51,2.68,2.68,0,0,1,.9-2.54,23.72,23.72,0,0,1,5-4.25c.45-.25,1-.53,1-1.21-1.08-.46-2,.47-3,.4-1.06-.22-1.12-.68-.28-1.29.36-.26.91-.16,1.2-.59,1.2-.59,2.55-.82,3.76-1.32a30.32,30.32,0,0,0,11.85-8.57,4,4,0,0,0,1.36-2.73c-1.69.93-3.12,1.78-4.61,2.52-4.77,2.36-8.5,6.07-12.45,9.5a3.4,3.4,0,0,0-2.41.91A1.85,1.85,0,0,1,196.8,130.07Zm39-17.73a.48.48,0,0,0,.16-.08s0-.08,0-.12l-.2.2a.59.59,0,0,0-.16.07s0,.08,0,.13ZM244,99.41l.5-.46c1.24-.86,2.51-1.67,3.69-2.6,1.46-1.15,2.23-2.87,3.27-4.36a.65.65,0,0,0-.19-1,.63.63,0,0,0-.8.35c-.94,1.61-2.51,2.65-3.66,4.06a10.62,10.62,0,0,0-2.41,3.47l-.45.5-.18.23Zm15.35-18.74c-.23.06-.28.13-.13.17s.07-.12.11-.19l.48-.48c.15-.17.61-.25.17-.58l-.15.6Zm-34.1,43.21.64-.51c3.76-1.72,5.82-5.15,8.23-8.22a2.08,2.08,0,0,0,.27-1.37c.17-.12.71.2.47-.35,0-.12-.37.13-.48.35-.48.11-1,.78-1.44,0,.2-.17.63-.28.18-.63l-.18.63a1.5,1.5,0,0,0-.41.23c-3.62,3.28-6.69,7.14-10.61,10.11-.29.22-.28.54.11.73-.36.92-1.45.8-2,1.44a2.73,2.73,0,0,0-2.45,2.35,1.54,1.54,0,0,1-1,1c-.82,0-1.57.09-1.86,1h0a1.27,1.27,0,0,0-1.47,1.4c-1.53,1.86-3.7,2.91-5.5,4.44-.62.53-1.67.69-1.7,1.79-.2.09-.73-.24-.52.35,0,.11.41-.12.51-.35a3.49,3.49,0,0,0,1.75-.7,94.41,94.41,0,0,0,14.55-10.67c.79-.7,1.91-1.23,2-2.55h0a.87.87,0,0,0,1-.49ZM258,81.28a28.47,28.47,0,0,0-7.35,6.54.79.79,0,0,0,.42,1.33,1.9,1.9,0,0,0,2.36-.6c1.55-2,3.11-4,4.65-6.07A.83.83,0,0,0,258,81.28ZM234.7,79.69s0-.12-.1-.14-.1,0-.15.08l.18.22Z" fill="#544375"/><path d="M312.17,190.1c-2.19,1.33-4.72,1.39-7.13,1.86-8.82,1.72-17.7,3.07-26.59,4.41-.63.09-1.24.29-1.86.44-3.12.05-6.13.91-9.21,1.22-4.16.43-8.22,1.66-12.48,1.19-5.14-.56-10.3-1-15.45-1.35-3.73-.28-7.48-.56-11.22-.58A138.22,138.22,0,0,1,211.59,196c-2.37-.3-4.77-.34-7.14-.59-3.56-.39-7.15-.34-10.7-.88a45.56,45.56,0,0,0-5.7-.43c-3.84-.08-7.65-.41-11.46-.66-6.14-.41-12.29-.2-18.42-.53-5.41-.28-10.84-.34-16.21-1-2.93-.34-5.91-.11-8.78-.9a21.34,21.34,0,0,1,5.08-3.54c1-.44,2-1,2.2-2.07.49-2.31,2.07-3.65,3.86-4.88,9.08-.18,18.14.66,27.21.51,1.59,0,3.14.61,4.75.37l2.62,0c5.33.14,10.67.48,16,.67,5.5.19,11,.11,16.49.51,3.91.28,7.81.17,11.71.39,8.75.51,17.52.7,26.28,1.06,3.82.16,7.64.17,11.46.39,9.39.54,18.79.77,28.2,1,5.8.15,11.59.81,17.41.94a18,18,0,0,1,4.65,1C312.4,187.69,312.61,188.44,312.17,190.1Z" fill="#f1d29e"/><path d="M93.22,257.64a2.15,2.15,0,0,1,2.65.19c.7.53,1.37,1.08,2.06,1.62A5,5,0,0,0,98.5,261a15,15,0,0,1,2.33,4.95c1.34,4.14,4,7.63,5.69,11.58a2.76,2.76,0,0,0,.56.77c2.32,2.3,2.6,5.06,2.23,8.18s-.91,6.43.26,9.68c1.44,4,1.28,4.21,5.54,4.9a6.88,6.88,0,0,1,5.86,5.23,125.16,125.16,0,0,1,3.94,15.26,13.64,13.64,0,0,1-8.35,6.59,4.27,4.27,0,0,1-4-1c-2.46-2-5.38-2.55-8.33-3.14a21.3,21.3,0,0,1-6.2-2.36c.39-.56.94-.51,1.51-.39,3.73.8,7.34,2.07,11,3.15a14.32,14.32,0,0,0,10.43-.83,4.16,4.16,0,0,0,2.33-5c-1.32-3.75-2.63-7.47-5.71-10.35a31.73,31.73,0,0,0-8.19-6.11,4.41,4.41,0,0,1-2.35-2.56c-1.07-2.8-2.81-5.31-3.21-8.42-.22-1.78-1.19-2.08-2.76-1.22a49.73,49.73,0,0,0-4.66,2.91c-2.71,1.95-5.35,4-8,6-.36.26-.77.6-1.41.16.09-3.82.33-7.66,1.84-11.36a27.28,27.28,0,0,0,2.51-10.37,14.45,14.45,0,0,1,2.13-6.94c.33-.6.72-1.07,1.49-.93s1.13.76,1.16,1.56c.15,3.65,1.85,6.71,3.74,9.69.24.39.38,1,1,.82s.58-.72.55-1.21a6.6,6.6,0,0,0-.17-1.17c-.65-3.06-2-5.89-3-8.83a2.59,2.59,0,0,0-3-1.89,15.2,15.2,0,0,1-1.91,0,1.92,1.92,0,0,0-1.77,1.05,36,36,0,0,0-1.85,3.6c-1.81,4.32-3.24,8.82-5.91,12.75a10.56,10.56,0,0,0-.67,1.53c-1.72,3.67-2.93,7.6-5.57,10.79a7,7,0,0,0-1.47,3.24c-.32,1.71-.31,3.46-.58,5.2a1.76,1.76,0,0,0,2.65,1.87c1.36-.87,1.82-.28,2.37.75.3.56.71,1.07,1,1.65,1.29,2.85,3.8,3.2,5.67.71a5.44,5.44,0,0,1,1.56-1.78,47.19,47.19,0,0,0,10.32-8.07c1.4-1.39,1.77-1.28,2.28.57.15.54.31,1.07.42,1.62a2.36,2.36,0,0,1-.61,2.42,64.27,64.27,0,0,0-4.47,5.28,5.57,5.57,0,0,0-1.26,2.18,2.89,2.89,0,0,1-2.75,2.22,22.69,22.69,0,0,0-6.3,1.17,2.19,2.19,0,0,1-2.89-.87c-1.28-1.72-3.09-1.79-4.14,0a3.77,3.77,0,0,1-4,2.1c-.29,0-.61.21-.92.23-2.25.15-4.24,1.36-6.46,1.64-1.88.23-1.88.23-2.06,2.4a44.31,44.31,0,0,1-8-.83,48.82,48.82,0,0,0-7-.12A6.41,6.41,0,0,1,47.6,321c.48-.49,1-.23,1.52-.28,1.33-.14,2.26-.8,2.28-1.67s-.93-1.61-2.23-1.69c-.64,0-1.28,0-1.92,0a9,9,0,0,1-3.26-.85,8.63,8.63,0,0,0,7.26-4.05c1.73-2.77,4.46-4.54,6.91-6.54,3.07-2.52,6.39-4.73,9.6-7.08a1.67,1.67,0,0,0,.74-1,7.41,7.41,0,0,0-2-1.54c-3.47-2.52-5-5.61-4.15-10.1.62-3.1,1.57-6.16,1.7-9.37a2.43,2.43,0,0,1,2-2.34c8.35-2.22,15.6-6.8,23-11.05C91.06,262.2,93,260.41,93.22,257.64Zm-2.41,7.43-.4-.4c-3.26,2.13-6.5,4.29-10,6.09-4,2.09-7.89,4.56-12.34,5.75A1.43,1.43,0,0,0,66.84,278a35,35,0,0,1-1.79,9.82,3.16,3.16,0,0,0,.92,3.48A20.54,20.54,0,0,0,69.29,294,8.88,8.88,0,0,1,73,298c3.16-1.3,5.66-2.92,6.49-6.65,1-4.67,3.2-9,5.29-13.3S88.79,269.4,90.81,265.07ZM64.18,305.78A70.18,70.18,0,0,0,57.62,311a.53.53,0,0,0-.16.64.64.64,0,0,0,.8.34,21.81,21.81,0,0,0,4.33-1.23,1.3,1.3,0,0,0,.86-1C63.63,308.47,64.22,307.32,64.18,305.78Z" fill="#e1e2e1"/><path d="M65.86,322.58c.18-2.17.18-2.17,2.06-2.4,2.22-.28,4.21-1.49,6.46-1.64.31,0,.63-.26.92-.23a3.77,3.77,0,0,0,4-2.1c1.05-1.78,2.86-1.71,4.14,0a2.19,2.19,0,0,0,2.89.87,22.69,22.69,0,0,1,6.3-1.17,2.89,2.89,0,0,0,2.75-2.22,5.57,5.57,0,0,1,1.26-2.18,64.27,64.27,0,0,1,4.47-5.28,2.36,2.36,0,0,0,.61-2.42c-.11-.55-.27-1.08-.42-1.62-.51-1.85-.88-2-2.28-.57a47.19,47.19,0,0,1-10.32,8.07,5.44,5.44,0,0,0-1.56,1.78c-1.87,2.49-4.38,2.14-5.67-.71-.26-.58-.67-1.09-1-1.65-.55-1-1-1.62-2.37-.75a1.76,1.76,0,0,1-2.65-1.87c.27-1.74.26-3.49.58-5.2a7,7,0,0,1,1.47-3.24c2.64-3.19,3.85-7.12,5.57-10.79a10.56,10.56,0,0,1,.67-1.53c2.67-3.93,4.1-8.43,5.91-12.75a36,36,0,0,1,1.85-3.6,1.92,1.92,0,0,1,1.77-1.05,15.2,15.2,0,0,0,1.91,0,2.59,2.59,0,0,1,3,1.89c1,2.94,2.32,5.77,3,8.83a6.6,6.6,0,0,1,.17,1.17c0,.49,0,1.06-.55,1.21s-.74-.43-1-.82c-1.89-3-3.59-6-3.74-9.69,0-.8-.29-1.41-1.16-1.56s-1.16.33-1.49.93a14.45,14.45,0,0,0-2.13,6.94,27.28,27.28,0,0,1-2.51,10.37c-1.51,3.7-1.75,7.54-1.84,11.36.64.44,1.05.1,1.41-.16,2.69-2,5.33-4,8-6a49.73,49.73,0,0,1,4.66-2.91c1.57-.86,2.54-.56,2.76,1.22.4,3.11,2.14,5.62,3.21,8.42a4.41,4.41,0,0,0,2.35,2.56,31.73,31.73,0,0,1,8.19,6.11c3.08,2.88,4.39,6.6,5.71,10.35a4.16,4.16,0,0,1-2.33,5,14.32,14.32,0,0,1-10.43.83c-3.66-1.08-7.27-2.35-11-3.15-.57-.12-1.12-.17-1.51.39-1.8-2-3.89-2.24-6.42-1.54-3.22.89-6.59.57-9.9.58-.84-1.7-1.26-1.92-2.29-.75a7.17,7.17,0,0,1-4.36,2.17,1.43,1.43,0,0,0-1,.51c-1.77,1-3.66.33-5.49.44C67.64,323.08,66.63,323.4,65.86,322.58Z" fill="#f8f9f8"/><path d="M239.57,44.62c.73.8,1.59.49,2.45.28,5.63-1.43,11.3-2.68,16.87-4.33.91-.27,1.93-.64,2.63.29s.1,2.17-1.2,2.94a82.89,82.89,0,0,1-10,4.68,112.59,112.59,0,0,1-14.27,4.86c-3.58,1-7.12,2.36-10.93,2.41a3.75,3.75,0,0,0-2.65,1.48A31.9,31.9,0,0,1,216,62.4,19.44,19.44,0,0,1,211,64.16a48.11,48.11,0,0,1-14.76,2.58,32,32,0,0,0-14.11,3,19.55,19.55,0,0,1-6,1.9A17.7,17.7,0,0,0,172.31,73a3.14,3.14,0,0,1-2.36.28c3.35-2.77,7.66-3.22,11.65-5a5.06,5.06,0,0,0-3.27-.93,32.17,32.17,0,0,1-7.28-1.26A60.09,60.09,0,0,0,160,64.58a23.51,23.51,0,0,0-12.27,2.49,5.41,5.41,0,0,1-3.12,1.11h0a19.4,19.4,0,0,1,8.4-4.29c.74-.22,1.49-.4,2.26-.6-.21-.48-1.38-1,0-1.25,2.17-.43,4.38-.76,6.59-1a24.65,24.65,0,0,0,4.51-.41c1.26-.37,2.48.43,3.78.37,3.59-.17,7.13.56,10.69.81,4.12.28,8.28,1.09,12.41.55a45.05,45.05,0,0,0,12.49-3.28c-2.11-.88-4-.37-5.83-.5s-3.81.15-5.72-.35a40.83,40.83,0,0,0-5.63-.94A30,30,0,0,1,183,55.76c-1.81-.58-3.62-1.18-5.41-1.82a56,56,0,0,1-5.37-2c-1.7-.8-3.67-.84-5.65-2a5.1,5.1,0,0,1,3.67.48,88.5,88.5,0,0,0,16.53,4.71c2.65.5,5.3,1.08,8,1.53.88.14,1.91.45,2.7-.41v0c2.05.14,4.06.83,6.26.37-.3-.55-.87-.6-1.3-.71-4.86-1.22-9.63-2.79-14.44-4.19a110.42,110.42,0,0,1-20.61-8.13,7.15,7.15,0,0,0-3.55-1.32.7.7,0,0,1-.78-.92.91.91,0,0,1,1-.82,13.82,13.82,0,0,1,2.49.78c3.19,1.25,6.33,2.62,9.61,3.62a4.2,4.2,0,0,0,1.63.27c0,.06,0,.13.07.18s.09,0,.14,0l-.21-.22c-1.91-1.93-4.44-2.76-6.84-3.76-4.26-1.79-8.62-3.31-12.93-5a9.8,9.8,0,0,1-3.11-1.68c.35-.85,1-.64,1.44-.47,4.78,1.8,9.82,2.72,14.65,4.3,4.31,1.41,8.57,3,12.72,4.83a43.52,43.52,0,0,0,11,3.2c.7.11,1.43,0,2,.61a1.07,1.07,0,0,0,.86.31c1.37-.37,2.61.4,3.86.42a71.67,71.67,0,0,1,8.28,1,14.64,14.64,0,0,0,4.74-.28c3.11-.58,6.28-.87,9.55-1.29-1.47-.72-3.08.23-4.38-.69,3.17-.25,6.35.06,9.52-.49,1.71-.3,3.45-.45,5.15-.86A18,18,0,0,1,239.57,44.62ZM210.82,61a27,27,0,0,0,7.77-3.73c-1.56-.21-3.33-.42-4.38.6a3.9,3.9,0,0,1-2.59,1.23c-1.33.13-1.33.18-.79,1.9a.67.67,0,0,0-.17.08s0,.08,0,.12Zm-25,3.56c-3.23.24-6.27-1-9.44-1.23s-6.27-1.07-9.43-1.26-6.65-.63-10.12.61a4.79,4.79,0,0,0,2.51.23,33.13,33.13,0,0,1,10.41,1.16,41.39,41.39,0,0,0,11.34,1.31C182.7,65.33,184.17,64.66,185.81,64.54Z" fill="#aea2c4"/><path d="M124.91,321.55A125.16,125.16,0,0,0,121,306.29a6.88,6.88,0,0,0-5.86-5.23c-4.26-.69-4.1-.91-5.54-4.9-1.17-3.25-.65-6.48-.26-9.68s.09-5.88-2.23-8.18a2.76,2.76,0,0,1-.56-.77c-1.71-3.95-4.35-7.44-5.69-11.58A15,15,0,0,0,98.5,261a5,5,0,0,1-.57-1.55,4.94,4.94,0,0,1,.13-.95c.6-1.68,1.51-2.05,2.82-.88a71.32,71.32,0,0,1,5.06,5.08c1.66,1.82,3.13,3.81,4.81,5.6,1.89,2,3.51,4.28,5.82,5.94,1.74,1.25,2.78,3.26,3.93,5.06.93,1.44.65,3.07.39,4.65a42.74,42.74,0,0,0-.82,5.87,5.88,5.88,0,0,0,2.69,5.27c.13.09.28.16.42.24a8.54,8.54,0,0,1,3.95,5.58c1.36,5.31,3.2,10.49,4.85,15.72.12.38.24.76.35,1.14.75,2.67.36,3.52-2.12,4.7A12.65,12.65,0,0,1,124.91,321.55Z" fill="#ba8f45"/><path d="M144.32,180.52c-1.79,1.23-3.37,2.57-3.86,4.88-.22,1.06-1.25,1.63-2.2,2.07a21.34,21.34,0,0,0-5.08,3.54,5.46,5.46,0,0,0-2.64,2.66,11.48,11.48,0,0,1-2.61,3.4,5.61,5.61,0,0,0-1.84,3,14.23,14.23,0,0,1-1.65,3.76,7.61,7.61,0,0,1,1.22-8c1.31-1.38,2.67-2.74,2.67-5.3-2.44,2.56-4.82,4.6-7.17,6.68-.75.68-.68,1.78-.9,2.69a3.66,3.66,0,0,1-2.27,2.53c-.84.4-1.15,0-1.41-.72a3,3,0,0,1,.09-1.88,26.74,26.74,0,0,0,.28-9.27,21.71,21.71,0,0,1,1.85-3.86,8.67,8.67,0,0,0,.85-1.95c.19-.6-.17-1-.75-.81-.84.23-1.62.72-2.46.88-2.24.42-2.89,2-3,3.95,0,.47,0,1,0,1.43-.65,1.91-.25,4.11-1.56,6-1.76-1.88-1.06-4.11-1.34-6.13,0-.31.13-.62.15-.93,0-.75.78-1.72,0-2.18s-1.87.13-2.63.64a2.94,2.94,0,0,0-1.33,2.4c-1,1.23-1,2.87-1.8,4.42a7.54,7.54,0,0,1-.87-4.71,38.92,38.92,0,0,1,2-5.27c-2.51-.07-2.51-.07-3.7,1.83-.26.42-.54.83-1.11.68a1.29,1.29,0,0,1-.9-1,6.34,6.34,0,0,1,.17-2.6c1.42-1.8,3.51-2,5.57-2.27a8.87,8.87,0,0,1,2.62.1c2.18.42,4.24.44,6.13-1a3.9,3.9,0,0,1,3.23-.54c4.26.92,8.58.34,12.87.53,1.29.06,3.39-1.81,3.64-3.32a36.15,36.15,0,0,0-.55-14.93c-.06-.21-.29-.38-.43-.56a1.23,1.23,0,0,1,1.3-.39c2.09.64,4.23.33,6.35.33l1.12,0,.51.63a.93.93,0,0,1-.56.72c-2.45.78-3.25,2.46-3,4.94s.24,4.92.46,7.37c.19,2.14.46,2.33,2.56,2.76S144.52,178.36,144.32,180.52Zm-24.23,11a15.74,15.74,0,0,0,3-3c.32-.42.54-.81,0-1.18s-1-.47-1.34.26c-.54,1.3-1.56,2.4-1.64,3.9-.16.21-.4.41-.18.71Z" fill="#544375"/><path d="M55.24,22.08a5.42,5.42,0,0,0,2.54-.56c4.73-1.34,9.51-2,14.35-.85,4.08.94,5.68,3.71,4.49,7.7-.87,2.89-1.68,5.82-3.42,8.36a11.85,11.85,0,0,1-1,1.33c-1.38,1.55-1.39,1.54-.62,3.28-1.67-.86-3.52-.8-5.31-1a32.51,32.51,0,0,0-8.53.54,38.37,38.37,0,0,0-6,2A4.48,4.48,0,0,1,51,40.33c2.9-2.22,6.5-3,9.73-4.57a2.37,2.37,0,0,0-1.24-.12c-3.18.51-6,2-8.88,3.31-3.18,1.43-6.44,2.81-8.35,6-.1.16-.41.2-.62.29A3.88,3.88,0,0,1,41.88,42,58.09,58.09,0,0,1,49.78,28c1-1.33,2.09-2.61,3.13-3.91.5-.62.92-1.32,1.8-1.47a.79.79,0,0,0,.59-.5Z" fill="#aea2c4"/><path d="M100.42,183.33a6.34,6.34,0,0,0-.17,2.6,1.29,1.29,0,0,0,.9,1c.57.15.85-.26,1.11-.68,1.19-1.9,1.19-1.9,3.7-1.83a38.92,38.92,0,0,0-2,5.27c-2.3,0-4.6-.14-6.9-.11a22.43,22.43,0,0,1-3.76-.55,2.66,2.66,0,0,1-.87-.37,1.8,1.8,0,0,1-1-2c.21-.89,1.06-1,1.76-.73,1.31.42,1.55-.18,1.44-1.28C96.32,183.07,98.42,183.41,100.42,183.33Z" fill="#f1d29e"/><path d="M41.62,45.27c.21-.09.52-.13.62-.29,1.91-3.22,5.17-4.6,8.35-6,2.88-1.3,5.7-2.8,8.88-3.31a2.37,2.37,0,0,1,1.24.12c-3.23,1.58-6.83,2.35-9.73,4.57-3.45,1.16-6.68,2.61-7.94,6.45-.11.32-.21.6-.58.64-.52,0-.7-.33-.76-.73A13.52,13.52,0,0,1,41.62,45.27Z" fill="#694c8e"/><path d="M256,66.83c-2.33,1.58-5.09,1.2-7.68,1.85,3-2,5.31-4.54,8.07-6.58a10.32,10.32,0,0,0,2.32-2,2.33,2.33,0,0,1,2.06-1,2.31,2.31,0,0,0-.46,1.66A.33.33,0,0,1,260,61c-1.66.36-2.06.75-2,1.93a18.19,18.19,0,0,1-3.53,3.2c-.06-.2-.12-.56-.19-.56-.44,0-.57.34-.68.69l0,0c-.47.19-.31.35,0,.49.22.49.62.41,1,.27A2.34,2.34,0,0,1,256,66.83Z" fill="#aea2c4"/><path d="M280,36.53c.81-2.13,1.61-4.26,2.44-6.37.32-.82.79-1.61-.08-2.37.55-.65,1-1.46,2.09-.77.48.31,1-.41,1.76-.29a50.51,50.51,0,0,1-3.87,6.87A6.83,6.83,0,0,1,280,36.53Z" fill="#9261bd"/><path d="M271.38,63.44a3.36,3.36,0,0,1,1-2.28c.68-.77.45-1.75.67-2.62.07-.28-.49-.28-.76-.4.14-.19.24-.52.41-.56,2.7-.65,4.64-2.56,6.79-4.12a1.59,1.59,0,0,1,.45-.15l0,0c-.18.94-.93,1.47-1.52,2.1a49,49,0,0,0-6.3,7.49A2.62,2.62,0,0,1,271.38,63.44Z" fill="#aea2c4"/><path d="M261.31,58.6c.45-1.88,2.15-2.8,3.28-4.13.65-.78,1.9-1,2.38-2.12.24-.57,1-.37,1.5-.42a1.7,1.7,0,0,1-.71,1.18c-1.91,1.75-3.33,4-5.47,5.52Z" fill="#aea2c4"/><path d="M74,322.59a1.43,1.43,0,0,1,1-.51,7.17,7.17,0,0,0,4.36-2.17c1-1.17,1.45-1,2.29.75C79.51,322.77,76.74,322.59,74,322.59Z" fill="#e1e2e1"/><path d="M268.49,51.91c0-.32,0-.74.13-.93,1.79-2,3.18-4.33,5.19-6.13.1-.09.31,0,.46-.06-.5,2-2.25,3.12-3.37,4.67C270.24,50.36,269.75,51.55,268.49,51.91Z" fill="#aea2c4"/><path d="M266.06,61.51c-1.52,1.9-3.19,3.56-5.81,3.75A10.73,10.73,0,0,1,266.06,61.51Z" fill="#aea2c4"/><path d="M144.58,161.32c-.39-.17-1,.08-1.26-.76a16.41,16.41,0,0,1,4.13-.2c.32,0,.68.06.73.42s-.52.52-.71.84l-1-.23a.38.38,0,0,0-.42-.06Z" fill="#694c8e"/><path d="M264.51,78.41a2.82,2.82,0,0,1,.07-2.56A1.65,1.65,0,0,1,264.51,78.41Z" fill="#aea2c4"/><path d="M268.85,60c-.58.88-1.25,1.6-2.45,1.31A2.88,2.88,0,0,1,268.85,60Z" fill="#aea2c4"/><path d="M283,126.32a.63.63,0,0,1,.79.64.59.59,0,0,1-.54.63.64.64,0,0,1-.77-.64A.62.62,0,0,1,283,126.32Z" fill="#9261bd"/><path d="M275.7,42.79c0-1,.69-1.46,1.42-1.91A1.92,1.92,0,0,1,275.7,42.79Z" fill="#aea2c4"/><path d="M261.31,58.6l1,0a7.08,7.08,0,0,1-2,2.09,2.31,2.31,0,0,1,.46-1.66A.56.56,0,0,1,261.31,58.6Z" fill="#9261bd"/><path d="M258,63c-.06-1.18.34-1.57,2-1.93C259.29,61.67,258.62,62.31,258,63Z" fill="#9261bd"/><path d="M178.9,181.38l-2.62,0C177.14,180.6,178,181,178.9,181.38Z" fill="#694c8e"/><path d="M267.83,69.5a1.34,1.34,0,0,1,.95-1.41A1.15,1.15,0,0,1,267.83,69.5Z" fill="#aea2c4"/><path d="M274.31,44.74a.82.82,0,0,1,.78-1.08A1,1,0,0,1,274.31,44.74Z" fill="#aea2c4"/><path d="M265.11,73.49a.92.92,0,0,1,.79-1.08A.84.84,0,0,1,265.11,73.49Z" fill="#aea2c4"/><path d="M253.56,66.29c.11-.35.24-.71.68-.69.07,0,.13.36.19.56C254.16,66.32,253.89,66.48,253.56,66.29Z" fill="#9261bd"/><path d="M259.27,65.76a1.35,1.35,0,0,1-1.4.48A1.31,1.31,0,0,1,259.27,65.76Z" fill="#aea2c4"/><path d="M257.84,66.25a1.25,1.25,0,0,1-1.42.47A1.39,1.39,0,0,1,257.84,66.25Z" fill="#aea2c4"/><path d="M260.23,65.28a.79.79,0,0,1-.93.47A.86.86,0,0,1,260.23,65.28Z" fill="#aea2c4"/><path d="M269.86,59.56a.82.82,0,0,1-1,.41A.86.86,0,0,1,269.86,59.56Z" fill="#aea2c4"/><path d="M270.78,59a.85.85,0,0,1-.89.52A.85.85,0,0,1,270.78,59Z" fill="#aea2c4"/><path d="M241.05,44.22a.78.78,0,0,1-1,.33A1,1,0,0,1,241.05,44.22Z" fill="#aea2c4"/><path d="M266.35,71.72l.28-.33C266.76,71.69,266.67,71.8,266.35,71.72Z" fill="#aea2c4"/><path d="M253.61,66.76c-.34-.14-.5-.3,0-.49Z" fill="#9261bd"/><path d="M270.24,65.66a.41.41,0,0,1,.27-.5C270.64,65.45,270.53,65.6,270.24,65.66Z" fill="#aea2c4"/><path d="M146,161.33a.38.38,0,0,1,.42.06C146.27,161.58,146.13,161.49,146,161.33Z" fill="#9261bd"/><path d="M271.37,58.69a.48.48,0,0,1-.56.33A.43.43,0,0,1,271.37,58.69Z" fill="#aea2c4"/><path d="M272.28,58.15a.49.49,0,0,1-.55.34A.41.41,0,0,1,272.28,58.15Z" fill="#aea2c4"/><path d="M280,53.31l.09-.15-.11.13Z" fill="#aea2c4"/><path d="M277.5,40.29a.44.44,0,0,1,.36-.53A.47.47,0,0,1,277.5,40.29Z" fill="#aea2c4"/><path d="M278.07,39.41a.52.52,0,0,1,.39-.54A.49.49,0,0,1,278.07,39.41Z" fill="#aea2c4"/><path d="M279.55,37.07a.5.5,0,0,1,.42-.54A.53.53,0,0,1,279.55,37.07Z" fill="#9261bd"/><path d="M55.3,22.07a.79.79,0,0,1-.59.5A.69.69,0,0,1,55.3,22.07Z" fill="#9261bd"/><path d="M268.42,338.85a.7.7,0,0,1,.68-.34A.74.74,0,0,1,268.42,338.85Z" fill="#e4a73f"/><path d="M254.52,334a64.63,64.63,0,0,1-1-12.73c.06-12.39,0-24.79.08-37.18a74.71,74.71,0,0,1,.85-11.17,2,2,0,0,0,0-.48c-.24-4,.72-7.94.52-11.94-.25-4.95.32-9.89.61-14.81.28-4.63,0-9.26.38-13.86.48-5.58.26-11.17.51-16.74.1-2.22.43-4.43.43-6.67a5.36,5.36,0,0,1,.34-1.38c.18-.6.24-1.42,1.05-1.39s1.31.79,1.43,1.65a1.94,1.94,0,0,1,0,.48c-.28,4.39.55,8.74.51,13.14-.1,12.47.08,24.95-.09,37.43a125.35,125.35,0,0,1-.86,15.24,17.28,17.28,0,0,0,0,2.16q0,23,0,46.06c0,3.35.53,6.65.86,10a39.4,39.4,0,0,1,.06,5.75,2.82,2.82,0,0,1-1.78,2.65,2.76,2.76,0,0,1-3.25-.83,4,4,0,0,0-3.65-1.41c-1.54.15-3-.59-4.49-.55a1.08,1.08,0,0,1-1.06-.83c-.17-.57.26-.81.59-1.17a6.75,6.75,0,0,1,4.56-1.77A11.74,11.74,0,0,1,254.52,334Z" fill="#ba8f45"/><path d="M259,203.73c-4.79-.06-9.43-1.36-14.21-1.45a13.1,13.1,0,0,1,9.88-1.48,10.72,10.72,0,0,0,1.61.35C258.27,201.35,258.46,201.56,259,203.73Z" fill="#ba8f45"/><path d="M113.37,190.16c0-.48,0-1,0-1.43.13-2,.78-3.53,3-3.95.84-.16,1.62-.65,2.46-.88.58-.16.94.21.75.81a8.67,8.67,0,0,1-.85,1.95,21.71,21.71,0,0,0-1.85,3.86A11.08,11.08,0,0,1,113.37,190.16Z" fill="#f1d29e"/><path d="M106.63,190a2.94,2.94,0,0,1,1.33-2.4c.76-.51,1.78-1.12,2.63-.64s.07,1.43,0,2.18c0,.31-.1.62-.15.93Z" fill="#f1d29e"/><path d="M96.22,13.55a39.23,39.23,0,0,1,9-3.7c11-2.46,22.68,2.81,27.43,13.09,3.85,8.34,2.86,16.39-2.5,23.77s-12.83,10.53-21.79,10.35a20.65,20.65,0,0,1-6.33-1.18,5.31,5.31,0,0,0-2.76-.65c-1.38-.36-2.17-1.56-3.28-2.31C88.52,47.86,86,40.19,85.71,31.71A17.91,17.91,0,0,1,90.91,19C92.64,17.13,94.45,15.35,96.22,13.55Zm4.2,29.15a1,1,0,0,0,.73.52,8.16,8.16,0,0,0,6.27,2.29,13.85,13.85,0,0,0,11.93-3.43c3.69-3.22,5.24-9.15,3.09-12.92,0-1.11.13-2.24,0-3.35a6.48,6.48,0,0,0-7-6,11.13,11.13,0,0,0-3.81,1.31c-1.44,0-2.88-.06-4.31.05a13.5,13.5,0,0,0-11.4,8.93c-1.54,4.88.44,10.39,4.54,12.64Z" fill="#ea785d"/><path d="M161.38,88.33c1.61.42,3.27-.69,5,.09-.17.94-1,1.1-1.53,1.42a48.15,48.15,0,0,1-13,5.82,50.33,50.33,0,0,1-12,1.82,75.05,75.05,0,0,0-29.23,6.19c-2.57,1.11-3.46,1.3-5,1.23,0-1,.79-1.31,1.52-1.59,7.67-2.91,15.2-6.21,23.1-8.49,1.75-.5,3.51-1,5.29-1.45,5.4-1.35,10.59-3.44,16-4.68a27.94,27.94,0,0,1,4.45-.84,1.92,1.92,0,0,0,1.72-.85,17.56,17.56,0,0,0-5.21.49c-3.51.52-7,.24-10.5.37a78.69,78.69,0,0,0-14,1.62c-3.92.86-7.43,2.8-10.89,4.82-3.91,2.29-7.7,4.8-11.82,6.74a4.16,4.16,0,0,1-3.43.38,10.76,10.76,0,0,0-2.9-.22c.15-.18.22-.35.28-.35,3.42.46,6.2-1,8.85-2.9,3.18-2.28,6.61-4.15,10-6.17.6-.36,1.37-.52,1.57-1.35.06-.25.22-.5.46-.47,2.29.32,4.09-1.09,6-1.85a28.85,28.85,0,0,1,8.63-1.64c2.38-.18,4.79,0,7.19,0a81.26,81.26,0,0,0,18-1.78c1.55-.34,3.11-.63,4.67-.94A28.24,28.24,0,0,0,171.92,81c.56-.28,1-.41,1.47.17a1.26,1.26,0,0,0-.16.07s0,.08,0,.12l.19-.2a3.54,3.54,0,0,0,2.8-1.2,100.56,100.56,0,0,0-13-.1,3.3,3.3,0,0,1,3.14-1.06c3.3.35,6.25-1,9.28-1.87,3.82-1.16,7.37-3,11-4.52a16.14,16.14,0,0,1,7-1.25c-1.62,1.4-2.83,2.63-4.21,3.61-3.69,2.63-7.36,5.3-11.29,7.58-3,1.73-6.33,2.54-9.57,3.62l-7.16,2.4c-.52,0-1-.14-1.53.17.17.35.49.29.78.28A.92.92,0,0,0,161.38,88.33Zm-1.92-1.91c.18-.12.72.2.49-.35,0-.12-.39.12-.49.35a.51.51,0,0,0-.17.07s0,.08,0,.12Z" fill="#aea2c4"/><path d="M96.22,13.55c-1.77,1.8-3.58,3.58-5.31,5.42a17.91,17.91,0,0,0-5.2,12.74C86,40.19,88.52,47.86,96,52.92c1.11.75,1.9,1.95,3.28,2.31,1.4,1.8,3.54,2.39,5.48,3.29s4.07,1.74,6.23,2.65c-5.76,1-13.76-2.26-19.61-8.1A24.34,24.34,0,0,1,84.14,33a2,2,0,0,0-1,2.06c0,3-.79,6-.1,9,.29,1.3.24,2.68.4,4a26.32,26.32,0,0,0,2.86,8.58,25.59,25.59,0,0,0,14.13,12.93c.59.23,1.2.43,1.78.7s1.34.75,1,1.63-1.2.64-1.87.48a11.65,11.65,0,0,1-2-.71,29.41,29.41,0,0,1-11.79-9.09A30.93,30.93,0,0,1,81,47.15c-1-9.21,0-18.18,5.35-26.15a22.61,22.61,0,0,1,9-7.35A2.8,2.8,0,0,1,96.22,13.55Z" fill="#544375"/><path d="M196.8,130.07a1.85,1.85,0,0,0,2.4-.06,3.4,3.4,0,0,1,2.41-.91l.09.6c-.29.43-.84.33-1.2.59-.84.61-.78,1.07.28,1.29a29.42,29.42,0,0,1-8.83,7.21A77.75,77.75,0,0,1,173,147.24c-4.22,1.17-8.28,2.83-12.49,4-2.67.73-5.48.77-8.18,1.42-5.33,1.26-10.77,1-16.18,1a44.21,44.21,0,0,1-8.25-1.17,2.54,2.54,0,0,1-2.22-1.57c-.18-.52-.22-.94.23-1.28a.79.79,0,0,1,1.08.14c1.44,1.44,3.36,1.26,5.13,1.43,2.22.21,4.45,0,6.67.44,1.89.42,3.76-.46,5.69-.4,5.23.16,10.24-1.23,15.26-2.43,1.75-.41,3.39-1,5.34-.57,1.26.26,2.79-.48,4.12-1,4.05-1.47,8-3.28,11.84-5.14a3.24,3.24,0,0,0,.53-.46c.39,0,.75-.1.93-.51a3.83,3.83,0,0,0,.68,0,.87.87,0,0,0,.36-.16c-.08-.29-.33-.29-.53-.21a2.66,2.66,0,0,0-.51.39,1,1,0,0,0-1,.46,8.09,8.09,0,0,0-3.67.93,18.61,18.61,0,0,1-4.56,1.32c.17-1.6.14-1.68,1.74-2.28,2.77-1,5.33-2.52,8-3.8a3.92,3.92,0,0,0,1.82-1.32c-4.16.41-7.65,2.25-11.45,2.67a22.22,22.22,0,0,1,7.36-2.69c5.19-1.11,10.14-2.73,14.49-5.86A2.56,2.56,0,0,1,196.8,130.07Zm1.11,2.68c-3.42.36-6,2.39-8.76,4.25,1-.1,2.13-.69,3-.47a2.08,2.08,0,0,0,2.31-.78A21.65,21.65,0,0,1,197.91,132.75Z" fill="#694c8e"/><path d="M178,121.46h1.28c.65,0,1.51,0,1.54.77a1.92,1.92,0,0,1-1.13,1.84,5.35,5.35,0,0,1-.67.24c-7.12,2-14.26,4-21.3,6.27-.52.17-1,.52-1.6.37a.92.92,0,0,1-.71-.59.61.61,0,0,1,.39-.76,10.28,10.28,0,0,1,1.1-.46,22.19,22.19,0,0,0,5.82-2.76c1.86-1.26,4.15-1.54,6.18-2.44s3.94-1.27,5.91-1.92A8.14,8.14,0,0,1,178,121.46Z" fill="#694c8e"/><path d="M131.34,147.5c-2.4-.58-4.54-1.08-6.68-1.62-5.63-1.41-11.27-2.8-16.89-4.27a29.93,29.93,0,0,1-10.12-4.72,6.54,6.54,0,0,1-1.86-2.71.77.77,0,0,1,.24-1.06.89.89,0,0,1,1.1.2c.82.76,1.57,1.6,2.44,2.3A19.17,19.17,0,0,0,106,139.2c1,.31,1.62,1.2,2.65,1.53a75.15,75.15,0,0,0,8.35,1.89c1.17.23,2.31.59,3.46.92q4.82,1.38,9.62,2.8C130.53,146.47,131.08,146.45,131.34,147.5Z" fill="#694c8e"/><path d="M207,91.87c-.74,2.12-2.49,3.43-3.94,5-1.07,1.13-2.49,2-2.43,3.9,0,.55-.9.89-.88,1.61a11.09,11.09,0,0,1-4.77,2.53c-.89.31-1.35-.3-1.68-.94s.17-.9.59-1.13c5.35-3,8.93-7.74,12.66-12.36.38-.48.59-1.17,1.36-1.21l.08.07,0,1,0,0A1.58,1.58,0,0,0,207,91.87Z" fill="#694c8e"/><path d="M189.66,104.66c.07.74-.53,1-1.12,1.29-1.51.7-3,1.35-4.56,2a77.16,77.16,0,0,0-9,4.75c-.14.08-.29.14-.43.21-.38.19-.78.33-1-.18a.87.87,0,0,1,.36-1c.58-.43,1.3-.54,1.89-1,2-1.5,4.17-2.9,6.22-4.39a19.48,19.48,0,0,1,5.74-2.84C188.79,103.2,189.64,103.74,189.66,104.66Z" fill="#694c8e"/><path d="M118.34,58.67c.7-.74,1.45-.49,2.11-.51,4-.09,7.47-1.32,10.14-4.46,1-1.15,2.1-2.18,3.17-3.25A11.84,11.84,0,0,1,135,49.34a1.21,1.21,0,0,1,1.55-.09,1.08,1.08,0,0,1,.11,1.52A11,11,0,0,1,134.91,53c-2.5,2.2-5,4.41-8.55,4.86-2.27.29-4.42,1.34-6.77,1.21A1.54,1.54,0,0,1,118.34,58.67Z" fill="#544375"/><path d="M105,66.19c1.37-.1,2.35.83,3.58,1.12a26.8,26.8,0,0,0,9.06.23c2.8-.32,5.75-.39,8.28-2a.8.8,0,0,1,1.1,0c.38.52-.14.86-.46,1.18a7.53,7.53,0,0,1-4.9,2.28c-4,.19-8.13.54-12.17-.35A9.38,9.38,0,0,1,105,66.19Z" fill="#544375"/><path d="M196.86,139.18a4.52,4.52,0,0,0,1.81-1.51,40.5,40.5,0,0,1,9.39-7.31,30.06,30.06,0,0,1,4.75-1.77c-.69,1.45-.69,1.45-2.07,1.94-.34-.5-.62-.31-.89.06l0,0-.51.51,0,0c-2.26.51-3.75,2.27-5.51,3.55-3,2.19-5.82,4.59-6.9,8.38-.6.11-1.31-.1-1.77.36-1.11,1.1-1.89.49-2.66-.4A3.41,3.41,0,0,1,194,141.6c.16,1,.69,1.31,1.39.49a4.76,4.76,0,0,0,1.48-2.9Z" fill="#694c8e"/><path d="M147.13,118.63a8.37,8.37,0,0,1-1.35-.27.69.69,0,0,1-.37-.54.7.7,0,0,1,.43-.5c.78-.15,1.57-.19,2.35-.33a32.77,32.77,0,0,1,6.83-.81,25.91,25.91,0,0,0,3.06-.44,1,1,0,0,1,1.12.69c.12.68-.52.61-.95.75-2.06.7-4.25.43-6.36.83C150.28,118.32,148.57,118.12,147.13,118.63Z" fill="#694c8e"/><path d="M230.49,81.12c.15-1.22.91-1.68,2-1.25,1.3.52.64,1.51.33,2.36a1.66,1.66,0,0,0-.32.22,1.28,1.28,0,0,0-.51,1.22,17.79,17.79,0,0,1-3.87,3.42c-.76.4-1.46,1-2.63.55.91-1.45,2.29-2.38,3.33-3.59.64-.76,1.7-1.24,1.71-2.45l0,0c.2-.06.55-.09.55-.16C231.08,81.05,230.7,81.2,230.49,81.12Z" fill="#694c8e"/><path d="M150.37,135.86c-1.78.93-3.35.42-4.75.27-1.67-.19-3.33-.19-5-.26A29,29,0,0,1,135,135c-.3-.07-.65-.13-.72-.51s.27-.71.61-.92c1.45-.89,2.73-.64,4,.87.37.44.81.41,1.25.54,2.42.72,4.91.37,7.37.49A5.06,5.06,0,0,1,150.37,135.86Z" fill="#694c8e"/><path d="M160.41,75.85c-2,1.15-4.31,1.08-6.45,1.28-4.58.43-9.12,1.44-13.76,1.09a1.28,1.28,0,0,1-.72-.22c3,.12,5.85-1.13,8.85-1.14A48.84,48.84,0,0,0,156.6,76a27.09,27.09,0,0,1,3.83-.13Z" fill="#aea2c4"/><path d="M171.07,132c.28.13.55.18.68.34a.75.75,0,0,1,0,.88c-.6,1-4.29,2.75-5.42,2.56a1.13,1.13,0,0,1-1-.88.75.75,0,0,1,.43-1C167.55,133.29,169.33,132.67,171.07,132Z" fill="#694c8e"/><path d="M101.93,66.65a16.92,16.92,0,0,1-6.06-4.53A15.13,15.13,0,0,1,101.93,66.65Z" fill="#694c8e"/><path d="M196.88,139.19a4.76,4.76,0,0,1-1.48,2.9c-.7.82-1.23.53-1.39-.49C195,140.8,195.17,139.09,196.88,139.19Z" fill="#544375"/><path d="M210.82,85c.18-1.14.55-2.15,1.84-2.46l.13.11,0,.94v0l-.5.49h0l-.5.49h0l-.5.5,0,0h-.49Z" fill="#694c8e"/><path d="M227.11,82.5c.28-1.07.72-1.81,1.94-.93A2.08,2.08,0,0,1,227.11,82.5Z" fill="#694c8e"/><path d="M153.45,135.89c0,.22-.18.33-.44.34a.43.43,0,0,1-.5-.33c0-.28.17-.41.43-.41A.45.45,0,0,1,153.45,135.89Z" fill="#694c8e"/><path d="M214.15,80.63c0,.2,0,.39,0,.59l-.5.9,0,0-.93.53-.13-.11A2.64,2.64,0,0,1,214.15,80.63Z" fill="#694c8e"/><path d="M142.27,161.21l-1.12,0c-.15-.25-.49-.58-.43-.75s.54-.17.83-.13C142,160.45,142.16,160.83,142.27,161.21Z" fill="#694c8e"/><path d="M160.43,75.87c.53-.67,1.21-.41,1.88-.13l-1.9.11Z" fill="#aea2c4"/><path d="M207.89,89.25a1.52,1.52,0,0,1,1-1.4h0v1l-.95.5Z" fill="#694c8e"/><path d="M209.86,86.41a1.37,1.37,0,0,1,1-1.44v0a1.48,1.48,0,0,1-1,1.43Z" fill="#694c8e"/><path d="M103,104.92c-.12.06-.25.17-.37.16s-.23-.12-.34-.2c.12,0,.25-.16.37-.15S102.84,104.85,103,104.92Z" fill="#aea2c4"/><path d="M168.62,73.77a1,1,0,0,1-.42.06c-.22,0-.24-.2,0-.27a.93.93,0,0,1,.43,0S168.61,73.72,168.62,73.77Z" fill="#aea2c4"/><path d="M232,83.67a1.28,1.28,0,0,1,.51-1.22A1.22,1.22,0,0,1,232,83.67Z" fill="#544375"/><path d="M163.91,75.09s0,.15-.06.15a.73.73,0,0,1-.2,0c0-.06,0-.15.07-.16A.7.7,0,0,1,163.91,75.09Z" fill="#aea2c4"/><path d="M209.41,86.93a2.07,2.07,0,0,1,0,.35v.58h-.5C208.9,87.45,209,87.09,209.41,86.93Z" fill="#694c8e"/><path d="M209.75,86.94h-.33a.57.57,0,0,1,.44-.52h0Z" fill="#694c8e"/><path d="M144.58,68.18l-.2.2a.5.5,0,0,1,0-.13l.17-.07Z" fill="#aea2c4"/><path d="M197.41,129.21l-.45.43-.06-.52,0,0Z" fill="#694c8e"/><path d="M150.36,160l-.5.36A.47.47,0,0,1,150.36,160Z" fill="#694c8e"/><path d="M149.85,160.33v.49C149.49,160.66,149.49,160.5,149.85,160.33Z" fill="#694c8e"/><path d="M197.39,56.17c-.06,0-.19-.08-.18-.09s.09-.11.17.11Z" fill="#aea2c4"/><path d="M201.7,129.7l-.09-.6c3.95-3.43,7.68-7.14,12.45-9.5,1.49-.74,2.92-1.59,4.61-2.52a4,4,0,0,1-1.36,2.73,30.32,30.32,0,0,1-11.85,8.57C204.25,128.88,202.9,129.11,201.7,129.7Z" fill="#9261bd"/><path d="M232.9,113.78c.49.78,1,.11,1.44,0h0a2.08,2.08,0,0,1-.27,1.37c-2.41,3.07-4.47,6.5-8.24,8.22a.84.84,0,0,0-.63.51l0,0a1,1,0,0,0-1,.49h0c-.81,0-1.46.67-2.29.51-.39-.19-.4-.51-.11-.73,3.92-3,7-6.83,10.61-10.11a1.5,1.5,0,0,1,.41-.23Z" fill="#694c8e"/><path d="M222,124.85c.83.16,1.48-.52,2.29-.51-.05,1.32-1.17,1.85-2,2.55a94.41,94.41,0,0,1-14.55,10.67,3.49,3.49,0,0,1-1.75.7h0c0-1.1,1.08-1.26,1.7-1.79,1.8-1.53,4-2.58,5.5-4.44a1.41,1.41,0,0,0,1.47-1.4h0c.82,0,1.54-.13,1.86-1a1.54,1.54,0,0,0,1-1,2.89,2.89,0,0,0,2.45-2.35C220.54,125.65,221.63,125.77,222,124.85Z" fill="#9261bd"/><path d="M197,143c1.08-3.79,3.9-6.19,6.9-8.38,1.76-1.28,3.25-3,5.51-3.55a40,40,0,0,1-6.18,6.1,7,7,0,0,0-2.35,3.13C200.27,142,199.1,143.26,197,143Z" fill="#9261bd"/><path d="M258,81.28a.83.83,0,0,1,.08,1.2c-1.54,2-3.1,4-4.65,6.07a1.9,1.9,0,0,1-2.36.6.79.79,0,0,1-.42-1.33A28.47,28.47,0,0,1,258,81.28Z" fill="#9261bd"/><path d="M244.36,98.85a10.62,10.62,0,0,1,2.41-3.47c1.15-1.41,2.72-2.45,3.66-4.06a.63.63,0,0,1,.8-.35.65.65,0,0,1,.19,1c-1,1.49-1.81,3.21-3.27,4.36-1.18.93-2.45,1.74-3.69,2.6Z" fill="#694c8e"/><path d="M220,126.29a2.89,2.89,0,0,1-2.45,2.35A2.73,2.73,0,0,1,220,126.29Z" fill="#694c8e"/><path d="M198.33,128.16a4.69,4.69,0,0,1,2.56-1.2c-.31,1.1-1.13,1.25-2,1.22Z" fill="#694c8e"/><path d="M214.7,130.63a1.41,1.41,0,0,1-1.47,1.4A1.27,1.27,0,0,1,214.7,130.63Z" fill="#694c8e"/><path d="M216.56,129.6c-.32.89-1,1-1.86,1C215,129.69,215.74,129.59,216.56,129.6Z" fill="#694c8e"/><path d="M209.75,86.94l.12-.52a1.48,1.48,0,0,0,1-1.43h.49C211.39,86.11,211.07,86.93,209.75,86.94Z" fill="#9261bd"/><path d="M198.33,128.16l.51,0a1.7,1.7,0,0,1-1.43,1l-.53-.07C197.2,128.57,197.83,128.46,198.33,128.16Z" fill="#9261bd"/><path d="M213.69,82.12l.5-.9c.2,0,.48,0,.58.15s-.05.43-.23.51A4.63,4.63,0,0,1,213.69,82.12Z" fill="#9261bd"/><path d="M208,89.32l.95-.5a1.34,1.34,0,0,1-1,1.46Z" fill="#9261bd"/><path d="M207,91.87a1.58,1.58,0,0,1,1-1.62A1.92,1.92,0,0,1,207,91.87Z" fill="#9261bd"/><path d="M212.79,82.62l.93-.53a1.38,1.38,0,0,1-1,1.47Z" fill="#9261bd"/><path d="M234.34,113.78c.11-.22.43-.47.48-.35.24.55-.3.23-.47.35Z" fill="#694c8e"/><path d="M224.26,124.35a1,1,0,0,1,1-.49A.87.87,0,0,1,224.26,124.35Z" fill="#9261bd"/><path d="M209.85,130.59c.27-.37.55-.56.89-.06Z" fill="#9261bd"/><path d="M208.91,87.86h.49c0,.43,0,.81-.49,1Z" fill="#9261bd"/><path d="M234.7,79.69l-.07.16-.18-.22c.05,0,.11-.09.15-.08S234.67,79.64,234.7,79.69Z" fill="#694c8e"/><path d="M206,138.26c-.1.23-.47.46-.51.35-.21-.59.32-.26.52-.35Z" fill="#9261bd"/><path d="M259.79,80.19l.15-.6c.44.33,0,.41-.17.58Z" fill="#9261bd"/><path d="M230.49,81.12c.21.08.59-.07.54.34,0,.07-.35.1-.55.16Z" fill="#9261bd"/><path d="M232.9,113.78l.18-.63c.45.35,0,.46-.18.63Z" fill="#694c8e"/><path d="M211.78,84.51l.5-.49A.54.54,0,0,1,211.78,84.51Z" fill="#9261bd"/><path d="M212.26,84l.5-.49A.56.56,0,0,1,212.26,84Z" fill="#9261bd"/><path d="M211.3,85l.5-.5A.55.55,0,0,1,211.3,85Z" fill="#9261bd"/><path d="M259.29,80.65c0,.07-.09.2-.11.19s-.1-.11.13-.17Z" fill="#9261bd"/><path d="M259.31,80.67l.48-.48,0,0-.48.48Z" fill="#9261bd"/><path d="M209.39,87.88v-.6C209.69,87.47,209.93,87.67,209.39,87.88Z" fill="#9261bd"/><path d="M243.91,99.35l.45-.5.1.1-.5.46Z" fill="#694c8e"/><path d="M244,99.41l-.23.17.18-.23Z" fill="#694c8e"/><path d="M235.78,112.34l.2-.2s0,.1,0,.12a.48.48,0,0,1-.16.08Z" fill="#694c8e"/><path d="M254.94,70.53l.29-.18-.18.29Z" fill="#9261bd"/><path d="M235.79,112.34l-.21.2c0-.05,0-.1,0-.13a.59.59,0,0,1,.16-.07Z" fill="#694c8e"/><path d="M225.21,123.88a.84.84,0,0,1,.63-.51Z" fill="#9261bd"/><path d="M209.37,131.08l.51-.51Z" fill="#9261bd"/><path d="M90.81,265.07c-2,4.33-4,8.69-6.07,13s-4.25,8.63-5.29,13.3c-.83,3.73-3.33,5.35-6.49,6.65a8.88,8.88,0,0,0-3.67-4A20.54,20.54,0,0,1,66,291.29a3.16,3.16,0,0,1-.92-3.48A35,35,0,0,0,66.84,278a1.43,1.43,0,0,1,1.27-1.48c4.45-1.19,8.31-3.66,12.34-5.75,3.46-1.8,6.7-4,10-6.09Z" fill="#f8f9f8"/><path d="M64.18,305.78c0,1.54-.55,2.69-.73,3.92a1.3,1.3,0,0,1-.86,1A21.81,21.81,0,0,1,58.26,312a.64.64,0,0,1-.8-.34.53.53,0,0,1,.16-.64A70.18,70.18,0,0,1,64.18,305.78Z" fill="#f8f9f8"/><path d="M185.81,64.54c-1.64.12-3.11.79-4.73.82a41.39,41.39,0,0,1-11.34-1.31,33.13,33.13,0,0,0-10.41-1.16,4.79,4.79,0,0,1-2.51-.23c3.47-1.24,6.84-.81,10.12-.61s6.28,1,9.43,1.26S182.58,64.78,185.81,64.54Z" fill="#9261bd"/><path d="M210.83,61c-.54-1.72-.54-1.77.79-1.9a3.9,3.9,0,0,0,2.59-1.23c1-1,2.82-.81,4.38-.6A27,27,0,0,1,210.82,61Z" fill="#9261bd"/><path d="M210.82,61l-.2.2s0-.1,0-.12a.67.67,0,0,1,.17-.08Z" fill="#9261bd"/><path d="M177.7,45.14l.21.22s-.11,0-.14,0,0-.12-.07-.18Z" fill="#9261bd"/><path d="M120.11,191.54c.08-1.5,1.1-2.6,1.64-3.9.31-.73.82-.6,1.34-.26s.35.76,0,1.18a15.74,15.74,0,0,1-3,3Z" fill="#f1d29e"/><path d="M120.09,191.52l-.16.73c-.22-.3,0-.5.18-.71Z" fill="#f1d29e"/><path d="M122.44,29.16c2.15,3.77.6,9.7-3.09,12.92a13.85,13.85,0,0,1-11.93,3.43c2.62-.89,4.49-2.48,4.73-5.4.23-2.69-1.14-4.57-3.35-5.91a5.62,5.62,0,0,0-6.53.15,6,6,0,0,0-2.34,6.34c.15.69.76,1.25.54,2-4.1-2.25-6.08-7.76-4.54-12.64a13.5,13.5,0,0,1,11.4-8.93c1.43-.11,2.87,0,4.31-.05-.45.56-.92,1.1-1.32,1.68-1.73,2.55-1.44,5.13,0,7.66a6.11,6.11,0,0,0,6,3.22C119.35,33.57,121.17,31.75,122.44,29.16Z" fill="#544375"/><path d="M122.44,29.16c-1.27,2.59-3.09,4.41-6.18,4.51a6.11,6.11,0,0,1-6-3.22c-1.42-2.53-1.71-5.11,0-7.66.4-.58.87-1.12,1.32-1.68a11.13,11.13,0,0,1,3.81-1.31,6.48,6.48,0,0,1,7,6C122.57,26.92,122.46,28.05,122.44,29.16Z" fill="#f8f9f8"/><path d="M100.47,42.73c.22-.79-.39-1.35-.54-2a6,6,0,0,1,2.34-6.34,5.62,5.62,0,0,1,6.53-.15c2.21,1.34,3.58,3.22,3.35,5.91-.24,2.92-2.11,4.51-4.73,5.4a8.16,8.16,0,0,1-6.27-2.29c-.17-.27-.31-.6-.73-.52Z" fill="#f8f9f8"/><path d="M100.42,42.7c.42-.08.56.25.73.52A1,1,0,0,1,100.42,42.7Z" fill="#544375"/><path d="M161.38,88.33a.92.92,0,0,1-.74.46c-.29,0-.61.07-.78-.28.48-.31,1-.15,1.53-.17Z" fill="#9261bd"/><path d="M159.46,86.42c.1-.23.44-.47.49-.35.23.55-.31.23-.49.35Z" fill="#9261bd"/><path d="M173.38,81.13l-.19.2s0-.09,0-.12a1.26,1.26,0,0,1,.16-.07Z" fill="#9261bd"/><path d="M159.46,86.42l-.21.19s0-.1,0-.12a.51.51,0,0,1,.17-.07Z" fill="#9261bd"/><path d="M197.91,132.75a21.65,21.65,0,0,0-3.44,3,2.08,2.08,0,0,1-2.31.78c-.88-.22-2,.37-3,.47C191.87,135.14,194.49,133.11,197.91,132.75Z" fill="#9261bd"/><path d="M182.5,141.13a2.66,2.66,0,0,1,.51-.39c.2-.08.45-.08.53.21a.87.87,0,0,1-.36.16,3.83,3.83,0,0,1-.68,0Z" fill="#9261bd"/><path d="M181.52,141.59a1,1,0,0,1,1-.46h0c-.18.41-.54.48-.93.51Z" fill="#9261bd"/><path d="M44.06,41.82l-1.94,2.3c-.22.25-.85.77-.92,1.08-.19.16-.14.2.14.14a.4.4,0,0,1,.34,0c.14.12.08,0,0,0,.14.15-.07.21.07.3s.45,0,.56,0,.36.36.53.42c0,0,0-.18.1-.18s.07-.06,0-.06c-.21,0,0,0,.58.14-1.42-1.3-3.55.81-2.12,2.12a2.66,2.66,0,0,0,4.35-2.48A3.93,3.93,0,0,0,40.43,43a2.81,2.81,0,0,0-.16,5,2.44,2.44,0,0,0,3.17-.83L46.18,44c1.24-1.47-.87-3.6-2.12-2.13Z" fill="#fff"/><path d="M49.23,45.06a4.91,4.91,0,0,0,5.4-.09,1.53,1.53,0,0,0,.31-2.36,3.92,3.92,0,0,0-6.48,2.65c-.09,1.93,2.91,1.92,3,0a.58.58,0,0,1,.08-.22,2.11,2.11,0,0,1,.39-.32,1.06,1.06,0,0,1,.6-.11c-.2,0,.24.06.25.06-.18,0,.15.17,0,.06l.31-2.35a2,2,0,0,1-2.38.09c-1.63-1-3.14,1.55-1.51,2.59Z" fill="#fff"/><path d="M43.47,52.26a1.5,1.5,0,0,0,0-3,1.5,1.5,0,0,0,0,3Z" fill="#fff"/><path d="M42.87,61.72q.24-.07-.15,0a.94.94,0,0,1-.72-.29c.11.11.09.07-.07-.11.07.14.06.1,0-.12q.06.24,0-.15c0,.17,0,.12,0-.15,0,.16,0,.11.07-.14a1,1,0,0,1,.56-.47,1.5,1.5,0,0,0,.8,2.89,2.27,2.27,0,0,0-1.28-4.35,1.55,1.55,0,0,0-1,1.85,1.5,1.5,0,0,0,1.84,1Z" fill="#fff"/><path d="M38,69.2c.06.17.07.15,0-.06,0,.17,0,.15,0-.06s.08-.19,0-.1,0,.07.06-.06c-.13.11-.12.1,0,0s.19-.07.09,0-.07,0,.12,0a.58.58,0,0,1,.34.07s.39.38.21.17c.08.2.1.22,0,.07,0,.23,0,.26,0,.09l0,.19c0-.16,0-.13-.06.07.26-.26-.45.3-.12.12A1.5,1.5,0,1,0,37.23,67a2.65,2.65,0,0,0,0,4.52c1.88,1.07,4.44-1.1,3.59-3.14a1.54,1.54,0,0,0-1.84-1,1.5,1.5,0,0,0-1,1.84Z" fill="#fff"/><path d="M38.83,319.15l-.14.18-.66.38q-1.17.26-1-.93c-.32-.43-.33-.72,0-.88a1.44,1.44,0,0,0-.37.19,1.5,1.5,0,0,0-.53,2.05,1.54,1.54,0,0,0,2,.54c1.08-.51,2-1.8,1.23-3a1.86,1.86,0,0,0-3.19-.08,1.55,1.55,0,0,0,.54,2.06,1.53,1.53,0,0,0,2.06-.54Z" fill="#fff"/><path d="M41,309.83a6.12,6.12,0,0,1-4.65,1.22c-1.89-.31-2.7,2.58-.8,2.89a9.09,9.09,0,0,0,7-1.52c1.55-1.12,0-3.72-1.52-2.59Z" fill="#fff"/><path d="M27.67,317c.23-.1-.16,0,0,0s.08,0,0,0-.09,0,0,0l-.14,0,.1.05c-.14-.09-.16-.1-.09,0l-.06-.06.23,1.82a.81.81,0,0,1-.27.25c.25-.17-.22.06-.06,0s-.31,0-.1,0,.34.05,0,0c.19,0,0,0-.08-.05.16.12,0,0-.06-.08.17.22-.12-.2,0,0s-.1-.34,0,0a1.52,1.52,0,0,0,1.85,1.05A1.54,1.54,0,0,0,30,318a2.52,2.52,0,0,0-2-1.9,2.62,2.62,0,0,0-2.8,1.13,1.5,1.5,0,0,0,.24,1.82,3.33,3.33,0,0,0,3.77.59,1.5,1.5,0,0,0,.54-2.05,1.54,1.54,0,0,0-2-.54Z" fill="#fff"/><path d="M37.94,313c0-.16-.06-.18,0-.07v-.08c0,.14,0,.16,0,.05s0-.09,0,0l.07-.13c-.08.09-.09.1,0,0s.06-.07,0,0c.14-.08.16-.09.07-.05-.29.12,0,0,0,0a.15.15,0,0,1-.13,0c-.08,0-.05,0,.1.07-.12-.17,0,0,0,0s0-.39,0,0a1.5,1.5,0,0,0,3,0,3,3,0,1,0-5.83.9,1.54,1.54,0,0,0,1.84,1,1.51,1.51,0,0,0,1-1.85Z" fill="#fff"/><path d="M44,324.91a1.5,1.5,0,0,0,0-3,1.5,1.5,0,0,0,0,3Z" fill="#fff"/><path d="M18.46,323.4a1.5,1.5,0,0,0,0-3,1.5,1.5,0,0,0,0,3Z" fill="#fff"/><path d="M1.45,323.91a1.5,1.5,0,0,0,0-3,1.5,1.5,0,0,0,0,3Z" fill="#fff"/><path d="M12.45,320.4a1.5,1.5,0,0,0,0-3,1.5,1.5,0,0,0,0,3Z" fill="#fff"/><path d="M34.6,96.81a3.1,3.1,0,0,1,.24,2.12l1-1.05-.33.1c.13,0,.1,0-.09,0,.24,0-.2-.06-.23-.07.16.06-.23-.16-.23-.16s-.21-.21-.26-.27a1.25,1.25,0,0,1-.27-.59c0,.21,0-.2,0-.25,0,.12.05-.1.1-.18A1.5,1.5,0,0,0,32,94.93c-1.28,2.17.07,4.92,2.3,5.79,1.12.43,3,.38,3.44-1a6.06,6.06,0,0,0-.54-4.43,1.52,1.52,0,0,0-2-.54,1.53,1.53,0,0,0-.54,2.06Z" fill="#fff"/><path d="M42.35,46.11c-1.55.68-1.89,2.69-1.28,4.11.72,1.66,2.5,2.26,4.14,2.6,1.88.39,2.69-2.5.8-2.89-.67-.14-1.68-.24-2.14-.81-.09-.11,0-.15-.1-.36,0,.14.08-.21,0-.07s-.22.14.09,0a1.5,1.5,0,0,0,.53-2.05,1.54,1.54,0,0,0-2-.54Z" fill="#fff"/></svg>