<svg xmlns="http://www.w3.org/2000/svg" xmlns:xlink="http://www.w3.org/1999/xlink" width="45" height="43" viewBox="0 0 45 43">
    <defs>
        <path id="a" d="M.177.037h23.808v26.851H.177z"/>
        <path id="c" d="M.187.103h3.641v9.52H.187z"/>
    </defs>
    <g fill="none" fill-rule="evenodd">
        <path fill="#9B59B6" d="M35.693 35.367c0 2.238-1.802 4.06-4.017 4.06H6.779c-2.215 0-4.017-1.822-4.017-4.06V10.204c0-2.239 1.802-4.06 4.017-4.06h10.005V3.352H6.779C3.04 3.352 0 6.426 0 10.204v25.163c0 3.777 3.04 6.85 6.779 6.85h24.897c3.738 0 6.779-3.073 6.779-6.85v-7.965h-2.762v7.965z"/>
        <g transform="translate(18.818 .045)">
            <mask id="b" fill="#fff">
                <use xlink:href="#a"/>
            </mask>
            <path fill="#9B59B6" d="M21.33 20.533a.517.517 0 0 1-.53.375H3.345a.522.522 0 0 1-.517-.366.442.442 0 0 1 .265-.44 2.455 2.455 0 0 0 1.5-2.237v-7.8C4.593 6 7.951 2.69 12.078 2.69c4.113 0 7.47 3.298 7.484 7.35v7.802c.005.977.6 1.85 1.506 2.224a.44.44 0 0 1 .262.467m-9.138 3.772a2.215 2.215 0 0 1-1.72-.814h3.439a2.215 2.215 0 0 1-1.72.814m9.992-6.618V9.996c0-5.491-4.533-9.959-10.105-9.959-5.573 0-10.106 4.468-10.106 9.959v7.718A3.017 3.017 0 0 0 .22 20.98a3.113 3.113 0 0 0 3.16 2.512h4.185c.596 1.962 2.444 3.397 4.627 3.397s4.03-1.435 4.627-3.397h3.951a3.116 3.116 0 0 0 3.166-2.517c.248-1.368-.463-2.703-1.753-3.287" mask="url(#b)"/>
        </g>
        <path fill="#9B59B6" d="M18.418 13.268l.01.001a1.361 1.361 0 0 0 1.49-1.214l.311-3.306c.112-1.22.426-2.407.94-3.538a1.334 1.334 0 0 0-.744-1.757 1.378 1.378 0 0 0-1.779.722 13.536 13.536 0 0 0-1.146 4.32l-.312 3.305a1.354 1.354 0 0 0 1.23 1.467"/>
        <g transform="translate(40.91 3.352)">
            <mask id="d" fill="#fff">
                <use xlink:href="#c"/>
            </mask>
            <path fill="#9B59B6" d="M3.823 8.211L3.545 5.04A13.773 13.773 0 0 0 2.53.904a1.25 1.25 0 0 0-.657-.701A1.146 1.146 0 0 0 .824.258C.274.573.04 1.273.282 1.9c.455 1.07.737 2.206.84 3.375L1.4 8.443c.027.344.18.655.428.877a1.167 1.167 0 0 0 .893.299h.006c.668-.069 1.16-.7 1.096-1.408" mask="url(#d)"/>
        </g>
    </g>
</svg>
