<?xml version="1.0" encoding="UTF-8"?>
<svg width="76px" height="76px" viewBox="0 0 76 76" version="1.1" xmlns="http://www.w3.org/2000/svg" xmlns:xlink="http://www.w3.org/1999/xlink">
    <!-- Generator: Sketch 61 (89581) - https://sketch.com -->
    <title>Loyalty Rewards</title>
    <desc>Created with Sketch.</desc>
    <g id="Page-1" stroke="none" stroke-width="1" fill="none" fill-rule="evenodd">
        <g id="homepage-v4" transform="translate(-1042.000000, -3182.000000)" fill="#00C967">
            <g id="Loyalty-Rewards" transform="translate(1042.000000, 3182.000000)">
                <path d="M49.4000124,73.4666501 L73.4666501,73.4666501 L73.4666501,63.3333747 L49.4000124,63.3333747 L49.4000124,73.4666501 Z M43.0666998,46.9189106 L43.0666998,45.5999255 L57.0000621,45.5999255 C58.2540163,45.5999255 59.4585768,45.2325755 60.491004,44.5498754 L61.5410542,45.5999255 C62.0356115,46.094607 62.8375763,46.094607 63.3321337,45.5999255 C63.826691,45.1053682 63.826691,44.3035275 63.3322578,43.8089702 L60.367768,40.8438599 C59.0224728,39.4981923 58.2666749,37.6732322 58.2666749,35.7704585 L58.2666749,30.4000745 C58.2666749,30.0631301 58.1336347,29.7413265 57.8954777,29.5045347 L51.9187179,23.5276509 C51.2619557,22.8710127 50.8153028,22.0227569 50.6998854,21.1012793 C50.3643062,18.4237197 52.6237569,16.1642689 55.3013165,16.4998481 C56.2227941,16.6152655 57.07105,17.0620426 57.7276881,17.7186807 L72.9893433,32.98046 C73.2948892,33.28613 73.4666501,33.7005157 73.4666501,34.1328966 L73.4666501,60.8000248 L49.4000124,60.8000248 L49.4000124,55.7333251 C49.4000124,55.3963807 49.2669721,55.0747013 49.0288152,54.8377853 L44.4503434,50.2591895 C43.5643597,49.3733299 43.0666998,48.1717479 43.0666998,46.9189106 L43.0666998,46.9189106 Z M2.53334988,39.2666129 L2.53334988,6.33331265 C2.53334988,4.23470164 4.23470164,2.53334988 6.33331265,2.53334988 L57.0000621,2.53334988 C59.0986731,2.53334988 60.8000248,4.23470164 60.8000248,6.33331265 L60.8000248,17.2089826 L59.5337842,15.9424938 C58.4484884,14.857322 57.0356801,14.1385074 55.5098124,13.9731999 C51.2726287,13.5143847 47.7142978,17.0727156 48.1733612,21.3097752 C48.3386687,22.8355188 49.0573592,24.248327 50.1426551,25.3336229 L55.7333251,30.924417 L55.7333251,36.2513643 C55.7333251,38.1983194 56.4235956,40.0821051 57.6816452,41.5681351 L58.6263305,42.6840849 C58.1197349,42.9260891 57.571192,43.0666998 57.0000621,43.0666998 L6.33331265,43.0666998 C4.23470164,43.0666998 2.53334988,41.365348 2.53334988,39.2666129 L2.53334988,39.2666129 Z M63.3333747,19.7423325 L63.3333747,6.33331265 C63.3333747,2.8355449 60.4978298,0 57.0000621,0 L6.33331265,0 C2.8355449,0 0,2.8355449 0,6.33331265 L0,39.2666129 C0,42.7645047 2.8355449,45.5999255 6.33331265,45.5999255 L40.5333499,45.5999255 L40.7672873,48.5590788 C40.8558981,49.6798686 41.3411476,50.7322767 42.1361625,51.5271675 L46.8666625,56.2576675 L46.8666625,62.0666377 L46.8666625,74.733263 C46.8666625,75.4328414 47.4338212,76 48.1332754,76 L74.733263,76 C75.4328414,76 76,75.4328414 76,74.733263 L76,62.0666377 L76,32.9334243 C76,32.5963559 75.8669597,32.2746764 75.6288027,32.0377605 L63.3333747,19.7423325 Z" id="Fill-1"></path>
                <polygon id="Fill-3" points="5.52963596 14.5322093 6.92968284 16 9.20004689 13.6197803 11.4703172 16 12.8702703 14.5322093 11.1356375 12.7136432 13.4 12.1209231 12.9207207 10.1071104 10.1900198 10.8224249 10.1900198 8 8.20988647 8 8.20988647 10.8224249 5.47918551 10.1071104 5 12.1209231 7.2643625 12.7136432"></polygon>
                <polygon id="Fill-4" points="19.5297238 14.5322093 20.9297551 16 23.2 13.6197803 25.4702449 16 26.8701824 14.5322093 25.135569 12.7136432 27.4 12.1209231 26.9207261 10.1071104 24.1900556 10.8224249 24.1900556 8 22.2098506 8 22.2098506 10.8224249 19.4791802 10.1071104 19 12.1209231 21.2643372 12.7136432"></polygon>
                <polygon id="Fill-5" points="40.9208145 10.1072087 38.1901135 10.8224249 38.1901135 8 36.2099802 8 36.2099802 10.8224249 33.4792793 10.1072087 33 12.1209231 35.2643625 12.7137415 33.5297297 14.5323076 34.9296828 16 37.1999531 13.6197803 39.4703172 16 40.870364 14.5323076 39.1356375 12.7137415 41.4 12.1209231"></polygon>
                <polygon id="Fill-6" points="11.4703172 27 12.870364 25.5322093 11.1357313 23.7135449 13.4 23.1209231 12.9208145 21.1072087 10.1901135 21.8223265 10.1901135 19 8.20988647 19 8.20988647 21.8223265 5.47918551 21.1072087 5 23.1209231 7.2643625 23.7135449 5.52963596 25.5322093 6.92968284 27 9.20004689 24.6197803"></polygon>
                <polygon id="Fill-7" points="20.9297551 27 23.2 24.6197803 25.4702449 27 26.8702762 25.5322093 25.1356628 23.7135449 27.4 23.1209231 26.9208198 21.1072087 24.1901494 21.8223265 24.1901494 19 22.2098506 19 22.2098506 21.8223265 19.4791802 21.1072087 19 23.1209231 21.2643372 23.7135449 19.5297238 25.5322093"></polygon>
                <path d="M7.37508139,37 L15.6251791,37 C16.3845407,37 17,37.4477909 17,38.0000474 C17,38.5523038 16.3845407,39 15.6251791,39 L7.37508139,39 C6.61571975,39 6,38.5523038 6,38.0000474 C6,37.4477909 6.61571975,37 7.37508139,37" id="Fill-8"></path>
                <path d="M20.3750814,37 L28.6250488,37 C29.3845407,37 30,37.4477909 30,38.0000474 C30,38.5523038 29.3845407,39 28.6250488,39 L20.3750814,39 C19.6157197,39 19,38.5523038 19,38.0000474 C19,37.4477909 19.6157197,37 20.3750814,37" id="Fill-9"></path>
                <path d="M54.499929,68 L54.499929,68 C55.3284557,68 56,68.6716863 56,69.500071 C56,70.3284557 55.3284557,71 54.499929,71 C53.6715443,71 53,70.3284557 53,69.500071 C53,68.6716863 53.6715443,68 54.499929,68" id="Fill-10"></path>
            </g>
        </g>
    </g>
</svg>