<svg xmlns="http://www.w3.org/2000/svg" xmlns:xlink="http://www.w3.org/1999/xlink" width="30" height="45" viewBox="0 0 30 45">
    <defs>
        <path id="a" d="M0 0h30v44.286H0z"/>
    </defs>
    <g fill="none" fill-rule="evenodd">
        <path fill="#00C967" d="M14.924 37.084a2.219 2.219 0 0 0-2.212 2.225c0 1.23.99 2.227 2.212 2.227a2.219 2.219 0 0 0 2.212-2.227c0-1.229-.99-2.225-2.212-2.225"/>
        <mask id="b" fill="#fff">
            <use xlink:href="#a"/>
        </mask>
        <path fill="#00C967" d="M28 42.273H2V2.013h3.95v2.309c0 .63.507 1.141 1.133 1.141h16.082c.626 0 1.134-.511 1.134-1.141V2.013H28v40.26zM8.217 3.182h13.814V2.013H8.217v1.169zM29 0H1C.447 0 0 .45 0 1.006V43.28c0 .557.447 1.007 1 1.007h28c.553 0 1-.45 1-1.007V1.006C30 .45 29.553 0 29 0z" mask="url(#b)"/>
        <path fill="#00C967" d="M22.838 8.635l-17.6 22.143c-.39.492-.311 1.21.178 1.604a1.13 1.13 0 0 0 1.594-.178L24.609 10.06a1.147 1.147 0 0 0-.177-1.604 1.13 1.13 0 0 0-1.594.178M5.438 38.83c-.39.492-.31 1.21.178 1.604a1.13 1.13 0 0 0 1.594-.178l17.6-22.143a1.147 1.147 0 0 0-.178-1.604 1.131 1.131 0 0 0-1.594.178L5.438 38.83z" mask="url(#b)"/>
    </g>
</svg>
