<svg xmlns="http://www.w3.org/2000/svg" xmlns:xlink="http://www.w3.org/1999/xlink" width="46" height="36" viewBox="0 0 46 36">
    <defs>
        <path id="a" d="M0 0h45.303v35.5H0z"/>
        <path id="c" d="M.348 35.308h45.304V0H.348z"/>
    </defs>
    <g fill="none" fill-rule="evenodd">
        <g transform="translate(.348)">
            <mask id="b" fill="#fff">
                <use xlink:href="#a"/>
            </mask>
            <path fill="#9B59B6" d="M43.127 30.717a2.62 2.62 0 0 1-2.622 2.614H4.798a2.62 2.62 0 0 1-2.622-2.614V7.544a2.62 2.62 0 0 1 2.622-2.613h10.68l1.94-2.687a.18.18 0 0 1 .146-.075H28.09a.18.18 0 0 1 .152.083l1.72 2.679h10.543a2.62 2.62 0 0 1 2.622 2.613v23.173zM40.505 2.76h-.056a1.722 1.722 0 0 0-1.714-1.558h-2.888c-.896 0-1.634.686-1.714 1.558h-2.98l-1.078-1.678A2.347 2.347 0 0 0 28.09 0H17.564c-.756 0-1.47.365-1.912.976l-1.289 1.785H4.798C2.152 2.761 0 4.907 0 7.544v23.173C0 33.354 2.152 35.5 4.798 35.5h35.707c2.646 0 4.798-2.146 4.798-4.783V7.544c0-2.637-2.152-4.783-4.798-4.783z" mask="url(#b)"/>
        </g>
        <path fill="#9B59B6" d="M23.697 28.97c-5.513 0-9.998-4.456-9.998-9.932 0-5.475 4.485-9.93 9.998-9.93 5.513 0 9.997 4.455 9.997 9.93 0 5.476-4.484 9.931-9.997 9.931m0-22.046c-6.726 0-12.197 5.435-12.197 12.115 0 6.681 5.471 12.116 12.197 12.116 6.725 0 12.197-5.435 12.197-12.116 0-6.68-5.472-12.115-12.197-12.115"/>
        <path fill="#9B59B6" d="M23.348 24.862c-3.04 0-5.514-2.457-5.514-5.477 0-3.02 2.474-5.478 5.514-5.478 3.041 0 5.515 2.457 5.515 5.478 0 3.02-2.474 5.477-5.515 5.477m0-13.093c-4.227 0-7.666 3.416-7.666 7.616 0 4.199 3.44 7.615 7.666 7.615 4.228 0 7.667-3.416 7.667-7.615 0-4.2-3.44-7.616-7.667-7.616"/>
        <mask id="d" fill="#fff">
            <use xlink:href="#c"/>
        </mask>
        <path fill="#9B59B6" d="M6.5 9.099h5.121V7.516H6.5V9.1zm7.09.257V7.259a1.72 1.72 0 0 0-1.713-1.72H6.244a1.72 1.72 0 0 0-1.714 1.72v2.097c0 .949.77 1.72 1.714 1.72h5.633a1.72 1.72 0 0 0 1.714-1.72z" mask="url(#d)"/>
    </g>
</svg>
