<svg xmlns="http://www.w3.org/2000/svg" xmlns:xlink="http://www.w3.org/1999/xlink" width="45" height="48" viewBox="0 0 45 48">
    <defs>
        <path id="a" d="M0 0h44.228v47.584H0z"/>
    </defs>
    <g fill="none" fill-rule="evenodd">
        <g transform="translate(.507)">
            <mask id="b" fill="#fff">
                <use xlink:href="#a"/>
            </mask>
            <path fill="#00C967" d="M42.565 14.02l-4.179-5.682-.011-.014a.838.838 0 0 0-.04-.047l-.02-.023a.967.967 0 0 0-.048-.045l-.018-.016a.817.817 0 0 0-.072-.054l-.012-.007a.863.863 0 0 0-.067-.039l-.022-.01a.768.768 0 0 0-.061-.027l-.026-.01a.864.864 0 0 0-.062-.018L37.9 8.02a.738.738 0 0 0-.067-.012l-.025-.004A.8.8 0 0 0 37.715 8H24.712a11.49 11.49 0 0 0-.714-1.098V2.15L32.78 6.4c.226.109.49.11.718.003l9.067-4.269V14.02zm-4.018 1.623v-4.285l3.19 4.338-3.19-.053zm-1.663-.028V38.61l-4.254-7.965a.803.803 0 0 0-.056-.088l-.014-.02a.85.85 0 0 0-.052-.062l-.016-.017a.835.835 0 0 0-.073-.067l-.015-.01a.794.794 0 0 0-.176-.105l-.003-.002a.808.808 0 0 0-.2-.056L32 30.212a.855.855 0 0 0-.103-.007H18.317V24.51a11.538 11.538 0 0 0 6.255-4.976c.384-.635.709-1.311.965-2.019l.047-.137a11.24 11.24 0 0 0 .346-1.209l.008-.04a11.585 11.585 0 0 0 .264-1.978l.004-.154c.004-.117.009-.233.009-.35 0-.284-.014-.564-.035-.842a11.458 11.458 0 0 0-.329-2.019c-.1-.386-.222-.762-.36-1.131h11.393v5.96zm-4.157 25.487v-6.75l3.605 6.75h-3.605zm-1.663 0V45.449l-5.72-2.692-1.757-.828-1.59-.748a.832.832 0 0 0-.718.004l-1.538.744-1.71.828-5.533 2.677V31.861h18.566v9.24zM16.075 22.969a9.513 9.513 0 0 1-1.014.09c-.112.003-.225.008-.338.008-5.219 0-9.464-4.226-9.464-9.42 0-5.196 4.245-9.422 9.464-9.422.113 0 .226.005.338.009a9.513 9.513 0 0 1 2.028.29 9.486 9.486 0 0 1 6.65 6.262 9.197 9.197 0 0 1 .408 2.019 9.427 9.427 0 0 1 .026 1.346 9.228 9.228 0 0 1-.175 1.347 9.58 9.58 0 0 1-.159.671 9.554 9.554 0 0 1-.432 1.21c-.02.045-.038.091-.059.136a9.513 9.513 0 0 1-6.26 5.253 9.765 9.765 0 0 1-1.014.2l.001.001zM43.841.129a.835.835 0 0 0-.8-.05l-9.893 4.658L23.53.083a.835.835 0 0 0-.804.043.827.827 0 0 0-.39.702v4.26a11.494 11.494 0 0 0-6.26-2.8 11.54 11.54 0 0 0-1.015-.073c-.113-.003-.225-.008-.338-.008-6.337 0-11.492 5.132-11.492 11.44 0 3.11 1.255 5.932 3.285 7.996L.241 30.808a1.375 1.375 0 0 0 .365 1.917 1.387 1.387 0 0 0 1.926-.363l6.17-9.012c.271.173.56.346.865.51 1.502.72 3.38 1.225 5.156 1.225.113 0 .225-.005.338-.008a11.647 11.647 0 0 0 1.593-.157v5.285h-4.988a.83.83 0 0 0-.831.828v15.723c0 .286.147.55.39.702a.834.834 0 0 0 .805.043l9.617-4.654 9.893 4.657a.834.834 0 0 0 .8-.048.827.827 0 0 0 .387-.7v-4h4.988a.847.847 0 0 0 .1-.006l.026-.004a.83.83 0 0 0 .073-.014l.026-.007a.88.88 0 0 0 .081-.027l.01-.004a.853.853 0 0 0 .09-.042l.016-.01a.81.81 0 0 0 .144-.108l.017-.015a.832.832 0 0 0 .064-.07l.013-.018a.786.786 0 0 0 .045-.064l.008-.012.005-.01a.811.811 0 0 0 .041-.08l.004-.007a.84.84 0 0 0 .034-.094l.005-.018a.785.785 0 0 0 .028-.176l.001-.028V17.379h4.85a.84.84 0 0 0 .104-.008c.01 0 .018-.002.027-.004a.908.908 0 0 0 .082-.017l.02-.005a.81.81 0 0 0 .098-.035l.008-.004a.815.815 0 0 0 .082-.042l.021-.013a.842.842 0 0 0 .074-.052l.01-.007a.803.803 0 0 0 .073-.068l.018-.02a.783.783 0 0 0 .12-.169l.001-.004.005-.01a.87.87 0 0 0 .037-.085l.007-.02a.803.803 0 0 0 .028-.102l.001-.004a.85.85 0 0 0 .014-.127l.002-.032V.828a.827.827 0 0 0-.387-.7z" mask="url(#b)"/>
        </g>
        <path fill="#00C967" d="M17.785 16.469c.054-.067.104-.136.15-.205.607-.904.58-2.009 0-2.834a2.528 2.528 0 0 0-.409-.457 2.795 2.795 0 0 0-.448-.317 2.763 2.763 0 0 0-.268-.137 6.99 6.99 0 0 0-.329-.17c-.335-.163-.69-.308-1.045-.451l-.114-.046a2.601 2.601 0 0 1-.821-.462c-.513-.41-.41-1.026.154-1.282.154-.051.359-.103.513-.103.09-.007.18-.01.268-.011a3.486 3.486 0 0 1 1.63.37l.012.006c.248.121.36.103.448-.08.019-.037.036-.079.054-.13.102-.308.205-.668.308-.975.102-.205 0-.36-.206-.462-.05-.022-.103-.042-.156-.064a5.975 5.975 0 0 0-.448-.163 3.268 3.268 0 0 0-.576-.132l-.02-.002c-.543-.05-.544-.057-.544-.614 0-.666-.001-.755-.502-.767a11.612 11.612 0 0 0-.268-.002h-.36c-.358 0-.41.051-.41.41v.462c0 .462 0 .462-.462.616-1.077.41-1.796 1.128-1.847 2.36-.051 1.076.513 1.795 1.386 2.307.564.308 1.18.513 1.744.77.072.036.145.073.217.111.133.07.266.148.399.248.565.462.462 1.18-.205 1.488a1.991 1.991 0 0 1-1.078.154c-.616-.103-1.18-.257-1.693-.514-.308-.153-.41-.153-.514.206-.102.308-.153.564-.256.872-.103.41-.051.461.308.667.513.205 1.026.307 1.54.41.41.051.41.103.41.513v.564c0 .257.103.41.36.41h.871c.257 0 .36-.102.36-.358v-.77c0-.256.102-.41.359-.462a3.357 3.357 0 0 0 1.488-.975"/>
    </g>
</svg>
