<svg xmlns="http://www.w3.org/2000/svg" width="63" height="32" viewBox="0 0 63 32">
    <path fill="#D8D8D8" fill-rule="evenodd" d="M9.658 17.311s3.083-.805-2.373 3.25S-.958 31.321.298 31.977c.75.392 6.987-4.384 16.676-7.744 3.863-1.339 8.83.145 14.754 0 3.008-.073 7.43-1.599 8.871-1.599.428 0 .93 1.34 4.095 2.915 2.85 1.419 7.532.363 10.85 1.785 3.32 1.422 5.972 4.643 6.2 4.643.75 0 1.673-1.05 1.052-3.123-.62-2.073-1.706-2.772-3.812-5.287s-6.727-6.256-6.727-6.256.34-2.07-1.026-3.964c-1.364-1.896-5.122 0-5.122 0s-6.813-2.101-13.596-2.459c-6.783-.358-11.884.452-12.608.452-.726 0-.608-.713-.608-1.528 0-.448 5.715-1.541 9.529-3.46 3.101-1.56 5.752-4.383 5.486-4.721-.592-.755-6.666.378-8.163.642-1.772.312-4.682 1.114-4.682 1.114S27.337.634 26.15.128c-.773-.33-3.88-.086-6.852 1.503-2.973 1.588-3.61 2.586-5.64 3.926-1.741 1.15-3.787 1.507-5.228 2.531-3.362 2.392-5.235 5.06-5.235 5.853 0 4.142 6.464 3.37 6.464 3.37z"/>
</svg>
