<svg xmlns="http://www.w3.org/2000/svg" xmlns:xlink="http://www.w3.org/1999/xlink" width="1440" height="715.47" viewBox="0 0 1440 715.47"><defs><style>.a,.l{fill:none;}.b{clip-path:url(#a);}.c,.e,.q{fill:#e32c1b;}.c,.d,.i,.l,.n,.o,.q,.u,.w{stroke:#e32c1b;}.c,.d,.f,.i,.l,.m,.n,.o,.p,.u,.v{stroke-linecap:round;stroke-linejoin:round;}.c,.d,.f,.l,.m,.n,.o,.p,.u,.w{stroke-width:1.42px;}.d,.f,.k,.m,.p,.v,.w{fill:#fff;}.f{stroke:#e57873;}.g,.h,.n{fill:#f7cbcb;}.g{stroke:#f7cbcb;}.g,.j,.q,.s,.t,.w{stroke-miterlimit:10;}.i,.u{fill:#ebebeb;}.i{stroke-width:0.99px;}.j,.o,.r,.t{fill:#ffdad5;}.j{stroke:#ffdad5;}.m{stroke:#f64934;}.p,.s,.t{stroke:#ff5b45;}.s{fill:#ff5b45;}.v{stroke:#c81528;}</style><clipPath id="a"><rect class="a" width="1440" height="715.47" transform="translate(1.18 -60.86)"/></clipPath></defs><g class="b" transform="translate(-1.18 60.86)"><path class="c" d="M4884.576-857.12h24.129l9.521,14.208h18.155l-27.825-41.571c-7.165-10.7-18.877-10.7-26.085,0l-17.712,26.451,9.183,15.13Z" transform="translate(-4265.877 1178.802)"/><path class="d" d="M767.954,428.646,744.2,393.17H726.043l-9.521-14.217H692.393L681.776,393.17l-9.182-15.13-11.9,17.782L565.94,537.291H840.723Z" transform="translate(-73.694 -57.271)"/><line class="d" x2="26.016" y2="43.528" transform="translate(642.828 321.682)"/><line class="d" x2="26.016" y2="43.528" transform="translate(653.097 353.619)"/><path class="e" d="M5088.453-709.646c-8.8-7.243-17.833-.217-17.833-.217a18.842,18.842,0,0,0-3.479-1.948,2.212,2.212,0,0,0,.392-1.27,2.252,2.252,0,0,0-2.251-2.252,2.344,2.344,0,0,0-.661.113,4.512,4.512,0,0,0-2.687-3.1,5.2,5.2,0,0,0,.366-1.93,5.269,5.269,0,0,0-5.27-5.269,5.111,5.111,0,0,0-2.061.426,17.686,17.686,0,0,0-12.686-15.816,23.3,23.3,0,0,0-8.442-11.478c-11.087-7.608-29.277-4.348-36.581,9.565a3.755,3.755,0,0,0-4.573.565,3.725,3.725,0,0,0-.731,1.043c-1.635-9.008-9.417-17.025-21.39-14.782-10.391,1.93-13.121,9.9-14.078,13.486,0,0-8.278-10.069-17.547-1.078a8.742,8.742,0,0,0-1.426,1.87,3.914,3.914,0,0,0-.417-.522,3.748,3.748,0,0,0-4.565-.565c-7.3-13.912-25.5-17.173-36.58-9.564a23.3,23.3,0,0,0-8.442,11.478,17.677,17.677,0,0,0-12.687,15.816,5.124,5.124,0,0,0-2.07-.426,5.277,5.277,0,0,0-5.269,5.269,5.07,5.07,0,0,0,.374,1.93,4.513,4.513,0,0,0-2.687,3.1,2.4,2.4,0,0,0-.67-.113,2.252,2.252,0,0,0-2.252,2.252,2.281,2.281,0,0,0,.392,1.269,18.784,18.784,0,0,0-3.478,1.948s-9.034-7.026-17.843.217c-9.834,8.086-1.913,20.329-1.913,20.329h250.95S5098.3-701.559,5088.453-709.646Z" transform="translate(-4262.176 1161.042)"/><rect class="f" width="65.561" height="118.68" transform="translate(422.024 344.35)"/><rect class="g" width="9.912" height="6.678" transform="translate(437.527 365.262) rotate(180)"/><rect class="g" width="9.912" height="6.678" transform="translate(449.318 365.262) rotate(180)"/><rect class="g" width="9.912" height="6.678" transform="translate(437.527 373.87) rotate(180)"/><rect class="g" width="9.912" height="6.678" transform="translate(449.318 373.87) rotate(180)"/><rect class="g" width="9.912" height="6.678" transform="translate(437.527 387.817) rotate(180)"/><rect class="g" width="9.912" height="6.678" transform="translate(449.318 387.817) rotate(180)"/><rect class="g" width="9.912" height="6.678" transform="translate(437.527 396.425) rotate(180)"/><rect class="g" width="9.912" height="6.678" transform="translate(449.318 396.425) rotate(180)"/><rect class="g" width="9.912" height="6.678" transform="translate(437.527 410.364) rotate(180)"/><rect class="g" width="9.912" height="6.678" transform="translate(449.318 410.364) rotate(180)"/><rect class="g" width="9.912" height="6.678" transform="translate(449.318 418.972) rotate(180)"/><rect class="g" width="9.912" height="6.678" transform="translate(437.527 432.919) rotate(180)"/><rect class="g" width="9.912" height="6.678" transform="translate(449.318 432.919) rotate(180)"/><rect class="g" width="9.912" height="6.678" transform="translate(437.527 441.527) rotate(180)"/><rect class="g" width="9.912" height="6.678" transform="translate(449.318 441.527) rotate(180)"/><rect class="g" width="9.912" height="6.678" transform="translate(472.873 365.262) rotate(180)"/><rect class="g" width="6.721" height="6.678" transform="translate(481.473 365.262) rotate(180)"/><rect class="g" width="9.912" height="6.678" transform="translate(472.873 373.87) rotate(180)"/><rect class="g" width="6.721" height="6.678" transform="translate(481.473 373.87) rotate(180)"/><rect class="g" width="9.912" height="6.678" transform="translate(472.873 387.817) rotate(180)"/><rect class="g" width="6.721" height="6.678" transform="translate(481.473 387.817) rotate(180)"/><rect class="g" width="9.912" height="6.678" transform="translate(472.873 396.425) rotate(180)"/><rect class="g" width="6.721" height="6.678" transform="translate(481.473 396.425) rotate(180)"/><rect class="g" width="9.912" height="6.678" transform="translate(472.873 410.364) rotate(180)"/><rect class="g" width="6.721" height="6.678" transform="translate(481.473 410.364) rotate(180)"/><rect class="g" width="6.721" height="6.678" transform="translate(481.473 418.972) rotate(180)"/><rect class="g" width="9.912" height="6.678" transform="translate(472.873 432.919) rotate(180)"/><rect class="g" width="6.721" height="6.678" transform="translate(481.473 432.919) rotate(180)"/><rect class="g" width="9.912" height="6.678" transform="translate(472.873 441.527) rotate(180)"/><rect class="g" width="6.721" height="6.678" transform="translate(481.473 441.527) rotate(180)"/><path class="h" d="M4405.717-731.429c-11.834-9.73-23.955-.3-23.955-.3a25.981,25.981,0,0,0-4.67-2.608,3.026,3.026,0,0,0,.521-1.739,3.017,3.017,0,0,0-.88-2.139,3.017,3.017,0,0,0-2.137-.887,3.073,3.073,0,0,0-.87.156,6.084,6.084,0,0,0-3.6-4.174,7.064,7.064,0,0,0,.487-2.609,7.078,7.078,0,0,0-7.078-7.078,7.179,7.179,0,0,0-2.773.565,23.739,23.739,0,0,0-17.034-21.233,31.4,31.4,0,0,0-11.3-15.408c-14.877-10.217-39.311-5.852-49.119,12.834a5.052,5.052,0,0,0-6.139.765,5.1,5.1,0,0,0-.983,1.4c-2.2-12.095-12.643-22.859-28.694-19.868-13.912,2.609-17.625,13.295-18.912,18.1,0,0-11.113-13.521-23.555-1.443a13.55,13.55,0,0,0-2.965,4.626,8.388,8.388,0,0,0-3.618-.817,8.477,8.477,0,0,0-8.477,8.477,8.485,8.485,0,0,0,4.651,7.565,12.291,12.291,0,0,0-2.26,7.13,12.366,12.366,0,0,0,3.921,9.043c-.46,1-10.269,3.061-11.991,15.138-2.469,17.26,8.7,21.738,8.7,21.738h215.361S4418.9-720.612,4405.717-731.429Z" transform="translate(-4177.038 1165.982)"/><path class="i" d="M4248.421-777.918c-.87-2.53-2.243-3.826-4.5-2.017-.869.7-1.417,2-2.539,2.069a1.869,1.869,0,0,1-1.74-1.669,5.907,5.907,0,0,1,.383-2.609,35.816,35.816,0,0,0-2.53-25.868,13.829,13.829,0,0,0-3.808-4.965,6.314,6.314,0,0,0-5.948-1.052c-3.365,1.348-4.113,5.817-3.591,9.408s1.869,7.217,2.531,10.9.547,7.713-1.557,10.8c-.479-2.609-3.913-3.9-6.33-2.791-5.791,2.678-4.348,14.495-3.687,19.642,1.391,11.451,6.321,23.242,16.521,29.45,1.278.774,7.321-4.93,8.208-5.834a36.165,36.165,0,0,0,9.625-20.373C4249.708-764.563,4249.96-773.3,4248.421-777.918Z" transform="translate(-4181.02 1168.605)"/><path class="e" d="M4233.7-741.962l-.869-11.7,8.512-12.173-8.652,10.234-.809-10.7-.739,18.26-6.73-11.417,6.6,14.495-1.288,31.789a9.564,9.564,0,0,0,6.087-.469l-1.9-25.633,7.087-10.2Z" transform="translate(-4182.319 1162.334)"/><path class="f" d="M257.489,494.418h70.057V541.85H164.26V462.02h93.229Z" transform="translate(-21.28 -68.229)"/><rect class="j" width="9.921" height="9.921" transform="translate(206.646 417.928) rotate(180)"/><rect class="j" width="9.921" height="9.921" transform="translate(220.975 417.928) rotate(180)"/><rect class="j" width="9.921" height="9.921" transform="translate(159.84 431.771) rotate(180)"/><rect class="j" width="9.921" height="9.921" transform="translate(174.161 431.771) rotate(180)"/><rect class="j" width="9.921" height="9.921" transform="translate(159.84 449.318) rotate(180)"/><rect class="j" width="9.921" height="9.921" transform="translate(174.161 449.318) rotate(180)"/><rect class="j" width="9.921" height="9.921" transform="translate(206.646 449.318) rotate(180)"/><rect class="j" width="9.921" height="9.921" transform="translate(220.975 449.318) rotate(180)"/><rect class="j" width="9.921" height="9.921" transform="translate(253.46 449.318) rotate(180)"/><rect class="j" width="9.921" height="9.921" transform="translate(267.772 449.318) rotate(180)"/><rect class="j" width="9.921" height="9.921" transform="translate(282.102 449.318) rotate(180)"/><rect class="j" width="9.921" height="9.921" transform="translate(159.84 462.117) rotate(180)"/><rect class="j" width="9.921" height="9.921" transform="translate(174.161 462.117) rotate(180)"/><rect class="j" width="9.921" height="9.921" transform="translate(206.646 462.117) rotate(180)"/><rect class="j" width="9.921" height="9.921" transform="translate(220.975 462.117) rotate(180)"/><rect class="j" width="9.921" height="9.921" transform="translate(253.46 462.117) rotate(180)"/><rect class="j" width="9.921" height="9.921" transform="translate(267.772 462.117) rotate(180)"/><rect class="j" width="9.921" height="9.921" transform="translate(282.102 462.117) rotate(180)"/><path class="k" d="M5617.739-695.579s-41.319,13.156-81.2,11.417c-51.519-2.269-143.583-29.477-143.583-29.477a532.879,532.879,0,0,0-202.075-3.661l-130.531,22.755a532.783,532.783,0,0,1-219.578-7.7l-2.33-.583a532.863,532.863,0,0,0-262.141,1.53h0A532.933,532.933,0,0,1,4373.562-688.6s-75.743-10.373-113.906-14.782-82.4,7.826-82.4,7.826v139.661h1440.5Z" transform="translate(-4176.167 1156.974)"/><path class="l" d="M5617.3-695.4c-13.321,4.843-26.955,7.269-41.476,8.956a277.38,277.38,0,0,1-98.116-6.417l-84.8-20.79a532.881,532.881,0,0,0-202.075-3.652L5060.3-694.545a532.781,532.781,0,0,1-219.578-7.7l-5.392-1.339a520.489,520.489,0,0,0-259.114,2.287h0A532.936,532.936,0,0,1,4373.467-688.6l-60.4-8.1q-15.512-2.087-30.963-4.443c-16.364-2.5-61.267-6.956-105.3,5.739" transform="translate(-4176.108 1156.975)"/><circle class="e" cx="123.419" cy="123.419" r="123.419" transform="translate(835.217 -1.011)"/><path class="d" d="M5263.439-1198.879v-1.956a6.437,6.437,0,0,0-1.889-4.553,6.431,6.431,0,0,0-4.555-1.882h-26.877v-1.1a21.824,21.824,0,0,0-21.824-21.825,21.85,21.85,0,0,0-21.172,16.464,17.08,17.08,0,0,0-6.715-1.36,17.155,17.155,0,0,0-17.129,16.208Z" transform="translate(-4304.83 1222.866)"/><path class="d" d="M5384-1107.324h126.079a43.624,43.624,0,0,0-38.858-23.555,43.87,43.87,0,0,0-10.355,1.243l-.348.087-.2-.3a29.1,29.1,0,0,0-24.233-12.956,29,29,0,0,0-29.007,26.381v.513l-.513-.052a26.834,26.834,0,0,0-2.765-.148A26.677,26.677,0,0,0,5384-1107.324Z" transform="translate(-4333.631 1211.463)"/><path class="m" d="M5205.839-1024.166v-.2a17.025,17.025,0,0,0-17.025-17.025h-17.3a33.632,33.632,0,0,0-32.459-24.929,33.642,33.642,0,0,0-33.641,33.641,33.922,33.922,0,0,0,1.122,8.513Z" transform="translate(-4297.279 1201.483)"/><line class="d" x2="78.874" transform="translate(790.584 100.817)"/><line class="d" x2="78.874" transform="translate(1100.696 120.442)"/><line class="d" x2="78.874" transform="translate(1074.011 126.581)"/><line class="d" x2="28.633" transform="translate(792.045 94.8)"/><line class="d" x2="78.874" transform="translate(761.23 23.996)"/><line class="d" x2="28.633" transform="translate(1161.162 126.529)"/><path class="d" d="M5477.59-1192.768h89.238a30.861,30.861,0,0,0-27.494-16.669,31.175,31.175,0,0,0-7.33.87l-.243.061-.139-.209a20.608,20.608,0,0,0-17.147-9.165,20.521,20.521,0,0,0-20.529,18.668v.356h-.356a18.451,18.451,0,0,0-1.956-.1A18.86,18.86,0,0,0,5477.59-1192.768Z" transform="translate(-4345.844 1221.26)"/><line class="d" x2="28.633" transform="translate(1093.705 28.474)"/><path class="d" d="M5606.07-945h0c9.86,5.008,24.164,5.061,36.1,3.835C5630.216-939.992,5615.938-940.044,5606.07-945Z" transform="translate(-4362.609 1185.652)"/><path class="d" d="M5649.431-940.89c-.547.07-1.1.122-1.661.183C5648.335-940.768,5648.892-940.82,5649.431-940.89Z" transform="translate(-4368.05 1185.116)"/><path class="d" d="M5651.6-941.14l-1.087.13Z" transform="translate(-4368.407 1185.149)"/><rect class="d" width="3.591" height="10.365" transform="translate(1213.707 255.869)"/><path class="d" d="M5636.07-917.135h3.591V-927.5h-3.591Z" transform="translate(-4366.523 1183.369)"/><path class="d" d="M5603.4-927.5v10.365h4.565V-927.5Z" transform="translate(-4362.26 1183.369)"/><path class="d" d="M1399.8,303.4v10.365h8.208V307.13h6.487v6.634h9.147V303.4Z" transform="translate(-182.502 -47.531)"/><path class="d" d="M5608.65-927.5v10.365h23.842V-927.5Z" transform="translate(-4362.945 1183.369)"/><rect class="d" width="6.487" height="6.643" transform="translate(1225.506 259.599)"/><path class="n" d="M5637.529-941.655l-1.087.13-.721.087c-.548.07-1.1.122-1.662.183h-.191c-11.938,1.226-26.242,1.174-36.1-3.834-16.608,8.434-45.806,2.808-55.066.7l5.148,3.7,1.582,1.139,1.47,2.939h93.725l1.469-2.939,1.583-1.139,5.147-3.7C5649.642-943.638,5644.1-942.5,5637.529-941.655Z" transform="translate(-4354.34 1185.664)"/><path class="d" d="M1433.775,253.711l-1.47-2.782-3.548-1.122-.035-.017-3.6,1.139-1.461,2.782-2.452,5.878h15.016Z" transform="translate(-185.296 -40.536)"/><path class="d" d="M5605.229-969.85h-15.016s-7.513,17.964-47.823,22.042l.287.217c9.26,2.1,38.458,7.73,55.066-.7h0c9.869,4.991,24.146,5.043,36.067,3.817H5634c.565-.061,1.122-.113,1.661-.183l.722-.087,1.087-.13c6.574-.87,12.113-1.983,15.295-2.7l.287-.217C5612.742-951.886,5605.229-969.85,5605.229-969.85Z" transform="translate(-4354.299 1188.895)"/><path class="n" d="M5599.736-935.3H5558l4.138,2.687,6.313,4.1h62.7l6.313-4.1,4.139-2.687Z" transform="translate(-4356.336 1184.386)"/><path class="d" d="M5600.478-908.554h37.189v-7.026H5563.21v7.026Z" transform="translate(-4357.016 1181.813)"/><path class="d" d="M5615.731-900.542c-.47-.1-.931-.226-1.392-.348C5614.8-900.768,5615.262-900.646,5615.731-900.542Z" transform="translate(-4363.688 1179.896)"/><path class="d" d="M5617.847-900.05l-1.617-.33Z" transform="translate(-4363.935 1179.83)"/><path class="d" d="M5613.643-901.055c-.426-.113-.87-.244-1.252-.365C5612.808-901.307,5613.216-901.177,5613.643-901.055Z" transform="translate(-4363.434 1179.966)"/><path class="d" d="M5620.029-899.724c-.591-.087-1.173-.183-1.739-.3C5618.855-899.907,5619.438-899.811,5620.029-899.724Z" transform="translate(-4364.203 1179.783)"/><path class="d" d="M5620.35-900.121c16.043,2.417,35.38-1.365,42.607-3.009C5655.7-901.487,5636.392-897.7,5620.35-900.121Z" transform="translate(-4364.472 1180.189)"/><path class="d" d="M5611.61-901.669c-.383-.122-.757-.261-1.13-.391C5610.854-901.93,5611.228-901.79,5611.61-901.669Z" transform="translate(-4363.184 1180.049)"/><path class="d" d="M5609.646-902.353c-.348-.13-.687-.278-1.025-.417C5608.95-902.631,5609.3-902.483,5609.646-902.353Z" transform="translate(-4362.942 1180.142)"/><path class="n" d="M5610.225-900.219h-.052c-.591-.087-1.174-.183-1.739-.3h-.165l-1.617-.33-.252-.052c-.47-.1-.93-.226-1.392-.348l-.443-.1c-.427-.113-.87-.244-1.252-.365l-.53-.156c-.382-.122-.756-.261-1.13-.391l-.592-.2c-.348-.13-.687-.278-1.026-.417-.208-.087-.426-.165-.634-.261l-.948-.435-.635-.3h0c-16.6,8.443-45.8,2.808-55.057.7l5.147,3.7,1.582,1.148,1.47,2.939h93.725l1.47-2.939,1.582-1.148,5.139-3.7C5645.571-901.584,5626.268-897.8,5610.225-900.219Z" transform="translate(-4354.348 1180.287)"/><path class="d" d="M5633.547-907.5h-71.656a112.567,112.567,0,0,1-19.521,3.582l.287.217c9.26,2.1,38.458,7.739,55.066-.7h0l.635.3.948.435c.209.1.426.174.635.261.339.139.678.287,1.026.417l.592.2c.374.13.748.27,1.13.391l.53.157c.417.122.826.252,1.252.365l.443.1c.461.122.922.244,1.391.348l.252.052c.53.122,1.069.226,1.617.33h.166c.574.113,1.156.209,1.739.3h.052c16.042,2.417,35.38-1.365,42.606-3.008l.287-.217a112.417,112.417,0,0,1-19.477-3.53Z" transform="translate(-4354.296 1180.759)"/><rect class="d" width="3.591" height="10.365" transform="translate(1213.707 291.623)"/><path class="d" d="M5636.07-876.015h3.591V-886.38h-3.591Z" transform="translate(-4366.523 1178.003)"/><path class="d" d="M5603.4-886.38v10.365h4.565V-886.38Z" transform="translate(-4362.26 1178.003)"/><path class="d" d="M1399.8,344.52v10.365h8.208V348.25h6.487v6.634h9.147V344.52Z" transform="translate(-182.502 -52.897)"/><path class="d" d="M5608.65-886.38v10.365h23.842V-886.38Z" transform="translate(-4362.945 1178.003)"/><rect class="d" width="6.487" height="6.643" transform="translate(1225.506 295.353)"/><path class="n" d="M5599.736-894.17H5558l4.138,2.678,6.313,4.1h62.7l6.313-4.1,4.13-2.678Z" transform="translate(-4356.336 1179.02)"/><path class="d" d="M5600.478-867.434h37.189v-7.026H5563.21v7.026Z" transform="translate(-4357.016 1176.448)"/><path class="d" d="M5615.731-859.421c-.47-.1-.931-.226-1.392-.339C5614.8-859.647,5615.262-859.525,5615.731-859.421Z" transform="translate(-4363.688 1174.53)"/><path class="d" d="M5617.847-858.98c-.547-.1-1.086-.209-1.617-.33A14.423,14.423,0,0,0,5617.847-858.98Z" transform="translate(-4363.935 1174.471)"/><path class="d" d="M5613.643-859.945c-.426-.113-.87-.243-1.252-.365C5612.808-860.18,5613.216-860.04,5613.643-859.945Z" transform="translate(-4363.434 1174.601)"/><path class="d" d="M5620.029-858.6q-.869-.13-1.739-.287Q5619.142-858.733,5620.029-858.6Z" transform="translate(-4364.203 1174.416)"/><path class="d" d="M5620.35-859c16.043,2.417,35.38-1.365,42.607-3.009C5655.7-860.367,5636.392-856.584,5620.35-859Z" transform="translate(-4364.472 1174.823)"/><path class="d" d="M5611.61-860.549c-.383-.122-.757-.252-1.13-.391C5610.854-860.8,5611.228-860.67,5611.61-860.549Z" transform="translate(-4363.184 1174.683)"/><path class="d" d="M5609.646-861.233c-.348-.13-.687-.278-1.025-.417C5608.95-861.511,5609.3-861.363,5609.646-861.233Z" transform="translate(-4362.942 1174.776)"/><path class="n" d="M5610.225-859.1h-.052q-.87-.131-1.739-.287h-.165c-.548-.1-1.087-.209-1.617-.33l-.252-.052c-.47-.1-.93-.226-1.392-.339l-.443-.113c-.427-.113-.87-.244-1.252-.365l-.53-.156c-.382-.122-.756-.252-1.13-.391l-.592-.2c-.348-.13-.687-.278-1.026-.417L5599.4-862c-.322-.139-.635-.3-.948-.443l-.635-.3h0c-16.6,8.443-45.8,2.808-55.057.7l5.147,3.7,1.582,1.148,1.47,2.939h93.725l1.47-2.939,1.582-1.148,5.139-3.7C5645.571-860.462,5626.268-856.68,5610.225-859.1Z" transform="translate(-4354.348 1174.918)"/><path class="d" d="M5633.547-866.38h-71.656a113.347,113.347,0,0,1-19.521,3.591l.287.209c9.26,2.1,38.458,7.739,55.066-.7h0l.635.3c.313.148.626.3.948.443l.635.252c.339.139.678.287,1.026.417l.592.2c.374.139.748.27,1.13.391l.53.156c.417.13.826.252,1.252.365l.443.113c.461.113.922.235,1.391.339l.252.052c.53.122,1.069.235,1.617.33h.166q.869.156,1.739.287h.052c16.042,2.417,35.38-1.365,42.606-3.009l.287-.209a113.172,113.172,0,0,1-19.477-3.521Z" transform="translate(-4354.296 1175.393)"/><rect class="d" width="3.591" height="10.365" transform="translate(1213.707 327.377)"/><path class="d" d="M5636.07-834.9h3.591V-845.26h-3.591Z" transform="translate(-4366.523 1172.637)"/><path class="d" d="M5603.4-845.26V-834.9h4.565V-845.26Z" transform="translate(-4362.26 1172.637)"/><path class="d" d="M1399.8,385.64V396h8.208V389.37h6.487V396h9.147V385.64Z" transform="translate(-182.502 -58.263)"/><path class="d" d="M5608.65-845.26V-834.9h23.842V-845.26Z" transform="translate(-4362.945 1172.637)"/><rect class="d" width="6.487" height="6.643" transform="translate(1225.506 331.108)"/><path class="n" d="M5599.736-853H5558l4.138,2.678,6.313,4.1h62.7l6.313-4.1,4.13-2.678Z" transform="translate(-4356.336 1173.647)"/><path class="d" d="M5600.478-826.314h37.189v-7.026H5563.21v7.026Z" transform="translate(-4357.016 1171.082)"/><path class="d" d="M5615.731-818.392l-1.392-.348Z" transform="translate(-4363.688 1169.177)"/><path class="d" d="M5617.847-817.951q-.817-.156-1.617-.339Q5617.029-818.107,5617.847-817.951Z" transform="translate(-4363.935 1169.118)"/><path class="d" d="M5613.643-818.925c-.426-.113-.87-.235-1.252-.365C5612.808-819.16,5613.216-819.038,5613.643-818.925Z" transform="translate(-4363.434 1169.249)"/><path class="d" d="M5620.029-817.574c-.591-.087-1.173-.191-1.739-.3C5618.855-817.766,5619.438-817.661,5620.029-817.574Z" transform="translate(-4364.203 1169.063)"/><path class="d" d="M5620.35-817.973c16.043,2.409,35.38-1.374,42.607-3.017C5655.7-819.347,5636.392-815.564,5620.35-817.973Z" transform="translate(-4364.472 1169.471)"/><path class="d" d="M5611.61-819.527l-1.13-.383Z" transform="translate(-4363.184 1169.33)"/><path class="d" d="M5609.646-820.211l-1.025-.409Z" transform="translate(-4362.942 1169.422)"/><path class="n" d="M5610.225-818.069h-.052c-.591-.087-1.174-.191-1.739-.3h-.165q-.817-.156-1.617-.339l-.252-.044-1.392-.348-.443-.113c-.427-.113-.87-.235-1.252-.365-.174-.052-.356-.1-.53-.157l-1.13-.383c-.2-.07-.4-.13-.592-.209l-1.026-.409c-.208-.087-.426-.165-.634-.261s-.635-.3-.948-.443l-.635-.3h0c-16.6,8.443-45.8,2.817-55.057.7l5.147,3.713,1.582,1.139,1.47,2.939h93.725l1.47-2.939,1.582-1.139,5.139-3.713C5645.571-819.443,5626.268-815.661,5610.225-818.069Z" transform="translate(-4354.348 1169.567)"/><path class="d" d="M5633.547-825.36h-71.656a113.336,113.336,0,0,1-19.521,3.591l.287.209c9.26,2.113,38.458,7.739,55.066-.7h0l.635.3c.313.148.626.3.948.443s.426.174.635.261l1.026.409c.192.078.392.139.592.209.374.13.748.27,1.13.383.174.061.356.1.53.156.417.13.826.252,1.252.365l.443.113,1.391.348.252.052,1.617.33h.166c.574.1,1.156.209,1.739.3h.052c16.042,2.409,35.38-1.374,42.606-3.017l.287-.209a113.161,113.161,0,0,1-19.477-3.539Z" transform="translate(-4354.296 1170.041)"/><rect class="d" width="3.591" height="10.365" transform="translate(1213.707 363.054)"/><path class="d" d="M5636.07-793.867h3.591V-804.24h-3.591Z" transform="translate(-4366.523 1167.285)"/><path class="d" d="M5603.4-804.24v10.373h4.565V-804.24Z" transform="translate(-4362.26 1167.285)"/><path class="d" d="M1399.8,426.67v10.365h8.208v-6.643h6.487v6.643h9.147V426.67Z" transform="translate(-182.502 -63.616)"/><path class="d" d="M5608.65-804.24v10.373h23.842V-804.24Z" transform="translate(-4362.945 1167.285)"/><rect class="d" width="6.487" height="6.643" transform="translate(1225.506 366.775)"/><path class="n" d="M5599.736-812H5558l4.138,2.687,6.313,4.087h62.7l6.313-4.087,4.13-2.687Z" transform="translate(-4356.336 1168.297)"/><path class="d" d="M5600.478-785.293h37.189v-7.017H5563.21v7.017Z" transform="translate(-4357.016 1165.728)"/><path class="d" d="M5615.731-777.272c-.47-.1-.931-.226-1.392-.348C5614.8-777.5,5615.262-777.377,5615.731-777.272Z" transform="translate(-4363.688 1163.811)"/><path class="d" d="M5617.847-776.83l-1.617-.331Z" transform="translate(-4363.935 1163.751)"/><path class="d" d="M5613.643-777.8l-1.252-.356Z" transform="translate(-4363.434 1163.882)"/><path class="d" d="M5620.029-776.454c-.591-.087-1.173-.191-1.739-.3C5618.855-776.646,5619.438-776.541,5620.029-776.454Z" transform="translate(-4364.203 1163.698)"/><path class="d" d="M5620.35-776.853c16.043,2.409,35.38-1.374,42.607-3.017C5655.7-778.244,5636.392-774.436,5620.35-776.853Z" transform="translate(-4364.472 1164.105)"/><path class="d" d="M5611.61-778.4c-.383-.122-.757-.261-1.13-.391C5610.854-778.66,5611.228-778.52,5611.61-778.4Z" transform="translate(-4363.184 1163.964)"/><path class="d" d="M5609.646-779.061l-1.025-.409Z" transform="translate(-4362.942 1164.053)"/><path class="n" d="M5610.225-776.949h-.052c-.591-.087-1.174-.191-1.739-.3h-.165l-1.617-.33-.252-.052c-.47-.1-.93-.226-1.392-.348l-.443-.113-1.252-.357c-.174-.061-.356-.1-.53-.157-.382-.122-.756-.261-1.13-.391-.2-.07-.4-.13-.592-.209l-1.026-.409c-.208-.087-.426-.165-.634-.261s-.635-.3-.948-.443l-.635-.3h0c-16.6,8.434-45.8,2.809-55.057.7l5.147,3.713,1.582,1.139,1.47,2.939h93.725l1.47-2.939,1.582-1.139,5.139-3.713C5645.571-778.341,5626.268-774.532,5610.225-776.949Z" transform="translate(-4354.348 1164.201)"/><path class="d" d="M5633.547-784.24h-71.656a113.335,113.335,0,0,1-19.521,3.591l.287.209c9.26,2.113,38.458,7.739,55.066-.7h0l.635.3c.313.148.626.3.948.443s.426.174.635.261l1.026.409c.192.078.392.139.592.209.374.13.748.27,1.13.391.174.052.356.1.53.156l1.252.357.443.113c.461.122.922.243,1.391.348l.252.052,1.617.33h.166c.574.1,1.156.209,1.739.3h.052c16.042,2.417,35.38-1.374,42.606-3.017l.287-.209a113.161,113.161,0,0,1-19.477-3.539Z" transform="translate(-4354.296 1164.675)"/><rect class="d" width="3.591" height="10.365" transform="translate(1213.707 398.808)"/><path class="d" d="M5636.07-752.745h3.591V-763.11h-3.591Z" transform="translate(-4366.523 1161.918)"/><path class="d" d="M5603.4-763.11v10.365h4.565V-763.11Z" transform="translate(-4362.26 1161.918)"/><path class="d" d="M1399.8,467.79v10.365h8.208v-6.643h6.487v6.643h9.147V467.79Z" transform="translate(-182.502 -68.982)"/><path class="d" d="M5608.65-763.11v10.365h23.842V-763.11Z" transform="translate(-4362.945 1161.918)"/><rect class="d" width="6.487" height="6.643" transform="translate(1225.506 402.529)"/><path class="n" d="M5599.736-770.91H5558l4.138,2.687,6.313,4.1h62.7l6.313-4.1,4.13-2.687Z" transform="translate(-4356.336 1162.936)"/><rect class="d" width="3.591" height="10.365" transform="translate(1213.707 398.886)"/><path class="d" d="M5636.07-752.653h3.591V-763h-3.591Z" transform="translate(-4366.523 1161.904)"/><path class="d" d="M5605.657-752.653h2.278V-763h-4.565v10.365Z" transform="translate(-4362.256 1161.904)"/><path class="d" d="M1408.008,478.245V471.61h6.487v6.634h9.147V467.88H1399.8v10.365Z" transform="translate(-182.502 -68.994)"/><path class="d" d="M5632.492-752.653V-763H5608.65v10.365Z" transform="translate(-4362.945 1161.904)"/><rect class="d" width="6.487" height="6.634" transform="translate(1225.506 402.616)"/><path class="o" d="M5635.508-748.248a2.852,2.852,0,0,1-2.852,2.852h-63.675a2.852,2.852,0,0,1-2.852-2.852h0a2.852,2.852,0,0,1,2.852-2.852h63.675A2.852,2.852,0,0,1,5635.508-748.248Z" transform="translate(-4357.397 1160.351)"/><path class="p" d="M5357.09-910.863s28.755,7.739,39.693,4.052,5.382-8.26,5.382-8.26-17.921-5.408-40.3-24.346-33.693-47.362-33.693-47.362l-.122,5.86-10.739,61.257,39.78,8.808" transform="translate(-4324.929 1191.104)"/><path class="h" d="M5359-922.69s11.3,21.451,50.006,19.294c0,0-3.887,6.791-17.147,5.887a191.9,191.9,0,0,1-27.546-4.052Z" transform="translate(-4330.369 1182.741)"/><path class="d" d="M5340.6-1040.906c-19.129-57.814-63.475-43.571-63.475-43.571s-18.26-48.841-65.509-60.622a225.588,225.588,0,0,0,18.5,36.459h0c-15.582-10.26-36.789-20.52-64.553-26.729,0,0,9.2,43.554,84.656,80.934,0,0-2.114,11.356,3.373,21.694.427,5.748.774,15.651-1.278,20.868-3.008,7.521-29.381,44.806-29.381,44.806l-16.868,108.359s-14.417,57.97-16.234,85.212,2.661,34.285,11.156,33.268c12.174-1.461,46.449-52.588,64.44-74.282,21.4-25.8,29.729-20.729,44.484-5.6,25.9,26.564,44.9,76.517,61.961,71.822,16.66-4.574-9.425-87.343-15.729-111.358-10-38.259-19.077-80.778-24.389-99.29-7.321-25.5-22.721-49.562-22.721-49.562C5343.376-1014.647,5340.6-1040.906,5340.6-1040.906Z" transform="translate(-4305.129 1211.763)"/><path class="q" d="M5364.665-1028.175s-4.782-1.348-8.165.7c0,0,4.5.235,6.539,1.878a15.828,15.828,0,0,1,2.139,3.478l.339-3.574Z" transform="translate(-4330.043 1196.563)"/><path class="r" d="M5355.623-1010.29S5332.529-990.6,5305-998.117c0,0,7.886,6.86,21.738,6.843C5331.442-991.256,5352.388-998.734,5355.623-1010.29Z" transform="translate(-4323.323 1194.172)"/><path class="q" d="M5313.33-1053.737s6.3-4.487,11.061,1.061a18.193,18.193,0,0,1,1.426,2.556S5318.26-1043.547,5313.33-1053.737Z" transform="translate(-4324.41 1200.064)"/><path class="s" d="M5188.35-865.19" transform="translate(-4308.102 1175.238)"/><path class="h" d="M5219.5-1144.83s23.3,26.19,33.737,40.51c15.512,21.286,20.216,28.111,20.216,28.111s-.669,1.539-2.148-.983c-4.652-7.826-29.164-28.337-33.729-31.416S5222.683-1135.039,5219.5-1144.83Z" transform="translate(-4312.167 1211.727)"/><path class="l" d="M5275.352-1070.772c-14.782-17.712-35.572-32.4-35.572-32.4" transform="translate(-4314.813 1206.291)"/><path class="h" d="M5166.5-1132.81s35.441,53.04,83.882,79.317a232.741,232.741,0,0,1-32.172-18.042c-10.712-7.243-22.085-17.051-27.581-23.034C5170.273-1116.724,5166.865-1128.1,5166.5-1132.81Z" transform="translate(-4305.25 1210.159)"/><path class="h" d="M5272.162-926.087l8.017-18.094c1.669-3.748,5.382-6.626-5.539-2.087s-33.625,13.912-41.694,25.538,15.478,17.173,15.478,17.173Z" transform="translate(-4313.701 1186.121)"/><path class="h" d="M5296.208-833.35h0a36.615,36.615,0,0,1-23.946,18.5L5207.83-799.63l3.73-15.895Z" transform="translate(-4310.643 1171.083)"/><path class="t" d="M5184.89-1048.65" transform="translate(-4307.65 1199.177)"/><path class="h" d="M5193.75-704.291s9.869,4.452,26.468-18.79,40-52.049,60.353-55.849c0,0-2.243.556-28.693,34.459s-40.763,52.675-49.275,52.092S5193.75-704.291,5193.75-704.291Z" transform="translate(-4308.806 1163.982)"/><path class="h" d="M5378.006-706.793s-3.626-24.859-10.269-42.25-21.26-43.85-31.929-47.2c0,0-10.234-2.035-19.007,1.878a118.231,118.231,0,0,0-15.651,8.539s16.6-12.391,48.371,40C5366.555-717.644,5378.006-706.793,5378.006-706.793Z" transform="translate(-4322.82 1166.31)"/><path class="l" d="M5376.983-927.474c10.938-3.7,5.382-8.26,5.382-8.26s-17.92-5.408-40.3-24.346a111.309,111.309,0,0,1-17.929-19.651,231.845,231.845,0,0,0-15.095-28.772c34.337-6.174,31.563-32.433,31.563-32.433-19.129-57.814-63.475-43.571-63.475-43.571s-18.26-48.841-65.509-60.622a225.58,225.58,0,0,0,18.5,36.459h0c-15.582-10.26-36.789-20.521-64.553-26.729,0,0,9.2,43.554,84.656,80.934a37.648,37.648,0,0,0,2.122,19.016v-.078l1.382,4.113c.1,1.643.182,3.521.217,5.478-.5,3.835-2.435,8.417-7.556,12.964-12.582,11.165-73.248,57.988-71.648,107.976.348,8.2,6.365,9.46,12.791.748,3.479-4.687,14.687-21.12,31.433-37.128l-12.86,82.6s-14.417,57.97-16.233,85.212,2.661,34.285,11.156,33.268c12.173-1.461,46.449-52.588,64.439-74.283,21.4-25.8,29.729-20.729,44.484-5.6,25.9,26.564,44.9,76.517,61.961,71.822,16.626-4.513-9.459-87.282-15.763-111.3-6.425-24.564-12.46-50.884-17.39-71.491C5344.776-929.63,5367.532-924.282,5376.983-927.474ZM5252.99-1033.919c.183.391.374.783.583,1.174,0,.365.052.739.078,1.139a16.829,16.829,0,0,0-.662-2.313Z" transform="translate(-4305.129 1211.767)"/><path class="l" d="M5329.957-796.79c-20.39,0-36.667,15.851-36.667,15.851" transform="translate(-4321.795 1166.313)"/><rect class="d" width="141.652" height="75.778" transform="translate(830.764 292.606) rotate(-11.93)"/><path class="u" d="M1093.99,310.253,955.39,339.52l10.025-13.834,138.6-29.276Z" transform="translate(-124.512 -46.619)"/><path class="u" d="M1130.45,384.387l8.73-25.746-14.364-62.231-10.025,13.843Z" transform="translate(-145.312 -46.619)"/><ellipse class="e" cx="13.712" cy="12.434" rx="13.712" ry="12.434" transform="translate(933.515 277.78)"/><path class="d" d="M5274.3-957.532c-45.779,11.738-79.03,61.049-85.464,69.761s-12.443,7.452-12.791-.748c-1.6-49.988,59.066-96.812,71.648-107.976s5.957-22.555,5.957-22.555" transform="translate(-4306.491 1195.315)"/><line class="v" y1="13.721" x2="65.909" transform="translate(901.482 325.604)"/><line class="v" y1="6.495" x2="31.163" transform="translate(945.914 318.178)"/><line class="v" y1="6.487" x2="31.163" transform="translate(910.099 325.604)"/><line class="v" y1="5.956" x2="29.146" transform="translate(922.759 318.448)"/><path class="d" d="M5083.5-710.608l-.234-5.939-4.817-121.5-3.365-84.751h4.9l6.539-10.9v-21.79h-2.608v-5.33h-10.634v-41.919h4.93v-15.651a5.9,5.9,0,0,1-4.139-1.848,5.906,5.906,0,0,1-1.608-4.238v-18.912h-3.687v-1.739l-3-105.863h-2.026l-3.043,107.594h-3.678v18.912a5.9,5.9,0,0,1-1.608,4.238,5.9,5.9,0,0,1-4.139,1.849v15.651h4.921v41.919H5045.58v5.33h-2.661v21.79l6.539,10.9h4.834l-4.617,116.445-3.557,89.8-.234,5.939-.513,12.921h38.659Z" transform="translate(-4289.125 1212.531)"/><line class="d" x2="19.703" transform="translate(766.995 209.793)"/><line class="d" x1="17.973" transform="translate(766.142 251.712)"/><line class="d" x2="38.38" transform="translate(756.369 257.043)"/><line class="d" x1="21.112" transform="translate(764.847 289.736)"/><line class="d" x1="8.295" y2="225.108" transform="translate(762.604 289.736)"/><line class="d" x2="8.678" y2="225.108" transform="translate(780.089 289.736)"/><line class="d" y2="225.108" transform="translate(775.559 289.736)"/><line class="d" x2="43.693" transform="translate(753.708 260.999)"/><line class="d" x2="43.693" transform="translate(753.708 268.433)"/><line class="d" x2="43.693" transform="translate(753.708 271.529)"/><line class="d" x2="43.693" transform="translate(753.708 279.085)"/><line class="d" x2="26.972" transform="translate(762.073 194.177)"/><line class="d" x2="26.972" transform="translate(762.073 197.411)"/><line class="d" x2="26.972" transform="translate(762.073 200.637)"/><line class="d" x2="26.972" transform="translate(762.073 203.602)"/><line class="d" x2="26.972" transform="translate(762.073 206.698)"/><line class="d" x2="8.808" transform="translate(771.22 169.222)"/><line class="d" x2="4.243" transform="translate(773.438 100.756)"/><line class="d" x2="7.852" transform="translate(771.629 164.457)"/><line class="d" x2="15.477" transform="translate(767.821 171.9)"/><line class="d" x2="4.834" transform="translate(773.142 111.286)"/><rect class="d" width="9.191" height="34.711" transform="translate(770.96 213.341)"/><path class="e" d="M5622.359-663.513a7.992,7.992,0,0,1,5.218-7.826,8.464,8.464,0,0,1-.061-.956c0-2.8,1.373-5.217,3.3-6.147a17.245,17.245,0,0,1,6.087-11.191,15.565,15.565,0,0,1-9.643-14.451,15.564,15.564,0,0,1,15.573-15.564,15.355,15.355,0,0,1,4.452.652,5.592,5.592,0,0,1,1.592-4.6,5.564,5.564,0,0,1,6.79-.87c10.852-20.686,37.894-25.511,54.354-14.208a34.732,34.732,0,0,1,12.556,17.051,26.284,26.284,0,0,1,18.851,23.477,7.827,7.827,0,0,1,3.069-.626,7.826,7.826,0,0,1,7.826,7.826,7.838,7.838,0,0,1-.548,2.861,6.678,6.678,0,0,1,3.982,4.617,3.485,3.485,0,0,1,.991-.165,3.348,3.348,0,0,1,3.348,3.348,3.377,3.377,0,0,1-.574,1.878,29.485,29.485,0,0,1,5.165,2.9s13.417-10.434,26.5.322c14.625,12.025,2.843,30.216,2.843,30.216h-163.2a9.749,9.749,0,0,1-.1-1.339,11.232,11.232,0,0,1,1.157-4.9h-.174a4.191,4.191,0,0,1-4.191-4.191v-.322C5624.551-656.626,5622.359-659.739,5622.359-663.513Z" transform="translate(-4364.734 1159.506)"/><path class="h" d="M4873.807-632.428c-11.826-9.721-23.955-.287-23.955-.287a25.711,25.711,0,0,0-4.661-2.609,3.007,3.007,0,0,0,.521-1.739,3.026,3.026,0,0,0-3.026-3.026,3.074,3.074,0,0,0-.87.148,6.085,6.085,0,0,0-3.6-4.165,7.141,7.141,0,0,0,.5-2.609,7.078,7.078,0,0,0-7.078-7.078,7.025,7.025,0,0,0-2.774.565,23.747,23.747,0,0,0-17.034-21.233,31.2,31.2,0,0,0-11.347-15.408c-14.877-10.217-39.3-5.852-49.11,12.834a5.034,5.034,0,0,0-6.139.765,4.906,4.906,0,0,0-.982,1.391c-2.2-12.086-12.651-22.86-28.694-19.868-13.956,2.609-17.634,13.3-18.912,18.1,0,0-11.112-13.512-23.555-1.435a13.3,13.3,0,0,0-2.974,4.617,8.356,8.356,0,0,0-3.608-.817,8.487,8.487,0,0,0-8.486,8.486,8.47,8.47,0,0,0,4.652,7.556,12.386,12.386,0,0,0-2.261,7.139,12.389,12.389,0,0,0,3.921,9.042c-.451,1-.869,2.062-1.338,3.236-6.087,16.338-1.922,33.65-1.922,33.65h215.361S4887.023-621.6,4873.807-632.428Z" transform="translate(-4238.9 1153.063)"/><path class="e" d="M5334.629-690.847c16.268-13.373,32.946-.391,32.946-.391a36.037,36.037,0,0,1,6.417-3.6,4.151,4.151,0,0,1-.722-2.339,4.156,4.156,0,0,1,1.22-2.942,4.158,4.158,0,0,1,2.946-1.214,4.115,4.115,0,0,1,1.226.2,8.321,8.321,0,0,1,4.957-5.73,9.7,9.7,0,0,1-.678-3.565,9.729,9.729,0,0,1,9.729-9.73,9.783,9.783,0,0,1,3.818.774,32.675,32.675,0,0,1,23.354-29.207c2.869-7.939,7.826-15.834,15.6-21.19,20.468-14.06,54.066-8.052,67.562,17.651a6.956,6.956,0,0,1,8.443,1.052,6.876,6.876,0,0,1,1.348,1.922c3.025-16.634,17.39-31.45,39.51-27.337,19.19,3.574,24.242,18.26,26.007,24.911,0,0,15.287-18.6,32.4-1.991a18.555,18.555,0,0,1,4.086,6.356,11.619,11.619,0,0,1,5.035-1.113,11.661,11.661,0,0,1,11.66,11.669,11.643,11.643,0,0,1-6.391,10.434,17.047,17.047,0,0,1,3.1,9.808,17.024,17.024,0,0,1-5.391,12.443c.627,1.374,1.244,2.843,1.844,4.452,8.373,22.477,2.608,78.752,2.608,78.752H5331.055S5316.412-675.9,5334.629-690.847Z" transform="translate(-4325.997 1163.755)"/><rect class="w" width="9.773" height="51.24" transform="translate(1162.492 491.663)"/><path class="w" d="M5515.55-665.767a4.783,4.783,0,0,1,2.608-.783,4.83,4.83,0,0,1,2.609.774V-695h-5.217Z" transform="translate(-4350.797 1153.03)"/><path class="w" d="M5520.807-705.45a4.821,4.821,0,0,1-2.607.774,4.844,4.844,0,0,1-2.609-.774v3.1h5.217Z" transform="translate(-4350.802 1154.394)"/><rect class="w" width="9.773" height="51.24" transform="translate(1216.515 491.663)"/><path class="w" d="M5577.68-665.767a4.782,4.782,0,0,1,2.608-.783,4.844,4.844,0,0,1,2.609.774V-695h-5.217v29.2Z" transform="translate(-4358.904 1153.03)"/><path class="w" d="M5577.68-705.45v3.1h5.217v-3.1a4.842,4.842,0,0,1-2.608.774A4.843,4.843,0,0,1,5577.68-705.45Z" transform="translate(-4358.904 1154.394)"/><path class="w" d="M5573.345-706.09h-25.363v7.469a.87.87,0,0,1-.87.87h-6.773a.87.87,0,0,1-.826-.87v-7.469h-35.3v5.774h2.609l.869,3.9h72.091l.87-3.9h2.608v-5.774Z" transform="translate(-4349.317 1154.478)"/><path class="w" d="M5507-711.157h32.885v-1.3a.87.87,0,0,1,.826-.87h6.782a.869.869,0,0,1,.826.87v1.33H5581.2v-4.348H5507Z" transform="translate(-4349.681 1155.702)"/><path class="w" d="M5552.449-713h-6.773a.87.87,0,0,0-.826.87v12.643a.87.87,0,0,0,.826.87h6.773a.87.87,0,0,0,.87-.87V-712.13A.87.87,0,0,0,5552.449-713Z" transform="translate(-4354.62 1155.379)"/><path class="w" d="M5520.467-661.506a4.824,4.824,0,0,0-2.608-.774,4.781,4.781,0,0,0-2.609.783,4.893,4.893,0,0,0-2.261,4.13v.27h9.773v-.27A4.9,4.9,0,0,0,5520.467-661.506Z" transform="translate(-4350.463 1148.761)"/><path class="w" d="M5582.6-661.506a4.844,4.844,0,0,0-2.609-.774,4.779,4.779,0,0,0-2.608.782,4.894,4.894,0,0,0-2.261,4.13v.27h9.773v-.27a4.921,4.921,0,0,0-2.3-4.139Z" transform="translate(-4358.57 1148.761)"/><path class="w" d="M5513-710.51v.261a4.911,4.911,0,0,0,2.261,4.139,4.842,4.842,0,0,0,2.609.774,4.824,4.824,0,0,0,2.608-.774,4.9,4.9,0,0,0,2.261-4.139v-.261Z" transform="translate(-4350.464 1155.054)"/><path class="w" d="M5575.08-710.51v.261a4.912,4.912,0,0,0,2.261,4.139,4.849,4.849,0,0,0,2.609.774,4.84,4.84,0,0,0,2.607-.774,4.912,4.912,0,0,0,2.261-4.139v-.261Z" transform="translate(-4358.565 1155.054)"/><path class="w" d="M5488.66-725.95v5.078h3.991l1.156,4.017h95.847l1.156-4.017h4v-5.078a853.26,853.26,0,0,1-106.15,0Z" transform="translate(-4347.288 1157.069)"/><path class="i" d="M4899.688-657.384a65.438,65.438,0,0,1-18.259-20.868c-1.313-2.382-2.5-5.026-2.166-7.721s2.826-5.278,5.5-4.748c1.6.313,2.8,1.591,4.139,2.513s3.3,1.478,4.513.374c1.739-1.574.122-4.348-1.4-6.087a77.6,77.6,0,0,1-13.3-21.9c-.939-2.348-1.739-4.878-1.279-7.356s2.8-4.756,5.3-4.348c1.791.3,3.113,1.826,4.1,3.356s1.834,3.226,3.33,4.269,3.887,1.1,4.852-.443c.782-1.252.3-2.887-.278-4.243-3.043-7.113-8.321-13.669-8.391-21.4a17.164,17.164,0,0,1,13.729-16.521,17.172,17.172,0,0,1,18.555,10.8c4.461,12.565-6.86,26.085-4.147,39.172a23.691,23.691,0,0,1,5.4-5.878c2.208-1.513,5.147-2.235,7.6-1.156,3,1.322,4.408,5.008,4,8.26s-2.234,6.147-4.2,8.773-4.13,5.174-5.4,8.2c-.452,1.087-.748,2.452,0,3.365.982,1.183,2.843.7,4.347.8,3.183.226,5.46,3.556,5.521,6.756s-1.548,6.165-3.356,8.8c-5.93,8.617-14.347,15.156-22.607,21.538Z" transform="translate(-4267.513 1161.864)"/><path class="e" d="M4909.276-667.795l-1.217-16.364,11.895-17.034-12.095,14.364-1.1-14.982-1.035,25.477-9.4-15.956,9.226,20.26-1.8,44.415a13.278,13.278,0,0,0,8.46-.643l-2.661-35.824,9.913-14.26Z" transform="translate(-4269.995 1153.919)"/><path class="i" d="M5021.438-639.4c-6.191-4.713-11.956-12.556-13.912-20.086a6.268,6.268,0,0,1-.043-4.087,2.609,2.609,0,0,1,2.957-1.522c-.479-.156-1.052-2.148-1.217-2.609a17.727,17.727,0,0,1-.826-3.122,22.477,22.477,0,0,1-.165-5.921,27.934,27.934,0,0,1,3.852-11.843,10.287,10.287,0,0,1,2.651-3.139c3.87-2.817,8.374.73,8.9,4.861a42.18,42.18,0,0,0,.331,4.348c.331,1.409,1.374,2.861,2.834,2.939a13.446,13.446,0,0,0,2.243-.383,4.652,4.652,0,0,1,4.391,2.7,10.886,10.886,0,0,1,.87,5.356C5033.845-660.933,5021.438-639.4,5021.438-639.4Z" transform="translate(-4284.459 1152.736)"/><path class="e" d="M5022.857-647.891l-.608-8.173,5.947-8.521-6.043,7.182-.557-7.487-.513,12.73-4.7-7.973L5021-650l-.87,22.207a6.617,6.617,0,0,0,4.235-.322l-1.356-17.912,4.956-7.13Z" transform="translate(-4285.662 1149.101)"/><path class="i" d="M4594.077-728.3c1.817-3.53,7.1-5.217,9.974-2.435,1.165,1.1,2.321,2.922,3.843,2.391s1.348-2.609.644-3.939c-1.139-2.191-3.1-3.817-4.878-5.547s-3.478-3.765-3.8-6.217,1.261-5.3,3.73-5.469a13.9,13.9,0,0,0,2.756,0c1.487-.452,2.069-2.322,1.809-3.852a34.451,34.451,0,0,0-1.574-4.348c-1.617-5.217,2.9-11.3,8.365-11.356s9.991,6.087,8.4,11.3c-.5,1.626-1.452,3.1-1.678,4.782s.73,3.73,2.426,3.808,2.8-1.739,4.3-2.608c2.5-1.383,5.834.556,6.765,3.252s.061,5.687-1.252,8.217-3.061,4.852-4.052,7.521c-.348.939-.548,2.139.191,2.817,1.174,1.087,2.887-.357,4.26-1.183,3.287-1.965,7.869.278,9.469,3.765s6.73,25.546-24.529,43.389C4588.269-703.935,4592.268-724.76,4594.077-728.3Z" transform="translate(-4230.397 1162.696)"/><path class="e" d="M4622.563-697.721l-.957-12.895,9.374-13.46-9.564,11.3-.87-11.808-.817,20.086-7.408-12.582,7.278,15.982-1.426,35.024a10.434,10.434,0,0,0,6.678-.513l-2.1-28.242,7.826-11.251Z" transform="translate(-4232.937 1156.89)"/><path class="i" d="M4865.093-678.234c-.774-2.339-2.069-3.53-4.156-1.861-.809.643-1.3,1.843-2.339,1.913a1.74,1.74,0,0,1-1.626-1.548,5.674,5.674,0,0,1,.357-2.417A33.042,33.042,0,0,0,4855-706a12.727,12.727,0,0,0-3.478-4.574,5.809,5.809,0,0,0-5.478-.974c-3.1,1.252-3.8,5.365-3.321,8.7s1.739,6.66,2.33,10.043.5,7.121-1.426,9.965c-.443-2.417-3.618-3.609-5.843-2.609-5.339,2.469-3.982,13.364-3.4,18.112,1.287,10.565,5.826,21.433,15.217,27.155,1.183.722,6.756-4.548,7.573-5.382a33.339,33.339,0,0,0,8.877-18.782C4866.24-665.9,4866.51-673.974,4865.093-678.234Z" transform="translate(-4261.836 1155.229)"/><path class="e" d="M4851.515-645.078l-.8-10.791,7.826-11.243-7.982,9.478-.73-9.886-.678,16.808-6.2-10.521,6.086,13.364-1.191,29.311a8.756,8.756,0,0,0,5.582-.426l-1.739-23.633,6.53-9.417Z" transform="translate(-4263.031 1149.445)"/><path class="i" d="M5176.046-716.544c-.782-2.339-2.069-3.53-4.165-1.861-.809.635-1.3,1.843-2.33,1.913a1.739,1.739,0,0,1-1.626-1.548,5.664,5.664,0,0,1,.348-2.417,33.041,33.041,0,0,0-2.321-23.851,12.771,12.771,0,0,0-3.522-4.573,5.808,5.808,0,0,0-5.478-.974c-3.1,1.252-3.8,5.365-3.312,8.7s1.739,6.66,2.331,10.043.5,7.113-1.435,9.965c-.435-2.417-3.609-3.609-5.843-2.609-5.339,2.469-3.974,13.364-3.4,18.112,1.287,10.556,5.835,21.434,15.225,27.155,1.183.713,6.748-4.548,7.574-5.382a33.389,33.389,0,0,0,8.877-18.781C5177.185-704.232,5177.463-712.284,5176.046-716.544Z" transform="translate(-4302.406 1160.228)"/><path class="e" d="M5162.464-683.368l-.8-10.791,7.825-11.243-7.973,9.478-.73-9.886L5160.1-689l-6.2-10.53,6.086,13.373-1.183,29.311a8.7,8.7,0,0,0,5.583-.435l-1.74-23.633,6.539-9.408Z" transform="translate(-4303.606 1154.441)"/><path class="h" d="M4509.854-662.243h53.736s19.06-10.191,13.634-29.416c-3.887-13.79-15.112-14.616-15.112-14.616s3.061-8.7,4.921-16.764c3.618-15.651-8.051-35.007-29.242-31.059-14.312,2.661-18.077,13.634-19.39,18.564,0,0-11.4-13.86-24.155-1.478-5.591,5.426-7.461,20,5.025,24.346,0,0-9.138-.809-15.382,15.947s-1.974,34.511-1.974,34.511Z" transform="translate(-4215.734 1160.81)"/><path class="f" d="M198.8,574.234v22L28.17,628.3V574.234l85.317-32.424Z" transform="translate(-3.522 -78.641)"/><rect class="r" width="16.747" height="16.747" transform="translate(119.208 517.592) rotate(180)"/><rect class="r" width="16.747" height="16.747" transform="translate(100.279 517.592) rotate(180)"/><path class="k" d="M4176.916-633.986s41.328,13.2,81.2,11.434c51.51-2.269,143.574-29.477,143.574-29.477a532.879,532.879,0,0,1,202.04-3.669l130.531,22.755a532.932,532.932,0,0,0,219.578-7.7l2.331-.583a532.862,532.862,0,0,1,262.14,1.53h0A532.934,532.934,0,0,0,5421.058-627s75.743-10.373,113.906-14.782,82.4,7.826,82.4,7.826v139.67H4176.89Z" transform="translate(-4176.119 1148.935)"/><path class="l" d="M4177.36-633.8c13.321,4.834,26.955,7.269,41.476,8.956a277.617,277.617,0,0,0,98.116-6.4l84.8-20.79a532.877,532.877,0,0,1,202.04-3.669l130.531,22.755a532.931,532.931,0,0,0,219.577-7.7l5.392-1.339a520.49,520.49,0,0,1,259.115,2.287h0A532.933,532.933,0,0,0,5421.154-627l60.4-8.1q15.512-2.069,30.963-4.443c16.364-2.5,61.266-6.956,105.3,5.747" transform="translate(-4176.18 1148.935)"/></g></svg>