<svg xmlns="http://www.w3.org/2000/svg" width="1482.747" height="690.93" viewBox="0 0 1482.747 690.93"><defs><style>.a,.d,.n{fill:#e32c1b;}.b,.h,.k,.q,.t{fill:#ffdad5;}.c,.r{fill:#ebebeb;}.c,.d,.e,.j,.k,.n,.p,.r,.w{stroke:#e32c1b;}.c,.d,.e,.f,.i,.j,.k,.l,.p,.r,.t,.u,.v{stroke-linecap:round;stroke-linejoin:round;}.c{stroke-width:0.992px;}.d,.e,.f,.i,.j,.k,.l,.p,.r,.w{stroke-width:1.417px;}.e,.f,.i,.l,.s,.v,.w{fill:#fff;}.f{stroke:#e57873;}.g,.j,.m{fill:#f7cbcb;}.g{stroke:#f7cbcb;}.g,.h,.n,.o,.q,.w{stroke-miterlimit:10;}.h{stroke:#ffdad5;}.i{stroke:#f64934;}.l,.o,.q,.t,.u{stroke:#ff5b45;}.o{fill:#ff5b45;}.p,.u{fill:none;}.v{stroke:#c81528;}</style></defs><g transform="translate(1211.242 -401.685)"><path class="a" d="M233.678,981.455a8.318,8.318,0,0,1,5.382-8.1,8.6,8.6,0,0,1-.062-.981,6.954,6.954,0,0,1,3.4-6.326,17.7,17.7,0,0,1,6.258-11.518,16.022,16.022,0,0,1,10.647-30.183,5.732,5.732,0,0,1,8.627-5.6c11.172-21.286,39-26.255,55.944-14.618,6.467,4.44,10.538,10.975,12.917,17.547a27.053,27.053,0,0,1,19.4,24.187,8.054,8.054,0,0,1,10.656,10.366,6.9,6.9,0,0,1,4.1,4.75,3.4,3.4,0,0,1,1.018-.171,3.443,3.443,0,0,1,2.848,5.38,29.792,29.792,0,0,1,5.317,2.979s13.81-10.749,27.281.33c15.048,12.376,2.925,31.1,2.925,31.1H242.4a10.937,10.937,0,0,1-.1-1.382,11.577,11.577,0,0,1,1.189-5.037c-.059,0-.118.009-.178.009A4.316,4.316,0,0,1,239,989.871c0-.111.008-.22.017-.329A8.327,8.327,0,0,1,233.678,981.455Z" transform="translate(-151.775 -52.092)"/><path class="b" d="M-975.809,912.953c-12.172-10.01-24.652-.3-24.652-.3a26.942,26.942,0,0,0-4.8-2.692,3.1,3.1,0,0,0,.539-1.749,3.112,3.112,0,0,0-3.112-3.112,3.1,3.1,0,0,0-.92.154,6.239,6.239,0,0,0-3.708-4.292,7.235,7.235,0,0,0,.509-2.663,7.284,7.284,0,0,0-7.284-7.284,7.252,7.252,0,0,0-2.854.582,24.444,24.444,0,0,0-17.534-21.856,32.135,32.135,0,0,0-11.671-15.856c-15.313-10.516-40.457-6.025-50.552,13.209a5.185,5.185,0,0,0-6.314.787,5.144,5.144,0,0,0-1.014,1.438c-2.262-12.448-13.017-23.53-29.559-20.453-14.36,2.671-18.141,13.688-19.46,18.635,0,0-11.438-13.913-24.243-1.484a13.819,13.819,0,0,0-3.058,4.756,8.681,8.681,0,0,0-3.718-.841,8.73,8.73,0,0,0-8.73,8.73,8.722,8.722,0,0,0,4.787,7.781,12.721,12.721,0,0,0-2.328,7.342,12.736,12.736,0,0,0,4.04,9.309c-.473,1.027-.936,2.128-1.383,3.328-6.267,16.821-1.979,34.632-1.979,34.632h221.645S-962.212,924.137-975.809,912.953Z" transform="translate(-1.301 -46.873)"/><path class="c" d="M-1139.268,865.738c-.87-2.611-2.311-3.94-4.644-2.082-.9.718-1.456,2.062-2.606,2.136a1.934,1.934,0,0,1-1.812-1.726,6.288,6.288,0,0,1,.391-2.694,36.864,36.864,0,0,0-2.6-26.622,14.225,14.225,0,0,0-3.921-5.1,6.487,6.487,0,0,0-6.118-1.088c-3.463,1.392-4.24,5.987-3.7,9.68.555,3.8,1.927,7.436,2.6,11.216s.565,7.939-1.595,11.115c-.492-2.7-4.034-4.021-6.521-2.871-5.959,2.758-4.44,14.916-3.8,20.216,1.433,11.786,6.508,23.919,16.987,30.3,1.317.8,7.533-5.07,8.452-6a37.255,37.255,0,0,0,9.907-20.962C-1137.992,879.48-1137.686,870.488-1139.268,865.738Z" transform="translate(-3.792 -44.755)"/><path class="a" d="M-1154.711,901.343l-.894-12.047,8.757-12.549-8.9,10.579-.819-11.029-.76,18.76-6.921-11.75,6.793,14.921-1.325,32.715a9.784,9.784,0,0,0,6.233-.48l-1.958-26.378,7.3-10.5Z" transform="translate(-4.843 -49.811)"/><g transform="translate(-705.823 713.546)"><g transform="translate(0 0)"><path class="d" d="M-503.53,786.5H-478.7l9.8,14.63h18.683l-28.657-42.788c-7.372-11.005-19.43-11.005-26.8,0L-523.9,785.567l9.446,15.567Z" transform="translate(633.675 -750.092)"/><path class="e" d="M-438.652,841.814-463.107,805.3H-481.79l-9.8-14.63h-24.833l-10.928,14.63-9.446-15.567-12.254,18.3-97.516,145.6h282.8Z" transform="translate(646.568 -754.258)"/></g><line class="e" x2="26.776" y2="44.799" transform="translate(154.978 36.412)"/><line class="e" x2="26.776" y2="44.799" transform="translate(165.55 69.283)"/></g><path class="a" d="M-292.869,934.309c-9.064-7.455-18.358-.222-18.358-.222a20.042,20.042,0,0,0-3.577-2,2.3,2.3,0,0,0,.4-1.3,2.318,2.318,0,0,0-2.318-2.318,2.315,2.315,0,0,0-.685.115,4.648,4.648,0,0,0-2.761-3.2,5.4,5.4,0,0,0,.379-1.983,5.425,5.425,0,0,0-5.425-5.425,5.407,5.407,0,0,0-2.125.433,18.2,18.2,0,0,0-13.056-16.275,23.938,23.938,0,0,0-8.691-11.808c-11.4-7.83-30.128-4.486-37.645,9.838a3.86,3.86,0,0,0-4.7.586,3.826,3.826,0,0,0-.755,1.07c-1.684-9.27-9.693-17.523-22.013-15.231-10.693,1.99-13.509,10.194-14.492,13.878,0,0-8.517-10.361-18.053-1.105a9.17,9.17,0,0,0-1.472,1.926,3.789,3.789,0,0,0-.427-.538,3.86,3.86,0,0,0-4.7-.586c-7.517-14.324-26.242-17.668-37.645-9.838a23.935,23.935,0,0,0-8.692,11.808,18.2,18.2,0,0,0-13.057,16.275,5.406,5.406,0,0,0-2.125-.433,5.425,5.425,0,0,0-5.425,5.425,5.407,5.407,0,0,0,.379,1.983,4.649,4.649,0,0,0-2.761,3.2,2.316,2.316,0,0,0-.685-.115,2.317,2.317,0,0,0-2.317,2.318,2.3,2.3,0,0,0,.4,1.3,20.079,20.079,0,0,0-3.578,2s-9.293-7.232-18.357.222c-10.126,8.329-1.969,20.928-1.969,20.928H-290.9S-282.743,942.638-292.869,934.309Z" transform="translate(-69.165 -50.851)"/><g transform="translate(-778.087 773.291)"><rect class="f" width="67.473" height="122.146" transform="translate(0 0)"/><rect class="g" width="10.202" height="6.872" transform="translate(15.95 21.527) rotate(-180)"/><rect class="g" width="10.202" height="6.872" transform="translate(28.086 21.527) rotate(-180)"/><rect class="g" width="10.202" height="6.872" transform="translate(15.95 30.386) rotate(-180)"/><rect class="g" width="10.202" height="6.872" transform="translate(28.086 30.386) rotate(-180)"/><rect class="g" width="10.202" height="6.872" transform="translate(15.95 44.736) rotate(-180)"/><rect class="g" width="10.202" height="6.872" transform="translate(28.086 44.736) rotate(-180)"/><rect class="g" width="10.202" height="6.872" transform="translate(15.95 53.594) rotate(-180)"/><rect class="g" width="10.202" height="6.872" transform="translate(28.086 53.594) rotate(-180)"/><rect class="g" width="10.202" height="6.872" transform="translate(15.95 67.945) rotate(-180)"/><rect class="g" width="10.202" height="6.872" transform="translate(28.086 67.945) rotate(-180)"/><rect class="g" width="10.202" height="6.872" transform="translate(28.086 76.803) rotate(-180)"/><rect class="g" width="10.202" height="6.872" transform="translate(15.95 91.154) rotate(-180)"/><rect class="g" width="10.202" height="6.872" transform="translate(28.086 91.154) rotate(-180)"/><rect class="g" width="10.202" height="6.872" transform="translate(15.95 100.012) rotate(-180)"/><rect class="g" width="10.202" height="6.872" transform="translate(28.086 100.012) rotate(-180)"/><rect class="g" width="10.202" height="6.872" transform="translate(52.329 21.527) rotate(-180)"/><rect class="g" width="6.919" height="6.872" transform="translate(61.181 21.527) rotate(-180)"/><rect class="g" width="10.202" height="6.872" transform="translate(52.329 30.386) rotate(-180)"/><rect class="g" width="6.919" height="6.872" transform="translate(61.181 30.386) rotate(-180)"/><rect class="g" width="10.202" height="6.872" transform="translate(52.329 44.736) rotate(-180)"/><rect class="g" width="6.919" height="6.872" transform="translate(61.181 44.736) rotate(-180)"/><rect class="g" width="10.202" height="6.872" transform="translate(52.329 53.594) rotate(-180)"/><rect class="g" width="6.919" height="6.872" transform="translate(61.181 53.594) rotate(-180)"/><rect class="g" width="10.202" height="6.872" transform="translate(52.329 67.945) rotate(-180)"/><rect class="g" width="6.919" height="6.872" transform="translate(61.181 67.945) rotate(-180)"/><rect class="g" width="6.919" height="6.872" transform="translate(61.181 76.803) rotate(-180)"/><rect class="g" width="10.202" height="6.872" transform="translate(52.329 91.154) rotate(-180)"/><rect class="g" width="6.919" height="6.872" transform="translate(61.181 91.154) rotate(-180)"/><rect class="g" width="10.202" height="6.872" transform="translate(52.329 100.012) rotate(-180)"/><rect class="g" width="6.919" height="6.872" transform="translate(61.181 100.012) rotate(-180)"/></g><g transform="translate(-1065.281 824.173)"><path class="f" d="M-952.3,907.056h72.1v48.817h-168.051V873.712H-952.3Z" transform="translate(1048.245 -873.712)"/><rect class="h" width="10.21" height="10.21" transform="translate(65.525 24.838) rotate(-180)"/><rect class="h" width="10.21" height="10.21" transform="translate(80.267 24.838) rotate(-180)"/><rect class="h" width="10.21" height="10.21" transform="translate(17.351 39.089) rotate(-180)"/><rect class="h" width="10.21" height="10.21" transform="translate(32.093 39.089) rotate(-180)"/><rect class="h" width="10.21" height="10.21" transform="translate(17.351 57.154) rotate(-180)"/><rect class="h" width="10.21" height="10.21" transform="translate(32.093 57.154) rotate(-180)"/><rect class="h" width="10.21" height="10.21" transform="translate(65.525 57.154) rotate(-180)"/><rect class="h" width="10.21" height="10.21" transform="translate(80.267 57.154) rotate(-180)"/><rect class="h" width="10.21" height="10.21" transform="translate(113.699 57.154) rotate(-180)"/><rect class="h" width="10.21" height="10.21" transform="translate(128.441 57.154) rotate(-180)"/><rect class="h" width="10.21" height="10.21" transform="translate(143.182 57.154) rotate(-180)"/><rect class="h" width="10.21" height="10.21" transform="translate(17.351 70.316) rotate(-180)"/><rect class="h" width="10.21" height="10.21" transform="translate(32.093 70.316) rotate(-180)"/><rect class="h" width="10.21" height="10.21" transform="translate(65.525 70.316) rotate(-180)"/><rect class="h" width="10.21" height="10.21" transform="translate(80.267 70.316) rotate(-180)"/><rect class="h" width="10.21" height="10.21" transform="translate(113.699 70.316) rotate(-180)"/><rect class="h" width="10.21" height="10.21" transform="translate(128.441 70.316) rotate(-180)"/><rect class="h" width="10.21" height="10.21" transform="translate(143.182 70.316) rotate(-180)"/></g><circle class="a" cx="127.018" cy="127.018" r="127.018" transform="translate(-352.838 408.896)"/><path class="e" d="M-122.312,434.625c.008-.151.021-.3.021-.453v-1.561a6.626,6.626,0,0,0-6.627-6.627h-27.664c.017-.373.029-.746.029-1.124a22.467,22.467,0,0,0-22.467-22.467A22.478,22.478,0,0,0-200.8,419.348a17.567,17.567,0,0,0-6.91-1.4,17.659,17.659,0,0,0-17.629,16.683Z" transform="translate(-103.529)"/><path class="e" d="M-4.662,526.258h129.8A45.108,45.108,0,0,0,74.485,503.3l-.356.086-.2-.3A29.989,29.989,0,0,0,19.132,516.9l-.05.525-.524-.055a28.028,28.028,0,0,0-2.844-.146A27.435,27.435,0,0,0-4.662,526.258Z" transform="translate(-126.724 -9.181)"/><path class="i" d="M-179.917,609.649c0-.069.011-.136.011-.2a17.521,17.521,0,0,0-17.519-17.519h-17.809a34.607,34.607,0,0,0-33.41-25.657,34.622,34.622,0,0,0-34.623,34.622,34.6,34.6,0,0,0,1.16,8.759h102.191Z" transform="translate(-97.441 -17.224)"/><line class="e" x2="81.175" transform="translate(-401.455 513.69)"/><line class="e" x2="81.175" transform="translate(-79.605 533.894)"/><line class="e" x2="81.175" transform="translate(-107.072 540.207)"/><line class="e" x2="29.466" transform="translate(-399.953 507.496)"/><line class="e" x2="81.175" transform="translate(-428.983 434.625)"/><line class="e" x2="29.466" transform="translate(-17.376 540.151)"/><path class="e" d="M88.9,440.531h91.847a31.919,31.919,0,0,0-35.844-16.248l-.251.061-.143-.215a21.22,21.22,0,0,0-38.772,9.778l-.036.371-.37-.038a19.707,19.707,0,0,0-2.013-.1A19.411,19.411,0,0,0,88.9,440.531Z" transform="translate(-136.558 -1.293)"/><line class="e" x2="29.466" transform="translate(-86.803 439.238)"/><g transform="translate(10.316 634.249)"><g transform="translate(0.001)"><path class="e" d="M217.384,697.553l-.043-.019c10.153,5.158,24.876,5.206,37.156,3.944C242.235,702.739,227.534,702.69,217.384,697.553Z" transform="translate(-160.375 -665.27)"/><path class="e" d="M260.8,701.706q-.846.1-1.71.186Q259.952,701.8,260.8,701.706Z" transform="translate(-164.763 -665.708)"/><path class="e" d="M262.945,701.452c-.368.047-.745.091-1.12.138C262.2,701.543,262.578,701.5,262.945,701.452Z" transform="translate(-165.051 -665.682)"/><rect class="e" width="3.698" height="10.67" transform="translate(26.382 47.976)"/><path class="e" d="M247.385,725.762h3.7v-10.67h-3.7Z" transform="translate(-163.533 -667.115)"/><path class="e" d="M214.713,715.092v10.67h4.7v-10.67Z" transform="translate(-160.099 -667.115)"/><path class="e" d="M187.3,715.091v10.67h8.443v-6.834h6.68v6.834h9.412v-10.67Z" transform="translate(-157.217 -667.115)"/><path class="e" d="M219.968,715.092v10.67H244.5v-10.67Z" transform="translate(-160.651 -667.115)"/><rect class="e" width="6.68" height="6.834" transform="translate(38.523 51.812)"/><path class="j" d="M251.614,701.04c-.368.047-.745.091-1.12.138-.248.029-.491.06-.739.089-.564.065-1.136.127-1.71.186l-.2.024c-12.28,1.263-27,1.214-37.155-3.944-17.091,8.684-47.139,2.889-56.665.72l5.291,3.815,1.633,1.177,1.513,3.025h96.456l1.513-3.025,1.633-1.176,5.291-3.815C264.075,699,258.376,700.174,251.614,701.04Z" transform="translate(-153.719 -665.27)"/><path class="e" d="M221.641,665.513l-1.512-2.856-3.652-1.162-.043-.015-3.7,1.176-1.51,2.856-2.522,6.05h15.458Z" transform="translate(-159.467 -661.48)"/><path class="e" d="M218.378,672.748H202.92s-7.73,18.484-49.236,22.685l.3.217c9.527,2.168,39.575,7.964,56.665-.72l.043.019c10.151,5.138,24.851,5.186,37.113,3.925l.2-.024c.575-.059,1.147-.121,1.71-.185.249-.03.491-.062.739-.09.376-.047.752-.09,1.12-.138,6.762-.865,12.46-2.039,15.735-2.784l.3-.218C226.109,691.232,218.378,672.748,218.378,672.748Z" transform="translate(-153.684 -662.665)"/><path class="j" d="M212.288,707.3H169.267l4.262,2.763,6.491,4.211h64.533l6.492-4.211,4.26-2.763Z" transform="translate(-155.322 -666.296)"/><path class="e" d="M212.884,734.24h38.27v-7.225H174.527v7.225h38.357Z" transform="translate(-155.875 -668.369)"/></g><g transform="translate(0 65.872)"><path class="e" d="M227.083,742.061c-.482-.108-.957-.231-1.429-.354C226.127,741.831,226.6,741.954,227.083,742.061Z" transform="translate(-161.248 -735.785)"/><path class="e" d="M229.211,742.506c-.564-.106-1.119-.222-1.67-.343C228.092,742.284,228.648,742.4,229.211,742.506Z" transform="translate(-161.446 -735.833)"/><path class="e" d="M224.992,741.538c-.433-.116-.857-.246-1.283-.376C224.135,741.293,224.559,741.422,224.992,741.538Z" transform="translate(-161.043 -735.727)"/><path class="e" d="M231.393,742.881q-.909-.137-1.8-.3Q230.485,742.743,231.393,742.881Z" transform="translate(-161.662 -735.876)"/><path class="e" d="M231.661,742.561c16.512,2.485,36.418-1.409,43.849-3.1C268.079,741.152,248.173,745.046,231.661,742.561Z" transform="translate(-161.879 -735.549)"/><path class="e" d="M222.961,740.936c-.395-.125-.779-.264-1.164-.4C222.183,740.672,222.567,740.81,222.961,740.936Z" transform="translate(-160.842 -735.661)"/><path class="e" d="M220.991,740.249c-.359-.132-.705-.279-1.054-.423C220.286,739.97,220.632,740.117,220.991,740.249Z" transform="translate(-160.647 -735.587)"/><path class="j" d="M223.5,742.476l-.05-.007q-.909-.137-1.8-.3l-.166-.029c-.564-.106-1.119-.222-1.67-.343-.087-.02-.175-.034-.26-.054-.482-.108-.957-.231-1.429-.354-.151-.039-.307-.072-.457-.113-.434-.116-.857-.246-1.283-.376-.181-.055-.368-.1-.548-.16-.395-.125-.779-.264-1.164-.4-.2-.071-.412-.134-.61-.21-.359-.133-.705-.28-1.054-.424-.218-.089-.441-.172-.658-.266-.33-.143-.646-.3-.97-.455-.216-.1-.439-.2-.653-.306l-.042-.022c-17.091,8.686-47.139,2.891-56.665.721l5.291,3.816,1.633,1.178,1.513,3.025h96.456l1.513-3.025,1.633-1.178,5.291-3.813C259.918,741.067,240.012,744.961,223.5,742.476Z" transform="translate(-153.718 -735.464)"/><path class="e" d="M247.52,735.089H173.778a116.222,116.222,0,0,1-20.095,3.7l.3.217c9.526,2.17,39.575,7.965,56.665-.722.013.008.029.015.043.022.213.107.437.2.652.306.324.153.64.311.971.455.216.094.438.176.657.267.349.144.7.291,1.054.423.2.076.406.14.611.211.385.138.769.276,1.163.4.18.057.367.106.548.161.426.13.85.259,1.283.375.151.041.306.075.457.113.473.123.947.246,1.429.354.085.019.173.034.26.053.551.122,1.106.237,1.67.343l.166.029q.893.165,1.8.3l.05.007c16.512,2.485,36.419-1.408,43.849-3.1l.3-.218A116.234,116.234,0,0,1,247.52,735.089Z" transform="translate(-153.683 -735.089)"/><rect class="e" width="3.698" height="10.67" transform="translate(26.382 18.903)"/><path class="e" d="M247.385,766.883h3.7v-10.67h-3.7Z" transform="translate(-163.532 -737.309)"/><path class="e" d="M214.713,756.213v10.67h4.7v-10.67Z" transform="translate(-160.098 -737.309)"/><path class="e" d="M187.3,756.212v10.67h8.443v-6.834h6.68v6.834h9.412v-10.67Z" transform="translate(-157.216 -737.309)"/><path class="e" d="M219.968,756.213v10.67H244.5v-10.67Z" transform="translate(-160.65 -737.309)"/><rect class="e" width="6.68" height="6.834" transform="translate(38.524 22.74)"/><path class="j" d="M212.287,748.419h-43.02l4.262,2.763,6.491,4.211h64.533l6.492-4.211,4.259-2.763Z" transform="translate(-155.321 -736.49)"/><path class="e" d="M212.884,775.361h38.27v-7.225H174.527v7.225h38.357Z" transform="translate(-155.874 -738.563)"/></g><g transform="translate(0 102.671)"><path class="e" d="M227.083,783.182c-.482-.108-.957-.231-1.429-.354C226.127,782.952,226.6,783.075,227.083,783.182Z" transform="translate(-161.248 -776.906)"/><path class="e" d="M229.211,783.627c-.564-.106-1.119-.222-1.67-.343C228.092,783.4,228.648,783.521,229.211,783.627Z" transform="translate(-161.446 -776.954)"/><path class="e" d="M224.992,782.659c-.433-.116-.857-.246-1.283-.375C224.135,782.414,224.559,782.543,224.992,782.659Z" transform="translate(-161.043 -776.848)"/><path class="e" d="M231.393,784q-.909-.137-1.8-.3Q230.485,783.864,231.393,784Z" transform="translate(-161.662 -776.997)"/><path class="e" d="M231.661,783.682c16.512,2.485,36.418-1.409,43.849-3.1C268.079,782.273,248.173,786.167,231.661,783.682Z" transform="translate(-161.879 -776.669)"/><path class="e" d="M222.961,782.057c-.395-.125-.779-.264-1.164-.4C222.183,781.793,222.567,781.931,222.961,782.057Z" transform="translate(-160.842 -776.782)"/><path class="e" d="M220.991,781.37c-.359-.133-.705-.279-1.054-.423C220.286,781.091,220.632,781.238,220.991,781.37Z" transform="translate(-160.647 -776.708)"/><path class="j" d="M223.5,783.6l-.05-.007q-.909-.137-1.8-.3l-.166-.029c-.564-.106-1.119-.222-1.67-.343-.087-.02-.175-.034-.26-.054-.482-.108-.957-.231-1.429-.353-.151-.038-.307-.073-.457-.113-.434-.116-.857-.246-1.283-.375-.181-.055-.368-.1-.548-.161-.395-.125-.779-.264-1.164-.4-.2-.071-.412-.134-.61-.21-.359-.133-.705-.28-1.054-.424-.218-.089-.441-.172-.658-.266-.33-.143-.646-.3-.97-.455-.216-.1-.439-.2-.653-.306l-.042-.022c-17.091,8.686-47.139,2.891-56.665.721l5.291,3.816,1.633,1.178,1.513,3.025h96.456l1.513-3.025,1.633-1.178,5.291-3.813C259.918,782.188,240.012,786.082,223.5,783.6Z" transform="translate(-153.718 -776.585)"/><path class="e" d="M247.52,776.21H173.778a116.211,116.211,0,0,1-20.095,3.7l.3.217c9.526,2.17,39.575,7.965,56.665-.722.013.008.029.015.043.022.213.107.437.2.652.306.324.153.64.311.971.455.216.094.438.176.657.267.349.144.7.291,1.054.423.2.076.406.14.611.211.385.138.769.276,1.163.4.18.057.367.107.548.161.426.13.85.259,1.283.375.151.041.306.075.457.113.473.123.947.246,1.429.354.085.019.173.034.26.053.551.122,1.106.237,1.67.343l.166.029q.893.165,1.8.3l.05.007c16.512,2.485,36.419-1.408,43.849-3.1l.3-.218A116.223,116.223,0,0,1,247.52,776.21Z" transform="translate(-153.683 -776.21)"/><rect class="e" width="3.698" height="10.67" transform="translate(26.382 18.903)"/><path class="e" d="M247.385,808h3.7v-10.67h-3.7Z" transform="translate(-163.532 -778.43)"/><path class="e" d="M214.713,797.334V808h4.7v-10.67Z" transform="translate(-160.098 -778.43)"/><path class="e" d="M187.3,797.334V808h8.443V801.17h6.68V808h9.412v-10.67Z" transform="translate(-157.216 -778.43)"/><path class="e" d="M219.968,797.334V808H244.5v-10.67Z" transform="translate(-160.65 -778.43)"/><rect class="e" width="6.68" height="6.834" transform="translate(38.524 22.74)"/><path class="j" d="M212.287,789.54h-43.02l4.262,2.763,6.491,4.211h64.533l6.492-4.211,4.259-2.763Z" transform="translate(-155.321 -777.611)"/><path class="e" d="M212.884,816.482h38.27v-7.225H174.527v7.225h38.357Z" transform="translate(-155.874 -779.684)"/></g><g transform="translate(0 139.384)"><path class="e" d="M227.083,824.207c-.482-.108-.957-.231-1.429-.354C226.127,823.977,226.6,824.1,227.083,824.207Z" transform="translate(-161.248 -817.931)"/><path class="e" d="M229.211,824.651c-.564-.106-1.119-.221-1.67-.343C228.092,824.43,228.648,824.546,229.211,824.651Z" transform="translate(-161.446 -817.978)"/><path class="e" d="M224.992,823.683c-.433-.116-.857-.245-1.283-.375C224.135,823.438,224.559,823.568,224.992,823.683Z" transform="translate(-161.043 -817.873)"/><path class="e" d="M231.393,825.026q-.909-.137-1.8-.3Q230.485,824.888,231.393,825.026Z" transform="translate(-161.662 -818.022)"/><path class="e" d="M231.661,824.706c16.512,2.485,36.418-1.408,43.849-3.1C268.079,823.3,248.173,827.192,231.661,824.706Z" transform="translate(-161.879 -817.695)"/><path class="e" d="M222.961,823.081c-.395-.125-.779-.263-1.164-.4C222.183,822.818,222.567,822.956,222.961,823.081Z" transform="translate(-160.842 -817.807)"/><path class="e" d="M220.991,822.4c-.359-.133-.705-.28-1.054-.424C220.286,822.115,220.632,822.262,220.991,822.4Z" transform="translate(-160.647 -817.733)"/><path class="j" d="M223.5,824.621l-.05-.007q-.909-.137-1.8-.3l-.166-.029c-.564-.106-1.119-.221-1.67-.343-.087-.019-.175-.034-.26-.053-.482-.108-.957-.231-1.429-.354-.151-.038-.307-.073-.457-.113-.434-.116-.857-.245-1.283-.375-.181-.055-.368-.1-.548-.161-.395-.125-.779-.263-1.164-.4-.2-.071-.412-.134-.61-.21-.359-.132-.705-.279-1.054-.423-.218-.09-.441-.172-.658-.267-.33-.143-.646-.3-.97-.455-.216-.1-.439-.2-.653-.306l-.042-.022c-17.091,8.686-47.139,2.892-56.665.722l5.291,3.816,1.633,1.177,1.513,3.025h96.456l1.513-3.025,1.633-1.177,5.291-3.814C259.918,823.213,240.012,827.107,223.5,824.621Z" transform="translate(-153.718 -817.609)"/><path class="e" d="M247.52,817.235H173.778a116.13,116.13,0,0,1-20.095,3.694l.3.217c9.526,2.17,39.575,7.965,56.665-.721l.043.022c.213.107.437.2.652.306.324.153.64.311.971.455.216.094.438.175.657.266.349.144.7.291,1.054.424.2.075.406.14.611.21.385.138.769.276,1.163.4.18.057.367.107.548.161.426.131.85.26,1.283.375.151.041.306.075.457.114.473.123.947.245,1.429.353.085.019.173.034.26.054.551.121,1.106.237,1.67.342.055.011.111.02.166.03q.893.164,1.8.3l.05.007c16.512,2.485,36.419-1.409,43.849-3.1l.3-.218A116.142,116.142,0,0,1,247.52,817.235Z" transform="translate(-153.683 -817.235)"/><rect class="e" width="3.698" height="10.67" transform="translate(26.382 18.903)"/><path class="e" d="M247.385,849.028h3.7v-10.67h-3.7Z" transform="translate(-163.532 -819.455)"/><path class="e" d="M214.713,838.358v10.67h4.7v-10.67Z" transform="translate(-160.098 -819.455)"/><path class="e" d="M187.3,838.358v10.67h8.443v-6.834h6.68v6.834h9.412v-10.67Z" transform="translate(-157.216 -819.455)"/><path class="e" d="M219.968,838.358v10.67H244.5v-10.67Z" transform="translate(-160.65 -819.455)"/><rect class="e" width="6.68" height="6.834" transform="translate(38.524 22.739)"/><path class="j" d="M212.287,830.564h-43.02l4.262,2.763,6.491,4.211h64.533l6.492-4.211,4.259-2.763Z" transform="translate(-155.321 -818.636)"/><path class="e" d="M212.884,857.507h38.27v-7.226H174.527v7.226h38.357Z" transform="translate(-155.874 -820.708)"/></g><g transform="translate(0 176.182)"><path class="e" d="M227.083,865.328c-.482-.108-.957-.231-1.429-.354C226.127,865.1,226.6,865.22,227.083,865.328Z" transform="translate(-161.248 -859.052)"/><path class="e" d="M229.211,865.772c-.564-.106-1.119-.221-1.67-.343C228.092,865.551,228.648,865.667,229.211,865.772Z" transform="translate(-161.446 -859.099)"/><path class="e" d="M224.992,864.8c-.433-.116-.857-.245-1.283-.375C224.135,864.559,224.559,864.689,224.992,864.8Z" transform="translate(-161.043 -858.994)"/><path class="e" d="M231.393,866.147q-.909-.137-1.8-.3Q230.485,866.009,231.393,866.147Z" transform="translate(-161.662 -859.143)"/><path class="e" d="M231.661,865.827c16.512,2.485,36.418-1.408,43.849-3.1C268.079,864.419,248.173,868.313,231.661,865.827Z" transform="translate(-161.879 -858.816)"/><path class="e" d="M222.961,864.2c-.395-.125-.779-.263-1.164-.4C222.183,863.939,222.567,864.077,222.961,864.2Z" transform="translate(-160.842 -858.928)"/><path class="e" d="M220.991,863.516c-.359-.133-.705-.28-1.054-.424C220.286,863.236,220.632,863.383,220.991,863.516Z" transform="translate(-160.647 -858.854)"/><path class="j" d="M223.5,865.742l-.05-.007q-.909-.137-1.8-.3l-.166-.029c-.564-.106-1.119-.221-1.67-.343-.087-.019-.175-.034-.26-.053-.482-.108-.957-.231-1.429-.354-.151-.038-.307-.072-.457-.113-.434-.116-.857-.245-1.283-.375-.181-.056-.368-.1-.548-.161-.395-.125-.779-.263-1.164-.4-.2-.072-.412-.135-.61-.211-.359-.132-.705-.279-1.054-.423-.218-.09-.441-.172-.658-.267-.33-.143-.646-.3-.97-.455-.216-.1-.439-.2-.653-.306l-.042-.022c-17.091,8.686-47.139,2.892-56.665.722l5.291,3.816,1.633,1.177,1.513,3.025h96.456l1.513-3.025,1.633-1.177,5.291-3.814C259.918,864.334,240.012,868.228,223.5,865.742Z" transform="translate(-153.718 -858.731)"/><path class="e" d="M247.52,858.356H173.778a116.148,116.148,0,0,1-20.095,3.694l.3.217c9.526,2.17,39.575,7.964,56.665-.721l.043.022c.213.107.437.2.652.306.324.153.64.311.971.455.216.094.438.175.657.266.349.144.7.291,1.054.424.2.075.406.14.611.21.385.138.769.276,1.163.4.18.058.367.107.548.161.426.131.85.26,1.283.375.151.041.306.075.457.114.473.123.947.245,1.429.353.085.019.173.034.26.054.551.121,1.106.237,1.67.342l.166.03q.893.164,1.8.3l.05.007c16.512,2.485,36.419-1.409,43.849-3.1l.3-.218A116.16,116.16,0,0,1,247.52,858.356Z" transform="translate(-153.683 -858.356)"/><rect class="e" width="3.698" height="10.67" transform="translate(26.382 18.903)"/><path class="e" d="M247.385,890.149h3.7v-10.67h-3.7Z" transform="translate(-163.532 -860.576)"/><path class="e" d="M214.713,879.479v10.67h4.7v-10.67Z" transform="translate(-160.098 -860.576)"/><path class="e" d="M187.3,879.479v10.67h8.443v-6.834h6.68v6.834h9.412v-10.67Z" transform="translate(-157.216 -860.576)"/><path class="e" d="M219.968,879.479v10.67H244.5v-10.67Z" transform="translate(-160.65 -860.576)"/><rect class="e" width="6.68" height="6.834" transform="translate(38.524 22.739)"/><path class="j" d="M212.287,871.685h-43.02l4.262,2.763,6.491,4.211h64.533l6.492-4.211,4.259-2.763Z" transform="translate(-155.321 -859.757)"/><rect class="e" width="3.698" height="10.671" transform="translate(26.384 18.985)"/><path class="e" d="M247.386,890.241h3.7V879.57h-3.7Z" transform="translate(-163.532 -860.586)"/><path class="e" d="M217.066,890.241h2.351V879.57h-4.7v10.671Z" transform="translate(-160.098 -860.586)"/><path class="e" d="M195.741,890.241V883.41h6.68v6.831h9.412V879.57H187.3v10.671Z" transform="translate(-157.216 -860.586)"/><path class="e" d="M244.5,890.241V879.57H219.97v10.671Z" transform="translate(-160.65 -860.586)"/><rect class="e" width="6.68" height="6.831" transform="translate(38.525 22.824)"/><path class="k" d="M248.85,894.43a2.936,2.936,0,0,1-2.935,2.935H180.382a2.936,2.936,0,0,1-2.935-2.935h0a2.936,2.936,0,0,1,2.935-2.936h65.532a2.936,2.936,0,0,1,2.935,2.936Z" transform="translate(-156.181 -861.839)"/></g></g><g transform="translate(-357.3 478.544)"><path class="l" d="M-30.431,723.943S-.84,731.9,10.42,728.106s5.537-8.5,5.537-8.5-18.442-5.566-41.48-25.061S-60.2,645.794-60.2,645.794l-.125,6.038-11.047,63.04,40.941,9.072" transform="translate(237.587 -504.127)"/><path class="m" d="M-29.733,709.892s11.63,22.079,51.466,19.862c0,0-4,6.988-17.654,6.062a197.393,197.393,0,0,1-28.349-4.177Z" transform="translate(233.211 -510.864)"/><path class="e" d="M-42.98,594.725c-19.716-59.508-65.35-44.846-65.35-44.846s-18.816-50.267-67.419-62.391a232.435,232.435,0,0,0,19.042,37.526h0c-16.037-10.561-37.866-21.127-66.439-27.516,0,0,9.469,44.831,87.129,83.3,0,0-2.178,11.689,3.469,22.327.438,5.912.8,16.138-1.319,21.448-3.095,7.749-30.23,46.119-30.23,46.119L-181.459,782.21s-14.836,59.661-16.711,87.73,2.741,35.284,11.488,34.233c12.521-1.5,47.805-54.12,66.32-76.449,22.018-26.555,30.591-21.335,45.781-5.758,26.658,27.337,46.21,78.751,63.772,73.915,17.172-4.728-9.7-89.9-16.165-114.607-10.293-39.36-19.635-83.14-25.1-102.189C-59.608,652.837-75.458,628.1-75.458,628.1-40.122,621.751-42.98,594.725-42.98,594.725Z" transform="translate(253.54 -487.488)"/><path class="n" d="M-23.783,604.422s-4.92-1.387-8.4.718c0,0,4.636.239,6.727,1.929a16.377,16.377,0,0,1,2.2,3.574l.345-3.675Z" transform="translate(233.468 -499.731)"/><path class="b" d="M-31.585,622.3s-23.772,20.258-52.1,12.545c0,0,8.12,7.062,22.366,7.045C-56.467,641.883-34.917,634.209-31.585,622.3Z" transform="translate(238.882 -501.658)"/><path class="n" d="M-75.353,578.9s6.476-4.622,11.381,1.089a18.726,18.726,0,0,1,1.464,2.634S-70.291,589.386-75.353,578.9Z" transform="translate(238.006 -496.911)"/><path class="o" d="M-200.33,767.4" transform="translate(251.142 -516.908)"/><path class="m" d="M-169.18,487.762s23.98,26.952,34.719,41.688c15.968,21.907,20.807,28.936,20.807,28.936s-.687,1.577-2.217-1.013c-4.782-8.1-30.007-29.167-34.712-32.33S-165.91,497.833-169.18,487.762Z" transform="translate(247.868 -487.517)"/><path class="p" d="M-112.3,562.765c-15.2-18.233-36.606-33.343-36.606-33.343" transform="translate(245.736 -491.896)"/><path class="m" d="M-222.182,499.781s36.476,54.559,86.332,81.63a239.364,239.364,0,0,1-33.135-18.57c-11.02-7.456-22.729-17.547-28.38-23.7C-218.3,516.333-221.809,504.628-222.182,499.781Z" transform="translate(253.439 -488.78)"/><path class="m" d="M-115.33,707.159s6.938-15.664,8.254-18.623c1.716-3.857,5.541-6.816-5.7-2.149s-34.607,14.321-42.917,26.285,15.911,17.672,15.911,17.672Z" transform="translate(246.633 -508.143)"/><path class="m" d="M-89.9,799.239h0a37.689,37.689,0,0,1-24.646,19.042l-66.309,15.655,3.836-16.356Z" transform="translate(249.095 -520.255)"/><path class="q" d="M-203.791,583.934" transform="translate(251.505 -497.625)"/><path class="m" d="M-194.938,930.474s10.158,4.582,27.242-19.336,41.163-53.566,62.114-57.477c0,0-2.307.57-29.555,35.465s-41.95,54.213-50.718,53.61S-194.938,930.474-194.938,930.474Z" transform="translate(250.575 -525.976)"/><path class="m" d="M-8.444,928.418s-3.728-25.582-10.562-43.48-21.885-45.129-32.867-48.576c0,0-10.531-2.093-19.561,1.934a121.332,121.332,0,0,0-16.153,8.792S-70.5,834.335-37.8,888.273C-20.227,917.254-8.444,928.418-8.444,928.418Z" transform="translate(239.292 -524.1)"/><path class="p" d="M-5.532,711.467c11.26-3.8,5.537-8.5,5.537-8.5s-18.442-5.565-41.481-25.061a114.932,114.932,0,0,1-18.45-20.223A237.639,237.639,0,0,0-75.458,628.1c35.336-6.353,32.479-33.38,32.479-33.38-19.717-59.508-65.351-44.846-65.351-44.846s-18.815-50.267-67.419-62.391a232.435,232.435,0,0,0,19.042,37.526h0c-16.037-10.561-37.866-21.127-66.439-27.516,0,0,9.469,44.831,87.129,83.3a38.75,38.75,0,0,0,2.184,19.57l-.041-.076,1.421,4.234c.107,1.69.2,3.619.226,5.636-.513,3.948-2.507,8.664-7.779,13.342-12.947,11.485-75.38,59.676-73.737,111.126.363,8.438,6.55,9.733,13.17.766,3.561-4.823,15.109-21.731,32.35-38.209l-13.238,85.024s-14.835,59.661-16.711,87.73,2.741,35.283,11.488,34.233c12.521-1.5,47.805-54.119,66.32-76.449,22.018-26.555,30.591-21.335,45.781-5.758,26.659,27.337,46.21,78.751,63.772,73.915,17.172-4.728-9.7-89.9-16.164-114.607C-33.586,755.994-39.8,728.9-44.855,707.7-38.679,709.25-15.266,714.75-5.532,711.467ZM-133.147,601.921c.191.4.387.8.6,1.2.028.374.055.766.081,1.173A17.3,17.3,0,0,0-133.147,601.921Z" transform="translate(253.54 -487.488)"/><path class="p" d="M-57.656,835.8c-20.989-.011-37.736,16.316-37.736,16.316" transform="translate(240.112 -524.098)"/><g transform="translate(0 188.474)"><rect class="e" width="145.789" height="77.985" transform="matrix(0.978, -0.207, 0.207, 0.978, 0, 44.369)"/><path class="r" d="M-114.468,712.339-257.11,742.467l10.316-14.241L-104.152,698.1Z" transform="translate(257.11 -698.098)"/><path class="r" d="M-81.6,788.642l8.989-26.5L-87.4,698.1l-10.316,14.241Z" transform="translate(240.356 -698.098)"/></g><ellipse class="a" cx="14.116" cy="12.795" rx="14.116" ry="12.795" transform="translate(105.625 217.283)"/><path class="e" d="M-111.512,676.851c-47.117,12.08-81.337,62.827-87.958,71.794s-12.807,7.672-13.17-.766c-1.642-51.45,60.79-99.641,73.737-111.126s6.132-23.212,6.132-23.212" transform="translate(252.439 -500.737)"/></g><path class="s" d="M119.607,945.547,43.75,928.565a548.411,548.411,0,0,0-207.937-3.777l-134.337,23.421a548.392,548.392,0,0,1-225.992-7.925l-2.4-.593a548.416,548.416,0,0,0-269.79,1.57h0a548.4,548.4,0,0,1-208.661,13.072s-85.611-14.624-125.784-20.752-65.286-4.341-65.286-4.341V1090.88H129.444Z" transform="translate(-1.46 -54.051)"/><g transform="translate(-92.067 842.238)"><path class="t" d="M200.629,952.331c-5.973-11.37-16.733-3.389-16.733-3.389s1.218-11.227-9.477-12.642c-9.991-1.322-12.855,9.336-12.855,9.336s.73-7.585-3.984-12.57a10.05,10.05,0,0,0,4.308-4.207c2.781-5.188.081-12.015-3.734-14.444-2.616-1.668-8.118-1.963-8.118-1.963s1.72-6.686-5.466-11.239a12.31,12.31,0,0,0-15.2,1.215s-2.229-8.507-11.345-8.507v0a.908.908,0,0,0-.1,0,.867.867,0,0,0-.1,0v0c-10.137,0-11.958,8.809-11.958,8.809s-6.681-6.686-14.889-1.825a11.27,11.27,0,0,0-5.768,11.848s-5.2-.008-7.816,1.66c-3.815,2.43-6.826,8.958-4.037,14.141,4.255,7.9,14.473,7.38,20.661,2.431,6.7-5.359,12.81-9.871,20.876-10.789.833,3.344,2.413,10.856,3.6,16.489l.045.231c-3.414-3.327-8.209-5.379-15.1-4.518-15.15,1.894-15.176,15.728-15.176,15.728a12.464,12.464,0,0,0-14.231-6.646c-9.411,2.048-10.165,11.973-10.165,11.973s-14.128-8.865-22.6,3.121c-3.066,4.335-2.21,10.06-.094,14.233A13.372,13.372,0,0,0,58.405,977l.94-.4c2.432-1.049,4.911-1.974,7.419-2.809,2.94,13.268,11.629,18.86,17.316,22.5-26.438,8.977-41.585,31.894-41.585,63.017H53.948c0-35.778,21.559-48.179,34.415-52.385,23.42-7.664,37.352-21.634,43.14-35.393.169,0,.332-.016.5-.016,7.467,0,14.219,4.3,20.736,9.516,5.365,4.293,14.145,4.216,17.4-1.846,2.413-4.5.07-10.422-3.24-12.53-2.269-1.446-7.043-1.7-7.043-1.7a8.817,8.817,0,0,0-1.619-6.89,68.07,68.07,0,0,1,16.227,4.753c3.643,1.583,7.059,3.222,9.764,4.6l.757.387a11.108,11.108,0,0,0,14.608-4.206C201.574,960.248,202.68,956.235,200.629,952.331ZM93.8,992.512c-3.678-1.57-17.15-8.514-19.18-20.74A169.6,169.6,0,0,1,94.664,968.7c-2.082,2.693-3.163,6.79-1.318,10.217,3.44,6.387,11.37,6.425,16.779,2.926A62.215,62.215,0,0,1,93.8,992.512Zm46.36-62.836c-3.952,1.552-6.245,4.807-7.88,8.352a15.7,15.7,0,0,0-1.107-3.743h0c-.976-3.857-2.363-9.265-3.078-12.041A55.984,55.984,0,0,1,140.164,929.676Z" transform="translate(-39.275 -893.901)"/><path class="u" d="M162.022,914.4c-2.616-1.667-8.118-1.963-8.118-1.963s1.72-6.685-5.466-11.239a12.312,12.312,0,0,0-15.2,1.215S131.014,893.9,121.9,893.9v0a.732.732,0,0,0-.1,0,.692.692,0,0,0-.1,0v0c-10.137,0-11.958,8.808-11.958,8.808s-6.681-6.685-14.888-1.825a11.27,11.27,0,0,0-5.769,11.849s-5.2-.008-7.816,1.659c-3.815,2.43-6.826,8.958-4.037,14.142,4.255,7.9,14.473,7.379,20.662,2.431,7.517-6.012,14.279-10.97,23.9-10.97,8.608,0,16.391,4.958,23.9,10.97,6.185,4.949,16.306,4.86,20.056-2.128C168.539,923.652,165.837,916.826,162.022,914.4Z" transform="translate(-43.15 -893.899)"/><path class="u" d="M146.218,947.646c-8.774-5.36-18.811-.986-22.57,1.252-3.131-7.121-8.824-13.616-20.2-12.194C88.3,938.6,88.277,952.432,88.277,952.432a12.464,12.464,0,0,0-14.231-6.646c-9.411,2.048-10.165,11.973-10.165,11.973s-14.128-8.865-22.6,3.121c-3.066,4.335-2.21,10.059-.094,14.233A13.372,13.372,0,0,0,58.405,981.3l.94-.4c2.8-1.208,5.664-2.26,8.562-3.189,26.061-7.07,54.133-6.015,69.09-4.672,9.43.847,17.391-7.53,15.492-16.805A12.828,12.828,0,0,0,146.218,947.646Z" transform="translate(-39.275 -898.377)"/><path class="q" d="M173.111,973.1c-2.269-1.446-7.043-1.7-7.043-1.7s1.492-5.8-4.741-9.75a10.68,10.68,0,0,0-13.183,1.054s-1.933-7.379-9.841-7.379v0a.671.671,0,0,0-.087,0,.665.665,0,0,0-.084,0v0c-8.794,0-10.374,7.641-10.374,7.641s-5.8-5.8-12.916-1.583a9.775,9.775,0,0,0-5,10.279s-4.511-.006-6.78,1.44c-3.309,2.108-5.922,7.771-3.5,12.268,3.691,6.853,12.555,6.4,17.924,2.108,6.521-5.215,12.387-9.516,20.736-9.516,7.466,0,14.218,4.3,20.736,9.516,5.365,4.293,14.145,4.216,17.4-1.846C178.763,981.133,176.42,975.212,173.111,973.1Z" transform="translate(-45.512 -900.355)"/></g><path class="b" d="M-508.584,1011.958c-12.172-10.011-24.652-.3-24.652-.3a26.854,26.854,0,0,0-4.8-2.692,3.094,3.094,0,0,0,.54-1.75,3.112,3.112,0,0,0-3.112-3.112,3.069,3.069,0,0,0-.92.154,6.236,6.236,0,0,0-3.708-4.292,7.258,7.258,0,0,0,.509-2.663,7.284,7.284,0,0,0-7.284-7.284,7.267,7.267,0,0,0-2.854.581A24.446,24.446,0,0,0-572.4,968.746a32.135,32.135,0,0,0-11.671-15.856c-15.313-10.515-40.457-6.024-50.552,13.209a5.185,5.185,0,0,0-6.315.788,5.185,5.185,0,0,0-1.014,1.437c-2.261-12.447-13.016-23.529-29.558-20.452-14.36,2.671-18.141,13.688-19.46,18.635,0,0-11.438-13.913-24.243-1.484a13.81,13.81,0,0,0-3.058,4.755,8.679,8.679,0,0,0-3.718-.84,8.73,8.73,0,0,0-8.73,8.73,8.723,8.723,0,0,0,4.787,7.781,12.713,12.713,0,0,0-2.328,7.342,12.74,12.74,0,0,0,4.039,9.309c-.472,1.027-.935,2.128-1.382,3.328-6.267,16.821-1.979,34.632-1.979,34.632h221.644S-494.987,1023.141-508.584,1011.958Z" transform="translate(-50.41 -57.279)"/><path class="a" d="M-53.838,954.271C-37.1,940.5-19.93,953.86-19.93,953.86a37.048,37.048,0,0,1,6.607-3.7,4.257,4.257,0,0,1-.741-2.405,4.281,4.281,0,0,1,4.281-4.28,4.232,4.232,0,0,1,1.265.212,8.579,8.579,0,0,1,5.1-5.9A10.017,10.017,0,0,1,9.828,924.9a33.622,33.622,0,0,1,24.117-30.062C36.9,886.665,41.96,878.543,50,873.024c21.063-14.463,55.648-8.287,69.533,18.169a7.123,7.123,0,0,1,10.081,3.061c3.111-17.122,17.9-32.366,40.658-28.132,19.751,3.674,24.952,18.828,26.767,25.632,0,0,15.732-19.137,33.345-2.041a19,19,0,0,1,4.206,6.542,12,12,0,0,1,10.537,21.553,17.53,17.53,0,0,1-2.354,22.9c.65,1.413,1.286,2.927,1.9,4.577,8.62,23.138,2.721,81.049,2.721,81.049H-57.474S-72.54,969.653-53.838,954.271Z" transform="translate(-120.57 -48.666)"/><line class="v" y1="14.13" x2="67.833" transform="translate(-284.641 753.991)"/><line class="v" y1="6.681" x2="32.075" transform="translate(-238.914 746.354)"/><line class="v" y1="6.681" x2="32.075" transform="translate(-275.773 753.991)"/><line class="v" y1="6.128" x2="29.998" transform="translate(-262.74 746.631)"/><path class="p" d="M225.388,968.91,43.75,928.565a548.411,548.411,0,0,0-207.937-3.777l-134.337,23.421a548.392,548.392,0,0,1-225.992-7.925l-2.4-.593a548.416,548.416,0,0,0-269.79,1.57h0a548.4,548.4,0,0,1-208.661,13.072l-98.48-15.808s-43.886-10.372-92.59-9.284" transform="translate(-1.46 -54.051)"/><g transform="translate(-436.722 482.311)"><path class="e" d="M-304.013,944.85l-.24-6.117L-309.211,813.7l-3.457-87.231h5.043l6.73-11.217V692.818h-2.731v-5.48h-10.942V644.19h5.072V628.122a6.078,6.078,0,0,1-5.916-6.231V602.431H-319.2l-.05-1.781L-322.335,491.7h-2.085l-3.135,110.733h-3.788v19.459a6.081,6.081,0,0,1-5.916,6.231V644.19h5.072v43.147h-10.942v5.48h-2.731v22.433l6.73,11.217h5.044l-4.749,119.847-3.667,92.419-.239,6.117-.529,13.3h39.786Z" transform="translate(345.86 -491.698)"/><line class="e" x2="20.271" transform="translate(13.673 152.493)"/><line class="e" x1="18.494" transform="translate(12.797 195.64)"/><line class="e" x2="39.501" transform="translate(2.732 201.12)"/><line class="e" x1="21.728" transform="translate(11.464 234.77)"/><line class="e" x1="8.53" y2="231.68" transform="translate(9.153 234.77)"/><line class="e" x2="8.93" y2="231.68" transform="translate(27.147 234.77)"/><line class="e" y2="231.68" transform="translate(22.482 234.77)"/><line class="e" x2="44.964" transform="translate(0 205.192)"/><line class="e" x2="44.964" transform="translate(0 212.844)"/><line class="e" x2="44.964" transform="translate(0 216.033)"/><line class="e" x2="44.964" transform="translate(0 223.807)"/><line class="e" x2="27.762" transform="translate(8.601 136.424)"/><line class="e" x2="27.762" transform="translate(8.601 139.748)"/><line class="e" x2="27.762" transform="translate(8.601 143.072)"/><line class="e" x2="27.762" transform="translate(8.601 146.12)"/><line class="e" x2="27.762" transform="translate(8.601 149.307)"/><line class="e" x2="9.064" transform="translate(18.017 110.734)"/><line class="e" x2="4.365" transform="translate(20.3 40.269)"/><line class="e" x2="8.076" transform="translate(18.444 105.83)"/><line class="e" x2="15.93" transform="translate(14.517 113.49)"/><line class="e" x2="4.978" transform="translate(19.993 51.112)"/><rect class="e" width="9.463" height="35.721" transform="translate(17.75 156.142)"/></g><g transform="translate(-37.747 862.588)"><g transform="translate(21.74 62.312)"><rect class="w" width="10.06" height="52.732"/></g><g transform="translate(24.065 27.74)"><path class="w" d="M126.866,977.68a4.985,4.985,0,0,1,5.409,0V947.637h-5.409Z" transform="translate(-126.866 -947.637)"/></g><g transform="translate(24.065 18.352)"><path class="w" d="M132.275,937.147a4.992,4.992,0,0,1-5.409,0v3.189h5.409Z" transform="translate(-126.866 -937.146)"/></g><g transform="translate(77.335 62.312)"><rect class="w" width="10.06" height="52.732"/></g><g transform="translate(79.661 27.74)"><path class="w" d="M188.992,977.68a4.983,4.983,0,0,1,5.408,0V947.637h-5.408V977.68Z" transform="translate(-188.992 -947.637)"/></g><g transform="translate(79.661 18.352)"><path class="w" d="M188.992,937.146v3.189H194.4v-3.189a4.99,4.99,0,0,1-5.408,0Z" transform="translate(-188.992 -937.146)"/></g><g transform="translate(13.951 17.78)"><path class="w" d="M186.684,936.507h-26.1l0,7.687a.857.857,0,0,1-.855.858H152.75a.855.855,0,0,1-.855-.858l0-7.687h-36.33l0,5.939h2.705l.866,4.022h74.2l.866-4.022h2.7l0-5.939Z" transform="translate(-115.565 -936.507)"/></g><g transform="translate(16.442 9.364)"><path class="w" d="M118.348,931.56h33.839v-1.368a.857.857,0,0,1,.855-.859h6.975a.858.858,0,0,1,.855.859v1.368h33.837V927.1h-76.36Z" transform="translate(-118.348 -927.103)"/></g><g transform="translate(50.281 11.593)"><path class="w" d="M163.991,929.594h-6.974a.857.857,0,0,0-.855.859v13.014a.855.855,0,0,0,.855.858h6.974a.857.857,0,0,0,.855-.858V930.453A.858.858,0,0,0,163.991,929.594Z" transform="translate(-156.162 -929.594)"/></g><g transform="translate(21.741 56.985)"><path class="w" d="M132,981.113a4.985,4.985,0,0,0-5.409,0,5.055,5.055,0,0,0-2.324,4.257v.271h10.059v-.271A5.056,5.056,0,0,0,132,981.113Z" transform="translate(-124.269 -980.317)"/></g><g transform="translate(77.335 56.985)"><path class="w" d="M194.127,981.113a4.984,4.984,0,0,0-5.408,0,5.055,5.055,0,0,0-2.326,4.257v.271h10.06v-.271A5.056,5.056,0,0,0,194.127,981.113Z" transform="translate(-186.393 -980.317)"/></g><g transform="translate(21.74 13.822)"><path class="w" d="M124.268,932.084v.271a5.057,5.057,0,0,0,2.325,4.259,4.992,4.992,0,0,0,5.409,0,5.057,5.057,0,0,0,2.327-4.26v-.271Z" transform="translate(-124.268 -932.084)"/></g><g transform="translate(77.335 13.822)"><path class="w" d="M186.393,932.084v.271a5.055,5.055,0,0,0,2.326,4.259,4.99,4.99,0,0,0,5.408,0,5.055,5.055,0,0,0,2.327-4.26v-.271Z" transform="translate(-186.393 -932.084)"/></g><path class="w" d="M99.975,916.639v5.232h4.11L105.275,926h98.645l1.188-4.133h4.111v-5.232A876.287,876.287,0,0,1,99.975,916.639Z" transform="translate(-99.975 -916.639)"/></g><path class="c" d="M-488.34,988.273A67.233,67.233,0,0,1-507.115,966.8c-1.35-2.448-2.58-5.164-2.229-7.939s2.908-5.432,5.652-4.892c1.648.324,2.884,1.638,4.267,2.592s3.4,1.516,4.64.383c1.769-1.619.128-4.48-1.439-6.295a79.893,79.893,0,0,1-13.693-22.541c-.964-2.413-1.821-5.023-1.311-7.571s2.881-4.9,5.445-4.474c1.847.305,3.2,1.876,4.213,3.453s1.892,3.325,3.426,4.4,4,1.123,5-.462c.809-1.288.311-2.972-.288-4.37-3.132-7.315-8.565-14.062-8.634-22.019a17.676,17.676,0,0,1,14.128-17,17.676,17.676,0,0,1,19.1,11.117c4.6,12.926-7.062,26.881-4.271,40.312a24.455,24.455,0,0,1,5.564-6.051c2.27-1.558,5.3-2.3,7.819-1.188,3.09,1.361,4.534,5.154,4.117,8.5s-2.3,6.327-4.322,9.031-4.253,5.319-5.558,8.433c-.471,1.121-.774,2.528,0,3.464,1.009,1.217,2.925.719,4.5.827,3.278.226,5.622,3.661,5.684,6.946s-1.59,6.352-3.452,9.06c-6.1,8.869-14.766,15.594-23.289,22.168Z" transform="translate(-73.464 -50.183)"/><path class="a" d="M-479.033,975.788l-1.249-16.835,12.238-17.537L-480.487,956.2l-1.143-15.413L-482.692,967l-9.672-16.421,9.492,20.852-1.852,45.716a13.666,13.666,0,0,0,8.71-.67l-2.736-36.862,10.195-14.677Z" transform="translate(-75.463 -56.589)"/><path class="c" d="M-366.836,1004.749c-6.366-4.854-12.3-12.92-14.316-20.67a6.462,6.462,0,0,1-.047-4.21,2.675,2.675,0,0,1,3.046-1.564c-.49-.166-1.083-2.208-1.256-2.68a18.461,18.461,0,0,1-.851-3.206,23.4,23.4,0,0,1-.166-6.1,28.6,28.6,0,0,1,3.965-12.183,10.655,10.655,0,0,1,2.724-3.232c3.986-2.9,8.618.751,9.165,5,.191,1.493.007,3.028.339,4.5s1.415,2.944,2.917,3.023a14.2,14.2,0,0,0,2.314-.392,4.773,4.773,0,0,1,4.514,2.781,11.113,11.113,0,0,1,.871,5.513C-354.066,982.588-366.836,1004.749-366.836,1004.749Z" transform="translate(-87.112 -57.543)"/><path class="a" d="M-365.636,995.2l-.625-8.417,6.118-8.769-6.221,7.392-.572-7.707-.531,13.108L-372.3,982.6l4.747,10.426-.926,22.857a6.833,6.833,0,0,0,4.355-.335l-1.368-18.431,5.1-7.338Z" transform="translate(-88.082 -60.469)"/><path class="c" d="M-794.57,915.48c1.864-3.64,7.31-5.336,10.264-2.508,1.193,1.141,2.391,3.005,3.95,2.464,1.473-.512,1.388-2.671.667-4.053-1.178-2.26-3.2-3.935-5.02-5.714s-3.569-3.873-3.915-6.4,1.3-5.457,3.839-5.626a12.569,12.569,0,0,0,2.838-.028c1.529-.464,2.133-2.394,1.861-3.969s-1.149-2.977-1.62-4.5c-1.657-5.371,2.989-11.678,8.611-11.686s10.288,6.283,8.647,11.66c-.508,1.667-1.5,3.192-1.726,4.92s.754,3.837,2.494,3.918c1.765.081,2.884-1.832,4.43-2.687,2.568-1.421,6.006.574,6.966,3.348s.062,5.858-1.288,8.465-3.153,4.989-4.176,7.74c-.359.965-.558,2.2.2,2.9,1.212,1.118,2.975-.369,4.389-1.215,3.383-2.025,8.092.287,9.74,3.868s6.93,26.292-25.24,44.661C-800.549,940.553-796.435,919.119-794.57,915.48Z" transform="translate(-43.567 -49.512)"/><path class="a" d="M-765.821,945.664l-.985-13.276,9.651-13.83-9.812,11.658-.9-12.154-.837,20.674-7.627-12.949,7.486,16.444-1.46,36.052a10.777,10.777,0,0,0,6.868-.528l-2.157-29.07,8.039-11.575Z" transform="translate(-45.616 -54.2)"/><path class="c" d="M-522.681,965.34c-.8-2.407-2.13-3.633-4.282-1.92-.831.661-1.343,1.9-2.4,1.97a1.783,1.783,0,0,1-1.671-1.592,5.789,5.789,0,0,1,.361-2.483,33.994,33.994,0,0,0-2.395-24.55,13.1,13.1,0,0,0-3.616-4.705,5.981,5.981,0,0,0-5.641-1c-3.194,1.283-3.91,5.521-3.412,8.927.512,3.5,1.777,6.857,2.4,10.342s.521,7.321-1.47,10.249c-.454-2.485-3.72-3.708-6.013-2.647-5.5,2.543-4.1,13.754-3.5,18.642,1.322,10.868,6,22.056,15.664,27.945,1.215.74,6.947-4.676,7.794-5.538a34.349,34.349,0,0,0,9.136-19.33C-521.5,978.012-521.222,969.72-522.681,965.34Z" transform="translate(-68.886 -55.531)"/><path class="a" d="M-536.921,998.172l-.824-11.108,8.075-11.573-8.21,9.755-.754-10.17-.7,17.3-6.382-10.835,6.263,13.759-1.221,30.167a9.017,9.017,0,0,0,5.747-.442l-1.8-24.324,6.727-9.685Z" transform="translate(-69.855 -60.193)"/><path class="c" d="M-211.726,927.029c-.8-2.408-2.131-3.633-4.282-1.92-.831.661-1.343,1.9-2.4,1.971a1.784,1.784,0,0,1-1.671-1.592,5.778,5.778,0,0,1,.361-2.484,34,34,0,0,0-2.395-24.55,13.118,13.118,0,0,0-3.616-4.7,5.982,5.982,0,0,0-5.641-1c-3.194,1.284-3.91,5.521-3.412,8.927.512,3.5,1.776,6.857,2.4,10.342s.52,7.322-1.47,10.25c-.455-2.486-3.721-3.708-6.014-2.647-5.5,2.542-4.1,13.754-3.5,18.641,1.322,10.869,6,22.056,15.664,27.945,1.215.741,6.947-4.676,7.795-5.537a34.341,34.341,0,0,0,9.135-19.33C-210.55,939.7-210.268,931.408-211.726,927.029Z" transform="translate(-101.57 -51.504)"/><path class="a" d="M-225.967,959.861l-.824-11.109,8.076-11.572-8.211,9.755-.754-10.171-.7,17.3-6.382-10.836,6.264,13.76-1.222,30.167a9.014,9.014,0,0,0,5.747-.443l-1.8-24.324,6.727-9.685Z" transform="translate(-102.539 -56.166)"/><path class="b" d="M-877.973,983.045h55.3s19.618-10.485,14.036-30.272c-4-14.194-15.558-15.044-15.558-15.044s3.152-8.961,5.073-17.257c3.72-16.066-8.287-36.021-30.1-31.962-14.724,2.739-18.6,14.036-19.955,19.109,0,0-11.728-14.267-24.86-1.522-5.75,5.581-7.678,20.623,5.174,25.019,0,0-9.4-.836-15.828,16.413s-2.03,35.515-2.03,35.515Z" transform="translate(-31.757 -51.038)"/><g transform="translate(-1187.069 895.574)"><path class="f" d="M-1008.725,986.875v22.637l-175.613,33.006V986.875l87.806-33.376Z" transform="translate(1184.338 -953.499)"/><rect class="b" width="17.232" height="17.232" transform="translate(97.321 56.013) rotate(-180)"/><rect class="b" width="17.232" height="17.232" transform="translate(77.841 56.013) rotate(-180)"/></g><path class="s" d="M-1210.325,1037.332s9.344,7.3,72.289-7.975L-979.587,990.9a548.4,548.4,0,0,1,207.937-3.777l134.337,23.421a548.4,548.4,0,0,0,225.993-7.925l2.4-.593a548.4,548.4,0,0,1,269.79,1.57h0a548.4,548.4,0,0,0,208.661,13.071s77.96-10.68,117.194-15.217,83.2,7.723,83.2,7.723l1.578,144.043h-1481.83Z" transform="translate(0 -60.603)"/><path class="p" d="M-1210.325,1037.332c18.265,7.1,112.343-17.4,112.343-17.4l118.4-29.025a548.4,548.4,0,0,1,207.937-3.777l134.337,23.421a548.4,548.4,0,0,0,225.993-7.925l2.4-.593a548.4,548.4,0,0,1,269.79,1.57h0a548.4,548.4,0,0,0,208.661,13.071l86.754-11.637s51.072-11.916,113.644,4.143" transform="translate(0 -60.603)"/></g></svg>