<?xml version="1.0" encoding="utf-8"?>
<!-- Generator: Adobe Illustrator 23.0.4, SVG Export Plug-In . SVG Version: 6.00 Build 0)  -->
<svg version="1.1" id="Layer_1" xmlns="http://www.w3.org/2000/svg" xmlns:xlink="http://www.w3.org/1999/xlink" x="0px" y="0px"
	 viewBox="0 0 38 38" style="enable-background:new 0 0 38 38;" xml:space="preserve">
<style type="text/css">
	.st0{fill-rule:evenodd;clip-rule:evenodd;}
	.st1{fill-rule:evenodd;clip-rule:evenodd;fill:#F7B500;}
	.st2{enable-background:new    ;}
	.st3{fill:#32313F;}
</style>
<g id="Page-1">
	<g id="homepage-v4" transform="translate(-809.000000, -1819.000000)">
		<g id="FEATURES" transform="translate(39.000000, 806.000000)">
			<g id="Express-Processing" transform="translate(603.000000, 553.000000)">
				<g id="rate-star4" transform="translate(170.000000, 462.000000)">
					<g id="Star">
						<g>
							<polygon id="path-1" class="st0" points="16,25.5 6.6,30.8 8.4,19.6 0.8,11.7 11.3,10.1 16,0 20.7,10.1 31.2,11.7 23.6,19.6 
								25.4,30.8 							"/>
						</g>
						<g>
							<polygon class="st1" points="16,25.5 6.6,30.8 8.4,19.6 0.8,11.7 11.3,10.1 16,0 20.7,10.1 31.2,11.7 23.6,19.6 25.4,30.8 
															"/>
						</g>
					</g>
				</g>
			</g>
		</g>
	</g>
</g>
<g id="Page-1_1_">
	<g id="homepage-v4_1_" transform="translate(-824.000000, -1833.000000)">
		<g id="FEATURES_1_" transform="translate(39.000000, 806.000000)">
			<g id="Express-Processing_1_" transform="translate(603.000000, 553.000000)">
				<g id="rate-star4_1_" transform="translate(170.000000, 462.000000)">
					<g class="st2">
						<path class="st3" d="M30.8,29.8c1.1,0,1.9,0.3,2.5,0.8c0.6,0.5,0.9,1.2,0.9,2.1c0,1-0.3,1.8-1,2.4c-0.7,0.6-1.6,0.9-2.7,0.9
							c-1.1,0-2-0.2-2.6-0.5v-1.1c0.3,0.2,0.7,0.4,1.2,0.5c0.5,0.1,0.9,0.2,1.4,0.2c0.8,0,1.4-0.2,1.9-0.6c0.4-0.4,0.7-0.9,0.7-1.6
							c0-1.4-0.9-2.1-2.6-2.1c-0.4,0-1,0.1-1.7,0.2l-0.6-0.4l0.4-4.7h5v1h-4l-0.3,3C29.7,29.9,30.2,29.8,30.8,29.8z"/>
					</g>
				</g>
			</g>
		</g>
	</g>
</g>
</svg>
