<svg xmlns="http://www.w3.org/2000/svg" viewBox="0 0 132.93 124.05"><title>Artboard 14</title><path d="M89.58,40.17a11.25,11.25,0,0,1,7.7,4.92c5.59,7.79,6.85,16.45,5.6,25.68a22.09,22.09,0,0,0,.08,5.8c.3,2.44,1.36,4.76,1.09,7.27-.06.55,0,1.13-.58,1.47-1-.41-1.17-1.39-1.61-2.2a1.15,1.15,0,0,1,.06-.37c.32-.54-.13-.88-.33-1.29a15.12,15.12,0,0,0-5.12-6.06,3.18,3.18,0,0,1-1.14-1.65,32,32,0,0,1-2-9.92c0-3.36.18-6.7.47-10,.06-.76.35-2-.33-2.19-.86-.2-.91,1.09-1.21,1.76-1,2.41-2.23,4.77-3.19,7.23a7.46,7.46,0,0,0-.6,3.15c.15,2.63-.38,5.26.1,7.88a1.65,1.65,0,0,1-.61,1.49c-1,1-2,2-2.94,3a3.12,3.12,0,0,1-1.36.71c-1.83.69-3.79,1-5.62,1.66a7,7,0,0,0-2.9,1.63c-.16.18-.37.32-.59,0-.4-2.24-.39-4.51-.68-6.76a39.25,39.25,0,0,0-.75-5.28,1.57,1.57,0,0,0-1-.22c-3.35,0-6.68-.35-10-.22a3.49,3.49,0,0,1-1.75-.26c-1.1-.85-1.62-2.15-2.48-3.19-1.13-1.35-2.09-2.83-3.15-4.23-.43-.58-.87-1.18-.48-2,.57-.31.68.25.84.53a57.41,57.41,0,0,0,5.39,6.93c.54.66.91.64,1.26-.11,1-.14,1.54.65,2.31,1,.59.25,1.09.42,1.59-.11.54-.26,1.07,0,1.61,0s1.36.17,1.68-.65a.72.72,0,0,0-.18-.44c-2.33-2.32-2.92-5.31-3.17-8.41A1.6,1.6,0,0,1,66,55.24a10.52,10.52,0,0,1,2.66.57c.54.13.79.62,1,1.09a12.91,12.91,0,0,1,1.19,4.22c.12.9.38,1.78.45,2.69a4.84,4.84,0,0,1-.22,1.07c-.16.6.09.88.69.92a4.48,4.48,0,0,1,1.26.15,4.44,4.44,0,0,0,4.26-.46c.3-.21.58-.59,1-.29a41.54,41.54,0,0,1,.88,9,8.44,8.44,0,0,0,.58-3.34,18.85,18.85,0,0,1,2.31-9.43,9.86,9.86,0,0,0,1.36-7,6.4,6.4,0,0,1,.19-3A38.23,38.23,0,0,0,84.77,46a4.69,4.69,0,0,1,1.58-3,9.69,9.69,0,0,0,1.92-2,2.54,2.54,0,0,1,.82-.71A.87.87,0,0,1,89.58,40.17Z" fill="#ae71df"/><path d="M102,83.16a13.56,13.56,0,0,1,1.46,2.15c1,2.89-.16,5.56-.77,8.31a69.48,69.48,0,0,1-6.8,18.16,10.16,10.16,0,0,1-2.74,3.56c-.36-.47,0-.82.19-1.21,1.39-3.62,3.19-7.06,4.73-10.62a18.62,18.62,0,0,0,1.61-5.11,12.64,12.64,0,0,0-2.89,1.16c-1,.48-1.36.21-1.23-.86a8.29,8.29,0,0,0,0-3.1c-.24-.92-.6-1.09-1.36-.52-6.25,4.66-13.5,7.59-20.06,11.7a3.35,3.35,0,0,1-3,.32c-3.84-1.15-7.7-2.17-11.59-3.12a4.66,4.66,0,0,1-2.7-1.15c-.14-.79.39-1.19,1-1.5,2.47-1.38,5-2.6,7.61-3.74,1.38-.62,2.8-1.15,4.16-1.82A11.19,11.19,0,0,1,75,94.51c.58,0,.83-.33.73-.92A1.53,1.53,0,0,1,76,92.16C77.62,91,79.42,90,80.56,88.24a44.67,44.67,0,0,1,8.93-5.41,14.72,14.72,0,0,0,1.37-.7,15.31,15.31,0,0,1,7-1.24,4,4,0,0,1,1.83.47c.49.29,1,.55,1.52.81a1.92,1.92,0,0,1,.28.18A2,2,0,0,1,102,83.16Z" fill="#494858"/><path d="M60,67.07a5.51,5.51,0,0,0,1.89.22c3.55-.15,7.09.3,10.64.24a1.6,1.6,0,0,1,.91.25c.26.59-.18.58-.53.6a142.16,142.16,0,0,1-16.77,0c-2-.11-3.91-.19-5.86-.25-4.55-.13-9.1-.36-13.63-.74a12.13,12.13,0,0,0-2.62.22c3.27.13,6.63.4,10,.69,1.94.16,3.9.15,5.86.28,6.25.42,12.51.93,18.79.76.41,0,1-.08,1.11.43s-.45.72-.81,1c-4.28,2.73-8.53,5.5-12.83,8.21-5.54,3.5-11,7.06-16.43,10.81-.88.61-1.84,1.11-2.7,1.78-.44.34-.87.39-1.19-.19A21.13,21.13,0,0,1,35,87.28c-.67-3-1.31-6-1.87-9a1.35,1.35,0,0,1,0-.82c.23-1.64-.39-3.17-.55-4.77s-.58-3.35-.63-5.06c0-.93.3-1.3,1.24-1.25,3.85.21,7.71.35,11.57.24a60.32,60.32,0,0,1,6.45-.1,64.73,64.73,0,0,0,7.37.21A2.54,2.54,0,0,1,60,67.07Z" fill="#e6d6f3"/><path d="M56.9,102.83c5.06,1.4,10.11,2.79,15.16,4.22a1.55,1.55,0,0,0,1.25-.19c3.54-2,7.12-3.93,10.61-6,1.83-1.08,3.72-2,5.62-2.93a27.87,27.87,0,0,0,4.6-3.18c1.07-.8,1.35-.65,1.69.62a6.72,6.72,0,0,1,0,3.42c-.07.25-.15.59.13.77s.41-.14.62-.24l2.71-1.25c.21-.09.45-.31.66-.14s.11.5.06.78a28,28,0,0,1-2.59,7c-1.51,3.16-2.9,6.37-4.26,9.59a10.15,10.15,0,0,1-7.93,3.32,2,2,0,0,1-1-.31c-.61-.28-.46-.86-.5-1.36a10,10,0,0,0-1.52-5.09c-1.07-1.59-1.61-2-4.56-2.89a19.55,19.55,0,0,1,2.86,3.6,10.44,10.44,0,0,1,.2,10A2.59,2.59,0,0,1,79,124c-.72,0-1.49.37-2.12-.3.21-.46.64-.4,1-.42a2.06,2.06,0,0,0,1.94-1.36c1.2-3.08,1.3-6.13-.54-9A15.83,15.83,0,0,0,76,109.12a1.41,1.41,0,0,0-1.15-.17c-2.47.36-4.88,1-7.3,1.62a11.48,11.48,0,0,0-2.52,1c-1.38,0-2.24-1-3.05-1.85-1.52-1.61-3.1-3.16-4.52-4.87a3.65,3.65,0,0,1-.93-1.49.6.6,0,0,1,.21-.48Z" fill="#323140"/><path d="M69.15,65.61c0,.88-.63,1-1.24,1-.78,0-1.56-.14-2.34-.21a1,1,0,0,1-.93,0,8.72,8.72,0,0,1-4.09-2.8,23.69,23.69,0,0,1-4.12-12.67c0-.2,0-.4,0-.6a11,11,0,0,1-.3-1.38c-.09-.14-.26,0-.12,0s.06,0,.09.08a17.49,17.49,0,0,1,.58,4.48,19.26,19.26,0,0,0,4.2,10.5,4.21,4.21,0,0,1,.8,1.45c0,.39.2.86-.27,1.05s-.77-.24-1-.57a57.09,57.09,0,0,1-6.08-7.93c-1-.94-1-2.23-1-3.44-.08-2.3-.06-4.62,0-6.93.09-1-.16-1.89-.15-2.84-1.41-2.73-2.81-5.47-3.22-8.57-.21-1.62-.37-3.24-.55-4.86a30.38,30.38,0,0,0,0-4.77c.36-6.45,3.56-13.68,10.58-16.27.63-.23,1.2-.45,1.79,0,.3.24.51,0,.74-.1a7,7,0,0,1,5.11,0c.73.3,1.51.57,1.79,1.44a.48.48,0,0,1-.13.34.73.73,0,0,1-.68.12,3.52,3.52,0,0,0-3.63.7,1,1,0,0,1,.52-.33c.52-.11,1.16-.24,1.35.38s-.5.8-1,.94a10.21,10.21,0,0,1-2,.52c-.36.05-.75,0-1-.33a.74.74,0,0,1,.29-1.08c-1.57.07-1.8.3-1.87,1.88a2.26,2.26,0,0,1-1.43,2,2.83,2.83,0,0,0-1.38.89c1,.31,1.89.61,2.21,1.72.1.37.55.17.86.17a12.79,12.79,0,0,1,8.11,3.09c.29.22.72.58.41,1s-.75.12-1.08-.08a15.55,15.55,0,0,0-7.35-2.32c-1.26-.09-1.42,0-1.15,1.25a5,5,0,0,0,.46,1.24,11.67,11.67,0,0,0,2.21,2.23,21.67,21.67,0,0,0,8,4.29c.31.09.62.15.91.26s.8.3.81.77-.5.53-.86.67a2,2,0,0,1-.35.06A24.16,24.16,0,0,1,61.7,27a7.65,7.65,0,0,1-2.58-2.75,11.72,11.72,0,0,1-.75-2c-.12.36-.52.65-.76,1.06a7.1,7.1,0,0,1-.43.57,6.52,6.52,0,0,0-1.52,2.95c-1.22,4.65-1.4,9.23,1,13.62a12.46,12.46,0,0,0,2.52,3.33c3.37,3,4.78,6.9,5.19,11.26.12,1.23.24,2.46.31,3.7a11,11,0,0,0,2.65,5.93C67.81,65.29,68.61,65.19,69.15,65.61Z" fill="#d1a26b"/><path d="M33.11,77.41c.82,2,.93,4.07,1.41,6.1.61,2.57,1,5.19,1.55,7.78.06.48.43.84.53,1.31a1,1,0,0,0,1.32.87,2.34,2.34,0,0,1,.95,0,19.6,19.6,0,0,0,4.84-.07,4,4,0,0,1,2.6.21c.14.24,0,.38-.22.38a11.64,11.64,0,0,1-1.67,0,4.37,4.37,0,0,0,1.35,0c1.53-.47,2.58.29,3.61,1.24,1.91,1.76,4,3.35,5.95,5,1.46,1.23,1.36,1.91-.3,2.82a16.84,16.84,0,0,0-5.59,4.61c-.82,1.11-1,1.14-2.26.36a54.06,54.06,0,0,1-5.93-4.85c-1.48-1.29-3.09-2.39-4.56-3.69A106.94,106.94,0,0,1,25.62,88.83a10.45,10.45,0,0,1-2.5-10,3.68,3.68,0,0,1,1.14-1.93A8.34,8.34,0,0,1,32.4,77Z" fill="#494858"/><path d="M24.26,76.88a9.48,9.48,0,0,0-.94,7,10.86,10.86,0,0,0,2.41,4.62A103.14,103.14,0,0,0,37,99.38c3.27,2.72,6.55,5.42,9.84,8.13.21.17.47.29.69.47.71.6,1.11.41,1.64-.36A15.87,15.87,0,0,1,55,102.81c1.45-.75,1.51-1.14.26-2.19-2.4-2-4.82-4-7.21-6.06a1.66,1.66,0,0,0-1.21-.38,8.65,8.65,0,0,1-2.62-.26h2.16a2.35,2.35,0,0,1,1.71-.36c5.39,0,10.77.21,16.15.44,3.11.14,6.22-.09,9.33.28.54.06,1.13-.07,1.56.43-2.43.08-4.56,1.07-6.77,2-3.06,1.23-5.94,2.84-9,4.11a3.85,3.85,0,0,0-2.49,2h0c-.3.1-.6.2-.69.57a1.67,1.67,0,0,1-.28.18A15.87,15.87,0,0,0,50,108.09a2.72,2.72,0,0,0-.65,1.26,2.85,2.85,0,0,1-2,2.45c-.88.19-1.5-.42-2.19-.75a16.65,16.65,0,0,1-2-1.12c-.26-.25-.39-.63-.79-.73a1.07,1.07,0,0,1-.5-.33,1.66,1.66,0,0,0-.81-.62c-1.05-1.09-2.39-1.88-3.37-3,0-.52-.45-.73-.75-1q-5.67-5.33-11.37-10.62a22.63,22.63,0,0,1-4-5.18c-2.08-3.49-.38-8.92,1.89-11.27C23.74,76.86,24,76.9,24.26,76.88Z" fill="#32313f"/><path d="M37.73,105.2a14.42,14.42,0,0,1,3.56,2.9,2.93,2.93,0,0,1,.78.71l.38.21c.39.11.52.51.81.73,1.43.5,2.58,1.57,4.05,2,1.1,1.2.91,2.58.54,4-.08.28-.31.42-.51.6a3.48,3.48,0,0,1-2.91,1.11c-3.57-.18-7.14-.39-10.69-.75a39.62,39.62,0,0,0-4.88.11,40.64,40.64,0,0,1-4.28-.27c-3.63-2.77-3.18-6.31-1.54-9.23a9.79,9.79,0,0,1,5.55-4.64c2.81.17,5.15,1.89,7.84,2.46A3.79,3.79,0,0,0,37.73,105.2Z" fill="#ae71df"/><path d="M64.83,111.51a3.2,3.2,0,0,1,1.71-1,65,65,0,0,1,8.38-1.86c.39.17.84,0,1.22.17a15.34,15.34,0,0,1,3.76,4.44,9.77,9.77,0,0,1,.14,8.93,2.13,2.13,0,0,1-2.51,1.35,1.9,1.9,0,0,0-.68.13,6.16,6.16,0,0,0-4.52-1.43,61.09,61.09,0,0,1-7.16,0,8.64,8.64,0,0,1-3.3-1,2.72,2.72,0,0,1-1.63-2.17,14.56,14.56,0,0,0-.7-2.15,1.58,1.58,0,0,1-.29-.71,7.13,7.13,0,0,1,.31-3c.65-1.62,1.48-2.06,3.15-1.53A2,2,0,0,0,64.83,111.51Z" fill="#ae71df"/><path d="M53.05,44.72a3.71,3.71,0,0,1,.46,2.66c-1.41,1.8-1.55,4-1.77,6.11a19.9,19.9,0,0,0,0,3c0,.33.2.83-.24.94s-.68-.36-.84-.72a9.27,9.27,0,0,1-.94-5.33,4.45,4.45,0,0,0,.11-.57,11.56,11.56,0,0,0,1.07,8.36c1.21,2.38.86,4.79.48,7.24a1,1,0,0,1-.24.41c-2.14-.07-4.29.25-6.41-.24A5.69,5.69,0,0,1,45,63.62c.55-2,1-4.11,1.71-6.09A7.19,7.19,0,0,0,47,55.17q0-2.2.21-4.41c.25-2.9,2-4.47,4.46-5.54C52.15,45,52.6,44.89,53.05,44.72Z" fill="#ae71df"/><path d="M89.58,40.17l-.25.27a2,2,0,0,1-1.72,0A2.53,2.53,0,0,0,86,40.38a3.52,3.52,0,0,1-1-.26,7.5,7.5,0,0,1-3.6-5.77c-.31-1.85-.88-3.64-1.09-5.51a2.8,2.8,0,0,0-1-1.57,22.12,22.12,0,0,0-2.12-1.75A7.59,7.59,0,0,1,74,20.29a8,8,0,0,0-1.49-3.72,32,32,0,0,0-2.87-3.69c-.26-.27-.61-.54-.47-1h0c.38-.62.8-.36,1.19,0A8.42,8.42,0,0,1,72,13.57c1.43,2.2,3,4.32,3.52,7a6.45,6.45,0,0,0,.9,2.21c.25.39.31,1,1.17.56.61-.3,1.12.6,1.7.93-1-.77-1.88-1.8-3-2.53a.66.66,0,0,1-.31-.83c.19-.43.57-.37.93-.3A5.21,5.21,0,0,1,79,21.93a13.71,13.71,0,0,1,3.3,6.87A17.91,17.91,0,0,0,83,31.3a7.2,7.2,0,0,0,2.43,4.34l.49.63a1.9,1.9,0,0,0,1,1,1,1,0,0,1,.48.64,2.52,2.52,0,0,0,1.24,1.27C89,39.49,89.44,39.68,89.58,40.17Z" fill="#d1a26b"/><path d="M59.51,116.25l0,.7q-2.28-1.31-4.54-2.63a3.25,3.25,0,0,0-2.52.14A25.79,25.79,0,0,1,49,115.71c-.47.13-1,.43-1.46.07a6.19,6.19,0,0,0-.26-4.07c.08-.17.08-.45.33-.44a1.3,1.3,0,0,0,1.26-1.2c.32-2.58,2.32-3.77,4.09-5.12a6.22,6.22,0,0,1,3-1.63c.34.59-.18.87-.46,1.21a48,48,0,0,0-3.65,4.88c-.77,1.25-.71,1.38.51,2.11,2.15,1.29,4.16,2.82,6.37,4A2.48,2.48,0,0,1,59.51,116.25Z" fill="#c69f9a"/><path d="M79,124c2.35-1.65,2.52-4.14,2.53-6.67,0-3.22-1.74-5.59-3.85-7.78-.25-.25-.48-.52-.76-.83a7,7,0,0,1,6.61,5.11,44.3,44.3,0,0,1,.72,4.57,2.37,2.37,0,0,0-.45,1.44C83.32,122.64,81.66,124.07,79,124Z" fill="#ae71df"/><path d="M79,21.93c-.82,0-1.23-.89-2-1-.29,0-.62-.36-.82.08s.21.47.43.62a11,11,0,0,1,2.94,3.07A4.37,4.37,0,0,0,78.4,24c-.31-.08-.75-1.21-1.12,0-.07.26-.51-.12-.7-.39a14.42,14.42,0,0,1-1.69-4.05A18.63,18.63,0,0,0,70.1,12a.67.67,0,0,0-.95-.1c-.86-1.57-2.45-1.71-4-1.88a14.18,14.18,0,0,0-2.82.19,6,6,0,0,1,4.22-.82,11.2,11.2,0,0,1,8.62,6.1C76.44,17.64,77.61,19.85,79,21.93Z" fill="#bd7767"/><path d="M23.1,115.58a5.27,5.27,0,0,1-2.18-8.87A13.55,13.55,0,0,1,26.4,103a1.42,1.42,0,0,1,.81-.13c-.33.78-1.16,1-1.74,1.54a9.58,9.58,0,0,0-3.6,7.18,5.83,5.83,0,0,0,.63,2.51C22.72,114.58,23.22,115,23.1,115.58Z" fill="#ae71df"/><path d="M10.49,45.19c12.18,0,24.35-.5,36.53-.32C46,45.35,13.41,45.72,10.49,45.19Z" fill="#04cf77"/><path d="M10.87,43c11.89,0,23.78-.39,35.66-.31C45.22,43.28,13.6,43.61,10.87,43Z" fill="#04cf77"/><path d="M11.37,47.89l35.49-.78c-.2.7-.63.49-.92.5-4.35.22-8.7.22-13,.28-6.75.09-13.49.3-20.24.45a2.53,2.53,0,0,1-1.28-.11Z" fill="#04cf77"/><path d="M46.27,50l-34.65.53c.15-.69.57-.54.9-.54,7.23-.09,14.46-.16,21.69-.27,3.59-.06,7.18-.32,10.78-.21a2.3,2.3,0,0,1,1.27.13Z" fill="#04cf77"/><path d="M87.25,20.76,118.14,20l0,.51-30.92.81Z" fill="#05cf77"/><path d="M87,14.72l30.92-.64a2.3,2.3,0,0,1-1.89.62c-2.91,0-5.83-.08-8.74.08-6.35.33-12.7.05-19,.44A1.12,1.12,0,0,1,87,14.72Z" fill="#05cf77"/><path d="M117.31,17.54l-30.22.57v-.44c10.08-.26,20.15-.54,30.24-.55Z" fill="#04cf77"/><path d="M39.06,38.77H15.31C16.22,38.1,38,38.08,39.06,38.77Z" fill="#04cf77"/><path d="M112.21,80A59.13,59.13,0,0,1,124,68.55c-2.55,2.31-5,4.7-7.41,7.21a21.5,21.5,0,0,0-3.8,4.59c-.24.47-.51.55-.89.08a12.09,12.09,0,0,0-2-2.51.22.22,0,0,1,0-.39c.17-.13.28,0,.41.08A11.24,11.24,0,0,1,112.21,80Z" fill="#06cf78"/><path d="M118.3,23.78c-5.93,1.12-11.92.59-17.88.74C106.36,23.86,112.34,24.1,118.3,23.78Z" fill="#0bd07b"/><path d="M23.1,115.58c-3.05-4-.89-8.55,1.92-11.11a22,22,0,0,1,2.19-1.61c.46-.09.86-.47,1.38-.25-.81.9-2,1.16-2.93,2a10,10,0,0,0-3.49,6,5.22,5.22,0,0,0,1.69,4.84,2.48,2.48,0,0,1,.72,1C23.8,116.65,23.65,115.79,23.1,115.58Z" fill="#343242"/><path d="M47.57,115.78A28.12,28.12,0,0,0,52.76,114a1.72,1.72,0,0,1,2.24.31c-1.5.39-2.86,1.17-4.37,1.54a12.22,12.22,0,0,1-3.29.42C47.42,116.11,47.49,115.94,47.57,115.78Z" fill="#e8cac4"/><path d="M26.24,34.47H38.5C37.88,35.07,27.4,35.09,26.24,34.47Z" fill="#07cf78"/><path d="M10.92,40.54c-.29-.47.11-.7.29-1,.37-.53.83-1,0-1.52a.3.3,0,0,1-.05-.5c.36-.32.37.11.47.24.37.47.64.43,1-.06a4.88,4.88,0,0,1,1.27-1.63c.11.77-.44,1.2-.78,1.66s-.49.93.14,1.4a2.35,2.35,0,0,1,1.17,1.89c-.69-.27-.88-.89-1.24-1.31-.71-.86-1.17-.65-1.65.16C11.38,40.14,11.32,40.45,10.92,40.54Z" fill="#08cf79"/><path d="M95,23.25c1.4,1.87,2.41.66,3.48-.06,0,.06,0,.14,0,.17-.42.47-1.08.89-1.19,1.42s1,.62,1.14,1.71c-1.15-1.11-2.2-1.57-3.25.06C96.35,25.34,96.2,24.35,95,23.25Z" fill="#05cf77"/><path d="M85.47,35.64c-1.29-.53-2.75-3.14-2.43-4.34A22.53,22.53,0,0,0,85.47,35.64Z" fill="#c17f6c"/><path d="M49.27,26.52a12.35,12.35,0,0,1,0,4.77C49.28,29.7,49.27,28.11,49.27,26.52Z" fill="#c88f6d"/><path d="M88.64,39.21a1.32,1.32,0,0,1-1.24-1.27Z" fill="#c17e69"/><path d="M86.92,37.3c-.7,0-.9-.45-1-1Z" fill="#c4866d"/><path d="M75.14,94.71C65.56,94.33,56,94,46.38,93.92a7,7,0,0,0-2.7-.18,32,32,0,0,1-5,0c-.81-.08-1.87.62-2.3-.64a3.39,3.39,0,0,1-.32-1.81c.18.15.21.48.62.19,10.47-7.4,21.42-14.06,32.16-21,.27-.17.53-.36.83-.56-.27-.31-.6-.18-.88-.18-4.15,0-8.31.12-12.45-.27-5-.48-10.09-.58-15.13-1-2.78-.21-5.55-.49-8.36-.43,0-.62.44-.67.84-.74,2.55-.42,5.08,0,7.61.18,1.79.14,3.58.14,5.38.26,3,.2,6.06.09,9.08.32,4.52.35,9,.08,13.54.22,1.35,0,2.67-.48,4-.2,0,0,.09-.2.13-.3.52.9.3,1.94.41,2.89a80.88,80.88,0,0,1,.8,9.59,1.75,1.75,0,0,1,.52,1.11c.16,3.22.6,6.41.94,9.6a3.77,3.77,0,0,1,0,1.3c-.41.54,0,1.08,0,1.62S76,95,75.14,94.71Z" fill="#a2a2c0"/><path d="M69.15,11.86a39.36,39.36,0,0,1,3.75,4.77,7.61,7.61,0,0,1,1.34,3.49,8,8,0,0,0,4,5.93,5.94,5.94,0,0,1,2.69,4.74A47.66,47.66,0,0,0,82,35.89a6.84,6.84,0,0,0,3,4,9.12,9.12,0,0,1-2.94,1.3c-.5-.32-.52-.88-.68-1.36a9.09,9.09,0,0,0-1.69-3.53,32.79,32.79,0,0,1,1.67,6.31A8.8,8.8,0,0,1,81,46.88c-.13.34-.3.79-.69.72s-.44-.6-.41-1c.12-1.54.6-3.06.2-4.63a11,11,0,0,0-.41-1.46c.82,2.44-.31,4.73-.54,7.09a10.45,10.45,0,0,0,1.15,6.48c1.09,1.89.62,3.69-.18,5.5-.11.25-.27.55-.6.49s-.33-.34-.36-.57a30.81,30.81,0,0,0-2.06-6.19c.41,1.4,1.14,2.85,1.6,4.4a6,6,0,0,1-.7,4.93,11.14,11.14,0,0,1-1.48,2.12,5.78,5.78,0,0,0,2.56-2.87,4.7,4.7,0,0,1,2.68-2.58c.4.29.2.65.06,1a17.31,17.31,0,0,1-3.59,4.9,4.84,4.84,0,0,1-4.11,1.42A1.74,1.74,0,0,1,73,66.11c.16-.45.59-.5.94-.67a5.62,5.62,0,0,0,2.55-2.31,6.93,6.93,0,0,1-2,1.78c-.29.16-.65.29-.89,0s0-.63.28-.81a11.58,11.58,0,0,0,1.33-1.38s0,0-.09.09c-.46.39-.8,1.3-1.5.88s-.09-1.16.09-1.73c1-2.84.55-5.68,0-8.52-.3-1.61-.77-3.18-1.09-4.8a10.13,10.13,0,0,1,.75-6.08,13.2,13.2,0,0,0,.94-5.69,11.1,11.1,0,0,1-1.14,5.22c-1.78,3.14-1.46,6.39-.77,9.67a42,42,0,0,1,1.06,5.89,10.4,10.4,0,0,1-.23,2.5c0,.25-.14.58-.55.4a2.17,2.17,0,0,1-.25-1.49,14.45,14.45,0,0,0-1-5.71,26.6,26.6,0,0,1-1.28-4.45,11.66,11.66,0,0,0,0-2.77,58,58,0,0,1,1.34-5.69,20,20,0,0,0,.32-8.63c.07-.46.94,0,.78-.65-.12-.43-.66-.43-1-.51a22.23,22.23,0,0,1-8.23-4.08,3,3,0,0,1-.46-.53c.64-.38,1.06.15,1.5.41a36.09,36.09,0,0,0,6,2.89c1.2.42,1.28.34,1.24-.93a9.41,9.41,0,0,0-.13-1.19c-.1-.76-.52-1-1.28-1.14-2-.25-4.06-.37-6.06-.76-1.23-.24-2.55-.37-3.46-1.44a2.06,2.06,0,0,1-.63-1.26C59.68,21,60,20.8,61.66,20.9a16.09,16.09,0,0,1,7.9,2.66c.08.05.22,0,.57,0a12.08,12.08,0,0,0-5.56-3.25c-1.21-.34-2.42-.84-3.72-.32-.26.1-.69,0-.67-.32.13-1.86-1.3-1.42-2.38-1.64a2.44,2.44,0,0,1,1.56-1.43,1.88,1.88,0,0,0,1.49-2.39,1.69,1.69,0,0,1,1.81-1.71c.39,0,.78.09,1.19.14-.06.3-.36.22-.53.33s-.49.42-.35.78.48.31.73.25c.84-.21,1.68-.47,2.52-.72.19,0,.4-.16.35-.39s-.26-.29-.47-.3H64.91C66,10.66,67.65,11.66,69.15,11.86Z" fill="#bd7767"/><path d="M74.91,81.22a1.55,1.55,0,0,1-.23-1c.46-1.2,1.62-1.5,2.63-1.85,2-.74,4.16-1.35,6.26-1.93a2.6,2.6,0,0,0,1.46-.9,8.3,8.3,0,0,1,1.78-1.77c1.49-1,1.33-2.34,1.29-3.84a36.36,36.36,0,0,1,.28-8.41c.43-2.07,1.6-3.9,2.41-5.85.5-1.21,1-2.42,1.58-3.61.26-.54.42-1.44,1.19-1.26.59.14.51,1,.55,1.57a35.54,35.54,0,0,1-.3,5.36,34.61,34.61,0,0,0,.85,12.78c.16.53.22,1.1.42,1.61a6.48,6.48,0,0,0,2.27,3.48,11.25,11.25,0,0,1,4.3,5.43,1.12,1.12,0,0,0,.45.53c.62.47.54.9-.07,1.31-.27-.12-.47-.36-.74-.47h0c-.36-.38-.93-.43-1.29-.81,0-.7.39-.61.74-.55a26.17,26.17,0,0,1-3.26-2.47,2.73,2.73,0,0,0-2.57-.52c-2.31.63-4.6,1.33-6.85,2.15-.29.11-.9.12-.62.63s0,1.45,1,1.52c.77.06,1.56-.47,2.31.07a59.82,59.82,0,0,0-10.08,6,29.7,29.7,0,0,0-3.57-5.26C76.45,82.43,75.59,81.94,74.91,81.22Z" fill="#895fab"/><path d="M69.15,65.61a2.47,2.47,0,0,1-2.49-1.3,13,13,0,0,1-2.38-7c-.18-3.63-.66-7.29-2.82-10.46-1.11-1.63-2.68-2.82-3.86-4.39a16.05,16.05,0,0,1-2.92-12.31,13.85,13.85,0,0,1,1.71-5.77,2.1,2.1,0,0,1,.74-.77.82.82,0,0,1,.08.91,11.41,11.41,0,0,0-.2,5.8,14.4,14.4,0,0,1,.21,3.34,6.05,6.05,0,0,0,1,3.52,17.83,17.83,0,0,0,5.2,5.73c.42.27.93.5,1,1.09,0,1.68.43,3.31.58,5,.24,2.78.27,5.58.54,8.36a14.81,14.81,0,0,0,1.79,6.26c.4.68.82,1.39,1.72,1.54Z" fill="#bd7767"/><path d="M51.15,66.81a8.53,8.53,0,0,1,.24-2.72c.5-2.24-.48-4.14-1.31-6.05a11.79,11.79,0,0,1-.1-8.61c0,2.73-.28,5.51,1.58,8.07a20.15,20.15,0,0,1,.61-8.45c.2-.68.41-1.51,1.34-1.67,0,1.88.05,3.75,0,5.63a14.37,14.37,0,0,0,.74,4.92A2.58,2.58,0,0,0,55,60c1.35,1.77,2.7,3.53,4,5.32a17,17,0,0,1,1,1.76A71.14,71.14,0,0,1,51.15,66.81Z" fill="#895fab"/><path d="M78.26,65.17c.59-1.41,1.87-2.34,2.6-3.66a8.22,8.22,0,0,0,1-2.14.58.58,0,0,1,0-.57,6.78,6.78,0,0,0,.47-5.38,2.58,2.58,0,0,0,0-.48c-1.19-3.48,0-6.67,1.3-9.79.62-1.42,1.52-2.69,3.47-2.12.39.11.77-.15,1.16-.22a.46.46,0,0,1,.35.12,2.81,2.81,0,0,1-1.08,1.51,5.31,5.31,0,0,0-2.49,4,25.16,25.16,0,0,1-1,5.14,6.23,6.23,0,0,0-.15,3c.57,2.44-.22,4.57-1.21,6.68a18.68,18.68,0,0,0-2,5,34.24,34.24,0,0,0-.44,4.75,7,7,0,0,1-1,3.86C79.05,71.56,78.37,68.39,78.26,65.17Z" fill="#8a5fab"/><path d="M69.07,65.15c-.92.4-1.29-.35-1.69-.87a12.21,12.21,0,0,1-1.82-5.13A41.66,41.66,0,0,1,65,53.58a57.15,57.15,0,0,0-.9-8.65c0-.24-.63-.78.2-.89a.89.89,0,0,1,.74.17c.64,1.41.45,3,.77,4.44a5.08,5.08,0,0,0,.25,1.17c.33.61.5,1.43,1.43,1.4.77,0,2-1.07,2-1.83-.2-3.11.91-6,1.47-9,0-.15,0-.32,0-.48.22-2.16.42-4.31.45-6.48a2.38,2.38,0,0,1,.37-1.7l0,0c.81.74.57,1.77.65,2.67.3,3.26-.78,6.32-1.5,9.43-.17.77-.37,1.54-.57,2.3a13.18,13.18,0,0,1,0,2.59c1.1,3.86,2.83,7.6,2.38,11.78a5.67,5.67,0,0,1-1.14,4.07c-.16.23-.41.53-.77.2l.21-.89c1.35-4.14.52-8.06-1.36-12a21.87,21.87,0,0,1-3.66,3.4,3.27,3.27,0,0,0-.28,1.74C66.17,60.06,66.73,63,69.07,65.15Z" fill="#494858"/><path d="M70.88,64.85c1.17-.66,1.25-1.91,1.62-3a13,13,0,0,0,.29-1.27A12,12,0,0,0,72.57,54a28,28,0,0,1-1-8.13,6.59,6.59,0,0,1,.84-2.84A13.09,13.09,0,0,0,74,36.65a5.81,5.81,0,0,1,0-.72c0-.06.08-.11.29-.37a10.79,10.79,0,0,1,.36,1.69,11.52,11.52,0,0,1-.92,5.25,10,10,0,0,0-.6,7.08,45.54,45.54,0,0,1,1.48,7.84,11.44,11.44,0,0,1-.81,5.14c-.13.32-.44.6-.18,1.07,1-.33,1.38-1.33,2.14-1.92a5.39,5.39,0,0,1-2.14,3.07c1.54-.31,2.31-1.58,3.3-2.63.13,1.63-1.26,3-3.94,4h-1.3C70.74,66.1,70.4,65.74,70.88,64.85Z" fill="#d1a26b"/><path d="M66.07,55.34c0-.23,0-.61.12-.67,1.56-.73,2.5-2.16,3.76-3.41,1.16,3.37,2.6,6.57,2.06,10.16A5.32,5.32,0,0,1,71.09,64c-.5-2.14-.58-4.38-1.44-6.45-.36-.87-.76-1.6-1.9-1.63A6,6,0,0,1,66.07,55.34Z" fill="#895fab"/><path d="M87,71.62c-.15.46.21,1.06-.46,1.15s-.66-.46-.81-.86a20.79,20.79,0,0,1-1.42-7.68c0-.36-.05-.79.41-.89s.6.36.69.68A62.27,62.27,0,0,1,87,71.62Z" fill="#8a5fac"/><path d="M61.66,65.38a22.62,22.62,0,0,1-5.53-16.85,11,11,0,0,1,.75,3.66,23,23,0,0,0,2.44,8.9,11.68,11.68,0,0,0,2.3,3.46,12.21,12.21,0,0,0,3.16,1.54,7.35,7.35,0,0,0,.79.27c-.13.73-.56.78-1.12.49C63.52,66.37,62.59,65.87,61.66,65.38Z" fill="#be7867"/><path d="M98.06,51.91c.44,2.4,1,4.79,1.31,7.2a27.94,27.94,0,0,1,.07,7,13,13,0,0,0,.79,4.31,13.35,13.35,0,0,1,.58,4.15c-.72-.25-.46-.86-.55-1.26-.43-2-1.2-3.86-1.47-5.89A12.08,12.08,0,0,1,99,64.13a25.38,25.38,0,0,0-.69-8.73,10.28,10.28,0,0,1-.52-3.48Z" fill="#8a5fac"/><path d="M94.61,44.47a7.36,7.36,0,0,1-.65,4.9A14.35,14.35,0,0,1,94.61,44.47Z" fill="#8a5fad"/><path d="M88.58,40.93H88.3c-.43,0-.85.19-1.26.16s-1.25.06-1.14-.87a1.47,1.47,0,0,1,1.71-.09,2.87,2.87,0,0,0,1.72.32Z" fill="#bb7769"/><path d="M101.29,82.44a.69.69,0,0,1,.74.47l0,.25A1.72,1.72,0,0,1,101.29,82.44Z" fill="#895eaa"/><path d="M90.78,82.46a1.9,1.9,0,0,0-.59,0A4.8,4.8,0,0,1,88,82.7c-.84,0-.27-1.13-.73-1.59a3.34,3.34,0,0,1-.42-.75c2.76-1,5.52-1.91,8.33-2.64a2.47,2.47,0,0,1,2.35.49c1.18,1,2.42,1.92,3.66,2.89-.37.24-1-.06-1.07.58q-.09.16-.21,0c-2.57-1-5.09-.48-7.61.26C91.76,82.11,91.27,82.29,90.78,82.46Z" fill="#ae70df"/><path d="M74.91,81.22c.74-.07,1.15.48,1.57.91a14.8,14.8,0,0,1,4.22,6.3,11.44,11.44,0,0,1-4.6,3.84c-.63-1.32-.46-2.78-.64-4.18A42.63,42.63,0,0,1,74.91,81.22Z" fill="#e8cac4"/><path d="M95.05,93.33c-.31-.85.18-1.49.47-2.14a9.82,9.82,0,0,0,1-3.64c0-.29,0-.59.36-.68s.36.16.34.36A16,16,0,0,1,95.05,93.33Z" fill="#323140"/><path d="M101.54,90.3A12.43,12.43,0,0,1,98.71,96C99.57,94.08,100.57,92.2,101.54,90.3Z" fill="#323140"/><path d="M96.52,94a3.89,3.89,0,0,1-.3-.25,1.81,1.81,0,0,1,.59-1.54.34.34,0,0,1,.3,0C97.3,92.91,96.69,93.29,96.52,94Z" fill="#333241"/><path d="M99.86,81.71l.21,0a1.5,1.5,0,0,1,1.23.76A3.4,3.4,0,0,1,99.86,81.71Z" fill="#895eaa"/><path d="M59.51,116.25a41.39,41.39,0,0,1-4.89-2.9,15.59,15.59,0,0,0-2.92-1.84c-.85-.35-.94-.83-.52-1.57a38.17,38.17,0,0,1,4.15-5.65c.25-.3.62-.51.62-1l.22-.11a.33.33,0,0,1,.46.15,81.8,81.8,0,0,0,6.42,7,8,8,0,0,0,1.78,1.16c-.15.8-.52,1-1.35.75-3-.92-3.9-.18-3.94,3Z" fill="#e8cac4"/><path d="M56.63,103.36l-.46-.15c-.06-.71.42-.39.74-.39Z" fill="#494858"/><path d="M76.14,108.81c-.41,0-.85.15-1.22-.17C75.34,108.62,75.78,108.39,76.14,108.81Z" fill="#b585dc"/><path d="M64.82,44.22a.51.51,0,0,1-.49-.18A20.82,20.82,0,0,1,58.5,38.3a7.63,7.63,0,0,1-1.59-5,15.29,15.29,0,0,0-.4-4,11.54,11.54,0,0,1,.62-5.64l.26-.46c.62-.57,1.1-.5,1.47.28.11.25.31.46.44.7,2,2.79,4.88,4.38,7.8,5.95a16.56,16.56,0,0,0,4.69,1.69,50,50,0,0,1-.53,8.39A8,8,0,0,1,64.82,44.22Z" fill="#e8cac4"/><path d="M64,63.51a10.83,10.83,0,0,1-3.42-7c-.6-4.17-1-8.35-2.81-12.26a14.76,14.76,0,0,1,4.19,5.88,10.23,10.23,0,0,1,.77,4.4A22.43,22.43,0,0,0,64,63.51Z" fill="#bd7767"/><path d="M60.77,23.88c2.39,1.25,5,1.31,7.64,1.66.51.07,1,.17,1.53.23,1.92.22,1.92.22,2.07,2.15,0,.35,0,.71,0,1.07s0,.63.06,1a10.7,10.7,0,0,1-3.91-1.26C66.41,27.9,64.67,27,62.91,26,62.17,25.35,61.16,24.92,60.77,23.88Z" fill="#e8cac4"/><path d="M55.46,41.39a24.12,24.12,0,0,1,3.73,10.33,50.77,50.77,0,0,0,.91,5.87,13.84,13.84,0,0,0,5.32,7.87c-.37.27-.58,0-.83-.07-3.42-1.16-4.34-4.18-5.26-7.15-1-3.15-1.08-6.49-1.91-9.68-.63-2.43-1.37-4.81-2.2-7.18C55.3,41.29,55.38,41.29,55.46,41.39Z" fill="#bd7767"/><path d="M52.59,22.18a8.09,8.09,0,0,1,1.68-3.5,6.58,6.58,0,0,1,3.9-3.27c.34-.08.78-.37.93.08s-.43.45-.72.54c-2.48.78-3.73,2.82-5,4.83-.28.43-.37,1-.78,1.32Z" fill="#bf7a67"/><path d="M52.71,39.22a7.82,7.82,0,0,1-1.24-4.56C51.68,36.24,52.53,37.63,52.71,39.22Z" fill="#c07e67"/><path d="M59.3,24.14c-.65-.3-.78-1.61-1.91-1A4.89,4.89,0,0,1,58.46,22C58.68,22.81,59.22,23.38,59.3,24.14Z" fill="#c07d6a"/><path d="M52.59,22.18a4.7,4.7,0,0,1-.72,2.16h0a3,3,0,0,1,.72-2.16Z" fill="#c88e69"/><path d="M55.46,41.39h-.24a1.19,1.19,0,0,1-.44-.82C55.28,40.71,55.28,41.11,55.46,41.39Z" fill="#c58968"/><path d="M54.73,44.13a.94.94,0,0,1-.45-.85C54.72,43.44,54.7,43.74,54.73,44.13Z" fill="#c58768"/><path d="M51.57,26v.79C51.3,26.54,51.39,26.3,51.57,26Z" fill="#c88e69"/><path d="M51.87,24.34v1.08c-.36-.48-.29-.79,0-1.08Z" fill="#c88e69"/><path d="M38.69,93.74h5A12.33,12.33,0,0,1,38.69,93.74Z" fill="#343341"/><path d="M56,95.66h1.59v.13H56Z" fill="#454451"/><path d="M43.26,109.75a1.45,1.45,0,0,1-.81-.73A.69.69,0,0,1,43.26,109.75Z" fill="#cac2d2"/><path d="M42.07,108.81a1.47,1.47,0,0,1-.78-.71A.69.69,0,0,1,42.07,108.81Z" fill="#cfafe9"/><path d="M36.91,110.15a2.65,2.65,0,0,1-.3.58c-.51.53-.37.88.24,1.18s1.34.94,1.15,1.11c-.54.51-.84-.38-1.23-.65-.73-.5-1.16-.43-1.59.34a3.58,3.58,0,0,1-1.26,1.55,2.59,2.59,0,0,1,.8-1.67c.46-.59.6-1-.27-1.38a.66.66,0,0,1-.53-.79c1.09.76,2.15,1.14,2.75-.68Z" fill="#343242"/><path d="M28.1,107.29c1.44,2,1.2,6.43-.41,8A11.78,11.78,0,0,0,28.1,107.29Z" fill="#343243"/><path d="M30.13,115.21c.52-2.54,1.48-5,.17-7.91C31.91,108.8,31.71,113.2,30.13,115.21Z" fill="#343242"/><path d="M69.85,115.07c-1.5,1.53-1.61,2.88-.14,4.21-1-.15-1.08-1-1.62-1.49-.62.23-.57,1.11-1.65,1.44,1.27-1.45,1.26-2.64-.38-3.7.92-.12,1,.35,1.28.66.43.6.75.72,1.19,0A1.5,1.5,0,0,1,69.85,115.07Z" fill="#343242"/><path d="M71.89,121.18c-1.22-1.2-1-5.85.31-7.91A15.6,15.6,0,0,0,71.89,121.18Z" fill="#343243"/><path d="M73.47,121.46c-1.36-1.38-1.3-5.55.12-7.54C72.92,116.43,72.45,118.94,73.47,121.46Z" fill="#353244"/><path d="M85.9,40.21a.87.87,0,0,0,1.2.58,1.15,1.15,0,0,1,1.2.13,1.52,1.52,0,0,1-1.76.37,1.4,1.4,0,0,0-1.75.59A9.89,9.89,0,0,0,83,45.37c-.73,2.53-1.45,5.05-.37,7.67,0,.09-.06.23-.1.34-1.33-.57-2.29-2.93-1.79-4.48.21-.68.45-1.37.71-2a6.45,6.45,0,0,0,.36-3.64,2.27,2.27,0,0,1,.27-2.06A5.41,5.41,0,0,1,85,39.9Z" fill="#494858"/><path d="M125.87,61.22a11.92,11.92,0,0,0-1.76-2.41c-.45-.6-1.55-.79-1.55-1.55s1-1.13,1.47-1.79c.59-.92,1.62-1.57,1.77-2.76a1.06,1.06,0,0,0-.6-1.08,2,2,0,0,0-2.5.42,21.16,21.16,0,0,0-2.35,2.19c-.5.55-.7.41-1-.1a10.16,10.16,0,0,0-2.15-2.24c-.72-.58-1.57-1-2.49-.24s-.69,1.58-.24,2.48a22.64,22.64,0,0,0,2.09,3,.87.87,0,0,1,0,1.33,15.83,15.83,0,0,0-2.37,3.29,1.32,1.32,0,0,0,.14,1.74c.59.57,1.16.31,1.69-.15,1.2-1.05,2.4-2.09,3.59-3.16.33-.3.49-.28.86,0A20.34,20.34,0,0,0,123.82,63c.53.29,1.05.69,1.63.14A1.64,1.64,0,0,0,125.87,61.22ZM125,62c-.64.71-1,.14-1.48-.2a13.82,13.82,0,0,1-3-2.56c-.65-.8-1-.27-1.37.2a11.41,11.41,0,0,1-3,2.9c-.32.2-.7.61-1.06.25a1,1,0,0,1,0-1.31,16.19,16.19,0,0,1,2.32-2.57c.71-.73.89-1.33,0-2.1a9.53,9.53,0,0,1-2.15-2.91c-.43-.81-.09-1.3,1-1.27.62.1,1.09.74,1.61,1.26,2.9,2.92,1.49,2.51,4.24-.24a5.77,5.77,0,0,1,1.47-1.36,1.1,1.1,0,0,1,1.24,0c.41.36.22.8,0,1.21a8.87,8.87,0,0,1-2.57,2.94c-.68.57-.82,1-.05,1.65a30.2,30.2,0,0,1,2.54,2.52C125.18,60.87,125.57,61.36,125,62Z" fill="#e8cac4"/><path d="M12.75,65.89a.49.49,0,0,1,0-.12c0-.6-.27-.87-.86-.87s-1.44,0-2.16,0-1-.22-1.08-1-.19-1.65-.25-2.49,0-1.59-1-1.78c-1.61-.29-2.51.45-2.54,2.11,0,.44,0,.88,0,1.32,0,1.79,0,1.77-1.74,1.84-.43,0-.86.15-1.29.21-2,.3-2,.43-1.6,2.42.3,1.53,1.39.95,2.15.91,2.48-.14,2.48-.2,2.48,2.17,0,2.66,0,2.64,2.66,2.45.66,0,.94-.31.93-.95a21.47,21.47,0,0,0,0-2.27c-.14-1.16.37-1.51,1.42-1.35a3.84,3.84,0,0,0,.48,0C12.91,68.5,12.91,68.5,12.75,65.89Zm-1.37,1.89A19.49,19.49,0,0,0,7.82,68c.26,1.2-.32,2.37-.16,3.61.1.75-.66.49-1.08.51s-1,.16-1-.61,0-1.76,0-2.64c0-.7-.3-1.1-1.1-1.06s-1.68,0-2.51,0c-.64,0-1-.13-.93-.85.08-.56-.3-1.4.82-1.32h.12C3,65.2,4.55,65.94,5.15,65s.36-2.22.38-3.37c0-.84.14-1.36,1.17-1.34.78,0,1,.26,1,1a13.4,13.4,0,0,0,.17,3.57c.14.53.37.73.89.69a11.2,11.2,0,0,0,2.38-.14c.63-.17,1.12.09,1.1.85S12.49,67.78,11.38,67.78Z" fill="#e8cac4"/><path d="M117.38,32.31c0-.39-.12-.76-.62-.68a38.7,38.7,0,0,1-6.89.39c-.55,0-.71.28-.59.77a27,27,0,0,1,.43,6.28c0,1.48.11,1.54,1.54,1.6s2.76-.45,4-.25a10.29,10.29,0,0,1,1.27,0c1.09.17,1.45-.24,1.4-1.36C117.79,36.81,117.28,34.58,117.38,32.31ZM116.29,40a27.36,27.36,0,0,0-4.87.22c-.67.06-1-.12-1-.89-.18-1.86-.08-3.73-.43-5.57-.18-.89.13-1.36,1.13-1.23a12.34,12.34,0,0,0,1.63,0c1,.21,2.17-.27,3.36-.24.43,0,.84,0,.81.6a39.07,39.07,0,0,0,.49,5.92C117.48,39.63,117.24,40,116.29,40Z" fill="#e8cbc5"/><path d="M116.1,88.25a4.56,4.56,0,0,0-4.83,4.81,4.93,4.93,0,0,0,5.12,5.13,4.76,4.76,0,0,0,4.84-4.82A5,5,0,0,0,116.1,88.25Zm.22,9.43A4.45,4.45,0,0,1,111.86,93a4.07,4.07,0,0,1,4.25-4.15,4.62,4.62,0,0,1,4.61,4.61A4.41,4.41,0,0,1,116.32,97.68Z" fill="#05cf77"/><path d="M35,19.58a8.56,8.56,0,0,1-.18-2.25c0-2.8,0-2.8-3-2.82a19.69,19.69,0,0,0-3,.14c-.38,0-.51.16-.44.51A27.43,27.43,0,0,1,28.57,20c0,.87.28,1.26,1.18,1.19,1.38-.11,2.77-.24,4.15-.22C35,21,35.24,20.44,35,19.58Zm-.71.75c-.39.53-1.5.07-2.28.19a12.63,12.63,0,0,1-2.13.24c-.63,0-.83-.26-.82-.86,0-1.32,0-2.63,0-3.95a.82.82,0,0,1,.73-.92c1.42-.32,2.83.41,4.26.08.29-.06.28.33.28.55,0,.76,0,1.52,0,2.27h0C34.38,18.75,34.69,19.79,34.3,20.33Z" fill="#e8cbc5"/><path d="M129.29,31.54a2.94,2.94,0,0,0-3,3.09,3.6,3.6,0,0,0,3.48,3.63,3.28,3.28,0,0,0,3.18-3.19A3.75,3.75,0,0,0,129.29,31.54Zm.47,6.22a3.19,3.19,0,0,1-3-3.09A2.6,2.6,0,0,1,129.36,32a3.07,3.07,0,0,1,2.92,3.12A2.61,2.61,0,0,1,129.76,37.76Z" fill="#05cf77"/><path d="M80.72,0a2.4,2.4,0,0,0-2.45,2.6,2.77,2.77,0,0,0,2.54,2.76,2.64,2.64,0,0,0,2.5-2.66A2.67,2.67,0,0,0,80.72,0Zm.08,4.83a2.18,2.18,0,0,1-2-2.32,1.87,1.87,0,0,1,2-1.95,2.17,2.17,0,0,1,2,2.18A2.12,2.12,0,0,1,80.8,4.83Z" fill="#05cf77"/><path d="M13.34,17.14a2.3,2.3,0,0,0-2.52,2.36A2,2,0,0,0,13,21.74a2.36,2.36,0,0,0,2.52-2.28A2.23,2.23,0,0,0,13.34,17.14ZM13,21.22a1.6,1.6,0,0,1-1.66-1.73,1.92,1.92,0,0,1,1.92-1.87,1.62,1.62,0,0,1,1.7,1.84A1.77,1.77,0,0,1,13,21.22Z" fill="#06cf78"/><path d="M25.14,57.74A2.14,2.14,0,1,0,24.82,62a2.14,2.14,0,1,0,.32-4.27ZM25,61.51a1.81,1.81,0,0,1-1.65-1.61,1.78,1.78,0,0,1,1.56-1.68,1.79,1.79,0,0,1,1.71,1.54A1.82,1.82,0,0,1,25,61.51Z" fill="#09d079"/><path d="M48.17.11A2,2,0,0,0,46.35,2,1.84,1.84,0,0,0,48.26,3.7,1.68,1.68,0,0,0,50,2,1.84,1.84,0,0,0,48.17.11Zm0,3.11A1.18,1.18,0,0,1,46.91,2,1.24,1.24,0,0,1,48.25.64a1.28,1.28,0,0,1,1.22,1.44A1.23,1.23,0,0,1,48.19,3.22Z" fill="#05cf77"/><path d="M43.93,89.36c-1.84,1.11-3.39,2.69-5.42,3.48l-.18-.3,5.37-3.4C44,89,44,89.15,43.93,89.36Z" fill="#ddcfec"/><path d="M43.93,89.36l-.23-.22,3.6-2.4a.15.15,0,0,1,.26,0A40.68,40.68,0,0,1,43.93,89.36Z" fill="#cec4e1"/><path d="M47.56,86.75H47.3L49,85.55A1.89,1.89,0,0,1,47.56,86.75Z" fill="#c1bad7"/><path d="M82.12,41.16A13.56,13.56,0,0,0,82.3,44a6.43,6.43,0,0,1-.9,4c-1,2.16-.1,3.78,1.17,5.39a6.42,6.42,0,0,1-.7,6c-1.15,1.08-2.42,2-2.94,3.65-.45,1.41-2,1.73-3.07,2.65-.28-.57.1-.73.29-.92a10.44,10.44,0,0,0,2.48-4.32c.41-1.33-.2-2.66-.62-3.94s-.84-2.33-1.26-3.49a.82.82,0,0,1,.08-1c1.11,2.63,2.38,5.09,2.7,7.89A5.05,5.05,0,0,0,80,54.12a11.19,11.19,0,0,1-.91-7.89c.42-2.12,1-4.19.2-6.33,0-.08.08-.2.2-.51,1.75,2.64,1,5.35.82,8a4.21,4.21,0,0,0,.87-2.66,20.48,20.48,0,0,0-1.76-8.12c-.13-.33-.62-.75-.15-1s.69.32.9.6a13,13,0,0,1,1.73,4.17C81.94,40.63,82,40.9,82.12,41.16Z" fill="#d1a26b"/><path d="M75.39,32.74a9.49,9.49,0,0,1-.2,4c-.47-1-.16-1.76-.32-2.5-.23,0-.62.73-.7-.2a36.18,36.18,0,0,0-2.62-11.18c-.5-1.16-1.09-2.28-1.62-3.42-.13-.29-.55-.67-.09-.92.31-.18.5.27.7.5,2.23,2.52,3.15,5.66,4.15,8.76.1.05.25.09.28.2C75.44,29.51,76,31.08,75.39,32.74Z" fill="#d1a26b"/><path d="M77,33.14c-.44,2.48.82,4.67,1.14,7a32.62,32.62,0,0,1,.07,5.59c0,.09-.14.17-.41.49,0-1.3,0-2.34,0-3.38a15.59,15.59,0,0,0-.81-5.5A5.7,5.7,0,0,1,77,33.14Z" fill="#d1a26b"/><path d="M67.22,18.32a20.54,20.54,0,0,1-3.46-.11c-.77-.13-1.63-.51-2.34.25a.33.33,0,0,1-.53,0c-.14-.2,0-.36.2-.48.57-.44,1-.93,2-.64s2,0,3.06.3C66.49,17.71,66.9,17.68,67.22,18.32Z" fill="#d1a16a"/><path d="M75.39,32.74a24.89,24.89,0,0,0-.7-5l1.4-1c-.37,1.58.11,2.95,0,4.35A1.84,1.84,0,0,1,75.39,32.74Z" fill="#e5c4bd"/><path d="M78.24,29.3c.35,1.92.93,3.78,1.33,5.68C77.89,33.39,78,31.37,78.24,29.3Z" fill="#d1a26b"/><path d="M71.1,24.76A5.77,5.77,0,0,1,67.18,24c-.52-.23-1.64-.27-1.42-.9s1.09.11,1.65.28C68.66,23.81,69.87,24.31,71.1,24.76Z" fill="#d1a16a"/><path d="M75.26,49.16a3.88,3.88,0,0,1,.68-4.68C75.77,46.17,75.17,47.61,75.26,49.16Z" fill="#d1a16a"/><path d="M75,55.25a8.68,8.68,0,0,1,.83,5.35C75.42,58.84,75.37,57,75,55.25Z" fill="#d1a16a"/><path d="M63.36,22.68a4.3,4.3,0,0,1-2.75-1l.12-.31,2.74,1Z" fill="#d0a16a"/><path d="M65.4,15.12c1-.65,1.46-.16,2,.61A3,3,0,0,1,65.4,15.12Z" fill="#cf9d6a"/><path d="M70.41,48.8a10.69,10.69,0,0,1,0-2.59A4.1,4.1,0,0,1,70.41,48.8Z" fill="#be8479"/><path d="M81.8,86.15c-.87-1.31-1.68-2.59-2.56-3.81-.48-.66-.31-.88.39-1.15,2.29-.86,3.87-.55,5.17,1.1.52.66.62,1.13-.27,1.59A10.24,10.24,0,0,0,81.8,86.15Z" fill="#ae70df"/><path d="M64.82,44.22a11.88,11.88,0,0,0,6.44-4,14.42,14.42,0,0,1-.73,3.58A15.22,15.22,0,0,0,69.87,49a3,3,0,0,1-2.49,2.68c-.7,0-1.69-1.47-1.85-2.6A28.71,28.71,0,0,0,64.82,44.22Z" fill="#c69f9a"/><path d="M64.23,39.94a4.45,4.45,0,0,0,2.44-.44c.24-.12.51-.35.7,0s-.09.53-.34.65a6,6,0,0,1-4.37.44c-.16,0-.38-.26-.38-.39,0-.33.32-.28.54-.28Z" fill="#8c61ac"/><path d="M67,32.76c-.25,0-.65-.29-1-.52s-1.12-.49-.8-1,.65.26,1,.4c.68.26,1.32.58,2,0,.2-.15.46-.48.68-.15s-.12.6-.36.77A2.5,2.5,0,0,1,67,32.76Z" fill="#4e4c5c"/><path d="M58.77,33c-.43-.25-1-.15-1.28-.61-.16-.25-.44-.57-.1-.84s.45.14.62.32c.72.77,1.41.4,2.1-.06.21-.14.46-.42.7-.06s-.15.47-.31.64C60,32.9,59.33,32.77,58.77,33Z" fill="#504e5d"/><path d="M63.39,38.26c-.5-.08-.89-.12-.93-.63,0-.08.15-.24.2-.23C63,37.48,63.3,37.68,63.39,38.26Z" fill="#555260"/></svg>