<svg id="Layer_1" data-name="Layer 1" xmlns="http://www.w3.org/2000/svg" viewBox="0 0 200 200"><defs><style>.cls-1{fill:#adb0b6;}.cls-2{fill:#94979d;}.cls-3{fill:#fff;}.cls-4{fill:#fefefe;}.cls-5{fill:#494955;}.cls-6{fill:#6b6872;}.cls-7{fill:#5e5b65;}.cls-8{fill:#4b4b56;}.cls-9{fill:#5d5d67;}.cls-10{fill:#4e4f5a;}.cls-11{fill:#63616b;}.cls-12{fill:#605d67;}.cls-13{fill:#666770;}.cls-14{fill:#6e6b75;}.cls-15{fill:#53535e;}.cls-16{fill:#615e69;}.cls-17{fill:#5f6069;}.cls-18{fill:#5c5a64;}.cls-19{fill:#d8dadc;}.cls-20{fill:#65636d;}.cls-21{fill:#696670;}.cls-22{fill:#585963;}.cls-23{fill:#787881;}.cls-24{fill:#5f5c66;}.cls-25{fill:#72737c;}.cls-26{fill:#5b5b65;}.cls-27{fill:#67656e;}.cls-28{fill:#5e5d67;}.cls-29{fill:#6e6f79;}.cls-30{fill:#87848d;}.cls-31{fill:#8f8b93;}.cls-32{fill:#adaab0;}.cls-33{fill:#77747d;}.cls-34{fill:#706d77;}.cls-35{fill:#93979d;}.cls-36{fill:#bfc3c6;}.cls-37{fill:#32333f;}.cls-38{fill:#ced1d3;}.cls-39{fill:#33343f;}.cls-40{fill:#8f9398;}.cls-41{fill:#999da2;}.cls-42{fill:#9fa4aa;}.cls-43{fill:#4a4a55;}.cls-44{fill:#b7babf;}.cls-45{fill:#52535d;}.cls-46{fill:#91949b;}.cls-47{fill:#d8d8da;}.cls-48{fill:#afb3b7;}.cls-49{fill:#aeb2b7;}.cls-50{fill:#f0f1f1;}.cls-51{fill:#c2c5c7;}.cls-52{fill:#bbbabe;}.cls-53{fill:#b5b8bb;}.cls-54{fill:#bec0c3;}.cls-55{fill:#e6e7e9;}.cls-56{fill:#c2c0c4;}.cls-57{fill:#c6c5c9;}.cls-58{fill:#b2b6bb;}.cls-59{fill:#787b82;}.cls-60{fill:#bebcc0;}.cls-61{fill:#b9b7bc;}.cls-62{fill:#a5a8ae;}.cls-63{fill:#7d7e86;}.cls-64{fill:#dedee0;}.cls-65{fill:#dcdddf;}.cls-66{fill:#343540;}.cls-67{fill:#cfd1d4;}.cls-68{fill:#d7d5d8;}</style></defs><title>dolphin</title><path class="cls-1" d="M50.6,133a7.32,7.32,0,0,1,3,1.43,4,4,0,0,1,1.47,2.31,15.9,15.9,0,0,1,.13,6.48,3,3,0,0,1-.18.61,4.23,4.23,0,0,1-.32.77,1.5,1.5,0,0,1-.47.56.56.56,0,0,1-.69,0c-.16-.14.06-.35.17-.5a6.79,6.79,0,0,0,.4-4.88,8.08,8.08,0,0,1-.24-1,5.62,5.62,0,0,0-4.4-4.93,9.93,9.93,0,0,0-4.4-.36,2.55,2.55,0,0,0-.75.25,9.32,9.32,0,0,1-2.86.93c-.24.06-.51.15-.69-.08s0-.47,0-.7a27.6,27.6,0,0,0,1-3.07,2.22,2.22,0,0,0,0-1.35,2.09,2.09,0,0,1,0-1.11,63.79,63.79,0,0,1,5.38-14.47,37.23,37.23,0,0,1,4.46-6.38c1.38-1.65,2.75-3.34,4.16-4.93.62-.7,1.25-1.4,1.92-2.06,2.09-2.11,4.18-4.22,6.3-6.3a43.29,43.29,0,0,1,7-5.59l3.28-2a.39.39,0,0,1,.14-.08c1.42-.75,2.91-1.39,4.34-2.16L85.08,82C88,80.83,91,79.71,94,78.82A40.92,40.92,0,0,1,98.08,78c1.09-.23,2.17-.48,3.28-.75a69.47,69.47,0,0,1,8.47-1.48,49.3,49.3,0,0,1,7.78-.29,64.81,64.81,0,0,1,6.66.47c2.21.28,4.28.49,6.41.77a38.29,38.29,0,0,1,5.9,1.28c1.24.37,2.5.66,3.76.93a36.17,36.17,0,0,1,5.41,1.71.79.79,0,0,0,.76,0c.17-.09.3,0,.44.08,2.46,1.29,5,2.57,7.47,3.92,3.59,2,7.24,3.85,10.82,5.87a49,49,0,0,1,5.84,4.1c2.46,1.92,5,3.83,7.38,5.89a60.65,60.65,0,0,1,4.59,4.48,53.25,53.25,0,0,1,4.54,5.52A54,54,0,0,1,191,116a4.41,4.41,0,0,1,0,3.49c-.12.38-.25.74-.39,1.1a2.21,2.21,0,0,0,.26,2.08.57.57,0,0,1,.17.48.39.39,0,0,1-.45.16c-1.83-1.25-4.06-1.47-6-2.32a28.89,28.89,0,0,1-4.73-2.26,7.8,7.8,0,0,1-2.14-1.95,1.3,1.3,0,0,0-.88-.61c-.31-.18-.3-.44-.17-.72a3.75,3.75,0,0,1,.82-.77.62.62,0,0,0-.61.16c-.88.64-.93,1.06-.21,1.85l.11.11a26.57,26.57,0,0,0,4.37,4.37,6.65,6.65,0,0,1,1.18,1.42A20.39,20.39,0,0,0,187,128.1a10.22,10.22,0,0,0,1.64,1A26.48,26.48,0,0,1,193,132a5.33,5.33,0,0,1,1.07,1.25c.15.22.27.47,0,.71a3.77,3.77,0,0,1-1.93.33,1.19,1.19,0,0,0-.58-.32,12.81,12.81,0,0,1-2.3-.95,48.54,48.54,0,0,1-4.85-2.4,12.8,12.8,0,0,1-3.49-3.07,4,4,0,0,0-2.58-1.43,75.39,75.39,0,0,1-16.5-5.28,43.17,43.17,0,0,1-7-4.1c-1-.67-2-1.26-3-1.88a5.54,5.54,0,0,0-3-.63c-.39,0-.82.11-1.14-.25.07-.24.07-.4-.26-.4a11.73,11.73,0,0,0-2.55.49c-2.25.48-4.4,1.33-6.62,1.89-1.51.39-3.07.52-4.59.82-1,.22-2,.51-3,.74a29,29,0,0,1-8,.92,7.53,7.53,0,0,0-1.16.07,15,15,0,0,1-2.32,0,31.46,31.46,0,0,1-9-1.51,11.28,11.28,0,0,1-2.6-1.52c-.14-.09-.22-.29-.44-.23a.23.23,0,0,1-.16-.06h0a.82.82,0,0,1,.16-1,1.87,1.87,0,0,1,1.12-.41,29.26,29.26,0,0,0,5.59-.69c.72-.13,1.44-.3,2.15-.5a8,8,0,0,1,1.64-.5c1.32-.64,2.72-1.1,4.11-1.69a36.93,36.93,0,0,0,3.47-1.94,2.87,2.87,0,0,1,.91-.41.86.86,0,0,0,.68-.33,7.89,7.89,0,0,1,3.28-1,10.33,10.33,0,0,0,2.15-.16,14.94,14.94,0,0,1,3,.09,3.29,3.29,0,0,0,.7.11c.5.34,1,0,1.53.07a47.8,47.8,0,0,0-12.8-6,68.41,68.41,0,0,0-9-2.34,60.4,60.4,0,0,0-7.82-1c-2.32-.13-4.62-.39-6.93-.3s-4.77.22-7.15.47-4.63.6-6.91,1A70.34,70.34,0,0,0,78,101a66.48,66.48,0,0,0-9.11,3.78,53.16,53.16,0,0,0-7.28,4.37,22.12,22.12,0,0,0-3.28,3.21,57.53,57.53,0,0,0-7.82,11.26c-1,1.91-2.2,3.75-3.09,5.75a1.57,1.57,0,0,0-.18.44,2.86,2.86,0,0,1-1.34,2c-.18.14-.46.35,0,.51a7.57,7.57,0,0,0,1.83.27A24.65,24.65,0,0,1,50.6,133Z"/><path class="cls-2" d="M146.59,80.66c0,.3-.06.49-.43.35-.54-.22-1.1-.37-1.64-.59a60.59,60.59,0,0,0-7.24-2A48.6,48.6,0,0,0,131.21,77c-1.31-.19-2.63-.34-3.93-.49s-2.66-.31-4-.45c-1-.11-2-.22-2.94-.28-2.36-.14-4.74-.18-7.11-.09a50.7,50.7,0,0,0-5.62.57c-1.75.26-3.51.58-5.25.91-1,.2-2,.57-3.08.77-1.45.27-2.9.56-4.36.82a27.63,27.63,0,0,0-4.15,1.28c-2.78,1-5.53,2-8.27,3.15-1.21.48-2.46,1-3.66,1.37-1.49.64-2.94,1.36-4.36,2.13h0a3.89,3.89,0,0,1-1.42.64.64.64,0,0,0-.4.24,8.7,8.7,0,0,1-1.48,1.14c-.87.62-1.75,1.24-2.6,1.88-1.15.88-2.24,1.81-3.29,2.79-2.51,2.34-4.92,4.82-7.31,7.25a73.8,73.8,0,0,0-4.87,5.57c-1.31,1.6-2.67,3.15-3.85,4.84a31.69,31.69,0,0,0-2.46,4.21,47.56,47.56,0,0,0-2.47,5.68c-.82,2.54-1.69,5.09-2.33,7.69a1.14,1.14,0,0,0,0,.58,4,4,0,0,1-.23,2.73,15,15,0,0,1-.82,2.24c-.06.13-.18.3-.05.43s.26,0,.39,0a13,13,0,0,0,3.23-1,4.36,4.36,0,0,1,2.23-.29,14.27,14.27,0,0,1,3.42.66,5,5,0,0,1,3,2.32A12.44,12.44,0,0,1,54.66,142a9,9,0,0,1-.33,2.25,2.16,2.16,0,0,1-.67.9c.55.21.82-.13,1-.46s.17-.62.44-.82c-.13.82-.54,1.42-1,1.5s-1-.25-1.43-1.11a1.48,1.48,0,0,1-.12-.29c-.41-1.85-1.87-2.5-3.45-2.95a11,11,0,0,0-4.63-.12,11.59,11.59,0,0,1-5.57-.54c-.11-.06-.24-.06-.34-.14a1.54,1.54,0,0,0-2,.08,10.31,10.31,0,0,1-4.84,1.3,28.84,28.84,0,0,1-3.22.07c-.06-.34.22-.31.39-.32.69,0,1.37-.12,2.06-.13A10.89,10.89,0,0,0,37.44,139a6.12,6.12,0,0,0,1.44-1.64,1.15,1.15,0,0,0,.33-.74c-.36,0-.58.32-.82.45a17.58,17.58,0,0,0-2.07,1,12,12,0,0,1-3.39,1c-1.78.3-3.57.43-5.37.56-2.41.19-4.81.52-7.22.69-.82.07-1.64.21-2.46.34A75.52,75.52,0,0,0,8,142.71l-1.86.62a2.57,2.57,0,0,0-.91.25H5.09c-.34-.14-.15-.32,0-.48a6.92,6.92,0,0,0,.82-.89,16.73,16.73,0,0,1,2.46-2,39.31,39.31,0,0,1,5.33-3.34.92.92,0,0,0,.46-.26,14.59,14.59,0,0,1,3.28-1.52c3.84-1.22,7.59-2.67,11.37-4.1a3.84,3.84,0,0,1,.6-.2,2.93,2.93,0,0,0,1.34-.48c1.1-.54,2.21-1.06,3.36-1.55a6.75,6.75,0,0,1,1.54-.35,11,11,0,0,0,1.83-.56A2.55,2.55,0,0,0,39,126.32c1.29-3.07,2.86-6,4.15-9.1a64.36,64.36,0,0,1,7.93-14.1,1.6,1.6,0,0,0,.33-.4l.09-.12c.39-.39.64-.91,1-1.3,1.25-1.35,2.62-2.58,3.93-3.85a4.92,4.92,0,0,1,.76-.68h.09a.27.27,0,0,0,.18-.1.34.34,0,0,1-.22,0c-.05-.06,0-.18.13-.22l1.16-.83q4.41-3.16,9-6c2-1.22,4-2.57,6-3.79.72-.44,1.46-.82,2.17-1.32a75,75,0,0,1,9-4.7,6.18,6.18,0,0,0,.9-.43,53.85,53.85,0,0,1,5.88-2,39.81,39.81,0,0,1,4.68-1.12,4,4,0,0,0,2.46-1.25,17.58,17.58,0,0,0,2.28-2.2,8.39,8.39,0,0,0,2-3.6,9.06,9.06,0,0,0,.31-2.13,21.43,21.43,0,0,0-.54-5.64,8.93,8.93,0,0,0-1.72-3,6.47,6.47,0,0,0-.77-.88,3.58,3.58,0,0,0-1.85-1.3c-.54-.46-.61-.68-.32-1.14a.89.89,0,0,0,.94.31,10.21,10.21,0,0,1,5.86.95,15,15,0,0,1,3.38,2.06,17.56,17.56,0,0,1,2.85,3.41c1.29,1.85,2.51,3.76,3.74,5.66a9.71,9.71,0,0,1,1.31,2,1.79,1.79,0,0,0,.54.88,6.3,6.3,0,0,1,.77.86.13.13,0,0,0,.11.11c.72.11,1.32.69,2.1.57a57,57,0,0,1,7.54,1.46c1.26.32,2.55.56,3.84.82a34.51,34.51,0,0,1,6,1.73c1.64.6,3.28,1.29,4.92,1.91a17.38,17.38,0,0,1,4.1,2.24C146.34,80.17,146.63,80.28,146.59,80.66Z"/><path class="cls-3" d="M146.59,80.66a16.22,16.22,0,0,0-4.77-2.75c-2.46-.94-4.92-2-7.46-2.78a32.84,32.84,0,0,0-3.53-.82c-1.81-.36-3.62-.72-5.41-1.19s-3.87-.8-5.83-1.06A4.88,4.88,0,0,1,116,69.52c-.89-1.34-1.74-2.71-2.67-4s-1.71-2.85-2.75-4.15a14.22,14.22,0,0,0-3.8-3.86c-2.18-1.23-4.4-2.29-7-2.11a8.13,8.13,0,0,0-1.21.12c-.38.06-.59-.11-.51-.53a2.22,2.22,0,0,1,.63-.63A4.52,4.52,0,0,1,102,53.11a16.22,16.22,0,0,1,10,3.38,43.14,43.14,0,0,1,5.61,4.93,31.54,31.54,0,0,1,6.52,9.32,1.59,1.59,0,0,0,1.31,1c3.36.69,6.71,1.48,10,2.46,1.56.48,3.07,1.14,4.59,1.75a9.94,9.94,0,0,1,1.18.46,3,3,0,0,0,.59.24c1.37.5,2.74,1,4.1,1.5s2.56.91,3.82,1.42c1.88.75,3.73,1.57,5.58,2.46s3.89,2,5.81,3c1.35.74,2.69,1.47,4,2.27a.76.76,0,0,0,.43.27c.46.25.9.53,1.36.82,1.09.73,2.19,1.4,3.28,2.12,1.5,1,2.92,2.1,4.36,3.17,1.17,1,2.31,2,3.45,3a3.85,3.85,0,0,0,.67.73c.82.74,1.49,1.64,2.28,2.38,1.12,1.25,2.17,2.55,3.28,3.78a52.41,52.41,0,0,1,6.56,8.78h0a12.17,12.17,0,0,1,1.77,4.2,8.73,8.73,0,0,1-.13,2.84,13.45,13.45,0,0,1-.82,2.71c-.22.52-.13.73.3,1.1s1.17.9,1.76,1.36c.78.66,1.64,1.21,2.39,1.92a6,6,0,0,1,2.25,4.76,4.48,4.48,0,0,1-.56,1.85,1,1,0,0,1-.07.15,2,2,0,0,1-.75.56c-.16.06-.35.14-.48,0a.32.32,0,0,1,.08-.43c1-1.07.75-2.28.38-3.49a7.47,7.47,0,0,0-2.84-3.79c-.51-.37-1-.76-1.54-1.13a1.27,1.27,0,0,1-.58-.65c-.09-.29-.35-.43-.56-.61a1.38,1.38,0,0,1-.43-.5,2.24,2.24,0,0,1-.55-2.6,13.35,13.35,0,0,0,.68-2.23,3.34,3.34,0,0,0-.33-2.26,48.87,48.87,0,0,0-5.36-8.06,59.57,59.57,0,0,0-5.94-6.26c-3.73-3.36-7.74-6.34-11.73-9.35A45.82,45.82,0,0,0,162,88.93c-3.64-2-7.27-3.93-10.92-5.87-1.23-.66-2.46-1.27-3.74-1.9A1.62,1.62,0,0,1,146.59,80.66Z"/><path class="cls-2" d="M147.64,114.09a12.51,12.51,0,0,1,3.45.32,14.29,14.29,0,0,1,2.56,1.5c1.34.82,2.65,1.75,4,2.58a42.28,42.28,0,0,0,6.78,3.35c2.29.91,4.59,1.77,7,2.46a71.22,71.22,0,0,0,7,1.74,4.17,4.17,0,0,1,2.76,1.64,10.81,10.81,0,0,0,3.48,3,46.16,46.16,0,0,0,7.15,3.28c.18.07.36.07.26.33a.37.37,0,0,1-.13.12,5,5,0,0,0-1.42.37,3.67,3.67,0,0,1-1.23.23,11.48,11.48,0,0,1-5.57-1.08,64.5,64.5,0,0,1-6-3.28c-1.08-.66-2.19-1.29-3.28-2a7.21,7.21,0,0,0-2.57-1,50.33,50.33,0,0,1-10.55-3.53c-2.07-.9-4.15-1.81-6.14-2.91a11.07,11.07,0,0,0-2.09-.9,3.26,3.26,0,0,0-2.22.06c-2.46.94-4.83,2-7.38,2.76a45,45,0,0,1-6.57,1.6,17.27,17.27,0,0,1-6.56-.32c-2.11-.55-4.17-1.24-6.22-1.93a.14.14,0,0,0-.09,0,.17.17,0,0,1,.18.16v0a.21.21,0,0,1-.24,0,7.56,7.56,0,0,1-1.26-.66,4.8,4.8,0,0,1-1.64-1.14,1.53,1.53,0,0,0-.87-.47c-1-.18-2.11-.31-3.17-.43a30.18,30.18,0,0,1-4-.82h0c-.34-.1-.34-.1-.26-.29a1.16,1.16,0,0,1,.82,0,24.71,24.71,0,0,0,5.74.71c1,0,2.05.06,3.07.09a29.61,29.61,0,0,0,7.51-.69,1.13,1.13,0,0,1,.26,0,4.79,4.79,0,0,0,1.8-.29c1.64-.32,3.29-.54,4.87-.92a41.43,41.43,0,0,0,5.55-1.83,8.05,8.05,0,0,0,1.56-.62,25.56,25.56,0,0,1,3.28-1.27A.38.38,0,0,1,147.64,114.09Z"/><path class="cls-3" d="M39,137.35c-1.05,1.94-2.85,2.83-4.83,3.5a17.38,17.38,0,0,1-4.92.61,1.53,1.53,0,0,0-.82.13,7.81,7.81,0,0,1-1.92.28c-1.29.17-2.58.33-3.88.45a46.44,46.44,0,0,0-5.12.75c-2.92.6-5.79,1.37-8.7,2a43.52,43.52,0,0,0-5.11,1.54c-.24.09-.48.11-.72.18a1.06,1.06,0,0,1-1.27-.78,1.09,1.09,0,0,1,.1-.75,6,6,0,0,1,.51-.73A24.7,24.7,0,0,1,9.55,138a5.19,5.19,0,0,0,1.16-.82,22.12,22.12,0,0,1,5.57-2.66,49.23,49.23,0,0,0,4.66-1.87c2.25-.82,4.5-1.73,6.76-2.54.88-.31,1.8-.5,2.68-.82.58,0,1.09-.32,1.64-.33a4.3,4.3,0,0,0,1.12-.29,3.5,3.5,0,0,1,.56-.13.24.24,0,0,1,.3.16c0,.15-.07.21-.18.27-.77.33-1.51.73-2.28,1.05a2.67,2.67,0,0,0-.88.47,6.52,6.52,0,0,1-1.15.49c-4.18,1.59-8.37,3.16-12.63,4.56a14.48,14.48,0,0,0-2.67,1.26c-.13.1-.3.12-.42.22A48.74,48.74,0,0,0,6.4,142a3.15,3.15,0,0,0-.37.36c-.36.29-.66.63-1,1-.07.07-.16.15,0,.25a.13.13,0,0,0,.19,0h0c.27-.14.58-.18.82-.32a56.6,56.6,0,0,1,9.32-2.46c2.8-.53,5.62-.82,8.45-1.1,2.46-.24,4.92-.42,7.33-.64a13.77,13.77,0,0,0,6-1.72,4.91,4.91,0,0,1,1.29-.49l.14-.06c.18-.06.38-.25.56,0S39.16,137.16,39,137.35Z"/><path class="cls-4" d="M30.53,130.46a2.48,2.48,0,0,1,1-.54,18.05,18.05,0,0,0,2.32-1.18c-.66-.06-1.21.42-1.87.31,0-.1.08-.14.16-.16a19.67,19.67,0,0,1,3.46-.86c.06,0,0,0,0,0s.09.11.16.14a.2.2,0,0,1-.1-.18,7.24,7.24,0,0,1,1.78-.32c.29,0,.49-.13.56-.43.82-2.35,1.64-4.71,2.67-7a4.54,4.54,0,0,1,.3-.68c.44-.82.62-1.83,1.07-2.67s.7-1.68,1.13-2.5c.54-1,1.16-2,1.76-3,.82-1.3,1.56-2.62,2.41-3.9a34.25,34.25,0,0,1,2.67-3.66c.14-.16.23-.35.37-.52a5.06,5.06,0,0,0,.55-.67l.1-.12a1.18,1.18,0,0,0,.27-.23l.14-.06a.38.38,0,0,1,.15,0c.18.2,0,.32-.09.47h0a2.36,2.36,0,0,0-.32.44c-.48.71-1,1.44-1.45,2.15a72.45,72.45,0,0,0-5.91,10.66c-.93,2-1.52,4-2.53,6a43.86,43.86,0,0,0-2.24,4.63,3.1,3.1,0,0,1-2.67,1.83,19.61,19.61,0,0,0-5.6,2,.22.22,0,0,1-.3.07Z"/><path class="cls-5" d="M107,114.42a1.19,1.19,0,0,0-.2,1,1,1,0,0,1,.32-1.33,1,1,0,0,1,.32-.12,16.11,16.11,0,0,1,1.64-.25,44.9,44.9,0,0,0,7.54-1.31s0,0,.09-.1a21.94,21.94,0,0,0-2.53-.68c-1.22-.33-2.46-.57-3.71-.82s-2.68-.41-4-.58-2.88-.27-4.31-.49-2.62-.28-3.93-.46a39.3,39.3,0,0,0-5.74-.2,58.27,58.27,0,0,0-6.32.5c-1.88.22-3.76.52-5.63.88a44.61,44.61,0,0,0-7,1.87c-1.32.48-2.6,1.1-3.9,1.64a.35.35,0,0,1-.06-.14c.17-.4.6-.41.89-.63l.16-.05A41.5,41.5,0,0,1,80.81,110c2.18-.4,4.37-.76,6.56-1,1.21-.12,2.46-.17,3.64-.26,1.36-.11,2.72-.08,4.1-.06a42.84,42.84,0,0,1,5.06.45c1.11.14,2.24.27,3.35.38s2.32.27,3.47.37a58.26,58.26,0,0,1,8.4,1.64c.67.16,1.34.32,2,.45.26,0,0,.36.2.43a8.38,8.38,0,0,0-1.64.41,17.91,17.91,0,0,1-3,.65,36.1,36.1,0,0,1-4.87.54A1.61,1.61,0,0,0,107,114.42Z"/><path class="cls-6" d="M141.18,76.52a71.92,71.92,0,0,0-15.3-4.6,2.59,2.59,0,0,1-2.06-1.57A36.31,36.31,0,0,0,109.42,55a14.24,14.24,0,0,0-8-1.8,3.8,3.8,0,0,0-2.33.94c-.09.08-.18.22-.33.22a3.41,3.41,0,0,1,2.55-1.3,16,16,0,0,1,10.61,3.28A45.7,45.7,0,0,1,118.3,62a32.16,32.16,0,0,1,6.08,9,.81.81,0,0,0,.69.55c3.47.73,6.94,1.52,10.32,2.58,2.05.64,4,1.52,6,2.29a.09.09,0,0,1,0,.13h0A.16.16,0,0,1,141.18,76.52Z"/><path class="cls-7" d="M1.88,145.23a1.05,1.05,0,0,0,.05,1.2,1.06,1.06,0,0,0,1.21.28c1.47-.42,2.87-1,4.35-1.38,5.85-1.45,11.69-3,17.74-3.41,1.06-.08,2.12-.22,3.17-.33a18.32,18.32,0,0,0,7.17-1,7.6,7.6,0,0,0,1.35-.72,1,1,0,0,1,1.17,0c.22.17.53.2.73.41a.58.58,0,0,1-.36-.07c-.67-.53-1.25-.31-1.91.08a10.08,10.08,0,0,1-4.92,1.28c-2.7.09-5.37.43-8.06.7a64.57,64.57,0,0,0-10.06,1.76,82.14,82.14,0,0,0-9.61,2.6,4,4,0,0,1-1,.26,1.15,1.15,0,0,1-1.17-.56,1,1,0,0,1,.13-1.29C1.91,145.09,1.92,145.17,1.88,145.23Z"/><path class="cls-8" d="M69.64,113.77v.15c-1.2.6-2.39,1.21-3.56,1.87a75.22,75.22,0,0,0-6.85,4.2c-1.26.91-2.55,1.76-3.78,2.71a27.9,27.9,0,0,0-3.93,3.83l-.17.2c-1.64,1.52-3,3.24-4.65,4.72-.16.14-.31.28-.48.41s-.24.38.06.52c-.12.11-.27,0-.4.06a.29.29,0,0,1-.16,0,.28.28,0,0,1-.08-.3c.12-.36.5-.47.73-.73.78-.82,1.58-1.64,2.34-2.51s1.46-1.49,2.16-2.27a28.52,28.52,0,0,1,6.07-5.48c1-.54,1.82-1.25,2.74-1.86l2.38-1.55a.27.27,0,0,1,.12-.09,1.43,1.43,0,0,0,.43-.25l.13-.08a1.41,1.41,0,0,0,.42-.26l.13-.08c1.48-.82,2.92-1.64,4.41-2.46l.11-.08a10,10,0,0,0,1.18-.59.35.35,0,0,1,.14-.06A.42.42,0,0,1,69.64,113.77Z"/><path class="cls-9" d="M141.39,76.52v-.1c1.44.53,2.87,1.07,4.31,1.58,2.47.82,4.84,1.78,7.19,2.82a82.38,82.38,0,0,1,7.8,3.92c2,1.11,3.95,2.18,5.88,3.36.15.09.29.2.43.3a.1.1,0,0,1-.14,0h0l-1.37-.75c-.11-.11-.3-.1-.39-.25a102.93,102.93,0,0,0-19.69-9.35c-1-.32-1.92-.7-2.88-1.06l-.82-.28C141.6,76.64,141.42,76.68,141.39,76.52Z"/><path class="cls-10" d="M98.39,56.13a2.14,2.14,0,0,1,1.42.73,21.4,21.4,0,0,1,1.82,2.1,8.64,8.64,0,0,1,1.56,4.21,22.11,22.11,0,0,1,.08,4.81A8.54,8.54,0,0,1,101,72.77a13.09,13.09,0,0,1-2.26,2.14.18.18,0,0,1-.24,0,23.75,23.75,0,0,0,3.14-3.28,8.28,8.28,0,0,0,1.55-4.47,24.75,24.75,0,0,0-.34-5.16,8.65,8.65,0,0,0-2-3.78c-.21-.27-.44-.51-.66-.77A4.5,4.5,0,0,0,98.39,56.13Z"/><path class="cls-11" d="M197.46,128a2.92,2.92,0,0,1,.87,1.88,4.12,4.12,0,0,1-1.15,4,3,3,0,0,1-1.89.82,1.1,1.1,0,0,0-.69.25,4.82,4.82,0,0,1-2.86,1.11,15.73,15.73,0,0,1-8.51-1.57c-.3-.16-.58-.36-.86-.53v-.07c.19-.19.36,0,.53,0a6.58,6.58,0,0,0,1,.51l.15.06a8,8,0,0,0,2.9.89h.16a5.48,5.48,0,0,0,1.8.25,8.39,8.39,0,0,0,3.76-.23,2.8,2.8,0,0,0,1.55-.82c.37-.23.12-.72.4-1,.27,0,.27.18.28.35,0,.36.22.41.5.33a4.18,4.18,0,0,0,2.12-1.2h0a4.69,4.69,0,0,0-.07-4.72C197.43,128.27,197.34,128.15,197.46,128Z"/><path class="cls-12" d="M57.4,96.38l-.11.2c0,.2-.16.28-.27.41s-.47.45-.73.65a1,1,0,0,0-.42.35c-1.4,1.19-2.59,2.6-3.9,3.89a3.13,3.13,0,0,1-.54.42h0a.56.56,0,0,1-.31.33h0c-.16.3-.49.47-.62.82a44.23,44.23,0,0,0-4.61,6.67c-.35.59-.73,1.16-1.08,1.75-.06.1-.14.22-.29.13a.22.22,0,0,1,0-.22A55.09,55.09,0,0,1,50,103.57a54.17,54.17,0,0,1,6.21-6.28A4.54,4.54,0,0,1,57.4,96.38Z"/><path class="cls-13" d="M75.77,84.49c-.87.67-1.85,1.13-2.77,1.73-4.41,2.87-9,5.48-13.27,8.59a4.56,4.56,0,0,1-1.17.72A17.72,17.72,0,0,1,61,93.66c2.84-2.06,5.91-3.75,8.83-5.67,1.85-1.23,3.75-2.4,5.68-3.51a.14.14,0,0,1,.2,0S75.76,84.48,75.77,84.49Z"/><path class="cls-14" d="M167.81,127.27c-3.81-1.42-7.74-2.57-11.38-4.5a37.71,37.71,0,0,0-4-1.64l-.43-.22c-.13-.08-.32,0-.45-.12.24-.42.59-.23.88-.11,1.17.47,2.34.92,3.48,1.45,2.23,1,4.42,2.14,6.76,3,1.58.55,3.19,1,4.75,1.64.26.11.61.16.63.55A.21.21,0,0,1,167.81,127.27Z"/><path class="cls-11" d="M193.51,124.58c-.57-.44-1.15-.88-1.71-1.34s-.62-.68-.31-1.32a12.64,12.64,0,0,0,.95-3.68,8.57,8.57,0,0,0-1.35-5.19,2.39,2.39,0,0,1-.37-.75,3.14,3.14,0,0,1,.82,1.22,8,8,0,0,1,1.15,4.5,11.77,11.77,0,0,1-1,4,.77.77,0,0,0,.27,1c1,.87,2.11,1.48,3.12,2.28a3.25,3.25,0,0,1,.74.74c-.13.13-.23,0-.31,0C194.85,125.49,194.15,125.09,193.51,124.58Z"/><path class="cls-15" d="M98.48,74.93h.24a3.33,3.33,0,0,1-2,1.19,53.42,53.42,0,0,0-7.48,2c-1.2.41-2.39.87-3.58,1.32a.29.29,0,0,1-.33,0,15,15,0,0,1,2.62-1.1c.77-.28,1.55-.49,2.32-.75A46.11,46.11,0,0,1,96.62,76,4.08,4.08,0,0,0,98.48,74.93Z"/><path class="cls-16" d="M190.75,112.28c-.63-.94-1.27-1.86-1.89-2.8a66.11,66.11,0,0,0-6-7.43c-.66-.76-1.31-1.53-2-2.29-.05-.06,0-.1,0-.13a31.86,31.86,0,0,1,2.38,2.68c1.26,1.41,2.54,2.83,3.72,4.31a64.13,64.13,0,0,1,3.66,5.31A.44.44,0,0,1,190.75,112.28Z"/><path class="cls-17" d="M85.32,79.39h.33c-1,.48-2,1-3.06,1.45-2.24,1-4.41,2.24-6.56,3.5a1.92,1.92,0,0,1-.29.14h-.22a69.87,69.87,0,0,1,6.56-3.65C83.15,80.28,84.23,79.83,85.32,79.39Z"/><path class="cls-18" d="M20.87,132.69a28.29,28.29,0,0,1-4.29,1.78A26.9,26.9,0,0,0,11,137a3.59,3.59,0,0,0-.33.25.18.18,0,0,1-.22,0,10.18,10.18,0,0,1,2.85-1.69c1.8-.82,3.72-1.42,5.57-2.14a16.4,16.4,0,0,1,2-.83C20.92,132.6,20.93,132.65,20.87,132.69Z"/><path class="cls-18" d="M167.81,127.27h.25c.27-.21.5,0,.74.07,1.83.82,3.62,1.73,5.44,2.57,1,.45,2,.86,3,1.27.23.1.49.15.55.44a.16.16,0,0,1-.08.14c-1.48-.53-2.91-1.17-4.33-1.83-1.8-.82-3.58-1.76-5.41-2.54A.49.49,0,0,1,167.81,127.27Z"/><path class="cls-6" d="M20.87,132.69v-.12c1.48-.57,3-1.11,4.44-1.72a42.28,42.28,0,0,1,4.77-1.58,1.24,1.24,0,0,1,.57-.09c0,.27-.26.08-.33.21a90.45,90.45,0,0,0-9.23,3.28A.53.53,0,0,1,20.87,132.69Z"/><path class="cls-19" d="M193.51,124.58a10,10,0,0,1,1.79,1.24c.13.1.22.27.43.26l.22.22a5.11,5.11,0,0,1,.74.73l.11.12a5.3,5.3,0,0,0,.42.52l.21.32a2.64,2.64,0,0,0,.33.77,4.81,4.81,0,0,1,.12,3.83,1,1,0,0,1-.34.52c0-.48.34-.83.43-1.3a5.12,5.12,0,0,0-1.22-4.32,14.22,14.22,0,0,0-2.88-2.54A.76.76,0,0,1,193.51,124.58Z"/><path class="cls-20" d="M166.84,88.43H167a61.92,61.92,0,0,1,7.54,5.2.11.11,0,0,1,0,.15l-3.11-2.27C169.92,90.39,168.35,89.46,166.84,88.43Z"/><path class="cls-21" d="M124,122.72h.19a.8.8,0,0,1,.66.1l3.13,1.44a1.5,1.5,0,0,0,.82.31,28.21,28.21,0,0,0,3.75,1.07.73.73,0,0,1,.53.3.15.15,0,0,1,0,.16,18.72,18.72,0,0,1-4.76-1.33c-1.39-.59-2.76-1.26-4.1-1.9A.56.56,0,0,1,124,122.72Z"/><path class="cls-22" d="M113,119.19c1,.22,2.09.46,3.15.63,1.32.22,2.65.36,4,.54a1.4,1.4,0,0,1,1,.49,10.34,10.34,0,0,0,1.58,1.21,2,2,0,0,1-1.33-.78,3.08,3.08,0,0,0-2.18-.91,43.94,43.94,0,0,1-5.58-1A1.1,1.1,0,0,1,113,119.19Z"/><path class="cls-23" d="M142.64,125.47a15.07,15.07,0,0,1-3.46.7,22.85,22.85,0,0,1-3.7.24,7.2,7.2,0,0,1-1.46-.18.35.35,0,0,1,.13-.14,15.58,15.58,0,0,1,2.16,0,24.42,24.42,0,0,0,5.64-.72c.21,0,.43-.17.66,0A.11.11,0,0,1,142.64,125.47Z"/><path class="cls-2" d="M30.32,129.39l.32-.21c1.56-.37,3.06-.91,4.64-1.22.71-.14,1.42-.24,2.13-.33a.83.83,0,0,0,.65-.37c0,.42-.25.49-.56.52a7.92,7.92,0,0,0-1.79.32h0a17.92,17.92,0,0,0-3.73,1C31.41,129.06,30.9,129.41,30.32,129.39Z"/><path class="cls-22" d="M112.71,119l.33.2a8.49,8.49,0,0,1-2.34-.82c-1.52-.43-2.53-1.64-3.69-2.58a.51.51,0,0,1-.23-.45h.1a2.77,2.77,0,0,1,1.07.82,10.59,10.59,0,0,0,4.1,2.35C112.29,118.64,112.58,118.69,112.71,119Z"/><path class="cls-24" d="M44.53,111.75V112c.13.19,0,.33-.12.47a24.83,24.83,0,0,0-2,3.91c-.08.11-.13.24-.31.19a8.47,8.47,0,0,1,.92-2.22A20.45,20.45,0,0,1,44.53,111.75Z"/><path class="cls-25" d="M142.64,125.47v-.12c.16-.4.57-.37.88-.46a16.27,16.27,0,0,0,3.6-1.58c.26-.13.5-.37.82-.22a.11.11,0,0,1,0,.15A19,19,0,0,1,142.64,125.47Z"/><path class="cls-26" d="M174.51,93.75V93.6a9.14,9.14,0,0,1,1.5,1.21,17.82,17.82,0,0,1,2.07,1.91.14.14,0,0,1-.18,0h0Z"/><path class="cls-27" d="M177.68,131.74v-.14a.42.42,0,0,1,.49,0,19.23,19.23,0,0,1,3.38,1.5,2,2,0,0,0,.53.38c.15.11.34.19.33.43l-.07.09A22.15,22.15,0,0,0,177.68,131.74Z"/><path class="cls-28" d="M148,123.24v-.13c0-.29.23-.39.42-.5.9-.49,1.72-1.09,2.56-1.64.18-.12.36-.33.62-.18s.31,0,.44.11a2,2,0,0,0-1.15.59A20.2,20.2,0,0,1,148,123.24Z"/><path class="cls-29" d="M45.85,132.37h.43c1.2.14,2.4.27,3.6.42a1.25,1.25,0,0,1,.75.22l-4.78-.54s-.06-.05-.05-.06S45.8,132.37,45.85,132.37Z"/><path class="cls-30" d="M177.92,96.69h.18c1,1,1.92,1.9,2.8,3v.13Z"/><path class="cls-31" d="M42.1,116.54l.22-.2c.14.24,0,.42-.14.62-.4.71-.56,1.53-.91,2.26-.08.14-.14.28-.22.42a.08.08,0,0,1,0-.12l0,0Z"/><path class="cls-32" d="M10.46,137.26h.22A2.94,2.94,0,0,1,9.5,138C9.75,137.64,10.17,137.53,10.46,137.26Z"/><path class="cls-23" d="M133,126.09V126a.81.81,0,0,1,1,0,.21.21,0,0,1,.07.17l-.05.06A3.06,3.06,0,0,1,133,126.09Z"/><path class="cls-11" d="M196.71,127a2,2,0,0,1-.74-.74A1.12,1.12,0,0,1,196.71,127Z"/><path class="cls-33" d="M41,119.5v.14c-.1.21-.12.47-.32.63A1.21,1.21,0,0,1,41,119.5Z"/><path class="cls-34" d="M1.88,145.23v-.15c.13-.19.2-.42.45-.51A2.15,2.15,0,0,1,1.88,145.23Z"/><path class="cls-11" d="M197.25,127.68a.73.73,0,0,1-.43-.52A.73.73,0,0,1,197.25,127.68Z"/><path class="cls-35" d="M45.85,132.37v.1c-.18,0-.4,0-.47-.16s.15-.3.25-.42l.26-.26A2.68,2.68,0,0,0,47,130.05a7.6,7.6,0,0,1,1.25-2.67,15.69,15.69,0,0,0,1.39-2.46,48.12,48.12,0,0,1,3-5.26A55.34,55.34,0,0,1,56,115a34.37,34.37,0,0,1,2.46-2.91,21.78,21.78,0,0,1,4.1-3.69c1.48-.92,3-1.88,4.48-2.71a64.71,64.71,0,0,1,9.85-4.39,68,68,0,0,1,7.31-2.13q3.09-.73,6.21-1.21c1.73-.27,3.46-.47,5.21-.58a64.52,64.52,0,0,1,6.81-.29c2.46.09,5,.22,7.48.48,1.92.2,3.82.46,5.7.82a71.81,71.81,0,0,1,7.09,1.73,65.6,65.6,0,0,1,9.48,3.66,41.94,41.94,0,0,1,5.58,3.33l.18.22c-.77-.22-1.44.28-2.09-.14,0-.13.2-.08.2-.22a6.57,6.57,0,0,0-5.61-.65,23.48,23.48,0,0,0-4.31,1.79c-2.32,1.13-4.57,2.4-7,3.34a7.82,7.82,0,0,0-1,.53.83.83,0,0,1-.61.13,19.42,19.42,0,0,1-3.28-.73,55.87,55.87,0,0,0-8.8-1.53c-2.46-.23-4.92-.57-7.38-.82a38.09,38.09,0,0,0-7.24-.12c-1.81.13-3.62.25-5.41.51a67.27,67.27,0,0,0-10.14,2.07,37.53,37.53,0,0,0-4.74,1.79h0c-.46.22-.94.39-1.38.64h0a7.29,7.29,0,0,0-1.28.64h0c-1.56.82-3.07,1.64-4.57,2.55h0a5.74,5.74,0,0,0-.53.32h0c-.17.12-.37.18-.54.32h0c-1.79,1.06-3.5,2.28-5.2,3.5a29,29,0,0,0-4.21,3.53c-1.89,2-3.79,4.1-5.74,6.05-.43.42-.87.82-1.3,1.23-.06.12-.11.22,0,.32Z"/><path class="cls-19" d="M197.61,133.11a3.51,3.51,0,0,1-2.55,1.45c-.22,0-.21-.13-.22-.27a1.5,1.5,0,0,0-.1-.66,13.8,13.8,0,0,1-1-1.26,14.51,14.51,0,0,0-4.37-3.37,16.91,16.91,0,0,1-1.72-.94.86.86,0,0,1-.39-.41v-.1A6.38,6.38,0,0,0,185.3,126a1.33,1.33,0,0,1-.61-.65,17.5,17.5,0,0,0-1.57-2.16c-.39-.45-.67-1-1.07-1.42a1.53,1.53,0,0,0-.47-.41,23.49,23.49,0,0,1-2.18-1.93,14.57,14.57,0,0,1-2.38-2.52c-.14-.23-.41-.41-.28-.74.45-.19.73.15.89.41a7.37,7.37,0,0,0,2.68,2.34,32.46,32.46,0,0,0,6.87,2.85,8.61,8.61,0,0,1,3,1.26,2.39,2.39,0,0,1,.23.22,1.46,1.46,0,0,1,1,.52,1.55,1.55,0,0,0,.54.32c0,.32.26.45.46.59a20.48,20.48,0,0,1,2.56,2,6.77,6.77,0,0,1,2.29,5.11,1.94,1.94,0,0,1-.65,1.55.52.52,0,0,0-.24.37C196.94,133.71,197.21,133.3,197.61,133.11Z"/><path class="cls-3" d="M134.06,126.09,133,126a28.64,28.64,0,0,1-4.36-1.27,6.9,6.9,0,0,0-.75-.3l-3.74-1.7c-.18-.25-.56-.19-.75-.52a35.44,35.44,0,0,1,3.52,1,23.18,23.18,0,0,0,8.13,1.49,33.21,33.21,0,0,0,6.91-1.32,89.41,89.41,0,0,0,9.2-3.33,2.77,2.77,0,0,1,1.71,0,17.93,17.93,0,0,1,3.52,1.59,79.13,79.13,0,0,0,13,5.26c1.06.31,2.16.49,3.28.74a13.67,13.67,0,0,1,3.75,2c2.46,1.45,4.87,2.93,7.45,4.15a11.1,11.1,0,0,0,6.19,1,2.63,2.63,0,0,0,.47-.1,15.19,15.19,0,0,1,1.49-.32h.1c.7,0,1.33-.34,2-.32a.46.46,0,0,1,.34.56.24.24,0,0,1,0,.08c.15.31-.07.41-.29.52a7.85,7.85,0,0,1-5.13.74c-.64-.14-1.28-.19-1.92-.3h0a12,12,0,0,1-3.08-1h0c-.82-.42-1.64-.92-2.46-1.37a21.36,21.36,0,0,0-3.81-1.64c-2.06-.89-4.1-1.78-6.13-2.76a29.93,29.93,0,0,0-3.51-1.59,6.69,6.69,0,0,0-1.7-.72,83.85,83.85,0,0,1-11-4.46c-1-.5-2.11-.88-3.17-1.32-.21-.09-.43-.2-.63,0-1.2.82-2.36,1.64-3.6,2.33a3.28,3.28,0,0,0-.74.33,28.17,28.17,0,0,1-5.61,2,26,26,0,0,1-7.46.72A.2.2,0,0,1,134.06,126.09Z"/><path class="cls-3" d="M112.71,119c-.82-.31-1.58-.61-2.36-.93a5.54,5.54,0,0,1-2.1-1.4c-.42-.47-1.1-.67-1.37-1.3,0-.3.15-.25.32-.12.43.34.92.61,1.34.94a11.45,11.45,0,0,0,4.11,1.52,23.76,23.76,0,0,0,6.34.74,45.54,45.54,0,0,0,10-.68c1.64-.36,3.28-.82,4.93-1.13a39.63,39.63,0,0,0,6.36-1.38c1.81-.64,3.66-1,5.5-1.55a5.44,5.44,0,0,1,1.88-.25c.17,0,.4,0,.46.16s-.18.29-.32.39l-.14.09-3.6,1.39a74,74,0,0,1-13.8,3.72,35.7,35.7,0,0,1-9.72.72,29.15,29.15,0,0,1-7.44-.9A2,2,0,0,0,112.71,119Z"/><path class="cls-2" d="M174.59,104.89c1.79,0,3.48,1.34,3.41,2.81-.08,1.75-1,3.2-2.84,3.28a3.45,3.45,0,0,1-3.28-3.28,2.72,2.72,0,0,1,2.63-2.8Z"/><path class="cls-36" d="M121.77,78.22a43.34,43.34,0,0,1,6.52.62c2.49.36,5,.83,7.42,1.39a75.1,75.1,0,0,1,10,3.11,72.54,72.54,0,0,1,13,6.57c2.17,1.37,4.35,2.69,6.41,4.22a3.44,3.44,0,0,1-3.28,6,23.45,23.45,0,0,1-3.47-2c-2.89-1.74-5.75-3.57-8.74-5.11-2-1-4-1.92-6.13-2.77a95.91,95.91,0,0,0-14-4.38c-2.14-.52-4.3-1-6.48-1.33a27,27,0,0,0-4-.26,2.72,2.72,0,0,1-2.53-1.44,2.84,2.84,0,0,1,.93-3.74,6.1,6.1,0,0,1,3.06-.82A8.31,8.31,0,0,1,121.77,78.22Z"/><path class="cls-37" d="M194.38,134.59c-.19-.17-.17-.45-.32-.64a3.36,3.36,0,0,0-1.33-1.79,39.94,39.94,0,0,0-4.92-3.21,15.6,15.6,0,0,1-4.8-4.7,11.79,11.79,0,0,0-2.06-2.79c-1.06-.82-2-1.87-3-2.74a15.76,15.76,0,0,1-1.93-2.31c-.53-.62-.28-1.16.6-1.64.14,0,.32-.14.42,0s-.08.25-.14.35a2.19,2.19,0,0,0-.26.41c-.06.22-.17.45.08.64a6.53,6.53,0,0,0,1.23,1.64c1.19,1.17,2.39,2.33,3.68,3.41.82.87,1.42,1.91,2.16,2.84l1,1.21.53.65a16.87,16.87,0,0,1,1.89,1.7,12.69,12.69,0,0,0,2.19,1.23,15,15,0,0,1,4.93,4,2.08,2.08,0,0,1,.36.75v.76C194.69,134.65,194.6,134.71,194.38,134.59Z"/><path class="cls-38" d="M157.53,101.88a2.25,2.25,0,0,1-2.12,2.35h-.15a2.36,2.36,0,0,1-2.41-2.3v-.05a2.33,2.33,0,0,1,2.35-2.32h0a2.26,2.26,0,0,1,2.29,2.22Z"/><path class="cls-38" d="M91.37,90.5a2.17,2.17,0,0,1-2.24,2.11,1.92,1.92,0,0,1-.41,0A10.59,10.59,0,0,1,87.35,92a.88.88,0,0,1-.54-.73,2.71,2.71,0,0,1,2.46-2.87,2.07,2.07,0,0,1,2.1,2Z"/><path class="cls-39" d="M117.5,112c1.54-1,3.28-1.48,4.87-2.31,2.19-1.13,4.37-2.29,6.67-3.21a8,8,0,0,1,6.22-.21,6.07,6.07,0,0,1,1,.65c-.08.27-.31.12-.48.13a1.94,1.94,0,0,1-.67-.09c-.57,0-1.13-.22-1.72-.23a12.61,12.61,0,0,0-2.94.25c-.23,0-.45.07-.67.12a10.73,10.73,0,0,0-3.18,1,2.31,2.31,0,0,1-.65.32,6.53,6.53,0,0,0-1.36.71,26.93,26.93,0,0,1-5.74,2.78c-.44.16-.87.36-1.3.55h-.36c0-.25.28-.17.31-.34v0S117.49,112,117.5,112Z"/><path class="cls-35" d="M107,114.42a1.15,1.15,0,0,1,1-.49,58.94,58.94,0,0,0,7.71-1.12h.16a4,4,0,0,1-1.8.53,29.85,29.85,0,0,1-6.17.77A2.94,2.94,0,0,0,107,114.42Z"/><path class="cls-40" d="M129.8,107.08a7.21,7.21,0,0,1,5-.25.38.38,0,0,1,.26.07.06.06,0,0,1,0,.06h0C133.33,106.68,131.57,107.07,129.8,107.08Z"/><path class="cls-41" d="M71.19,88.73a11.83,11.83,0,0,1,1.64-1.44c.49-.3,1.14-.29,1.65-.57A21.53,21.53,0,0,1,72,88.24,2.63,2.63,0,0,1,71.19,88.73Z"/><path class="cls-41" d="M74.49,86.72c.12-.25.38-.32.59-.42,1.08-.54,2.17-1.07,3.28-1.59a3.14,3.14,0,0,1,.51-.12,5.59,5.59,0,0,1-1.52.82c-.82.44-1.74.82-2.58,1.3A1.31,1.31,0,0,1,74.49,86.72Z"/><path class="cls-42" d="M128.38,109.42a1.64,1.64,0,0,1,1.77-.5Z"/><path class="cls-43" d="M176.65,115.51a.71.71,0,0,1,.17-.48c.25-.31,0-.29-.19-.3.25-.24.59-.17.89-.26a.22.22,0,0,1,.27.11.21.21,0,0,1-.17.23C177.19,114.9,177,115.25,176.65,115.51Z"/><path class="cls-44" d="M192,124.07a.58.58,0,0,1-.69-.23,2,2,0,0,0-.88-.61.58.58,0,0,0,.44-.12A3.28,3.28,0,0,1,192,124.07Z"/><path class="cls-45" d="M135.11,107v-.09c.39-.07.78.25,1.17,0,.1,0,.18,0,.19.13s-.07.1-.14.1h-.58C135.54,107,135.3,107.15,135.11,107Z"/><path class="cls-46" d="M126,108.36a1.12,1.12,0,0,1,.65-.32A.64.64,0,0,1,126,108.36Z"/><path class="cls-47" d="M51.43,102.3a19.39,19.39,0,0,1,1.89-2.06,23,23,0,0,1,2.46-2.38c.13-.12.3-.19.39-.37l.75-.6c.12,0,.26-.27.36,0-1.46,1.37-2.94,2.72-4.3,4.2a4.32,4.32,0,0,1-.39.34c-.26-.05-.3.21-.42.34a1.36,1.36,0,0,1-.64.52Z"/><path class="cls-48" d="M116,69.51l.24.27a5.14,5.14,0,0,0,3,2.15l.35.13a3.81,3.81,0,0,1-1.41-.36c-1-.27-1.45-1.09-2.06-1.76A.52.52,0,0,1,116,69.51Z"/><path class="cls-49" d="M39,137.35c.17-.64.14-.67-.63-.54a4.33,4.33,0,0,1,.82-.51c.22-.14.34,0,.25.18S39.33,137.14,39,137.35Z"/><path class="cls-50" d="M51.59,102.33l.82-.91c.09-.1.18-.13.2,0a9.8,9.8,0,0,1-1,1.29C51.53,102.61,51.71,102.43,51.59,102.33Z"/><path class="cls-51" d="M5.15,143.51c-.12.11-.3.28-.44.13s.1-.26.2-.35c.36-.32.62-.77,1.08-1a6.5,6.5,0,0,1-.82.92C5.07,143.33,4.89,143.45,5.15,143.51Z"/><path class="cls-52" d="M57.33,96.92c-.11-.12-.24,0-.36,0l.34-.3c.23,0,.32-.27.59-.27A1.09,1.09,0,0,1,57.33,96.92Z"/><path class="cls-53" d="M30.53,130.46h.31a2.84,2.84,0,0,1-1.37.55C29.78,130.71,30.21,130.7,30.53,130.46Z"/><path class="cls-51" d="M6,143.19a1.44,1.44,0,0,1-.82.32A1.31,1.31,0,0,1,6,143.19Z"/><path class="cls-50" d="M51.24,103.19a.48.48,0,0,1,.32-.45A.67.67,0,0,1,51.24,103.19Z"/><path class="cls-54" d="M13.75,137a.44.44,0,0,1,.41-.23A.48.48,0,0,1,13.75,137Z"/><path class="cls-55" d="M120.71,69.18c0,.12,0,.18-.13.19a.16.16,0,0,1-.17-.14h0a.15.15,0,0,1,.11-.18h0C120.65,69,120.68,69.12,120.71,69.18Z"/><path class="cls-56" d="M141.39,76.52c.08.1.25.07.3.22a.56.56,0,0,1-.51-.22Z"/><path class="cls-57" d="M165.07,87.44a.47.47,0,0,1,.39.24C165.29,87.67,165.13,87.67,165.07,87.44Z"/><path class="cls-58" d="M130.23,119.2a9.77,9.77,0,0,1,1.84-.48c2.73-.63,5.49-1.14,8.16-2,1.09-.34,2.17-.76,3.28-1.13.18-.06.37-.09.56-.14a7,7,0,0,1-1.64.64,39.32,39.32,0,0,1-5.53,1.82c-2.06.47-4.16.73-6.21,1.24A2.33,2.33,0,0,1,130.23,119.2Z"/><path class="cls-1" d="M191.94,134.28a4.79,4.79,0,0,1-1.49.32A3.06,3.06,0,0,1,191.94,134.28Z"/><path class="cls-50" d="M42.18,117l.14-.62A34.83,34.83,0,0,1,44.55,112a26.55,26.55,0,0,0,1.76-2.82A45.31,45.31,0,0,1,50,103.87c.14-.17.32-.34.46-.5s.1-.05.14,0c-.7.93-1.43,1.83-2.1,2.78-.92,1.31-1.76,2.67-2.56,4-.71,1.2-1.48,2.37-2.18,3.56a14.23,14.23,0,0,0-1.29,2.77A.67.67,0,0,1,42.18,117Z"/><path class="cls-3" d="M34.43,128.48l.82-.16C34.94,128.63,34.71,128.68,34.43,128.48Z"/><path class="cls-3" d="M35.71,128.1l.63,0c-.41.26-.47.25-.62,0Z"/><path class="cls-47" d="M50.6,103.38h-.14a2,2,0,0,1,.66-.73C51.1,103,50.72,103.1,50.6,103.38Z"/><path class="cls-47" d="M51.12,102.63a.53.53,0,0,1,.31-.33.28.28,0,0,1-.22.33Z"/><path class="cls-59" d="M117.5,112v.08a7.8,7.8,0,0,1-2.53-.46,57.92,57.92,0,0,0-7.16-1.48c-1.77-.21-3.54-.39-5.31-.58s-3.51-.44-5.26-.6a37.25,37.25,0,0,0-5.88-.08l-3.17.23c-2.18.17-4.35.53-6.5.9A44.65,44.65,0,0,0,74,111.88c-1,.36-2,.82-3,1.21a1.21,1.21,0,0,1-.55.16,5,5,0,0,1,1.64-.78,37.44,37.44,0,0,1,6.88-2.1c2.36-.52,4.74-.91,7.13-1.22a37.61,37.61,0,0,1,4.1-.37c1.11,0,2.22-.19,3.29-.18a46.27,46.27,0,0,1,6.22.48c1.69.24,3.4.4,5.1.56a55.63,55.63,0,0,1,9.68,1.64A16.13,16.13,0,0,0,117.5,112Z"/><path class="cls-59" d="M69.08,113.92a2.71,2.71,0,0,1,1.38-.64l-.82.51Z"/><path class="cls-59" d="M57,121.22a4.57,4.57,0,0,1,1.27-1c1.17-.82,2.35-1.64,3.59-2.39a1.35,1.35,0,0,1,.34-.11,3.23,3.23,0,0,1-.94.65c-1.23.86-2.47,1.7-3.71,2.54A1.21,1.21,0,0,1,57,121.22Z"/><path class="cls-59" d="M63.24,117.08a4.4,4.4,0,0,1,1.3-.82c.93-.55,1.87-1.05,2.81-1.58a.69.69,0,0,1,.46-.11,6.09,6.09,0,0,1-1.45.82C65.35,116,64.31,116.57,63.24,117.08Z"/><path class="cls-59" d="M67.8,114.53a2.21,2.21,0,0,1,1.28-.64A4.16,4.16,0,0,1,67.8,114.53Z"/><path class="cls-59" d="M62.17,117.72a.6.6,0,0,1,.53-.32A.74.74,0,0,1,62.17,117.72Z"/><path class="cls-59" d="M62.7,117.4a.61.61,0,0,1,.54-.32A.73.73,0,0,1,62.7,117.4Z"/><path class="cls-29" d="M45.72,132.35c-.33-.08-.18-.2,0-.32Z"/><path class="cls-60" d="M181.51,133.22A12.12,12.12,0,0,1,184,134.6c-.58-.1-1-.54-1.53-.73C182.16,133.61,181.76,133.52,181.51,133.22Z"/><path class="cls-60" d="M184,134.6A2.62,2.62,0,0,1,185,135c.65.25,1.37.27,2,.58A6.82,6.82,0,0,1,184,134.6Z"/><path class="cls-60" d="M187,135.55a5.22,5.22,0,0,1,1.92.3A6.58,6.58,0,0,1,187,135.55Z"/><path class="cls-52" d="M56.2,97.51a.43.43,0,0,1-.4.37A.9.9,0,0,1,56.2,97.51Z"/><path class="cls-61" d="M127.88,124.41a1,1,0,0,1,.75.3A1.22,1.22,0,0,1,127.88,124.41Z"/><path class="cls-62" d="M134.06,126.09a31.3,31.3,0,0,0,4.33-.18,36.06,36.06,0,0,0,5.3-1.24c1.2-.34,2.35-.82,3.53-1.24a14.53,14.53,0,0,1-3.61,1.64l-1,.32a31,31,0,0,1-4.67.78,26.72,26.72,0,0,1-3.9,0A.1.1,0,0,1,134.06,126.09Z"/><path class="cls-63" d="M184.81,125.25a8.46,8.46,0,0,1-1.76-2c-.48-.67-.94-1.36-1.41-2,.29.08.44.34.61.55l2.46,3.23C184.75,125.07,184.78,125.16,184.81,125.25Z"/><path class="cls-64" d="M187.22,127.6a4.76,4.76,0,0,1-1.89-1.7c.23-.22.37,0,.5.13.5.42,1,.87,1.47,1.3C187.48,127.49,187.41,127.55,187.22,127.6Z"/><path class="cls-65" d="M195,133.73c.25.4.64.27,1,.43a1.32,1.32,0,0,1-1,.19C194.83,134.3,194.9,134,195,133.73Z"/><path class="cls-66" d="M176,107.56a1.26,1.26,0,0,1-1.19,1.13,1,1,0,0,1-1-1,1.14,1.14,0,0,1,1.11-1.12A1,1,0,0,1,176,107.56Z"/><path class="cls-67" d="M122,78.43a36.6,36.6,0,0,1,6.34.61,80.78,80.78,0,0,1,8.45,1.64,59.1,59.1,0,0,1,5.75,1.71c1.93.68,3.85,1.39,5.74,2.2q2.46,1.05,4.77,2.28c1.82.95,3.59,2,5.33,3.06s3.53,2.17,5.24,3.37a8.44,8.44,0,0,1,2.1,1.76,3.28,3.28,0,0,1,.13,3.81,3.34,3.34,0,0,1-4.18,1,34.45,34.45,0,0,1-3.51-2.08c-2.83-1.73-5.65-3.48-8.6-5a77.3,77.3,0,0,0-10.21-4.28A99.16,99.16,0,0,0,127,85.12a35.44,35.44,0,0,0-7.74-1,2.89,2.89,0,0,1-2.82-1.53,2.61,2.61,0,0,1,.82-3.34,5.32,5.32,0,0,1,2.74-.82C120.63,78.39,121.23,78.43,122,78.43Z"/><path class="cls-68" d="M175.14,107.63a.24.24,0,0,1-.26.27.21.21,0,0,1-.23-.19v0a.26.26,0,0,1,.24-.29h.05C175.1,107.35,175.15,107.49,175.14,107.63Z"/></svg>