<svg id="Layer_1" data-name="Layer 1" xmlns="http://www.w3.org/2000/svg" viewBox="0 0 200 200"><defs><style>.cls-1{fill:#f2b443;}.cls-2{fill:#e08a3d;}.cls-3{fill:#f6ca66;}.cls-4{fill:#f2b544;}.cls-5{fill:#f2b444;}.cls-6{fill:#f2b545;}.cls-7{fill:#f4bd50;}.cls-8{fill:#f1b145;}.cls-9{fill:#f4be55;}.cls-10{fill:#f4be53;}.cls-11{fill:#efb250;}.cls-12{fill:#f5c058;}.cls-13{fill:#e9a24a;}.cls-14{fill:#e7a150;}.cls-15{fill:#e69e4e;}.cls-16{fill:#efae43;}.cls-17{fill:#f4bd52;}.cls-18{fill:#f4bf56;}.cls-19{fill:#efb45d;}.cls-20{fill:#efb656;}.cls-21{fill:#edb35d;}.cls-22{fill:#efb869;}.cls-23{fill:#e08b3d;}.cls-24{fill:#e08c3e;}.cls-25{fill:#e18c3e;}.cls-26{fill:#e18e3e;}.cls-27{fill:#e79c42;}.cls-28{fill:#e59741;}.cls-29{fill:#e4943f;}.cls-30{fill:#e18b3d;}.cls-31{fill:#e3913f;}.cls-32{fill:#e69a42;}.cls-33{fill:#e89e43;}.cls-34{fill:#fce6c1;}.cls-35{fill:#e8a044;}.cls-36{fill:#fbe3ba;}.cls-37{fill:#f6ca65;}.cls-38{fill:#f6ca64;}.cls-39{fill:#f0b958;}.cls-40{fill:#f2b344;}.cls-41{fill:#f6c864;}.cls-42{fill:#e19044;}.cls-43{fill:#e49952;}.cls-44{fill:#e18d3e;}.cls-45{fill:#f2b645;}.cls-46{fill:#e59841;}.cls-47{fill:#f6c355;}.cls-48{fill:#f4bd4b;}.cls-49{fill:#f5c152;}.cls-50{fill:#32323f;}.cls-51{fill:#f6c965;}.cls-52{fill:#f5c663;}.cls-53{fill:#f5c763;}</style></defs><title>goldfish</title><path class="cls-1" d="M65.17,115.68c.25-1.55.28-3-1.11-4.21a10,10,0,0,1-2.15-3.32,4.12,4.12,0,0,1-.2-2.75,3.09,3.09,0,0,0,.21-1.12l-4.67,2.58c-2.66,1.49-5.3,3-8.07,4.24a6.18,6.18,0,0,1-2.38.66,2.81,2.81,0,0,1-3.09-2.49,2.86,2.86,0,0,1,.12-1.16c.06-.21.1-.41.2-.77l-1.44.62a15.81,15.81,0,0,1-4.13,1.38c-1.77.25-3.64-.62-3.9-2.34-.09-.5-.32-.37-.63-.19-.88.54-1.77,1.06-2.66,1.56-.19.14-.29.06-.37-.12s.19-.44.39-.6c2.64-2.09,5-4.5,7.48-6.78A118.2,118.2,0,0,1,53.25,88.93c.83-.55,1.71-1,2.56-1.56a.69.69,0,0,1,.7-.12c.12.42-.23.53-.45.69a97.78,97.78,0,0,0-11,9.2,45.42,45.42,0,0,1-6,4.83,21.87,21.87,0,0,0,6-4.08c3-2.62,5.76-5.45,8.86-7.85a58.31,58.31,0,0,1,6.44-4.37,8.06,8.06,0,0,0,1.56-1,34.68,34.68,0,0,1,8.28-2.85,10.64,10.64,0,0,0,1.75-.43,1.58,1.58,0,0,0-1-.08,52.57,52.57,0,0,0-16.56,5,90.11,90.11,0,0,0-10.51,6.51c-.33.24-.62.57-1.08.52-.31-.48.15-.68.39-.89a45,45,0,0,1,5.52-4.31,23.06,23.06,0,0,1,2.18-1.33A5.05,5.05,0,0,0,52.11,86a2.82,2.82,0,0,1,1-.53,16.84,16.84,0,0,0,3-1.51A29.63,29.63,0,0,1,61,82.16c1.79-.43,3.55-1,5.34-1.41a64.94,64.94,0,0,1,8.21-1.43c.26,0,.57.05.69-.3-.14-.47-.54-.38-.88-.42a2.56,2.56,0,0,1-1.28-.17c0-.54.42-.39.7-.43,1.77-.25,3.56-.39,5.34-.66a7,7,0,0,0,2.52-.78c2.29-1.31,4.67-2.43,7-3.7s4.67-2.85,7.13-4a100.65,100.65,0,0,1,9.93-3.89.93.93,0,0,1,.78-.05c.13.56-.37.59-.67.69-.94.33-1.83.73-2.74,1.12a14.43,14.43,0,0,0-2.53,1.38c-.67.46-.9,1.07-.64,1.6s.86.68,1.65.42a13.35,13.35,0,0,1,1.71-.6c.44.07,1,.5,1.06-.4a2.81,2.81,0,0,1,2-.78c.21.3,0,.56-.1.83a1.44,1.44,0,0,0,0,1.08,4.06,4.06,0,0,0,.78,1.37l.39.4c.38.37.72.42,1-.07a12.43,12.43,0,0,0,2.18-.46c.51-.21.88-.49.57-1.12a.66.66,0,0,1,0-.64c.32-.52.4-1.13.67-1.68.41,0,.35.36.44.59a2.47,2.47,0,0,0,1.13,1.48c0-.73-.17-1.34-.21-2s-.13-1.39.65-1.78c.48.42.4,1.07.65,1.56.18.31.11.91.58.88s.36-.59.41-1a4.87,4.87,0,0,1,1.14-2.78c.24-.25.44-.57.86-.55.23.26.07.52,0,.78-.35,1.56.07,2.12,1.71,2.34.71,0,1.32-.63,2.08-.32.16.26-.07.35-.23.42a16.48,16.48,0,0,0-1.69,1.06A2.44,2.44,0,0,0,118.3,72c.49,1.35,1.6,2.24,2.43,3.33A4.76,4.76,0,0,0,123.66,77a1,1,0,0,0,.85,0,.39.39,0,0,0-.25-.42c-1.76-1-2.81-2.64-4.23-3.89a3.59,3.59,0,0,1-.78-1.08,1.29,1.29,0,0,1,.36-1.78,1.37,1.37,0,0,1,.37-.17,21.74,21.74,0,0,1,3.35-1,21.48,21.48,0,0,1,2.33-.41c.78-.08,1,.17.88.89a4.75,4.75,0,0,0,3.19,4.95,9.39,9.39,0,0,1,1.88.61.48.48,0,0,1,0,.49,1,1,0,0,1-.87.39,7.56,7.56,0,0,0-1.93.47,4.79,4.79,0,0,0-2.29,7.78c1,1.23,1,1.37-.62,1.61a5.67,5.67,0,0,0-3.34,1.87,1.57,1.57,0,0,1-1.35.6,6.08,6.08,0,0,0-5.11,2.43l-.36.46c-.33.45-.67.47-1.1.1a7.29,7.29,0,0,0-2-1.29,1.13,1.13,0,0,0,.85,1.22c1.38.39,1.62,1.25,1.55,2.58s1,2.41,2,3.33a11.42,11.42,0,0,0,4.12,2.57,1.66,1.66,0,0,1,1.2,1.32,2.68,2.68,0,0,0,2.53,2.24c.18,0,.39.06.52-.15,0-.28-.29-.39-.47-.55-1.68-1.65-1.61-3.24.28-4.67a7,7,0,0,1,3.11-1.28.62.62,0,0,1,.8.38l0,.1a6.42,6.42,0,0,0,2,3c.56.51.52.65-.17,1a9.3,9.3,0,0,0-4,3.45c-1,1.55-.95,2.48.29,3.89a2,2,0,0,1,.27.31c.08.14.21.29.08.45s-.25.1-.38.08a3.58,3.58,0,0,1-.64-.18c-3.07-1.1-6.09-2.33-9-3.72a110.51,110.51,0,0,1-11.91-6.35,58.21,58.21,0,0,1-11.41-9.29,24.21,24.21,0,0,1-2.6-3.11c-.34-.54-.58-.44-.77.07a12.85,12.85,0,0,0-2.17,5,40.82,40.82,0,0,0-1.3,7.36,25.86,25.86,0,0,0,.16,3A82.74,82.74,0,0,1,87,115.25a122.8,122.8,0,0,1-2,13.85,52.37,52.37,0,0,1-3.89,11,14.18,14.18,0,0,1-1.49,2.48,81.39,81.39,0,0,1-7,8.29,18.79,18.79,0,0,1-7.21,4.35,5.73,5.73,0,0,1-2.47.11c-.58-.05-.85-.52-.91-1.11a4.15,4.15,0,0,1,.59-2.2,38.67,38.67,0,0,0,3-7.37,20.36,20.36,0,0,0,.73-3.7,1,1,0,0,1,0-.65c.49-2.61.59-5.26.91-7.89a18.56,18.56,0,0,0-.73-7.33,63.8,63.8,0,0,1-1.43-8.23A3.72,3.72,0,0,1,65.17,115.68Z"/><path class="cls-1" d="M183.07,75.86a75.42,75.42,0,0,1,6,5.72,21,21,0,0,0,2,1.77c-.5.39-.93.07-1.37-.12a1.83,1.83,0,0,0-1.25-.39c1.09.78,2.38,1,2.63,2.45a1,1,0,0,0,.21-1.13c-.09-.27-.4-.49-.24-.82a3,3,0,0,1,2.22,4c-.25.78-1,1.25-1.26,1.91s.2,1.48-.07,2.25a3.73,3.73,0,0,1-3,2.56,7.4,7.4,0,0,0-4.31,2.54,36.35,36.35,0,0,1-5.7,5.25c-2.18,1.07-4.46,1.93-6.64,3a29,29,0,0,1-8.34,2.38c-2.34.38-4.73.91-7.13,1.09a29.16,29.16,0,0,1-7.35-.15,14.74,14.74,0,0,1-3.44-1.41c-.74-.34-.87-1.35-.39-2.29.78-1.45,1.6-2.84,2.44-4.24A11.71,11.71,0,0,0,150,95.32a5.53,5.53,0,0,0,0-1.15,8.16,8.16,0,0,0-.67-2.47A5.3,5.3,0,0,1,149.8,86a5.1,5.1,0,0,0,.52-4.67c-.6-1.81-1.4-3.55-1.9-5.39-.13-.45-.38-.9.07-1.31.4-.12.44.25.56.46a1.65,1.65,0,0,0,1.32.86,12.17,12.17,0,0,0,2.41.34,2.38,2.38,0,0,0-1-1.26c-.58-.51-.61-.78-.06-1.29a11.52,11.52,0,0,1,4.09-2.44l2.53-1a5.93,5.93,0,0,1,4-.11,15.66,15.66,0,0,1,2.56,1c3.49,1.79,7,3.61,10.38,5.52.27.16.65.25.57.7-.25.16-.49,0-.72,0-3.72-.77-6.47.93-7.65,4.4a5.22,5.22,0,0,0,2.09,5.91,6.79,6.79,0,0,0,7.86,0A5.45,5.45,0,0,0,179,80.14,5.61,5.61,0,0,0,178,79c-.24-.21-.57-.36-.59-.77.29-.32.56-.08.77,0,2.19,1.23,4.5,2.22,6.69,3.45a2.64,2.64,0,0,0,2.06.38c.54-.14.47-.36.25-.68-.42-.58-.93-1.09-1.38-1.65-.89-1.08-1.77-2.18-2.63-3.29C183,76.35,182.67,76.16,183.07,75.86Z"/><path class="cls-2" d="M148.56,74.56a1.1,1.1,0,0,0,0,1.11c.62,1.77,1.22,3.53,1.87,5.29a5.63,5.63,0,0,1-.63,5.45,4.48,4.48,0,0,0-.39,4.77c1.65,3.25.78,6.19-1,9q-1.35,2.14-2.53,4.36c-.62,1.18-.3,1.86.94,2.34a12.77,12.77,0,0,0,3.65,1.22,30.48,30.48,0,0,0,6,0c3-.33,6-1,9-1.42a28.24,28.24,0,0,0,7.59-2.47c1.83-.85,3.68-1.64,5.52-2.44a.72.72,0,0,1,.31,0,45.58,45.58,0,0,1-9,5.58,54.63,54.63,0,0,1-5.81,1.56,48.64,48.64,0,0,1-10.85,1.68c-2.62.22-5.22.54-7.79.82-2.26.32-4.56.29-6.83.51a23.8,23.8,0,0,1-4.54-.31c-2.2-.2-4.4-.36-6.6-.63a29.79,29.79,0,0,1-4.83-1.16c-.23-.07-.49-.13-.58-.41a55.32,55.32,0,0,0-5.78-2.45,22.61,22.61,0,0,1-4.67-2.26,99.64,99.64,0,0,1-11.78-8.52c-2.51-2.23-5.18-4.32-7.11-7.13a16.84,16.84,0,0,1-1.75-3c.06-.26-.33-.62.11-.78s.56.21.78.47a47.4,47.4,0,0,0,8,8.17,75.53,75.53,0,0,0,14.06,8.8A110,110,0,0,0,127,108.41c.22.08.45.14.87.26a14.08,14.08,0,0,1-1.12-1.2,2.82,2.82,0,0,1,0-3.32,9.5,9.5,0,0,1,4.78-4A6.71,6.71,0,0,1,129,96.57c0-.24-.16-.29-.41-.24a6.46,6.46,0,0,0-3.85,1.9,2.21,2.21,0,0,0-.13,3.13,1.59,1.59,0,0,0,.13.13c.2.23.45.42.64.65s.68.24.56.62-.57.26-.88.26a2.93,2.93,0,0,1-2.84-2.52,1.11,1.11,0,0,0-.83-1,12,12,0,0,1-5.84-4.39,3.51,3.51,0,0,1-.6-2.84c.15-.64-.08-.78-.58-.9a3.52,3.52,0,0,1-1.76-1.18.62.62,0,0,1-.1-.82c.23-.27.49-.06.73.1a6.56,6.56,0,0,1,1.36.93c.65.77.93.46,1.43-.18a6.12,6.12,0,0,1,5.65-2.6.57.57,0,0,0,.58-.19,6,6,0,0,1,4.37-2.34,3,3,0,0,0,.66-.2c-.38-.47-.78-.88-1.07-1.32a5.19,5.19,0,0,1,.62-6.64,7.54,7.54,0,0,1,3.76-1.55c.35-.07.71-.11,1.06-.17a1.36,1.36,0,0,0,.46-.57,5.55,5.55,0,0,1,3.11-3.26,1.16,1.16,0,0,0,.39-.26,5.69,5.69,0,0,1-1.41-1.93,3.16,3.16,0,0,1-.15-1.87c.15-.5,0-.78-.53-.78a5.9,5.9,0,0,0-4.67,1.88,2.48,2.48,0,0,0,.32,3.38A10.12,10.12,0,0,0,131.74,74c.4.23.7.54,0,.78a5.81,5.81,0,0,1-5.3-3.84,3.2,3.2,0,0,1,0-1.79c.13-.46,0-.73-.48-.66a27.47,27.47,0,0,0-6.08,1.44.92.92,0,0,0-.59,1.16.68.68,0,0,0,.1.21,3.58,3.58,0,0,0,.66,1c1.5,1.37,2.61,3.11,4.45,4.15.23.11.62.25.46.57s-.49.29-.85.27c-2.06-.13-3.29-1.49-4.48-2.93A7,7,0,0,1,118,71.64a2.75,2.75,0,0,1,1.25-3c.73-.4,1.43-.78,2.13-1.23a3,3,0,0,1,1.83-.67c.51-.09,1-.17,1.55-.23a.1.1,0,0,0,0-.14h0c-1.27-1.5-1.19-2.6.34-3.79a17.74,17.74,0,0,1,4.47-2.71,6.8,6.8,0,0,1,.86-.31c.45-.11,1.1-.35,1.29.11s-.52.55-.87.78a29.16,29.16,0,0,0-4.67,3.69c-.45.44-.37.78.13,1.14l1.17.78a1.28,1.28,0,0,0,1.18.17,10.13,10.13,0,0,1,4.51-.42,2.85,2.85,0,0,0,1.73-.41c-.11-.38-.43-.38-.65-.5a1.44,1.44,0,0,1-.58-2.23,7.4,7.4,0,0,1,2.91-2.64c1.55-.91,3.19-1.81,5.13-1.6h.5c.28,0,.56.14.58.48s-.27.4-.51.46A14.48,14.48,0,0,0,139,60.73a12.83,12.83,0,0,0-2.87,2.08c-.25.23-.69.46-.38.88s.7.72,1.14.47c1.39-.78,3.11-.83,4.38-1.89a9.83,9.83,0,0,1,4.27-1.94c.47-.09,1.17-.32,1.34.21s-.58.59-1,.78a21.79,21.79,0,0,0-3.42,2c-.78.58-.78.68,0,1.12,1.55.77,2.91,1.91,4.67,2.33.29.08.59.2.59.59-.21.39-.59.35-.94.38a10,10,0,0,0-3.36.86,1.94,1.94,0,0,0-1.29,2.71,6.42,6.42,0,0,0,1,2.19,4.73,4.73,0,0,1,.35.56c.92,1.63.84,1.9-.77,2.85a11.44,11.44,0,0,0-2.79,2,2.71,2.71,0,0,0-.5,3.68c.35.72.65,1.47,1,2.21a1.56,1.56,0,0,0,.56.78c.54.32.4.7.09,1.1a4.29,4.29,0,0,1-.67.61,7.7,7.7,0,0,0-2.74,4.24,3.39,3.39,0,0,0,.73,3.18c.23.27.45.55.67.83.57.78.55,1.33-.19,1.85a16.81,16.81,0,0,0-3,3.17,3.11,3.11,0,0,0-.35,3.63,11.47,11.47,0,0,0,2.6,3.53c.24.22.61.41.4.78a.89.89,0,0,1-1,.33,3.1,3.1,0,0,1-1.5-.83,8,8,0,0,1-2.85-6.44,9.21,9.21,0,0,0-4.5,4.1,1.06,1.06,0,0,0,.25,1.22,8.43,8.43,0,0,0,1.42,1.38c.23.18.59.32.42.71a.54.54,0,0,1-.6.31,47.81,47.81,0,0,0,12.62,1.25,5.44,5.44,0,0,1-2.17-1.56,3.54,3.54,0,0,1-.45-4.09,28,28,0,0,1,3.37-5.31,6.25,6.25,0,0,0,1.23-2,5,5,0,0,0-.42-3.54c-.28-.61-.67-1.15-1-1.74a4.83,4.83,0,0,1,.78-5.89,3.72,3.72,0,0,1,.52-.53c1.62-1.22,2.09-3,2.33-4.86a6.85,6.85,0,0,0-.5-3.07,13.26,13.26,0,0,1-.78-2.1,3.19,3.19,0,0,1,.36-2.24,14.27,14.27,0,0,1,4.94-5.68c.48-.27.6-.54,0-.85s-.89-.56-1.37-.78c-1.34-.58-2.56-1.39-3.89-2.06a.86.86,0,0,1-.61-1.07.83.83,0,0,1,.54-.58,16.69,16.69,0,0,1,2.76-1.33,16.48,16.48,0,0,0,4.56-2.17c-1.2-.38-2.41-.33-3.51-.71a.15.15,0,0,1-.07-.14v-.08a15,15,0,0,1,4.52.64c1.84.45,3.77.32,5.63.78a19.2,19.2,0,0,1,9,4.47c.26.24.54.46.78.69s.29.36-.06.48a1.26,1.26,0,0,1-.83-.32c-.58-.38-1.18-.73-1.72-1.15-2.51-2-5.45-2.5-8.57-2.59a20.65,20.65,0,0,0-9.43,1.77c-.22.1-.57.1-.58.39s.33.35.54.45c1.85.86,3.52,2.09,5.45,2.82a1.77,1.77,0,0,1,.55.35c.33.31.36.61,0,.89a7.21,7.21,0,0,1-1.13.68,12.59,12.59,0,0,0-3.84,3.12,3.37,3.37,0,0,0-.91,2.33A.74.74,0,0,1,148.56,74.56Z"/><path class="cls-2" d="M106.59,65a60.31,60.31,0,0,0-5.77,2,70.25,70.25,0,0,0-11.35,5.74c-1.22.69-2.4,1.48-3.68,2-1.73.78-3.33,1.87-5.11,2.52a20.47,20.47,0,0,1-4.05.64,33.22,33.22,0,0,0-3.57.47,4.29,4.29,0,0,1-2.22.48c-1.72.25-3.46.29-5.18.45a24.51,24.51,0,0,0-5.67.55c-2.74.51-5.51.85-8.26,1.26-.71.1-1.41.32-2.11.41A40.42,40.42,0,0,0,37.68,85c-.43.19-.86.37-1.3.53A49.37,49.37,0,0,0,28,89.09,59.62,59.62,0,0,0,18,95.61a56.19,56.19,0,0,0-4.22,4c-.29.29-.58.73-1.11.39a8.88,8.88,0,0,0,0-1.63A2.55,2.55,0,0,0,10,96a2.58,2.58,0,0,0-.29,0l-.33.07c-.78.17-1.74.49-2.21-.28A2.93,2.93,0,0,1,7,92.49a16.09,16.09,0,0,1,6.58-6.22,1,1,0,0,0,.67-1.13,1,1,0,0,0-1-.81c-.49,0-.85-.09-1.28-.14-.89-.11-1.16-.53-.77-1.37.44-1,1-1.89,2.33-1.83a2.57,2.57,0,0,0,2.77-1.64c1.25-3.06,4-3.81,6.86-4.27a52.27,52.27,0,0,1,8.28-.69c5.86,0,11.68-.42,17.56-.46,4.84,0,9.65.49,14.47.88q1,.07,2,.09c2,0,4,.1,6,.13A60.07,60.07,0,0,0,83,74.3a3.73,3.73,0,0,1,1.56,0,2.25,2.25,0,0,0,1.79-.53c3.28-2,6.58-3.89,10-5.65,1.69-.86,3.4-1.66,5.1-2.49a21.36,21.36,0,0,1,4.18-1.78c2.33-.78,4.58-1.9,6.89-2.81A72.19,72.19,0,0,1,128,57a28.26,28.26,0,0,1,4.95-.23h1a26.23,26.23,0,0,1,4.43.38c2.48.13,5,.27,7.43.54-.11.48-.53.31-.83.38-3.81,0-7.62,0-11.42,0a37.37,37.37,0,0,0-7.88.93,123.74,123.74,0,0,0-13.3,4,36,36,0,0,0-5,1.84A1,1,0,0,1,106.59,65Z"/><path class="cls-1" d="M122.06,109.55a34.49,34.49,0,0,0,4.36,1.14c1.76.27,3.53.52,5.3.64,2.14.14,4.27.42,6.4.51,1.79.08,3.55-.46,5.34-.32.66,0,1.32,0,2,0-.63.07-.86.39-.93,1.06a48.82,48.82,0,0,1-.72,6.16,19.15,19.15,0,0,1-3,6.68,5.44,5.44,0,0,1-2.81,2.06,1.36,1.36,0,0,0-.89.78A10.23,10.23,0,0,1,133,132.6a3,3,0,0,1-2.21.62c-.29-.06-.46.17-.64.32a7.28,7.28,0,0,1-2.76,1.29,1.87,1.87,0,0,1-2.22-.6,19,19,0,0,0,5-4.07,6.4,6.4,0,0,0,.69-1.26,7.37,7.37,0,0,1-2.76,3.19c-.64.43-1.17,1-1.78,1.47s-.94.51-1.42,0c-.33-.34-.68-.24-1.07-.12-.92.29-1.8.7-2.74,1a1,1,0,0,1-1.18-.36.81.81,0,0,1,0-1.15l0,0a.32.32,0,0,1,.3.06c1.07.78,1.41.84,2.39,0A13.59,13.59,0,0,0,126.1,128c.33-.78.63-1.56,1-2.29a10.39,10.39,0,0,1,2.58-3.8,28.54,28.54,0,0,0,5.2-6.72,1.24,1.24,0,0,0,.29-1,2.32,2.32,0,0,0-.88.85c-1,1.36-1.94,2.74-3,4.09a40.32,40.32,0,0,1-7,7.47,17.07,17.07,0,0,0-3.66,4.37,13.1,13.1,0,0,0-.57,1.63c-.41.06-.52.39-.68.7s-.11.64-.41.84a8.86,8.86,0,0,0-1.78-.15,4.08,4.08,0,0,1-3.38-2.52c.33-.21.55.07.77.19s.5.35.83.23a2.35,2.35,0,0,0,3-.21,1.44,1.44,0,0,0,.59-.78c.27-1.56,1.4-2.59,2.28-3.78a25.75,25.75,0,0,1,5.3-5.07,9.19,9.19,0,0,0,2.86-4,1.53,1.53,0,0,0-1.23.55,26.13,26.13,0,0,0-2.49,2.87,16.12,16.12,0,0,1-3.38,3.27,5.53,5.53,0,0,0-1.46,1.55,3.72,3.72,0,0,1-1.9,1.26.39.39,0,0,1-.39-.07c-.05-.36.24-.54.42-.78s.41-.38.15-.63-.47,0-.67.11a5.49,5.49,0,0,0-1.14.95,17.38,17.38,0,0,1-2.76,2.23.8.8,0,0,1-.78.16,5.34,5.34,0,0,1-3.73-3.48,3.76,3.76,0,0,1,1.16-3.78l.38-.32c.27-.31.17-.52-.22-.54s-1-.15-1.56-.19a4.14,4.14,0,0,1-3.06-1.4c-.32-.35-.52-.14-.78.09s-.22.78-.52,1.11a4.65,4.65,0,0,1-.67-1.55,6,6,0,0,0-.42-1.16,2.25,2.25,0,0,1,1.48-3.62c1.83-.47,3.72-.78,5.55-1.29,3.44-1,6.76-2.34,10.17-3.51A.54.54,0,0,0,122.06,109.55Z"/><path class="cls-2" d="M65.17,115.68c.17,1.77.47,3.52.72,5.29s.7,3.38,1.08,5.07a20.06,20.06,0,0,1,.36,8.09,20.82,20.82,0,0,0-.39,4.17,9.45,9.45,0,0,1-.51,2.58,43.44,43.44,0,0,1-3.76,4,21.15,21.15,0,0,1-10.84,6.18,23.92,23.92,0,0,1-3.55.78,1.71,1.71,0,0,1-1.93-1.19,1.18,1.18,0,0,1,0-1.25,13.92,13.92,0,0,1,2.33-2.75,1,1,0,0,0,.3-1.15,6,6,0,0,1,.57-4.48,1.3,1.3,0,0,0,0-1.44,2,2,0,0,1-.15-1.56,7.36,7.36,0,0,1,.78-2,49.45,49.45,0,0,1,5.63-8.42,109.33,109.33,0,0,0,7.55-9.21C64,117.54,64.56,116.6,65.17,115.68Z"/><path class="cls-3" d="M36.25,85.35a47.27,47.27,0,0,1,12.19-4,9.55,9.55,0,0,1,1.07,0c1.56-.12,3.12-.4,4.68-.4a13.06,13.06,0,0,0,3.8-.78,24.31,24.31,0,0,1,4.94-.84c.9-.09,1.79-.21,2.68-.33l7.45-.68a13.53,13.53,0,0,0,1.56,0,.79.79,0,0,1,.92.61v0c-.58.53-1.36.39-2,.47a66.07,66.07,0,0,0-12.58,2.86,42.15,42.15,0,0,0-4.77,1.81c-1,.47-2,1-3,1.5-.3.2-.71.18-1,.48s-.84.4-1.16.78a19.44,19.44,0,0,0-2.34,1.35c-4.14,2.34-7.78,5.35-11.55,8.16l-.55.37c-1.28.83-2.34,2-3.51,2.9a13.63,13.63,0,0,1-6.17,3.21A3.46,3.46,0,0,0,25,104.15a11.66,11.66,0,0,1-5.77,3.56,13.13,13.13,0,0,0-1.3.53,2.59,2.59,0,0,1-1.19.33c-1.55-.19-3,.47-4.54.68a3.61,3.61,0,0,1-2.81-1.47,2.41,2.41,0,0,1,1.56-3c1-.36,1.6.17,1.43,1.19s0,1.36,1.08,1.42a15.7,15.7,0,0,0,6.35-1.13c.64-.23,1-.82,1.52-1.26a13.51,13.51,0,0,1,3.15-2.2,3.09,3.09,0,0,0,1.89-2,2.55,2.55,0,0,1,.65-1c2-2,3.89-4.13,6.11-5.94a52.75,52.75,0,0,1,5.62-3.51,78.9,78.9,0,0,1,10.65-5.41,24.66,24.66,0,0,0,2.29-1.17,19.84,19.84,0,0,1,4.2-1.56c1.4-.13,2.7-.72,4.07-1a20,20,0,0,0-4.51,1,75.5,75.5,0,0,0-7.13,2.68c-1.1.47-2.21.93-3.37,1.3a38.52,38.52,0,0,0-8.46,3.62,2.26,2.26,0,0,0-.92.45l-.19.12a30.53,30.53,0,0,0-5.84,3.61c-2.46,2-5.32,3.35-7.93,5.1a30.93,30.93,0,0,1-6.06,3.3c-.31.12-.62.22-.94.33a1.21,1.21,0,0,1-1.43-1.89,8.86,8.86,0,0,1,2-2.15,51.83,51.83,0,0,1,8.64-5.81,18.75,18.75,0,0,0,3.32-2.34A39.67,39.67,0,0,1,36.25,85.35Z"/><path class="cls-3" d="M148.56,74.56c-.3-2.49,1.47-3.73,3.06-5.1a29.92,29.92,0,0,1,2.85-1.76c.53-.36.28-.5,0-.67s-.77-.33-1.11-.52q-2.67-1.41-5.32-2.85c-.15-.08-.41-.14-.38-.37s.27-.26.44-.33a20.29,20.29,0,0,1,8.52-2,34.22,34.22,0,0,1,6.07.5A10.07,10.07,0,0,1,165.94,63c1.13.69,2.23,1.42,3.34,2.13.5.08.77.56,1.26.7s.94.78,1.46,1c.92.56,1.65,1.37,2.6,1.89a3.74,3.74,0,0,1,1.19,1,1.07,1.07,0,0,0,.66.64c.28.2.44.5.72.68h.06c.27.15.44.42.72.55l.12.11c.18.11.32.26.5.38a38.31,38.31,0,0,1,4.5,3.74c.17.77.81,1.21,1.25,1.79.86,1.14,1.81,2.2,2.74,3.29.3.36.78.91.54,1.18a1.7,1.7,0,0,1-1.46.31,6.1,6.1,0,0,1-1.69-.65l-6.8-3.55a1,1,0,0,0-.25,0,1.77,1.77,0,0,1-1.49-.78c-.37-.57-1-.69-1.56-1-3.52-2-7-3.9-10.7-5.59a6.83,6.83,0,0,0-5.81-.11c-1.77.78-3.65,1.27-5.2,2.47-.21.17-.42.36-.64.52-.69.48-.54.83.11,1.25.49.32,1.12.84.95,1.38s-.88,0-1.34,0a10.49,10.49,0,0,1-2-.38C149,75.86,148.84,75.12,148.56,74.56Z"/><path class="cls-3" d="M133.94,57h-1c-3.62-.36-7.19-1.1-10.82-1.4a55.87,55.87,0,0,0-15.16.88,48.41,48.41,0,0,0-5.16,1.24,8.18,8.18,0,0,0-2.18,1c-1,.66-1.78.22-1.89-1a2.21,2.21,0,0,1,.78-1.83,8.37,8.37,0,0,1,3.4-2.14,7.16,7.16,0,0,0,1.34-.56,15.78,15.78,0,0,1,3.82-1h-2.53c-.39,0-.72.07-.88.47s-.43.48-.71.66a5.27,5.27,0,0,1-1.08.4c-.37.12-.64.33-1,.07-.74-.34-1.61-.5-1.86-1.45a2.82,2.82,0,0,1,1.56-2.62,8.45,8.45,0,0,1,4-1.32,26.38,26.38,0,0,1,6.64.27c.58.21,1.21.14,1.61.34a5.19,5.19,0,0,0-1.1-.2,25.68,25.68,0,0,0-5.37-.78,7.07,7.07,0,0,0-2.19.35c-1.08.36-1.56.16-2.1-.91a2,2,0,0,1,1.17-2.25c.12-.06.27-.09.28-.25a4.78,4.78,0,0,1,2.5-.41,36.53,36.53,0,0,1,11.49,2.06c0,.37.39.15.56.29a1.53,1.53,0,0,0,.69.26c2.77,1,5.36,2.43,8.08,3.54a40.71,40.71,0,0,1,5.24,2.42c.44.25.87.53,1.33.78a9.39,9.39,0,0,1,1.17.83.48.48,0,0,1,.26.64.42.42,0,0,1-.09.14.67.67,0,0,1-.89.14c-1.61-.78-3.33-1.23-5-1.93a2.64,2.64,0,0,1-.88-.38,2.65,2.65,0,0,0,.84.38,19.79,19.79,0,0,1,4.68,2.53C133.79,56.47,134.16,56.58,133.94,57Z"/><path class="cls-1" d="M51.69,83.85A25,25,0,0,1,47.25,86a78.91,78.91,0,0,0-9.57,5.08,31.77,31.77,0,0,0-4.91,3.19c-1.12,1-2.14,2.07-3.21,3.12-.71.7-1.4,1.41-2.12,2.09a3.76,3.76,0,0,0-1.07,1.74,2.63,2.63,0,0,1-1.56,1.55,14.31,14.31,0,0,0-4.13,3c-1,1-2.33,1.09-3.57,1.34a11.84,11.84,0,0,1-3.35.42,4.17,4.17,0,0,1-1.2-.27c-.52-.22-.85-.51-.49-1.14a1,1,0,0,0-.08-1.22c-.41-.42-.85-.13-1.22,0a2,2,0,0,0-1.24,2.4.33.33,0,0,1-.15.35,2.29,2.29,0,0,1-.23-2.84,4.39,4.39,0,0,1,.88-1.09,3.56,3.56,0,0,0,1.56-2.42c.05-.68.78-1,1.13-1.46.42.06.67-.21.91-.48a51.56,51.56,0,0,1,11.11-8.78,60.67,60.67,0,0,1,10.9-5.15,4.56,4.56,0,0,1,.64-.14c-1.36.73-2.69,1.51-4.08,2.17a27.19,27.19,0,0,0-5.45,3.59,57.5,57.5,0,0,1-5.55,3.43,41.18,41.18,0,0,0-7.26,5.55,3.16,3.16,0,0,0-.4.42c-.33.5-.78,1-.3,1.65s1,.39,1.56.2a42.16,42.16,0,0,0,7.56-4c3.4-2,6.58-4.3,9.84-6.51a12.24,12.24,0,0,1,3.21-1.66c.07.39-.25.53-.49.67a44,44,0,0,0-7.35,6,21.15,21.15,0,0,1-4.68,3.16,20.17,20.17,0,0,0-4.59,2.71c4.79-1.29,9.06-3.16,12.27-7a30.67,30.67,0,0,1,9.34-7.28A34.21,34.21,0,0,1,45.17,86c1.08-.4,2.16-.84,3.23-1.26.78-.28,1.56-.66,2.34-.89C51.06,83.77,51.38,83.59,51.69,83.85Z"/><path class="cls-1" d="M102.1,53.85a10.3,10.3,0,0,0-3.79,2.7A1.67,1.67,0,0,0,98,57.62c0,.46,0,.9.51,1.12s.78,0,1.12-.26a13.14,13.14,0,0,1,5-1.78,71.3,71.3,0,0,1,7.54-1.22,36.81,36.81,0,0,1,5.84-.29,71.5,71.5,0,0,1,10,.92c1.56.26,3.12.48,4.62.73A2.39,2.39,0,0,1,133,57c-5.54-.13-10.83,1.25-16.09,2.74-3.61,1-7,2.7-10.46,4-1.67.63-3.3,1.35-5,1.86a7.39,7.39,0,0,1,.78-2.15c.08-.11-.11-.13-.21-.16-.26.16-.58,0-.85.14h-1c0-.4.36-.36.59-.47a5.56,5.56,0,0,0,1.72-1c0-.12-.06-.14-.13-.14-.33,0-.84.32-1-.08s.46-.54.78-.69a23.7,23.7,0,0,1,6.22-1.79c4.09-.74,8.23-1.09,12.31-1.83a24.75,24.75,0,0,0,4.26-1,4.63,4.63,0,0,0-1.38-.27A62.59,62.59,0,0,0,105,57.58a12.4,12.4,0,0,0-4.75,2.29,3.63,3.63,0,0,0-.78.83,1.48,1.48,0,0,0,.1,2.09l.13.1c.12.12.4.21.22.45s-.31.07-.46,0a2.41,2.41,0,0,1-1.74-2.92,2.15,2.15,0,0,1,.18-.48,1.15,1.15,0,0,0,0-1.26,2.56,2.56,0,0,1,.51-3.12A7.65,7.65,0,0,1,101,53.85l1-.16C102.1,53.62,102.14,53.7,102.1,53.85Z"/><path class="cls-1" d="M12.19,109.22a8,8,0,0,1,3.94-.84,1.52,1.52,0,0,0,.67,0c2-.84,4.17-1.22,6-2.52,1.1-.78,1.92-1.9,3-2.69a2.51,2.51,0,0,1,1.2-.53c2.26-.29,4-1.63,5.74-2.92,1.33-1,2.37-2.29,3.83-3.11.12.44-.26.62-.49.86-1.79,1.88-3.78,3.54-5.72,5.26-.18.17-.37.33-.55.52.22.12.53-.07.67.21a.87.87,0,0,1-.41.68,23.29,23.29,0,0,1-6.87,4.42,3.28,3.28,0,0,0-1.08.6.77.77,0,0,0,.12,1.36,2.35,2.35,0,0,0,1.18.32,11.17,11.17,0,0,0,3.68-.45c.17,0,.36,0,.35.29a15.74,15.74,0,0,1-5.55,2.42,5.08,5.08,0,0,1-6.13-3.46c-.17-.47-.41-.49-.78-.41A6,6,0,0,1,12.19,109.22Z"/><path class="cls-3" d="M99.42,63.32c.11,0,.28,0,.32-.06s-.1-.11-.15-.16A1.54,1.54,0,0,1,99,61a1.64,1.64,0,0,1,.14-.22A7.56,7.56,0,0,1,103,58a28.81,28.81,0,0,1,7.44-1.7,56.64,56.64,0,0,1,8.63-.59,48.43,48.43,0,0,1,6,.28c.19,0,.46,0,.48.22s-.26.38-.51.45a39.91,39.91,0,0,1-4.33,1c-4.92.89-9.92,1.2-14.8,2.34a12.09,12.09,0,0,0-4.46,1.82c.34-.11.66-.23,1-.31a.41.41,0,0,1,.52.13c.11.2-.11.35-.24.46a8.29,8.29,0,0,1-2.6,1.36A.8.8,0,0,1,99.42,63.32Z"/><path class="cls-2" d="M105.58,121a1.78,1.78,0,0,1,.28-1.19c.48-.64.73-.6,1.23,0a4,4,0,0,0,2.34,1.15,15,15,0,0,0,2.13.18c.25,0,.52,0,.63.28s-.12.56-.35.69a3.62,3.62,0,0,0-1.55,3c-.19,1.35.72,2.18,1.55,3a9,9,0,0,0,.78.6c1,.72,1.37.67,2.45,0,1.26-.73,2.12-1.92,3.29-2.74a3.27,3.27,0,0,1,.56-.35c.28-.12.48.06.63.26a.41.41,0,0,1,0,.58h0c-.27.31-.55.62-.83.92s-.53.54-.85.73a13.44,13.44,0,0,0-1.39.87c-.89.61-1.46,1.33-1,2.48a.44.44,0,0,1,0,.4c0,.34-.23.2-.4.13-.41-.16-.7-.53-1.15-.61a3.07,3.07,0,0,0-2-1.47,6.25,6.25,0,0,1-2.77-2,3.13,3.13,0,0,1-.3-3.55,6.63,6.63,0,0,1,.55-1.42,5,5,0,0,1-1.79-.36A3.42,3.42,0,0,1,105.58,121Z"/><path class="cls-2" d="M120,132.91c0,.38-.35.78.06,1.15a1.16,1.16,0,0,0,1.3.08l2.73-.95c.33-.12.64-.19.86.18.36.61.78.38,1.19.09,1.88-1.5,4-2.84,4.85-5.26,0-.06.12-.11.36-.32a6.29,6.29,0,0,1-2.38,3.83,28.18,28.18,0,0,0-2.58,2,1.61,1.61,0,0,1-1.26.49c-.28-.25-.47-.21-.78.07a4,4,0,0,1-3.38,1.5,2.42,2.42,0,0,1-2-1.66,3.55,3.55,0,0,1,.53-1.51c.17-.38.32-.22.49,0A.2.2,0,0,1,120,132.91Z"/><path class="cls-4" d="M111.39,48.88c-1.39-.1-2.79-.26-4.19-.29a11.85,11.85,0,0,0-6.09,1.1,4,4,0,0,0-2,2.71,2.45,2.45,0,0,1,1.19-3.26l.15-.07a1.15,1.15,0,0,1,.23-.1c.93-.25,1.88-.48,1.15-1.8a2.37,2.37,0,0,1,.14-.29c.45,0,.13.41.33.51.51,1.08.93,1.17,2,.78A7.65,7.65,0,0,1,108,48c1.29.2,2.58.51,3.89.78C111.84,49.13,111.59,48.93,111.39,48.88Z"/><path class="cls-5" d="M133.94,57a8.9,8.9,0,0,0-2.44-1.78c-.87-.5-1.79-.91-2.69-1.36a.14.14,0,0,1-.05-.11s0-.06.05-.06A27.33,27.33,0,0,1,134,55.53c.23.1.47.23.67,0s.06-.51-.2-.67c0-.17,0-.25.2-.19,1.32.78,2.55,1.63,3.8,2.49A40.09,40.09,0,0,1,133.94,57Z"/><path class="cls-6" d="M132.13,53.35c-4.24-2-8.57-3.83-12.84-5.67l-.59-.3c0-.33.2-.22.38-.19a54,54,0,0,1,6.67,2.51,48.8,48.8,0,0,1,6.55,3.47C132.34,53.33,132.31,53.41,132.13,53.35Z"/><path class="cls-7" d="M27.45,110.68l-.33-.14a14.69,14.69,0,0,1,3.82-2.34.31.31,0,0,0,.3.16A20.16,20.16,0,0,1,27.45,110.68Z"/><path class="cls-8" d="M107.52,122.67l2.17.21-.92,1.55C109,123.35,108.25,123,107.52,122.67Z"/><path class="cls-9" d="M174.59,68.77c-.07.11-.18.17-.27.09L171.93,67c0-.1.1-.12.17-.16A11.08,11.08,0,0,1,174.59,68.77Z"/><path class="cls-10" d="M102.26,47.39l-.33-.51a2.12,2.12,0,0,1,1.64-1.83c.09.22.1.24-.1.32A1.79,1.79,0,0,0,102.26,47.39Z"/><path class="cls-11" d="M172.1,66.79l-.17.16-1.49-1c0-.12-.11-.23,0-.35C171.16,65.77,171.53,66.43,172.1,66.79Z"/><path class="cls-12" d="M119.08,47.19c-.14,0-.31,0-.38.19a12.45,12.45,0,0,1-1.21-.44c-.39-.18-.06-.19.07-.24A5.41,5.41,0,0,1,119.08,47.19Z"/><path class="cls-13" d="M170.44,65.61c0,.12.2.23,0,.35a3.94,3.94,0,0,1-1.16-.82c.18-.12,0-.26,0-.39C169.81,64.87,170,65.41,170.44,65.61Z"/><path class="cls-14" d="M149.38,58.17v.14a3.07,3.07,0,0,1-2.15-.13c-.1-.17,0-.26.14-.31C148,58.06,148.76,57.81,149.38,58.17Z"/><path class="cls-15" d="M147.38,57.87l-.17.13a1.81,1.81,0,0,1-2.15-.16c.27-.06.58.1.83-.16Z"/><path class="cls-16" d="M46.35,149.44v1.24C45.68,150.34,45.68,150.2,46.35,149.44Z"/><path class="cls-17" d="M132.13,53.35l.17-.18a3.46,3.46,0,0,1,1.15.69c.06,0,.07.07.06.1s0,0-.06,0A3.11,3.11,0,0,1,132.13,53.35Z"/><path class="cls-18" d="M133.45,54.05V53.9a3.7,3.7,0,0,1,1.21.78l-.2.18A4.18,4.18,0,0,1,133.45,54.05Z"/><path class="cls-19" d="M177.16,71.07a1.25,1.25,0,0,1-.78-.64.06.06,0,0,1,0-.1s0,0,0,0C176.72,70.49,177.09,70.64,177.16,71.07Z"/><path class="cls-20" d="M176.42,70.28v.12c-.35-.1-.7-.2-.64-.67Z"/><path class="cls-21" d="M177.94,71.6a.83.83,0,0,1-.71-.55C177.61,71,177.78,71.31,177.94,71.6Z"/><path class="cls-3" d="M101.11,63.45c.25-.25.56-.15.85-.14A1.11,1.11,0,0,1,101.11,63.45Z"/><path class="cls-22" d="M178.56,72.09a.51.51,0,0,1-.5-.38C178.35,71.67,178.48,71.85,178.56,72.09Z"/><path class="cls-3" d="M145.06,57.84a6.21,6.21,0,0,0,2.15.16c.69.31,1.46.09,2.18.31l3.49.51c.2,0,.4.07.43.31s-.21.27-.37.36c-2.18,1.35-4.67,2-6.95,3.17-.36.19-.78.36-.74.87s.53.55.88.78c1.77,1.09,3.78,1.77,5.45,3,.7.54-.37.49-.52.78a4.23,4.23,0,0,1-3-.13c-.24-.07-.45-.22-.31-.55-.1-.09-.18-.25-.28-.28-2-.48-3.58-1.8-5.38-2.68-.78-.39-.46-.66,0-1A20.75,20.75,0,0,1,146.34,61a1.16,1.16,0,0,0,.59-.41,4.5,4.5,0,0,0-2.9.48,10.81,10.81,0,0,0-3.4,2,1.87,1.87,0,0,1-.9.39,8.89,8.89,0,0,0-2.56.91,1.73,1.73,0,0,1-1.8-.65c-.13-.3.11-.46.28-.63a14.72,14.72,0,0,1,6.23-3.75.52.52,0,0,0,.32-.07c.08-.07.52,0,.49-.31s-.3-.28-.52-.28a7.1,7.1,0,0,0-2.47.17,12.37,12.37,0,0,0-5.45,3.43c-1,1.19-.89,2.34.63,2.68.23.06.48.17.47.4s-.25.3-.42.35a3.82,3.82,0,0,1-2.08.32,8,8,0,0,0-3.89.4,1.57,1.57,0,0,1-1.68-.25,2.64,2.64,0,0,0-.35-.23c-1.72-1.14-1.76-1.19-.18-2.55a17.49,17.49,0,0,1,5.1-3.57,4.6,4.6,0,0,0-3.19.69,27.18,27.18,0,0,0-3.31,2.1c-1.3,1-2.1,2.27-.31,3.78a3.43,3.43,0,0,1,.24.33,15.11,15.11,0,0,0-3.94.71c-.78-.06-1.4.49-2.15.5a2.34,2.34,0,0,1-.36-3.29.12.12,0,0,1,0-.05,15.54,15.54,0,0,1,1.82-2,3,3,0,0,0,.67-.78,1,1,0,0,0-1,.26,12.9,12.9,0,0,0-2.34,2.08c-.17.18-.28.42-.55.48a4.51,4.51,0,0,0-1.82,3.63,2.09,2.09,0,0,1,0,.5.64.64,0,0,1-.57.51.51.51,0,0,1-.52-.44c-.25-.78-.48-1.56-.71-2.34a.78.78,0,0,1,.15-1,8.94,8.94,0,0,1,1.48-1.82c.2-.16.56-.36.37-.64s-.55,0-.78.11a5.51,5.51,0,0,0-3,4.53.64.64,0,0,1-.18.45,2.21,2.21,0,0,1-.35,1.41.78.78,0,0,0,0,1c.35.54-.09.88-.54,1.08a5.26,5.26,0,0,1-2.57.47,1.43,1.43,0,0,1-1.38-.42,3.13,3.13,0,0,1-.86-1.61c-.19-.58.34-1.06.26-1.62a5.42,5.42,0,0,0-2,.83.85.85,0,0,1-1,.35c-.67.26-1.33.54-2,.78a1.29,1.29,0,0,1-1.66-.5,1.27,1.27,0,0,1,.37-1.75h0A12.66,12.66,0,0,1,102.11,67a23,23,0,0,1,3.5-1.49,2.35,2.35,0,0,0,1-.53c3.68-1.79,7.65-2.8,11.5-4.11a71.93,71.93,0,0,1,9.34-2.41,33.64,33.64,0,0,1,5.66-.58c2.26-.06,4.53,0,6.79,0C141.61,57.73,143.33,57.89,145.06,57.84Z"/><path class="cls-3" d="M30.94,108.22a30.45,30.45,0,0,1-3.82,2.33,8.64,8.64,0,0,1-3.74.5,3.57,3.57,0,0,1-.65-.06c-.59-.15-1.12-.43-1.22-1.08s.43-1,.92-1.23c.91-.46,1.86-.85,2.77-1.31a19.64,19.64,0,0,0,5.24-4c.27-.78,1.06-1.08,1.6-1.56a107.39,107.39,0,0,1,9.68-8c.3-.21.54-.58,1-.5A34.64,34.64,0,0,0,46.35,91c6.27-4.23,12.91-7.65,20.44-9a43.5,43.5,0,0,1,4.61-.78,3.64,3.64,0,0,1,.66,0c.21,0,.42.06.45.29s-.22.33-.45.36a26.56,26.56,0,0,0-3.94.84A33.92,33.92,0,0,0,62,84.94c-.57.38-1.22.6-1.8,1-1,.47-2,.91-3,1.41a.83.83,0,0,1-.7.14,23.22,23.22,0,0,0-4.74,2.83,121.86,121.86,0,0,0-11.82,9.82c-2.54,2.33-5,4.77-7.67,7C31.83,107.51,31.38,107.85,30.94,108.22Z"/><path class="cls-2" d="M49.86,97.78c5-3.7,9.51-7.93,14.8-11.23A53.7,53.7,0,0,1,79,80.15,6.12,6.12,0,0,1,82.45,80a1.94,1.94,0,0,1,1.21.78c.2.37.39.37.72.28a2.76,2.76,0,0,1,1.56,0c-7.11,2.33-14.21,4.61-19.63,10.12-.23-.19-.19-.31-.08-.41A30.73,30.73,0,0,1,77,83.94c2-.78,4-1.72,6-2.64a5.72,5.72,0,0,0-3.7-.09,37.63,37.63,0,0,0-9.74,4,70.38,70.38,0,0,0-10.33,7.23,86.83,86.83,0,0,1-10.69,7.68c-.41.25-.78.68-1.37.48,0-.07-.06-.17,0-.22A12.76,12.76,0,0,1,49.86,97.78Z"/><path class="cls-2" d="M69.33,121.37c1.47-2.25,1.49-4.87,1.87-7.39.23-1.56.26-3.12.38-4.67.32-4.53.66-9,2.49-13.29a22.65,22.65,0,0,1,8-10.12,16.47,16.47,0,0,1,2.62-1.56,7.36,7.36,0,0,1,.71-.21c.23-.08.34,0,.4.15s-.07.26-.19.34A32.61,32.61,0,0,0,82.8,87a26.38,26.38,0,0,0-5.64,6.81A30.37,30.37,0,0,0,73,106.22,99.2,99.2,0,0,1,71.25,118a7,7,0,0,1-1.51,3.27A.33.33,0,0,1,69.33,121.37Z"/><path class="cls-1" d="M131.63,74.74c.55-.32.21-.48-.12-.64a7.69,7.69,0,0,1-2.68-2.29c-1.15-1.56-1.17-3.12.67-4.29a6.26,6.26,0,0,1,4.44-1.09c.45.07.47.2.36.57A3.5,3.5,0,0,0,136,71.12l-2,1.25a3.79,3.79,0,0,0-1.72,2.34c-.1.41-.29.56-.68.53Z"/><path class="cls-2" d="M67.45,106.77a26.3,26.3,0,0,1,.92-4.9,51.43,51.43,0,0,1,2.83-7.79,23.45,23.45,0,0,1,9.51-10.44,10,10,0,0,1,1.22-.49c.21-.08.46-.22.61,0s-.15.45-.32.56c-1.09.78-2.09,1.61-3.12,2.45a25,25,0,0,0-5.6,6.78,65.52,65.52,0,0,0-4.12,9.54,43.26,43.26,0,0,0-1.45,4.29c-.05.19-.09.43-.35.36S67.46,106.86,67.45,106.77Z"/><path class="cls-2" d="M71.16,137.84c-.23-.54.09-.92.23-1.34a85.61,85.61,0,0,0,3.35-12.91c.59-3.4.78-6.86,1.19-10.28a82.32,82.32,0,0,1,1.8-11,2,2,0,0,1,.16-.42c.32.55,0,1,0,1.35a7.15,7.15,0,0,1-.22,1.21c-.28,1.62-.46,3.25-.58,4.89-.41,5.5-.34,11-1.65,16.45a54.62,54.62,0,0,1-3.89,11.38C71.43,137.37,71.28,137.61,71.16,137.84Z"/><path class="cls-2" d="M56.5,87.34a23.85,23.85,0,0,1,3.63-1.67c.19-.11.33-.12.33.17a62,62,0,0,0-8.52,6.09c-3.18,2.71-6,5.79-9.43,8.28A15.45,15.45,0,0,1,39.62,102a1.3,1.3,0,0,1-1.22.17A53.91,53.91,0,0,0,46,95.9c3.32-3,6.52-6,10.33-8.37A.64.64,0,0,0,56.5,87.34Z"/><path class="cls-3" d="M49.86,97.78l-2.67,2.81c-2.56,2.34-5.56,4.11-8.29,6.23a4.08,4.08,0,0,1-1.41.67.77.77,0,0,1-1-.33.71.71,0,0,1,.3-1h0A18.25,18.25,0,0,1,40,104.44,8.69,8.69,0,0,0,44.34,101a8.23,8.23,0,0,1,4.76-3.37C49.36,97.59,49.64,97.52,49.86,97.78Z"/><path class="cls-23" d="M42.71,93.3a120.63,120.63,0,0,0-10.9,9c-.42.39-.9.73-1.34,1.09-.36-.05-.67.3-1.16,0l2.79-2.51a40.09,40.09,0,0,0,4.5-4.34c2.78-2.07,5.45-4.29,8.34-6.23a29.1,29.1,0,0,1,3.77-2.22c.17-.06.21,0,.17.17a48.16,48.16,0,0,0-5.54,4.32A6.5,6.5,0,0,0,42.71,93.3Z"/><path class="cls-2" d="M82,114.79c-.3-.14-.25-.33-.25-.49.16-2.6.32-5.2.47-7.78V104c.29-3.3.27-6.64,1-9.89a11.4,11.4,0,0,1,1.14-3,.92.92,0,0,1,.1,1A19.85,19.85,0,0,0,83.3,99c-.09,2.58-.07,5.17-.3,7.74s-.56,5-.85,7.44A3.35,3.35,0,0,1,82,114.79Z"/><path class="cls-2" d="M116.85,81.55a1.63,1.63,0,0,1-1.41-.42,37.15,37.15,0,0,0-3-2.28A2.72,2.72,0,0,1,111.12,76a3,3,0,0,1,2.25-2.4c1.07-.27,2.11-.63,3.16-.95a.85.85,0,0,1,.31-.09c.45,0,1.16-.22,1.19.37s-.66.25-1,.27a7.88,7.88,0,0,0-4,1.26c-1,.78-1.27,1.26-.47,2.34a7.28,7.28,0,0,0,1.63,1.5A10.94,10.94,0,0,1,116.85,81.55Z"/><path class="cls-2" d="M111.31,89a7.41,7.41,0,0,1-3.26-2.43c-.69-.78,0-1.46.28-2.12a9.1,9.1,0,0,0,.63-1.14c.66-2,2.28-2.76,4.09-3.32.34-.1.65,0,.78.27s-.23.41-.42.52a20.92,20.92,0,0,0-3.84,3.38,1.52,1.52,0,0,0-.16,2.38A23.71,23.71,0,0,1,111.31,89Z"/><path class="cls-2" d="M65.71,91.62c-2.86,4.48-5.6,9.1-10.43,11.88C59.16,99.88,62,95.38,65.71,91.62Z"/><path class="cls-2" d="M111.9,68.11c-.2-2.42,1.5-4.35,3.39-5.34.28-.15.66-.3.89,0s-.07.69-.35.89a8.68,8.68,0,0,0-1.66,1.82,1.25,1.25,0,0,0-.3.92c-.84,1.11-.34,2.28-.17,3.44,0,.18.26.35,0,.5a.54.54,0,0,1-.55-.08A3.41,3.41,0,0,1,111.9,68.11Z"/><path class="cls-2" d="M102.94,78.87a3,3,0,0,1,1.48-2.63,18.19,18.19,0,0,0,1.73-1.11.78.78,0,0,1,.78-.19.37.37,0,0,1,.3.35c0,.17-.13.21-.26.27A3.39,3.39,0,0,0,105.19,80a4.32,4.32,0,0,0,.78,1c.13.14.25.29.37.44s.29.39.15.6-.44.1-.59,0c-.9-.71-1.81-1.42-2.65-2.2A1.46,1.46,0,0,1,102.94,78.87Z"/><path class="cls-2" d="M117.52,64.61a9.66,9.66,0,0,1,3.11-3,1.26,1.26,0,0,1,.46-.16c.22,0,.48-.09.6.16s-.14.33-.25.46a30.77,30.77,0,0,0-2.21,2.34c-1,1.33-1,1.73-.15,3.18a1.77,1.77,0,0,1,.08.31,2.86,2.86,0,0,1-1.83-.82c-.52-.37-.12-1-.11-1.56A4.56,4.56,0,0,1,117.52,64.61Z"/><path class="cls-2" d="M122.91,77.41h.41c.14,0,.4,0,.45.28s-.15.33-.33.41c-1,.42-1.9.85-2.87,1.25A10,10,0,0,0,118,81c-.2.18-.4.36-.65.22s-.06-.44,0-.66a2.28,2.28,0,0,1,1.11-1.46A12,12,0,0,1,122.91,77.41Z"/><path class="cls-2" d="M121.62,86.56a5.92,5.92,0,0,1-4.77-3.25.91.91,0,0,1,0-.94c.16-.24.31-.37.56,0a12.38,12.38,0,0,0,3.29,2.83,4.75,4.75,0,0,1,1.12.82c.11.12.27.23.19.42a.24.24,0,0,1-.28.18Z"/><path class="cls-2" d="M78.9,97.85a11.3,11.3,0,0,1,.59-3.31,30.23,30.23,0,0,1,1.68-4.48A3.75,3.75,0,0,1,83,88c.2-.09.43-.2.58.07s-.08.35-.21.48c-1.63,1.63-2.34,3.76-3.22,5.81C79.73,95.49,79.32,96.68,78.9,97.85Z"/><path class="cls-2" d="M102.1,88.4c0-.32.08-.7.38-.78s.41.3.54.54a1.19,1.19,0,0,1,.21.44c.27,2,1.56,3.33,2.63,4.86.14.21.46.44.2.7s-.51,0-.78-.12a.68.68,0,0,1-.31-.27,18.4,18.4,0,0,1-2.86-5.07A1.51,1.51,0,0,1,102.1,88.4Z"/><path class="cls-2" d="M100.33,80.22s.18,0,.22.11a.39.39,0,0,1-.17.41c-.46.43-.89.9-1.38,1.3a2.91,2.91,0,0,0-1,3c0,.17.14.34,0,.46s-.38,0-.52-.12a1.54,1.54,0,0,1-.67-1.09C96.58,82.39,98.74,80.57,100.33,80.22Z"/><path class="cls-23" d="M81.2,121.56a79.54,79.54,0,0,1-5.83,18.08A138,138,0,0,0,81.2,121.56Z"/><path class="cls-2" d="M109.9,96c.17-.54-.25-1.21-.07-1.89.06-.24.06-.65.43-.58s.21.44.14.68c-.46,1.32.11,2.39.77,3.45.39.57.74,1.16,1.11,1.74.08.13.27.26.14.42s-.35.09-.54,0a3.39,3.39,0,0,1-2-2.8C109.88,96.75,109.9,96.45,109.9,96Z"/><path class="cls-2" d="M116,100.59a1,1,0,0,1,.55-.91c.18-.12.41-.1.43.17,0,.87.71,1.39,1.09,2.07a10.66,10.66,0,0,1,.78,1.72c.07.24.14.47-.24.39C117.8,103.89,116.05,101.55,116,100.59Z"/><path class="cls-2" d="M84.64,90.42a11.36,11.36,0,0,1,3-4.94,2.41,2.41,0,0,1,.65-.35.37.37,0,0,1,.45.12.3.3,0,0,1,0,.42l0,0A29.34,29.34,0,0,0,85,90.28,1.57,1.57,0,0,1,84.64,90.42Z"/><path class="cls-24" d="M60.93,82.36a21.06,21.06,0,0,1,4.76-1.56A94.15,94.15,0,0,1,75.54,79c0,.3-.1.42-.44.47-.93.14-1.84.26-2.77.36a62.81,62.81,0,0,0-9.09,1.93A7.93,7.93,0,0,1,60.93,82.36Z"/><path class="cls-2" d="M101.1,74.43c0,.65-.08,1-.64.69a2.58,2.58,0,0,1-.3-3.83c.13-.1.26-.23.43-.15s.08.27.06.41A8.44,8.44,0,0,0,101,74,1.8,1.8,0,0,0,101.1,74.43Z"/><path class="cls-23" d="M75.83,80a7.43,7.43,0,0,1,2.41-.56,34.45,34.45,0,0,1,5.36-.78,2.8,2.8,0,0,1,.41,0c.29,0,.71.09.71.41s-.43.25-.69.24a37.48,37.48,0,0,0-6.85.64A10.16,10.16,0,0,1,75.83,80Z"/><path class="cls-23" d="M103,86.21a3.17,3.17,0,0,1,1.6-2.12.58.58,0,0,1,.78.22c.22.31,0,.55-.22.69C104.58,85.39,103.9,85.74,103,86.21Z"/><path class="cls-25" d="M98.65,86.31l1.81,1.31c.09.07.13.22.05.28a.51.51,0,0,1-.38.06A2.42,2.42,0,0,1,98.65,86.31Z"/><path class="cls-26" d="M107.09,71.58a6.35,6.35,0,0,0,1.31.51c0,.54-.14.83-.72.39a2.47,2.47,0,0,1-.78-.73C106.87,71.6,106.92,71.53,107.09,71.58Z"/><path class="cls-27" d="M53.14,85.67a9,9,0,0,1,3-1.51A12.74,12.74,0,0,1,53.14,85.67Z"/><path class="cls-28" d="M48.85,88.31l-.17-.17A9.22,9.22,0,0,1,51,86.8a.11.11,0,0,1,0,.13s0,.06,0,.06Z"/><path class="cls-23" d="M116.79,98a.22.22,0,0,1,.19.36c-.1.14-.06.78-.37.78s-.23-.42-.23-.67A.41.41,0,0,1,116.79,98Z"/><path class="cls-29" d="M106.42,68.44c.29.58-.21,1.09-.16,1.64.09.18.13.36-.18.34A2.13,2.13,0,0,1,106.42,68.44Z"/><path class="cls-30" d="M125.19,78.06c-.27,0-.6,0-.6-.32s.29-.17.46-.18.5,0,.53.27S125.31,78,125.19,78.06Z"/><path class="cls-31" d="M103.45,69.63l1-.35a.49.49,0,0,1-.14.69h0C103.86,70.2,103.72,69.76,103.45,69.63Z"/><path class="cls-32" d="M60.46,85.84a.35.35,0,0,0-.33-.17A8.16,8.16,0,0,1,62,84.84C61.58,85.36,60.91,85.43,60.46,85.84Z"/><path class="cls-33" d="M106.08,70.4a.36.36,0,0,0,.18-.34,3.57,3.57,0,0,0,.83,1.51l-.18.17C106.43,71.43,106.36,70.86,106.08,70.4Z"/><path class="cls-34" d="M71.16,151.38a3.51,3.51,0,0,1-1.09.78,1.66,1.66,0,0,1,.86-.87.13.13,0,0,1,.23.09Z"/><path class="cls-35" d="M51,87v-.19a2.3,2.3,0,0,1,1.16-.66C51.92,86.62,51.36,86.66,51,87Z"/><path class="cls-36" d="M71.16,151.38h-.23a2.34,2.34,0,0,1,1-.78A1.33,1.33,0,0,1,71.16,151.38Z"/><path class="cls-2" d="M175.91,77.41l1.49.78c.46.55,1,1,1.48,1.56,2.46,2.85.78,6.9-1.41,8.29a7.15,7.15,0,0,1-8.2-.35c-2.81-2.28-2.88-5.8-.41-8.56C170.77,76.9,173.22,76.57,175.91,77.41Z"/><path class="cls-3" d="M156,106.55a7.51,7.51,0,0,1-3.11-.57c-.36-.12-.78-.32-.68-.78s.54-.25.83-.27c1.44-.09,2.83.33,4.26.33a7.93,7.93,0,0,0,1-.08c.19,0,.39-.16.49.1a.49.49,0,0,1-.19.58A3.33,3.33,0,0,1,156,106.55Z"/><path class="cls-3" d="M173.16,90.83a13.65,13.65,0,0,1-2.69-.54c-.18-.07-.84,0-.35-.55a1.45,1.45,0,0,0-.29-.26l-.94-.52c-.14-.08-.32-.18-.19-.37s.25-.07.38,0a1.35,1.35,0,0,1,.3.14,7.87,7.87,0,0,0,5.39,1c.24,0,.49,0,.56.24s-.18.36-.38.46A4.31,4.31,0,0,1,173.16,90.83Z"/><path class="cls-3" d="M178.88,97.59a1.48,1.48,0,0,1-.6.87,10.44,10.44,0,0,1-5.77,2.12c-.1,0-.26,0-.31-.08a.36.36,0,0,1,.11-.36,1.34,1.34,0,0,1,1.06-.37,4,4,0,0,0,3.7-1.7,2.88,2.88,0,0,1,1.35-.78C178.61,97.23,178.88,97.27,178.88,97.59Z"/><path class="cls-3" d="M153.22,103.89a4,4,0,0,1-2.12-.56c-.21-.14-.43-.31-.36-.6a.63.63,0,0,1,.6-.49,4.67,4.67,0,0,1,3,.77c.48.3.37.6-.13.78A3,3,0,0,1,153.22,103.89Z"/><path class="cls-3" d="M159.83,105.13c.46-.47,1-.35,1.45-.46l4.57-1a1.91,1.91,0,0,1,.33-.06c.18,0,.43-.09.51.13s-.2.37-.39.43a19.31,19.31,0,0,1-3.89.92A6.23,6.23,0,0,1,159.83,105.13Z"/><path class="cls-37" d="M191,83.34a2,2,0,0,1,.49,1.89c0,.16-.09.33-.27.37s-.24-.18-.35-.29a1,1,0,0,1-.19-.27,2.44,2.44,0,0,0-1.59-1.55c-.35-.12-1.08-.34-.78-.78s.78-.06,1.2.19a2.14,2.14,0,0,0,1.56.45Z"/><path class="cls-37" d="M171.88,103.7c1.19-.61,2.38-1.22,3.58-1.81.26-.13.63-.29.78,0s-.12.56-.42.69a11.13,11.13,0,0,1-3.89,1.31Z"/><path class="cls-37" d="M178.11,100.3a2.46,2.46,0,0,1,1-1c.87-.6,1.86-1.08,2.19-2.23.06-.18.25-.45.49-.32s.14.39,0,.58a10.66,10.66,0,0,1-3.11,2.91C178.53,100.29,178.37,100.46,178.11,100.3Z"/><path class="cls-37" d="M167.71,103.33c.82-.53,1.63-1.07,2.45-1.59.16-.1.36-.24.52,0a.39.39,0,0,1-.17.55A4.84,4.84,0,0,1,167.71,103.33Z"/><path class="cls-38" d="M167.09,86.53a1.93,1.93,0,0,1-.78-1.74c0-.16,0-.35.2-.39s.34.17.38.34C167,85.32,166.93,85.93,167.09,86.53Z"/><path class="cls-1" d="M147.7,67.44c.54.66,1.35.48,2.05.64a5.65,5.65,0,0,0,1.3,0,14.48,14.48,0,0,0-3.58,3.49A22.78,22.78,0,0,0,146,74.05c-.63,1.31,0,2.53.52,3.7a7.81,7.81,0,0,1-.4,6.82c-.33.71-1.12,1.2-1.7,1.8a5.94,5.94,0,0,0-1.56,2.7c-.38,1.49.29,2.74,1,4a5.86,5.86,0,0,1,1,4.54c-.3,1.21-1.23,2-1.89,3-1.21,1.77-2.57,3.47-3.11,5.6a3.11,3.11,0,0,0,1.18,3.21,8.32,8.32,0,0,0,2,1.31,37.23,37.23,0,0,1-13.6-1.42l.4,0c.25,0,.57,0,.66-.24s-.31-.31-.48-.47c-.51-.5-1.06-1-1.52-1.52a1.21,1.21,0,0,1-.13-1.51,10,10,0,0,1,5-4.19,6.28,6.28,0,0,0,.91,4.49,9.31,9.31,0,0,0,2.15,2.49,2.23,2.23,0,0,0,1.13.47.72.72,0,0,0,.74-.21c.15-.21-.21-.38-.36-.53a11.71,11.71,0,0,1-2.44-3.11c-1.13-2.26-1-3.26.7-5.14a12.43,12.43,0,0,1,2.58-2.54.81.81,0,0,0,.12-1.38c-1.08-1.09-1.94-2.34-1.61-4a7.89,7.89,0,0,1,2.89-4.67,6.5,6.5,0,0,0,.69-.59c.27-.32.54-.68-.19-.78a.38.38,0,0,1-.29-.26c-.53-1.27-1.13-2.51-1.62-3.8s.28-2.16,1-3a12.57,12.57,0,0,1,3.51-2.44c.54-.31.63-.6.42-1.13a5.87,5.87,0,0,0-.78-1.46,7.82,7.82,0,0,1-1.08-2.39c-.48-1.56.24-2.28,1.49-2.86a9.16,9.16,0,0,1,3.75-.87A2.15,2.15,0,0,0,147.7,67.44Z"/><path class="cls-1" d="M132.37,91.1a7.18,7.18,0,0,0-2.17,1.19,4.28,4.28,0,0,0-1.23,2.2c-.18.78-.2.78-1.13.78.07-.23.52-.07.43-.43s-.26-.15-.41-.2a11,11,0,0,1-4.55-3.12,2,2,0,0,1,0-2.33,4.7,4.7,0,0,1,1.83-2,7.31,7.31,0,0,1,4.88-1c.37,0,.53.21.39.53-.84,2,.07,3.26,1.75,4.21A1.2,1.2,0,0,1,132.37,91.1Z"/><path class="cls-1" d="M126.67,95.38a5.91,5.91,0,0,0-4.12,2.82c-.11.2-.18.4-.48.21a18.1,18.1,0,0,1-4.83-3.56c-1.46-1.75-1.07-2.7.27-4.2a6.35,6.35,0,0,1,3.12-1.77c.29-.08.78-.27.64.43a4.14,4.14,0,0,0,2.51,5,7,7,0,0,0,2.48.87A.51.51,0,0,1,126.67,95.38Z"/><path class="cls-1" d="M130.9,85.47a19.53,19.53,0,0,1-2.77-2.53,3.3,3.3,0,0,1,1.35-5.54,14.49,14.49,0,0,1,2.34-.65.78.78,0,0,1,.93.44,9.56,9.56,0,0,0,2.69,3.49c.37.26.17.42-.14.56a18.76,18.76,0,0,0-2,1.14A6.84,6.84,0,0,0,130.9,85.47Z"/><path class="cls-1" d="M136.91,81.56c.27,0,.33.13.35.31a7.84,7.84,0,0,0,1.68,3.8c.31.43.27.62-.17,1a8.17,8.17,0,0,0-2.81,4c-.16.5-.32.78-.87.3a24.57,24.57,0,0,1-3-2.18,1.29,1.29,0,0,1-.32-1.34c.65-2.63,2.47-4.27,4.68-5.6A3.17,3.17,0,0,1,136.91,81.56Z"/><path class="cls-1" d="M142.1,75.54a10,10,0,0,0-3.11,2.2,5.53,5.53,0,0,0-1.38,2.12c-.15.45-.3.57-.73.2a11.82,11.82,0,0,1-2.85-4.2c-.38-.85-.06-1.52,1-2.19a18,18,0,0,1,4.45-1.93c.22-.07.45-.16.46.2A4.76,4.76,0,0,0,142.1,75.54Z"/><path class="cls-1" d="M137.78,96.61a11.16,11.16,0,0,0-3.34,2.92c-.23.24-.44.42-.78.17a7.7,7.7,0,0,1-2.57-3,2.84,2.84,0,0,1,1.13-3.86,2.89,2.89,0,0,1,.63-.26,12.76,12.76,0,0,0,2.23-.84c.43-.26.54.13.49.44a4.84,4.84,0,0,0,.09,1.78A3.93,3.93,0,0,0,137.78,96.61Z"/><path class="cls-1" d="M144.07,67c-1.35.57-2.76.92-3.42,2.18s-2.08,1.2-3.2,1.37-2-1.81-1.56-3.12a5,5,0,0,1,4.09-3.7c-.11.93.49,1.37,1.22,1.75C142.12,65.92,143,66.43,144.07,67Z"/><path class="cls-39" d="M151.69,66.81l1.41.57A1.41,1.41,0,0,1,151.69,66.81Z"/><path class="cls-3" d="M78.29,76.54,74,76.32c-.31,0-.6-.08-.91-.09-1.38,0-2.75,0-4.13-.13a19.66,19.66,0,0,0-4.13.11c-1.65.18-3.28-.27-4.93-.29a80.36,80.36,0,0,0-9.3.6,45.05,45.05,0,0,1-6.36.37,44,44,0,0,0-8.86.87c-1.65.27-3.31.44-5,.61-1.47.15-3,.23-4.44.34a3,3,0,0,1-1.55-.39c-.2-.1-.46-.15-.47-.42s.26-.31.44-.42a10.13,10.13,0,0,1,4.75-1.24c1-.06,2,0,3,0a74.68,74.68,0,0,0,11.28-.77,20.6,20.6,0,0,1,2.72-.19c1.55,0,3.11-.12,4.71-.13a66,66,0,0,1,10.7.61,14.75,14.75,0,0,0,1.89-.15c4,.11,8.06.2,12.07.35a23.68,23.68,0,0,1,2.9.36Z"/><path class="cls-3" d="M23.66,85.34c-.67,0-1-.45-.7-1a2.49,2.49,0,0,1,.91-.94A7.88,7.88,0,0,1,29.26,82c.18,0,.42,0,.46.23s-.15.27-.3.34L24,85.24A1.6,1.6,0,0,1,23.66,85.34Z"/><path class="cls-3" d="M22.74,78.36a9.64,9.64,0,0,0-1.49,2.58c-.08.3-.4.45-.7.54a19.09,19.09,0,0,0-3.26,1.38,2.89,2.89,0,0,1-1.43.38.86.86,0,0,1-1-.84c0-.55.5-.56.95-.55a9.48,9.48,0,0,0,3.93-.78,1.16,1.16,0,0,0,.71-.78A3.16,3.16,0,0,1,22.74,78.36Z"/><path class="cls-40" d="M65.61,79a6.28,6.28,0,0,1-2.38.44,28.09,28.09,0,0,0-7,1.43A7.71,7.71,0,0,1,54,81.2c-1.51,0-3,.28-4.53.15a23.61,23.61,0,0,1,4.27-.78c2-.21,4-.57,5.94-.9A36.46,36.46,0,0,1,65.61,79Z"/><path class="cls-3" d="M13.34,89.87c0,.22-.16.34-.29.49a12.15,12.15,0,0,0-1.28,1.4.45.45,0,0,1-.6.21l0,0a.58.58,0,0,1-.25-.65A3,3,0,0,1,13,89.62C13.16,89.66,13.32,89.67,13.34,89.87Z"/><path class="cls-41" d="M17.15,87c-.11.31-.38.34-.67.32s-.32-.11-.27-.32.38-.35.66-.34S17.18,86.76,17.15,87Z"/><path class="cls-42" d="M35.58,79.75c.48-.31,1-.13,1.49-.08l-1.49.24c-.06,0-.07-.08-.06-.11S35.56,79.75,35.58,79.75Z"/><path class="cls-43" d="M35.58,79.75v.16q-.6,0-1.2,0C34.74,79.62,35.18,79.75,35.58,79.75Z"/><path class="cls-42" d="M38.36,79.47a1.13,1.13,0,0,1-.77,0C37.79,79.32,38,79.36,38.36,79.47Z"/><path class="cls-3" d="M120,132.91v-.32c0-1.63,1.13-2.7,2-3.9,1.47-2,3.65-3.33,5.34-5.15a65.14,65.14,0,0,0,6-7.57,11.15,11.15,0,0,1,1.56-1.94c.13-.12.24-.36.47-.2s.16.35.13.54a4.8,4.8,0,0,1-.91,1.75,25.63,25.63,0,0,1-4.48,5.68c-1.89,1.58-2.78,4-3.75,6.23a13,13,0,0,1-3.69,5.19A1.58,1.58,0,0,1,120,132.91Z"/><path class="cls-3" d="M110.72,125.5a4.06,4.06,0,0,1,3.75-4,3.41,3.41,0,0,0,1.78-.78,12.22,12.22,0,0,1,3.71-1.78,16.59,16.59,0,0,0,5.18-3.33,5.94,5.94,0,0,1,1.62-1c.39-.16.87-.31,1.12.12s-.13.78-.46,1q-1.89,1.41-3.9,2.65c-1.71,1-3.34,2.23-5,3.32a5.93,5.93,0,0,1-1.74.92,5.73,5.73,0,0,0-3.71,3.28c-.29.57-.63,1.12-1.36,1A1.25,1.25,0,0,1,110.72,125.5Z"/><path class="cls-3" d="M115.37,131.92c-.57-1.56-.44-1.94.86-3a22.24,22.24,0,0,1,2.46-1.56,3.67,3.67,0,0,0,2.26-1.52,8.26,8.26,0,0,1,2.23-2.06,29.15,29.15,0,0,0,3.8-4.21,8,8,0,0,1,1.71-1.67c.26-.16.6-.49.89-.23s0,.62-.11.9a10.58,10.58,0,0,1-3.56,4.25c-2.66,1.81-4.48,4.35-6.31,6.9a.82.82,0,0,0-.21.44c0,1.43-1.08,1.82-2.08,2.25A1.75,1.75,0,0,1,115.37,131.92Z"/><path class="cls-3" d="M123.45,112a9.58,9.58,0,0,1-2.81,1.2,65.59,65.59,0,0,0-7.49,2.34,17.6,17.6,0,0,0-3.72,2,2.66,2.66,0,0,1-2.34.73c-.52-.15-1-.2-1.17-.85a2.19,2.19,0,0,1,.78-2.21,5.25,5.25,0,0,1,2.92-.72A40.44,40.44,0,0,0,121.46,112C122.74,111.57,122.79,111.67,123.45,112Z"/><path class="cls-23" d="M132.87,124.49a24.2,24.2,0,0,1,3.32-6.7l.21.1-3.34,6.7Z"/><path class="cls-2" d="M135.08,127.74a14.61,14.61,0,0,1,2.33-4c.11-.12.23-.29.42-.17s.08.26,0,.38a28.68,28.68,0,0,1-2.42,3.73S135.3,127.7,135.08,127.74Z"/><path class="cls-23" d="M139.1,118.58a3.36,3.36,0,0,1,.77-3.12c.14-.17.36-.42.62-.19s.09.4,0,.59A15.49,15.49,0,0,0,139.1,118.58Z"/><path class="cls-2" d="M45.2,86.16a44.1,44.1,0,0,0-11.08,6.36A32.92,32.92,0,0,0,30,96.61c-2.76,3.11-6.4,4.78-10.31,6-.55.17-1.11.33-1.66.48,0,0-.1,0-.24-.13a8.3,8.3,0,0,1,2.5-1.81,34,34,0,0,0,6.28-3.66,23.38,23.38,0,0,0,2-1.74,33.11,33.11,0,0,1,6.14-5c.25-.16.57-.26.69-.57h0c.26-.2.58-.29.83-.5a35.44,35.44,0,0,1,8-3.5c.2-.06.42-.1.63-.15S45.22,85.85,45.2,86.16Z"/><path class="cls-44" d="M51.69,83.85c-1.16.16-2.18.78-3.32,1-.17.07-.2,0-.16-.16A50.31,50.31,0,0,1,55.32,82c.15-.11.32-.06.48-.08s.3,0,.34.14-.23.16-.31.28A27.61,27.61,0,0,0,51.69,83.85Z"/><path class="cls-45" d="M55.82,82.36a1.37,1.37,0,0,0,.18-.24c-.2-.18-.45-.05-.68-.1a12.28,12.28,0,0,1,4.8-.92A13.82,13.82,0,0,1,55.82,82.36Z"/><path class="cls-46" d="M48.2,84.69l.16.16L45.2,86.16a.38.38,0,0,0-.34-.16Z"/><path class="cls-1" d="M36.25,89.65a1.06,1.06,0,0,1-.83.5A1,1,0,0,1,36.25,89.65Z"/><path class="cls-4" d="M102.92,53.35c.25-.34.7-.55.7-1.06a.26.26,0,0,1,.27-.25h0a19.1,19.1,0,0,1,4,.18c-1.56.31-3.12.78-4.63,1.13A.26.26,0,0,1,102.92,53.35Z"/><path class="cls-47" d="M111.39,48.88a.55.55,0,0,0,.49-.16l1.33.33A3.64,3.64,0,0,1,111.39,48.88Z"/><path class="cls-48" d="M102.92,53.35h.35a3.8,3.8,0,0,1-1.17.5l-.17-.17A1.68,1.68,0,0,1,102.92,53.35Z"/><path class="cls-49" d="M128.78,53.68v.17a3.08,3.08,0,0,1-1-.44A1.34,1.34,0,0,1,128.78,53.68Z"/><path class="cls-50" d="M173.94,85.51c-2.12,0-3.46-1.17-3.47-3A3.53,3.53,0,0,1,174,79h.09a3.32,3.32,0,0,1,3.29,3.35,3.11,3.11,0,0,1-3.07,3.16A1.93,1.93,0,0,1,173.94,85.51Z"/><path class="cls-51" d="M173.46,87.35a4.77,4.77,0,0,1-4-1.65A12.2,12.2,0,0,1,168.34,84a2.42,2.42,0,0,1-.2-.71.87.87,0,0,1,.41-.84.38.38,0,0,1,.47,0,1,1,0,0,1,0,.87,1.79,1.79,0,0,0,.93,2.2,3.1,3.1,0,0,1,1.05.78,1.34,1.34,0,0,0,1.2.55A1.83,1.83,0,0,1,173.46,87.35Z"/><path class="cls-41" d="M171.6,88.13a15.21,15.21,0,0,0,4.26-.24C175.05,88.64,172.38,88.77,171.6,88.13Z"/><path class="cls-52" d="M174.59,87.57c-.2,0-.35-.1-.28-.28a.82.82,0,0,1,.78-.45c.17,0,.41.1.36.24C175.33,87.45,174.91,87.45,174.59,87.57Z"/><path class="cls-53" d="M176.59,87.53c.11-.41-.07-.77.42-.86.15,0,.36,0,.37.2C177.41,87.32,177.05,87.36,176.59,87.53Z"/></svg>