<svg id="Layer_1" data-name="Layer 1" xmlns="http://www.w3.org/2000/svg" viewBox="0 0 200 200"><defs><style>.cls-1{fill:#61538c;}.cls-2{fill:#8f7cb4;}.cls-3{fill:#f7c746;}.cls-4{fill:#f7c747;}.cls-5{fill:#f6c747;}.cls-6{fill:#8e7cb3;}.cls-7{fill:#907eb5;}.cls-8{fill:#f1c350;}.cls-9{fill:#6d5e94;}.cls-10{fill:#eec259;}.cls-11{fill:#dcd8e5;}.cls-12{fill:#796a9f;}.cls-13{fill:#b1a4cb;}.cls-14{fill:#76658d;}.cls-15{fill:#cbc3de;}.cls-16{fill:#c8c0dc;}.cls-17{fill:#7b6ca0;}.cls-18{fill:#dfc28f;}.cls-19{fill:#b7aab8;}.cls-20{fill:#c9c1dd;}.cls-21{fill:#8e7cb4;}.cls-22{fill:#6b5c90;}.cls-23{fill:#8d7bb3;}.cls-24{fill:#8c7ab2;}.cls-25{fill:#ebac44;}.cls-26{fill:#7c6b90;}.cls-27{fill:#62538c;}.cls-28{fill:#f6c646;}.cls-29{fill:#62548d;}.cls-30{fill:#f5c546;}.cls-31{fill:#62548c;}.cls-32{fill:#f3c347;}.cls-33{fill:#64558e;}.cls-34{fill:#63558e;}.cls-35{fill:#444251;}.cls-36{fill:#ebeaeb;}.cls-37{fill:#5a5373;}.cls-38{fill:#5e5651;}.cls-39{fill:#f7f7f7;}.cls-40{fill:#f4f2f1;}.cls-41{fill:#fcfcfc;}.cls-42{fill:#f6f6f6;}.cls-43{fill:#e7e6e7;}.cls-44{fill:#ecebec;}</style></defs><title>octopus</title><path class="cls-1" d="M45.88,135.43c.29,1.24-.35,2.24-.83,3.23a6.7,6.7,0,0,1-2.54,2.66c-1.9,1.12-3.79,2.24-5.76,3.25a14.6,14.6,0,0,1-10.68,1A51.1,51.1,0,0,1,18,140.73a12.44,12.44,0,0,1-2.72-3.64A15.82,15.82,0,0,1,13,128.64a9.32,9.32,0,0,1,1.65-4.59,25.54,25.54,0,0,1,6.57-7.55c.35-.29.69-.58,1-.89a10.38,10.38,0,0,1,4.93-2.32c1.7-.43,3.39-.87,5.07-1.39a47.32,47.32,0,0,1,6.5-1.05c2.87-.49,5.75-.65,8.65-1a20.36,20.36,0,0,0,5.8-1.75c2.16-1,4.11-2.29,6.2-3.45,2.47-1.39,5.09-2.56,7.54-4a14.09,14.09,0,0,0,1.89-1.35,1.27,1.27,0,0,0-.82.23,81.11,81.11,0,0,1-8.61,3.74c-2.46,1-4.8,2.24-7.3,3.12a26.24,26.24,0,0,1-4,1.08,1.68,1.68,0,0,1-1-.1h0c-.17-.18-.53,0-.63-.32a1,1,0,0,0-.68-.44,26.89,26.89,0,0,1-6.74-4,20.66,20.66,0,0,0-3.12-2.47A18.51,18.51,0,0,1,33.43,98a1.42,1.42,0,0,1-.61-1.46,1.55,1.55,0,0,0-2.26-1.76,1.19,1.19,0,0,1-1.34-.19,33.62,33.62,0,0,1-2.74-2.46,2.11,2.11,0,0,1-.48-1,1.44,1.44,0,0,0-1.57-1.29l-.21,0a2,2,0,0,1-1.43-.32,24.33,24.33,0,0,0-2.62-1.39,4.31,4.31,0,0,1-2-1.45,1.17,1.17,0,0,0-1.54-.31,3.81,3.81,0,0,1-2.06.22,11.55,11.55,0,0,0-4,.37,6.83,6.83,0,0,1-1.08.2,1.81,1.81,0,0,0-2,1.64,3.48,3.48,0,0,1-.26.83A4.48,4.48,0,0,0,6.69,93c.14.62-.25,1.35.37,1.89,1.34.37,2.17,1.53,3.35,2.17,2.81,1.5,5.7,2.26,8.81.91a.7.7,0,0,1,.49-.06c-.88,1.64-1.94,3.16-4,3.58a9.19,9.19,0,0,1-2.77,0l-3.53-.29a1.57,1.57,0,0,1-.91-.32,17.68,17.68,0,0,1-5-5.76,3.16,3.16,0,0,1-.21-2.22,35.42,35.42,0,0,1,1.5-6.07,9.68,9.68,0,0,1,8.66-6.62c5.05-.39,9.67,1.06,14.27,2.88,4,1.59,7.93,3.29,12,4.61a53.64,53.64,0,0,1,5.85,2.47,22.39,22.39,0,0,0,7.84,2c1.89.15,3.76.31,5.63.6a4.73,4.73,0,0,0,2,0,1.62,1.62,0,0,0-1.07-.62,83,83,0,0,0-8.38-2A22.21,22.21,0,0,1,48.21,89a.57.57,0,0,1-.27-.28.61.61,0,0,1,.07-.49s.06-.11,0-.16a50.38,50.38,0,0,1-2.4-5.16,1.44,1.44,0,0,0-.47-.57C43.4,81,42.54,79,41.22,77.4c-.09-1.39-1-2-1.85-2.86a16.07,16.07,0,0,1-3.47-4.86.93.93,0,0,0-.23-.35c-1.42-1.12-2.25-2.73-3.39-4.11a24,24,0,0,0-3.2-2.59.54.54,0,0,0-.24-.09c-2.12-.09-4.31-.57-6.06,1.19a2,2,0,0,1-.33.25,2.89,2.89,0,0,0-1.1,3.81c.57,1.45,1.4,2.8,2.1,4.23.34.72,1.14,1.15,1.71,1.73.39.4.83.77,1.2,1.17.48.72.36,1-.55,1.08a7.93,7.93,0,0,1-6-2.18C17.63,72,17.3,69.62,17.3,67a15.62,15.62,0,0,1,.77-4.55c1.39-4.37,5.5-6,9.46-5.12a23.28,23.28,0,0,1,9.71,5.08q4.53,3.79,9,7.69c.77.68,1.36,1.51,2.07,2.23q2.63,2.59,5.21,5.2a44.17,44.17,0,0,0,5.84,5c2.47,1.77,5,3.46,7.65,5a15.94,15.94,0,0,0,5.56,1.64c2.76.45,5.16-.5,7.5-1.75a17.45,17.45,0,0,0,1.5-1.1l.69-.16a1.91,1.91,0,0,1,2.22.7,3.57,3.57,0,0,0,2.93,1.48,7.54,7.54,0,0,0-2-.9,1.75,1.75,0,0,1-.91-.58c-.33-.37-.38-.68.14-.92a.53.53,0,0,1,.25,0A13.24,13.24,0,0,0,87.39,87c2.8.64,5.76-1.3,7.09-3.42,2.28-3.7,0-9.11-3.63-10.53a8.93,8.93,0,0,0-2.47-.7,6,6,0,0,0-5.75,3.06c-.19.29-.26.83-.83.62l-1.34-3.75c-.1-.11-.14-.31-.06-.38.71-.71.29-1.43,0-2.1A23.22,23.22,0,0,1,78.2,63a28.79,28.79,0,0,1,.28-10.18,18.62,18.62,0,0,1,4.59-8.36,23.55,23.55,0,0,1,6.75-5.44,22.43,22.43,0,0,1,7.86-1.86,17.27,17.27,0,0,1,9,2,27.08,27.08,0,0,1,11.37,9.58,16.8,16.8,0,0,1,2.79,9.19,38.16,38.16,0,0,0,.62,7.32,5.22,5.22,0,0,1-.14,2.66l-3,8.28c-.52.45-.69-.09-.88-.35a7.07,7.07,0,0,0-4.78-2.91,12.94,12.94,0,0,0-3.29,0,5,5,0,0,0-3.75,2.47,8.83,8.83,0,0,0,.26,9.57,6.52,6.52,0,0,0,9,1.86,4.11,4.11,0,0,1,3-.5,21.38,21.38,0,0,0,4.11.82,23,23,0,0,0,15.22-2.74,55.6,55.6,0,0,0,10.37-7.94c3.79-3.63,7.16-7.64,10.81-11.39a28.13,28.13,0,0,1,11.94-7.56,20.56,20.56,0,0,1,5.88-1.07A9.58,9.58,0,0,1,182.48,59a8.83,8.83,0,0,1,2.87,3.9c.09.29,0,.62.23.88a9.64,9.64,0,0,1-3.65,9,14,14,0,0,1-5.15,3.15,6.28,6.28,0,0,1-2.76.18c-.38-.07-.82-.16-.51-.75a1.51,1.51,0,0,0,1.34-.52,30.71,30.71,0,0,0,2.36-2.74,5.43,5.43,0,0,1,.84-.82,1.36,1.36,0,0,0,.58-.91,10.48,10.48,0,0,0-.11-4.56A3.53,3.53,0,0,0,177.19,64c-1.83-1.74-3.29-1.79-5.79-.58a14.76,14.76,0,0,0-3.17,2.32c-2.22,2-3.75,4.55-5.61,6.84-.64.77-1.14,1.64-2.2,2a1.24,1.24,0,0,0-.78,1.38,2.12,2.12,0,0,1-.48,1.49c-.45.61-.9,1.23-1.3,1.88A3.24,3.24,0,0,1,156,81a1.3,1.3,0,0,0-.94,1.58v0a1.68,1.68,0,0,1-.37,1.34c-.74,1-1.55,2-2.3,3a7,7,0,0,0-1.21,2.19,1.55,1.55,0,0,1-.66.37c-2.23.73-4.36,1.71-6.58,2.47a6.63,6.63,0,0,0,1.4-.18,168.09,168.09,0,0,0,18.75-4.86,46.6,46.6,0,0,0,5.44-2.33c2.14-1,4.25-2.09,6.43-3a25.68,25.68,0,0,1,9.16-2.2c4.73-.17,8.67,1.85,10.69,6.07,1.88,3.87,2.71,8.15.82,12.45A6.21,6.21,0,0,1,195,100a12.56,12.56,0,0,1-11.51,1.3,3.7,3.7,0,0,1-1.9-1.47.29.29,0,0,1,.11-.46,20.15,20.15,0,0,1,4.11.27,1.65,1.65,0,0,0,1.65-.28,4.62,4.62,0,0,1,2-.93,5.14,5.14,0,0,0,3.09-1.91.3.3,0,0,1,.12-.13c1.22-.6,1.49-1.72,1.83-2.93a5,5,0,0,0-1-4.83,4,4,0,0,1-.82-1.28,1.15,1.15,0,0,0-1.07-.82,4.4,4.4,0,0,1-1.54-.41c-1.25-.54-2.56-.21-3.84-.3a7,7,0,0,0-3.79,1,4.27,4.27,0,0,1-1,.41,13.12,13.12,0,0,0-4.41,1.9,2.49,2.49,0,0,1-1.42.47,1.7,1.7,0,0,0-1.73,1.23,2.06,2.06,0,0,1-.82,1c-1.2.84-2.38,1.7-3.54,2.6a1.88,1.88,0,0,1-1.41.41,1.84,1.84,0,0,0-2.19,1.41,1.86,1.86,0,0,0,0,.33,1.86,1.86,0,0,1-.7,1.21c-1,.83-2,1.7-3,2.56a1.38,1.38,0,0,1-1.33.31,1.84,1.84,0,0,0-2.28,1.26,1.59,1.59,0,0,0-.07.39,2.17,2.17,0,0,1-.9,1.63c-1.36,1.05-2.78,2-4.22,3a2.55,2.55,0,0,1-.82.42,10.07,10.07,0,0,1-4.11-.52,36.33,36.33,0,0,1-10.06-4.73,3.07,3.07,0,0,0-1.25-.56,2.61,2.61,0,0,0,1,1.35,31.42,31.42,0,0,0,7.4,4.53c.68.26,1.36.56,2,.88a17.07,17.07,0,0,0,6.57,1.37,99.65,99.65,0,0,1,10.77.92,25.24,25.24,0,0,1,9.16,3.57c3.83,2.36,6.64,5.71,9.46,9.09a8,8,0,0,1,1.9,6.91c-.16,1,0,2-.12,3a14.36,14.36,0,0,1-2.56,5.65c-.62,1-1.21,2-1.75,3a4.13,4.13,0,0,1-1.25,1.47c-6.19,3.88-12.43,4.29-18.74.26-.82-.52-1.64-1-2.46-1.42a8.06,8.06,0,0,1-4.43-5.45,4.33,4.33,0,0,1-.05-1.39c.61.31.82.91,1.27,1.23a21.22,21.22,0,0,0,3.77,3,1.85,1.85,0,0,1,.61.46,3.35,3.35,0,0,0,2.76,1.11c1.82.11,3.6-.18,5.39-.17a11,11,0,0,0,3.66-.82c2-.65,3.8-1.7,5.75-2.46.82-.31,1.22-1.07,1.71-1.72a29.84,29.84,0,0,0,1.74-2.71,3.87,3.87,0,0,0,.5-2.35,5.85,5.85,0,0,0-2.68-4.74,12.66,12.66,0,0,0-4-2,3.66,3.66,0,0,1-1.2-.6,1.82,1.82,0,0,0-1.76-.38,6.51,6.51,0,0,1-3.28.08,18.93,18.93,0,0,0-2.71-.14,1.14,1.14,0,0,1-1.14-.69,1.86,1.86,0,0,0-3.2-.25,1.51,1.51,0,0,1-1.64.67c-1.06-.14-2.14-.21-3.2-.36a2,2,0,0,1-1.3-.69,1.64,1.64,0,0,0-2.28-.44,1.48,1.48,0,0,0-.3.26,2.46,2.46,0,0,1-1.69.64,12.55,12.55,0,0,1-2.53-.08,2.59,2.59,0,0,0-1.4.27c-.4,0-.6-.26-.82-.53-1.49-2-3.29-3.74-4.94-5.6a39.27,39.27,0,0,0-4.11-3.62c-1.75-1.51-3.33-3.19-5-4.75a35.61,35.61,0,0,0-4.38-3.46,1,1,0,0,0-.46-.19c-.11.26.1.36.23.47,3,2.82,5.53,6,8.51,8.82a60.13,60.13,0,0,1,7.05,7.74,48.87,48.87,0,0,1,6.58,11.68,25.71,25.71,0,0,1,1.73,8.57,20.26,20.26,0,0,1-.05,5.22c-.52,2.34-.82,4.72-1.28,7.07a9.06,9.06,0,0,1-1.43,3.22h0a47,47,0,0,1-5.43,6.27,12.17,12.17,0,0,1-6.22,2.42c-3.05.35-6.21.44-9-.94-3.68-1.84-7.11-4.17-8.58-8.4a9.43,9.43,0,0,1-.22-5.8c.32,0,.45.3.62.52a19.07,19.07,0,0,0,2.8,2.81,1.65,1.65,0,0,1,.75,1.72,1.25,1.25,0,0,0,1.65,1.43,2.37,2.37,0,0,1,2.08.32,16.41,16.41,0,0,0,1.54.69c.22.11.44.22.67.31,1.1.49,2.35.55,3.42,1.14a.9.9,0,0,0,.58,0,11.79,11.79,0,0,0,6.18-2.64,4.27,4.27,0,0,1,1.13-.7,2.09,2.09,0,0,0,1.22-3.13,3.12,3.12,0,0,1-.15-.39,10.26,10.26,0,0,0-.17-1.74,19.56,19.56,0,0,0-.31-2,2,2,0,0,1,.15-1.29c.49-1.2.2-1.84-1-2.28a1.52,1.52,0,0,1-.6-.29c-.82-1.17-1.58-2.41-2.46-3.56a2.08,2.08,0,0,1-.44-1.34,1.33,1.33,0,0,0-.93-1.44,1.86,1.86,0,0,1-.94-.83c-.82-1.39-2-2.59-2.76-4-.45-.82-1.39-1.28-2-2s-1.29-1.35-1.83-2.09a8.85,8.85,0,0,0-2.84-2.74,12.43,12.43,0,0,1-2.47-2.39,2.47,2.47,0,0,1-.57-1.21,1.64,1.64,0,0,0-1.25-1.35,4.24,4.24,0,0,1-2.38-1.64c-.56-.67-1.16-1.31-1.78-1.92a4,4,0,0,1-1.14-1.64,1.5,1.5,0,0,0-1.32-1,2.4,2.4,0,0,1-1.15-.48,27.5,27.5,0,0,0-10.86-5.11,18.07,18.07,0,0,0-5.42-.71A5.65,5.65,0,0,0,93,110.9a1.22,1.22,0,0,1-.29.17,43.93,43.93,0,0,0-8.07,4.77,2.68,2.68,0,0,1-2.11.58,1.65,1.65,0,0,0-1.87,1.39s0,.09,0,.13a2,2,0,0,1-1,1.56c-1.45,1-2.87,1.9-4.3,2.87a1.52,1.52,0,0,1-1.5.18,2.37,2.37,0,0,0-3.14,1.19,2.44,2.44,0,0,0-.15,1.51,1.33,1.33,0,0,1-.5,1.41,23,23,0,0,0-2.22,2.08,2,2,0,0,1-1.25.62A2.51,2.51,0,0,0,64.22,132c0,.12,0,.24,0,.36a1.62,1.62,0,0,1-.33,1.18c-.83,1.21-1.59,2.46-2.33,3.73a1.73,1.73,0,0,1-1.08.88,3.45,3.45,0,0,0-2.11,2.06,1.3,1.3,0,0,0,.18,1.51,1.7,1.7,0,0,1,.32,1.8,33.16,33.16,0,0,0-1.4,4.26,2.82,2.82,0,0,1-.82,1.24c-1.26,1.33-1,2.3.32,3.55s3,2.54,3.55,4.51a1.72,1.72,0,0,0,1.88,1.27c1.08-.29,2,.14,3.08.14s2.22-.14,3.34-.1a2.67,2.67,0,0,1,1.21.26,1.62,1.62,0,0,0,2.54-.82c.1-.2.14-.43.4-.5a8.29,8.29,0,0,0,3.12-2.07,5.71,5.71,0,0,0,1.12-1l.11-.14a13.53,13.53,0,0,0,2.84-4.45.33.33,0,0,1,.25-.21c1.42,3.09.75,6-.82,8.8a9.94,9.94,0,0,1-2.7,3.11c-1.13.82-2.25,1.69-3.41,2.46a9.19,9.19,0,0,1-4.11,1.48c-3.54.49-7,.58-10.37-1A11.1,11.1,0,0,1,55,161.48c-2.68-4.65-4.83-9.51-5.3-14.92a40.42,40.42,0,0,1,3.37-21.11A36.2,36.2,0,0,1,58,118a33,33,0,0,1,5-5.12,5.13,5.13,0,0,0-2.52,1.4A47.44,47.44,0,0,0,54,121.61c-.25.36-.46.82-1,.82H51.94a3,3,0,0,0-2-.35,1.67,1.67,0,0,1-1.52-.68,1.54,1.54,0,0,0-2.16-.36,1.35,1.35,0,0,0-.3.28,2,2,0,0,1-1.6.58,9.54,9.54,0,0,0-1.77.07,2.15,2.15,0,0,1-2.52-.82,1.63,1.63,0,0,0-2.32-.06,1.43,1.43,0,0,0-.29.36,1.58,1.58,0,0,1-1.37.82,12.31,12.31,0,0,0-1.59.19,2.35,2.35,0,0,1-2.39-.6,1.53,1.53,0,0,0-2.17.09,1.72,1.72,0,0,0-.23.32,2.69,2.69,0,0,1-1.78,1.3,7.83,7.83,0,0,0-1.12.39,2.15,2.15,0,0,1-1.56.11A1.72,1.72,0,0,0,23,125a1.18,1.18,0,0,0-.07.2,3.11,3.11,0,0,1-1.11,1.25,4.94,4.94,0,0,0-2.19,3.2,2.57,2.57,0,0,1-.57.93,1.86,1.86,0,0,0,.14,2.46,1.83,1.83,0,0,1,.37.46c.82,2,2.47,3.38,4.06,4.67a10.6,10.6,0,0,0,3.7,1.64,27.46,27.46,0,0,0,3.47.74,4.14,4.14,0,0,1,1.64.55,1.32,1.32,0,0,0,1.52,0,2.94,2.94,0,0,1,1.64-.4,11.1,11.1,0,0,0,4-.82,17.51,17.51,0,0,0,4.78-2.66C45,136.63,45.24,135.88,45.88,135.43Z"/><path class="cls-2" d="M121.38,67.9a22.91,22.91,0,0,0-.57-5.6,25.52,25.52,0,0,1-.12-3.71,18.05,18.05,0,0,0-4.61-12.18,27.08,27.08,0,0,0-6.9-5.76,22.18,22.18,0,0,0-8-3.14,23.86,23.86,0,0,0-6.64.3c-4.93.78-8.51,3.72-11.7,7.32a18.42,18.42,0,0,0-4.41,9,30.44,30.44,0,0,0-.14,7.57,24.16,24.16,0,0,0,2.3,8.15c.31.7.89,1.52-.19,2.14v.24c-2.12-5.39-4.54-10.68-4.06-16.73.41-5.15,1.65-10,5.49-13.63s8.35-6.58,13.8-7.45a22.1,22.1,0,0,1,7.48.05,23.84,23.84,0,0,1,4.42.87c4.87,1.91,9.29,4.53,12.51,8.76a18.85,18.85,0,0,1,3.48,9.33,25.62,25.62,0,0,1-.61,10.31A22.39,22.39,0,0,1,121.38,67.9Z"/><path class="cls-2" d="M81.55,86.34c-1,1.5-2.66,1.91-4.18,2.55-2.53,1.07-5.08.58-7.61,0C67.64,88.39,65.89,87.1,64,86,57.67,82.33,52.59,77.17,47.57,72a84.5,84.5,0,0,0-9-8.09c-1.1-.82-2.15-1.74-3.21-2.62a18.43,18.43,0,0,0-9.58-4,7.18,7.18,0,0,0-7.3,4.8A14.38,14.38,0,0,0,18,70.91a6.2,6.2,0,0,0,1.36,2.2c.17.23.44.38.45.7C13.35,70,13,62.51,17.12,57.88c2.85-3.16,6.49-4,10.54-3.44a18.15,18.15,0,0,1,10,5c5.19,4.77,10.33,9.59,15.57,14.3A88.65,88.65,0,0,0,66.24,84a19.22,19.22,0,0,0,13.27,2.91C80.2,86.74,80.87,86.51,81.55,86.34Z"/><path class="cls-3" d="M65.41,158.64a3.39,3.39,0,0,1-1.41-.15,1.71,1.71,0,0,0-1.14,0,2,2,0,0,1-2.51-1.24,1.86,1.86,0,0,1-.11-.52,1.48,1.48,0,0,0-.43-.86A15,15,0,0,1,57.42,153c-.12-.26-.4-.29-.61-.4a2.08,2.08,0,0,1-1.05-2.75,2.32,2.32,0,0,1,.53-.71,3.87,3.87,0,0,0,1.2-2.07,31.3,31.3,0,0,1,1.34-4,1,1,0,0,0-.17-1.13,1.86,1.86,0,0,1,.1-2.63l.05,0c.62-.61,1.06-1.51,2.15-1.45.23,0,.3-.23.39-.4A45.85,45.85,0,0,1,64,133.17a.89.89,0,0,0,.17-.83,2.66,2.66,0,0,1,2-3.21,2.48,2.48,0,0,1,.61-.07,1.25,1.25,0,0,0,.94-.42c.82-.82,1.64-1.58,2.55-2.35a.73.73,0,0,0,.28-.92,2.34,2.34,0,0,1,.83-2.65,2.47,2.47,0,0,1,2.76-.45,1.1,1.1,0,0,0,1.28-.14c1.49-1,3-2,4.49-3a1.13,1.13,0,0,0,.62-1.07,2,2,0,0,1,2-1.93,1.74,1.74,0,0,1,.45.06,1.31,1.31,0,0,0,1.23-.26c1.87-1.27,3.73-2.53,5.68-3.66a12.12,12.12,0,0,1,2.8-1.37c.51-.15.55-.73,1-.91a11.84,11.84,0,0,1,3-.82,16.86,16.86,0,0,1,5.19.52,31.6,31.6,0,0,1,10,4,17.62,17.62,0,0,1,1.56,1.17,2.22,2.22,0,0,0,1.33.61,1.6,1.6,0,0,1,1.48,1.31,2.2,2.2,0,0,0,.64,1c1,1.07,2.06,2.16,3.09,3.29a1.53,1.53,0,0,0,1,.54,2,2,0,0,1,1.82,1.9,1.19,1.19,0,0,0,.41.82c.67.65,1.32,1.32,2,2a3.15,3.15,0,0,0,1.65,1.09,1.19,1.19,0,0,1,1,1,2.94,2.94,0,0,0,1,1.5,37.68,37.68,0,0,1,3.47,3.68,38.09,38.09,0,0,1,2.91,4.22,1.42,1.42,0,0,0,.83.71,1.57,1.57,0,0,1,1.15,1.75,1.53,1.53,0,0,0,.32,1.09,27.46,27.46,0,0,1,2.35,3.6c.15.34.51.3.82.4a1.55,1.55,0,0,1,1,1.94h0a1.33,1.33,0,0,1-1.43,1.2,1.06,1.06,0,0,1-.36-.09,1.77,1.77,0,0,1-1.32-1.85,2.77,2.77,0,0,1,.1-.5.86.86,0,0,0-.09-1.13,12.65,12.65,0,0,1-1.83-2.84c-.2-.38-.4-.55-.82-.35a1.35,1.35,0,0,1-1.65-.52,1.52,1.52,0,0,1-.21-1.81.89.89,0,0,0-.19-1.25,7.69,7.69,0,0,1-.82-1c-.49-.73-.93-1.35-2-1-.68.2-1.27-.35-1.64-1a1.46,1.46,0,0,1,.2-1.73.58.58,0,0,0,.12-.81.43.43,0,0,0-.12-.11c-.35-.42-.66-.83-1-1.27-.5-.63-.82-1.27-2-.82s-2.26-1.12-1.64-2.38a.6.6,0,0,0-.17-.82h0a14.8,14.8,0,0,1-1.44-1.31,1.92,1.92,0,0,0-2-.72c-1.11.27-2-.87-1.8-2.27a1.07,1.07,0,0,0-.37-1c-1-.91-1.91-1.85-2.84-2.79a.64.64,0,0,0-.88-.18,1.39,1.39,0,0,1-1.72-.18,2,2,0,0,1-.65-1.91.91.91,0,0,0-.27-1,23.07,23.07,0,0,0-12.3-5.9c-3-.53-5.85.55-8.49,2a40,40,0,0,0-5.13,3.74c-.43.34-.82.69-1.27,1a2.68,2.68,0,0,0-1.52,2,1.7,1.7,0,0,1-1.93,1.43,1.64,1.64,0,0,1-.61-.21.89.89,0,0,0-1,.08L76,123c-.28.2-.57.38-.5.86.3,2.26-1.1,3.55-3.29,3a1.12,1.12,0,0,0-1.26.35c-.49.51-1,1-1.52,1.47a2.56,2.56,0,0,0-1.09,2.46c.26,1.6-1,2.62-2.64,2.42a.72.72,0,0,0-.77.37,39.56,39.56,0,0,0-2.54,4,1,1,0,0,0,0,.95,2.5,2.5,0,0,1-1.64,3.67c-.21.08-.44.11-.55.35a23.28,23.28,0,0,0-1.9,4.23c-.07.28-.22.55.25.74a2.42,2.42,0,0,1,1.61,3,2.34,2.34,0,0,1-.64,1,.89.89,0,0,0-.27,1.23,1.34,1.34,0,0,0,.11.14c.15.2.25.44.38.65.61,1,.61,1,1.64.48a2,2,0,0,1,2.71.83,1.86,1.86,0,0,1,.1.2.48.48,0,0,1,.06.24c-.25,1.24.44,1.76,1.51,2a3.41,3.41,0,0,1,.48.18c.2.05.39.14.31.4a.4.4,0,0,1-.42.34A1.51,1.51,0,0,1,65.41,158.64Z"/><path class="cls-2" d="M179.79,143.22a82.87,82.87,0,0,0,4.79-8.13,7,7,0,0,0,.62-3,25.75,25.75,0,0,1,.15-2.78,7,7,0,0,0-1.76-5.7,75.71,75.71,0,0,0-5-5.75,25.87,25.87,0,0,0-14.49-7.21c-1.86-.25-3.74-.32-5.62-.52-2.93-.31-5.95,0-8.78-.89a32.23,32.23,0,0,1-9.86-4.88,16,16,0,0,1-2.28-1.74c-.24-.27-.45-.57-.67-.82a.38.38,0,0,1-.06-.54l.06-.06c.2-.18.35,0,.52.11,1.85,1.07,3.66,2.22,5.55,3.2a33.5,33.5,0,0,0,7.48,2.6,10.53,10.53,0,0,0,2,.11c0,.21-.07.42.08.61,1.54.17,3.07.32,4.61.52a23.74,23.74,0,0,0,4.46.06,27.12,27.12,0,0,1,14.21,2.64,12.56,12.56,0,0,1,4.2,3.21,17.46,17.46,0,0,0,2.06,1.87c3.29,2.95,5.9,6.37,6.52,10.93a14,14,0,0,1-3.09,11.14A22.56,22.56,0,0,1,179.79,143.22Z"/><path class="cls-2" d="M48.23,88.72c3.38,1.21,7,1.59,10.38,2.55a14.14,14.14,0,0,1,2.56.82c.18.1.47.17.39.47a.52.52,0,0,1-.53.34,8.82,8.82,0,0,1-1.78,0,33,33,0,0,0-4.84-.59A23.39,23.39,0,0,1,44.94,90c-2.47-1.21-5-2-7.54-3-3.95-1.65-8-3-11.95-4.68a29.92,29.92,0,0,0-8.17-2,16,16,0,0,0-6.34.51c-2.9.83-4.6,3-5.75,5.55A33.82,33.82,0,0,0,3.5,93a3.35,3.35,0,0,0,.56,2.57,21.19,21.19,0,0,0,4.48,5,1.13,1.13,0,0,0,.69.26l6.46.53a9.88,9.88,0,0,1-5.22.46A10.79,10.79,0,0,1,4.32,99.4,9.15,9.15,0,0,1,2.45,97a8.07,8.07,0,0,1-.91-5.71,12.83,12.83,0,0,0,.2-2.77c-.13-3.76,1.82-6.4,4.57-8.59a9.69,9.69,0,0,1,6-2.1c3.75,0,7.5-.14,11.14,1a104.43,104.43,0,0,1,11.17,4.34c2.89,1.29,5.67,2.82,8.65,4,.33.14.69.24,1,.37A14.35,14.35,0,0,0,48.23,88.72Z"/><path class="cls-2" d="M47,107.35a20.25,20.25,0,0,0,7.1-2.07c4.63-2.19,9.56-3.72,14.08-6.16a2.22,2.22,0,0,1,.31-.14c.11,0,.45-.16.6.08s-.1.39-.28.51a24.12,24.12,0,0,1-2.47,1.65c-4.29,2.13-8.39,4.61-12.64,6.83a20.57,20.57,0,0,1-7.9,2.21c-3.07.25-6.13.77-9.2,1.08-3.82.39-7.39,1.79-11.06,2.62a10,10,0,0,0-4.3,2.72,28.57,28.57,0,0,0-5.68,6.09,24.29,24.29,0,0,0-1.85,3.4,9.23,9.23,0,0,0-.24,6,19.16,19.16,0,0,0,3.45,7.24A13.26,13.26,0,0,0,21,142.58c1.64,1,3.39,1.87,5,3a15.08,15.08,0,0,1-5.11-2.11c-3.21-1.93-6.1-4.24-7.87-7.6-3-5.68-2.26-11.13,1.46-16.25a20.57,20.57,0,0,1,4.31-4.38c1-.75,1.65-1.86,2.66-2.6a13.65,13.65,0,0,1,4.2-2.46c.47.09.86-.22,1.3-.32,1.7-.41,3.38-.93,5.12-1.22a12.22,12.22,0,0,1,2.26-.25c.12,0,0-.15,0,0a1.38,1.38,0,0,1-1.09,0,15.11,15.11,0,0,1,4.93-.09,32.43,32.43,0,0,0,6.9-.31,15.09,15.09,0,0,0,1.77-.15C47.24,107.74,47.32,107.59,47,107.35Z"/><path class="cls-2" d="M185.55,63.85a11.18,11.18,0,0,0-6.88-6.72,9.67,9.67,0,0,0-5.41-.14,26.82,26.82,0,0,0-11.5,5.24A22.72,22.72,0,0,0,158,65.86a8.59,8.59,0,0,1-.94,1c-2.87,2.7-5.27,5.85-8.1,8.6A53.39,53.39,0,0,1,136.66,85a24.83,24.83,0,0,1-8,2.64c-2.22.32-4.37-.2-6.57-.25-.07,0-.14-.09-.21-.13a21.43,21.43,0,0,0,6.28-.63,29.86,29.86,0,0,0,10.07-5.48c4.33-3.34,8.4-7,12.45-10.68,4.52-4.11,8.82-8.4,13.53-12.25a16.29,16.29,0,0,1,11.89-3.7,10.92,10.92,0,0,1,9.29,8A2.43,2.43,0,0,1,185.55,63.85Z"/><path class="cls-2" d="M195.05,100.07A11.22,11.22,0,0,0,197,90c-.46-1.86-.67-3.83-1.92-5.43-2.54-3.29-5.86-5.16-10-4.93a28,28,0,0,0-10.6,2.87c-4.33,2.09-8.59,4.39-13.26,5.65s-9.19,2.64-13.9,3.44c-.92.15-1.81.38-2.71.6a6.64,6.64,0,0,1-1.41.06l-.06-.22,8.11-3a.41.41,0,0,1,.58,0h0a26.17,26.17,0,0,0,4.93-1.64c3.49-1.37,6.76-3.24,10.22-4.68,3.92-1.64,7.8-3.43,12-4.2a29.62,29.62,0,0,1,11.26-.09c3.81.82,8.36,5.49,8.1,10.08a35.52,35.52,0,0,0,.31,4.11,8.6,8.6,0,0,1-3.42,7.39A.12.12,0,0,1,195.05,100.07Z"/><path class="cls-3" d="M45.88,135.43a4.64,4.64,0,0,1-2,2.35,14.91,14.91,0,0,1-8.59,3.06,1.85,1.85,0,0,0-1.18.36,1.35,1.35,0,0,1-1.52.18,8.74,8.74,0,0,0-3.53-1,14.29,14.29,0,0,1-5-1.72,11.57,11.57,0,0,1-4.47-4.6,2.63,2.63,0,0,0-.45-.82,2.18,2.18,0,0,1-.27-3.07,2.13,2.13,0,0,1,.21-.22c.11-.12.29-.18.3-.38.14-1.75,1.41-2.69,2.66-3.62a1.92,1.92,0,0,0,.7-.89A1.82,1.82,0,0,1,25,123.85a2.92,2.92,0,0,0,2.26-.19,10,10,0,0,1,1.2-.42,1.33,1.33,0,0,0,.95-.82,1.87,1.87,0,0,1,2.46-1,1.82,1.82,0,0,1,.75.59,1,1,0,0,0,1,.39c1-.12,1.95-.25,2.94-.31.36,0,.44-.24.58-.49a1.91,1.91,0,0,1,3.46-.13.73.73,0,0,0,.83.4l3.55-.13a.82.82,0,0,0,.64-.32c1.17-1.21,2.21-1.15,3.21.18a.62.62,0,0,0,.64.27h1.78a.64.64,0,0,1,.72.54v0c0,.08,0,.12-.07.13H50.53a1.85,1.85,0,0,0-2.05,1,1.76,1.76,0,0,1-2.44.52,1.78,1.78,0,0,1-.69-.84.67.67,0,0,0-.76-.47l-3.29.12a.83.83,0,0,0-.75.43,1.84,1.84,0,0,1-2.47.82,1.75,1.75,0,0,1-.7-.62,1.06,1.06,0,0,0-1-.41c-.9.07-1.8.13-2.7.17a.63.63,0,0,0-.71.53h0a1.71,1.71,0,0,1-1.65,1.36,1.85,1.85,0,0,1-1.91-1.12,1,1,0,0,0-.3-.38,9.6,9.6,0,0,0-2.57.75c-.14.18,0,.3.09.44a2,2,0,0,1-.74,2.57,2,2,0,0,1-2.75-.43c-.36-.45-.56-.36-.92,0a7.61,7.61,0,0,0-1.75,2c-.22.4-.24.65.27.83a1.75,1.75,0,0,1,1.2,1.73,1.71,1.71,0,0,1-1.14,1.8c-.6.23-.5.46-.19.82a15,15,0,0,0,2.13,1.93c.27.21.41.11.63-.1a2,2,0,0,1,2.59-.53,1.93,1.93,0,0,1,.86,2.34c-.08.4.06.5.35.6a15.61,15.61,0,0,0,3.61.88.69.69,0,0,0,.82-.47,1.54,1.54,0,0,1,1.72-1,1.6,1.6,0,0,1,1.49,1.31c.11.63.43.75,1,.75a9.86,9.86,0,0,0,3.65-.56c.41-.15.52-.26.24-.69a1.47,1.47,0,0,1,.37-2l.12-.07a1.45,1.45,0,0,1,2,.51,1.09,1.09,0,0,1,.08.15c.2.37.31.35.61.13a11,11,0,0,0,2.64-2.08C45.76,134.92,45.81,135.21,45.88,135.43Z"/><path class="cls-2" d="M148.64,156.94a15.68,15.68,0,0,0,1.4-4.21c.25-3.08,1.35-6,1.31-9.15a32.87,32.87,0,0,0-4.64-16.44,49.91,49.91,0,0,0-8.89-11.65c-3.73-3.46-6.94-7.39-10.64-10.87-.2-.19-.63-.4-.32-.74s.57,0,.83.19a31,31,0,0,1,4.57,3.59c2.68,2.57,5.46,5,8.22,7.5a48.55,48.55,0,0,1,5.91,6.58c.15.17.3.33.46.49a.18.18,0,0,1,.06.25s0,0-.06,0c-.61.24-.1.51,0,.69a29.85,29.85,0,0,1,2.57,4.27,35.47,35.47,0,0,1,3.76,14.35,24.88,24.88,0,0,1-2.46,12c-.22.26-.28.6-.52.82A12.91,12.91,0,0,1,148.64,156.94Z"/><path class="cls-3" d="M152.62,107.83c-.19,0-.43,0-.47-.19s.32-.22.39-.42c1.86-1.22,3.7-2.46,5.47-3.83a.83.83,0,0,0,.31-.82,2.05,2.05,0,0,1,1.89-2.19,2,2,0,0,1,.91.15.74.74,0,0,0,.82-.19c1.16-1,2.32-2,3.5-2.94a.84.84,0,0,0,.33-.67,2,2,0,0,1,1.95-2.14,2.21,2.21,0,0,1,.57.06,1.14,1.14,0,0,0,1.06-.25c1-.75,2-1.48,3-2.22.66-.48,1.38-.82,1.65-1.8a1.49,1.49,0,0,1,1.64-1,1.83,1.83,0,0,0,1.26-.35,12.15,12.15,0,0,1,4.75-2,1.57,1.57,0,0,0,.55-.23c2.08-1.39,4.44-1.13,6.75-1.15a3.65,3.65,0,0,1,1.55.41,2.36,2.36,0,0,0,1.11.27A1.38,1.38,0,0,1,193,87.38a2.35,2.35,0,0,0,.59,1,4.78,4.78,0,0,1,1,5.45,2.34,2.34,0,0,0-.1.83,1.49,1.49,0,0,1-.83,1.38,3.25,3.25,0,0,0-1.19,1,5.67,5.67,0,0,1-3.29,1.76,3,3,0,0,0-1.53.82,1.35,1.35,0,0,1-1.56.39,5,5,0,0,0-2.46-.29,9.32,9.32,0,0,1-1.75-.23c-.52-.11-.9-.29-.53-.91,1,0,1.92-.06,2.88-.07a.83.83,0,0,0,.82-.55,1.77,1.77,0,0,1,2.34-.92,1.7,1.7,0,0,1,.6.43.89.89,0,0,0,1.1.26,8.43,8.43,0,0,0,2.57-1.26c.29-.23.4-.4.08-.73a1.52,1.52,0,0,1-.26-1.87,1.42,1.42,0,0,1,1.64-.82c.34,0,.45-.09.45-.41a6.51,6.51,0,0,0-.68-3.19c-.15-.31-.29-.39-.65-.26-1.42.5-2.46-.33-2.2-1.82.06-.4-.08-.49-.38-.58a7.61,7.61,0,0,0-2.51-.25c-.5,0-.73.13-.72.73A1.64,1.64,0,0,1,184.82,89a2,2,0,0,1-.58-.09,1.47,1.47,0,0,1-1-1.65,12.31,12.31,0,0,0-3.36,1.32c-.58.29-1.13.65-1.69,1s-1.24.7-1.27,1.65a1.51,1.51,0,0,1-1.75,1.22l-.17,0a1.08,1.08,0,0,0-1.14.3q-2,1.77-4,3.52a1.78,1.78,0,0,0-.46.7,1.66,1.66,0,0,1-1.06,1,7.23,7.23,0,0,0-2.65,1.58l-2.12,1.54c-.71.51-1.34.82-1.52,1.84a1.81,1.81,0,0,1-2.18,1.33,2.46,2.46,0,0,1-.38-.14.92.92,0,0,0-.82.1c-1.35.77-2.7,1.54-4.11,2.26C153.79,106.85,153.31,107.5,152.62,107.83Z"/><path class="cls-3" d="M146.92,122.54v-.31c.29-.52.82-.44,1.27-.44.82,0,1.64.07,2.46.07a2.38,2.38,0,0,0,2-.73,1.8,1.8,0,0,1,2.54,0,2,2,0,0,1,.25.33,1.1,1.1,0,0,0,1,.59c1.24.12,2.47.27,3.69.42a.68.68,0,0,0,.83-.38,2.19,2.19,0,0,1,2.36-1.12,1.64,1.64,0,0,1,1.55,1.41c.08.39.34.32.58.31a25.65,25.65,0,0,1,4.63.35,1.8,1.8,0,0,0,1-.17,2,2,0,0,1,2.3.24,4,4,0,0,0,1.34.65,10.69,10.69,0,0,1,5.91,4.11,5,5,0,0,1,.42,5.06,19.26,19.26,0,0,1-3,4.34,1.66,1.66,0,0,1-.59.46c-2.08.69-3.88,2.07-6.07,2.46a1.17,1.17,0,0,0-.6.29,2,2,0,0,1-2.25.46,6.43,6.43,0,0,0-2.74.26c-1.52.19-3-.28-4.54-.09a.85.85,0,0,1-.77-.31c-1-1.21-2.57-1.81-3.74-2.86a5.62,5.62,0,0,1-1.38-1.57,8.77,8.77,0,0,1,2.16,1.42l1.37,1c.49.35.82.47,1.24-.25a1.41,1.41,0,0,1,1.77-.62,1.51,1.51,0,0,1,1.23,1.44c0,.68.29.82.82.76,1.1-.07,2.18-.27,3.29-.44.37-.06.41-.28.49-.57a1.56,1.56,0,0,1,1.43-1.25,1.7,1.7,0,0,1,1.76.77c.21.35.4.49.82.34,1-.41,2.11-.83,3.16-1.2.36-.14.54-.31.35-.76a1.39,1.39,0,0,1,.42-1.75,1.49,1.49,0,0,1,1.89-.1c.61.45.92.19,1.33-.2a4.23,4.23,0,0,0,1.33-3.75c-.05-.48-.16-.82-.77-.71a1.64,1.64,0,0,1-1.76-.94,1.46,1.46,0,0,1,.27-1.79c.25-.25.17-.41-.07-.61a15.77,15.77,0,0,0-3.28-2.19c-.36-.17-.56-.19-.83.24a1.93,1.93,0,0,1-2.4.86,1.71,1.71,0,0,1-1.2-2c0-.4-.08-.5-.42-.52l-4.74-.2a.76.76,0,0,0-.61.36c-1.3,1.46-2.66,1.35-3.64-.33-.19-.32-.42-.32-.7-.33-1.27,0-2.54-.08-3.81-.15a1,1,0,0,0-1,.48,1.78,1.78,0,0,1-3.2-.22c-.23-.41-.55-.41-.92-.43A33.93,33.93,0,0,1,146.92,122.54Z"/><path class="cls-2" d="M53.1,122.37c1-1.23,1.88-2.52,2.9-3.7,1.85-2.12,3.63-4.33,6.09-5.8.37-.22.91-.71,1.18-.36s-.36.71-.67,1a38.48,38.48,0,0,0-9,11.51,33,33,0,0,0-3.38,11,50.16,50.16,0,0,0-.44,9.08,29.39,29.39,0,0,0,2.52,10.6c.89,2,1.8,3.93,2.7,5.9a9.69,9.69,0,0,1-2.47-2.75c-.88-1.44-1.83-2.83-2.82-4.2a5.89,5.89,0,0,0-.48-.82,25,25,0,0,1-2.47-11.86,36.5,36.5,0,0,1,3-12.85c.21-.51.48-1,.69-1.51h0c.39-.59.6-1.28,1-1.86l1.51-2.4C53,123,53.64,122.78,53.1,122.37Z"/><path class="cls-2" d="M117.8,86.34a5.21,5.21,0,0,0-3,.82c-4.65,2.67-9.87-.46-10.56-5.75a9,9,0,0,1,1.28-6.21,5.4,5.4,0,0,1,4.67-2.55A8.64,8.64,0,0,1,116,74.13a7.22,7.22,0,0,1,1.64,1.76c.16.22.23.56.63.34a5,5,0,0,0,.27,2,7.94,7.94,0,0,1-1.77,7.22l-.31.41a1.34,1.34,0,0,0-.14.25C116.83,86.31,117.39,86,117.8,86.34Z"/><path class="cls-3" d="M26.36,74.92c-1.37-1.12-2.94-2-3.61-3.85a12.72,12.72,0,0,0-1.33-2.53,4.46,4.46,0,0,1-.5-3.19,1.22,1.22,0,0,1,.31-.68c1.2-1,2.31-2.14,3.92-2.37a7.12,7.12,0,0,1,4,.21,8.11,8.11,0,0,1,3.11,2.39c.74.93,1.47,1.86,2.18,2.81A4.11,4.11,0,0,0,35.6,69a1.11,1.11,0,0,1,.46.58c.73,2,2.42,3.23,3.5,4.93.14.24.43.24.65.35a1.73,1.73,0,0,1,1.06,1.52,2,2,0,0,0,.52,1.28c.9,1.09,1.52,2.37,2.47,3.43a3.5,3.5,0,0,0,1,.89,1.23,1.23,0,0,1,.67.82,16.5,16.5,0,0,0,1.19,2.6A5.22,5.22,0,0,0,48.47,88c.11.08-.13.19-.27.19a2.77,2.77,0,0,1-.75-.2,1.81,1.81,0,0,1-.6-.66.45.45,0,0,0-.19-.4c-.15-.31-.51-.45-.67-.76-.42-.66-.82-1.27-1.79-1.23s-1.35-1.11-1-2.22A1.24,1.24,0,0,0,43,81.6c-.65-1-1.33-2.08-2.07-3.09a.69.69,0,0,0-.9-.33,1.26,1.26,0,0,1-1.51-.46c-.45-.64-1-1.31-.48-2.15a.82.82,0,0,0-.11-1c-.63-.83-1.25-1.65-1.86-2.41a.72.72,0,0,0-1-.33,1.29,1.29,0,0,1-1.81-1.65,2.26,2.26,0,0,0-.66-2.3c-.77-.82-1.52-1.64-2.27-2.5-.28-.33-.5-.39-.92-.12a1.42,1.42,0,0,1-2.13-.59c-.28-.44-.19-1.21-.86-1.31a3.93,3.93,0,0,0-2.95.73c.93,1,1.08,1.74.56,2.47s-1.36,1-2.65.36a15.15,15.15,0,0,0,1.83,3.38c.13.2.29.06.44,0a4,4,0,0,1,.76-.35,1.42,1.42,0,0,1,1.74.68,1.39,1.39,0,0,1-.41,1.88c-.69.42-.5.77-.17,1.25S26.11,74.54,26.36,74.92Z"/><path class="cls-2" d="M84.77,86h-.12a.15.15,0,0,1-.21,0l0,0c0-.34-.26-.47-.44-.66a8.29,8.29,0,0,1-2.33-8.22,4,4,0,0,0,.08-.92c.48,0,.54-.45.72-.73a6.34,6.34,0,0,1,4.2-3.14,7.05,7.05,0,0,1,4.79.91,7.91,7.91,0,0,1,3.79,8.86A7.1,7.1,0,0,1,87,87.07C86.18,86.86,85.54,86.28,84.77,86Z"/><path class="cls-3" d="M151.79,89h-.59c-.38-.42,0-.73.21-1q1.64-2.25,3.29-4.47a1,1,0,0,0,.19-.82,1.45,1.45,0,0,1,1-1.92,2.92,2.92,0,0,0,1.62-1.43c.38-.55.72-1.14,1.12-1.68a2.86,2.86,0,0,0,.72-2,1.47,1.47,0,0,1,1.24-1.52,1.46,1.46,0,0,0,.92-.65c1.37-1.94,2.8-3.88,4.31-5.69a16.29,16.29,0,0,1,6-5c2.14-.91,3.92-.67,5.4.88.45.57.42.75-.11.56a2.61,2.61,0,0,0-.77-.27,1.26,1.26,0,0,0,.2.62,1.4,1.4,0,0,1-.82,1.73,1.76,1.76,0,0,1-2.13-.14c-.93-.76-.82-1.7-.31-2.74a3.29,3.29,0,0,0-1.75.47,15,15,0,0,0-3.19,2.87c-.27.28-.13.38.1.59a1.48,1.48,0,0,1,.43,2l-.08.1a1.72,1.72,0,0,1-2.21.7c-.56-.3-.82-.16-1.17.29-.82,1.09-1.73,2.15-2.6,3.23-.19.24-.38.44-.07.82a1.52,1.52,0,0,1,.08,2,1.84,1.84,0,0,1-2,.88.93.93,0,0,0-1.18.47c-.33.5-.71,1-1.06,1.43s-.87,1.06-.17,1.92-.26,2.46-1.65,2.46a1.53,1.53,0,0,0-1.53.83A34.78,34.78,0,0,1,151.79,89Z"/><path class="cls-3" d="M7,89.51a6.09,6.09,0,0,0,.23-.82,1.93,1.93,0,0,1,2.06-1.78h0c1,0,1.84-.46,2.81-.49a17.15,17.15,0,0,1,3,0,2,2,0,0,0,1-.22,1.65,1.65,0,0,1,2.27.53,1.11,1.11,0,0,1,.14.29,1.06,1.06,0,0,0,.58.44,23.05,23.05,0,0,1,3.82,2,1.12,1.12,0,0,0,.94.17,1.65,1.65,0,0,1,2.1,1,1.61,1.61,0,0,1,.09.54.89.89,0,0,0,.26.59c1,.9,2,1.82,3,2.74a.58.58,0,0,0,.82.12l0,0a1.63,1.63,0,0,1,2,.1,1.75,1.75,0,0,1,.61,2,.58.58,0,0,0,.23.77,20.69,20.69,0,0,0,3.09,2.59,16.55,16.55,0,0,1,2.65,2.14A25.68,25.68,0,0,0,46,106.42c.28.11.55.16.42.56a.14.14,0,0,1-.14.14h0c-.53-.2-1-.44-1.58-.59a21.77,21.77,0,0,1-6.16-3.29.56.56,0,0,0-.79,0l0,0a1.54,1.54,0,0,1-2.1-2.24c.33-.37.31-.56,0-.82-.67-.56-1.31-1.16-2-1.73a2,2,0,0,0-2.13-.67,1.59,1.59,0,0,1-1.87-1.23,2.93,2.93,0,0,1,0-.41A1.43,1.43,0,0,0,29,94.81c-.93-.71-1.86-1.46-2.77-2.22a.82.82,0,0,0-.9-.13c-1.49.59-2.56-.27-2.36-1.88,0-.36-.15-.44-.35-.57a23.33,23.33,0,0,0-3.42-1.64.5.5,0,0,0-.66.14c-1.36,1.45-2.71,1.16-3.29-.71-.11-.34-.32-.36-.56-.37a14.37,14.37,0,0,0-3.52.36c-.42.08-.41.35-.44.68A1.69,1.69,0,0,1,9,90.11a1.74,1.74,0,0,1-.74-.2c-.23-.2-.44-.41-.82-.18C7.23,89.86,7,89.89,7,89.51Z"/><path class="cls-3" d="M138.64,146.05c.08.57-.12,1.15.49,1.64s1.35.9,1.89.52a1.78,1.78,0,0,0,.53-1.43,1.29,1.29,0,0,0-.94-1.33c-.31-.12-.69-.09-.75-.53l.82.22a1.64,1.64,0,0,1,1.15,2l-.06.19a2.92,2.92,0,0,0-.14,2.17,5.4,5.4,0,0,1,.13,1.26c.21.62-.13,1.3.19,1.92a2.26,2.26,0,0,1-1.17,3.63,14,14,0,0,0-2.47,1.71,7.92,7.92,0,0,1-3.51,1.33,4.4,4.4,0,0,0-.88.24,1.39,1.39,0,0,1-1,.1c-1.18-.62-2.54-.65-3.7-1.29,0-.23.19-.24.36-.21s.37.11.56.15c1.28.3,1.28.3,1.43-.94a1.78,1.78,0,0,1,1.81-1.32,1.7,1.7,0,0,1,1.58,1.59c.05.54.22.59.67.43a9.59,9.59,0,0,0,3-1.64c.38-.31.47-.51.12-.93a2.29,2.29,0,0,1-.15-2.83c.53-.82,1.27-1,2.46-.69.22.06.6.12.45-.18a14.22,14.22,0,0,1-.52-2.53c-.16-.54-.31-.82-1-.82a1.58,1.58,0,0,1-1.65-1.5A1.6,1.6,0,0,1,138.64,146.05Z"/><path class="cls-4" d="M176.58,64.67c-.31-.22-.36-.61-.54-1l1.46.69-.23-.59c1.65,1.11,1.76,2.82,1.76,4.56,0,.56-.08,1.12-.1,1.64a1.34,1.34,0,0,1-.37,1c-1.41,1.23-2.31,2.9-3.69,4.11-.39.35-.78,1-1.38.23.76-1.18,1.5-2.36,2.3-3.52a1,1,0,0,0,.17-1.18,1.57,1.57,0,0,1,.74-2.1,1.68,1.68,0,0,1,.53-.15A1.38,1.38,0,0,0,178.61,67v-.06A2.92,2.92,0,0,0,177,64.3C176.53,64.17,176.58,64.41,176.58,64.67Z"/><path class="cls-4" d="M19.67,97.85C18,99,16.18,99,14.31,98.68a9.92,9.92,0,0,1-5.86-2.91C8,95.27,7.21,95.6,6.81,95a2.69,2.69,0,0,1,1.77,0c-.18.2-.19.36.05.54a9.48,9.48,0,0,0,3.71,1.72c.27.06.4,0,.48-.27a1.4,1.4,0,0,1,1.61-1.16h0a1.15,1.15,0,0,1,1.09,1.22s0,.08,0,.12c0,.42.29.34.53.34a22.45,22.45,0,0,0,3.18-.22c.21,0,.47-.25.6,0S19.75,97.67,19.67,97.85Z"/><path class="cls-5" d="M128.61,158.14a9.15,9.15,0,0,1-2.28-1,.83.83,0,0,0-.93,0,1.44,1.44,0,0,1-1.73-.2,1.38,1.38,0,0,1-.5-1.59c.21-.53,0-.77-.37-1.05a18.34,18.34,0,0,1-3.59-3.77,1.39,1.39,0,0,1,.51-.82,14.55,14.55,0,0,0,3.71,4.18,1.17,1.17,0,0,0,1,.35c.91-.12,1.37.23,1.71,1.2,0,1.27,1.14,1.55,1.92,2.13.26.2.66.18.82.55a.08.08,0,0,1,0,.07A.22.22,0,0,1,128.61,158.14Z"/><path class="cls-4" d="M65.41,158.64h.42c.25,0,.49,0,.52-.31s-.29-.19-.42-.3-.1,0-.15-.06c-1.65-.61-1.65-.61-1.65-2.41a.62.62,0,0,1,.21.61c-.22,1,.43,1.14,1.12,1.37a9.07,9.07,0,0,0,3.29.63c.33,0,.57,0,.59-.49,0-1.19.5-1.79,1.36-1.94s1.56.23,2.06,1.32a1,1,0,0,0,.22.25c-.22.7-.4,1.42-1.17,1.76a1.44,1.44,0,0,1-1.38,0c-1.23-.91-2.59-.26-3.88-.39C66.19,158.67,65.79,158.84,65.41,158.64Z"/><path class="cls-6" d="M84.77,86c.32-.23.53.08.74.2a6,6,0,0,0,6.64-.33,6.64,6.64,0,0,0,3-4,7.9,7.9,0,0,0-6-9.42h0c-2.9-.59-5.4,1-6.79,3.62-.18.37-.27.43-.54.12a.14.14,0,0,1,0-.15c.63-.29.82-1,1.18-1.47A6.17,6.17,0,0,1,90,72.48a8.14,8.14,0,0,1,5.65,7.92,7.46,7.46,0,0,1-5.75,6.82A6,6,0,0,1,84.77,86Z"/><path class="cls-4" d="M8.62,95a3,3,0,0,1-1.78,0,.71.71,0,0,1-.43-.58c.1-1.64-.51-3.39.61-4.93.18.32.33.06.53,0a.54.54,0,0,1,.67.38v0c-.49-.29-.82-.11-1.05.37a3.58,3.58,0,0,0-.42,2.42c.88-.37,1.77-.58,2.33.44a1.31,1.31,0,0,1-.34,1.81Z"/><path class="cls-7" d="M143.2,163.2c.31-.82,1-1.25,1.55-1.87,1.26-1.49,2.59-2.93,3.89-4.39A14.67,14.67,0,0,1,143.2,163.2Z"/><path class="cls-6" d="M84.39,86h.24c-.23.18-.47.3-.16.65a2.29,2.29,0,0,0,1.23.68,5,5,0,0,1,2.19,1.18,3.62,3.62,0,0,1-3.51-1.41,2.23,2.23,0,0,0-2.16-1c.35-.38,1,.1,1.33-.6C83.66,85.35,84,86.16,84.39,86Z"/><path class="cls-8" d="M80.43,149.42a8.71,8.71,0,0,1-3.09,4.66c0-.45.35-.63.54-.92a21.63,21.63,0,0,0,2.19-4.48C80.44,148.84,80.36,149.17,80.43,149.42Z"/><path class="cls-9" d="M32.1,108.84l-4.5,1.09a6,6,0,0,1-.74.13c-.18.07-.36.13-.34-.18a15.22,15.22,0,0,1,4.39-1.2C31.32,108.63,31.79,108.4,32.1,108.84Z"/><path class="cls-10" d="M128.61,158.14c.12-.35-.22-.3-.37-.38a13.59,13.59,0,0,1-1.6-1,1.27,1.27,0,0,1-.53-1.36,2.1,2.1,0,0,0,1.11,1.48,9.37,9.37,0,0,0,3.29,1.46c.59.14.92.11.82-.61a.69.69,0,0,1,.13-.29c0,1.33,0,1.36-1.33,1.08-.33-.07-.67-.38-1-.09A.84.84,0,0,1,128.61,158.14Z"/><path class="cls-11" d="M48.23,88.72c0,.11.16.35-.09.26a20.65,20.65,0,0,1-3.82-1.43,16.23,16.23,0,0,1,2.62.82c.24.06.49.34.76,0l.1-.06c.13,0,.19.11.25.22Z"/><path class="cls-12" d="M32.1,108.84c-.36-.32-.82-.06-1.19-.16a8.17,8.17,0,0,1,2.36-.35l1.16,0v.06Z"/><path class="cls-13" d="M2.47,97l1.86,2.36A4.36,4.36,0,0,1,2.47,97Z"/><path class="cls-14" d="M181.33,98.59c-.2.52.24.68.52.92a.46.46,0,0,0-.21.39c-.37-.19-.49-.57-.72-.87-.09-.12-.25-.3-.13-.43S181.15,98.53,181.33,98.59Z"/><path class="cls-15" d="M53.1,122.37c.13,0,.38.08.38.11a.82.82,0,0,1-.55.75c.07-.2.15-.4.21-.59-.42-.19-.87.12-1.27-.09a.14.14,0,0,1,.06-.14Z"/><path class="cls-16" d="M51.42,125.62a4.67,4.67,0,0,1-1,1.87A3.81,3.81,0,0,1,51.42,125.62Z"/><path class="cls-16" d="M50.41,127.49a3,3,0,0,1-.69,1.51A2.57,2.57,0,0,1,50.41,127.49Z"/><path class="cls-17" d="M26.52,109.88a.43.43,0,0,0,.34.18c-.38.13-.75.46-1.2.14A1.45,1.45,0,0,1,26.52,109.88Z"/><path class="cls-18" d="M77.23,154.21a1.82,1.82,0,0,1-1.11,1C76.45,154.86,76.71,154.39,77.23,154.21Z"/><path class="cls-11" d="M46.85,87.33l.61.56c.22.08.39.17.27.45l-.06.06C47.35,88.08,46.89,87.87,46.85,87.33Z"/><path class="cls-19" d="M46,86.17c.29.2.63.34.67.77A.92.92,0,0,1,46,86.17Z"/><path class="cls-20" d="M49.22,153.71a1,1,0,0,1,.49.82A1,1,0,0,1,49.22,153.71Z"/><path class="cls-20" d="M150.3,154.71a1.22,1.22,0,0,1,.52-.82A.9.9,0,0,1,150.3,154.71Z"/><path class="cls-2" d="M46.29,107.15l.15-.14.57.34A.82.82,0,0,1,46.29,107.15Z"/><path class="cls-2" d="M114.81,54.12c-.13,1.27.19,2.6-.18,3.91,0,.18,0,.44-.28.44s-.21-.23-.26-.39c-.2-.64-.43-1.28-.61-1.93-.36-1.28-1.39-2.08-2.17-3.07-1.21-1.55-2.28-3.2-3.45-4.79-.67-.9-1.55-1.64-2.17-2.59-.42-.63-.82-1.3-.21-2a1.67,1.67,0,0,1,1.93-.4c3.58,1.12,6.23,3.24,7.26,7C115,51.52,114.67,52.81,114.81,54.12Z"/><path class="cls-21" d="M104.41,92.05a12,12,0,0,1,2.08.82c2.16,1,4,.38,5.85-.82a9.39,9.39,0,0,0,1.59-1.23c.1-.12.23-.31.41-.13s0,.26,0,.38a5.21,5.21,0,0,1-.47.83c-1.36,1.55-4.42,3.13-6.91,1.78C106.13,93.22,105.11,93.11,104.41,92.05Z"/><path class="cls-6" d="M93,90.56a1.31,1.31,0,0,1-1.39.69,20.87,20.87,0,0,0-3.16.3A5.39,5.39,0,0,1,85,90.68c-.18-.12-.41-.28-.31-.54a.54.54,0,0,1,.66-.23,2.2,2.2,0,0,1,.82.38,3.17,3.17,0,0,0,2.82.77C90.32,90.84,91.71,91.15,93,90.56Z"/><path class="cls-21" d="M112,89.59c-.25.74-.83.83-1.39,1a7.36,7.36,0,0,1-2.43.14.57.57,0,0,1-.63-.45c-.07-.38.31-.43.57-.5a2,2,0,0,1,.74-.05A5.13,5.13,0,0,0,112,89.59Z"/><path class="cls-22" d="M52.07,98.1A17.51,17.51,0,0,1,46,96.38C48,96.91,50,97.61,52.07,98.1Z"/><path class="cls-22" d="M154,96.53a17.43,17.43,0,0,1-6,1.75Z"/><path class="cls-23" d="M112.34,89.5A14.51,14.51,0,0,1,115,87.61,2.84,2.84,0,0,1,112.34,89.5Z"/><path class="cls-23" d="M83.42,89.26a2,2,0,0,1-1-1.64c0-.13,0-.3.13-.36s.3.09.38.23A3.94,3.94,0,0,1,83.42,89.26Z"/><path class="cls-24" d="M114.21,60.46a.83.83,0,0,1,.6.83c0,.28-.18.57-.52.52a.64.64,0,0,1-.56-.71h0a.51.51,0,0,1,.37-.62Z"/><path class="cls-23" d="M90.3,88.7a10.57,10.57,0,0,0,2.33-.82C92.38,88.8,91.43,89.17,90.3,88.7Z"/><path class="cls-23" d="M106.44,89.45a4.75,4.75,0,0,1-1.65-.94c-.14-.17-.33-.37-.09-.57s.4,0,.49.17C105.45,88.63,106.16,88.7,106.44,89.45Z"/><path class="cls-25" d="M141.93,152.69c-.42-.61-.14-1.28-.19-1.92A6.21,6.21,0,0,1,141.93,152.69Z"/><path class="cls-26" d="M47.73,88.34l-.27-.45a.8.8,0,0,1,.74.31.41.41,0,0,0-.19.36Z"/><path class="cls-27" d="M105.87,79.76h-.16a1,1,0,0,1-1.2-.32c-.28-.5.12-.93.5-1.21a6.14,6.14,0,0,1,3.55-1.2,31.35,31.35,0,0,1,6,.16,7,7,0,0,1,2.23.74c.36.18.74.46.59.9a.72.72,0,0,1-.87.5l-.16-.07a2.36,2.36,0,0,0-.75,0c-.53.19-1-.17-1.44-.24a17,17,0,0,0-5.13-.4,2.69,2.69,0,0,0-1.2.35C107.12,79.15,106.59,79.63,105.87,79.76Z"/><path class="cls-27" d="M115.08,82.43a5.57,5.57,0,0,0,1.39-.3c.19,0,.45-.23.59.07s-.06.46-.3.6A9.73,9.73,0,0,1,114,83.9a12.34,12.34,0,0,1-6.63-.08,4.85,4.85,0,0,1-2.16-1.4c-.37-.41-.29-.64.28-.65.87,0,1.57.63,2.47.66a5.51,5.51,0,0,0,1.9.1,1.12,1.12,0,0,1,.36.09,1.58,1.58,0,0,0,.86.11,17.3,17.3,0,0,0,3.14-.29C114.45,82.43,114.81,82.24,115.08,82.43Z"/><path class="cls-28" d="M115.08,82.43l-.76.19c-.24-.29-.13-.64-.14-1a5.76,5.76,0,0,0-.25-2.37c-.09-.2-.14-.46.24-.44l1.4.44C117,80.6,116.84,81.52,115.08,82.43Z"/><path class="cls-29" d="M105.58,76.73a6.53,6.53,0,0,1,2.9-1c2.29-.47,4.48.21,6.69.66a1.16,1.16,0,0,1,.47.2c.24.18.72.37.51.71s-.46-.11-.7-.22a14.38,14.38,0,0,0-3.66-.82,12.84,12.84,0,0,0-5.29.58A1.1,1.1,0,0,1,105.58,76.73Z"/><path class="cls-30" d="M107.79,82.62a5.48,5.48,0,0,1-2.35-.83,2.11,2.11,0,0,1,.43-2,4.2,4.2,0,0,1,1.78-.94c.44.35-.05.66,0,1a3.06,3.06,0,0,0,0,1.59C107.67,81.8,108,82.17,107.79,82.62Z"/><path class="cls-27" d="M114,74.85c-2.46,0-4.76-.64-7,.38C107.61,73.86,111.76,73.64,114,74.85Z"/><path class="cls-29" d="M114.72,84.61a1.15,1.15,0,0,1-.93.61,18.39,18.39,0,0,1-3.91.45c-.16,0-.37,0-.41-.21s.14-.27.31-.29Z"/><path class="cls-29" d="M113.82,86.49a5.13,5.13,0,0,1-3,.7.37.37,0,0,1-.38-.27c0-.17.2-.22.36-.25A7.37,7.37,0,0,1,113.82,86.49Z"/><path class="cls-29" d="M108.53,85.33h-1.2c-.18,0-.36,0-.33-.27a.26.26,0,0,1,.3-.24l.08,0C107.7,85,108.1,84.91,108.53,85.33Z"/><path class="cls-27" d="M83.11,79.78h-.25c-.28,0-.58.5-.83.12s.19-.61.43-.82A8.84,8.84,0,0,1,89.6,77a18.54,18.54,0,0,1,2.47.19,2.82,2.82,0,0,1,1.44.67c.39.38.55.77.09,1.21-.53.26-1-.18-1.46-.17a20.19,20.19,0,0,0-3.29-.27H87.57A6.5,6.5,0,0,0,85.1,79a3.71,3.71,0,0,0-1.13.51C83.69,79.7,83.46,79.94,83.11,79.78Z"/><path class="cls-27" d="M93.77,81.11c.42-.16.91-.25,1.1.21s-.28.71-.6.89a13.67,13.67,0,0,1-4.51,1.26,9.86,9.86,0,0,1-6-.65,2.11,2.11,0,0,1-.52-.26c-.22-.2-.62-.38-.46-.73s.53,0,.82,0a19.39,19.39,0,0,1,2.16.51,5.26,5.26,0,0,0,2.67.16c1.19-.21,2.41-.3,3.59-.53C92.73,81.93,93.17,81.33,93.77,81.11Z"/><path class="cls-30" d="M85.62,82.44a4.38,4.38,0,0,1-2-.65,2.62,2.62,0,0,1-.49-2c.63-.24,1.08-.82,1.82-.9a.66.66,0,0,1,.2.6,1.89,1.89,0,0,0,0,1.2C85.26,81.28,85.68,81.79,85.62,82.44Z"/><path class="cls-29" d="M93.12,76.75a11.91,11.91,0,0,0-9.92.46C84.73,75,91.71,74.75,93.12,76.75Z"/><path class="cls-31" d="M92.16,75.28c-.57.13-1-.36-1.48-.46a7.72,7.72,0,0,0-5.39.76c-.35.19-1,.6-1.09.28-.24-.54.49-.63.82-.82a7.35,7.35,0,0,1,6.57-.36C91.84,74.8,92.19,74.86,92.16,75.28Z"/><path class="cls-32" d="M93.77,81.11a2.06,2.06,0,0,1-1.5,1,2.65,2.65,0,0,1-.06-1.31,2.29,2.29,0,0,0,0-1.37c0-.23-.24-.5.1-.69l1.25.34A2.16,2.16,0,0,1,93.77,81.11Z"/><path class="cls-33" d="M87.41,84.4c.34-.44.82-.17,1.26-.3,1-.32,2.09-.56,3.15-.82.16,0,.35-.12.44.07s-.12.36-.28.43a7.19,7.19,0,0,1-3,.73C88.5,84.49,87.91,85,87.41,84.4Z"/><path class="cls-34" d="M85.52,84.27l-1.23-.14a.28.28,0,0,1-.28-.26c0-.24.2-.24.36-.22A1.43,1.43,0,0,1,85.52,84.27Z"/><path class="cls-34" d="M81.85,78.16a1.17,1.17,0,0,1,1.06-1C82.75,77.82,82.2,77.9,81.85,78.16Z"/><path class="cls-35" d="M107.46,79.72c-.14-.34.26-.57.19-.89a2.06,2.06,0,0,1,1.47-.46,14.1,14.1,0,0,1,5,.47L114,79c.72,1.16.36,2.41.32,3.64a11.46,11.46,0,0,1-3.45.32.41.41,0,0,1-.29-.34v-.41c0-.13-.17-.43-.44-.39s-.32.26-.29.5a1.41,1.41,0,0,1,0,.41,4.15,4.15,0,0,1-2.1-.09,4.66,4.66,0,0,1-.34-1.14.32.32,0,0,1,.09-.43c.27-.12.56,0,.82,0a.48.48,0,0,0,.44-.54c-.06-.31-.31-.29-.55-.29s-.47.18-.74.11S107.41,79.92,107.46,79.72Z"/><path class="cls-36" d="M109.87,82.71a.63.63,0,0,1-.27-.83.83.83,0,0,1,.13-.18.57.57,0,0,1,.77-.1c.44.28.35.64.16,1a.42.42,0,0,1-.54.24.29.29,0,0,1-.12-.07A.12.12,0,0,0,109.87,82.71Z"/><path class="cls-37" d="M110,82.75l.66-.17.2.33C110.57,82.94,110.25,83.07,110,82.75Z"/><path class="cls-38" d="M107.46,79.72l.12.54a.85.85,0,0,1,0,.83l-.19.38A2.26,2.26,0,0,1,107.46,79.72Z"/><path class="cls-35" d="M92.32,78.74l.06.75c-.65,0-1.3-.35-2,0-.29.13-.6.22-.62.59s.29.55.63.68a3.91,3.91,0,0,0,2,0,2.82,2.82,0,0,1-.13,1.38,38.53,38.53,0,0,1-5.13.68,2.86,2.86,0,0,1-1.52-.34,4.94,4.94,0,0,1-.6-1.7c.82-.56.82-.62,0-1.15l0-.72a4.92,4.92,0,0,1,2.59-.47c.1.21,0,.44,0,.66a.56.56,0,0,0,.54.6h0a.6.6,0,0,0,.65-.61,3,3,0,0,1,0-.67A14,14,0,0,1,92.32,78.74Z"/><path class="cls-39" d="M88.79,78.4a.91.91,0,0,1,0,1.29l-.06,0a.82.82,0,0,1-1.08,0c-.51-.4-.37-.88-.1-1.35A3.61,3.61,0,0,1,88.79,78.4Z"/><path class="cls-40" d="M85,79.6c.51-.11.94,0,.93.6s-.41.66-.89.55A.81.81,0,0,1,85,79.6Z"/><path class="cls-41" d="M92.4,80.72a2.64,2.64,0,0,1-2.61,0,.74.74,0,0,1-.31-.73.81.81,0,0,1,.59-.74c.83-.22,1.6-.45,2.31.21A.94.94,0,0,1,92.4,80.72Z"/><path class="cls-41" d="M112.88,81.28h-.5c-.42,0-.72-.19-.71-.65a.68.68,0,0,1,.64-.71h0a5.68,5.68,0,0,1,1,0c.44,0,.82.22.77.71s-.35.68-.83.66Z"/><path class="cls-42" d="M107.63,81.11a.83.83,0,0,1,0-.82l.26-.21a.84.84,0,0,1,1.08.09.54.54,0,0,1,.1.69.82.82,0,0,1-1,.42C107.88,81.23,107.76,81.17,107.63,81.11Z"/><path class="cls-43" d="M110.31,79.4a.33.33,0,0,1,.38.35.3.3,0,0,1-.27.34h0a.31.31,0,0,1-.39-.23.13.13,0,0,1,0-.06.33.33,0,0,1,.27-.39Z"/><path class="cls-44" d="M87.55,81.74c-.32-.08-.59-.23-.58-.61a.59.59,0,0,1,.55-.62h.1a.52.52,0,0,1,.56.48.2.2,0,0,1,0,.11.61.61,0,0,1-.59.64Z"/></svg>