<svg id="Layer_1" data-name="Layer 1" xmlns="http://www.w3.org/2000/svg" viewBox="0 0 200 200"><defs><style>.cls-1{fill:#e6ad8e;}.cls-2{fill:#d1a291;}.cls-3{fill:#7d5157;}.cls-4{fill:#7d5257;}.cls-5{fill:#7e5258;}.cls-6{fill:#e5af92;}.cls-7{fill:#e5af91;}.cls-8{fill:#e2ae94;}.cls-9{fill:#e5b195;}.cls-10{fill:#dfab91;}.cls-11{fill:#f4dccc;}.cls-12{fill:#f4dbcc;}.cls-13{fill:#f3daca;}.cls-14{fill:#ebd8cf;}.cls-15{fill:#efe5e1;}.cls-16{fill:#ebccba;}.cls-17{fill:#e6b9a1;}.cls-18{fill:#eec1a8;}.cls-19{fill:#574447;}.cls-20{fill:#eabea6;}.cls-21{fill:#e9bca5;}.cls-22{fill:#dfb29e;}.cls-23{fill:#deb29d;}.cls-24{fill:#dcb09b;}.cls-25{fill:#d3a895;}.cls-26{fill:#fefefe;}.cls-27{fill:#e8e5e5;}.cls-28{fill:#f3f2f1;}.cls-29{fill:#928587;}</style></defs><title>squid</title><path class="cls-1" d="M79,164.15c.25-.27.5,0,.74,0a18.48,18.48,0,0,0,10.07-.8,12.39,12.39,0,0,0,1.69-.89c.6-.3.54-.59.08-1a13.4,13.4,0,0,0-3.83-2.11,49,49,0,0,1-5.55-2.69c-.29-.25-.65-.41-1-.65a10.81,10.81,0,0,1-4.6-9.19,15.27,15.27,0,0,1,3.3-9.16,16.72,16.72,0,0,0,1.5-1.86c.22-.26.7-.17.78-.59s-.33-.31-.52-.44a53.89,53.89,0,0,0-8.68-5.09,11.81,11.81,0,0,0-6.27-.83c-1.74.14-3,1.7-3.22,3.75a5.58,5.58,0,0,0,.59,3.26c.09.16.16.33.25.5,1.52,2.76.53,5-1.88,6.9a20.26,20.26,0,0,1-6.91,3.27c-.56.18-1,.65-1.7.51a30.25,30.25,0,0,1,3.07-4c.65-.71,1.29-1.42,1.95-2.12a2.19,2.19,0,0,0,.43-2.69,16.13,16.13,0,0,1-1.31-3.76,15.1,15.1,0,0,1,0-4.93,10.1,10.1,0,0,1,.64-2.09l.14-.33c.23-.22.29-.55.5-.79,1.69-2.47,4.17-3.4,7-3.55a22.23,22.23,0,0,1,4.68.23c.39-.07.65.19.94.36a11.68,11.68,0,0,0,4.73,1.78c1.58.19,3.14.51,4.89.79a13.93,13.93,0,0,0-3.09-1.48,12.18,12.18,0,0,1-6.67-5.77,8.54,8.54,0,0,1-.74-3.66,70.25,70.25,0,0,1,1-12.09,29.12,29.12,0,0,0,.21-8.44A34,34,0,0,0,70.22,87c-1.88-4.67-5.54-7.37-10.06-9.09a18.51,18.51,0,0,0-4.81-1.18,5.14,5.14,0,0,0-1.51.11,10.2,10.2,0,0,0-7.06,4c-.17.23-.32.59-.74.48a6.91,6.91,0,0,1,1.55-3.12,22.28,22.28,0,0,1,4.29-3.94,7.88,7.88,0,0,1,6-1.08c5.33.79,9.68,3.44,13.57,7a15.8,15.8,0,0,1,2.18,3c.24.22.31.55.49.8l.16.32a15.61,15.61,0,0,1,1.14,2.23,30.19,30.19,0,0,1,2.92,11c.25,2.6.26,5.2.3,7.81A18.85,18.85,0,0,0,82.11,116,2.7,2.7,0,0,0,83,117a14.23,14.23,0,0,1-.4-3.43c.35,0,.38.33.49.59a12.14,12.14,0,0,1,.48,1.18,5.73,5.73,0,0,0,7.8,3.14,7.39,7.39,0,0,0,4.23-7.8,10,10,0,0,0-1-3.19c-.38-.78-.3-.91.54-1.06a11.49,11.49,0,0,1,2.87.08,49.84,49.84,0,0,0,5.19.29c1,0,1.14.22.65,1.07a7.14,7.14,0,0,0,.11,7.61c1.09,1.9,3.59,4.35,7.1,3.77a6.86,6.86,0,0,0,5.55-4.44c.12-.29.1-.71.59-.76a10.66,10.66,0,0,1-.76,4.74c3.63-1.72,6.73-3.56,8-7.51a39.9,39.9,0,0,0,1.57-8.4c.46-4.66.54-9.36,1.24-14a20.13,20.13,0,0,1,5.19-11.12,15.3,15.3,0,0,1,4.09-3c1.06-.56,2.11-1.13,3.15-1.74a10.82,10.82,0,0,1,8-.88,13.81,13.81,0,0,1,5.47,2.13A3,3,0,0,1,154.34,76a1.35,1.35,0,0,1-.84,1.71,1.38,1.38,0,0,1-.78,0c-.55-.07-1.11-.09-1.67-.12.27-.52.83-.39,1.25-.56s1.23-.18,1.22-.82-.74-.66-1.24-.76a14,14,0,0,0-7.82.41,5.68,5.68,0,0,0-1.18.53,19.12,19.12,0,0,0-8.37,11.8,6,6,0,0,0-.16,1.51v7c0,1,.16,2,.18,3a41.72,41.72,0,0,1-.83,8.11c-.16,1-.41,1.88-.53,2.84-.24,1.93-1.39,3.45-2.37,5a32.46,32.46,0,0,1-5.66,6.82,25.13,25.13,0,0,1-4.44,2.69c-.53.31-1.1.55-1.64.84a9.15,9.15,0,0,1-3.55,1.18,8.09,8.09,0,0,0-1.19.24c-.29.08-.59.18-.63.53s.24.53.51.64a6.53,6.53,0,0,0,5,.3,53.09,53.09,0,0,0,7.88-3.74,2.44,2.44,0,0,1,.43-.21,12.31,12.31,0,0,0,1.56-.5,12.31,12.31,0,0,1,12.33,2.12,8.56,8.56,0,0,1,3,6.67c.05,1.74-.36,3.43-.43,5.16-.07,1.42-.32,2.89.49,4.22a3.36,3.36,0,0,0,3.22.84c.42-.08.87-.26,1,.41a.58.58,0,0,1-.37.39,7.76,7.76,0,0,1-6.07.29,3.64,3.64,0,0,1-2.07-4,25.15,25.15,0,0,0-.08-6.31,6.82,6.82,0,0,0-2.14-4.1c-1.9-1.71-4.08-1.77-6.38-1.12a31,31,0,0,0-6.69,3.23,39,39,0,0,1-7.32,3.41,13.5,13.5,0,0,1-3.45.66,15.25,15.25,0,0,1-3.82.07c-.44-.09-1.19-.31-1.33.33s.51.93,1,1.18a4.54,4.54,0,0,0,2,.44c.34,0,.7-.07,1,.22a3.41,3.41,0,0,0,2.39.6c2.81,0,5.61,0,8.41,0a14.58,14.58,0,0,1,6.31,1.55c3.7,1.91,5,4.74,3.71,8.69-1,3.05-2.08,6.05-3.1,9.08-.88,2.61-.37,3.31,2.37,3.26.76,0,1.53-.11,2.3-.17.06.28-.16.38-.34.48-1.65.91-3.29,1.78-5.29,1.52a2.51,2.51,0,0,1-1.63-.71,5.65,5.65,0,0,1-1.4-4.73c.21-2.17,1-4.22,1.29-6.35a10.69,10.69,0,0,0,.07-2.88,3.74,3.74,0,0,0-2.37-3.09,11,11,0,0,0-4.38-.83A36.09,36.09,0,0,1,108,142.38a17.18,17.18,0,0,1-6-5.66,4.56,4.56,0,0,1-.55-2.55c0-1,0-2,0-3a4.21,4.21,0,0,0,0-.71c-.08-.49,0-1.14-.52-1.34a1.34,1.34,0,0,0-1.48.59c-1.29,1.78-3.25,2.54-5.15,3.37a37.26,37.26,0,0,0-7.69,4.55,13.84,13.84,0,0,0-3.17,4.1A10.57,10.57,0,0,0,82.11,146a5.23,5.23,0,0,0,2.1,4.93c2.1,1.69,4.39,3.13,6.57,4.74a52.16,52.16,0,0,1,4.34,3.66c.94.85,1,2.07,1.07,3.26a3,3,0,0,1-1.82,3,7.78,7.78,0,0,1-2,.55,30.76,30.76,0,0,1-6.85.16,16.55,16.55,0,0,1-5.42-1.48A1.9,1.9,0,0,1,79,164.15Z"/><path class="cls-1" d="M85.44,38.32a66.47,66.47,0,0,1,8.23-5.92,22.73,22.73,0,0,0,2.67-2c2.35-2,4.83-1.7,7.06-.23.74.48,1.39,1.08,2.09,1.6,2.72,2,5.47,4,8.2,5.95a2.84,2.84,0,0,1,.82.64c-.55.27-.92-.14-1.32-.36-1.61-.9-3.12-2-4.66-3a4.9,4.9,0,0,0-1.51-.77,26.38,26.38,0,0,0,2.28,2.33c2,1.77,4.27,3.28,6.4,4.93a83.86,83.86,0,0,1,11.74,11.1,14.68,14.68,0,0,1,3.12,7.44c.55,3.16-.63,5.75-2.45,8.16A35.24,35.24,0,0,1,123,73.14,24.76,24.76,0,0,1,121,75c-.64.46-.83.39-.9-.37a64,64,0,0,0-5.17-19.92,76.28,76.28,0,0,0-3.65-7.43,4,4,0,0,0-1-1.27,2.4,2.4,0,0,0,.1,1.52c.76,2.7,1.57,5.39,2.37,8.08a89.14,89.14,0,0,1,2.59,13c.41,3,.76,5.92,1.11,8.88a31.77,31.77,0,0,1-.56,9.87A102.3,102.3,0,0,0,114.11,98c0,.4-.36.9.21,1.18-.39,1.57-.77,3.13-1.19,4.7a1.32,1.32,0,0,0,0,.92c-.28.23-.59.07-.83,0a5.73,5.73,0,0,0-2-.37,7.67,7.67,0,0,1-3.09-.71,12.09,12.09,0,0,0-4-.72,80.63,80.63,0,0,0-8.22-.54,14.2,14.2,0,0,0-1.59.13c-.41,0-.73-.06-.73-.6a37.67,37.67,0,0,0-.9-7.33,17,17,0,0,1-.49-4.82,45.42,45.42,0,0,0-.82-10.27,33.85,33.85,0,0,1,0-8.88A133,133,0,0,1,93.79,53a106.28,106.28,0,0,1,4.79-14.27,39.21,39.21,0,0,0,1.59-5c.17-.67.27-1.42-.38-1.82s-1.24.1-1.74.49A9.16,9.16,0,0,0,96,34.88c-2.19,3.5-4.66,6.83-6.7,10.44a47.16,47.16,0,0,0-4.89,11.9c-.87,3.49-2.15,6.87-3,10.38A37.78,37.78,0,0,0,80.71,72v.32c-.2,1.51-.72,1.78-2.16,1.31a18.69,18.69,0,0,1-7.68-5A12.13,12.13,0,0,1,67.75,63a6,6,0,0,1,.42-3.61,18.72,18.72,0,0,1,5-7c1.82-1.61,3.49-3.38,5.18-5.13a76,76,0,0,1,11-9.22c2.09-1.49,3.94-3.28,6-4.8.2-.15.51-.33.28-.63s-.49-.15-.74,0a15.24,15.24,0,0,0-1.65,1c-2.16,1.43-4.3,2.89-6.51,4.29C86.37,38.13,86,38.59,85.44,38.32Z"/><path class="cls-2" d="M85.44,38.32a11.91,11.91,0,0,0,2.65-1.58c2.06-1.32,4.1-2.69,6.14-4a2.13,2.13,0,0,1,1.09-.47.66.66,0,0,1,.69.44c.11.28-.11.45-.3.59-3.32,2.57-6.55,5.25-9.95,7.7a44.35,44.35,0,0,0-5.28,4.5c-2.27,2.25-4.48,4.58-6.81,6.77a24.09,24.09,0,0,0-3.84,4.35,18.76,18.76,0,0,0-1.49,2.93c-1.07,2.45-.25,4.57,1,6.69C71.64,69.92,75.06,72,79,73.5c.82.31,1.32,0,1.38-.8.38-4.85,2.05-9.38,3.38-14a64.82,64.82,0,0,1,2.08-6.79,57,57,0,0,1,4.89-9.43c1.78-2.82,3.66-5.61,5.55-8.38a6.07,6.07,0,0,1,2.23-2.24c.52-.25,1.11-.59,1.57-.15a1.77,1.77,0,0,1,.4,1.78,58.42,58.42,0,0,1-2.59,7.62,101.66,101.66,0,0,0-5.18,17.67c-.49,2.66-1.07,5.33-1.52,8-.27,1.56-.34,3.16-.6,4.73a40.07,40.07,0,0,0,.57,11.19,33.5,33.5,0,0,1,.26,8.43,7,7,0,0,0,.43,2.57c.59,2.43.8,4.92,1.18,7.38.07.45-.26,1,0,1.29s.8-.08,1.22-.09a53.92,53.92,0,0,1,7.4.42c1.74.2,3.55,0,5.18.73a28.54,28.54,0,0,0,5.1,1.07c.41.1.81.23,1.22.35a8.28,8.28,0,0,1,3.55,4,4.6,4.6,0,0,1,.32,1,10,10,0,0,1,.18,4.14,9.72,9.72,0,0,1-2.14,3.51c-2.91,2.54-6.73,2.76-9.66,0a8.39,8.39,0,0,1-2.8-6.47,7.29,7.29,0,0,1,1.19-3.52c.24-.42.29-.62-.29-.59-2.32.16-4.61-.29-6.93-.35a9.12,9.12,0,0,0-2,.08,24.23,24.23,0,0,1,1,2.48,8,8,0,0,1-.9,6.9c-2.26,3.45-7.14,4.44-10.12,1.31a12,12,0,0,1-1.77-3.48c0-.09-.1-.18-.14-.28a7.58,7.58,0,0,1,1.93-7.82,4.7,4.7,0,0,0,.71-1.56,7.35,7.35,0,0,0,0-6.56,2.65,2.65,0,0,1-.13-.54,9.2,9.2,0,0,1-.54-2.26,2,2,0,0,0-.49-1.07c-.42-.52-.69-1.13-1.06-1.68a29.62,29.62,0,0,1-2.69-8.46A31.87,31.87,0,0,1,80,79.22a1.57,1.57,0,0,0-1-1c-.65-.26-1.25-.65-1.9-.91A28,28,0,0,1,70,73.71c-2.5-1.7-4-4.21-5.73-6.6-2.06-2.92-1.42-5.92-.46-9a12.54,12.54,0,0,1,4.23-6c2.23-1.77,4.15-3.89,6.51-5.55C78.19,44,81.46,41,85.11,38.5Z"/><path class="cls-2" d="M79,164.15c1.41.47,2.66,1.45,4.15,1.61,2.28.23,4.55.75,6.89.37a26.19,26.19,0,0,0,3.83-.65,2.76,2.76,0,0,0,2-2.84,4.4,4.4,0,0,0-1-3.24c-.79-.75-1.67-1.4-2.49-2.12-2.67-2.33-5.8-4-8.52-6.3a5.55,5.55,0,0,1-2-5.26c.35-3,1.89-5.28,3.69-7.46a15.24,15.24,0,0,1,4.1-3,36.8,36.8,0,0,1,5.84-3,17.1,17.1,0,0,0,2.9-1.68,1.42,1.42,0,0,0,.49-.62,2.57,2.57,0,0,1,1.77-1.23.54.54,0,0,1,.72.25.46.46,0,0,1,0,.2,8.43,8.43,0,0,1,.25,1.49c0,1.57-.07,3.13.11,4.73a4.45,4.45,0,0,0,1.35,2.48c1.64,1.81,3.22,3.73,5.61,4.64A49.12,49.12,0,0,0,114,144a32.09,32.09,0,0,0,7.5.8,12.67,12.67,0,0,1,4.44.79,4.22,4.22,0,0,1,2.7,3.89,21.64,21.64,0,0,1-.84,5.65c-.46,2-1,3.93-.29,5.92a4.34,4.34,0,0,0,.8,1.46,2.65,2.65,0,0,0,2,.89c2.07.16,3.68-.84,5.32-1.8a.87.87,0,0,1,1.06.19,1.07,1.07,0,0,1-.18,1.19,8.24,8.24,0,0,1-5.78,3.43A5.39,5.39,0,0,1,125,163c-.31-.63-.56-1.18-1.36-1.28.22-.26.53-.19.81-.23a1.43,1.43,0,0,0,1.37-1.47,1.52,1.52,0,0,0-1.27-1.66c-.3-.07-.65.07-.91-.19a.89.89,0,0,0,.46-.92,17.6,17.6,0,0,1,.48-3.69c0-.22.22-.28.39-.36.94-.46,1.4-1.12,1.3-1.86s-.59-1.29-1.73-1.54c-.2-.07-.15-.31-.27-.43a4,4,0,0,0-1.6-.18c-.21-.17-.19-.42-.22-.65a.9.9,0,0,0-.89-.88h-.07a.9.9,0,0,0-1,.78v0a.88.88,0,0,1-.24.59,5.6,5.6,0,0,0-1.91-.18.79.79,0,0,1-.22-.5,1.45,1.45,0,0,0-1.3-1.31,1.83,1.83,0,0,0-1.68,1c-.14.22-.06.59-.46.65-.38-.81-1.11-.68-1.78-.65-.2-.2-.11-.46-.12-.69A1.7,1.7,0,0,0,111,145.8a1.68,1.68,0,0,0-1.61,1.45c0,.21,0,.43-.23.56,0-1-.71-1.22-1.46-1.49a15,15,0,0,1-1.68-.89c-.19-.23,0-.4.08-.59a1.85,1.85,0,0,0-.47-2,1.69,1.69,0,0,0-2-.12c-.18.09-.32.29-.59.24a5.43,5.43,0,0,0-1.78-2.08c-.09-.22.08-.35.17-.5a1.58,1.58,0,0,0-.07-1.86,1.33,1.33,0,0,0-1.71-.39.61.61,0,0,1-.46,0,9.44,9.44,0,0,1-.47-3.77c-.79.54-1.43,1-2.09,1.42s-1.11.63-1.68.93c-.24.13-.48.24-.43.59-.3.13-.39-.16-.59-.3a1.22,1.22,0,0,0-1.39-.25,1.28,1.28,0,0,0-.73,1.29c0,.28.15.59,0,.85A7.33,7.33,0,0,0,89,140.8s0,.19,0,.29a.4.4,0,0,1-.38,0,1.79,1.79,0,0,0-2.15,2.5c.07.2.22.37.17.59a2.61,2.61,0,0,0-.81,2.63c0,.59-.4,1.12-.14,1.77a1.54,1.54,0,0,0,2.46.88c.17-.1.3-.32.55-.26a.57.57,0,0,0,.17.51,21,21,0,0,0,2.9,2.07c.16.19.06.41.06.6-.05,1.18.85,1.71,1.9,1.18.18-.1.33-.27.59-.2a6.21,6.21,0,0,0,1.36,1.3,3.88,3.88,0,0,1,.71.75,1.18,1.18,0,0,0,1.37.65.59.59,0,0,1,.59.16c-.18.26-.46.2-.72.23a1.33,1.33,0,0,0-1.27,1.4.41.41,0,0,0,0,.11,1.53,1.53,0,0,0,1.43,1.44c.32,0,.64-.15.94,0,.27.48.15,1.18.78,1.46l.15.16c-.16.21-.42.18-.65.22A1.61,1.61,0,0,0,97.72,163a1.39,1.39,0,0,0,1.37,1.43h0c.23,0,.48,0,.64.23-.93,0-1.27.71-1.65,1.4A4.06,4.06,0,0,1,96,167.84c-.24-.15-.29-.43-.43-.65a1.31,1.31,0,1,0-2.37,1.13l.06.12c.08.17.33.31.16.55-1.34.16-2.67.32-4,.45-.34,0-.25.36-.43.5a.57.57,0,0,1-.2-.32c-.38-1.08-1.18-1.25-2-.4-.1.11-.16.28-.36.23a4.16,4.16,0,0,0-2.24-.79A7.78,7.78,0,0,1,79,165.23a2.46,2.46,0,0,1-.38-.78C78.51,164.09,78.68,163.93,79,164.15Z"/><path class="cls-2" d="M114.32,99.24c-.18.09-.24.43-.51.26s0-.33,0-.51c.28-2.5.49-5,1-7.48a65.2,65.2,0,0,0,1.35-7.59,24.65,24.65,0,0,0,.14-5.08c-.23-2.19-.43-4.38-.71-6.57q-.64-4.87-1.48-9.75c-.87-5.19-2.68-10.11-4-15.17-.09-.33-.12-.67-.19-1a.61.61,0,0,1,.22-.7c.25-.11.42.19.54.38a21.4,21.4,0,0,1,2.08,3.67c1.11,2.42,2.44,4.74,3.33,7.27a71.93,71.93,0,0,1,3.31,11.41,49.09,49.09,0,0,1,.86,6.74A15.19,15.19,0,0,0,123,72.78a47.77,47.77,0,0,0,3.73-3.38,12.57,12.57,0,0,0,3.66-6.51,11.11,11.11,0,0,0-.3-4,14.37,14.37,0,0,0-4.36-7.9c-1.54-1.56-3-3.16-4.66-4.63a70.43,70.43,0,0,0-7.45-6.12A42.56,42.56,0,0,1,107,34.56a4.59,4.59,0,0,1-.33-.44.21.21,0,0,1,0-.29c.08-.11.19-.06.29,0,.42.22.86.43,1.26.68,1.68,1.08,3.35,2.17,5,3.24a3.26,3.26,0,0,0,1.31.6c1.45,1.18,2.88,2.36,4.36,3.5a75.69,75.69,0,0,1,10,9.77,25.18,25.18,0,0,1,5.53,9.27,6.74,6.74,0,0,1-.54,4.58,17,17,0,0,1-5.16,6.62,37.5,37.5,0,0,1-4.45,3.28A10.32,10.32,0,0,1,121,76.82c-.66.13-.47.77-.75,1.12A25.68,25.68,0,0,1,119,85.21C117.49,89.94,116.16,94.68,114.32,99.24Z"/><path class="cls-2" d="M127.92,125.06a56.05,56.05,0,0,1-8,3.89,6.85,6.85,0,0,1-5.54-.28c-.37-.14-.67-.39-.59-.83a.9.9,0,0,1,.8-.69,25.23,25.23,0,0,0,2.73-.51,21.54,21.54,0,0,0,4.25-2,20,20,0,0,0,3.12-1.77,28.58,28.58,0,0,0,4.84-5.17,51.36,51.36,0,0,0,3-4.69,10.09,10.09,0,0,0,.95-3.27,41.45,41.45,0,0,0,1.18-11.14c-.2-2.75-.07-5.49-.14-8.23a14.31,14.31,0,0,1,3-8.53c.45-.66.93-1.3,1.43-1.91,2.15-2.55,4.69-4.54,8.1-5a15.29,15.29,0,0,1,6,.42c.41.12.86.27.88.8s-.47.69-.86.83c-.65.22-1.31.37-2,.59l-2.4.55c-.22-.16-.11-.39-.12-.59a1.79,1.79,0,0,0-1.5-1.73A2.21,2.21,0,0,0,144.89,77a1.68,1.68,0,0,0,.49,2.08c.15.13.42.16.36.46A2.92,2.92,0,0,0,144,81.14c-.38,0-.52-.31-.77-.48a2.26,2.26,0,0,0-3.14.62l-.08.12a2.12,2.12,0,0,0,.53,2.78c.43.3,1,.15,1.39.53a2.75,2.75,0,0,0-1.6,2.66c-.19.24-.44.11-.66.1a1.84,1.84,0,0,0-2,1.26,2.12,2.12,0,0,0,.71,2.27c.39.33.94.37,1.29.75-.32.59,0,1.24,0,1.85v2c-.25.27-.62.27-.93.4a2.26,2.26,0,0,0-1.39,2.64,2.09,2.09,0,0,0,2.06,1.65c.21,0,.43-.06.59.15-.21.18-.52.3-.45.67a12.1,12.1,0,0,1,0,2.69.88.88,0,0,0,.29.59c-.23.25-.54.19-.83.21a2,2,0,0,0-1.93,2,1.88,1.88,0,0,0,1.73,1.94c.27,0,.55,0,.73.25a1,1,0,0,0-.77.84,22.4,22.4,0,0,0-.52,2.81c-.34.15-.59-.1-.9-.2a2.19,2.19,0,0,0-2.91,1.12s0,.07,0,.1a2.27,2.27,0,0,0,1.39,2.9.6.6,0,0,0,.19.06c.2.06.51,0,.5.36a1.12,1.12,0,0,0-1,.6c-.52.75-1.12,1.45-1.68,2.16-.24.2-.21.59-.55.7s-.42-.22-.6-.34a1.76,1.76,0,0,0-2.3.28,1.7,1.7,0,0,0-.06,2.32c.13.16.32.27.36.5a9.8,9.8,0,0,1-2,1.78A2.67,2.67,0,0,0,127.92,125.06Z"/><path class="cls-2" d="M46,81.29c.4-.16.59-.59.79-.87,1.74-2.36,4.23-3.29,7-3.77,2.3-.41,4.4.38,6.51,1.09A18.66,18.66,0,0,1,67.15,82a15.85,15.85,0,0,1,4.2,7.6,25.69,25.69,0,0,1,1.18,4.54A16.7,16.7,0,0,1,72.68,99c-.18,1,0,2.12-.18,3.19-.34,2.15-.59,4.3-.86,6.46a36,36,0,0,0-.15,7.7,7.55,7.55,0,0,0,2.54,5,13.76,13.76,0,0,0,5.77,3.43,8,8,0,0,1,2.06,1.06c.15.09.29.18.2.37s-.23.06-.35,0c-2.24-.4-4.51-.72-6.73-1.18a11.53,11.53,0,0,1-3.88-2l-2.77-3.93c0-.26.19-.36.31-.52a1.69,1.69,0,0,0-1-2.87.35.35,0,0,1-.26-.15c.29-.3.17-.65.17-1v-3.11c.06-.28.32-.34.5-.47a1.69,1.69,0,0,0,.85-1.78,1.55,1.55,0,0,0-1.41-1.31.48.48,0,0,1-.41-.2c.59-.09.78-.42.82-1,.09-1.73.29-3.45.46-5.17.12-.19.35-.21.54-.3a1.35,1.35,0,0,0,.85-1.39,1.32,1.32,0,0,0-1-1.28c-.2-.07-.42-.07-.55-.27.16-.14.34-.26.3-.51a10,10,0,0,0-.59-3.16c-.07-.18,0-.3.17-.4a2.48,2.48,0,0,0,.59-2.78,1.82,1.82,0,0,0-1.73-1.59.65.65,0,0,1-.49-.19,10.37,10.37,0,0,0-1.24-2.73.4.4,0,0,0-.35-.15c-.19-.26,0-.51,0-.76a1.89,1.89,0,0,0-1.49-2.21l-.23,0c-.31,0-.65,0-.91-.21a10,10,0,0,0-3.36-2.24c-.19-.13-.21-.35-.28-.55a1.77,1.77,0,0,0-2.91-.86c-.15.11-.25.38-.51.25a.27.27,0,0,0-.21-.3,6.71,6.71,0,0,0-2.89,0c-.19,0-.24.17-.27.33-.53-.27-.89-.83-1.63-.77a1.5,1.5,0,0,0-1.54,1.84c0,.18.13.36,0,.53-.28-.2-.48,0-.68.15s-.72.64-1.1.94a.74.74,0,0,1-1,.06c-.32-.28-.26-.59-.1-.94Z"/><path class="cls-2" d="M113.22,138.53a6,6,0,0,1-3.75-.82,1.38,1.38,0,0,1-.56-.76c-.12-.49,0-.85.59-.84s1.34.1,2,.13a20.79,20.79,0,0,0,3.25-.2c3.87-.45,7.21-2.24,10.52-4.14a31.74,31.74,0,0,1,6.54-3.14c4.68-1.42,8.19,1.41,8.78,5.64a25.15,25.15,0,0,1,0,6.37,3.44,3.44,0,0,0,2.92,3.84,8.58,8.58,0,0,0,5.41-.79c.36.47,0,.88-.19,1.23a4.38,4.38,0,0,1-2.72,2,8.59,8.59,0,0,1-5,0c-.15-.19-.06-.4,0-.59a1.21,1.21,0,0,0-.59-1.3,1.31,1.31,0,0,0-1.43.11c-.14.1-.26.28-.48.23-.26-.53-.44-1.13-1.14-1.26.14-.22.42-.2.62-.32a1.29,1.29,0,0,0,.76-1.29,1.32,1.32,0,0,0-1-1.18c-.26-.08-.59,0-.77-.33,0-.78,0-1.57,0-2.37,0-.28,0-.59-.27-.76l-.3-.14c.12-.22.35-.21.54-.27a1.23,1.23,0,0,0,1-1.26,1,1,0,0,0-1-1h0a.47.47,0,0,1-.47-.24c.18-.23.72,0,.66-.52s.06-.88-.48-1.06c-.08-.27.13-.44.22-.65a1.49,1.49,0,0,0-.46-1.83,1.55,1.55,0,0,0-2,.45c-.16.21-.11.6-.52.6-.59.11-1.18.25-1.77.32-.42,0-.46.37-.6.64-.27-.21-.26-.59-.42-.84a1.26,1.26,0,0,0-1.49-.59,1.24,1.24,0,0,0-.87,1.41c0,.23.18.46,0,.7a15.1,15.1,0,0,0-2.25.81c-.22.09-.46.17-.49.46a.29.29,0,0,1-.22-.06c-1.19-.84-2-.59-2.43.77a.68.68,0,0,1-.21.41l-3.2,1.28c-.19-.13-.23-.36-.33-.54a1,1,0,0,0-1.3-.62l-.07,0a1,1,0,0,0-.55,1.29.67.67,0,0,0,.06.12c0,.17.19.32.11.52A20.84,20.84,0,0,1,113.22,138.53Z"/><path class="cls-2" d="M53.94,147a35.21,35.21,0,0,1,4.45-1.71,13.4,13.4,0,0,0,4.31-2.42c2.37-2.09,3-3.82,1.56-6.45a6.37,6.37,0,0,1-.69-4.77c.52-2,1.88-3,4-3.11a14.11,14.11,0,0,1,8.72,2.52c1.3.81,2.69,1.51,4,2.3.59.41,1.17.84,1.72,1.3.16.15.41.22.48.47.08.8-.53.6-.93.64-.89-.13-1.7-.59-2.6-.65a.57.57,0,0,1-.18-.34,1.62,1.62,0,0,0-2.59-1.11c-.18.09-.34.26-.59.18a16.86,16.86,0,0,0-3.06-1.61c-.54-.25-.22.41-.46.49-.18-.12-.19-.31-.25-.49-.49-1.49-1.64-1.84-2.84-.88a.29.29,0,0,1-.29.08,2.31,2.31,0,0,0-2.59.43c-.44.63-.36.91.34,1.19-.14.2-.37.19-.6.27a1.3,1.3,0,0,0-1,1.37A1.28,1.28,0,0,0,66,135.9a1.08,1.08,0,0,1,.59.21,7.9,7.9,0,0,1,.49,2.63.64.64,0,0,0,.33.59c-.16.22-.42.19-.66.25a1.91,1.91,0,0,0-1.48,1.4,1.36,1.36,0,0,0,.74,1.61.22.22,0,0,1,.11.27c-.9.16-1.24.89-1.6,1.6-.27.12-.51-.05-.77-.08A1.46,1.46,0,0,0,62,145.52a1.23,1.23,0,0,0,0,.19c0,.25,0,.54-.25.71s-.93.32-1.23.74c-.31.15-.41-.15-.59-.27a1.71,1.71,0,0,0-2.4.3,1.66,1.66,0,0,0-.35.88c0,.25,0,.53-.21.74a18.15,18.15,0,0,0-2.89,1.28.72.72,0,0,0-.49.91s0,0,0,.05a.49.49,0,0,1-.25.17c-1.25.47-1.41.75-1.12,2.05a.36.36,0,0,1-.07.37c-.07.16-.15.34-.24.5s-.14.3-.34.27-.19-.26-.22-.43a6.58,6.58,0,0,1,2.05-6.34C53.58,147.41,53.75,147.21,53.94,147Z"/><path class="cls-3" d="M136.42,116.71c-.55-.22-1.19-.21-1.64-.71a2.52,2.52,0,0,1-.4-3.15,2.4,2.4,0,0,1,3-.86c.27.11.52.26.78.39a2.36,2.36,0,0,1,.68,2.76A2.4,2.4,0,0,1,136.42,116.71Z"/><path class="cls-3" d="M140,100.39a2.26,2.26,0,0,1-2.63-1.14,2.45,2.45,0,0,1,.26-2.78,2.67,2.67,0,0,1,2-.92,2.38,2.38,0,0,1,2.17,2.17A2.68,2.68,0,0,1,140,100.39Z"/><path class="cls-3" d="M141.89,84.69c-1.55-.14-2.37-.75-2.44-1.87a2.5,2.5,0,0,1,4.53-1.7C144.81,82.93,144,84.32,141.89,84.69Z"/><path class="cls-3" d="M139.64,91.72c-1.69-.32-2.7-1.67-2.25-3,.41-1.18,1.38-1.67,2.9-1.35a2.29,2.29,0,0,1,1.57,2.47A2.32,2.32,0,0,1,139.64,91.72Z"/><path class="cls-3" d="M66.43,89.63c1.36,0,2,.36,2.36,1.51a2.76,2.76,0,0,1-1,3.46,1.75,1.75,0,0,1-2.46-1.48c-.1-.42-.15-.84-.22-1.26A1.94,1.94,0,0,1,66.43,89.63Z"/><path class="cls-3" d="M139.48,108.73c-1,0-1.91-.07-2.41-1.12a2.23,2.23,0,0,1,2.08-3.26h.63a2.29,2.29,0,0,1,1.56,2.25A2.37,2.37,0,0,1,139.48,108.73Z"/><path class="cls-3" d="M145.72,79.52A1.93,1.93,0,0,1,144.63,77a2.34,2.34,0,0,1,2.62-1.33,1.93,1.93,0,0,1,1.4,2.47A2.5,2.5,0,0,1,145.72,79.52Z"/><path class="cls-3" d="M62.25,83.54a2.57,2.57,0,0,1,2.24.59,2.11,2.11,0,0,1,.35,2.64h0c-.15.15-.3.31-.46.45a2.06,2.06,0,0,1-2.84-.67,1.13,1.13,0,0,1-.12-.21A1.87,1.87,0,0,1,62.25,83.54Z"/><path class="cls-3" d="M109.17,147.82c.06-1.91,1.39-2.85,2.87-2,.78.43,1,1.18.84,2.33a1.86,1.86,0,0,1-1.88,1.22A2,2,0,0,1,109.17,147.82Z"/><path class="cls-3" d="M124.42,149.72c1.26.06,2,.64,2.06,1.73a2,2,0,0,1-1.63,2l-.29.13h0c-.21-.24-.54,0-.77-.18a1.82,1.82,0,0,1-.45-3.13c.19-.18.39-.35.59-.51S124.25,149.66,124.42,149.72Z"/><path class="cls-3" d="M57,148.77c-.12-1.85,1.18-3,2.7-2.33a3.14,3.14,0,0,1,.84.7,1.86,1.86,0,0,1-.74,2.59A2.11,2.11,0,0,1,57,148.77Z"/><path class="cls-3" d="M123.63,158.23a1.9,1.9,0,0,1,2.19.84,1.87,1.87,0,0,1-.12,2c-.51.79-1.31.67-2.08.67a1.86,1.86,0,0,1,0-3.55Z"/><path class="cls-3" d="M86.77,144.25a2.21,2.21,0,0,1,0-2.77c.59-.72,1.32-.84,2.41-.38a1.94,1.94,0,0,1,.32,2.68A2,2,0,0,1,86.77,144.25Z"/><path class="cls-3" d="M55.19,80.14a2,2,0,0,1,3.7,1.16,1.84,1.84,0,0,1-2.6,1.31,1.78,1.78,0,0,1-1.21-2.2A1.53,1.53,0,0,1,55.19,80.14Z"/><path class="cls-3" d="M88.83,149.27a1.81,1.81,0,0,1-2.58.44,2.09,2.09,0,0,1-.29-2.84,1.9,1.9,0,0,1,2.48-.05A1.94,1.94,0,0,1,88.83,149.27Z"/><path class="cls-3" d="M67.05,107.73c1.29.1,1.9.59,2.06,1.54s-.46,1.69-1.59,2.18c-1.18-.13-1.81-.65-1.92-1.65A1.86,1.86,0,0,1,67.05,107.73Z"/><path class="cls-3" d="M99.74,164.68c-.73,0-1.5.09-2-.71a1.93,1.93,0,0,1-.06-2,1.78,1.78,0,0,1,2-.89,1.81,1.81,0,0,1,1.28,1.83A1.78,1.78,0,0,1,99.74,164.68Z"/><path class="cls-3" d="M114.66,148.77a3.11,3.11,0,0,1,.72-1.29,1.72,1.72,0,0,1,2-.46,1.77,1.77,0,0,1,1,1.91,2.11,2.11,0,0,1-1.27,1.43A1.7,1.7,0,0,1,114.66,148.77Z"/><path class="cls-3" d="M103.12,143a1.83,1.83,0,0,1,2.56-.34,2.06,2.06,0,0,1,.34,2.78c-.85.62-1.52.7-2.11.26A2.48,2.48,0,0,1,103.12,143Z"/><path class="cls-3" d="M68.66,131.46a1.55,1.55,0,0,1,1.87-.82A2.21,2.21,0,0,1,72,132.75,1.7,1.7,0,0,1,69.81,134,1.94,1.94,0,0,1,68.66,131.46Z"/><path class="cls-3" d="M98.8,159.52c-1.37.38-2.42-.17-2.57-1.32a1.61,1.61,0,0,1,1.25-1.89,1.71,1.71,0,0,1,.45,0h.56a1.81,1.81,0,0,1,.79,2.8C99.1,159.23,99,159.46,98.8,159.52Z"/><path class="cls-3" d="M66.08,142.84c-1-.51-1.3-1.1-1.08-1.94a2.23,2.23,0,0,1,2.37-1.59,1.49,1.49,0,0,1,.94,1.84A2,2,0,0,1,66.08,142.84Z"/><path class="cls-4" d="M75.56,133.87a2.08,2.08,0,0,1,2-.65c.9.13,1.35.77,1.33,1.92a1.91,1.91,0,0,1-2.56,1.08A1.66,1.66,0,0,1,75.56,133.87Z"/><path class="cls-3" d="M67.36,115.56c1.06,0,1.52.22,1.81,1a2.05,2.05,0,0,1-.84,2.5,1.53,1.53,0,0,1-2-1.06,1.89,1.89,0,0,1,1-2.46Z"/><path class="cls-3" d="M99.28,138.21a1.67,1.67,0,0,1,2.37.21,1.85,1.85,0,0,1-.27,2.51,1.58,1.58,0,0,1-2.09-.09A2.13,2.13,0,0,1,99.28,138.21Z"/><path class="cls-3" d="M48.62,81.75a1.71,1.71,0,0,1,.72-2.41,1.81,1.81,0,0,1,2.45.75l0,.07a1.85,1.85,0,0,1-1.06,2A1.66,1.66,0,0,1,48.62,81.75Z"/><path class="cls-3" d="M61.73,146.4a3.3,3.3,0,0,1,.15-1.32,1.72,1.72,0,0,1,2.3-.82l.3.18a1.67,1.67,0,0,1-.25,2.57A1.71,1.71,0,0,1,61.73,146.4Z"/><path class="cls-4" d="M133.87,132a6.11,6.11,0,0,1,.38-.77,1.68,1.68,0,0,1,2.33-.43l0,0a1.65,1.65,0,0,1,.23,2.33l0,0-.19.25A1.75,1.75,0,0,1,133.87,132Z"/><path class="cls-4" d="M68.17,98.26c1.19.09,1.78.59,1.78,1.59s-.52,1.53-1.63,1.66a1.86,1.86,0,0,1-1.47-1.78C66.86,98.9,67.28,98.52,68.17,98.26Z"/><path class="cls-4" d="M91.91,139c-.45-1.27-.12-2.15.92-2.43.84-.22,1.33.28,1.78.85a1.64,1.64,0,0,1-.63,2.15C93.26,139.93,92.58,139.71,91.91,139Z"/><path class="cls-3" d="M93.48,169a1.56,1.56,0,0,1,.59-2.7c1-.26,1.67.35,2,1.55C95.58,169.37,94.73,169.75,93.48,169Z"/><path class="cls-4" d="M128.73,133.56c-.4-1-.29-1.68.37-2.12,1.09-.72,2.19-.05,2.37,1.47a1.52,1.52,0,0,1-1.23,1.38A1.44,1.44,0,0,1,128.73,133.56Z"/><path class="cls-4" d="M137.07,141.07a1.64,1.64,0,0,1,1.78.8c.59,1.08,0,2.13-1.44,2.29a1.52,1.52,0,0,1-1.32-1.19,1.68,1.68,0,0,1,.81-1.89A.12.12,0,0,1,137.07,141.07Z"/><path class="cls-4" d="M66.55,136.11c-1.19,0-1.85-.47-1.91-1.41s.51-1.52,1.77-1.65a1.48,1.48,0,0,1,1.25,1.44A1.57,1.57,0,0,1,66.55,136.11Z"/><path class="cls-4" d="M94.43,153.43a1.7,1.7,0,0,1-1.61.59c-.94-.23-1.29-1-.92-2.19a1.62,1.62,0,0,1,1.87-.69C94.73,151.46,95,152.35,94.43,153.43Z"/><path class="cls-4" d="M52.15,153.6a1.76,1.76,0,0,1-.11-1.85,1.6,1.6,0,0,1,1.55-.74,1.46,1.46,0,0,1,1.11,2,1.55,1.55,0,0,1-2,.82l-.25-.13Z"/><path class="cls-4" d="M123.12,136a1.71,1.71,0,0,1,.78-1.63c.75-.53,1.45-.35,2.08.53a1.67,1.67,0,0,1-.39,1.84C124.77,137.47,123.7,137.15,123.12,136Z"/><path class="cls-4" d="M138.54,145.42a1.53,1.53,0,0,1,2.06-.53c.68.42.81,1.1.46,2.1a1.58,1.58,0,0,1-2,.36A1.51,1.51,0,0,1,138.54,145.42Z"/><path class="cls-4" d="M136.42,134.92c.39.08.81-.08,1.19.18a1.31,1.31,0,0,1,.59,1.46,1.4,1.4,0,0,1-1.1,1.13,4.48,4.48,0,0,1-.64.05,1.19,1.19,0,0,1-1.05-1.19A1.51,1.51,0,0,1,136.42,134.92Z"/><path class="cls-5" d="M86.46,169.45a1.41,1.41,0,0,1,1.1-.95c.93-.15,1.41.3,1.49,1.44-.38.87-.94,1.23-1.64,1a1.19,1.19,0,0,1-1-1.34A1.33,1.33,0,0,1,86.46,169.45Z"/><path class="cls-5" d="M120.23,149.13c0-1.23.48-1.78,1.46-1.62.77.11,1,.59,1,1.77C121.82,150.31,120.92,150.24,120.23,149.13Z"/><path class="cls-4" d="M117.85,138c-.41-.51-.68-1-.27-1.67a1.18,1.18,0,0,1,1.31-.54c.75.15,1,.74,1,1.41C119.42,138.33,118.93,138.52,117.85,138Z"/><path class="cls-6" d="M83,92A5.83,5.83,0,0,1,85,96c0,.34.09.67.16,1A33.62,33.62,0,0,1,83,92Z"/><path class="cls-7" d="M120.26,77.94c-.14-.81,0-1.31,1-1.43a16.52,16.52,0,0,0,3-1.14A34.15,34.15,0,0,1,120.26,77.94Z"/><path class="cls-8" d="M137.07,141.07h-.19a16.66,16.66,0,0,1-.16-3.16c.25,0,.53,0,.5.33A9.61,9.61,0,0,1,137.07,141.07Z"/><path class="cls-9" d="M77.12,77.29a10.39,10.39,0,0,1,2.7,1.06c.35.14.18.59.21.87Z"/><path class="cls-10" d="M98.8,159.52a1,1,0,0,1,.48-.44c-.2.68.33,1.23.34,1.87C98.49,161,98.88,160.1,98.8,159.52Z"/><path class="cls-11" d="M75.38,86.42a10.66,10.66,0,0,1-1.14-2.23A4.34,4.34,0,0,1,75.38,86.42Z"/><path class="cls-12" d="M58.72,127.46a10.1,10.1,0,0,1-.64,2.09A3.4,3.4,0,0,1,58.72,127.46Z"/><path class="cls-13" d="M81.31,156a1.44,1.44,0,0,1,.94.65A1.32,1.32,0,0,1,81.31,156Z"/><path class="cls-11" d="M74.09,83.87a1.23,1.23,0,0,1-.49-.8A.85.85,0,0,1,74.09,83.87Z"/><path class="cls-12" d="M59.36,126.34a1,1,0,0,1-.49.79A1,1,0,0,1,59.36,126.34Z"/><path class="cls-14" d="M117,109.83a1.64,1.64,0,0,1-.33-1A1,1,0,0,1,117,109.83Z"/><path class="cls-15" d="M124.42,149.72l-.47.07.3-.36C124.53,149.4,124.54,149.52,124.42,149.72Z"/><path class="cls-2" d="M64.36,87.24a.73.73,0,0,1,.46-.46A.49.49,0,0,1,64.36,87.24Z"/><path class="cls-2" d="M123.79,153.43c.27,0,.56-.07.77.18C124.29,153.61,124,153.67,123.79,153.43Z"/><path class="cls-16" d="M128.44,124.58c.32.25.63-.13.94,0a3.94,3.94,0,0,1-1.46.49A1,1,0,0,1,128.44,124.58Z"/><path class="cls-17" d="M82.44,135.15a.88.88,0,0,1-.48-.47C82.16,134.79,82.61,134.66,82.44,135.15Z"/><path class="cls-18" d="M114.65,71.2a25.07,25.07,0,0,1-.94,6.44,78.85,78.85,0,0,1-2,8.44c-.15.43-.32.85-.48,1.27-.06.15-.12.32-.33.26s-.13-.21-.13-.34c0-.87-.07-1.77-.14-2.63-.13-1.93-.17-3.88-.17-5.82a35,35,0,0,0-1-6.75,62.58,62.58,0,0,1-1-6.36,46.22,46.22,0,0,1,.29-5.92,9.08,9.08,0,0,0-.38-2.89,13.22,13.22,0,0,0-1.81-4.57c-.16-.21-.23-.48,0-.62a.51.51,0,0,1,.68.2h0a7.41,7.41,0,0,1,1.32,3.38,12.58,12.58,0,0,0,2.59,5.57,17.93,17.93,0,0,1,3.27,7.89A22,22,0,0,1,114.65,71.2Z"/><path class="cls-18" d="M73.2,67a1.68,1.68,0,0,1-1.3-.9,6.32,6.32,0,0,1-.73-5.85c1.07-3.12,2.21-6.24,4.45-8.77a17.14,17.14,0,0,1,2.16-2c.15-.12.36-.32.59-.15s0,.4,0,.59c-.88,2.29-1.77,4.56-2.62,6.85-.75,2.08-1.61,4.15-1.45,6.42a4.25,4.25,0,0,0,.22,1.32A2.49,2.49,0,0,1,74,66.85C73.85,67.09,73.55,67,73.2,67Z"/><path class="cls-19" d="M90.58,116.84c-2.2.59-4.15.23-5.59-1.66a5.38,5.38,0,0,1-.81-3.75.26.26,0,0,1-.16-.32c1.1-4.09,5.92-5.37,8.47-3.24a6.45,6.45,0,0,1,2.15,3.64,8.08,8.08,0,0,1,0,1.84,3.6,3.6,0,0,1-.8,1.64l-.59.59A4.74,4.74,0,0,1,90.58,116.84Z"/><path class="cls-19" d="M111.11,116.87c-2.9.93-6.28-2.14-6.08-5.44-.15-.32,0-.66,0-1a4.91,4.91,0,0,1,4.43-3.37c2.82-.17,4.61,1.18,5.39,4.14a11,11,0,0,1,0,2.15c0,.21-.16.4-.2.59A4.44,4.44,0,0,1,111.11,116.87Z"/><path class="cls-20" d="M114.63,111.11l-.15-.36c-.66-1.78-1.67-3.22-3.7-3.46-2.18-.24-4.09.29-5.2,2.43-.13.24-.44.4-.38.75-.16.12,0,.37-.25.5-.28-.25-.16-.54-.08-.82a5.07,5.07,0,0,1,4.43-3.85,5.59,5.59,0,0,1,5.86,4.84,6.06,6.06,0,0,1-.36,3c-.12.08,0,.39-.27.3s-.13-.3,0-.47,0-.35.1-.48A5,5,0,0,0,114.63,111.11Z"/><path class="cls-21" d="M94.45,111.43a13.48,13.48,0,0,0-.6-1.48c-1-1.84-2.36-3-4.57-2.88a5.29,5.29,0,0,0-4.74,3.26,10.8,10.8,0,0,0-.35,1.1c-.22.16-.14.4-.17.59-.43-.37-.18-.82-.14-1.25a4.75,4.75,0,0,1,2.1-3.14c2-1.25,4.14-1.77,6.41-.54a5.16,5.16,0,0,1,2.55,3.67,6.5,6.5,0,0,1-.16,2.74.17.17,0,0,1-.22,0v0A11.22,11.22,0,0,0,94.45,111.43Z"/><path class="cls-22" d="M94.61,113.52h.16A4.54,4.54,0,0,1,91.14,117a.69.69,0,0,1-.59-.19,11.75,11.75,0,0,0,2.62-1.39,1.91,1.91,0,0,0,.45-.49l.76-1.47a.11.11,0,0,1,.12-.1A.12.12,0,0,1,94.61,113.52Z"/><path class="cls-23" d="M114.48,114l0,.35.28-.18a4.27,4.27,0,0,1-4,3l.33-.3A5.53,5.53,0,0,0,114.48,114Z"/><path class="cls-24" d="M104.87,110.15v.7l.33-.38a2.24,2.24,0,0,1-.17,1c-.2.09-.12.32-.29.46C104.79,111.31,104.54,110.72,104.87,110.15Z"/><path class="cls-25" d="M83.88,110.79c.07.41-.15.86.14,1.25a2,2,0,0,1-.08.91A3,3,0,0,1,83.88,110.79Z"/><path class="cls-4" d="M133.2,120.13a2,2,0,0,1-2.74,2.89,2.09,2.09,0,0,1-.84-2.23,1.92,1.92,0,0,1,1.46-1.43A2.08,2.08,0,0,1,133.2,120.13Z"/><path class="cls-26" d="M92.58,110.7a2.62,2.62,0,0,1-2.64,2.6h0a2.84,2.84,0,0,1-2.77-2.84,2.63,2.63,0,0,1,2.69-2.59h0A2.8,2.8,0,0,1,92.58,110.7Z"/><path class="cls-27" d="M87.44,113.62a.49.49,0,0,1-.55.53.53.53,0,0,1-.59-.45v-.14a.53.53,0,0,1,.52-.51h.07C87.28,113,87.43,113.25,87.44,113.62Z"/><path class="cls-2" d="M94.61,113.52h-.2a10.93,10.93,0,0,0,0-2.06C94.81,112.1,94.54,112.82,94.61,113.52Z"/><path class="cls-2" d="M93.65,115a.47.47,0,0,1-.45.49Z"/><path class="cls-26" d="M108.86,112.25a2.77,2.77,0,0,1-.5-1.81,2,2,0,0,1,1.36-1.88,2.12,2.12,0,0,1,2.32.63,2.59,2.59,0,0,1,.19,3.17,2.12,2.12,0,0,1-2.87.36A1,1,0,0,1,108.86,112.25Z"/><path class="cls-28" d="M109.17,113.05c0,.64-.25,1-.91,1a.75.75,0,0,1-.79-.7v-.12c0-.65.44-.91,1.08-.85A.66.66,0,0,1,109.17,113.05Z"/><path class="cls-23" d="M114.63,111.11a3.09,3.09,0,0,1,0,2.37A11.05,11.05,0,0,0,114.63,111.11Z"/><path class="cls-29" d="M109.17,113.05l-.62-.65.3-.15a1,1,0,0,1,.49.47Z"/></svg>