<svg id="Layer_1" data-name="Layer 1" xmlns="http://www.w3.org/2000/svg" viewBox="0 0 200 200"><defs><style>.cls-1{fill:#fff;}.cls-2{fill:#eff4fb;}.cls-3{fill:#b5cad2;}.cls-4{fill:#fcfcfb;}.cls-5{fill:#eff5fb;}.cls-6{fill:#c9d8de;}.cls-7{fill:#3b3e3f;}.cls-8{fill:#3b3e40;}.cls-9{fill:#b5cbd2;}.cls-10{fill:#edf3f8;}.cls-11{fill:#b6cbd3;}.cls-12{fill:#b6cbd2;}.cls-13{fill:#b7ccd3;}.cls-14{fill:#b7ccd4;}.cls-15{fill:#4c5154;}.cls-16{fill:#53575a;}.cls-17{fill:#eff4fa;}.cls-18{fill:#eef4fa;}.cls-19{fill:#ecf2f8;}.cls-20{fill:#eef3f9;}.cls-21{fill:#edf3f9;}.cls-22{fill:#ecf2f7;}.cls-23{fill:#eaf0f6;}</style></defs><title>whale</title><path class="cls-1" d="M81.58,123A19.79,19.79,0,0,0,77,131c-.1.56-.64,3.37,1.71,4.92s9-1.9,9-1.9,2.61-1.8,4.53-3.3,4.74-4.23,4.74-4.23l.4-.14-1.72,2s-6.2,7.25-13.87,8.61c-1.52.2-4.87.1-5.45-3.64s4.65-11.67,4.65-11.67Z"/><path class="cls-2" d="M114.16,131.74c-.1-.16-.25-.13-.41-.13s-.51,0-.36-.35a1.38,1.38,0,0,1,.94,0c.73.09.8,0,.75-.68a25.93,25.93,0,0,0-.43-2.64c-.59-3.18-.83-6.41-1.25-9.61a51.33,51.33,0,0,0-2.52-10.23,3.09,3.09,0,0,0-.34-.84,1.34,1.34,0,0,1-.07-.18,4.46,4.46,0,0,0-1-1.83,7.64,7.64,0,0,0-2.67-2.6A26.26,26.26,0,0,0,97.2,99.8c-2.45-.21-4.91-.3-7.36-.52a14.09,14.09,0,0,1-4.48-1.4,78.57,78.57,0,0,0-10.47-3.83,41.91,41.91,0,0,1-6.38-2.48,35.37,35.37,0,0,0-11.6-3.48c-2.11-.19-4.22-.37-6.34-.48-1.32-.07-2.64-.17-4-.11-2.77.11-5.54.24-8.32.48a57.39,57.39,0,0,1-6.29.2H28.43A5.58,5.58,0,0,1,24.92,87a24.72,24.72,0,0,0-3.84-2.36,5.44,5.44,0,0,0-2.37-.8.65.65,0,0,1-.49-.21,6,6,0,0,1,0-2.16A19,19,0,0,1,20.05,74a39.07,39.07,0,0,0,1-8c0-.56,0-1.14,0-1.7a12.17,12.17,0,0,1,1.18-5.7,5.73,5.73,0,0,1,2.66-2.79,16.51,16.51,0,0,1,7.14-1.89H34a29.56,29.56,0,0,1,5.71.56c2.14.32,9.83,2,11.56,2.44a123,123,0,0,1,12.51,4C66.87,62,70,63.18,73.06,64.33s5.86,2.3,8.79,3.45c.82.33,1.6.79,2.43,1.09a3,3,0,0,0,.69.3c2.32.86,4.59,1.88,6.92,2.73,2.17.77,9.35,3.35,9.56,3.72,1.36.44,6.46,2.17,7.68,2.6s19.54,7,21.93,7.8A22.23,22.23,0,0,0,135,87a89.14,89.14,0,0,0,12.23.09,32,32,0,0,0,3.77-.43,12.29,12.29,0,0,0,5.78-2.58,11,11,0,0,0,2-2.79A9.56,9.56,0,0,0,159.93,77a3.59,3.59,0,0,0,.19-3c-1.31-3.8-3.47-5.84-7.51-6.14a26,26,0,0,0-8.24.75,10.3,10.3,0,0,1-5.2-.08,3.25,3.25,0,0,1-2.44-3.9c0-.07,0-.13.05-.19a1.1,1.1,0,0,1,1.15-1,12.52,12.52,0,0,1,3.86.22,5,5,0,0,0,1,.1c5.31.18,6.47-.56,8.34-1.22a13.67,13.67,0,0,1,4.4-.56,4.91,4.91,0,0,1,2.35.92c.3.18.54.49.94.45s.39.37.51.62c.43.9,1,1.73,1.48,2.61,1.62,3.12,2.91,6.31,2.87,9.93a72,72,0,0,1-.68,9.39c-.22,1.56-.21,3.14-.41,4.7a23.87,23.87,0,0,1-3.89,10.2c-.92,1.43-1.93,2.82-2.94,4.19a6.84,6.84,0,0,1-1.37,1.37,23,23,0,0,1-8.95,4.09c-2.39.56-4.85.85-7.22,1.52a2.7,2.7,0,0,1-.69.07c-.32,0-.68.09-1-.23.24-.54.78-.61,1.24-.74.85-.25,1.73-.42,2.6-.6a36.71,36.71,0,0,0,5.73-1.82,1,1,0,0,0,.58-.45c-1.76.77-3.55.88-5.25,1.41a34.89,34.89,0,0,1-6.77,1.37c-.5.05-1,.18-1.48.27a3.19,3.19,0,0,1-.69.1c-.38,0-1,.16-1-.38s.51-.43.84-.48a20.76,20.76,0,0,0,4.44-1.37,14.1,14.1,0,0,1,3.34-.71,2.3,2.3,0,0,0,1.11-.41c-.3-.23-.52-.09-.73,0a14.19,14.19,0,0,1-3.68.92,36,36,0,0,1-6.14.25,1.25,1.25,0,0,1-.95-.68q-1.25-2.06-2.69-4c-1.28-1.52-2.53-3.06-3.91-4.49a21.93,21.93,0,0,0-2.51-2.21.71.71,0,0,0-.69-.21,33.49,33.49,0,0,0,1.86,3.5A75.38,75.38,0,0,1,127,111c.8,1.92,2,3.63,3,5.46a56,56,0,0,1,3.21,8.76c.42,1.37.73,2.78,1.17,4.15.06.35.3.68.28,1a.88.88,0,0,1,0,.23,20.31,20.31,0,0,0,0,2.34c0,.51-.12,1.79-.15,2.42a16.52,16.52,0,0,1-2.84,8.08,5.76,5.76,0,0,1-4,2.54,11.34,11.34,0,0,1-2.18,0,7.31,7.31,0,0,1-3.85-1.92A22.76,22.76,0,0,1,116.9,137c-.31-.68-1.05-3.06-1.4-4.29-.16-.61-.24-1.28-.93-1.18C114.45,131.56,114.23,131.8,114.16,131.74Z"/><path class="cls-3" d="M18.28,83.68c1.55-.18,2.73.69,4,1.37s2.39,1.68,3.68,2.36A4.65,4.65,0,0,0,28.2,88c2.32,0,4.65.07,7,0A66.08,66.08,0,0,0,42,87.44h.28c2,0,4.09-.23,6.14-.13q3.84.19,7.68.52a31.33,31.33,0,0,1,8.28,1.84c2.14.79,4.19,1.79,6.28,2.67a68.27,68.27,0,0,0,6.75,2.19,101.16,101.16,0,0,1,9.78,3.84,9.24,9.24,0,0,0,3.52.73c2.27.06,4.55.21,6.82.46a19.85,19.85,0,0,1,7.65,2.1c.59.33,1.26.52,1.87.83a6.89,6.89,0,0,1,2.58,2.64,12.75,12.75,0,0,1,1,1.94h0c.12.33.27.68.36,1a10,10,0,0,1,.4,3c.1,5,.16,10,.13,15a9.83,9.83,0,0,0,.3,1.88,2.38,2.38,0,0,1,.11,1.21c-.29.32-.68.14-1,.07-2.19-.48-4.33-1.13-6.47-1.77a70.45,70.45,0,0,1-10.06-4.14,28.3,28.3,0,0,0-9.71-2.66,51.2,51.2,0,0,0-5.67-.23,73.64,73.64,0,0,0-7.71.44,42.77,42.77,0,0,1-4.36.3c-1.93,0-3.81.42-5.73.5-1.62.07-3.23-.08-4.84-.12l-2.88-.07a2,2,0,0,1-.93-.12c-.15-.36.15-.35.33-.39,2.36-.4,4.66-1.08,7-1.51a88.23,88.23,0,0,0,11.56-2.73,33.81,33.81,0,0,0,3.22-1.37,1.85,1.85,0,0,0,1-.84.65.65,0,0,1-.36.29,17.67,17.67,0,0,1-6,.3,36.29,36.29,0,0,1-4.88-.57c-2.73-.13-10.71-1-10.92-1-1.91,0-3.81,0-5.72,0a65.18,65.18,0,0,1-8.36-1.17,35.09,35.09,0,0,1-10.13-4.43,20.44,20.44,0,0,1-3.52-3.31,23.29,23.29,0,0,1-2.05-2.39c-2.47-3.51-3.75-8.19-4.28-9.76a26.43,26.43,0,0,1-1.11-5.27c-.14-.85-.09-1.79-.27-2.71a.89.89,0,0,1,.07-.6Z"/><path class="cls-3" d="M134.13,129.41c-.72-1.79-1-3.71-1.61-5.54a42.49,42.49,0,0,0-3.17-8c-1.67-2.88-3.06-5.9-4.45-8.92-1.24-2.73-3-5.1-4.32-7.76-.25-.51-.53-1-.79-1.51-.06-.11-.19-.25-.08-.37s.3,0,.45,0a4.29,4.29,0,0,1,1.27.89,33.7,33.7,0,0,1,4.09,4.1,43.31,43.31,0,0,1,4.55,6.22.81.81,0,0,0,.84.43c1.57,0,3.14-.16,4.7-.2a30.58,30.58,0,0,0,4.78-.92c.21,0,.41-.19.63-.24s.49-.11.57.21-.13.38-.36.49a4,4,0,0,1-1.53.33,12.63,12.63,0,0,0-3.86,1,18.94,18.94,0,0,1-3.54,1c-.21,0-.63,0-.6.28s.44.23.68.23a5.92,5.92,0,0,0,.94-.14c1.93-.44,3.92-.46,5.84-1,1.42-.36,2.84-.81,4.28-1.11a25.46,25.46,0,0,0,3.22-.86c.16-.06.39-.17.48,0s-.14.31-.29.4a11.86,11.86,0,0,1-2,.86,33.88,33.88,0,0,1-6.17,1.66,10.78,10.78,0,0,0-1.93.68,1.87,1.87,0,0,1-1.3.32,13.53,13.53,0,0,0-2.62.26c.33.26.71.16,1.08.18a3.54,3.54,0,0,0,1.37-.21,8.85,8.85,0,0,1,2.45-.41c1.14-.06,2.2-.53,3.33-.69a42.67,42.67,0,0,0,7.14-1.63,16.82,16.82,0,0,0,7.15-4.25,34.91,34.91,0,0,0,4-5.68,23.08,23.08,0,0,0,3.05-8.19,19.43,19.43,0,0,0,.3-2.63c0-1.82.37-3.61.54-5.42s.24-3.9.34-5.85a21,21,0,0,0-1.64-8.29c-.76-2-2.25-3.76-3.05-5.8a4,4,0,0,1,1-2.21,2.56,2.56,0,0,1,.52-.52A5.3,5.3,0,0,1,163,59.33a6.79,6.79,0,0,1,1.91,0,47.38,47.38,0,0,0,7.58,1.07,3.36,3.36,0,0,0,2.09-.73,9.73,9.73,0,0,1,4.21-1.61,3.46,3.46,0,0,1,1.36,0,1.74,1.74,0,0,1,1.66,1.37,4.52,4.52,0,0,1,0,1.64,10.91,10.91,0,0,1-3.3,5.54c-.15.15-.28.3-.41.45a4.51,4.51,0,0,1-.54.44c-1.33,1-2.47,2.23-3.82,3.24A24.62,24.62,0,0,1,169.92,73c-.19.32.06.55.13.83h0c.12.22.16.47.28.68h0a14.29,14.29,0,0,1,.54,1.64h0c.13.32.16.69.28,1h0c.18.54.28,1.09.41,1.64h0A57.23,57.23,0,0,1,172.81,85a19.73,19.73,0,0,1,.24,5.09c-.13,1-.12,2.09-.16,3.13a54.69,54.69,0,0,1-1.22,9.45,32.39,32.39,0,0,1-1.15,4.1c0,.06,0,.13-.06.2a9.48,9.48,0,0,0-.56,1.36.87.87,0,0,1-.07.17c-.34.68-.68,1.37-1,2,0,0-.06.11-.1.16a2.54,2.54,0,0,0-.32.55,1.4,1.4,0,0,1-.1.16,2.62,2.62,0,0,0-.33.53.51.51,0,0,1-.09.16,6.77,6.77,0,0,0-.58.92.83.83,0,0,1-.09.16,3.35,3.35,0,0,0-.37.63q-.37.63-.81,1.23a3.11,3.11,0,0,0-.39.49l-.11.15c-.51.58-1,1.16-1.52,1.75,0,0-.06.1-.11.15-.62.61-1.27,1.2-1.84,1.86a1.3,1.3,0,0,1-.23.18,8.61,8.61,0,0,0-1.37,1.26c-.74.77-1.55,1.47-2.34,2.19l-.15.11a2.67,2.67,0,0,0-.43.32l-.15.11a2.22,2.22,0,0,0-.47.39,4,4,0,0,1-1.08.69,1.58,1.58,0,0,0-.68.38,1.45,1.45,0,0,1-.32.18c-.43.18-.84.37-1.25.59l-.17.08a2.67,2.67,0,0,0-.59.23l-.17.07a15.39,15.39,0,0,0-1.76.64,3.34,3.34,0,0,1-.44.17,6.9,6.9,0,0,0-1.41.48l-.18.07c-.64.2-1.28.42-1.9.64a.76.76,0,0,0-.2.06c-.68.18-1.44.24-2.13.49a.76.76,0,0,1-.2.06,27.22,27.22,0,0,0-2.73.68c-.21.07-.43.13-.65.18-1.83.42-3.7.53-5.55.78a1.35,1.35,0,0,1-.69,0C134.43,130.17,134.39,129.71,134.13,129.41Z"/><path class="cls-3" d="M143.53,63.82c-.18.22-1.12.21-1.4.15a13.16,13.16,0,0,0-4.24-.32.94.94,0,0,0-1,.78,3.24,3.24,0,0,0,2.78,4,11.49,11.49,0,0,0,5.31-.26,25.13,25.13,0,0,1,4.24-.57,15.23,15.23,0,0,1,5.46.34,7.79,7.79,0,0,1,4.78,3.93,6.08,6.08,0,0,1,.77,4.86c0,.11-.36.69-.35.47a2.38,2.38,0,0,0-.36-1.42A12.11,12.11,0,0,0,157,72.91a9.32,9.32,0,0,0-4.32-1.52c-2.4-.24-4.78-.26-7.22-.31a13.47,13.47,0,0,1-7.95-2.64,6.81,6.81,0,0,1-1.77-2.57,2.23,2.23,0,0,1,0-1.09,1.79,1.79,0,0,1,1.91-1.65c.23,0,1.6.21,3,.38C141.91,63.64,142.79,63.82,143.53,63.82Z"/><path class="cls-4" d="M172.79,95.89a70.06,70.06,0,0,1-1.52,8.5,8,8,0,0,1-1,2.59c.36-1.46.92-2.85,1.18-4.34.48-2.63,1-5.25,1.21-7.93.15-1.95.28-3.91.32-5.85a30.1,30.1,0,0,0-.84-7,24.09,24.09,0,0,1-.63-3.13,19.23,19.23,0,0,1,.89,3.59,30.53,30.53,0,0,1,.75,7.38C173.1,91.8,172.93,93.85,172.79,95.89Z"/><path class="cls-4" d="M141.15,129.41a11.29,11.29,0,0,1-3.19.68,6.73,6.73,0,0,1-1.33.17h-.28a1.09,1.09,0,0,1-1.23.13h-.56c0-.12,0-.16.14-.13a43.7,43.7,0,0,0,5.71-.73A3.69,3.69,0,0,1,141.15,129.41Z"/><path class="cls-4" d="M163.88,117.36c0,.46-.53.59-.69,1a.8.8,0,0,0-.4.41c-.33.12-.44.56-.84.55A17.5,17.5,0,0,1,163.88,117.36Z"/><path class="cls-4" d="M170.87,76.15a5.1,5.1,0,0,1-.55-1.65A2.89,2.89,0,0,1,170.87,76.15Z"/><path class="cls-4" d="M171.56,78.75a4.73,4.73,0,0,1-.42-1.65A3,3,0,0,1,171.56,78.75Z"/><path class="cls-4" d="M171.14,77.1a1.44,1.44,0,0,1-.27-1A1.33,1.33,0,0,1,171.14,77.1Z"/><path class="cls-4" d="M170.05,73.82c-.19-.25-.44-.49-.14-.82Z"/><path class="cls-4" d="M170.31,74.5a.86.86,0,0,1-.28-.68A.75.75,0,0,1,170.31,74.5Z"/><path class="cls-5" d="M52.49,121.18c1.74,0,3.46.06,5.19.14a23.39,23.39,0,0,0,4.1,0c1.93-.24,3.88-.37,5.82-.53.77-.07,1.54-.12,2.31-.17,2.73-.18,5.46-.41,8.23-.51a55.7,55.7,0,0,1,6.06.21,31.16,31.16,0,0,1,5.51.88,31.15,31.15,0,0,1,6,2.37,72.36,72.36,0,0,0,13.77,5c.81.2,1.64.36,2.45.54a3.21,3.21,0,0,1,1.14,2.16,1.32,1.32,0,0,1-.81.05,55.26,55.26,0,0,1-8.19-2.19c-1-.35-6.55-2.73-6.73-2.73a24.57,24.57,0,0,0-9.93-3.94c-1.59-.31-3.14-.77-4.78-1-.27,0-1.2.24-1.48.25s.25-.56,0-.38H81a2.33,2.33,0,0,1-1.62.14c-.2,0-.38-.14-.58,0h-.14c-.46.39-1,0-1.5.13H77a1,1,0,0,1-.92.15c-.26-.09-.52-.17-.75.06a2.52,2.52,0,0,1-1.36.07h-.41a8.25,8.25,0,0,1-2.52.3.87.87,0,0,0-.77,0h0c-.45.33-1,.17-1.45.18a1.69,1.69,0,0,0-1.15,0h0c-.5.34-1,.15-1.57.19-.34,0-.69-.26-1-.06h0a2,2,0,0,1-1.5.14H63a1.38,1.38,0,0,1-1.22.13h-.14a2.13,2.13,0,0,1-1.51.14h-.27c-.36.29-.77.19-1.18.19s-.68-.25-1-.05H55.54c-.26.17-.58,0-.83.13H53.35a8.27,8.27,0,0,1-2.33,0A8.7,8.7,0,0,1,46.67,122c-.92-.55-1.06-1-.69-2a.15.15,0,0,1,.2,0h0c.49,1.37.76,1.53,2.23,1.57a22,22,0,0,0,3.14-.47C51.85,121,52.19,120.93,52.49,121.18Z"/><path class="cls-5" d="M64.44,114.5a43,43,0,0,1,4.67.37,22.52,22.52,0,0,0,5.74-.17,4.41,4.41,0,0,1,.54-.07c0,.24-.14.33-.29.4a15.86,15.86,0,0,1-2.73,1.21c-3.12.78-6.25,1.52-9.41,2.05-2.89.49-5.66,1.44-8.51,2a54.39,54.39,0,0,1-5.93,1c-1.21.11-1.77-.34-2.16-1.59,0-.07-.31.07-.26,0,.29-.52,1.1-.45,1.51-.62,1.4-.44,2.86-.68,4.24-1.25,4.3-1.22,8.88-1.25,13-3.19Z"/><path class="cls-6" d="M51.83,117.9a.21.21,0,0,1,0,.11,26.25,26.25,0,0,1-4.26,1.14A25.36,25.36,0,0,1,51.83,117.9Z"/><path class="cls-4" d="M51,123.12h2.33A4.2,4.2,0,0,1,51,123.12Z"/><path class="cls-4" d="M94.71,128.84l-.55.69-.14.13-.42.13C93.77,129.27,94,128.84,94.71,128.84Z"/><path class="cls-4" d="M66.08,122.29c-.09.17-.26.14-.41.14h-.55C65.41,122.17,65.76,122.35,66.08,122.29Z"/><path class="cls-4" d="M54.71,123.12c.24-.25.55-.1.83-.14C55.29,123.23,55,123.07,54.71,123.12Z"/><path class="cls-4" d="M46.36,119.55v.15c0,.21-.06.29-.26.27H46A.88.88,0,0,1,46.36,119.55Z"/><path class="cls-4" d="M76.08,121.61l-.14.14H75.4C75.59,121.51,75.85,121.64,76.08,121.61Z"/><path class="cls-4" d="M71,122l-.14.14h-.54C70.52,121.93,70.79,122.05,71,122Z"/><path class="cls-3" d="M45.52,64.09c-.94-.17-2.17-.4-3.41-.61a56.84,56.84,0,0,0-7.51-1.25,22.26,22.26,0,0,0-5.15.42,3.52,3.52,0,0,1-2.83-.38,1.8,1.8,0,0,1,.17-3.17,17.28,17.28,0,0,1,6.53-1.75c2.73-.21,5.31.45,7.94.92,1.67.31,3.34.69,5,1a2.46,2.46,0,0,1,2.14,2.38C48.43,63.19,47.46,64.1,45.52,64.09Z"/><path class="cls-3" d="M127.73,139.57c-.15-1.51-.26-2.94-.44-4.36a48.58,48.58,0,0,0-1.63-8.54c-1-3.29-1.59-6.74-3-9.91-2.13-4.78-3.75-9.73-6-14.43a13.79,13.79,0,0,0-1-1.69c-.12-.18-.34-.39-.08-.6s.35,0,.54.11c1,.51,1.15,1.6,1.51,2.49,1,2.58,2.36,5,3.41,7.59,1,2.33,1.79,4.72,2.63,7.1,1.77,5.12,3.36,10.3,4.92,15.48a16.92,16.92,0,0,1,.68,4.3c0,.68.19,1.3.21,2a9,9,0,0,1-.53,3.41,10.19,10.19,0,0,1-.64,1.28,1.28,1.28,0,0,1-1.56.52c-.54-.22-.62-.87-.2-1.43A6.5,6.5,0,0,0,127.73,139.57Z"/><path class="cls-7" d="M112.7,131.38c-.4-.68-.43-1.55-.83-2.24a16.93,16.93,0,0,1-.6-5.16c0-2.91.06-5.82-.07-8.74-.1-2,.08-4.13-.18-6.2,0-.35-.12-.71-.17-1.07,0-.12,0-.17.12-.16a49,49,0,0,1,2.69,11c.46,3.71.78,7.45,1.58,11.13a8.33,8.33,0,0,0,.15,1.21c.09.27-.22.72-.5.68A8.13,8.13,0,0,1,112.7,131.38Z"/><path class="cls-3" d="M118.9,86.77c1.17.18,2.33.41,3.5.52,2,.2,4,.94,6.1,1.07a2.32,2.32,0,0,1,2.18,1.7,2.08,2.08,0,0,1-.77,2.32,2.64,2.64,0,0,1-2.14.45,12.45,12.45,0,0,1-3.7-.9c-1.48-.68-3.12-.86-4.54-1.67a6.66,6.66,0,0,1-2-1.53,1.19,1.19,0,0,1-.31-1.25,1.23,1.23,0,0,1,1.2-.68h.47Z"/><path class="cls-3" d="M125.79,136.49a20.45,20.45,0,0,1-1,4.58,2.59,2.59,0,0,1-1.15,1.23.89.89,0,0,1-1,0,.83.83,0,0,1-.34-1,2.62,2.62,0,0,1,.24-.68,12.16,12.16,0,0,0,1.27-5,23.32,23.32,0,0,0-.44-5.95c-.47-1.91-1.16-3.78-1.6-5.7a60.45,60.45,0,0,0-3.06-9.56c-1.75-4.21-3.73-8.3-5.89-12.32-.16-.3-.51-.69-.13-1s.65.13.91.38a6.35,6.35,0,0,1,1.19,2.29c1.1,2.4,2.22,4.78,3.25,7.22,1.56,3.67,3,7.37,4.33,11.14a81.63,81.63,0,0,1,3.42,13.8A3.09,3.09,0,0,1,125.79,136.49Z"/><path class="cls-3" d="M132.54,135.17a16.09,16.09,0,0,1-.3,3.53c-.14.79-.49,1.09-1.11,1s-.75-.61-.62-1.31a2.57,2.57,0,0,0,.08-.4c0-1.23.1-2.46.11-3.69a32.85,32.85,0,0,0-1.22-7.22,57.65,57.65,0,0,0-2.35-8.19c-1.81-4.6-3.06-9.4-5.29-13.82-.62-1.25-1.51-2.33-2.21-3.53a29.89,29.89,0,0,0-2.32-3.28,2.85,2.85,0,0,1-.52-1.18c-.05-.18-.12-.46.07-.57s.36.14.47.29a22.6,22.6,0,0,1,2.21,3.27c1.49,2.88,3,5.76,4.47,8.63,1.27,2.41,2,5,3,7.5,1.48,3.61,2.49,7.37,4,11A21.59,21.59,0,0,1,132.54,135.17Z"/><path class="cls-3" d="M120.48,131.26a17.32,17.32,0,0,1-.11,2.79c-.1.45-.19.95-.68.91s-.74-.64-.69-1.11a19.66,19.66,0,0,0,.11-3.07,32,32,0,0,0-1.12-7.72c-.69-3-2-5.85-2.9-8.8s-1.9-5.79-3-8.63c0-.12-.16-.28,0-.37s.3.06.37.19a17.35,17.35,0,0,1,.93,1.82q1.88,4.29,3.69,8.59a50.21,50.21,0,0,1,3.07,10.75A19.08,19.08,0,0,1,120.48,131.26Z"/><path class="cls-3" d="M54.91,66.13a3.77,3.77,0,0,1-2.2-.68,1.81,1.81,0,0,1-.3-2.55,1.77,1.77,0,0,1,.9-.62,2.69,2.69,0,0,1,2.73.5,1.91,1.91,0,0,1,.56,2A2.24,2.24,0,0,1,54.91,66.13Z"/><path class="cls-3" d="M126.5,121.74a7.4,7.4,0,0,1-1.37-2.64,7.09,7.09,0,0,0-.68-1.72,17.22,17.22,0,0,1-1.56-4.19,64,64,0,0,0-2.3-6.15c.29-.08.33.16.43.31A37.06,37.06,0,0,1,123.7,113a32,32,0,0,1,1.71,5.23c.21.87.59,1.71.84,2.58a2.31,2.31,0,0,1,.19.93Z"/><path class="cls-8" d="M91,95.05a2.58,2.58,0,0,1,1.77.86,1.25,1.25,0,0,1,0,1.77,1.24,1.24,0,0,1-.65.36,2.9,2.9,0,0,1-2.56-.6A1.17,1.17,0,0,1,89.2,96C89.45,95.37,90,95,91,95.05Z"/><path class="cls-3" d="M137.24,91.2a1.49,1.49,0,0,1,.26,3,1.2,1.2,0,0,1-.19,0,1.46,1.46,0,0,1-1.51-1.41v-.09a1.35,1.35,0,0,1,1.26-1.46Z"/><path class="cls-3" d="M121.79,130.82a11,11,0,0,1,.14,4.78c-.13.64-.33,1.27-.5,1.9a1.38,1.38,0,0,1-.35.69c-.16.16-.33.35-.58.24s-.13-.39-.08-.6c.55-2.22.69-4.52,1.14-6.75C121.58,131,121.56,130.89,121.79,130.82Z"/><path class="cls-9" d="M117.07,128a8.48,8.48,0,0,0,.23,2.3,2.42,2.42,0,0,1,0,.47c0,.24,0,.49-.32.51s-.35-.22-.36-.46a3.21,3.21,0,0,1,0-.62,25.68,25.68,0,0,0-.16-5.33,18.28,18.28,0,0,0-.57-2.93c0-.19-.18-.45.1-.51s.25.28.28.45a11,11,0,0,1,.44,2.47C116.7,125.6,117.19,126.78,117.07,128Z"/><path class="cls-10" d="M137.59,111.89c-1.53.18-3,1-4.55.82h-.35c-.32,0-.36-.27-.38-.47s.24-.21.4-.21l3.92-.28C136.93,112,137.27,111.83,137.59,111.89Z"/><path class="cls-11" d="M151.84,105.18c-.34,0-.76-.06-.78-.61a1.21,1.21,0,0,1,1.13-1.17.77.77,0,0,1,.82.71v.09C153.05,104.77,152.56,105.17,151.84,105.18Z"/><path class="cls-11" d="M146.3,106.55c-.35,0-.77.08-.77-.49a1.08,1.08,0,0,1,1.12-.85c.31.06.82-.07.87.43S147,106.55,146.3,106.55Z"/><path class="cls-12" d="M148.28,108.18c-.1,0-.22,0-.26-.14a.28.28,0,0,1,.12-.29,8.71,8.71,0,0,1,1.68-1,.32.32,0,0,1,.42.1h0a.42.42,0,0,1-.16.53A5.7,5.7,0,0,1,148.28,108.18Z"/><path class="cls-9" d="M121.79,130.29c-.3-.2-.23-.45-.23-.68a7.24,7.24,0,0,0-.24-2.36,1.24,1.24,0,0,1,0-.47c0-.12.07-.29.22-.3s.25.16.25.26C121.8,127.93,121.79,129.11,121.79,130.29Z"/><path class="cls-13" d="M155.4,101.35a.63.63,0,0,1-.55.69h-.13c-.33,0-.56-.13-.52-.46s.18-.76.68-.78S155.41,101,155.4,101.35Z"/><path class="cls-11" d="M119.48,120.32c-.33-1.29-.84-2.53-1.14-3.84A9.44,9.44,0,0,1,119.48,120.32Z"/><path class="cls-11" d="M127.79,127a2.1,2.1,0,0,1-.41-1.74A2.16,2.16,0,0,1,127.79,127Z"/><path class="cls-14" d="M126.49,121.75a4.87,4.87,0,0,1,.57,2,2.92,2.92,0,0,1-.56-2Z"/><path class="cls-15" d="M110.61,107.09a9.81,9.81,0,0,1-1-1.93A3.35,3.35,0,0,1,110.61,107.09Z"/><path class="cls-4" d="M32,54.1a3.13,3.13,0,0,1,2.05,0Z"/><path class="cls-16" d="M111,107.79l-.12.16a1.41,1.41,0,0,1-.25-.87C110.88,107.24,110.85,107.55,111,107.79Z"/><path class="cls-4" d="M21,71.9c.06-.37-.14-.76.13-1.1C21.09,71.17,21.29,71.56,21,71.9Z"/><path class="cls-4" d="M84.31,69c.24,0,.45,0,.55.28A.76.76,0,0,1,84.31,69Z"/><path class="cls-4" d="M117.07,136.94a.75.75,0,0,1-.27-.54A.52.52,0,0,1,117.07,136.94Z"/><path class="cls-5" d="M104.51,109.05c-1.53-.18-3.06-.38-4.6-.51-2.17-.18-4.28-.79-6.46-.89a32.8,32.8,0,0,1-11.54-3A118.2,118.2,0,0,0,70.66,100a134.29,134.29,0,0,0-15.58-3.87c-2.67-.52-5.36-1-8-1.3-2.34-.3-4.69-.54-7.06-.61a34,34,0,0,1-11.85-2.16,13.29,13.29,0,0,1-3.66-2.3A31.38,31.38,0,0,1,21.37,87c-.26-.29-.76-.72-.53-1s.63.25.91.46a21.41,21.41,0,0,1,2.82,2.47,12.51,12.51,0,0,0,6.74,3.36,46.46,46.46,0,0,0,8.87,1,72.81,72.81,0,0,1,7.93.74,140.07,140.07,0,0,1,17.46,3.48,68.55,68.55,0,0,1,11.82,4.17,92.63,92.63,0,0,0,9.45,3.92,20,20,0,0,0,5,1,49.94,49.94,0,0,1,5.18.69c1.66.27,3.33.43,5,.68,1,.12,2,.24,3,.38.28,0,.61.06.56.44s-.42.23-.68.27h-.34Z"/><path class="cls-5" d="M20.59,90.55A14.26,14.26,0,0,1,23,92.48a35.12,35.12,0,0,0,7.51,5.65,24.29,24.29,0,0,0,6.88,2.11,60.64,60.64,0,0,0,7.72.68c2.16.13,4.32.19,6.48.29,1.76.07,3.51.36,5.27.5a52.64,52.64,0,0,1,8.64,1.53,29.23,29.23,0,0,1,4.85,1.82c2.52,1.16,5.11,2.16,7.64,3.29a52.79,52.79,0,0,0,9.69,3.32,32.64,32.64,0,0,0,4.71.61,85.24,85.24,0,0,1,8.72,1c2,.36,4,.63,6,.94.35.06.93,0,.86.52s-.61.32-.93.28c-1.46-.22-2.9-.59-4.36-.69-2.37-.19-4.67-.87-7.08-.94a44,44,0,0,1-14.13-2.58c-1.86-.69-3.62-1.59-5.46-2.33-2.88-1.14-5.69-2.45-8.55-3.62a32.87,32.87,0,0,0-6.85-1.71c-2.62-.47-5.27-.64-7.91-.94-1-.11-2-.11-2.93-.13-2.73,0-5.46-.28-8.23-.45a34.63,34.63,0,0,1-10.24-2.32A21.35,21.35,0,0,1,26.22,96a38.86,38.86,0,0,1-4.14-3.87C21.52,91.64,20.84,91.31,20.59,90.55Z"/><path class="cls-5" d="M26.07,99.61c.33-.1.43.18.6.34a22.87,22.87,0,0,0,3.63,3.1,15.08,15.08,0,0,0,6.42,2.29,35.69,35.69,0,0,0,6.2.21c1.48-.08,3-.09,4.44-.09,2.73,0,5.46.27,8.19.5,5.26.44,10.24,2,15.24,3.5a58.42,58.42,0,0,1,8.61,3.6,20.85,20.85,0,0,0,7,2c1.83.21,3.64.56,5.46.75,2,.22,4.1.53,6.15.86a82.72,82.72,0,0,1,10.81,2c.24.07.58,0,.53.39s-.37.19-.57.19a24,24,0,0,1-3.67-.68c-2-.42-4.17-.62-6.26-.95s-4.2-.68-6.32-.91-4.49-.61-6.74-.86a20.12,20.12,0,0,1-6.69-2,66.6,66.6,0,0,0-13.53-5.06c-2.09-.5-4.18-1-6.29-1.48-1.31-.27-2.65-.34-4-.51-5.29-.69-10.6-.28-15.91-.44a16.24,16.24,0,0,1-9.78-3.08,19.14,19.14,0,0,1-3.33-3.22C26.15,100,26,99.82,26.07,99.61Z"/><path class="cls-5" d="M20.27,87.7c1.05.69,1.78,1.69,2.76,2.43,1.61,1.22,3.09,2.73,4.91,3.56,3,1.41,6.09,2.92,9.51,3.21,1.89.17,3.79.35,5.69.51,2.73.24,5.46.2,8.15.56,2.51.33,5.05.5,7.55.91a48.62,48.62,0,0,1,6.41,1.54,6.79,6.79,0,0,1,2.4,1,15.25,15.25,0,0,1-1.64-.3,58.92,58.92,0,0,0-7.56-1.67,22.58,22.58,0,0,0-3.17-.34c-2.59,0-5.17-.12-7.75-.28-1.72-.11-3.45-.14-5.17-.29A38.62,38.62,0,0,1,33,96.79a28.07,28.07,0,0,1-6.61-3.49A29.18,29.18,0,0,1,20.81,89C20.28,88.43,20.2,88.3,20.27,87.7Z"/><path class="cls-5" d="M45.8,90.11c1.63.12,3.25.29,4.87.49,2.12.27,4.21.64,6.31,1a48.48,48.48,0,0,1,5.82,1.44,53.6,53.6,0,0,1,6.6,2.39c2.73,1.23,5.62,2,8.28,3.35.32.17.64.35.95.55.15.1.39.22.25.48s-.33.07-.49,0c-1-.32-2-.84-3-1.24C72,97.26,68.49,96.3,65.07,95.17c-2.73-.92-5.51-1.37-8.19-2.21a48.79,48.79,0,0,0-7.77-1.36c-1.42-.18-2.83-.37-4.25-.53-.35,0-.6-.17-.58-.53s.32-.46.69-.45S45.51,90.11,45.8,90.11Z"/><path class="cls-2" d="M27.53,103.26a14.69,14.69,0,0,1,2.27,1.89,13.36,13.36,0,0,0,6.61,3.18c2.05.39,4.14.49,6.22.68,1.7.18,3.41,0,5.11.12,2.37.15,4.75,0,7.11.16a49.66,49.66,0,0,1,9.72,1.1,34.16,34.16,0,0,1,6.82,2.35c.14.07.31.1.38.32a3.59,3.59,0,0,1-1.37-.3c-2.31-.58-4.6-1.26-6.92-1.77a43.36,43.36,0,0,0-5.19-.68c-2.87-.27-5.73-.14-8.59-.27-2.05-.09-4.06-.11-6.06-.28-3.27-.29-6.58-.31-9.73-1.45a15.44,15.44,0,0,1-6.21-4.56A.51.51,0,0,1,27.53,103.26Z"/><path class="cls-2" d="M62.68,105.56a3.12,3.12,0,0,1-1.18-.11c-2.52-.38-5-.68-7.55-1a35.84,35.84,0,0,0-6.55-.08,40.86,40.86,0,0,1-11.77-1,20.33,20.33,0,0,1-9.43-5c-1.17-1.08-2.28-2.22-3.41-3.34-.24-.23-.68-.58-.41-.88s.45.3.68.5c2.6,2.19,5,4.68,8.11,6.14a28.5,28.5,0,0,0,6.64,2,51.88,51.88,0,0,0,7.87.73c2.25.1,4.51,0,6.76.12a45.47,45.47,0,0,1,7,1.13A18.4,18.4,0,0,1,62.68,105.56Z"/><path class="cls-2" d="M108.66,112.38a11.84,11.84,0,0,1-3.89-.28,89.25,89.25,0,0,0-9.9-1.37c-5.12-.44-10.14-1.36-14.81-3.8-3.17-1.65-6.5-3-9.75-4.46-.27-.12-.78-.18-.68-.5s.53-.13.81-.1a11.42,11.42,0,0,1,3.45,1.25c2.69,1.17,5.34,2.43,8,3.64a32.54,32.54,0,0,0,8.74,2.52c3.61.55,7.26.8,10.81,1.65a61.7,61.7,0,0,0,6.89,1.22A.34.34,0,0,1,108.66,112.38Z"/><path class="cls-2" d="M108.42,106.7c-.68-.16-1.36-.29-2-.48A51.21,51.21,0,0,0,98,104.64q-.75,0-1.5,0a48.47,48.47,0,0,1-5.77-.5,21.25,21.25,0,0,1-4.53-.89,23.24,23.24,0,0,1-3.41-1.54c-.17-.09-.45-.17-.33-.44s.38-.2.61-.12a36.46,36.46,0,0,0,4.46,1.49,27.46,27.46,0,0,0,3.84.51c5.21.35,10.43.72,15.38,2.61A2.92,2.92,0,0,1,108.42,106.7Z"/><path class="cls-8" d="M46.09,120l.26-.27c.15,0,.34-.08.28.22-.13.75.38,1,1,1.14a11.71,11.71,0,0,0,3.86-.33c3.16-.49,6.22-1.48,9.34-2.18,2.77-.62,5.58-1.07,8.34-1.73,1.14-.28,2.29-.51,3.41-.85a11.36,11.36,0,0,0,2.83-1.36c.09-.15.22-.19.46-.19a2,2,0,0,1-1.21,1.14,48.79,48.79,0,0,1-11.11,3.29c-3.13.63-6.28,1.18-9.37,2-.55.13-1.11.23-1.66.34a17.78,17.78,0,0,0-3,.5,5.19,5.19,0,0,1-2.15,0,1.4,1.4,0,0,1-1.28-1.52A1,1,0,0,1,46.09,120Z"/><path class="cls-2" d="M89.59,118.14c.22-.15.4-.06.6,0,4.18.68,8.29,1.71,12.49,2.27,1.82.25,3.62.61,5.46.91a10.75,10.75,0,0,1,1.7.16c.26.08.62,0,.62.39s-.35.42-.61.42a14.88,14.88,0,0,1-2.67,0,109.87,109.87,0,0,1-12.41-2.73c-1.37-.37-2.79-.61-4.18-.93A1.54,1.54,0,0,1,89.59,118.14Z"/><path class="cls-2" d="M86.09,100.4a19.18,19.18,0,0,1-3.94-1.09c-1.71-.69-3.41-1.37-5.11-2.1a11.72,11.72,0,0,1-1.32-.68.26.26,0,0,1-.15-.35h0c.08-.19.22-.07.35,0a22.06,22.06,0,0,1,3.14,1.1,30.65,30.65,0,0,0,6.62,2.07,4.11,4.11,0,0,1,.68.21c.29.11.73.14.68.54S86.46,100.32,86.09,100.4Z"/><path class="cls-17" d="M41.21,91.29c-.61.06-1.23.17-1.85.18a27.68,27.68,0,0,1-6-.35c-.92-.19-1.89-.2-2.81-.47a7.22,7.22,0,0,1-1-.43c-.1,0-.21-.13-.16-.26s.18-.13.29-.11c.44.07.88.21,1.33.25a55.61,55.61,0,0,0,8.06.57A4.08,4.08,0,0,1,41.21,91.29Z"/><path class="cls-2" d="M62.35,91.48a3.78,3.78,0,0,1-1.71-.41,16.59,16.59,0,0,0-4.43-1.24,4.84,4.84,0,0,1-1.09-.37c-.16-.06-.35-.21-.31-.4s.28-.18.46-.19a3.76,3.76,0,0,1,1.52.27c1.68.59,3.48.62,5.17,1.11a6.82,6.82,0,0,1,.9.31c.27.1.51.3.44.6s-.36.31-.61.32Z"/><path class="cls-18" d="M27.55,89.85c0,.13-.14.14-.27.11A2.52,2.52,0,0,1,26,89.35c-.17-.16-.24-.36.07-.46S27.49,89.46,27.55,89.85Z"/><path class="cls-19" d="M24.2,97.94c.24.19.65.23.65.68,0,.17-.09.37-.26.32a.92.92,0,0,1-.68-.68C23.87,98.11,24,98,24.2,97.94Z"/><path class="cls-20" d="M25.92,101.69a.68.68,0,0,1,.55.52c0,.17-.07.35-.25.32a.7.7,0,0,1-.53-.56A.23.23,0,0,1,25.92,101.69Z"/><path class="cls-21" d="M21.52,93.35a.21.21,0,0,1-.26.23.3.3,0,0,1-.26-.34c0-.16.08-.25.25-.23A.32.32,0,0,1,21.52,93.35Z"/><path class="cls-2" d="M170,76.91c.06.78.17,1.55.19,2.33,0,1.71.08,3.41,0,5.14-.37,7.55-1.83,14.84-5.57,21.5a27.92,27.92,0,0,1-12.55,12.05,25.74,25.74,0,0,1-8.23,2.32,35.77,35.77,0,0,1-3.87.27c-1.37,0-2.67-.2-4-.29-.61,0-.68-.52-.82-1a33,33,0,0,0,6.59.36,24.91,24.91,0,0,0,14.44-5.08,28.79,28.79,0,0,0,8-9.61,44.83,44.83,0,0,0,4.65-14.25,55.41,55.41,0,0,0,.68-5.88c.16-2.52.26-5,.27-7.56a1.1,1.1,0,0,1,.06-.26Z"/><path class="cls-2" d="M137.51,124.56a28.26,28.26,0,0,0,13.45-2,31,31,0,0,0,7.74-4.7A33.78,33.78,0,0,0,168,105.52a37.23,37.23,0,0,0,2.94-10c.16-1.15.3-2.3.4-3.42,0-.19,0-.47.25-.47s.15.3.15.46a34.27,34.27,0,0,1-.68,6.62,35.25,35.25,0,0,1-3.27,9.3,36.31,36.31,0,0,1-5.06,7.34A31.2,31.2,0,0,1,151,123.58a27.53,27.53,0,0,1-7.84,1.92c-1.49.14-3,0-4.44.13C137.86,125.64,137.55,125.29,137.51,124.56Z"/><path class="cls-2" d="M165.66,71.19c.36,1.32.61,2.53.82,3.74a42.78,42.78,0,0,1,.69,10,38.81,38.81,0,0,1-4.44,16.71,28.47,28.47,0,0,1-5.88,7.65,26.48,26.48,0,0,1-13.25,6.62,37.64,37.64,0,0,1-7.27.37,17.21,17.21,0,0,1-2.16-.26c-.27,0-.53-.16-.48-.46s.28-.36.59-.31a24.13,24.13,0,0,0,5.57.35,25.86,25.86,0,0,0,14.68-5.34,30.36,30.36,0,0,0,9.76-13.56,40.78,40.78,0,0,0,2.45-16.38,47.34,47.34,0,0,0-1.18-8.46A.7.7,0,0,1,165.66,71.19Z"/><path class="cls-5" d="M136.54,122.38a41.23,41.23,0,0,0,5.33-.19c1.89-.11,3.74-.41,5.61-.68a17.26,17.26,0,0,0,5.57-1.94,30.9,30.9,0,0,0,10.49-8.75c.14-.2.32-.37.59-.68a3.63,3.63,0,0,1-.82,1.61,20.75,20.75,0,0,1-5.4,5.61,30.28,30.28,0,0,1-4.26,2.83,27.89,27.89,0,0,1-8.08,2.8,44.91,44.91,0,0,1-7.69.4C137.21,123.38,136.67,123.19,136.54,122.38Z"/><path class="cls-2" d="M163,104.08a16.83,16.83,0,0,1-2,3.09,31,31,0,0,1-3.41,3.83c-2.5,2.32-5.14,4.43-8.47,5.46-1.84.56-3.59,1.42-5.49,1.81-.6.12-1.21.17-1.82.24a46.81,46.81,0,0,1-6.15-.18c-.48,0-1.13.1-1.31-.68-.07-.31,0-.46.29-.38a17.59,17.59,0,0,0,4.4.34,27.39,27.39,0,0,0,10.24-1.89,27.92,27.92,0,0,0,7.68-5.09,34,34,0,0,0,5.68-6.42Z"/><path class="cls-2" d="M163.27,67.16h-.18a3.91,3.91,0,0,1-.62-3.51,2.87,2.87,0,0,1,2.63-1.75,16,16,0,0,1,3.37.38,9.58,9.58,0,0,0,7.41-1.49,4.64,4.64,0,0,1,1.46-.68,1.47,1.47,0,0,1,1.71.64c.1.17.24.35,0,.55s-.33.13-.49,0a1.75,1.75,0,0,0-1.92.24,12.33,12.33,0,0,1-7.44,2,3.08,3.08,0,0,1-1.2-.22,8.79,8.79,0,0,0-3.19-.59,1.8,1.8,0,0,0-1.92,1.66v.1a4.79,4.79,0,0,0,.07,1.36C163.11,66.29,163.17,66.71,163.27,67.16Z"/><path class="cls-17" d="M153.24,108.73a2.47,2.47,0,0,1-1.2,1.4,22.94,22.94,0,0,1-5.62,2.25q-3.15,1-6.38,1.63a30.36,30.36,0,0,1-7,.48c-.4,0-.56-.22-.62-.58a46.56,46.56,0,0,0,7.83-.63,35.42,35.42,0,0,0,8.25-2A13,13,0,0,0,153.24,108.73Z"/><path class="cls-17" d="M169.92,66.18c-.94.46-1.85.88-2.73,1.36a5.53,5.53,0,0,0-1,.64.93.93,0,0,0-.31,1.1c.05.15.08.39-.13.48s-.32-.14-.42-.27a1.53,1.53,0,0,1,.06-1.78,3.06,3.06,0,0,1,1.73-1c.78-.16,1.54-.39,2.31-.6A.35.35,0,0,1,169.92,66.18Z"/><path class="cls-20" d="M166.89,104.29a2.21,2.21,0,0,1-.49,1.42.35.35,0,0,1-.46.17h0c-.15-.1-.11-.27,0-.44.19-.41.37-.82.56-1.24.06-.14.13-.35.3-.32S166.89,104.16,166.89,104.29Z"/><path class="cls-4" d="M161.82,119.4a28.16,28.16,0,0,1-3.63,3.53c-.05,0-.13,0-.2,0C159.31,121.83,160.42,120.46,161.82,119.4Z"/><path class="cls-22" d="M176.83,64.16c-.07.26-.17.46-.44.47s-.51,0-.55-.29.3-.36.51-.43A.41.41,0,0,1,176.83,64.16Z"/><path class="cls-23" d="M172.57,65.41a12.15,12.15,0,0,1-1.87.46A1.9,1.9,0,0,1,172.57,65.41Z"/><path class="cls-4" d="M144.57,128.58a9,9,0,0,1-2.89.69A13.09,13.09,0,0,1,144.57,128.58Z"/><path class="cls-4" d="M169.77,108.32a5,5,0,0,1-1.09,2.19A11.18,11.18,0,0,1,169.77,108.32Z"/><path class="cls-4" d="M146.9,128a6.3,6.3,0,0,1-2.34.54A7.89,7.89,0,0,1,146.9,128Z"/><path class="cls-4" d="M149,127.36a4.5,4.5,0,0,1-2,.68A7.84,7.84,0,0,1,149,127.36Z"/><path class="cls-4" d="M152.79,126a4.82,4.82,0,0,1-1.93.69A5.94,5.94,0,0,1,152.79,126Z"/><path class="cls-4" d="M154.84,125a2.1,2.1,0,0,1-1.36.68A4.14,4.14,0,0,1,154.84,125Z"/><path class="cls-4" d="M150.46,126.81a3,3,0,0,1-1.51.55A3.29,3.29,0,0,1,150.46,126.81Z"/><path class="cls-4" d="M170.31,107a2.29,2.29,0,0,1-.56,1.36A3.25,3.25,0,0,1,170.31,107Z"/><path class="cls-4" d="M167.85,111.88a1.88,1.88,0,0,1-.68,1.1A2.19,2.19,0,0,1,167.85,111.88Z"/><path class="cls-4" d="M168.68,110.51a.79.79,0,0,1-.42.68A.93.93,0,0,1,168.68,110.51Z"/><path class="cls-4" d="M155.8,124.49a.82.82,0,0,1-.68.4A.9.9,0,0,1,155.8,124.49Z"/><path class="cls-4" d="M168.26,111.19a.82.82,0,0,1-.42.69A.94.94,0,0,1,168.26,111.19Z"/><path class="cls-4" d="M167.17,113a.78.78,0,0,1-.43.68A1,1,0,0,1,167.17,113Z"/><path class="cls-4" d="M165.93,114.88a.6.6,0,0,1-.41.56A.79.79,0,0,1,165.93,114.88Z"/><path class="cls-4" d="M153.48,125.71a.76.76,0,0,1-.69.27A.93.93,0,0,1,153.48,125.71Z"/><path class="cls-4" d="M158,123a.6.6,0,0,1-.55.41A.67.67,0,0,1,158,123Z"/><path class="cls-4" d="M157.45,123.38a.6.6,0,0,1-.57.41A.76.76,0,0,1,157.45,123.38Z"/><path class="cls-3" d="M94.71,128.84a3,3,0,0,0-1.11,1l-.13.12a6.66,6.66,0,0,1-.83.68l-.12.13a7.34,7.34,0,0,1-.69.56h0c-.25.16-.43.4-.68.55h0c-.25.16-.43.4-.68.55h0c-.31.24-.68.45-1,.68l-.81.55c-.21.17-.48.25-.68.41h0a19.63,19.63,0,0,1-2.2,1.1h0l-1,.42h0a12.53,12.53,0,0,1-4.18,1,4.35,4.35,0,0,1-1.7-.35h0A4.16,4.16,0,0,1,76.61,132a11.82,11.82,0,0,1,1.45-4.23,10.23,10.23,0,0,1,.68-1.2l2.47-3.72a.86.86,0,0,0,.43.15c4-.26,7.85.85,11.61,2.11a26.52,26.52,0,0,1,3.7,1.45l-2,2.19Z"/><path class="cls-4" d="M78.7,126.54a40.49,40.49,0,0,0-1.7,3.87,5.37,5.37,0,0,0,.21,4.16A6,6,0,0,0,79,136.26a2.89,2.89,0,0,1-1.83-1.46,4.62,4.62,0,0,1-.53-3.48,17.34,17.34,0,0,1,1.88-4.59C78.52,126.61,78.63,126.61,78.7,126.54Z"/><path class="cls-4" d="M79,136.26a7.35,7.35,0,0,0,4.91-.41,2.77,2.77,0,0,1,1-.28,8.55,8.55,0,0,1-5.1,1.05A1.06,1.06,0,0,1,79,136.26Z"/><path class="cls-4" d="M85.8,135.16a11.9,11.9,0,0,1,2.2-1.1A5,5,0,0,1,85.8,135.16Z"/><path class="cls-4" d="M89.49,133.1a1.92,1.92,0,0,1,1-.68A1.46,1.46,0,0,1,89.49,133.1Z"/><path class="cls-4" d="M84.84,135.57a1.6,1.6,0,0,1,1-.41A1.35,1.35,0,0,1,84.84,135.57Z"/><path class="cls-4" d="M91.14,131.87a1,1,0,0,1,.68-.54C91.67,131.59,91.5,131.85,91.14,131.87Z"/><path class="cls-4" d="M90.45,132.42a1.09,1.09,0,0,1,.69-.55C91,132.13,90.82,132.4,90.45,132.42Z"/><path class="cls-4" d="M91.82,131.33a1.16,1.16,0,0,1,.68-.57A.88.88,0,0,1,91.82,131.33Z"/><path class="cls-4" d="M88,134.06a.89.89,0,0,1,.68-.4A.82.82,0,0,1,88,134.06Z"/><path class="cls-5" d="M47.8,122.57s1.36,1.37,15.35.4l18-1.26.41-1-30.79,1.64Z"/><path class="cls-3" d="M134.13,129.41l.42,1v.27s3.8-.31,6.06-.75a48.7,48.7,0,0,0,11.44-3.08c3.64-1.63,6.75-3.64,12.66-10a34.78,34.78,0,0,0,5.06-7.91c1.23-3.68,2.17-5,2.84-10.53A55.63,55.63,0,0,0,173,85.12c-.64-3.69-1.71-8.49-1.71-8.49L169.9,73h-.28A43.86,43.86,0,0,1,171,77.93c.12,1.12,1.53,4.93,1.74,8.7s-.53,14.14-5.58,25a78.24,78.24,0,0,1-8.45,9.2S154.34,128.28,134.13,129.41Z"/><path class="cls-8" d="M83.06,121.43a3.21,3.21,0,0,1,.62,0A22,22,0,0,1,90.51,123a23.83,23.83,0,0,1,6.34,2.81,1.21,1.21,0,0,1,.48.59h0c-.15.11-.28.25-.49.22-2.14-.85-4.32-1.58-6.52-2.25a26.82,26.82,0,0,0-6.83-1.2,6.91,6.91,0,0,0-1.7,0c-.25,0-.72-1.18-.88-1.41S82.37,121.48,83.06,121.43Z"/></svg>