<svg id="Layer_1" data-name="Layer 1" xmlns="http://www.w3.org/2000/svg" viewBox="0 0 200 200"><defs><style>.cls-1{fill:#9b73b2;}.cls-2{fill:#f2d1d0;}.cls-3{fill:#f89e1b;}.cls-4{fill:#b391c3;}.cls-5{fill:#4f4071;}.cls-6{fill:#a787be;}.cls-7{fill:#73658e;}.cls-8{fill:#fefcfa;}.cls-9{fill:#d0bcda;}.cls-10{fill:#82729b;}.cls-11{fill:#323140;}.cls-12{fill:#504072;}.cls-13{fill:#534275;}.cls-14{fill:#b493c4;}.cls-15{fill:#8059a2;}.cls-16{fill:#75529c;}.cls-17{fill:#614986;}.cls-18{fill:#e7e1eb;}.cls-19{fill:#875fa7;}.cls-20{fill:#a986bd;}.cls-21{fill:#5f4c7d;}.cls-22{fill:#674f89;}.cls-23{fill:#eac7d0;}.cls-24{fill:#6c4e91;}.cls-25{fill:#6b4e91;}.cls-26{fill:#8b61a9;}.cls-27{fill:#6c4f93;}.cls-28{fill:#705096;}.cls-29{fill:#6e4f95;}.cls-30{fill:#7e58a0;}.cls-31{fill:#805aa2;}.cls-32{fill:#624a87;}.cls-33{fill:#bb8fc0;}.cls-34{fill:#494259;}.cls-35{fill:#f89f1b;}.cls-36{fill:#333241;}.cls-37{fill:#343241;}.cls-38{fill:#383644;}.cls-39{fill:#383645;}.cls-40{fill:#3d3a48;}.cls-41{fill:#f6bd7d;}.cls-42{fill:#f8f3f6;}.cls-43{fill:#f6be84;}.cls-44{fill:#624987;}.cls-45{fill:#b090c2;}.cls-46{fill:#a686bd;}.cls-47{fill:#b392c3;}.cls-48{fill:#b492c3;}.cls-49{fill:#b593c4;}.cls-50{fill:#b694c4;}.cls-51{fill:#d3a7cd;}.cls-52{fill:#b592c1;}.cls-53{fill:#f4c8aa;}.cls-54{fill:#9b74b2;}.cls-55{fill:#333140;}.cls-56{fill:#b492c4;}.cls-57{fill:#353342;}.cls-58{fill:#373544;}.cls-59{fill:#363443;}.cls-60{fill:#b679aa;}.cls-61{fill:#ceadcd;}.cls-62{fill:#d6babb;}</style></defs><path class="cls-1" d="M8.79,128.07c.24-1.5.27-3,.6-4.52a37.55,37.55,0,0,1,7.89-16,46.78,46.78,0,0,0,6.78-10.9c.07-.16.11-.33.17-.5h0A13,13,0,0,1,24.75,95h0a3.91,3.91,0,0,1,.27-.67h0a3.27,3.27,0,0,1,.28-.67h0a3.91,3.91,0,0,1,.27-.67h0c.17-.34.21-.74.41-1.07h0c.15-.35.23-.73.4-1.08,0-.14,0-.29.12-.4a10,10,0,0,0,.42-1.2,2,2,0,0,1,.25-.81c.12-.29.15-.61.27-.91a6.84,6.84,0,0,1,.39-1.62c.17-.19,0-.46.15-.64h0c.15-.2,0-.47.14-.67h0c.16-.24-.05-.56.13-.8h0c.17-.3-.06-.65.14-.94h0c.17-.3,0-.65.14-.95a.09.09,0,0,0,0-.1c.16-.35-.06-.75.13-1.1a.08.08,0,0,0,0-.09c.17-.44-.06-.92.14-1.36h0c.18-.39-.06-.83.14-1.21a.09.09,0,0,0,0-.1c.15-.26,0-.57.12-.83A.11.11,0,0,0,29,77c.15-.26,0-.57.13-.82a.11.11,0,0,0,0-.11c.14-.21,0-.48.13-.69a.12.12,0,0,0,0-.1c.14-.22,0-.49.12-.7a.09.09,0,0,0,0-.1c.14-.22,0-.48.12-.7v-.23c.14-.21,0-.49.13-.7a.09.09,0,0,0,0-.1c.16-.26,0-.58.14-.83a.09.09,0,0,0,0-.1c.15-.26-.05-.57.13-.83a.09.09,0,0,0,0-.1c.15-.26-.05-.58.13-.83a.09.09,0,0,0,0-.1c.14-.22,0-.48.12-.7l0-.23c.14-.21,0-.49.13-.7a.09.09,0,0,0,0-.1c.14-.21,0-.49.13-.7a21.45,21.45,0,0,1,1.28-4.87,7.6,7.6,0,0,1,.31-.71c.13-.21.15-.46.27-.67a4.26,4.26,0,0,1,.53-1.22c.14-.19.14-.44.27-.64a14,14,0,0,1,1.06-2.12c.16-.2.24-.45.38-.66a28.09,28.09,0,0,1,3.6-5.34c.25-.33.58-.58.81-.92L40,49.33a9.11,9.11,0,0,1,1-1,8.51,8.51,0,0,1,2.47-1.7c1.62-.81,3.06-1.93,4.72-2.65,1-.45,2.12-.78,3.19-1.13s2.17-.5,3.21-.9c.2-.16.47,0,.68-.13h0c.21-.17.48,0,.69-.13a.11.11,0,0,0,.1,0c.26-.16.57,0,.82-.13a.13.13,0,0,0,.12,0c.3-.16.65,0,1-.12h.24c.49-.16,1,0,1.5-.12H60c1.22-.14,2.43-.3,3.65-.37,1.06-.06,2.09.08,3.13.12h0c.3.17.65-.05.94.14h0c.2.14.48,0,.67.13h0c.19.17.49-.08.66.17a24.46,24.46,0,0,1,4.19,1.29,1.38,1.38,0,0,1,.3.14A16.55,16.55,0,0,0,78.28,45a21.22,21.22,0,0,1,3.81,2.13l1.11.68a1.48,1.48,0,0,1,.56.43l.26.23a3,3,0,0,1,.94.94l.36.39a2.09,2.09,0,0,1,.44.54l1.42,2.25a4.58,4.58,0,0,1,.7,1.33h0a3.7,3.7,0,0,1,.26.7,9.65,9.65,0,0,0,.64,2,14.7,14.7,0,0,1,.83,2.39h0a12.47,12.47,0,0,1,.4,1.6h0a11.11,11.11,0,0,1,.4,2.43.07.07,0,0,0,0,.09,17.13,17.13,0,0,1,.2,1.88c0,2,0,3.92,0,5.88a1.21,1.21,0,0,0,.06.65.09.09,0,0,0,0,.1,25.13,25.13,0,0,1,.06,3.36,9.8,9.8,0,0,1-.07,2.23.09.09,0,0,0,0,.1c-.16.35.06.75-.13,1.09h0c-.16.25,0,.56-.13.8-.22,1.14-.45,2.28-.66,3.42-.26,1.38-.5,2.77-.75,4.15,0,.22,0,.44,0,.66s0,.47-.12.68l0,.51c-.16.48,0,1-.12,1.49v.63c-.17.85.06,1.71-.12,2.56v.89A11.48,11.48,0,0,0,88.49,96c0,.24.06.49-.07.72v.5a15.08,15.08,0,0,0,0,2.85l0,.5c.17.44-.05.92.12,1.36a.09.09,0,0,0,0,.1c.18.35,0,.74.13,1.09a.14.14,0,0,0,0,.11c.17.3,0,.65.12,1a.14.14,0,0,0,0,.11c.16.26,0,.57.13.82a.11.11,0,0,0,0,.11c.15.21,0,.47.12.68h0c.17.2,0,.47.14.67a5.86,5.86,0,0,0,.34,1.6c.79,2.16,1.61,4.3,2.57,6.39h0c1,2.06,1.79,4.25,2.79,6.35a4.66,4.66,0,0,0,.14-1.38c0-2.79.16-5.57.29-8.35a59.58,59.58,0,0,1,.86-7.63c.16-.91.34-1.82.52-2.73a13.27,13.27,0,0,1,4.46-7.12,5.44,5.44,0,0,1,1-.82c3.32-1.68,6.3-3.89,9.43-5.86a19.21,19.21,0,0,1,6.73-2.5c.39-.07.77-.19,1.16-.28s.69,0,.79.48a5.9,5.9,0,0,1,0,1.19,3,3,0,0,1-.15.94c-.33,1.38-.27,2.81-.56,4.2-.83,4-1.6,8-2.11,12-.32,2.55-.54,5.1-.77,7.65-.18,2.12-.06,4.24-.24,6.36a2.94,2.94,0,0,0-.07,1.18,3.17,3.17,0,0,1-.1,1.7,1.75,1.75,0,0,1-.84.49c-1.31.54-1.6,1-1.46,2.39a.74.74,0,0,1,0,.26.31.31,0,0,1-.09.18,1.52,1.52,0,0,1-.76.38,3.55,3.55,0,0,0-1.58,1.06,1.32,1.32,0,0,0-.36,1.34c.11.34,0,.51-.3.7a1.61,1.61,0,0,0-.72,2.42c.15.37.15.56-.25.78a2.1,2.1,0,0,0-.08,3.67s.06.06.09.1a12.08,12.08,0,0,1-1,2.38c-1.11,2.63-2.19,5.28-3.14,8a6,6,0,0,0-.22.83c-.14.63-.08.72.55.86a33.62,33.62,0,0,0,4.36.49,40.77,40.77,0,0,1,4.41.51c.28.06.59.07.71.41.13,2,.31,3.92.45,5.88a27.9,27.9,0,0,1,.24,3,1.58,1.58,0,0,1-.4.82q-2.27,3-4.68,5.78a37.31,37.31,0,0,0-2.43,3.16c-.45.67-1,.7-1.6.18,0-.13.47,0,.13-.29a2.1,2.1,0,0,1-.38-.61,11.67,11.67,0,0,0-.9-1.67,60.43,60.43,0,0,1-5.19-11.75,2.26,2.26,0,0,1-.1-.45c.08-.61-.34-1.16-.22-1.78.14-.21.35-.22.59-.21,1.22.06,1.81-.6,1.63-1.83-.12-.78-.32-1.56-.41-2.35-.08-.63-.15-1.27-.27-1.9a26.34,26.34,0,0,0-4.16-10c-.44-.64-.4-.78.25-1.19a22.67,22.67,0,0,1,9.38-3.48,3.06,3.06,0,0,0,1.08-.31c.44-.23.65-.54.36-1a.61.61,0,0,0-.63-.28,2.79,2.79,0,0,1-1-.17,1.27,1.27,0,0,0-.51-.08c-.93,0-1.85-.22-2.78-.26a21.73,21.73,0,0,0-6.38.73c-2.22.56-4.49.82-6.72,1.26-3.13.61-6.3,1-9.45,1.45A29,29,0,0,0,75,131.52c-.74.3-1.6.13-2.3.6-.71-.1-.74-.11-.55-.75a1,1,0,0,0-.1-.69,12.72,12.72,0,0,1-1.17-4.74,22.25,22.25,0,0,1,.64-5.32c.55-2.14,1.31-4.22,1.81-6.38a7.44,7.44,0,0,0-.39-4.92,2.41,2.41,0,0,1-.27-1.15,1.91,1.91,0,0,0-.3-1c-.5-.87-.32-1.17.7-1.21a1.33,1.33,0,0,1,.3.06,3.68,3.68,0,0,1,.86.81c.19.18.35.21.4-.12a1.79,1.79,0,0,1,.25-.81,1.64,1.64,0,0,1,1.31-.28,3,3,0,0,1,1.44,2,11.38,11.38,0,0,1,.18,2.1,19.9,19.9,0,0,1,0,3.62,14.89,14.89,0,0,0-.06,1.64,6.28,6.28,0,0,0-.2,1.55A51.91,51.91,0,0,1,76,122.13a11.05,11.05,0,0,0,.1,5.65,1.31,1.31,0,0,0,.57.82,17.71,17.71,0,0,1-.37-4,16.57,16.57,0,0,1,.5-4.27,24.47,24.47,0,0,0,.69-3.51c.15-.56.09-1.14.19-1.7s0-1.1.11-1.64a33,33,0,0,0-.07-6,4.19,4.19,0,0,0-.11-.51,1.86,1.86,0,0,1,.2-1.86,10.21,10.21,0,0,0,1.84-2c.27-.53.62-1,.9-1.54.11-.2.17-.47.47-.51.65.26.47.79.35,1.24-.28,1-.52,2.1-.85,3.14a15,15,0,0,0-.91,6,3,3,0,0,1-.06.52,11.38,11.38,0,0,0-.22,1.3c.14,0,0,0,0-.06a6.82,6.82,0,0,0,.08-.79c.78-2.86,1.27-5.8,2.19-8.62A92.62,92.62,0,0,0,84.31,93a10.37,10.37,0,0,0,.23-1.58,54,54,0,0,0,.89-10.23c-.08-2.06-.24-4.11-.46-6.15-.14-1.35,0-2.71-.21-4a4.74,4.74,0,0,0-.3-1.67,20.56,20.56,0,0,1-1.13-2.25,26.4,26.4,0,0,0-3.27-4.25,16.79,16.79,0,0,0-3.49-3.13c-.73-.47-.74-.46-1.08.3a21.16,21.16,0,0,1-4.31,6.4,79.5,79.5,0,0,1-6,5.36,1,1,0,0,0-.32.33,5,5,0,0,0-.85,1,1,1,0,0,0-.79.25,33.47,33.47,0,0,1-6.1,3.06,1.41,1.41,0,0,0-1,1.1c-.26,1.17-.6,2.31-1,3.45a3.36,3.36,0,0,1-.28.68c-.17.29-.38.58-.77.53a.84.84,0,0,1-.7-.79,24.59,24.59,0,0,0-1.28-4.18,2.27,2.27,0,0,0-1.87-1.52,1.8,1.8,0,0,0-1.79.93,4.74,4.74,0,0,0-1,3.36c.13,1.35.24,2.7.45,4a11.55,11.55,0,0,0,2.36,5.35,7.22,7.22,0,0,0,1.75,1.51,1.51,1.51,0,0,1,.73,1.06,2.44,2.44,0,0,0,.23.69,14.6,14.6,0,0,1,.62,10.94c-.92,3.07-1.91,6.13-2.65,9.26a16.26,16.26,0,0,0-.67,4.38c-.38,3.34-.39,6.64,1.18,9.74a10.87,10.87,0,0,0,1.07,1.68,4.69,4.69,0,0,0,5.81,1.18c.3-.17.67-.5,1-.22s0,.69-.19,1a2.68,2.68,0,0,1-2.51,1.56,15.39,15.39,0,0,1-1.92,0c-4-.49-6-3.18-7.2-6.67a22.37,22.37,0,0,1-.88-8.73,23,23,0,0,1-1.17,3.24,11.38,11.38,0,0,0-1.2,4.73,9.67,9.67,0,0,0,1.34,4.46,14.28,14.28,0,0,0,1.75,2.58A7.3,7.3,0,0,0,50,133.38c.82.36.93.61.54,1.43a8.12,8.12,0,0,1-5.58,3.9,1.54,1.54,0,0,0-1,.58A4.61,4.61,0,0,1,40.87,141a9.56,9.56,0,0,0-2.08.62,9.66,9.66,0,0,1-6.38.42,19.4,19.4,0,0,1-6.07-2.62,12.37,12.37,0,0,1-4-4.86,5.28,5.28,0,0,1-.35-1.42c0-.29,0-.61.31-.71s.45.2.56.44.09.16.13.24c.06.26.26.46.31.64-.1-.22-.25-.51-.39-.8a15.87,15.87,0,0,1-1.24-5.67c0-.59,0-1.18,0-1.78a8.43,8.43,0,0,0-.61,3.35,16.62,16.62,0,0,0,2,7.65A10.87,10.87,0,0,0,27.71,141a9.44,9.44,0,0,0,5.15,1.27h.07c.4,0,.92-.12,1.07.43s-.24.88-.63,1.14a5.48,5.48,0,0,1-4.3,1,32.86,32.86,0,0,1-7-2c-.78-.37-1.66-.48-2.43-.87a19.21,19.21,0,0,1-9.6-10,4.21,4.21,0,0,1-.2-.63c0-.09,0-.27-.13-.26-.63.08-.56-.45-.66-.79A7.84,7.84,0,0,1,8.79,128.07Z"/><path class="cls-2" d="M120.21,85.91c0-.42,0-.83,0-1.24s-.23-.55-.61-.47a5.84,5.84,0,0,0,2.77-2.56c.23-.35.31-.1.44,0l2,1.73a3.67,3.67,0,0,0,1.8.93,16.77,16.77,0,0,0,2.21.39,5.25,5.25,0,0,0,4.66-1.86c1.18-1.46,2.38-2.9,3.43-4.45a23.41,23.41,0,0,0,2.2-3.88c-.74.59-1.49,1.17-2.22,1.77a39.6,39.6,0,0,1-6,4.13c-2.55,1.42-5.06,1-7.53-.25-.33-.17-.78-.21-1-.61a.87.87,0,0,0-.67-.26c-.89-1.43-2.1-2.64-2.92-4.12-.17-.13-.28-.31-.5-.36a4.62,4.62,0,0,1-.75-1,.34.34,0,0,0-.25-.36,1.55,1.55,0,0,1-.37-.63A3.79,3.79,0,0,0,116,71.4,10.36,10.36,0,0,1,113.72,68c-.75-1.57-1.6-3.1-2.29-4.71a2.18,2.18,0,0,1-.22-.62,4.57,4.57,0,0,0-.46-1.65,65.58,65.58,0,0,1-2.06-6.84c.07-.52.49-.72.87-.93a14.57,14.57,0,0,1,4.93-1.73c.11,0,.22,0,.33,0s.32-.08.33-.27-.16-.31-.34-.34a2.9,2.9,0,0,0-.93,0,3.08,3.08,0,0,1-.53.08c-.17,0-.38,0-.45-.2s.1-.28.21-.38c.39-.36.83-.66,1.21-1a50.58,50.58,0,0,0,9.45-12.82,2.8,2.8,0,0,1,.83-1.18.25.25,0,0,1,.22.18,1.16,1.16,0,0,1-.12.71,23.54,23.54,0,0,1-3.91,7c-.6.82-1.2,1.62-1.82,2.42a18.25,18.25,0,0,0,6.72-9.24c.63-2,1.36-4,2-6a1.52,1.52,0,0,1,2.28-.73c.94.6,1.68,1.43,2.6,2.07,2.35,1.62,4.52,3.49,6.73,5.29a2,2,0,0,1,.65,1.34c.15,1.1.19,2.2.24,3.31s.17,2.25.17,3.38a4.92,4.92,0,0,0,.32,1.69,2.87,2.87,0,0,0,2.2,2.08,3,3,0,0,0,2.7-1.14,7.62,7.62,0,0,1,1.92-1.52,2.54,2.54,0,0,1,3.78,1.43,6.66,6.66,0,0,1,.15,4.38,31.88,31.88,0,0,0-.83,4.63,7.34,7.34,0,0,1-.5,1.85,3.64,3.64,0,0,1-2.73,2.29c-.42.09-.78.17-.8.71a.4.4,0,0,1-.38.39,4,4,0,0,0-2.85,2.57,5.73,5.73,0,0,0,.69,6.23,5.4,5.4,0,0,0,3.74,2.55.86.86,0,0,1,.61.38c.22,1.6.74,3.14.91,4.75,0,.35.07.71.45.9a.65.65,0,0,1,.29.43A37,37,0,0,1,150.9,84a1.19,1.19,0,0,1-.25.47,27.43,27.43,0,0,1-5.56,5.93c-1.87,1.33-3.58,2.88-5.34,4.36a22.13,22.13,0,0,1-5.4,3.6,2,2,0,0,0-.4.23c-1.34,1.1-2.84.93-4.36.53a3.75,3.75,0,0,1-1.83-1.48,59,59,0,0,1-5.4-8.06c-.49-.86-1-1.73-1.39-2.64A2.37,2.37,0,0,0,120.21,85.91Z"/><path class="cls-3" d="M117.54,73.7l.79,1.07c.3.14.16.45.27.67l0,.38a1.76,1.76,0,0,1,0,.79c0,.34-.09.68-.17,1s-.25.45-.54.19c-.12-.32,0-.66-.1-1l0-.62c-.05-.08-.07-.21-.22-.13a2,2,0,0,1-.2.48c-.16.22-.33.7-.56,0,0-.16-.54-.15-.45-.56s-.16-.39-.28-.57c-.29-.51-.7-.14-1.06-.14a4.12,4.12,0,0,1-2.63-.35c-.47-.23-.63-.51-.42-1a.91.91,0,0,1,.14-.6,12.35,12.35,0,0,0,0-4.33h0c-.19-.17,0-.44-.15-.62-.91-2.84-2.37-5.43-3.51-8.17a1.69,1.69,0,0,1-.08-.24c-.18-.28,0-.62-.14-.89a1.65,1.65,0,0,1-.26-.71c-.11-.21-.14-.45-.27-.66s-.1-.27-.14-.4c-.16-.38-.25-.78-.39-1.17-.15-.11-.1-.28-.13-.43-.12-.46-.42-.4-.76-.25a9.11,9.11,0,0,1-1.93.64,2.67,2.67,0,0,1-1.16,0,.62.62,0,0,1-.58-.27.55.55,0,0,1-.09-.67h0c.68-.55.07-1-.12-1.48h0a2.93,2.93,0,0,1-.41-.68h0a7.07,7.07,0,0,1-.67-1.07h0a12.28,12.28,0,0,1-.83-1.33l-.12-.25a2.34,2.34,0,0,1-.39-.83v0a16.72,16.72,0,0,1-1.56-6.17c0-.47-.28-.93,0-1.41v-.35c.15-.36,0-.75.12-1.11v-.22c.14-.27,0-.58.13-.84,0,0,0-.06,0-.1.14-.21,0-.48.13-.7a.06.06,0,0,0,0-.09c.13-.22,0-.5.13-.71a10.35,10.35,0,0,1,.52-2.13c.12-.3.15-.62.27-.92a2.25,2.25,0,0,1,.26-.95,17,17,0,0,1,.69-2h0a8.16,8.16,0,0,1,.54-1.34h0a22.85,22.85,0,0,1,1.46-2.93h0a4.23,4.23,0,0,1,.41-.68h0a5.31,5.31,0,0,1,.52-.81l.27-.39a11.69,11.69,0,0,1,1.09-1.33h0a12.37,12.37,0,0,1,3.06-2.8h0a3.87,3.87,0,0,1,1-.67l.34-.3a27.21,27.21,0,0,1,2.57-1.83l.75-.56a6.62,6.62,0,0,1,1.09-.64h0a1.79,1.79,0,0,1,.69-.41l.36-.28c.3-.14.54-.39.86-.51l.34-.3a14.18,14.18,0,0,1,5.69-2.63A25.87,25.87,0,0,1,126.9,13c.2,0,.44-.12.6.12,1.19.6,2.32,0,3.47-.19a1.48,1.48,0,0,1,.93,0c2.51.47,4.3,2.19,6.28,3.58a31.77,31.77,0,0,1,6.8,6.65,4.16,4.16,0,0,0,.42.42,2.27,2.27,0,0,1,.59.68,1.38,1.38,0,0,0,.47.52,2.36,2.36,0,0,1,.59.67l.9,1.19a1.45,1.45,0,0,1,.42.56l1,1.69a1.91,1.91,0,0,1,.42.71,10.31,10.31,0,0,0,.91,1.82,3.52,3.52,0,0,1,.56,1,1.66,1.66,0,0,0,.37.75,1.71,1.71,0,0,1,.43.82l.75,2.24a3.05,3.05,0,0,1,.44,1.2h0c.2.19,0,.47.15.67h0c.14.39.17.81.27,1.21h0c.2.2,0,.49.15.7,0,0,0,.06,0,.09a8.64,8.64,0,0,1,.06,1.76c0,1.47-.07,2.94.06,4.4l0,.49c.16.36,0,.75.11,1.1l0,.23c.14.22,0,.48.12.7l0,.23c.24,4.53-.87,8.82-2.33,13.06a12.74,12.74,0,0,0-1,4.65c0,.44-.09.88.59,1a4,4,0,0,1,1.2.81c.27.19.27.43,0,.56s-.79.52-1.3.35c-.14,0-.32-.15-.37.1a.34.34,0,0,0,.25.46c.37.09.73.18,1.09.3s.58.31.37.56a6.08,6.08,0,0,0-.65,1.3c0,.09-.16.14-.25.21a.59.59,0,0,1-.53.07c-.09-.06,0,.12,0,0s.08,0,.12,0a.25.25,0,0,1,.14.2c0,.24,0,.49,0,.73.06.86-.19,1.07-1,.86a2.91,2.91,0,0,1-1.23-.31c-.27-.39-.55-.78-1.1-.37a7.4,7.4,0,0,0-1.39-.41,3.64,3.64,0,0,1-2.59-1.9,3.27,3.27,0,0,0-.32-.5,5.77,5.77,0,0,1,.28-7.87c.57-.57,1.06-1.2,2-1.16.29,0,.24-.28.23-.46,0-.44.14-.59.61-.64a3.38,3.38,0,0,0,3-2.4,6.84,6.84,0,0,0,.45-2,34.84,34.84,0,0,1,.92-4.87,6.12,6.12,0,0,0-.28-3.73,2.36,2.36,0,0,0-3.51-1.31,7.61,7.61,0,0,0-1.95,1.58A3,3,0,0,1,142.46,49a3.12,3.12,0,0,1-1.93-2,12.32,12.32,0,0,1-.49-3.87c-.14-1.56-.22-3.13-.31-4.7a1.75,1.75,0,0,0-.71-1.34c-2.44-2-4.89-4-7.49-5.84-.59-.41-1-1-1.67-1.39a1.34,1.34,0,0,0-2.08.73,72.06,72.06,0,0,1-2.7,7.9,17.44,17.44,0,0,1-6,7.3c-.16.13-.31.34-.64.18,2.55-3.21,5.14-6.38,6.3-10.4a2.14,2.14,0,0,1,.15-.55.7.7,0,0,1-.3.41,59.06,59.06,0,0,1-7,10.81,24.37,24.37,0,0,1-4.26,4.23l-.42.34c.69.09,1.23-.18,1.8-.11.38,0,.75.08.75.54s-.36.42-.71.47a13.11,13.11,0,0,0-5.54,2,2.41,2.41,0,0,0-.4.44,1.11,1.11,0,0,0,0,1c.93,1.86,1.26,3.92,2,5.84l.12.24a7.38,7.38,0,0,1,.45,1.4c1,2.39,2.24,4.65,3.39,7a3.7,3.7,0,0,0,.67.9,8.2,8.2,0,0,1,2,2.94C117.51,73.49,117.53,73.59,117.54,73.7Z"/><path class="cls-1" d="M149.32,73.85c.39.17.89,0,1.22.4-.09.31.15.36.36.44,4.35,1.77,8.49,4,12.77,5.92,2,.89,3.91,1.77,5.86,2.68,1.08.51,2.14,1.06,3.19,1.63a63.56,63.56,0,0,0,6.84,3.21,12.71,12.71,0,0,1,7.82,8.28,70,70,0,0,1,3.44,15c.35,3.43.61,6.87.93,10.31.28,2.9.6,5.8.87,8.71.14,1.45.22,2.91.28,4.37.23,4.82.43,9.64.29,14.47a49.87,49.87,0,0,1-1.39,9.57c-.53,2.35-2.06,4.13-3.59,5.89-.45.52-.94,1-1.39,1.52A5.46,5.46,0,0,0,186,169c-.3-.06-.35-.33-.43-.54-.86-2.31-1.54-4.68-2.32-6.43.38,2.43,1.45,5.28,1.61,8.32-.09.08,0,.07,0,.05.27-.73.63-.22,1-.07a1.09,1.09,0,0,0-.41.73,12.33,12.33,0,0,1-7,8.73,12.37,12.37,0,0,1-3.09,1.36,34.82,34.82,0,0,0-6.14,2.83,30,30,0,0,1-9.86,2.73,44,44,0,0,1-10.07,0c-.64-.08-1.26-.25-1.88-.38s-1.55-.14-2.31-.34a1.77,1.77,0,0,1-.31-.08c-.2-.11-.53-.06-.57-.35s.22-.36.4-.48a2,2,0,0,0,.91-1.24c0-.14,0-.47.36-.25.15.23.06.53.24.79.33-.07.41-.36.53-.6a30.68,30.68,0,0,0,1.56-4.87,75.11,75.11,0,0,0,2-11q.45-3.33,1.23-6.6c.85-3.54,1.21-7.16,1.72-10.76.44-3.11.56-6.26.81-9.39.32-4,.45-8,.7-12.06.5-8.32.32-16.64.31-25a89.13,89.13,0,0,0-1.22-12.82,81.91,81.91,0,0,0-1.54-8.36,13.89,13.89,0,0,0-1.83-4.54,2,2,0,0,1-.28-.67c-.24-1-.53-2-.77-3C149.24,74.4,149.11,74.12,149.32,73.85Z"/><path class="cls-4" d="M145.71,183.51a2.43,2.43,0,0,1-1.6,2,3.66,3.66,0,0,0,1.76.52,4.07,4.07,0,0,1,1.46.28,10.45,10.45,0,0,1-3.19-.52.7.7,0,0,0-.38-.1c-1.49.33-2.89-.21-4.31-.45-2.18-.38-4.38-.52-6.55-.93a59.33,59.33,0,0,1-7.68-2,11.53,11.53,0,0,1-2.74-1.48,4.07,4.07,0,0,0-1-.55c-.77-.27-1-.65-.69-1.43.33-.94.69-1.87,1.06-2.79.86-2.18,1.65-4.38,2.34-6.62.62-2.43,1.34-4.83,2.18-7.19.33-.93.71-1.85,1-2.8s.56-1.88.92-2.79a3.76,3.76,0,0,0,.37-.93c.73-2.05,1.53-4.09,2.19-6.17a5.64,5.64,0,0,0,.23-.83,54.77,54.77,0,0,1,2.22-6.3,7.24,7.24,0,0,0,.4-2.4,17.27,17.27,0,0,0-.57-5.45,12.83,12.83,0,0,0-.8-2.17c-.14-.27-.34-.53-.24-.87a3.37,3.37,0,0,0,1.09-1.92,25,25,0,0,1,1.68-3.91,70.57,70.57,0,0,0,4.1-9.65,17.81,17.81,0,0,1,1.58-3.77,9.4,9.4,0,0,0,.77-2.46c.11-.32-.16-.34-.35-.44-1.78-1-3.78-1.06-5.7-1.45-2.76-.56-5.55-.93-8.33-1.32a13.08,13.08,0,0,1-3-.57,2.87,2.87,0,0,0-1.83.07.75.75,0,0,0-.62.55,13.49,13.49,0,0,1-1.18,2.73c-1.11,2.73-2.2,5.46-3.11,8.27a2,2,0,0,0,.14,1.9.22.22,0,0,1,0,.3c-.38.16-.76.35-1.17.08a4.32,4.32,0,0,0,.12-1.75c.8-3.69.89-7.46,1.35-11.19.6-4.82,1.22-9.62,2.12-14.39a21.65,21.65,0,0,0,.47-4.82,2.16,2.16,0,0,0-.2-1.09c.05-.27.1-.54.14-.81.38,0,.54.16.69.47a63,63,0,0,0,6.35,10.31,12.41,12.41,0,0,0,.78,1c1.62,1.79,3.7,1.94,5.84.78A52,52,0,0,0,139.18,95c.78-.56,1.41-1.27,2.15-1.87,1.45-1.19,2.89-2.38,4.39-3.51a17.7,17.7,0,0,0,4-4.3,14.11,14.11,0,0,1,1.07-1.25c.35.15.34.5.39.79.32,2.06.54,4.13.75,6.2.27,2.62.54,5.24.75,7.86.07.82.16,1.64.18,2.45.19,6.07.16,12.14.13,18.21,0,2.78-.18,5.57-.37,8.35,0,.4,0,.8,0,1.2,0,3.3-.14,6.59-.37,9.88-.18,2.51-.28,5-.44,7.55-.13,2.1-.52,4.18-.7,6.27-.39,4.41-1.48,8.69-2.17,13-.34,2.15-.51,4.31-.77,6.47a84.72,84.72,0,0,1-1.76,9.06c-.11.48-.24.94-.32,1.43A.89.89,0,0,1,145.71,183.51Z"/><path class="cls-5" d="M8.79,128.07c.36.77.19,1.65.5,2.44.1.22,0,.61.46.26.14-.11.17.14.2.23a12.57,12.57,0,0,0,2.42,4.76,18.9,18.9,0,0,0,7.44,6,21.36,21.36,0,0,0,4.72,1.71c1.5.22,2.84,1,4.34,1.13a6.39,6.39,0,0,0,4.33-.88,1.44,1.44,0,0,0,.48-.44c.13-.21.31-.41.19-.67s-.41-.23-.64-.21a8.85,8.85,0,0,1-3.92-.53A11.73,11.73,0,0,1,22,134.72a20.15,20.15,0,0,1-1.22-5.93,7.82,7.82,0,0,1,1.06-4A19.7,19.7,0,0,0,23,133c.08.14.11.25-.12.24-.14-.28-.2-.78-.57-.69s-.16.55-.12.85a7.69,7.69,0,0,0,2.07,3.85A12.36,12.36,0,0,0,29.89,141c1.81.63,3.57,1.37,5.52,1.18a8.66,8.66,0,0,0,3.94-1,2.78,2.78,0,0,1,1.21-.27A4.54,4.54,0,0,0,43.89,139a1.23,1.23,0,0,1,.89-.49A8.25,8.25,0,0,0,50,135.37a2.71,2.71,0,0,0,.46-1c.11-.36.11-.65-.41-.82a7.85,7.85,0,0,1-4.25-3.81,10.23,10.23,0,0,1-1.71-5.95,11.49,11.49,0,0,1,.94-3.37c.55-1.41,1.11-2.82,1.73-4.4,0,1.22,0,2.25,0,3.28a19.64,19.64,0,0,0,1.36,7.24,8.09,8.09,0,0,0,8.92,5.32,2.88,2.88,0,0,0,2.27-2.09c.08-.32-.09-.31-.27-.24a2.65,2.65,0,0,0-.53.27,4.78,4.78,0,0,1-6.2-1.3A12.33,12.33,0,0,1,50,121.1a21.4,21.4,0,0,1,.11-3.58c0-.13,0-.27.15-.35.44-.11.75.19,1.09.38a34.52,34.52,0,0,0,9.72,3.61,7.08,7.08,0,0,0,1.52.08c1.26,0,2.52-.11,3.77-.25a3.19,3.19,0,0,0,2.49-1.46,12.08,12.08,0,0,0,2.36-7,27,27,0,0,1-.25-3.24,5.73,5.73,0,0,0-.26-1.69,5.42,5.42,0,0,1-.13-1.39.58.58,0,0,0-.56-.67,20.45,20.45,0,0,1-6.51-2.15,14.86,14.86,0,0,1-3.23-2.2c-1.09-1-2.11-2.13-3.11-3.25a5,5,0,0,1-.75-1.17,1,1,0,0,1-.13-.44.28.28,0,0,1,.5-.21,3.36,3.36,0,0,1,.31.43,22.52,22.52,0,0,0,6.88,6,27.51,27.51,0,0,0,7.33,2.24,1,1,0,0,1,.5.15c-.14.84-.14.84.82.94.2,0,.46,0,.52.27-.16,0-.32,0-.47,0-.46.06-.61.35-.33.73a1.83,1.83,0,0,1,.45,1.57c0,.22.16.5.27.73a7.6,7.6,0,0,1,.43,5.16c-.53,2.26-1.39,4.43-1.88,6.69a14.88,14.88,0,0,0-.06,7.78,7.26,7.26,0,0,0,.79,2,.44.44,0,0,1,0,.6c-.39.43-.06.52.26.63a.94.94,0,0,1-.45.64,26.26,26.26,0,0,0-5.52,6.41c-1.11,1.72-2.43,3.27-3.69,4.87-1.59,2-3,4.13-4.67,6.13-1,1.19-2,2.29-3,3.5-1.61,2.11-3.15,4.28-4.87,6.31-.86,1-1.74,2-2.51,3.08-.13.18-.27.37-.53.37-1.2-1.67-3-1.6-4.68-1.38a16.86,16.86,0,0,0-6.81,2.66A13.36,13.36,0,0,0,33,167.37a2.4,2.4,0,0,0-.61,2.18c.07,0,.12,0,.14,0a10.75,10.75,0,0,1,5.82-5.51,12.21,12.21,0,0,1,6-1.46,8.39,8.39,0,0,1,2.56.65.54.54,0,0,1,.34.29,15.35,15.35,0,0,1-1.54,1.95,9.33,9.33,0,0,1-3.35,2.43,14.33,14.33,0,0,0-5.06,3.87A9.41,9.41,0,0,0,35.25,180c0,.21.23.47-.14.6-3.91-2.68-7.1-6.18-10.65-9.27a20,20,0,0,1-3.19-3.73c-.64-.93-1.38-1.78-2.08-2.67a72.73,72.73,0,0,1-9.64-17.37A35.94,35.94,0,0,1,6.78,135.2,8.67,8.67,0,0,1,7,132.57a2.24,2.24,0,0,1,.61-1.14,1.59,1.59,0,0,0,.46-.94A13.91,13.91,0,0,1,8.79,128.07Z"/><path class="cls-2" d="M47.47,163.31c2.74-3.47,5.44-7,8.23-10.42,4.21-5.19,8.36-10.43,12.17-15.92A31.09,31.09,0,0,1,72.59,132a1.93,1.93,0,0,1,1.45-.5,2.1,2.1,0,0,0,1-.21,31.77,31.77,0,0,1,7.51-1.8c2.95-.4,5.89-.81,8.82-1.37,1.32-.25,2.66-.39,4-.63,1.15-.2,2.26-.58,3.41-.81a21,21,0,0,1,7.83-.25,3.59,3.59,0,0,0,.47,0,1.1,1.1,0,0,0,1.64.76c.17-.08.27-.31.51-.25.43.67.31,1.11-.41,1.41a6.69,6.69,0,0,1-1.81.41,21,21,0,0,0-8.19,3.09c-1,.59-1,.57-.35,1.57a39.27,39.27,0,0,1,2.74,5.51c1.15,2.73,1.25,5.63,1.86,8.44.3,1.39-.54,2.17-1.89,1.94a.54.54,0,0,0-.43.12c-.15.12-.26.31-.45.38a2.14,2.14,0,0,1-2.44-.09,2,2,0,0,0-1.64-.19,4.48,4.48,0,0,1-4.53-1.13,44.33,44.33,0,0,0-4.84-4.35,10.37,10.37,0,0,1-2.07-2.41,1.68,1.68,0,0,0-1.81-.76,20.36,20.36,0,0,1-4.75.21,2.93,2.93,0,0,0-2.83,1.17,33.72,33.72,0,0,0-3.65,7c-1.55,3.7-3,7.44-4.38,11.21-.66,1.81-1.73,3.44-2.4,5.26a3.3,3.3,0,0,1-.55,1.26c-.24,0-.31.19-.42.36-.66,1.08-1.28,2.19-2,3.27a.68.68,0,0,1-.3.35c-.86,1-1.5,2.22-2.3,3.3-1.79,2.41-3.63,4.76-5.62,7a28.77,28.77,0,0,1-6.71,5.54,2.18,2.18,0,0,1-1.66.2,20.12,20.12,0,0,1-8.83-4.57c-.61-.52-.89-1.32-1.45-1.88.14-.11.08-.23,0-.36a9.34,9.34,0,0,1,2-8.56,15,15,0,0,1,5.77-4.26,8.54,8.54,0,0,0,3-2.41,15.35,15.35,0,0,1,1.34-1.46A.38.38,0,0,1,47.47,163.31Z"/><path class="cls-2" d="M128.45,156.69a22.23,22.23,0,0,1-.9,2.76c-.89,2.23-1.69,4.48-2.37,6.78-.24.81-.47,1.61-.77,2.4-.07.19-.1.44-.35.53a62.93,62.93,0,0,1-4.35,9.16c-1.31,2.27-3,4.22-5.71,4.85-1.69.4-3.4,1.1-5.16,1-3.23-.21-6.28-1-8.61-3.52-.46-.5-1-1-1.44-1.47a4.74,4.74,0,0,0-.54-1,6.8,6.8,0,0,1-.44-4.48,11,11,0,0,1,2.62-5.57c1.58-1.7,3.42-2.8,5.86-2.49a4,4,0,0,0,.5.11.64.64,0,0,1,.51.3c1,.37,1,.37,1.56-.43,1.27-1.9,2.84-3.55,4.26-5.32,1-1.31,2.07-2.64,3.1-4a4.46,4.46,0,0,1,.74-1.09,40.13,40.13,0,0,0,3-4.2,6.67,6.67,0,0,0,.68-2.74,9,9,0,0,0,.18-1.38,3.65,3.65,0,0,0-1.36-3.44c-1.75-1.72-3.37-3.57-5-5.43a38.6,38.6,0,0,0-4-3.85,1.87,1.87,0,0,1-.47-.46,1.11,1.11,0,0,1-1.16-1,2.37,2.37,0,0,1,1.47-3.09,5.91,5.91,0,0,1-.39-.8,1.72,1.72,0,0,1,.92-2.22c.26-.14.4-.19.27-.56-.29-.79.22-1.32.74-1.83a6.73,6.73,0,0,1,2.11-1c1.21.08,2.42.07,3.62.12a6.19,6.19,0,0,1,3.14,1.32,20.29,20.29,0,0,1,3.29,2.77.91.91,0,0,0,.62.4,1.84,1.84,0,0,0-.43-1,11.06,11.06,0,0,0-6-4,6.43,6.43,0,0,0-3.34.18,2.26,2.26,0,0,1-.89.19,2.43,2.43,0,0,0,0-.27c-.23-1.53.07-2,1.53-2.64l.73-.29,1.17-.14a1.22,1.22,0,0,1,1.18-.25,10.28,10.28,0,0,1,5,2.65c2.18,2,4.45,4,6.52,6.15A10.72,10.72,0,0,1,132,131a1.15,1.15,0,0,1,.2.5,15.6,15.6,0,0,1,1.41,4c.52,2.88.67,5.73-.64,8.5a31.78,31.78,0,0,0-1.7,4.8c-.82,2.3-1.67,4.59-2.47,6.9C128.63,156,128.55,156.37,128.45,156.69Z"/><path class="cls-5" d="M106.38,165.71c-3-.29-5.07,1.25-6.66,3.57a11.14,11.14,0,0,0-1.89,5.65,6.14,6.14,0,0,0,.84,3.63c.1.17.41.34.12.6l-.64-.59a2.57,2.57,0,0,0-.89-1c-.7-.55-1.33-1.18-2-1.74A23.87,23.87,0,0,1,92,172.23a75.3,75.3,0,0,1-5.84-8.13c-1.44-2.41-2.63-5-3.93-7.45a.72.72,0,0,1-.07-.25,13.46,13.46,0,0,1,.23-1.91,14.77,14.77,0,0,0-.25-4.55,30.33,30.33,0,0,0-1.37-5.87,7.26,7.26,0,0,0-.75-1.58,1,1,0,0,0,0,.77,51,51,0,0,1,1.62,8.66,12.67,12.67,0,0,1-.33,3.63c-.15.83-.31,1.65-.51,2.47a5.7,5.7,0,0,0-.12,2.5,1.42,1.42,0,0,1,0,.46c-.38,3.14.49,6.05,1.61,8.92l.38.92c.12.3,0,.51-.3.58-5.14,0-10.29.11-15.44.14-1.44,0-2.87-.07-4.31-.13-.36,0-.76,0-1-.39l.16-.34a6,6,0,0,0,1.76-2.46c.2-.4.22-.9.63-1.19,1.29-3.43,3-6.68,4.27-10.14a105.4,105.4,0,0,1,5.11-12.17,12.35,12.35,0,0,1,2.16-3.09,2.13,2.13,0,0,1,1.26-.52c2-.31,4,.18,5.92-.34a1.49,1.49,0,0,1,1.81.72,14.53,14.53,0,0,0,3.81,3.85,25,25,0,0,1,3,2.88,4.42,4.42,0,0,0,4.8,1.11,1,1,0,0,1,.88,0,.45.45,0,0,1,.12.06,2.69,2.69,0,0,0,2.84.37,2.36,2.36,0,0,1,.69,1.43,61.88,61.88,0,0,0,5.18,11.86c.06.12.09.25.14.37s.38.4,0,.61a.74.74,0,0,1-.5-.15,5.33,5.33,0,0,0-4.73-.3l-1.38.48c-2.83,1.07-4.78,2.88-5.1,6.07,0,.18-.07.34-.1.54a1.8,1.8,0,0,0,.18-.57c.59-2.82,2.53-4.35,5.08-5.27a8.42,8.42,0,0,1,3.8-.78,5.18,5.18,0,0,1,2.93,1.26C106.73,165.57,106.7,165.6,106.38,165.71Z"/><path class="cls-4" d="M82.43,171.4c.32-.13.25-.33.13-.58a21.5,21.5,0,0,1-1.91-6.11,10.14,10.14,0,0,1-.1-3.56,3.88,3.88,0,0,0-.11-1.18,10.64,10.64,0,0,1,.46-3.13,16.74,16.74,0,0,0,.58-4.92,48.57,48.57,0,0,0-1.37-7.75l-.39-1.47c-.06-.19-.16-.41.1-.52s.38.13.48.32a19.5,19.5,0,0,1,1.61,5c.32,1.62.59,3.25.75,4.9a15.75,15.75,0,0,1-.28,3.56c0,.18,0,.35-.07.53s.07.39,0,.58a11.38,11.38,0,0,0-.14,1.42,6.86,6.86,0,0,0-1,4.59,50.15,50.15,0,0,0,1.94,8.29c0,.14,0,.17-.14.15C82.83,171.37,82.6,171.48,82.43,171.4Z"/><path class="cls-6" d="M82.19,157.09c0-.2-.08-.41.12-.56.94,1.77,1.88,3.55,2.8,5.33a50.82,50.82,0,0,0,5.68,8.53c.89,1.1,1.7,2.27,2.63,3.33a35.79,35.79,0,0,0,3.81,3.58c.27.22.53.47.79.71s.32.32.13.56A34.09,34.09,0,0,1,91,172c-.92-1.09-1.81-2.22-2.73-3.32-.51-.61-.77-1.38-1.26-2-.28-.2-.36-.54-.57-.79a1,1,0,0,0-.28-.42c-.17-.34-.35-.66-.5-1-.81-1.87-2-3.55-2.71-5.49-.06-.17-.24-.3-.37-.45C82.05,158.13,82.39,157.54,82.19,157.09Z"/><path class="cls-5" d="M185.76,170.36c-.35.06-.84-.47-1,.43-.19-3.41-1.42-6.43-1.68-9.66.51,1.33,1,2.65,1.52,4s.81,2.65,1.4,3.91C186.11,169.51,186.47,170,185.76,170.36Z"/><path class="cls-5" d="M82.19,157.09c.44.39.11,1,.36,1.41l-.37,0A1.89,1.89,0,0,1,82.19,157.09Z"/><path class="cls-7" d="M86.44,165.81a1.54,1.54,0,0,1,.54.84c-.46,0-.4-.41-.57-.65A.12.12,0,0,1,86.44,165.81Z"/><path class="cls-8" d="M151.56,72.66c-.13-.25-.4-.15-.61-.31h.89Z"/><path class="cls-9" d="M83,171.56l.14-.15c.19.16.13.39.29.63C83.08,171.93,83.06,171.72,83,171.56Z"/><path class="cls-10" d="M86.44,165.81l0,.19a1.35,1.35,0,0,1-.28-.56A.38.38,0,0,1,86.44,165.81Z"/><path class="cls-2" d="M71.8,105c-3.84-.53-7.54-1.52-10.6-4a19.07,19.07,0,0,1-4.43-4.62c-.07-.11-.13-.29-.28-.19s.08.4,0,.6c-.53,0-.64.29-.43.74l.14.3A44.38,44.38,0,0,0,60.5,104a62.74,62.74,0,0,0,7.75,6.73,5.23,5.23,0,0,0,.89.58,1,1,0,0,0,1.57-.63,3.21,3.21,0,0,0,.14-.92c0-.21-.07-.5.27-.57,0,1.93.61,3.86,0,5.8a19,19,0,0,1-2,4.51c-.87,1.41-2.29,1.61-3.78,1.82-4.26.6-8.07-.83-11.84-2.49-1.11-.49-2.16-1.11-3.24-1.67a3.09,3.09,0,0,1,.07-2,72.36,72.36,0,0,1,2.27-8.71,44.83,44.83,0,0,0,1.52-5.76,14.67,14.67,0,0,0-1.14-8,6.11,6.11,0,0,0-1.89-2.47,10.16,10.16,0,0,1-3.33-6.59,41.06,41.06,0,0,1-.41-4.15A4.88,4.88,0,0,1,48.76,76a2.06,2.06,0,0,1,3,.24,2.77,2.77,0,0,1,.68,1.15c.3,1,.72,2.08,1.07,3.13a1.89,1.89,0,0,1,.08.58c0,.43.07.86.57.92s.62-.37.73-.72c.42-1.4.82-2.8,1.19-4.21a.93.93,0,0,1,.67-.72,31.9,31.9,0,0,0,6.72-3.4c.23-.16.46-.38.58.09a2,2,0,0,0,1.54,0,29.29,29.29,0,0,1,3.34-.88,3.44,3.44,0,0,0,1.61-.85c.14-.14.39-.25.27-.47s-.36-.12-.54-.06c-1.54.52-3.15.72-4.69,1.2-.27.08-.56.19-.83,0,1.28-1.11,2.57-2.21,3.85-3.33a23.18,23.18,0,0,0,6.83-9c.21-.53.42-.59.9-.3a18.84,18.84,0,0,1,4.31,3.9,21.53,21.53,0,0,1,2.68,3.54,19.37,19.37,0,0,1,1.12,2.4.89.89,0,0,1,.16.52c.09,1.49-.17,3-.14,4.44A.89.89,0,0,1,84,75a.49.49,0,0,1-.66,0c-.24-.22-.15-.43,0-.63a.38.38,0,0,0,.15-.25,2,2,0,0,1-1.77.27,3.09,3.09,0,0,0-3.57,1.74c-.06.16-.18.32-.07.51.24-.09.29-.33.4-.5A2.77,2.77,0,0,1,81.8,75a7.07,7.07,0,0,1,1.54,1,4.63,4.63,0,0,0,.75.54.83.83,0,0,1,.52.84c0,1.51.28,3,.12,4.5-.12,1.22-.09,2.43-.13,3.64-.19,1.67-.43,3.34-.78,5a26.67,26.67,0,0,1-2.91,8.15c-.69,1.18-1.23,2.44-1.92,3.63a4.9,4.9,0,0,1-3.28,2.38,30,30,0,0,1-3.41.44A.55.55,0,0,1,71.8,105Z"/><path class="cls-3" d="M110,133.68c.73.16,1.07.84,1.6,1.25a39,39,0,0,1,4.57,4.69q2.16,2.41,4.39,4.77a1.42,1.42,0,0,1,.45,1.23c0,.4,0,.8,0,1.19s-.36.5-.69.61a6,6,0,0,1-2.16,0c-.68,0-1.36-.15-2-.14a.63.63,0,0,1-.54-.21,29.54,29.54,0,0,0-4.77-.63,47.44,47.44,0,0,1-4.92-.54c-.38-.07-.56-.23-.47-.69a40.82,40.82,0,0,1,2.14-6A39.21,39.21,0,0,1,110,133.68Z"/><path class="cls-5" d="M41.2,137a16,16,0,0,1-2.38-1.19c-2.76-1.37-4.36-3.76-5.83-6.34a22,22,0,0,1-2.75-8.37A48.7,48.7,0,0,1,30,114c.1-3.94,1.55-7.53,2.51-11.26a44.77,44.77,0,0,1,3.29-8,36.52,36.52,0,0,0,2.77-8.75c.37-1.88.88-3.74,1.15-5.63A102.53,102.53,0,0,1,41.87,70,32.47,32.47,0,0,1,47.75,57.6a26.69,26.69,0,0,1,8.7-7.46,8.26,8.26,0,0,1,3.93-1,1.26,1.26,0,0,1,.89.27c-.46.32-1,.21-1.45.33a15,15,0,0,0-5.68,2.91A30.61,30.61,0,0,0,45.6,63a48.79,48.79,0,0,0-3.15,8.29,60.8,60.8,0,0,0-1.86,8.31c-.54,3.51-1.36,7-2.16,10.42a21.16,21.16,0,0,1-1.91,5,71.93,71.93,0,0,0-4.87,13.71,25.82,25.82,0,0,0-.84,5.87,32.8,32.8,0,0,0,1.26,10.93,22,22,0,0,0,2.06,4.29,24.5,24.5,0,0,0,1.77,2.73,17.65,17.65,0,0,0,3.68,3.11A6.05,6.05,0,0,1,41.2,137Z"/><path class="cls-5" d="M51.46,50.49c-2.53,0-4,1.68-5.32,3.39A40.56,40.56,0,0,0,41,63.33a48.86,48.86,0,0,0-2.86,9.36,37.65,37.65,0,0,0-.58,4.39,61.77,61.77,0,0,1-1.37,7.4c-.65,2.84-1.34,5.67-2.27,8.43-.81,2.4-1.88,4.72-2.75,7.11a51.83,51.83,0,0,0-2.74,8.77,21.4,21.4,0,0,0-.32,2.76,36.84,36.84,0,0,0,.72,9.88,2.47,2.47,0,0,1,0,.39s-.06,0-.14.1a20,20,0,0,1-1-3.94,36.37,36.37,0,0,1-.26-7.87,29.36,29.36,0,0,1,1.75-7.59c1.07-3.35,2.53-6.55,3.66-9.87A71.61,71.61,0,0,0,35.39,82c.55-3.11.74-6.27,1.4-9.35A45,45,0,0,1,40.53,62a41.14,41.14,0,0,1,3.33-6.25,19.49,19.49,0,0,1,4-4.49,4.47,4.47,0,0,1,2.83-1.15A.85.85,0,0,1,51.46,50.49Z"/><path class="cls-5" d="M42.9,132.83A17.26,17.26,0,0,1,40,129.42a31.68,31.68,0,0,1-5.23-11.22,32.4,32.4,0,0,1-.72-6.43,12.64,12.64,0,0,1,.55-3.39,48.54,48.54,0,0,0,1.17-5.48,18.48,18.48,0,0,1,1.81-5.17,54.94,54.94,0,0,0,4.84-15.34,77.8,77.8,0,0,1,4-14.86,34,34,0,0,1,4.18-7A25.94,25.94,0,0,1,54,56.38a58.17,58.17,0,0,1,6.12-5.07,9.76,9.76,0,0,1,2.64-1.22,1,1,0,0,1,.58,0,.28.28,0,0,1,.18.17c0,.14-.09.16-.21.19a11.53,11.53,0,0,0-4.63,2.73c-1.24,1.06-2.5,2.11-3.71,3.21a22.09,22.09,0,0,0-3.13,3.76,65.13,65.13,0,0,0-4,6.2A40.83,40.83,0,0,0,45,74.48,51.58,51.58,0,0,0,43.37,81a53.65,53.65,0,0,1-1.22,6.41A56.42,56.42,0,0,1,38.3,98.15a19,19,0,0,0-1.88,6.11c-.27,2-1,4-1.35,6.06a13.78,13.78,0,0,0-.07,3.57,30.76,30.76,0,0,0,1,5.79A29.17,29.17,0,0,0,38.27,125a51.49,51.49,0,0,0,4.45,7.22A.55.55,0,0,1,42.9,132.83Z"/><path class="cls-11" d="M71.8,105c1.15-.12,2.29-.17,3.43-.4a4.91,4.91,0,0,0,3.64-2.43C81,98.34,83,94.5,83.7,90.16c.27-1.54.49-3.09.73-4.63a50.51,50.51,0,0,0,.18-6.27,42,42,0,0,1-.13-7.18,9,9,0,0,0,0-2.37v-.53c.48-.19.35.29.36.41,0,1.23.33,2.44.31,3.68,0,2.25.38,4.48.45,6.73.05,1.65.09,3.3,0,5-.14,2-.5,4-.74,6,0,.2-.08.39-.12.59a27.47,27.47,0,0,1-3.34,9.08,2.42,2.42,0,0,1-.49.52c-.76,1.48-1.44,3-2.94,4a2.47,2.47,0,0,1-1.73.66,3.28,3.28,0,0,0-1.31.28,1.55,1.55,0,0,1-1.49.13l-.25,0c-.28-.21-.59-.09-.89-.1s-.65-.05-.79-.36S71.61,105.15,71.8,105Z"/><path class="cls-5" d="M44.79,81.4c0,2.77,1.15,5.17,1.7,7.73a21,21,0,0,1,0,9.26c-1,4.19-2.24,8.3-3.48,12.41a30.1,30.1,0,0,0-1.52,8.57,25.5,25.5,0,0,0,.36,3.48c0,.31.22.79-.11.88s-.47-.41-.57-.71a15,15,0,0,1-.56-5.3c.25-4,1.86-7.74,2.9-11.58.75-2.79,1.66-5.54,2.29-8.36a21.92,21.92,0,0,0,.26-6.52,62.44,62.44,0,0,0-1.43-6.92,9.35,9.35,0,0,1-.21-2.24A.73.73,0,0,1,44.79,81.4Z"/><path class="cls-4" d="M115.55,147.06c1.28.06,2.55.13,3.82.26a1.59,1.59,0,0,0,1.61-.51c-.21,1.85-.29,3.7-1.52,5.3-1.07,1.39-2,2.87-3.24,4.16-.18-1.93-.39-3.85-.51-5.78A26.18,26.18,0,0,1,115.55,147.06Z"/><path class="cls-5" d="M86.71,89.25A54.36,54.36,0,0,1,85,102c-.82,3.54-1.4,7.13-2,10.72a23.06,23.06,0,0,0,2,13.1,7.87,7.87,0,0,1,.3.81c0,.16.21.35,0,.47s-.34-.06-.47-.17a5.67,5.67,0,0,1-1.22-2.11,21.53,21.53,0,0,1-1.75-9.7c.13-2.09.54-4.15.82-6.22.56-4,1.85-7.94,2.56-11.95.49-2.71,1-5.42,1.27-8.17C86.92,88.83,86.74,89.06,86.71,89.25Z"/><path class="cls-5" d="M22.92,103.35a.65.65,0,0,1-.05.66c-1.09,2.39-2.18,4.78-3.25,7.18a45.35,45.35,0,0,0-3.06,9.22,16.44,16.44,0,0,0-.31,2.62c-.1,2.25-.22,4.51-.17,6.76a16.34,16.34,0,0,0,2.06,7.13c.11.24.36.45.05.69s-.56,0-.75-.17a4.4,4.4,0,0,1-.64-.91A14.67,14.67,0,0,1,15,129.61a60.64,60.64,0,0,1,.44-8.53,31.52,31.52,0,0,1,2.27-7.32c1.27-3.19,3-6.15,4.45-9.26A4.52,4.52,0,0,1,22.92,103.35Z"/><path class="cls-5" d="M44.27,87.32c0,.71,0,1.43,0,2.13a49,49,0,0,1-1.66,8.21q-1.56,5.78-3.13,11.55a19.89,19.89,0,0,0-.2,9.11,34,34,0,0,0,1.82,7c.41,1,.84,1.9,1.26,2.85.08.19.28.36.12.64A18.41,18.41,0,0,1,40,124.18a37.89,37.89,0,0,1-1.79-7.44c-.62-3.54.19-6.91,1.18-10.28C40.65,102,41.88,97.52,43.11,93a28.13,28.13,0,0,0,.94-5.71Z"/><path class="cls-5" d="M120.07,86.72c.48,0,.39.39.4.68a33.06,33.06,0,0,1-.86,7.42c-.6,3.16-1,6.35-1.41,9.55-.28,2.46-.53,4.91-.88,7.36-.18,1.28-.19,2.59-.32,3.89a5,5,0,0,1-.67,2.59,10.08,10.08,0,0,1,0-2.33c.05-.66.1-1.32.09-2a63.84,63.84,0,0,1,.51-7.18c.2-2.2.48-4.37.8-6.55.38-2.6.85-5.17,1.42-7.73a49.46,49.46,0,0,0,.73-5.29A2.16,2.16,0,0,1,120.07,86.72Z"/><path class="cls-5" d="M48,89.41a11.86,11.86,0,0,1,1.11,4,45.3,45.3,0,0,1-.48,8.3c-.57,5.5-2.4,10.69-3.83,16a4.51,4.51,0,0,1-.48,1c-.06.12-.09.35-.28.3s-.22-.25-.23-.43a4.71,4.71,0,0,1,.27-1.62c.89-3.19,1.84-6.36,2.67-9.56a52.84,52.84,0,0,0,1.18-7.1,46.63,46.63,0,0,0,.54-6.79A19,19,0,0,0,47.84,90C47.8,89.83,47.66,89.65,48,89.41Z"/><path class="cls-5" d="M29.36,94.45a63.09,63.09,0,0,1-2.48,8.08c-1.2,3.57-2.81,7-4.23,10.44a25.33,25.33,0,0,0-1.51,6.42,3.4,3.4,0,0,1-.55,1.82,4.08,4.08,0,0,1-.22-2.32A22.3,22.3,0,0,1,22.46,111c1.26-2.73,2.51-5.46,3.58-8.27.95-2.54,2-5,2.84-7.63C29,94.88,28.93,94.55,29.36,94.45Z"/><path class="cls-5" d="M54.79,74.89l2-1.65a83,83,0,0,0,6.13-6.17,48.76,48.76,0,0,0,8-11.22c.2-.39.33-.82.5-1.22.06-.14.09-.34.3-.3s.2.22.2.38a5.1,5.1,0,0,1-.62,1.87,40.4,40.4,0,0,1-4.62,7.26,66.56,66.56,0,0,1-6,6.56,30.62,30.62,0,0,1-4.51,4.08,9.21,9.21,0,0,1-.81.45A.46.46,0,0,1,54.79,74.89Z"/><path class="cls-5" d="M66.84,50.5c0,.17-.12.17-.2.19a2.65,2.65,0,0,0-1.36.88A67,67,0,0,0,54.64,65.16c-1.48,2.37-2.7,4.87-4.09,7.29-.2.34-.33,1-.72.85s0-.76.18-1.13a41.62,41.62,0,0,1,2.91-5.58,101,101,0,0,1,6.39-9.36,47.34,47.34,0,0,1,6.23-6.59,1.2,1.2,0,0,1,1-.34A.39.39,0,0,1,66.84,50.5Z"/><path class="cls-5" d="M24.77,120.63c.22.42,0,.75,0,1.09a31.53,31.53,0,0,0,1,9.18A13.73,13.73,0,0,0,28.91,136a16.48,16.48,0,0,0,5.18,4.28,2.07,2.07,0,0,0,.8.32c.13,0,.29,0,.27.21s-.18.17-.32.18a3.52,3.52,0,0,1-1.71-.45,15.59,15.59,0,0,1-5.84-5.09,12.34,12.34,0,0,1-2.63-5.5,30.85,30.85,0,0,1-.31-8.31A2.52,2.52,0,0,1,24.77,120.63Z"/><path class="cls-5" d="M80.86,101.11a31.94,31.94,0,0,0,3.71-9.31,1.48,1.48,0,0,1,.12-.29A31.13,31.13,0,0,1,84,95.46c-.59,3.4-1.79,6.64-2.68,10-.62,2.32-1.12,4.67-1.78,7-.34,0-.18-.25-.15-.42-.36-2.77.58-5.34,1.28-8,.17-.66.41-1.31.54-2C81.25,101.72,81.52,101.22,80.86,101.11Z"/><path class="cls-5" d="M85.35,110.14a31.5,31.5,0,0,1,.32-3.37c0-.21.07-.62.33-.56s0,.38,0,.6c0,1.5-.09,3,0,4.51a26.19,26.19,0,0,0,1.61,7.2c.92,2.46,2,4.87,3,7.3.1.25.4.56,0,.75s-.57-.17-.72-.43a37.22,37.22,0,0,1-1.76-3.92A35.2,35.2,0,0,1,85.7,114C85.48,112.72,85.49,111.42,85.35,110.14Z"/><path class="cls-5" d="M85.9,63.67c0,.15,0,.31,0,.46a.31.31,0,0,1-.19.32c-.17.07-.3-.06-.39-.18A3,3,0,0,1,84.87,63a9.62,9.62,0,0,0-2.2-4.46,18.15,18.15,0,0,0-7.38-5.8A11.85,11.85,0,0,0,73,52c-.14,0-.3-.07-.3-.22s.21-.17.35-.18a4.54,4.54,0,0,1,1.68.3,18.33,18.33,0,0,1,10.43,8.82A6.59,6.59,0,0,1,85.9,63.67Z"/><path class="cls-5" d="M67.34,52.73a7.43,7.43,0,0,1-1.16,2.32c-2.42,3.54-4.87,7.06-7.27,10.61-1.59,2.34-3.11,4.73-4.66,7.1a4.32,4.32,0,0,1-.33.5c-.16.19-.34.56-.6.38s.06-.46.16-.65c3.81-6.58,8.43-12.6,12.76-18.81A5,5,0,0,1,67.34,52.73Z"/><path class="cls-5" d="M75.4,115.58a16.13,16.13,0,0,1-1.14,6.08,16,16,0,0,0-.49,7.78c0,.19.17.52-.12.56s-.42-.24-.49-.47a12.16,12.16,0,0,1-.56-3,16.29,16.29,0,0,1,1-5.7c.53-1.87,1.07-3.74,1.6-5.6a4.67,4.67,0,0,0,.08-.52C75.62,114.93,75.44,115.26,75.4,115.58Z"/><path class="cls-5" d="M75.39,54.92a7.51,7.51,0,0,1,3.26,1.6,31.41,31.41,0,0,1,3.94,5,13.57,13.57,0,0,1,2.21,3.6A5.16,5.16,0,0,1,85,66.25c0,.16,0,.32-.21.37s-.3-.07-.36-.22c-.13-.31-.24-.62-.35-.93a12.34,12.34,0,0,0-1.74-3.11c-1-1.45-1.92-3-3-4.41A8.2,8.2,0,0,0,76,55.48C75.79,55.39,75.5,55.35,75.39,54.92Z"/><path class="cls-11" d="M64.76,72a1.49,1.49,0,0,0,.59-.06A31.57,31.57,0,0,1,69,71a9.24,9.24,0,0,0,1.32-.43c.3-.11.62-.25.82.1s-.11.52-.33.76a4.59,4.59,0,0,1-2.42,1.07c-1.06.26-2.11.49-3.14.85-.44.15-.88.19-1.14-.33C64,72.45,64.56,72.34,64.76,72Z"/><path class="cls-5" d="M77.53,116.78c.12,1.67-.61,3.19-.84,4.8a17.89,17.89,0,0,0,.17,7c0,.1.12.2,0,.3s-.24,0-.35,0a1.68,1.68,0,0,1-.6-.93,11.18,11.18,0,0,1,.1-6.58,36.63,36.63,0,0,0,1.38-4.84C77.65,116.49,77.59,116.64,77.53,116.78Z"/><path class="cls-5" d="M15,114.45a25.59,25.59,0,0,0-1.83,14.14,2.92,2.92,0,0,1-.93-2c-.57-4.06.54-7.81,2.16-11.46A1,1,0,0,1,15,114.45Z"/><path class="cls-5" d="M69.64,49.53a7.46,7.46,0,0,1,2.46-.83A8.43,8.43,0,0,1,78.22,50c.43.26.85.54,1.28.82.11.06.28.13.22.28s-.26.12-.4.08a7.24,7.24,0,0,1-1.62-.75,8.9,8.9,0,0,0-7-.9A1.82,1.82,0,0,1,69.64,49.53Z"/><path class="cls-5" d="M75.3,47l-2.36-.48a16.23,16.23,0,0,0-3.88.1,8.89,8.89,0,0,0-2.29.3c-.13,0-.29,0-.32-.14s.13-.27.26-.32a7.12,7.12,0,0,1,2.13-.41,17.51,17.51,0,0,1,4.4-.17,4,4,0,0,1,1.74.57C75.15,46.59,75.36,46.69,75.3,47Z"/><path class="cls-12" d="M86.7,81.8c0-2.21-.23-4.41-.31-6.62a20.27,20.27,0,0,0-.61-5.37s0-.12,0-.18c.24,0,.26.18.29.3a16.67,16.67,0,0,1,.58,3.71c.1,2.72.19,5.44.12,8.16Q86.76,81.89,86.7,81.8Z"/><path class="cls-12" d="M76.19,105.73l1.73-.66s0,.05,0,.06c-.59.7-.21,1.46-.11,2.2a20,20,0,0,1,0,2c0,.11,0,.22-.19.19a6.18,6.18,0,0,0-.34-2.44A3.17,3.17,0,0,0,76.19,105.73Z"/><path class="cls-12" d="M79.77,124.63a22.36,22.36,0,0,0,.7,3.52,1.92,1.92,0,0,1-1.06-2.28,6.5,6.5,0,0,0,.11-1.24C79.61,124.54,79.69,124.54,79.77,124.63Z"/><path class="cls-13" d="M75.41,111.58a13.62,13.62,0,0,0-.66-3.29,3.23,3.23,0,0,1-.14-.51c0-.13-.06-.31.08-.36s.25.11.3.25a8.1,8.1,0,0,1,.53,2.52c0,.46,0,.93,0,1.39Q75.47,111.66,75.41,111.58Z"/><path class="cls-14" d="M109.17,127a1.64,1.64,0,0,1-2.12.27c-.35-.25-.23-.51,0-.78a.41.41,0,0,1,.42.11.78.78,0,0,0,1,.15C108.75,126.74,109,126.7,109.17,127Z"/><path class="cls-12" d="M73.39,106.14c.5,0,1-.22,1.49-.13,0,.26-.09.52-.12.78s.17.36-.14.41a.49.49,0,0,1-.52-.19C73.87,106.71,73.62,106.43,73.39,106.14Z"/><path class="cls-15" d="M77.66,109.57a9.9,9.9,0,0,0,.15-2.24s0,0,0,0a44.79,44.79,0,0,1,0,6s0,0,0,0a.33.33,0,0,1-.13-.13A13.09,13.09,0,0,0,77.66,109.57Z"/><path class="cls-16" d="M86.71,89.25c0-.17,0-.38-.14-.52.23-2,.07-3.91.14-5.87,0,0,.07,0,.11,0v5.9C86.82,88.93,86.85,89.11,86.71,89.25Z"/><path class="cls-17" d="M75.41,111.58h.12c.25.62-.06,1.24,0,1.87a5.29,5.29,0,0,1-.11,2.13c-.07-.3.11-.64-.13-.92A17.61,17.61,0,0,0,75.41,111.58Z"/><path class="cls-18" d="M100.93,151.2l-.69-1.43a.74.74,0,0,1,.45-.28C100.72,150.06,101.15,150.58,100.93,151.2Z"/><path class="cls-19" d="M79,115.44a17.4,17.4,0,0,1-.26,3.06c0,.06-.09.06-.13,0a15.82,15.82,0,0,1,.39-3.06Z"/><path class="cls-20" d="M40.8,60.42a5,5,0,0,1,1-1.92A3.91,3.91,0,0,1,40.8,60.42Z"/><path class="cls-21" d="M107.3,166l-.51-.17c-.07-.26.1-.45.16-.68,0-.08.11-.14.22-.09l.37.62C107.73,166,107.51,166,107.3,166Z"/><path class="cls-22" d="M107.17,165l-.14.14a2.2,2.2,0,0,1-.8-1.2c.26-.17,0-.37,0-.55A6.59,6.59,0,0,1,107.17,165Z"/><path class="cls-23" d="M108.49,126.75c0,.09.14.23,0,.25a1.58,1.58,0,0,1-1.09-.17c-.19-.13-.07-.2.08-.23Z"/><path class="cls-24" d="M77.53,116.78c0-.1,0-.21-.14-.27a5,5,0,0,1,.27-1.47h0A4.85,4.85,0,0,1,77.53,116.78Z"/><path class="cls-25" d="M79.37,112c0,.15,0,.32.15.42a2.58,2.58,0,0,1-.27,1.09C79.29,112.86,79.14,112.41,79.37,112Z"/><path class="cls-26" d="M34.05,139a1.57,1.57,0,0,1-1.08-.54A1.55,1.55,0,0,1,34.05,139Z"/><path class="cls-27" d="M77.66,113.32l.13.13c-.07.53.14,1.08-.14,1.59h0Z"/><path class="cls-28" d="M78.59,118.5h.13v1.3h-.13Z"/><path class="cls-29" d="M22.89,133.23c.11,0,.11-.15.12-.24l.39.8C23.11,133.69,23,133.46,22.89,133.23Z"/><path class="cls-30" d="M78.34,122.81c.18.22.07.41.06.6C78.25,123.25,78.09,123.1,78.34,122.81Z"/><path class="cls-31" d="M79.77,124.63h-.25v-.76A1.05,1.05,0,0,1,79.77,124.63Z"/><path class="cls-32" d="M86.82,82.86h-.11c0-.35,0-.71,0-1.06h.12Z"/><path class="cls-19" d="M79,115.44v-.64c.14.22.2.44,0,.64Z"/><path class="cls-33" d="M76,58.31c.2-.05.34,0,.35.08s-.11.08-.18,0A1.1,1.1,0,0,1,76,58.31Z"/><path class="cls-5" d="M145.71,183.51c.61-3.1,1.42-6.15,1.95-9.27.33-1.94.48-3.9.69-5.85.34-3,.94-6,1.54-8.95.56-2.71.77-5.47,1.16-8.2.6-4.1.67-8.24,1-12.36.19-2.65.26-5.3.37-7.95q.5-11.76.37-23.51a138.91,138.91,0,0,0-.87-14.56c-.31-2.77-.55-5.54-1-8.3a3.12,3.12,0,0,0-.14-.5c-.23-1.5-.63-3-1-4.44,0-.16-.06-.43-.38-.26s-.21-.09-.22-.22c-.16-1.88-.86-3.68-1-5.57.09-.25.24-.42.52-.4.43,0,.47.39.59.68.33,1.35.63,2.71,1,4a7.27,7.27,0,0,0,.72,1.26,22.17,22.17,0,0,1,1.86,6.06c.79,4,1.3,8,1.76,12a80,80,0,0,1,.49,8.19q0,7.62,0,15.22c0,4-.41,7.9-.46,11.86,0,2.61-.31,5.2-.5,7.8-.2,2.8-.34,5.6-.67,8.38a123.66,123.66,0,0,1-2.28,14.17,74.86,74.86,0,0,0-1.31,8,65.38,65.38,0,0,1-2.45,11,10.93,10.93,0,0,1-.95,2.39c-.15.25-.3.6-.6.53s-.2-.47-.23-.74S145.72,183.69,145.71,183.51Z"/><path class="cls-34" d="M125.33,75.33a4.31,4.31,0,0,1-3.84-2,7,7,0,0,0-1-1.34.56.56,0,0,1,.29-.93,8.68,8.68,0,0,1,1.14-.3,21.42,21.42,0,0,0,6-2.3c.26-.15.61-.39.86-.24s0,.57,0,.85A11.51,11.51,0,0,1,127,74.4,1.79,1.79,0,0,1,125.33,75.33Z"/><path class="cls-35" d="M131,47.62c-2.81-.26-5.37.77-8,1.53-.43.13-1,.47-1.2-.17s.35-.84.79-1A25.16,25.16,0,0,1,128,46.41a16.5,16.5,0,0,1,3.29-.12c.47,0,1,0,1,.64s-.56.69-1.07.69Z"/><path class="cls-11" d="M130.18,51.08a1.89,1.89,0,0,1,1.52.43.51.51,0,0,1,.21.51c-.06.25-.27.28-.47.26a8.16,8.16,0,0,1-1.12-.14,7.85,7.85,0,0,0-4,.57,1.53,1.53,0,0,0-1,1.16c0,.2-.13.46-.42.41s-.32-.32-.31-.57A1.84,1.84,0,0,1,125.81,52,9.8,9.8,0,0,1,130.18,51.08Z"/><path class="cls-36" d="M113.41,55a5.32,5.32,0,0,1,2.69.93c.15.09.3.23.18.44a.33.33,0,0,1-.46.12c-.31-.12-.61-.27-.91-.41a3,3,0,0,0-3.63.8c-.17.21-.32.58-.66.3s-.07-.54.1-.76A3.76,3.76,0,0,1,113.41,55Z"/><path class="cls-37" d="M148.46,48.36c0,.25-.22.33-.38.43A2.71,2.71,0,0,0,147,50.23c-.29.77-.21,1,.48,1.51a1.34,1.34,0,0,1,.29,2.22c-.12.13-.29.28-.46.17s0-.31.06-.46a5.08,5.08,0,0,0,.35-.7.67.67,0,0,0-.44-.95,1.32,1.32,0,0,1-1-1.63,2.62,2.62,0,0,1,1.64-2.17C148.11,48.14,148.33,48.08,148.46,48.36Z"/><path class="cls-36" d="M120,66.3a3,3,0,0,1-2.22-1.1c-.14-.17-.31-.4-.16-.6s.46-.14.66,0c.74.44,1.53.78,2.3,1.16.14.07.39.09.35.33s-.28.16-.45.18Z"/><path class="cls-38" d="M123.91,64.25a3.61,3.61,0,0,1-1.69,1.16c-.15.07-.31-.06-.37-.21s.05-.4.22-.51A4.53,4.53,0,0,1,123.91,64.25Z"/><path class="cls-39" d="M146.74,58.14c-1.1-.35-1.61-1.35-1.14-2,.05-.09.11-.21.23-.17s.16.13.15.19a1.47,1.47,0,0,0,.13,1.07C146.29,57.48,146.49,57.75,146.74,58.14Z"/><path class="cls-40" d="M147.1,54.06a1.46,1.46,0,0,1-.73.67C146.5,54.31,146.54,54,147.1,54.06Z"/><path class="cls-41" d="M124.6,35.41a1.9,1.9,0,0,1,.46-.77,1.55,1.55,0,0,1-.31.91Z"/><path class="cls-42" d="M120.37,85.34c.14.12.23.22.15.36a.11.11,0,0,1-.11,0C120.31,85.63,120.34,85.52,120.37,85.34Z"/><path class="cls-43" d="M110.27,26.67c-.17.19-.32.37-.59.32a.18.18,0,0,1-.05-.16A.45.45,0,0,1,110.27,26.67Z"/><path class="cls-5" d="M178.51,105.94c.35,2.1.68,4,1,5.9.35,2.17.72,4.35,1,6.52a12.09,12.09,0,0,1,.26,3.42,13.45,13.45,0,0,0,.3,3.43c.12,1.27.36,2.53.51,3.8.25,2.15.47,4.3.7,6.45a19.33,19.33,0,0,1,.26,3.56c-.22,2.63,0,5.26-.17,7.89-.08,1.32,0,2.65-.21,4s-.21,2.59-.32,4a11.72,11.72,0,0,1-.34-2.9c-.08-1.35,0-2.71,0-4.06,0-1.77-.08-3.53-.24-5.3a11.47,11.47,0,0,1,.09-2.11,18.55,18.55,0,0,0-.29-3.49c-.14-1.47-.32-2.94-.49-4.41-.2-1.81-.41-3.63-.61-5.45-.19-1.66-.4-3.33-.58-5-.21-1.86-.4-3.73-.6-5.59a3.59,3.59,0,0,1-.05-.46c-.06-2.52-.12-5-.15-7.57A12.69,12.69,0,0,1,178.51,105.94Z"/><path class="cls-44" d="M178.63,178.72l1-.52C179.39,178.53,179.13,178.83,178.63,178.72Z"/><path class="cls-45" d="M178.09,97.23c.14.11.25.23.17.41C178,97.6,178.07,97.38,178.09,97.23Z"/><path class="cls-3" d="M132.16,131.54a.65.65,0,0,1-.31-.43,4.17,4.17,0,0,0-1.47-2.68c-.15-.17-.25-.1-.34.06a4.86,4.86,0,0,1-1-1,78.43,78.43,0,0,0-7-6.4,8.44,8.44,0,0,0-3.92-1.48c-.27-.06-.45.3-.73.16a1.63,1.63,0,0,1-.39-1.93,72.22,72.22,0,0,1,4.12-10.41.45.45,0,0,0,.06-.12c.11-.5.06-1.09.68-1.33a3,3,0,0,1,2.33-.11,12.53,12.53,0,0,0,3.3.6c2.9.45,5.8.83,8.68,1.4,1,.21,2.06.45,3.11.59.83.12,1.42.81,2.28.85.21,0,.07.25,0,.39a27.12,27.12,0,0,1-1.67,4.21c-.79,1.68-1.28,3.52-1.92,5.28a65.16,65.16,0,0,1-3,6.71,38.66,38.66,0,0,0-2,4.71C132.87,131.08,132.73,131.52,132.16,131.54Z"/><path class="cls-4" d="M71.12,109.2c-.18.19-.1.42-.11.63a3.06,3.06,0,0,1-.12.85c-.33,1-1,1.28-1.89.75a17,17,0,0,1-1.84-1.31,54.14,54.14,0,0,1-5.6-4.76,20.87,20.87,0,0,1-4.33-5.74,13.67,13.67,0,0,0-1-1.54,5.9,5.9,0,0,1-.37-.85c-.1-.23-.19-.46.06-.66s.41,0,.6.12a21.78,21.78,0,0,0,6.56,6.23,19.94,19.94,0,0,0,7,2.41c.48.07.72.21.66.74a6.53,6.53,0,0,0,.29,2.15A3,3,0,0,1,71.12,109.2Z"/><path class="cls-6" d="M47.47,163.31a.36.36,0,0,1-.25.26,7.45,7.45,0,0,0-5.59-.54,19.87,19.87,0,0,0-4.88,2,14.5,14.5,0,0,0-3.56,3.43,4.14,4.14,0,0,0-.48,1.3c-.05.13-.11.26-.27.24s-.12-.16-.15-.26a2.38,2.38,0,0,1,.45-2.31A12.41,12.41,0,0,1,36.53,164a19.48,19.48,0,0,1,6-2.23,7.17,7.17,0,0,1,3.41.22A2.13,2.13,0,0,1,47.47,163.31Z"/><path class="cls-6" d="M25.51,163.88a6.23,6.23,0,0,1,1-2.25,13.89,13.89,0,0,1,9-6.16,15,15,0,0,1,4.57-.67,7.48,7.48,0,0,1,1.49.25c.27.08.53.19.49.53s-.37.39-.66.4a3.88,3.88,0,0,1-.58-.09,12.59,12.59,0,0,0-7.45.92A13.75,13.75,0,0,0,26,164c-.07.17,0,.48-.32.42S25.55,164.11,25.51,163.88Z"/><path class="cls-6" d="M28,168.8a6.19,6.19,0,0,1,1.72-3.61,27.78,27.78,0,0,1,5.73-4.8,13.4,13.4,0,0,1,4.24-1.45c.26-.08.64,0,.73.28s-.23.46-.44.59a5.84,5.84,0,0,1-1.82.61,14.34,14.34,0,0,0-6.37,3.67,9.84,9.84,0,0,0-3.08,4.09c-.07.21-.15.42-.21.63s.06.58-.3.54S28.07,169,28,168.8Z"/><path class="cls-6" d="M34.48,145.25c.13,0,.27.2.42.36a25.59,25.59,0,0,1,2.24,3q1.35,2,2.67,4c.08.12.27.25.13.4s-.32.06-.49,0A4.81,4.81,0,0,1,38,151.46c-1.29-1.82-2.54-3.67-3.81-5.51a.49.49,0,0,1-.09-.55C34.15,145.29,34.25,145.24,34.48,145.25Z"/><path class="cls-46" d="M42.47,158.65a5.3,5.3,0,0,1,2.29.86c.22.17.43.38.27.67s-.4.2-.64.12a20.11,20.11,0,0,0-2.38-.79c-.22,0-.52-.07-.51-.41s.33-.31.55-.38A2.3,2.3,0,0,1,42.47,158.65Z"/><path class="cls-47" d="M39,177.16c-.16-2.54,1.2-4.45,2.46-6.4.24-.36.52-.71.8-1,.1-.11.21-.36.41-.19s0,.27-.09.41c-.54,1-1.16,1.91-1.66,2.93a9.74,9.74,0,0,0-.76,6.19,2.42,2.42,0,0,1,0,.66c0,.23.29.55,0,.66s-.48-.26-.64-.47A3.89,3.89,0,0,1,39,177.16Z"/><path class="cls-48" d="M97.44,148c0,.11,0,.2-.1.23a.23.23,0,0,1-.27-.14c-.18-.38-.38-.75-.52-1.14a22.84,22.84,0,0,0-1.83-4.18,28.73,28.73,0,0,0-2.31-3,2.39,2.39,0,0,1-.21-.26c-.08-.17-.3-.36-.1-.53s.32.06.46.15a7,7,0,0,1,2.36,2.55,28.62,28.62,0,0,1,2.46,6.2A.56.56,0,0,0,97.44,148Z"/><path class="cls-48" d="M96,135.74a7,7,0,0,1,1.47,1.78,40.13,40.13,0,0,1,3.43,8.59,4.07,4.07,0,0,1,0,.86c0,.13,0,.29-.19.3s-.18-.17-.21-.3A44.25,44.25,0,0,0,97,137.73c-.26-.54-.64-1-.95-1.52A.43.43,0,0,1,96,135.74Z"/><path class="cls-48" d="M89.42,140.8a1.33,1.33,0,0,1,.64.29,14.52,14.52,0,0,1,3.83,5.33c.08.19.26.46,0,.58s-.33-.21-.46-.39a22.56,22.56,0,0,0-3-4l-1.28-1.15A.37.37,0,0,1,89,141C89.11,140.86,89.21,140.74,89.42,140.8Z"/><path class="cls-48" d="M98.26,148.08c0-.19-.12-.55.28-.7s.62.11.84.37a1.76,1.76,0,0,1,.33.4c.2.4.45.83,0,1.21s-.92.12-1.25-.17S98.24,148.54,98.26,148.08Z"/><path class="cls-14" d="M102.64,147.91c-.06.31-.15.65-.63.64a1,1,0,0,1-.82-1,.84.84,0,0,1,.72-1C102.26,146.58,102.63,147.23,102.64,147.91Z"/><path class="cls-49" d="M94.68,148.09c.1-.33.15-.75.57-.7a.85.85,0,0,1,.73.9.55.55,0,0,1-.66.57C94.86,148.82,94.7,148.5,94.68,148.09Z"/><path class="cls-50" d="M93.35,147.82c0,.3-.14.58-.45.54a.73.73,0,0,1-.67-.7.4.4,0,0,1,.47-.43C93,147.28,93.34,147.41,93.35,147.82Z"/><path class="cls-51" d="M99.43,129.22l-.35.14s-.06-.07,0-.08S99.2,129.11,99.43,129.22Z"/><path class="cls-6" d="M106.23,164a4.06,4.06,0,0,1,.8,1.2.82.82,0,0,1-.24.63.37.37,0,0,1-.41-.1c.27-.07.09-.15,0-.23a4.71,4.71,0,0,0-4.25-1.19,11.16,11.16,0,0,0-5.82,2.84,7.34,7.34,0,0,0-1.63,3.49,2,2,0,0,1-.37.79,10,10,0,0,1,.31-2.68,6.5,6.5,0,0,1,2.92-3.81,12.14,12.14,0,0,1,4.92-1.86A4.66,4.66,0,0,1,106.23,164Z"/><path class="cls-47" d="M103.42,175.59a11.39,11.39,0,0,1,2.88-7.1c.14-.17.27-.35.42-.51s.28-.37.49-.23.08.35,0,.54c-.38.9-.94,1.7-1.33,2.6a18.09,18.09,0,0,0-1.11,4.81,5.86,5.86,0,0,1-.28,1.62c-.19.42-.4.41-.7.11C103.29,176.94,103.48,176.31,103.42,175.59Z"/><path class="cls-47" d="M114,123.16a7,7,0,0,1,7,.58,10.56,10.56,0,0,1,3.53,3.15c.24.37.62.93.29,1.17s-.67-.37-1-.66a16.71,16.71,0,0,0-5.16-3.73,6.05,6.05,0,0,0-2.42-.25,5.56,5.56,0,0,1-2.26-.27Z"/><path class="cls-48" d="M112.92,126.41a4.82,4.82,0,0,1,2.55-.07,10.25,10.25,0,0,1,6.52,4.18c.25.35.77.88.28,1.27s-.69-.34-1-.59A9.94,9.94,0,0,1,120.1,130a9,9,0,0,0-5.43-2.9A5.85,5.85,0,0,1,112.92,126.41Z"/><path class="cls-47" d="M112.35,129.13a5,5,0,0,1,3,.92,17.79,17.79,0,0,1,4.18,3.94c.3.37.75.94.16,1.32s-.82-.29-1.11-.66a17.64,17.64,0,0,0-3.63-3.74,5.92,5.92,0,0,0-3.48-1.12c-.17,0-.46.13-.49-.16s.21-.31.4-.4A2.51,2.51,0,0,1,112.35,129.13Z"/><path class="cls-52" d="M130,128.49c.08-.15-.18-.31,0-.42s.26.09.37.18a8.49,8.49,0,0,1,1.5,1.92c.23.33-.05.63-.05.94A14.37,14.37,0,0,0,130,128.49Z"/><path class="cls-53" d="M121.54,146.1c0-.08,0-.16.12-.11a.29.29,0,0,1,.09.15c0,.07,0,.13-.12.09S121.56,146.14,121.54,146.1Z"/><path class="cls-6" d="M89.47,162.25a1.3,1.3,0,0,1,.1-1.25,8.27,8.27,0,0,1,5.48-4.44,13.35,13.35,0,0,1,3.42-.71,1,1,0,0,1,.75.21.53.53,0,0,1,.23.52c-.06.27-.29.22-.48.23a24.89,24.89,0,0,0-4.29.77,7.62,7.62,0,0,0-5,4.33l-.09.18Z"/><path class="cls-6" d="M91.21,167.6a6.85,6.85,0,0,1,1-2.62,10.69,10.69,0,0,1,4.18-4.15,3,3,0,0,1,1.17-.44c.23,0,.57-.15.67.09s-.22.39-.4.52a5.37,5.37,0,0,1-.79.48,10.64,10.64,0,0,0-4.94,5.35,5.55,5.55,0,0,0-.29.87c-.06.22,0,.61-.26.59S91.24,167.9,91.21,167.6Z"/><path class="cls-6" d="M101.56,159.3a3.06,3.06,0,0,1,1.72.39c.26.14.45.35.36.64a.48.48,0,0,1-.65.31,8.07,8.07,0,0,0-3.38-.4.3.3,0,0,1-.35-.23.37.37,0,0,1,.29-.39A5.3,5.3,0,0,1,101.56,159.3Z"/><path class="cls-54" d="M73.66,98.31c-2-.4-3.88-1.09-4.87-3.2a14.44,14.44,0,0,1-1.18-3.3c-.16-.87.09-1.18.93-1a13.06,13.06,0,0,0,6.74-.31c1.25-.35,2.5-.7,3.75-1a.46.46,0,0,1,.62.31,2.32,2.32,0,0,1-.07,1.68,12.69,12.69,0,0,1-2.25,4.75A5.33,5.33,0,0,1,73.66,98.31Z"/><path class="cls-11" d="M84.46,69.71A9.71,9.71,0,0,1,84.52,73a39.26,39.26,0,0,0,.1,4.21c0,.27.08.56.08.85,0,1.85,0,3.7,0,5.56a6.37,6.37,0,0,1-.26,1.93c0-1.09,0-2.17.11-3.26.16-1.68-.11-3.36-.11-5,0-.12,0-.34-.11-.36a12.29,12.29,0,0,1-1.43-1c-.37-.2-.6-.5-.92-.7a2.76,2.76,0,0,0-3,.66,6.53,6.53,0,0,0-.5.85c-.1.17-.2.38-.45.26a.34.34,0,0,1-.16-.46,2.88,2.88,0,0,1,1.86-2.15,3.86,3.86,0,0,1,2.15-.21,1.7,1.7,0,0,0,1.72-.3,2.7,2.7,0,0,1,.45-.22c.09.61-.5.68-.71,1,.18.11.25.44.58.25a.78.78,0,0,0,.46-.72C84.35,72.71,84.41,71.21,84.46,69.71Z"/><path class="cls-55" d="M64,76.69c-.34-.1-.67-.19-1-.31a.25.25,0,0,1-.18-.36c.08-.21.19-.12.35-.11.49,0,1,.32,1.52,0-.28-.32-.79-.37-.82-.88.05,0,.11-.06.16,0a19.74,19.74,0,0,0,2.31-.09,3.25,3.25,0,0,1,4,1.2c.19.28.29.59,0,.82s-.54.05-.76-.18c-1.62-1.68-3.1-1.65-4.67.13a2,2,0,0,1-1.92.91,2.74,2.74,0,0,1-.39-.09c-.29-.09-.69-.17-.61-.55s.46-.13.7-.15C63.15,77,63.66,77.14,64,76.69Z"/><path class="cls-36" d="M82.47,71.7a16.24,16.24,0,0,1-2.27-.25c-.44-.1-.83-.31-.76-.83s.52-.67,1-.61c.83.12,1.67.23,2.49.38.43.08,1,.2.94.73s-.6.63-1.1.58A3,3,0,0,0,82.47,71.7Z"/><path class="cls-48" d="M51.23,87.19c.8-.49.83-.52.14-1.13a2.25,2.25,0,0,1-.77-2.59,2.53,2.53,0,0,0-.29-1.94,1.38,1.38,0,0,1,.88,1.25,5.36,5.36,0,0,1,0,1.06A1.68,1.68,0,0,0,52,85.53a1.2,1.2,0,0,1,.6,1C52.62,87.13,52,87.43,51.23,87.19Z"/><path class="cls-48" d="M49.63,78.31c.76,0,1.34.7,1.87,1.39a6,6,0,0,1,1,2.43c0,.11.06.23-.08.28s-.21-.07-.25-.17c-.2-.46-.38-.94-.59-1.4a4.19,4.19,0,0,0-1.28-1.58c-.69-.56-1.06-.45-1.36.35-.07.19-.09.51-.39.41s-.29-.36-.25-.61A1.14,1.14,0,0,1,49.63,78.31Z"/><path class="cls-56" d="M48.26,82.68c0-.15.08-.34.14-.53s.21-.62.58-.43-.06.34-.11.51A2.7,2.7,0,0,0,49,83.52a12.58,12.58,0,0,0,1,3.09c0,.09.15.17,0,.28a.32.32,0,0,1-.37,0,1,1,0,0,1-.59-.67A15.73,15.73,0,0,1,48.26,82.68Z"/><path class="cls-57" d="M67.87,77.43a.84.84,0,0,1,.87.82,1,1,0,0,1-1,.89.81.81,0,0,1-.85-.82A1,1,0,0,1,67.87,77.43Z"/><path class="cls-57" d="M81.22,76.65c.41.07.74.23.73.74s-.51,1.06-.93,1a.71.71,0,0,1-.72-.83A.94.94,0,0,1,81.22,76.65Z"/><path class="cls-58" d="M73.28,85.26c.3,0,.69,0,.66.23,0,.42-.47.54-.86.55s-.68,0-.6-.41S73,85.28,73.28,85.26Z"/><path class="cls-59" d="M77.09,85.91c-.23-.07-.56-.09-.53-.49s.25-.35.48-.3.68.15.7.45S77.43,86,77.09,85.91Z"/><path class="cls-60" d="M107.12,143.81l.35.53C107.08,144.3,106.72,144.33,107.12,143.81Z"/><path class="cls-2" d="M127.89,69.47a3.27,3.27,0,0,1-.21,1.55,12.26,12.26,0,0,1-1.44,2.9,1.19,1.19,0,0,1-1.18.56,4.35,4.35,0,0,1-3.47-2.54C123.59,70.88,125.92,70.69,127.89,69.47Z"/><path class="cls-55" d="M132.47,112.07a1.5,1.5,0,0,1-1.47,1.62,1.59,1.59,0,0,1-1.47-1.78,1.37,1.37,0,0,1,1.27-1.5A1.59,1.59,0,0,1,132.47,112.07Z"/><path class="cls-61" d="M68.25,109c-.21,0-.28-.11-.39-.25C68.16,108.67,68.16,108.88,68.25,109Z"/><path class="cls-2" d="M78.85,90.72a1.84,1.84,0,0,1,0,.49,10.89,10.89,0,0,1-3.22,5.08,3.86,3.86,0,0,1-5.44-1.16,17.86,17.86,0,0,1-1-2.37c-.19-.49,0-.64.45-.59a23.23,23.23,0,0,0,6.49-.52C77,91.49,77.87,91,78.85,90.72Z"/><path class="cls-62" d="M84.32,75.6c0,.06,0,.2-.14.16s-.16-.09-.14-.19a.27.27,0,0,1,.13-.13C84.31,75.4,84.29,75.52,84.32,75.6Z"/></svg>