<svg id="Layer_1" data-name="Layer 1" xmlns="http://www.w3.org/2000/svg" viewBox="0 0 200 200"><defs><style>.cls-1{fill:#dbc3dd;}.cls-2{fill:#d2a26d;}.cls-3{fill:#b391c3;}.cls-4{fill:#9b74b2;}.cls-5{fill:#fcb419;}.cls-6{fill:#323140;}.cls-7{fill:#333141;}.cls-8{fill:#eeebf0;}.cls-9{fill:#efecf0;}.cls-10{fill:#b18bbe;}.cls-11{fill:#9285a1;}.cls-12{fill:#cfbda9;}.cls-13{fill:#ccbaa8;}.cls-14{fill:#b697c6;}.cls-15{fill:#7b7486;}.cls-16{fill:#6c6778;}.cls-17{fill:#6b6677;}.cls-18{fill:#9f94ad;}.cls-19{fill:#6d647a;}.cls-20{fill:#9e93ac;}.cls-21{fill:#333241;}.cls-22{fill:#343342;}.cls-23{fill:#cab4d1;}.cls-24{fill:#cdb6d4;}.cls-25{fill:#a796b2;}.cls-26{fill:#333240;}.cls-27{fill:#353341;}.cls-28{fill:#363441;}.cls-29{fill:#373441;}.cls-30{fill:#3a3742;}.cls-31{fill:#e1c19c;}.cls-32{fill:#d9b285;}.cls-33{fill:#debb93;}.cls-34{fill:#dfbd95;}.cls-35{fill:#343341;}.cls-36{fill:#e4bdad;}.cls-37{fill:#353244;}.cls-38{fill:#343242;}.cls-39{fill:#343243;}.cls-40{fill:#333242;}.cls-41{fill:#353243;}.cls-42{fill:#3f3750;}.cls-43{fill:#3e374f;}.cls-44{fill:#3d374e;}.cls-45{fill:#353344;}.cls-46{fill:#423954;}.cls-47{fill:#423955;}.cls-48{fill:#373447;}.cls-49{fill:#a986bb;}.cls-50{fill:#413954;}.cls-51{fill:#6c4e89;}.cls-52{fill:#caadd2;}.cls-53{fill:#ceb1d4;}.cls-54{fill:#7f5a9c;}.cls-55{fill:#9e75b3;}.cls-56{fill:#ad8dbe;}.cls-57{fill:#9c74b1;}.cls-58{fill:#9269ab;}.cls-59{fill:#c9b2cf;}.cls-60{fill:#d8bed8;}.cls-61{fill:#ccaaa6;}.cls-62{fill:#d8bfd8;}.cls-63{fill:#cdaeb8;}.cls-64{fill:#f7eadd;}.cls-65{fill:#eed9cb;}.cls-66{fill:#f5e5d1;}.cls-67{fill:#e0c8cc;}.cls-68{fill:#e3beb0;}.cls-69{fill:#ead6ca;}.cls-70{fill:#f3d6af;}.cls-71{fill:#e0c3c8;}.cls-72{fill:#e5c6b8;}.cls-73{fill:#ead1c8;}.cls-74{fill:#835ca0;}.cls-75{fill:#363445;}.cls-76{fill:#373445;}.cls-77{fill:#ac80b6;}.cls-78{fill:#fefefe;}.cls-79{fill:#fdfdfd;}.cls-80{fill:#d9d2de;}</style></defs><path class="cls-1" d="M153.67,85.17l.06,0c.89-.74,1.28-.71,1.82.34a31.65,31.65,0,0,1,3.33,9.38,13.36,13.36,0,0,0,.47,2.66,2.3,2.3,0,0,1-.17,1.36,46.31,46.31,0,0,1-2.64,7.14c-.83,2-1.74,3.88-2.38,5.89a112.36,112.36,0,0,1-4.32,10.82c-.94,2.15-1.62,4.39-2.52,6.56-.58,1.41-1.35,2.73-2,4.1a16.1,16.1,0,0,1-1.44,2.8,8.25,8.25,0,0,0-1,2.22c-1.36,2.48-2.79,4.93-4,7.49-1.82,3.89-3.9,7.64-5.75,11.51a79.8,79.8,0,0,0-4.82,11.78,45.19,45.19,0,0,0-1.54,7.93c0,.48-.16,1-.25,1.43-.07.27-.09.55-.15.82s0,.56-.18.81l0,.41a.71.71,0,0,0-.12.75,29.77,29.77,0,0,1-.67,3.28c-.29.95-.33,1.93-.62,2.87-.22.16-.11.41-.18.62-.08.69-.6,1-1.11,1.4a27.84,27.84,0,0,1-10.19,4.33,51.4,51.4,0,0,1-9.24,1.29q-3.36.18-6.7.08a47.55,47.55,0,0,1-15.64-2.92,23.16,23.16,0,0,1-5.54-3.09c-.27-.2-.55-.39-.59-.76,0,0,0-.11,0-.06s0,.11-.09.16c-.13-.64-.25-1.28-.38-1.92-.35-1.76-.71-3.52-1.06-5.27a.8.8,0,0,0,0-.66c.11-.3-.28-.4-.25-.66.19-.26-.08-.48-.07-.72a6.51,6.51,0,0,0-.13-.77c-.34-1.79-.54-3.59-.86-5.38a51.27,51.27,0,0,0-3.83-11.56c-1.07-2.43-2.18-4.85-3.42-7.2-1.08-2.05-2.17-4.11-3.15-6.22-1.55-3.33-3.34-6.54-5.09-9.77a14.26,14.26,0,0,0-1.53-3.14,7.81,7.81,0,0,1-.92-1.88,67.1,67.1,0,0,1-4-9.31c-1-2.63-2.24-5.19-3.29-7.81-.79-2-1.43-4-2.21-6-1-2.43-2-4.8-3-7.23a25.32,25.32,0,0,1-1.54-4.92,2,2,0,0,1,0-.59A38.26,38.26,0,0,1,44,86.22a5.22,5.22,0,0,1,1.19-1.57c.21-.19.36-.09.52,0a7.52,7.52,0,0,1,.62.5,30.08,30.08,0,0,0,4.59,4.29A16.37,16.37,0,0,0,54,91.2a3.3,3.3,0,0,0,1.88.26.27.27,0,0,1,.17.11,1.42,1.42,0,0,0,.55.79,1.52,1.52,0,0,1,.58,1.6,35.55,35.55,0,0,0-.83,5.44,2.12,2.12,0,0,0,.19,1.22c1.42,2.73,2.61,5.57,4,8.31.95,1.85,2,3.63,2.88,5.53s2.06,3.92,2.93,6a2.66,2.66,0,0,1,.26.68,1.07,1.07,0,0,0,.16.55,11.33,11.33,0,0,1,.79,3.68c.41,3.13.81,6.26,1.38,9.38a23.11,23.11,0,0,0,2.91,7.57,33.36,33.36,0,0,0,3.85,5.63,3.51,3.51,0,0,1,.55.91,24,24,0,0,0,5.54,8A18,18,0,0,0,91,161.39c.12,0,.32.15.35-.13-.13-.28-.4-.38-.65-.52-.51-.41-1.22-.5-1.65-1a.19.19,0,0,1,.15-.21c.43,0,.77.29,1.21.33,0-.19-.18-.27-.17-.44a.24.24,0,0,1,.22-.17c.58.05,1.07.39,1.63.49.28,0,.49.07.52-.29s.27-.39.51-.26a4.65,4.65,0,0,0,2.38.36c.26,0,.55,0,.62-.31a2.57,2.57,0,0,0,.11-.72c0-.77.19-.88.94-.81.25,0,.63.24.74,0s.54-.68.48-1.11,0-.55.43-.63c.56-.12.58-.21.13-.64-.27-.26-.49-.46,0-.72.32-.16.06-.32-.08-.44-.61-.51-.62-.51-.09-1.14a5.05,5.05,0,0,0,.73-1.25c.11-.23.14-.59.46-.58s.34.37.45.6a4.51,4.51,0,0,0,.87,1.4c.35.34.37.62-.09.88s-.61.35,0,.66c.35.19,0,.4-.13.55-.49.51-.49.51.17.7.17.05.43.07.38.29-.1.41.18.69.26,1,.13.56.4.52.81.45.89-.14,1,0,1.07.85a2.39,2.39,0,0,0,.11.65c.07.36.35.32.61.32a4.74,4.74,0,0,0,2.38-.37c.24-.12.49-.12.52.25s.22.35.51.3c.56-.1,1.05-.43,1.63-.49a.24.24,0,0,1,.22.15c0,.17-.13.27-.22.44.47,0,.83-.32,1.26-.31a.19.19,0,0,1,.16.2c-.42.54-1.14.63-1.65,1-.25.14-.53.24-.65.54,0,.22.2.13.31.12a17.41,17.41,0,0,0,7.55-3.25,22.34,22.34,0,0,0,7.19-9.36,3.18,3.18,0,0,1,.56-.89,25.65,25.65,0,0,0,3.33-4.7,24.58,24.58,0,0,0,3-6.29,71.7,71.7,0,0,0,1.32-7.11c.3-2.3.51-4.61.92-6.89a2.47,2.47,0,0,1,.29-.88,1.53,1.53,0,0,0,.28-.91,19.94,19.94,0,0,1,1.06-2.42q3-5.85,6-11.69c1.09-2.13,2-4.33,3.11-6.45.42-.82.06-1.66,0-2.48a18.66,18.66,0,0,0-.63-3.78,1.75,1.75,0,0,1,.66-2.06,1.24,1.24,0,0,0,.41-.66.26.26,0,0,1,.15-.12,4.1,4.1,0,0,0,2.49-.52A22.94,22.94,0,0,0,153.67,85.17Z"/><path class="cls-2" d="M146.09,134.86c.58.34.67,1,1.06,1.5,1.17,1.44,2.29,2.93,3.47,4.36a123,123,0,0,0,30.89,26.81,40,40,0,0,0,12.2,4.89c1,.2,1.39.8,1.4,2.11a22.58,22.58,0,0,1-.37,3.48c-.2,1.29-.27,2.6-.59,3.87-.47,1.84-1.69,3.23-2.77,4.71a13.09,13.09,0,0,1-7.57,5.49,22.4,22.4,0,0,1-8.56.17c-2.95-.44-5.41-1.86-7.92-3.24-4-2.18-7.9-1.89-11.79.16-1.72.9-3.46,1.77-5.26,2.52a7.51,7.51,0,0,1-2.59.51c-1.31.06-2.59.31-3.89.45a21.25,21.25,0,0,1-5.33-.42c-3.44-.52-6.74-1.62-10.12-2.39a5.27,5.27,0,0,1-1.77-.71,1.4,1.4,0,0,1-.36-1.53c.22-.91.22-1.84.36-2.76a44.82,44.82,0,0,0,.25-5.68l0-.73c.11-.31-.14-.59-.06-.9.26-1.46.68-2.89.9-4.35.4-2.72,1.65-5.13,2.74-7.59s2.21-5,3.32-7.53c.9-2.06,2.08-4,3.14-5.92,1.56-2.89,3.2-5.72,4.67-8.64,1.39-2.75,2.91-5.43,4.12-8.26C145.77,135.07,145.82,134.85,146.09,134.86Z"/><path class="cls-2" d="M73.14,178.43c0,1.26,0,2.52,0,3.77a39,39,0,0,0,.58,5.27,2.38,2.38,0,0,1-.06,1.24.87.87,0,0,1-.52.51c-2.33,1.09-4.88,1.4-7.32,2.08a38,38,0,0,1-8.68,1.41,8.22,8.22,0,0,1-1.84-.19,26,26,0,0,0-3.29-.35,11.3,11.3,0,0,1-4.39-1.39c-1.47-.72-2.9-1.53-4.4-2.18a11.58,11.58,0,0,0-10.77.5,23.77,23.77,0,0,1-5.1,2.53,21.53,21.53,0,0,1-11.26.44,12,12,0,0,1-6.55-4.29c-.51-.64-1-1.31-1.52-1.93a11.18,11.18,0,0,1-2.67-6.72c-.1-1.25-.3-2.5-.46-3.74a4.7,4.7,0,0,1,0-1.45,1.67,1.67,0,0,1,1.45-1.59c6.69-1.31,12.39-4.75,17.9-8.53A122.4,122.4,0,0,0,37.4,153.31a127.17,127.17,0,0,0,15.37-16.85c.4-.52.53-1.23,1.14-1.6.3,0,.33.28.41.46.84,1.9,1.86,3.72,2.78,5.58,2,4,4.18,7.95,6.37,11.87,1.69,3,3.16,6.13,4.54,9.29,1,2.31,2,4.64,3.07,6.92a13.35,13.35,0,0,1,.91,2.83c.41,1.9.81,3.81,1.21,5.71C73.28,177.83,73,178.12,73.14,178.43Z"/><path class="cls-3" d="M56,91.53h-.14a2.79,2.79,0,0,0-.63-.36,15.62,15.62,0,0,1-5.87-3.34c-.79-.66-1.52-1.39-2.32-2.06-.17-.15-.39-.3-.34-.59.68-1.69,1.61-3.26,2.39-4.89,1.2-2.49,2.38-5,3.58-7.48.82-1.72,1.62-3.44,2.47-5.15,1.27-2.57,2.39-5.22,3.71-7.78a11.42,11.42,0,0,0,.83-7.38,37.9,37.9,0,0,0-.53-4.13,9.42,9.42,0,0,1,0-3.22,3.36,3.36,0,0,1,1.1-2,59.39,59.39,0,0,1,4.67-5.25,2.24,2.24,0,0,0,.83-.79c.81-.9,1.63-1.79,2.4-2.71a3.42,3.42,0,0,1,2-.85,1.16,1.16,0,0,0,.57-.27c.15.25.16.51-.18.55a3.73,3.73,0,0,0-2.32,1.55c-1.31,1.54-2.85,2.83-4.26,4.26a11.66,11.66,0,0,0-3.52,5.59A19.81,19.81,0,0,0,60,47.76a11.3,11.3,0,0,0,.52-2.91,1.2,1.2,0,0,1,.16-.64,15,15,0,0,1,3-4.32,35.78,35.78,0,0,0,4.34-4.45,5.8,5.8,0,0,1,1.35-1.17c.31-.2.66-.43,1-.08a1.33,1.33,0,0,1,0,1.31,1.61,1.61,0,0,0-.58,1.63A2.7,2.7,0,0,1,69.31,39a13.18,13.18,0,0,1-2,2.5,2.6,2.6,0,0,0-.86,1.81,17.37,17.37,0,0,1-.6,2.44A10.93,10.93,0,0,0,66.4,51a14.92,14.92,0,0,1,.75,3,1.94,1.94,0,0,1,0,.59A4.58,4.58,0,0,1,66.88,56c-.07.24.1.16,0,.16a0,0,0,0,1,0-.06c0-.15,0-.27.23-.19a.8.8,0,0,1,0,.88c-.29.35-.21.8-.29,1.2a3.67,3.67,0,0,1-.32,1.39,2.28,2.28,0,0,0-.34.8A13.48,13.48,0,0,1,65.49,62,79,79,0,0,0,60.6,76.32c-1.23,4.69-2.42,9.39-4.05,14C56.4,90.71,56.43,91.22,56,91.53Z"/><path class="cls-3" d="M144.13,91.53H144c-.22-.11-.26-.34-.33-.55-1.89-5.46-3.29-11.07-4.79-16.65A66.49,66.49,0,0,0,134.54,62a13,13,0,0,1-.68-1.8,2.29,2.29,0,0,0-.33-.79,2.81,2.81,0,0,1-.29-1.36,1.91,1.91,0,0,0-.35-1.25.83.83,0,0,1,0-.87c.29-.1.17.19.33.35a4.54,4.54,0,0,1-.41-1.66,5.63,5.63,0,0,1,.26-2c.37-1.18.68-2.38,1-3.58a8.51,8.51,0,0,0-.11-4,15,15,0,0,1-.52-2.32,1.93,1.93,0,0,0-.74-1.3,12.84,12.84,0,0,1-2-2.5,3,3,0,0,1-.52-2.33,1,1,0,0,0-.44-1c-.45-.36-.37-.83-.32-1.27s.39-.53.82-.34a4.73,4.73,0,0,1,1.52,1.17c.48.55,1,1.07,1.43,1.66a24.86,24.86,0,0,0,2.85,2.77,11.08,11.08,0,0,1,2.24,2.77,10.65,10.65,0,0,0,.74,1.26,2.2,2.2,0,0,1,.42,1.24,12.83,12.83,0,0,0,.51,2.82c-.1-1-.25-1.82-.36-2.68a4.49,4.49,0,0,0-.64-1.72,18.57,18.57,0,0,0-4.24-5.06,17.43,17.43,0,0,1-2.54-2.61,8.46,8.46,0,0,0-1.53-1.46,1.91,1.91,0,0,0-1-.46c-.4,0-.51-.21-.31-.57.18.3.51.21.76.29a3.94,3.94,0,0,1,2.29,1.42,23.54,23.54,0,0,0,1.88,2.12,2.24,2.24,0,0,0,.83.79c2,1.79,3.5,4,5.29,5.95a1.79,1.79,0,0,1,.39.9,11.84,11.84,0,0,1,0,4.07,47,47,0,0,0-.7,6.5,9.61,9.61,0,0,0,1.1,4.73c1.63,3.15,3,6.42,4.56,9.59,2.43,4.89,4.63,9.9,7.18,14.73.14.28.24.57.36.86s-.1.37-.25.5c-2.07,1.84-4.07,3.79-6.67,4.92a7.92,7.92,0,0,1-1.36.51A2.11,2.11,0,0,0,144.13,91.53Z"/><path class="cls-4" d="M70.9,33.23l.26-.16c.26.08.26-.19.38-.29,1.29-1.18,2.28-2.65,3.55-3.85A35.48,35.48,0,0,1,91.6,20.19a34.6,34.6,0,0,1,8.34-1,37.52,37.52,0,0,1,15.19,3.25,32.82,32.82,0,0,1,10.94,7.7c.8.88,1.58,1.78,2.36,2.68.17,0,.15.35.41.25l.26.16a2.76,2.76,0,0,1,.05,1,1.9,1.9,0,0,0,.22,1.09,5,5,0,0,1,.66,2.11,7.64,7.64,0,0,0,2.43,4.1,2.71,2.71,0,0,1,.93,1.7,15.25,15.25,0,0,0,.52,2.12,6.33,6.33,0,0,1,0,3.48,34.65,34.65,0,0,0-1.2,4.82.41.41,0,0,1-.19.33.19.19,0,0,1-.19-.11,13.14,13.14,0,0,1-.09-2.43,17.23,17.23,0,0,0-.06-1.9,29.42,29.42,0,0,0-1.39-6.63c-.28-.85-.64-1.68-1-2.51a27.36,27.36,0,0,0-3.39-5.73c-.23-.31-.49-.61-.73-.93a22.06,22.06,0,0,0-3.38-3.45.92.92,0,0,1-.35-.3,1.45,1.45,0,0,0-.71-.56,36.68,36.68,0,0,0-4.78-3.22,40,40,0,0,0-11.28-4,30.81,30.81,0,0,0-6.12-.53,26.06,26.06,0,0,0-4.13.52,37,37,0,0,0-13.57,5.31c-.89.57-1.69,1.29-2.59,1.86A2.83,2.83,0,0,0,78,30a3.17,3.17,0,0,1-.34.3,27,27,0,0,0-3.36,3.48,28.25,28.25,0,0,0-4.12,6.66,27.75,27.75,0,0,0-2.38,9.13c-.14,1.09,0,2.18-.07,3.28a3.32,3.32,0,0,1-.07,1,.25.25,0,0,1-.17.13c-.24-.08-.23-.3-.25-.49a28,28,0,0,0-1.06-4.24,6.77,6.77,0,0,1,.06-4.42,8.23,8.23,0,0,0,.33-1.55,3,3,0,0,1,1-1.76,7.23,7.23,0,0,0,2.51-4.95,1,1,0,0,1,.17-.56,3.17,3.17,0,0,0,.61-2.38A.66.66,0,0,1,70.9,33.23Z"/><path class="cls-5" d="M63.41,24.52a43.44,43.44,0,0,1-3.24,4.38c-.5.56-1,1.15-1.41,1.75s-.69.5-1.14.12c-1.93-1.59-3.82-3.23-5.81-4.74C43.18,19.52,35.13,12.3,26.58,5.69l-.85-.64c-.19-.14-.36-.28-.17-.54s.34-.42.66-.28l.29.17C32.58,8,38.76,11.35,45,14.66q9,4.79,17.93,9.62Z"/><path class="cls-5" d="M136.61,24.51l6-3.18q11.06-5.94,22.1-11.92c3-1.6,5.85-3.32,8.77-5l.11-.07a.53.53,0,0,1,.85.13c.28.38-.08.5-.29.66-3.21,2.47-6.35,5-9.48,7.6-4.7,3.87-9.32,7.84-14.17,11.52-2.76,2.08-5.4,4.3-8.07,6.49-.48.39-.79.38-1.19-.11A59.47,59.47,0,0,1,136.61,24.51Z"/><path class="cls-5" d="M43.78,56.34q-16.16-.44-32.32-1.16l2.7-.54Q26.54,52.3,38.91,50c3.82-.74,7.64-1.48,11.44-2.34.72-.17.85-.06.87.68.08,2.7.17,5.4.25,8.12a19.27,19.27,0,0,1-2.52,0c-1.48-.08-3,0-4.46,0A1.71,1.71,0,0,1,43.78,56.34Z"/><path class="cls-5" d="M151.05,56.43a17.7,17.7,0,0,1-2.52,0c.08-2.76.17-5.57.25-8.37,0-.61.44-.52.81-.44,1.75.36,3.49.76,5.25,1.12,8,1.6,16,3.1,23.95,4.58,3.07.57,6.13,1.17,9.19,1.76a1,1,0,0,1,.42.18q-16.1.69-32.18,1.11c-1.35.12-2.71,0-4.06,0A5.89,5.89,0,0,0,151.05,56.43Z"/><path class="cls-4" d="M75.41,188.54l0-.56c.13.71.7,1,1.19,1.36a28,28,0,0,0,10.43,4.38,50.54,50.54,0,0,0,9.16,1.22,78.15,78.15,0,0,0,9.8-.14,45.49,45.49,0,0,0,11.92-2.57,24,24,0,0,0,6.07-3.35,1.38,1.38,0,0,0,.46-1c.33,0,.13.24.12.39a2.44,2.44,0,0,1,0,.27,2.31,2.31,0,0,1-1,2.07,39,39,0,0,1-6.93,4,32.27,32.27,0,0,1-9.06,2.4,48.69,48.69,0,0,1-5.65.69,48.4,48.4,0,0,1-9.31-.66,36,36,0,0,1-8.7-2.22,37.72,37.72,0,0,1-7.31-4.15A2.49,2.49,0,0,1,75.41,188.54Z"/><path class="cls-6" d="M73,177.47c-.69-2.67-.92-5.46-2-8-.94-2.31-2.1-4.53-3-6.84-2.49-6.15-6-11.78-9.07-17.61-1.77-3.33-3.49-6.7-5.08-10.13-.4-.92-.8-1.83-1.19-2.76,0-.11-.21-.29,0-.41s.27.06.38.16a11.2,11.2,0,0,1,1.47,1.68A1.57,1.57,0,0,1,55,134c.78,1.41,1.59,2.8,2.29,4.26,3.39,5.73,6.07,11.84,9.14,17.73a89.44,89.44,0,0,1,4.79,11,48.31,48.31,0,0,1,2.4,11.52c0,.13.11.28-.13.27l-.18-.64C73.07,178,73.14,177.7,73,177.47Z"/><path class="cls-6" d="M146.09,134.86c-.9,1.87-1.83,3.73-2.75,5.59-2.51,5-5.29,9.9-8,14.82-1.68,3.07-2.91,6.34-4.36,9.52a40.78,40.78,0,0,0-2.46,5.78c-.64,2.27-1,4.59-1.57,6.9-.1.23,0,.51-.23.71l-.18.64c-.25,0-.16-.14-.13-.27a51.41,51.41,0,0,1,4.19-16.09c2.31-5.32,5.15-10.38,7.6-15.62,1.38-2.92,3-5.73,4.54-8.54.76-1.55,1.61-3.05,2.46-4.56a.54.54,0,0,1,.24-.21,10.82,10.82,0,0,1,1.52-1.72c.1-.1.2-.2.34-.12s0,.24,0,.34C146.9,133,146.49,133.92,146.09,134.86Z"/><path class="cls-5" d="M73.6,4.56c.35-.15.46.13.63.28,1.85,1.58,3.45,3.43,5.28,5C80.76,11,82,12.1,83.32,13.18c.31.27.38.4,0,.67-1.73,1.19-3.44,2.42-5.08,3.74-.25.2-.4.24-.5-.12C76.56,13.1,74.64,9,73.6,4.56Z"/><path class="cls-5" d="M126.27,4.54c.12.22,0,.43,0,.63a73.06,73.06,0,0,1-2.49,7.63c-.5,1.5-.95,3-1.43,4.55-.09.28-.14.57-.55.24-1.63-1.33-3.35-2.55-5.08-3.75-.31-.21-.37-.35,0-.62,3.19-2.64,6.14-5.54,9.14-8.39C125.91,4.7,126,4.49,126.27,4.54Z"/><path class="cls-5" d="M100,2.26c.5,1,1,1.85,1.37,2.73.92,2.08,1.81,4.18,2.59,6.32.31.85.23.94-.67.93-2.28,0-4.56,0-6.84,0-.56,0-.7-.22-.52-.68A71.4,71.4,0,0,1,100,2.26Z"/><path class="cls-6" d="M132.53,53.94a22.73,22.73,0,0,1,1.12-4.88,6.31,6.31,0,0,0-.1-4.2,5.94,5.94,0,0,1-.32-1.55,2.47,2.47,0,0,0-.87-1.64,7.3,7.3,0,0,1-2.51-4.25,5.8,5.8,0,0,0-.63-2,2.53,2.53,0,0,1-.12-2.17h.25c0,.2-.12.45.34.41.63-.07,1.1.41,1.53.81s1,1.07,1.47,1.62a40.56,40.56,0,0,0,3.36,3.19,14.58,14.58,0,0,1,3.46,4.8,8.14,8.14,0,0,1,.52,4.23,11.58,11.58,0,0,1-.69-2.8,3.68,3.68,0,0,0-.6-2,14.11,14.11,0,0,0-2.16-3.08c-.77-.72-1.54-1.45-2.34-2.14s-1.56-1.91-2.44-2.78a8.78,8.78,0,0,0-1.54-1.25c-.18-.1-.36-.22-.55-.09s-.07.37-.12.54c-.19.72.49,1,.77,1.4.1.16.16.2.1.38a2.59,2.59,0,0,0,.4,2.39,11.9,11.9,0,0,0,1.91,2.44,2.24,2.24,0,0,1,.88,2,2.7,2.7,0,0,0,.28,1.07,9.78,9.78,0,0,1,0,6.1,15.19,15.19,0,0,0-1,4.11A3.93,3.93,0,0,1,133,56c0,.3-.13.62.08.9s.14.81.31,1.18a3.35,3.35,0,0,0,.32,1.36c.1.24.17.5.27.74s.06.22.06.33.2.41-.08.51-.33-.14-.43-.31c-.22-.72-.44-1.44-.7-2.14a16.25,16.25,0,0,1-.55-4A.6.6,0,0,1,132.53,53.94Z"/><path class="cls-6" d="M70.9,33.23a2.84,2.84,0,0,1-.41,2.69,1.08,1.08,0,0,0-.29.64A6.23,6.23,0,0,1,68,41.33,4,4,0,0,0,66.65,44a1.08,1.08,0,0,1,0,.32c-1,2.18-.47,4.3.25,6.42a11.34,11.34,0,0,1,.61,3.17,5.92,5.92,0,0,1,.06,3.18,20.73,20.73,0,0,1-1,3.57c-.09.17-.18.4-.43.31s-.08-.33-.08-.51.06-.21.06-.32.17-.5.27-.75a3.62,3.62,0,0,0,.33-1.33c.16-.39.11-.83.3-1.21s0-.6.08-.9a4.17,4.17,0,0,1,0-1.41,12.33,12.33,0,0,0-.83-3.66,10.42,10.42,0,0,1,0-7,2.54,2.54,0,0,0,.14-1A2,2,0,0,1,67,41.51a12.11,12.11,0,0,0,2-2.46,2.75,2.75,0,0,0,.48-2.62,3.16,3.16,0,0,1,.62-.88,1.53,1.53,0,0,0,.23-1.28c-.3-.36-.56,0-.8.1a7.92,7.92,0,0,0-2.41,2.34,28.15,28.15,0,0,1-3.23,3.23,11.63,11.63,0,0,0-1.49,1.65,23.1,23.1,0,0,0-1.58,2.6c-.34.65-.1,1.44-.31,2.14s-.33,1.31-.5,2c-.27-.21-.22-.49-.2-.73.11-.85.25-1.7.34-2.55A5.61,5.61,0,0,1,61,43c1.34-2.52,3.53-4.27,5.54-6.19.67-.64,1.22-1.39,1.87-2s1.1-1.23,2.06-1.14c.24,0,.08-.27.14-.41Z"/><path class="cls-7" d="M144.13,91.53a.51.51,0,0,1,.43-.51,13.08,13.08,0,0,0,5.13-2.64,38.84,38.84,0,0,0,3.6-3.2h.38c.06.26-.12.41-.27.57-2.1,2.19-4.27,4.31-7.14,5.49C145.58,91.51,144.91,92,144.13,91.53Z"/><path class="cls-7" d="M46.71,85.18a24.73,24.73,0,0,0,7.52,5.51,3.14,3.14,0,0,0,1.08.32.51.51,0,0,1,.56.52,1.29,1.29,0,0,1-1.26,0,15,15,0,0,1-4.85-2.79,38.63,38.63,0,0,1-3.07-2.93c-.17-.19-.42-.35-.36-.67Z"/><path class="cls-8" d="M57.25,138.3a17.73,17.73,0,0,1-1.64-2.87c-.35-.64-.71-1.27-1.06-1.9l.15-.14a51.71,51.71,0,0,1,2.53,4.55C57.29,138.06,57.38,138.17,57.25,138.3Z"/><path class="cls-9" d="M145.45,133.53c-1,1.55-1.6,3.29-2.7,4.77-.05-.61.37-1.05.62-1.53.61-1.15,1.29-2.26,1.93-3.38Z"/><path class="cls-10" d="M43.78,56.34a47,47,0,0,1,5.17.09h-4.8A1.7,1.7,0,0,1,43.78,56.34Z"/><path class="cls-10" d="M151.05,56.43a47,47,0,0,1,5.17-.09,9.23,9.23,0,0,1-2.35.12C152.93,56.48,152,56.44,151.05,56.43Z"/><path class="cls-11" d="M135.11,37.85a1,1,0,0,1-.83-.79A3.67,3.67,0,0,1,135.11,37.85Z"/><path class="cls-11" d="M65.72,37.06a1,1,0,0,1-.83.79A3.67,3.67,0,0,1,65.72,37.06Z"/><path class="cls-12" d="M126.73,178.18a1.57,1.57,0,0,1,.23-.71c0,.32.12.66-.1,1Z"/><path class="cls-13" d="M73,177.47a1.61,1.61,0,0,1,.23.71l-.13.25C72.92,178.13,73.06,177.79,73,177.47Z"/><path class="cls-14" d="M124.59,188.28c0-.13,0-.29-.12-.39.13-.1,0-.42.27-.4C124.68,187.75,124.78,188,124.59,188.28Z"/><path class="cls-15" d="M126.17,180.18c0-.28-.07-.57.12-.82,0-.06.1-.06.14,0C126.33,179.63,126.38,180,126.17,180.18Z"/><path class="cls-16" d="M126.43,179.36h-.14a1.5,1.5,0,0,1,.13-.81l.13.27Z"/><path class="cls-17" d="M73.45,178.82l.13-.27a1.42,1.42,0,0,1,.12.81c0,.07-.08.07-.13,0Z"/><path class="cls-18" d="M126,181.34a.46.46,0,0,1,.12-.75Z"/><path class="cls-19" d="M73.57,179.36h.13c.09.23.26.45,0,.67Z"/><path class="cls-20" d="M74,180.69a.45.45,0,0,1,0,.66C74,181.13,73.84,180.91,74,180.69Z"/><path class="cls-4" d="M108.5,161.14a1.1,1.1,0,0,1,.68-.49,10.79,10.79,0,0,0,3.95-2.44.33.33,0,0,0,.12-.34,1.94,1.94,0,0,0-.92.42c-.23.13-.44.3-.67.42s-.36.22-.48,0,.08-.32.21-.44l1.17-1a.82.82,0,0,0-.67.19c-.94.53-1.78,1.24-2.78,1.68a4.48,4.48,0,0,1-.85.35c-.22.06-.51.26-.66,0s.13-.39.27-.55c.41-.43.85-.84,1.25-1.3a30.39,30.39,0,0,1-2.77,1.58,2.26,2.26,0,0,1-2.3-.29c-.31-.19-.22-.56-.24-.85s-.13-.59-.6-.53c-1.12.14-1.35-.11-1.28-1.29,0,0,0,0,0-.06s.18-.12.19-.23a.33.33,0,0,1-.24,0,1.71,1.71,0,0,1-.23-.13c-.2-.12-.57-.06-.59-.34s.32-.45.55-.6.48-.31.74-.45.43-.27.35-.61a.47.47,0,0,1,.23-.58,8.14,8.14,0,0,0,2.66-2.43A29.48,29.48,0,0,0,108,147.2,24,24,0,0,0,111,140a24.67,24.67,0,0,0,.82-6.64,46.69,46.69,0,0,1,.11-6A23.39,23.39,0,0,1,113,122a22.53,22.53,0,0,0,1.13-5.85c.15-1.76.34-3.52.38-5.29a63.92,63.92,0,0,0-.71-9c-.09-.72-.2-1.45-.32-2.17a1.14,1.14,0,0,0-.43-.79,27.3,27.3,0,0,1-3.35-2.91.32.32,0,0,0-.22-.13,2,2,0,0,1,.49.83c-.15.32-.37.13-.56.07a1.15,1.15,0,0,0-.68-.14,6.73,6.73,0,0,1-2.47-1.37c.26.25.64.54,1,.84.13.11.34.22.23.42s-.31.15-.49.13a3.68,3.68,0,0,1-1.24-.44c-1.08-.6-2.13-1.24-3.22-1.92a11,11,0,0,0,1.7,1.47c.12.08.3.18.19.36s-.23.1-.37.09a2.88,2.88,0,0,1-2.11-1,7.64,7.64,0,0,0-.85-1c0,.46.46.72.36,1.16a.21.21,0,0,1-.15.1,1.85,1.85,0,0,1-1-.73c-.25-.29-.36-.35-.63,0a1.94,1.94,0,0,1-1,.76.26.26,0,0,1-.16-.09c-.13-.45.34-.7.36-1.18a3.41,3.41,0,0,0-.55.61,2.9,2.9,0,0,1-2.21,1.3c-.21,0-.49.16-.59-.1s.18-.32.34-.43a10.25,10.25,0,0,0,1.57-1.36c-1.1.69-2.14,1.31-3.2,1.9a3.66,3.66,0,0,1-1.31.46c-.17,0-.39,0-.46-.16s.1-.28.22-.37c.37-.3.76-.59,1-.85a7.42,7.42,0,0,1-2.47,1.39,1.08,1.08,0,0,0-.68.11c-.17.08-.39.23-.54,0,0-.35.28-.58.54-.94a7.18,7.18,0,0,0-1.05,1,8.37,8.37,0,0,1-1.65,1.44,3.13,3.13,0,0,0-1.55,2.58,68.7,68.7,0,0,0-.83,10.11,43.65,43.65,0,0,0,1.16,10.12,41,41,0,0,1,1.26,4.75,25.93,25.93,0,0,1,.35,4.22c0,1.13,0,2.26,0,3.39A26.18,26.18,0,0,0,90.77,145,23,23,0,0,0,96,152.59c.16.15.29.36.5.44.49.2.94.4.76,1.09,0,.17.18.23.3.31.34.21.7.39,1,.63.49.36.47.5-.08.72a4.09,4.09,0,0,0-.42.2c-.34,0-.16.16-.09.29.14.4-.13.77-.09,1.17,0,.19-.17.24-.33.25a1.82,1.82,0,0,1-.46-.06c-.83-.12-.83-.12-1,.73a1.57,1.57,0,0,1-1.45,1.1,3.41,3.41,0,0,1-1.81-.58,23.21,23.21,0,0,1-2-1.22c.41.5.89.92,1.32,1.4.13.14.34.3.19.5s-.33.07-.5,0a9.38,9.38,0,0,1-2.31-1.14,8.73,8.73,0,0,0-2-1.13,11.22,11.22,0,0,0,1,.95c.15.12.39.28.26.47s-.39,0-.57-.08a5.84,5.84,0,0,0-1.45-.8c.19.77,2.57,2.41,4,2.8a1.1,1.1,0,0,1,.68.49c-.28.27-.59.1-.88,0a17.7,17.7,0,0,1-7.83-3.89,23.18,23.18,0,0,1-7.12-11.45,34.17,34.17,0,0,1-1.26-8.17,29.5,29.5,0,0,1,.19-5.95c.2-1.38.49-2.75.82-4.11.06-.23.06-.53.33-.61s.51.13.68.33A19.33,19.33,0,0,1,78.16,130c.16.26.3.54.45.81a5,5,0,0,1,.38,1.38,4.25,4.25,0,0,0-.41-1.44,25.84,25.84,0,0,0-5.12-6.85c-.4-.41-.71-.9-1.15-1.28a12.7,12.7,0,0,1-1.86-5.2c-.51-3.11-.06-6.17.31-9.24A32.89,32.89,0,0,1,72,101.33c1.28-3.78,2-7.72,3.29-11.49.46-1.31.89-2.64,1.41-3.93s.66-2.62,1.17-3.87a3.73,3.73,0,0,1,.86-1.69c.35-.06.59.18.84.34a37.81,37.81,0,0,0,16.65,6,32,32,0,0,0,14.46-1.49,44.53,44.53,0,0,0,6-2.24,39.71,39.71,0,0,0,3.72-2.18c.27-.18.51-.44.88-.4a1.22,1.22,0,0,1,.49.69,10.43,10.43,0,0,1,.69,1.94,43.46,43.46,0,0,0,1.68,5.1,66.91,66.91,0,0,1,2.37,8.09,14.82,14.82,0,0,0,.56,2,40.36,40.36,0,0,1,2.22,10.42,46.93,46.93,0,0,1,.52,5.55,17.16,17.16,0,0,1-1.63,7.65,3.74,3.74,0,0,1-.49.79c-2.25,2.47-4.67,4.81-6.15,7.89a1.9,1.9,0,0,0-.24.61,2.58,2.58,0,0,0-.25.65c0-.2.19-.47.28-.76a22.45,22.45,0,0,1,2.09-3.53,1.67,1.67,0,0,1,.33-.32c.43-.3.62-.25.78.25s.16.73.24,1.1a28.54,28.54,0,0,1,.91,7.41,34.93,34.93,0,0,1-2.06,12,23.2,23.2,0,0,1-5.33,8.39,17.92,17.92,0,0,1-8.66,4.79C109.27,161.2,108.88,161.43,108.5,161.14Z"/><path class="cls-6" d="M91.25,96.46a22.92,22.92,0,0,0,2.86-1.6,10.45,10.45,0,0,1-1.54,1.58c2-.32,3.42-1.7,5.18-2.57A2.49,2.49,0,0,1,96.81,95c-.39.32-.81.61-1.22.93a2.55,2.55,0,0,0,2-.65c.53-.47.83-1.16,1.55-1.55a4.31,4.31,0,0,1-.68,1.62c.05.2.13,0,.19,0,.26-.42.94-.45,1-1.09,0-.1.64-.1.65,0,0,.64.73.67,1,1.09.06,0,.14.19.19,0a4.29,4.29,0,0,1-.69-1.73c1.16,1,1.78,2.63,3.55,2.27a8,8,0,0,1-2.13-2c1.76.75,3.21,2.18,5.19,2.49a11,11,0,0,1-1.55-1.58,28.12,28.12,0,0,0,2.88,1.61,3.56,3.56,0,0,1,1.09.39c.26.1,0-.13.1-.14-.18-.54-.79-.81-.92-1.49a4.05,4.05,0,0,1,1.16.85,17.11,17.11,0,0,0,3,2.55,1.42,1.42,0,0,1,.58,1.17,59.31,59.31,0,0,1,1,11.19,40.43,40.43,0,0,1-1.18,10,34.66,34.66,0,0,0-1.36,5.58,19.78,19.78,0,0,0-.2,2.78c0,1.39,0,2.79,0,4.18a26.62,26.62,0,0,1-2.65,11.66,23.37,23.37,0,0,1-5.57,7.84c-.06.06-.12.16-.19.18-.57.1-1,.26-.53.95.09.14-.19.21-.31.27a12.4,12.4,0,0,0-1.69,1.07c.46.07.9,0,1.07.45.1.11.1.19,0,.25-.19.45.47.81.15,1.27a.74.74,0,0,0,.25.05c.12,0,.25-.08.38-.1,1.09-.2,1.1-.2,1.14.94,0,.28.11.37.38.54,1.43.92,2.41-.15,3.51-.69.37-.18.68-.48,1-.69.17-.11.38-.4.57-.19s-.14.36-.28.5c-.53.53-1.07,1-1.58,1.6a8.14,8.14,0,0,0,3.16-1.45c.49-.33,1-.63,1.52-.93.15-.08.38-.14.49,0s-.08.32-.21.43a10.77,10.77,0,0,0-1.33,1.21c.55-.32,1.08-.66,1.64-.95.17-.1.41-.4.62-.08s-.07.44-.25.62a9.65,9.65,0,0,1-2.58,1.8c-.42.21-.82.42-1.22.66-.2.11-.28.08-.28-.15a11.62,11.62,0,0,1,1.71-1,7.9,7.9,0,0,1,1.09-.81.2.2,0,0,1,.11,0s-.07,0-.11,0a5.26,5.26,0,0,1-1.21.71l-1.07.42c-.18.07-.39.23-.51,0s.18-.28.3-.42.13-.11.19-.17a.07.07,0,0,0,0-.1c0-.05-.1,0-.15,0a10.16,10.16,0,0,1-1.6.57c-.74.16-.89,0-.68-.81a3.76,3.76,0,0,1-2.89.63c-.2-.16-.49-.19-.66-.4s-.13-.68-.17-1-.13-.55-.55-.44c-.21,0-.43,0-.65.11a.64.64,0,0,1-.5-.08c-.34-.18.16-.65-.38-.83s0-.55,0-.85a.47.47,0,0,0-.09-.06c-.36,0-.92.06-1-.29s.53-.66.85-1c-.27-.13-.74,0-.73-.33,0-.56.65-.55,1-.89A5.25,5.25,0,0,1,100,151.1a5.48,5.48,0,0,1-1.61,2.54,3.86,3.86,0,0,1,.51.29c.21.16.62.21.53.58s-.46.22-.73.31c.25.22.48.42.7.63s.25.52-.2.59l-.73.1c0,.36.58.82-.19,1a.16.16,0,0,0-.09.09c.22,1.06-.48.68-.94.58-.61-.12-.89.06-.84.71,0,.25.07.53-.15.75s-.46.24-.66.4a3.72,3.72,0,0,1-2.88-.63c.2.85,0,1-.69.81a10.16,10.16,0,0,1-1.6-.57s-.11-.05-.15,0a.07.07,0,0,0,0,.1c.14.23.64.29.47.58s-.52,0-.79-.1a5,5,0,0,1-.77-.31,4.37,4.37,0,0,1-1-.57,4.83,4.83,0,0,1,.89.67,11.13,11.13,0,0,1,1.71,1c0,.1,0,.29-.16.2a15.08,15.08,0,0,1-4-2.56c-.06-.07-.13-.13-.18-.2a.35.35,0,0,1,0-.43c.11-.13.23,0,.35,0,.67.26,1.23.72,1.93,1-.45-.36-.91-.71-1.35-1.08-.14-.12-.39-.26-.24-.47s.38-.09.55,0c.62.38,1.24.77,1.85,1.17a9.45,9.45,0,0,0,2.85,1.28l-1.78-1.8c-.11-.1-.31-.21-.21-.37s.31,0,.45.06a23.81,23.81,0,0,0,2.84,1.68,2.18,2.18,0,0,0,2.11-.34c.28-.14.14-.54.14-.81,0-.58.16-.83.77-.56.13.06.31,0,.45,0,.38.15.66.18.49-.37-.09-.32.39-.52.16-.85a.16.16,0,0,1,0-.27c.18-.44.57-.42,1.06-.4a7.63,7.63,0,0,0-1.61-1.09c-.2-.12-.68-.16-.23-.58,0,0,.25-.66-.38-.56-.26,0-.44-.25-.63-.43a24.34,24.34,0,0,1-4.43-5.84,28.32,28.32,0,0,1-3.11-8.33,27.93,27.93,0,0,1-.54-7.18,27.31,27.31,0,0,0-1.48-10.3,25.17,25.17,0,0,1-1-6.46c-.1-1.32-.22-2.64-.25-4a54.63,54.63,0,0,1,.61-8.18c.13-1.07.27-2.14.43-3.21a.77.77,0,0,1,.29-.63,44.36,44.36,0,0,0,4-3.4c.09-.07.16-.23.37-.11-.15.57-.68.89-.94,1.38,0,0,0,.05,0,.07s0,.09,0,.08C90.45,96.78,90.82,96.54,91.25,96.46Z"/><path class="cls-2" d="M127.65,122.88c1.5-.21,2.92-.73,4.39-1.08.31-.08.69-.07.83-.53.07-.21.39-.08.6-.08a1.05,1.05,0,0,1-.31.93c-.06-.07-.06-.16-.13-.27a18.28,18.28,0,0,0-.69,3.46,12.84,12.84,0,0,1-.45,2.46,24,24,0,0,0-.8,4A3.92,3.92,0,0,0,131,133a17.71,17.71,0,0,1-1.53,5.53c-.8,1.71-1.83,3.29-2.77,4.91-.4.69-.76,1.4-1.17,2.08-.11.18-.25.45-.49.37s-.17-.42-.12-.63a30.65,30.65,0,0,0,.95-5,38,38,0,0,0-.19-8.26,31.56,31.56,0,0,0-1-4.73,1.12,1.12,0,0,1,.23-1.17,24.8,24.8,0,0,0,2.36-3C127.36,123,127.46,122.84,127.65,122.88Z"/><path class="cls-2" d="M66.53,121.19c.19,0,.43-.1.55.1.25.45.72.47,1.13.57a39.68,39.68,0,0,0,4.14,1c.19,0,.29.09.37.22A22.34,22.34,0,0,0,75,126a1.21,1.21,0,0,1,.25,1.28A36,36,0,0,0,74,139.37a23.25,23.25,0,0,0,.86,5.1c.1.37.37.93,0,1.09s-.61-.45-.8-.79c-1.13-2.11-2.5-4.07-3.52-6.24A17.28,17.28,0,0,1,69,133a3.21,3.21,0,0,0-.08-1.07,19.92,19.92,0,0,0-.82-4.12,27.86,27.86,0,0,1-.56-3.39,14.39,14.39,0,0,0-.47-2.26c0-.16,0-.51-.35-.43C66.44,121.61,66.55,121.38,66.53,121.19Z"/><path class="cls-6" d="M69.17,133.06a18.67,18.67,0,0,0,1.38,5.08c.79,1.79,1.89,3.4,2.84,5.09.32.58.65,1.16,1,1.73a1.37,1.37,0,0,0,.59.69c-.25-1.07-.49-2-.68-3a32.44,32.44,0,0,1-.23-10,28.92,28.92,0,0,1,1.18-5.75c.1-.31-.07-.45-.23-.63a28.9,28.9,0,0,1-2.65-3.37c0-.11,0-.22.12-.28,2.2,2.35,4.54,4.58,5.92,7.57.09.18.15.37.23.55s0,.13,0,.18l-2-3.06a1.58,1.58,0,0,0-.91-.75c-.23,1.09-.44,2.17-.69,3.25a23.36,23.36,0,0,0-.52,5.66c.1,5.12.86,10.1,3.31,14.71,2.76,5.18,6.79,8.8,12.59,10.25.35.09.73.12,1.09.18a.27.27,0,0,1,.12.44c-.09.13-.22.11-.36.09a19,19,0,0,1-11.11-6.4,24.43,24.43,0,0,1-4.07-6.56,4.14,4.14,0,0,0-.85-1.17,21.41,21.41,0,0,1-2.59-3.68,25.54,25.54,0,0,1-3.22-6.57,67.08,67.08,0,0,1-1.61-9,32.39,32.39,0,0,0-1.11-6.55c0-.13-.15-.32.08-.39s.23.14.29.29a12.27,12.27,0,0,1,.64,2.79l.51,3.28c.28,1.26.41,2.54.67,3.81l.15.7A8.51,8.51,0,0,0,69.17,133.06Z"/><path class="cls-6" d="M127.65,122.88a25.43,25.43,0,0,1-2.66,3.37.66.66,0,0,0-.17.75,36,36,0,0,1,1.34,12.52,28.38,28.38,0,0,1-1.1,5.91.48.48,0,0,0,0,.44,21.56,21.56,0,0,0,1.47-2.53,31.76,31.76,0,0,0,3.56-6.87,19.06,19.06,0,0,0,.75-3.41,8.32,8.32,0,0,0,.13-.85c.3-1.5.55-3,.78-4.52a12.1,12.1,0,0,0,.41-2.38,21.75,21.75,0,0,1,.67-3.4c.05-.15.1-.29.16-.43s.14-.19.26-.15.09.17,0,.28-.08.34-.13.51a33.23,33.23,0,0,0-.86,5.25,65.34,65.34,0,0,1-1.77,10.12,27.26,27.26,0,0,1-3.2,6.44,27.37,27.37,0,0,1-3.15,4.33,3.25,3.25,0,0,0-.4.76,21.89,21.89,0,0,1-9.35,10.66,20.48,20.48,0,0,1-5.69,2c-.14,0-.27,0-.36-.09a.27.27,0,0,1,.12-.44,16.45,16.45,0,0,0,7.42-3.08c4.31-3.05,6.74-7.38,8.25-12.3a33.42,33.42,0,0,0,1.24-8.27,28.52,28.52,0,0,0-.17-5.62c-.24-1.6-.62-3.18-1-4.92a14.54,14.54,0,0,0-2.91,4.18c0,.05-.09.05-.14,0a13.4,13.4,0,0,1,2-3.7,46.81,46.81,0,0,1,4.3-4.83C127.65,122.66,127.64,122.77,127.65,122.88Z"/><path class="cls-21" d="M53.73,99.78h.33a.31.31,0,0,1,.32.19c0,.15-.12.24-.23.28a6.84,6.84,0,0,1-.89.23c-2,.46-3.93,1.26-6,1.62q-.61.11-1.23.18c-.1,0-.24,0-.26-.12s0-.23.15-.25c2.56-.51,4.93-1.71,7.52-2.14a2.26,2.26,0,0,1,.26,0Z"/><path class="cls-21" d="M153.85,102.3a23,23,0,0,1-3.64-.81,39.36,39.36,0,0,0-3.86-1.07,1.62,1.62,0,0,1-.44-.14c-.14-.06-.34-.13-.29-.31s.22-.19.39-.19a6.65,6.65,0,0,1,2.07.34c2,.56,3.86,1.33,5.85,1.77.17,0,.31.07.27.28S154,102.27,153.85,102.3Z"/><path class="cls-22" d="M45,97.56c.1,0,.21,0,.31,0,2,0,4.07,0,6.1-.12a11.42,11.42,0,0,1,1.85.11c.14,0,.35,0,.35.19s-.18.21-.34.22c-.61,0-1.23.08-1.85.07-1.73,0-3.45,0-5.17-.07A2,2,0,0,1,45,97.56Z"/><path class="cls-22" d="M155,97.7a3.12,3.12,0,0,1-1.05.21l-6.83,0h-.4c-.15,0-.34,0-.34-.21s.2-.18.35-.2a12.87,12.87,0,0,1,2.91-.08c1.57.11,3.14.07,4.71.09H155Z"/><path class="cls-22" d="M151.65,94.42a7.7,7.7,0,0,1-3.44.82,13.72,13.72,0,0,0-2,.24c-.15,0-.38.15-.44-.09s.19-.25.35-.3a2.76,2.76,0,0,1,.83-.22A15.4,15.4,0,0,0,151.65,94.42Z"/><path class="cls-22" d="M48.34,94.37l1.57.35a12.1,12.1,0,0,0,2.82.13,4.13,4.13,0,0,1,1.35.29.27.27,0,0,1,.19.24c0,.16-.14.16-.24.14-1.77-.41-3.64-.18-5.36-.85C48.56,94.63,48.33,94.67,48.34,94.37Z"/><path class="cls-21" d="M155.78,94.11a2.65,2.65,0,0,1-2.49.09A15.69,15.69,0,0,0,155.78,94.11Z"/><path class="cls-21" d="M44.22,94.16c.81.08,1.63,0,2.44.09A3,3,0,0,1,44.22,94.16Z"/><path class="cls-23" d="M89.11,159.67a4.36,4.36,0,0,1-1.22-.88,4.1,4.1,0,0,1,1.34.78Z"/><path class="cls-24" d="M112.09,158.87a6,6,0,0,1-1.2.8l-.12-.1,1.3-.86a.1.1,0,0,1,.05.1S112.1,158.87,112.09,158.87Z"/><path class="cls-4" d="M103.73,159.29a.54.54,0,0,1,.66.4C104.09,159.7,103.74,159.76,103.73,159.29Z"/><path class="cls-4" d="M95.61,159.69a.54.54,0,0,1,.66-.4C96.26,159.76,95.91,159.7,95.61,159.69Z"/><path class="cls-25" d="M90.32,159.4c-.1-.07-.37-.05-.23-.25s.24.06.35.15Z"/><path class="cls-25" d="M109.56,159.3c.11-.09.27-.27.35-.15s-.13.18-.23.25Z"/><path class="cls-6" d="M142.33,158a4.16,4.16,0,0,1,1.36,1.44c1.61,2.35,3.18,4.73,4.78,7.08a31.68,31.68,0,0,0,3.52,4.14,90.39,90.39,0,0,0,7.94,7.72,6.26,6.26,0,0,1,1.62,1.5A68.73,68.73,0,0,1,142.33,158Z"/><path class="cls-26" d="M140.57,172.8c1.58,4.2,3.41,8.29,4.9,12.51A75.32,75.32,0,0,1,140.57,172.8Z"/><path class="cls-27" d="M152.18,179.83c1.07,1.13,2.1,2.21,3.12,3.3.23.24.44.5.64.75a.23.23,0,0,1,0,.35.2.2,0,0,1-.29-.09c-1.12-1.42-2.47-2.63-3.5-4.13Z"/><path class="cls-27" d="M146.27,171.76a35.48,35.48,0,0,1-3.12-5.41l.18-.1,3.12,5.4Z"/><path class="cls-27" d="M138.22,160.81a37.89,37.89,0,0,1,1.39,6.12A33.89,33.89,0,0,1,138.22,160.81Z"/><path class="cls-28" d="M173.15,186.59,176.1,188a8.92,8.92,0,0,1-3-1.27Z"/><path class="cls-29" d="M169.51,185a9.28,9.28,0,0,1-2.62-1.47A12.74,12.74,0,0,1,169.51,185Z"/><path class="cls-30" d="M149.19,175.73a4.13,4.13,0,0,1,1.12,1.53A2.83,2.83,0,0,1,149.19,175.73Z"/><path class="cls-31" d="M162,178.92c-.3,0-.48,0-.58-.26a.2.2,0,0,1,.06-.16C161.76,178.48,161.85,178.7,162,178.92Z"/><path class="cls-32" d="M142.33,148.33c.11.31,0,.46-.28.53A.56.56,0,0,1,142.33,148.33Z"/><path class="cls-33" d="M129.85,169.64c-.16-.38.07-.56.09-.78C130.11,169.12,129.91,169.32,129.85,169.64Z"/><path class="cls-34" d="M133,184a.17.17,0,0,1,.19.15s-.08.12-.09.12a.51.51,0,0,1-.18-.14S133,184,133,184Z"/><path class="cls-6" d="M57.64,158.06a69.62,69.62,0,0,1-19.15,21.85,1.54,1.54,0,0,1,.64-.81,54,54,0,0,0,6.07-5.54c1.46-1.57,3-3.07,4.43-4.66a65.65,65.65,0,0,0,5-7.06c.73-1.06,1.39-2.16,2.21-3.15A1.64,1.64,0,0,1,57.64,158.06Z"/><path class="cls-26" d="M59.37,172.77c.1,1.21-4.09,11.79-5,12.65C56,181.09,57.85,177,59.37,172.77Z"/><path class="cls-27" d="M47.92,180c-.87,1.2-1.93,2.24-2.88,3.36-.21.26-.42.51-.64.76-.08.1-.19.21-.33.09s-.08-.26,0-.36c.22-.27.46-.53.69-.8.89-1,2-1.91,2.81-3A.21.21,0,0,1,47.92,180Z"/><path class="cls-35" d="M53.55,171.64c1.05-1.8,2.09-3.61,3.13-5.41l.17.1a36.83,36.83,0,0,1-3.1,5.42Z"/><path class="cls-27" d="M60.35,166.94c.4-2.06.72-4.14,1.35-6.29A21.46,21.46,0,0,1,60.35,166.94Z"/><path class="cls-28" d="M26.92,186.76a15.85,15.85,0,0,1-2.94,1.4l-.07-.14,2.95-1.43Z"/><path class="cls-29" d="M30.34,185c.89-.7,1.88-1,2.78-1.59A5.89,5.89,0,0,1,30.34,185Z"/><path class="cls-30" d="M49.7,177.27a4.91,4.91,0,0,1,1.22-1.7A3.41,3.41,0,0,1,49.7,177.27Z"/><path class="cls-31" d="M38,178.92c.14-.22.23-.44.52-.42a.2.2,0,0,1,.06.16C38.49,178.89,38.31,179,38,178.92Z"/><path class="cls-32" d="M58,148.86c-.31-.07-.39-.22-.29-.51A.51.51,0,0,1,58,148.86Z"/><path class="cls-33" d="M70,168.87a.82.82,0,0,1,.19.68A.78.78,0,0,1,70,168.87Z"/><path class="cls-34" d="M67,184.41c-.12-.21-.17-.26-.16-.31A.15.15,0,0,1,67,184s.11.09.1.14A1.16,1.16,0,0,1,67,184.41Z"/><path class="cls-21" d="M69.42,36.38c-1.09.41-1.33,1.43-2,2.12a27.15,27.15,0,0,1-2.35,2.68,1,1,0,0,1-.77.39c1.29-1.69,2.49-3.25,3.82-4.69C68.41,36.61,68.7,36.05,69.42,36.38Z"/><path class="cls-21" d="M64.18,42.05a40.27,40.27,0,0,1-2.14,6C61.78,47.29,63.21,43.25,64.18,42.05Z"/><path class="cls-21" d="M135.37,41.61a18.27,18.27,0,0,1-1.76-1.76,24.93,24.93,0,0,1-2.1-2.8,1.1,1.1,0,0,0-.92-.58c.37-.34.56-.18.8,0a18.84,18.84,0,0,1,2.59,3L135.25,41C135.37,41.14,135.6,41.29,135.37,41.61Z"/><path class="cls-21" d="M138,47.92a28.36,28.36,0,0,1-2.2-5.88A17.82,17.82,0,0,1,138,47.92Z"/><path class="cls-5" d="M78.6,29.32A36.93,36.93,0,0,1,95.13,22a25.48,25.48,0,0,1,8.3-.27A37.24,37.24,0,0,1,113,24.34a33.41,33.41,0,0,1,7.72,4.47l.66.55a2.6,2.6,0,0,1,.69.59l.22.21a16,16,0,0,1,2.43,2.37,9,9,0,0,1,1,1.2,28.71,28.71,0,0,1,4.18,6.87,29.08,29.08,0,0,1,2.39,10.64c0,1,0,1.92,0,2.88s-.14,2-.33,2.94a30.75,30.75,0,0,1-3.24,9.73A8.44,8.44,0,0,0,128,68c-.51.86-1.07,1.68-1.62,2.51-.75,1-1.57,2-2.4,2.92-.46.44-.89.89-1.34,1.33-.19.18-.38.37-.56.57l-.77.76a4.49,4.49,0,0,1-.46.41,3.24,3.24,0,0,0-.46.37l-.2.17a3.19,3.19,0,0,0-.47.35.71.71,0,0,1-.14.1,2.88,2.88,0,0,0-.56.43,11.88,11.88,0,0,1-2.77,1.58A6.26,6.26,0,0,0,115,80l-.17.08a3.42,3.42,0,0,0-.94.46,35.71,35.71,0,0,1-10.24,3.32,29,29,0,0,1-5,.18,25.68,25.68,0,0,1-5.74-.94,38.7,38.7,0,0,1-6.75-2.55,3.39,3.39,0,0,0-.93-.47L85,80a4.47,4.47,0,0,0-1.41-.58,10.64,10.64,0,0,1-2.77-1.6,2,2,0,0,0-.46-.4l-.14-.1a1.58,1.58,0,0,0-.48-.33.82.82,0,0,1-.2-.17,1.07,1.07,0,0,0-.48-.36,1.1,1.1,0,0,1-.46-.42,7,7,0,0,0-.74-.8c-.18-.19-.37-.38-.56-.56L76,73.39c-.82-1-1.65-1.9-2.4-2.92C73,69.63,72.46,68.82,72,68a7.53,7.53,0,0,0-.67-1.17,30.62,30.62,0,0,1-3.24-9.72c-.19-1-.21-2-.35-2.94,0-1,0-1.92,0-2.88a29.23,29.23,0,0,1,6.57-17.52,35.23,35.23,0,0,1,3.39-3.62l.23-.22A2.74,2.74,0,0,0,78.6,29.32Z"/><path class="cls-4" d="M68.21,57.15a34,34,0,0,0,3.22,9.61c.18.37.36.74.56,1.1a29.28,29.28,0,0,0,1.62,2.62,20.6,20.6,0,0,0,2.49,2.94c.43.41.78.89,1.22,1.3a5.09,5.09,0,0,0,.65.58l.76.73.39.36a2.64,2.64,0,0,1,.55.45.26.26,0,0,0,.09.09c.23.08.37.28.58.39h0a3.36,3.36,0,0,0,.54.39,15.51,15.51,0,0,0,2.75,1.62c.53.14,1,.48,1.49.65h0a8.5,8.5,0,0,0,1,.42,36,36,0,0,0,10.43,3.34,25.09,25.09,0,0,0,8.76-.34,46.46,46.46,0,0,0,8.61-3,8.5,8.5,0,0,0,1-.42h0a9.48,9.48,0,0,0,1.36-.66A14.58,14.58,0,0,0,119,77.74a2.9,2.9,0,0,0,.65-.42h0a1.68,1.68,0,0,0,.53-.46.13.13,0,0,1,.09-.07,1.4,1.4,0,0,0,.57-.45l.39-.35a4,4,0,0,0,.79-.69,2.71,2.71,0,0,0,.63-.59c.46-.38.8-.87,1.24-1.28a22,22,0,0,0,2.49-3A30.61,30.61,0,0,0,128,67.87c.2-.37.38-.74.56-1.11a34,34,0,0,0,3.22-9.61,12.51,12.51,0,0,0,.36-2.19,5.18,5.18,0,0,1,.08-1c0-.09.09-.11.17-.07h.13a12.55,12.55,0,0,0,.37,4.27,15.67,15.67,0,0,1,.73,2.51,11.36,11.36,0,0,1-.94,4,34.94,34.94,0,0,1-7.42,10.88c-1.32,1.24-2.69,2.42-4.08,3.59-.14.13-.49.17-.33.51-.15.5-.6.51-1,.64a.64.64,0,0,0-.65.22,20,20,0,0,1-4.29,2.25,52.66,52.66,0,0,1-10.46,3,31.65,31.65,0,0,1-3.88.49,28.6,28.6,0,0,1-6.39-.73,50.75,50.75,0,0,1-10.43-3.28,17.45,17.45,0,0,1-3-1.69.62.62,0,0,0-.64-.22c-.39-.13-.84-.14-1-.64.22-.3-.13-.32-.23-.42-1.25-1.12-2.55-2.19-3.78-3.33a32.76,32.76,0,0,1-8.24-12.41,8.55,8.55,0,0,1-.52-2.84,6.46,6.46,0,0,1,.55-1.88,10.79,10.79,0,0,0,.52-4.51,2.56,2.56,0,0,1,0-.39h.13a.11.11,0,0,1,.17.06,5.61,5.61,0,0,1,.08,1.08A13.31,13.31,0,0,0,68.21,57.15Z"/><path class="cls-36" d="M78.6,29.32a.86.86,0,0,1-.7.57A1.63,1.63,0,0,1,78.6,29.32Z"/><path class="cls-6" d="M80.74,80.42a42.93,42.93,0,0,0,14.6,5.14,26.54,26.54,0,0,0,3.86.53,32.41,32.41,0,0,0,9.4-1.38,37.09,37.09,0,0,0,10.66-4.29,1.74,1.74,0,0,1,.55-.16,3.87,3.87,0,0,0,1-.54c.42-.13,1-.64,1.21-.33s-.59.58-.82,1a37.25,37.25,0,0,1-42.5,0c-.26-.23-.53-.45-.78-.69-.07-.07-.19-.15-.13-.27s.23-.12.34-.08c.33.11.64.26,1,.39a3.87,3.87,0,0,0,1,.54A1.74,1.74,0,0,1,80.74,80.42Z"/><path class="cls-6" d="M121.57,94.94a2,2,0,0,1,.55,1,42.52,42.52,0,0,1,3,12.21,26.69,26.69,0,0,1,.37,4.28,22.88,22.88,0,0,1-2.36,9.81,12.31,12.31,0,0,1-2.52,3.22c-.16.15-.42.51-.63.27s.21-.36.36-.51a16.45,16.45,0,0,0,3.28-6.07,28.56,28.56,0,0,0,1-5.19c.41-3.18-.33-6.27-.74-9.39a77.67,77.67,0,0,0-2.27-9.29A2.89,2.89,0,0,1,121.57,94.94Z"/><path class="cls-6" d="M78.45,95a16.74,16.74,0,0,1-.7,2.79,51,51,0,0,0-1.94,9.16,28.23,28.23,0,0,0-.5,5.72c.28,4.14,1,8.15,3.57,11.59a14.52,14.52,0,0,0,1,1.19c.1.11.2.2.1.33s-.24,0-.33-.07A9.75,9.75,0,0,1,77,122.37,22.14,22.14,0,0,1,74.71,115c-.46-3.24.09-6.37.53-9.53A39.37,39.37,0,0,1,78,95.72a5.46,5.46,0,0,1,.27-.6C78.24,95.07,78.31,95.05,78.45,95Z"/><path class="cls-6" d="M118,93.84c.25,0,.28.21.34.33A39.78,39.78,0,0,1,121.67,106a38.61,38.61,0,0,1,.64,6.24,24.09,24.09,0,0,1-1.88,8.93,3.76,3.76,0,0,1-.81,1.28c-.15.16-.34.25-.51,0s.11-.23.2-.33a3.31,3.31,0,0,0,.39-.61,20.9,20.9,0,0,0,1.69-6.15c.1-.76.21-1.53.26-2.3a38.75,38.75,0,0,0-.73-7.36,57.4,57.4,0,0,0-3-11.69A.94.94,0,0,1,118,93.84Z"/><path class="cls-6" d="M82.08,93.85c-.38,1.21-.72,2.41-1.13,3.58a48.5,48.5,0,0,0-2,8.89,30.27,30.27,0,0,0-.64,6.84,23.93,23.93,0,0,0,1.92,8.38c.12.26.21.55.49.68s.26.11.15.27a.28.28,0,0,1-.41.08A1.57,1.57,0,0,1,80,122,15.09,15.09,0,0,1,78.25,117a23.31,23.31,0,0,1-.56-5.65c.13-2,.47-4,.76-6a36.8,36.8,0,0,1,2.41-9.11c.27-.65.54-1.3.82-2C81.74,94.06,81.77,93.86,82.08,93.85Z"/><path class="cls-6" d="M83.17,129.11a1.69,1.69,0,0,1,1,.85,12.24,12.24,0,0,1,2.25,7.13,26.08,26.08,0,0,0,1.75,9.81,20.11,20.11,0,0,0,1.37,2.47c-.53-.21-.66-.59-.86-.89a20.3,20.3,0,0,1-2.53-7.16c-.41-1.93-.28-3.91-.54-5.84A15.23,15.23,0,0,0,83.17,129.11Z"/><path class="cls-6" d="M110.55,149.27a15.66,15.66,0,0,0,2.16-5.07,29.47,29.47,0,0,0,.86-7.19,12,12,0,0,1,2.25-7.06,1.53,1.53,0,0,1,1-.83,15.45,15.45,0,0,0-2.42,6c-.17,1-.14,2.07-.22,3.1a22.61,22.61,0,0,1-2.87,10.24C111.13,148.76,111,149.12,110.55,149.27Z"/><path class="cls-7" d="M116.11,155.16c4.73-6.66,7.37-14,7-22.36a2.16,2.16,0,0,1,.35,1.34,26.36,26.36,0,0,1-1.15,8.59c-.84,2.36-1.35,4.83-2.52,7.08a41.63,41.63,0,0,1-3.56,5.24S116.16,155.12,116.11,155.16Z"/><path class="cls-7" d="M76.71,133c1.09,11.07.06,8.82,7.25,22.14-.72-.32-3.64-4.65-4.4-6.58a67.88,67.88,0,0,1-2.41-7.61A21.7,21.7,0,0,1,76.71,133Z"/><path class="cls-6" d="M118.88,142.33a23.24,23.24,0,0,1-2.59,8,22.78,22.78,0,0,1-6.36,7,47.46,47.46,0,0,0,5.67-6.76C117.22,148,117.94,145.12,118.88,142.33Z"/><path class="cls-6" d="M81.12,142.33c.93,2.79,1.65,5.67,3.26,8.16a37.68,37.68,0,0,0,5.79,6.71c-1-.11-4.77-4-6.19-6.4A24.21,24.21,0,0,1,81.12,142.33Z"/><path class="cls-7" d="M117.13,101.43c1.06,5.42.39,10.77-.63,16.11.24-2.67.57-5.34.82-8S117.12,104.13,117.13,101.43Z"/><path class="cls-7" d="M82.91,101.43c0,2.68-.49,5.35-.24,8s.58,5.36.91,8C82.49,116.25,81.91,103.3,82.91,101.43Z"/><path class="cls-7" d="M88,141.32c.58,2.19.91,4.46,2.3,6.35a34.34,34.34,0,0,0,4.59,5.23C91.77,151.69,87.68,144.76,88,141.32Z"/><path class="cls-7" d="M111.94,141.3c-.06,5.12-3,8.56-6.64,11.56C108.52,149.6,111.54,146.22,111.94,141.3Z"/><path class="cls-7" d="M110.31,154.86a43.69,43.69,0,0,0,3.34-4,16.33,16.33,0,0,0,2.83-6.25,9.57,9.57,0,0,1,1.2-3c.18-.25.32-.6.84-.48-1.51,1.73-1.84,3.9-2.5,5.93a16.71,16.71,0,0,1-3,4.94c-.49.65-1,1.27-1.54,1.9A2.57,2.57,0,0,1,110.31,154.86Z"/><path class="cls-7" d="M89.72,154.83a3.45,3.45,0,0,1-1.63-1.4,27.73,27.73,0,0,1-3.55-5,18.68,18.68,0,0,1-.92-2.6c-.54-1.61-.85-3.34-2.18-4.67.58-.12.72.25.9.52a9.38,9.38,0,0,1,1.3,3.37c.84,3.82,3.18,6.69,5.77,9.43C89.52,154.6,89.62,154.72,89.72,154.83Z"/><path class="cls-37" d="M114.5,147a11.25,11.25,0,0,1-2.63,4.47,12.74,12.74,0,0,1-4.2,3.06.81.81,0,0,1-.68.11,15.94,15.94,0,0,0,7.38-7.78C114.49,146.8,114.57,146.82,114.5,147Z"/><path class="cls-37" d="M85.63,146.82a16.37,16.37,0,0,0,7.25,7.79,6.92,6.92,0,0,1-2.51-1.23,12.88,12.88,0,0,1-4.76-6c0-.12-.07-.25-.11-.38S85.51,146.8,85.63,146.82Z"/><path class="cls-7" d="M113.91,155.8c2.2-2.79,3.56-6,5-9.23A22.22,22.22,0,0,1,113.91,155.8Z"/><path class="cls-7" d="M81.14,146.54c1.4,3.22,2.75,6.47,5.15,9.32C84.77,155.11,81,148.3,81.14,146.54Z"/><path class="cls-7" d="M117,135.22a16,16,0,0,1,3.76-7.74.23.23,0,0,1,0,.29A23.1,23.1,0,0,0,117,135.22Z"/><path class="cls-7" d="M83,135.2a17.34,17.34,0,0,1-1-2.62A11.93,11.93,0,0,0,80.62,130a9.88,9.88,0,0,1-1.54-2.53C80.55,128.6,82.67,132.77,83,135.2Z"/><path class="cls-38" d="M118.09,125.46c-1.13,1.86-2.53,3.54-3.5,5.5A17,17,0,0,1,118.09,125.46Z"/><path class="cls-39" d="M81.92,125.46a17.09,17.09,0,0,1,3.49,5.5C84.45,129,83,127.33,81.92,125.46Z"/><path class="cls-38" d="M112.33,96.74a21.46,21.46,0,0,1-3.5-5.76C110,92.93,111,94.89,112.33,96.74Z"/><path class="cls-38" d="M87.68,96.74c1.27-1.85,2.38-3.8,3.48-5.76A20.9,20.9,0,0,1,87.68,96.74Z"/><path class="cls-40" d="M104.63,93.9c-1-1.9-2.34-3.68-2.64-5.91C102.55,90.11,103.82,91.9,104.63,93.9Z"/><path class="cls-40" d="M98,88c-.3,2.24-1.6,4-2.65,5.91C96.17,91.9,97.46,90.12,98,88Z"/><path class="cls-38" d="M109.12,94.69c-1.19-1.52-2.26-3.12-3.31-4.74l.19-.13,3.28,4.77Z"/><path class="cls-38" d="M90.72,94.58,94,89.81l.17.12a55.56,55.56,0,0,1-3.31,4.77Z"/><path class="cls-38" d="M116.44,97.48a9.34,9.34,0,0,1-.73-4.16l.89,4.13Z"/><path class="cls-38" d="M84.35,93.33a9.19,9.19,0,0,1-.87,4.13C83.69,96.07,84.05,94.71,84.35,93.33Z"/><path class="cls-41" d="M103.74,88.77a25.39,25.39,0,0,0,1.47,3.58A5.33,5.33,0,0,1,103.74,88.77Z"/><path class="cls-41" d="M96.31,88.8a6.78,6.78,0,0,1-1.46,3.59C95.36,91.21,95.85,90,96.31,88.8Z"/><path class="cls-41" d="M119.18,127.6a20.16,20.16,0,0,0-1.77,3.5A6.13,6.13,0,0,1,119.18,127.6Z"/><path class="cls-41" d="M80.8,127.61a6,6,0,0,1,1.8,3.48A18.51,18.51,0,0,0,80.8,127.61Z"/><path class="cls-42" d="M85.63,146.82l-.13.14a14.23,14.23,0,0,1-1-4.36C84.87,144,85.15,145.44,85.63,146.82Z"/><path class="cls-43" d="M114.5,147l-.13-.14c.48-1.39.77-2.83,1.15-4.24A13.78,13.78,0,0,1,114.5,147Z"/><path class="cls-42" d="M82.72,136.16a9,9,0,0,1,1.12,3.93Z"/><path class="cls-44" d="M116.2,140a8.65,8.65,0,0,1,1.08-3.81Z"/><path class="cls-45" d="M84.47,126.58l-1.42-2.4a.17.17,0,0,1,0-.23c.13-.12.22,0,.27.06A8.2,8.2,0,0,1,84.47,126.58Z"/><path class="cls-45" d="M115.54,126.58a8.66,8.66,0,0,1,1.09-2.55c.05-.09.14-.18.26-.1s.1.17,0,.28C116.46,125,116,125.79,115.54,126.58Z"/><path class="cls-46" d="M121.27,134a2.79,2.79,0,0,1-.28,2.91A7.54,7.54,0,0,0,121.27,134Z"/><path class="cls-47" d="M79,136.9a2.78,2.78,0,0,1-.31-2.9A7.69,7.69,0,0,0,79,136.9Z"/><path class="cls-40" d="M80.54,145.41a2.75,2.75,0,0,1-.63-2.14A5.36,5.36,0,0,1,80.54,145.41Z"/><path class="cls-40" d="M120.09,143.28a2.53,2.53,0,0,1-.55,2.11A3.33,3.33,0,0,1,120.09,143.28Z"/><path class="cls-48" d="M78.44,137.51a16,16,0,0,1,.55,2.65A3.75,3.75,0,0,1,78.44,137.51Z"/><path class="cls-48" d="M121.6,137.51a5.68,5.68,0,0,1-.49,2.61A7.46,7.46,0,0,1,121.6,137.51Z"/><path class="cls-40" d="M85.17,127.9a17.37,17.37,0,0,1,.87,2.61l-.17.06L85,128Z"/><path class="cls-40" d="M114,130.5a8,8,0,0,1,1-2.56l-.85,2.64Z"/><path class="cls-39" d="M124.16,123.78a3,3,0,0,1-1.5,1.44Z"/><path class="cls-39" d="M77.17,125.39a15.47,15.47,0,0,1-1.24-1.26Z"/><path class="cls-38" d="M79.68,123,81,124.47l0,0-1.42-1.37Z"/><path class="cls-38" d="M120.47,123.16a5.21,5.21,0,0,1-1.48,1.32l1.33-1.46Z"/><path class="cls-49" d="M110,96.72c.08.16.34.13.35.39a4.66,4.66,0,0,1-1.54-.64C109.25,96.11,109.53,96.76,110,96.72Z"/><path class="cls-49" d="M91.25,96.46a6.2,6.2,0,0,1-1.53.68c0-.25.16-.33.29-.43C90.44,96.71,90.77,96.23,91.25,96.46Z"/><path class="cls-50" d="M78.6,130.9l0-.18c.26.56.63,1.1.32,1.76A9.46,9.46,0,0,0,78.6,130.9Z"/><path class="cls-50" d="M121.22,131.13h.14a6.43,6.43,0,0,0-.31,1.24C120.73,131.91,121,131.52,121.22,131.13Z"/><path class="cls-48" d="M113.48,133.09c-.14-.39.09-.6.22-.85A1.05,1.05,0,0,1,113.48,133.09Z"/><path class="cls-48" d="M86.54,133.05c-.29-.22-.24-.52-.25-.81A.89.89,0,0,1,86.54,133.05Z"/><path class="cls-51" d="M80.86,139.46a.5.5,0,0,1-.37-.4C80.72,139.09,80.79,139.23,80.86,139.46Z"/><path class="cls-52" d="M102.06,156.24l0-.25.11-.22s.13.07.13.1S102.26,156.2,102.06,156.24Z"/><path class="cls-53" d="M97.89,156v.27a1.79,1.79,0,0,1-.2-.26c0-.07-.09-.19,0-.22S97.86,155.89,97.89,156Z"/><path class="cls-54" d="M101.51,95.39l.39.23c-.35.13-.46-.06-.58-.22Z"/><path class="cls-54" d="M98.68,95.4a.82.82,0,0,1-.55.4l.36-.41Z"/><path class="cls-5" d="M140.15,99.63c-1-1.26-2-2.37-2.89-3.51-3.18-4-6.5-7.83-9.84-11.66-1.28-1.46-1.3-1.63.32-2.58,1.25-.75,2.4-1.66,3.66-2.39.39-.23.57-.22.75.27,2.24,6.1,4.78,12.08,7.37,18A4.85,4.85,0,0,1,140.15,99.63Z"/><path class="cls-5" d="M59.84,99.59a4.74,4.74,0,0,1,.57-1.66c2.52-5.66,4.84-11.39,7.1-17.15a2.5,2.5,0,0,0,.09-.25c.49-1.4.52-1.44,1.77-.56s2.62,1.73,4,2.55c.4.25.26.44.09.73a27,27,0,0,1-3.17,3.9C66.85,91,63.67,95,60.39,99Z"/><path class="cls-3" d="M87.53,104.39l.54,1.1H86.73c-.37,0-.29-.28-.27-.48.09-1.28.31-2.55.28-3.83a2.88,2.88,0,0,1,1.64-2.9c.47-.25.81-.75,1.44-.65a.8.8,0,0,0,.44-.13,4.15,4.15,0,0,1,3-.51,1,1,0,0,0,.71-.13c.43-.25.86-.51,1.26.06a.22.22,0,0,0,.18.06c1.17-.3,2.5,0,3.49-1s1.13-1.13,2.31,0a1.77,1.77,0,0,0,1.68.7c.37-.08.8.17,1.21.26a.9.9,0,0,0,1.07-.29c.15-.24.27-.14.42,0a2.68,2.68,0,0,0,2.29.26,1,1,0,0,1,.76.15,4.51,4.51,0,0,0,2.06.63.66.66,0,0,1,.46.23c.17.14.31.35.51.42,1.59.62,1.59,2,1.65,3.36,0,1.06.15,2.12.27,3.17,0,.52-.08.74-.63.67a7.8,7.8,0,0,0-1,0l.53-1.12c-.08,0-.15-.06-.16-.05-.66,1-1.55.85-2.54.61a6.76,6.76,0,0,0-3.72.35,2.61,2.61,0,0,0-1.4,1.07c-.1.16-.2.31-.06.48s.3.13.48,0a10.32,10.32,0,0,1,5.37-.84c.51,0,1,.16,1.12.83a.39.39,0,0,0,.64.29c.28-.21.46-.06.71,0,.65.1.78.45.83,1.06a31.39,31.39,0,0,1-.08,5c-.13,1.9-.26,3.79-.56,5.67a11.52,11.52,0,0,1-4.79,7.34,16.07,16.07,0,0,1-5.54,3A9.81,9.81,0,0,1,94.53,128a24.92,24.92,0,0,1-4.13-2.86,11.53,11.53,0,0,1-3.67-7.33c-.26-2.82-.54-5.64-.53-8.47a6.32,6.32,0,0,0,0-1.06c-.14-.84.39-1.09,1-1.26.07,0,.15-.1.18-.08.76.56.91,0,1.17-.56.15-.31.59-.38,1-.4a10.43,10.43,0,0,1,5.37.86.33.33,0,0,0,.47-.06c.13-.17,0-.33-.08-.48A3.74,3.74,0,0,0,92.65,105a6.72,6.72,0,0,0-3.53.22.6.6,0,0,1-.72-.19c-.22-.27-.42-.55-.63-.82Z"/><path class="cls-3" d="M91.64,132.07c.23-.42.49-.84.7-1.27a3.81,3.81,0,0,0-.13-3.4q7.85,5.81,15.55-.08c0,.08,0,.13,0,.15a4.19,4.19,0,0,0,.56,4.6c0,.06,0,.14,0,.17-.51.3-.26.48.09.65a.32.32,0,0,1,.14.14,2.26,2.26,0,0,1-.06,1.43,20.45,20.45,0,0,1-3.7,8.39,1.72,1.72,0,0,1-.46.47,16.57,16.57,0,0,1-2.78,1.5,1.69,1.69,0,0,1-.62.17c-.64,0-1.28,0-1.92,0a1.39,1.39,0,0,1-.63-.15,23.85,23.85,0,0,1-2.76-1.52A9,9,0,0,1,93.93,141a20.92,20.92,0,0,1-2.54-7,1.57,1.57,0,0,1,0-.91.39.39,0,0,1,.18-.18c.41-.17.49-.37.06-.63C91.6,132.21,91.6,132.13,91.64,132.07Z"/><path class="cls-2" d="M104.25,143.22a16.07,16.07,0,0,0,3.06-5.26,13.79,13.79,0,0,0,1.17-5c-.11-.23-.19-.44.15-.55a7.2,7.2,0,0,1,1.05,3.58,15.59,15.59,0,0,1-.58,5.51,27.81,27.81,0,0,1-5.24,10.25,5.27,5.27,0,0,1-.92,1.19.77.77,0,0,1-1.17-.08,4.53,4.53,0,0,1-1.23-2.86c-.07-1.45-.11-2.91-.15-4.37.28-.58.89-.7,1.39-1A9,9,0,0,0,104.25,143.22Z"/><path class="cls-2" d="M91.51,133a14,14,0,0,0,1.18,5,16.07,16.07,0,0,0,3.06,5.26,10,10,0,0,0,2.47,1.49c.46.33,1.14.33,1.39.95,0,1.46-.09,2.92-.15,4.37a4.56,4.56,0,0,1-1.23,2.86.73.73,0,0,1-1.11.11,1.63,1.63,0,0,1-.39-.35,30.25,30.25,0,0,1-6.12-12.28,13.57,13.57,0,0,1,.1-6.49,3.64,3.64,0,0,1,.66-1.44C91.71,132.55,91.63,132.77,91.51,133Z"/><path class="cls-55" d="M99.61,145.66l-1.46-.85c0-.24.11-.2.26-.13a.82.82,0,0,0,.53.14,6.85,6.85,0,0,0,2.12,0l.53-.14c.15-.07.27-.11.26.13a6.26,6.26,0,0,0-1.46.85A1.71,1.71,0,0,0,99.61,145.66Z"/><path class="cls-56" d="M86.5,105.65c.29.34.71.2,1.09.32-.07.58-.54.73-.94.94-.2.11-.34,0-.32-.24A2.11,2.11,0,0,1,86.5,105.65Z"/><path class="cls-56" d="M113.52,105.59a1.75,1.75,0,0,1,.11.4c0,.31.21.81-.08.9s-.77-.25-1-.58-.17-.4.2-.4A.82.82,0,0,0,113.52,105.59Z"/><path class="cls-57" d="M91.51,133c0-.18,0-.4-.14-.55l.27-.37a.39.39,0,0,1,.08.1c.15.18.6.07.52.38A.67.67,0,0,1,91.51,133Z"/><path class="cls-57" d="M108.63,132.44c-.17.15-.1.37-.15.55a.66.66,0,0,1-.72-.44c-.06-.35.48-.2.6-.48A.7.7,0,0,1,108.63,132.44Z"/><path class="cls-58" d="M97.27,154.12c.51-.46.67,0,1.1,0C97.89,154.3,97.69,154.06,97.27,154.12Z"/><path class="cls-58" d="M101.85,154.26c.21-.2.38-.58.79-.21Z"/><path class="cls-59" d="M112.09,158.87l0-.16c.11-.09.18-.24.39-.19A.52.52,0,0,1,112.09,158.87Z"/><path class="cls-60" d="M131.74,127.69a18.64,18.64,0,0,1-.68,4.63c-.31-.11-.14-.34-.11-.53A17.39,17.39,0,0,1,131.74,127.69Z"/><path class="cls-61" d="M131,131.79c0,.18,0,.38.11.53-.11.24,0,.53-.23.74C130.86,132.64,130.72,132.2,131,131.79Z"/><path class="cls-62" d="M68.94,132.32a21.36,21.36,0,0,1-.72-4.63,10.31,10.31,0,0,1,.68,2.85c.09.46.1.92.15,1.38C69.09,132.08,69.21,132.25,68.94,132.32Z"/><path class="cls-63" d="M68.94,132.32c.13-.11.09-.26.11-.4.23.36.09.76.12,1.14C69,132.85,69.06,132.55,68.94,132.32Z"/><path class="cls-4" d="M128,51.4c-.55,11.56-5.8,20.05-16.38,25.11a31.71,31.71,0,0,1-9.84,3,2.31,2.31,0,0,1-1.49-.12c-.09,0-.23-.11-.3-.08-1.5.63-3,0-4.35-.28a31.73,31.73,0,0,1-15.82-8.57A26.84,26.84,0,0,1,72.34,55a24,24,0,0,1,5-18.5,21.59,21.59,0,0,1,4.74-4.8c4.13-2.88,8.39-5.52,13.47-6.42a25.08,25.08,0,0,1,13.29,1.23,36.54,36.54,0,0,1,7,3.77,26.6,26.6,0,0,1,5,4,25.28,25.28,0,0,1,6.81,13A23.36,23.36,0,0,1,128,51.4Z"/><path class="cls-64" d="M126.46,70.56a12.76,12.76,0,0,1-2.53,3,.15.15,0,0,1,0-.21l2.4-2.9C126.43,70.38,126.49,70.43,126.46,70.56Z"/><path class="cls-65" d="M126.46,70.56l-.16-.16,1.62-2.52a.1.1,0,0,1,.15,0A14.8,14.8,0,0,1,126.46,70.56Z"/><path class="cls-66" d="M123.9,73.3l0,.21a6.22,6.22,0,0,1-1.23,1.28c-.1,0-.16,0-.11-.12A10,10,0,0,1,123.9,73.3Z"/><path class="cls-67" d="M116.24,79.32a2.28,2.28,0,0,1-1.36.66A3.2,3.2,0,0,1,116.24,79.32Z"/><path class="cls-68" d="M128.07,67.89h-.15a3.82,3.82,0,0,1,.65-1.12A2.4,2.4,0,0,1,128.07,67.89Z"/><path class="cls-69" d="M122.59,74.67l.11.12a1.25,1.25,0,0,1-.63.59c-.07-.06-.07-.11,0-.18Z"/><path class="cls-70" d="M122.06,75.2v.18c-.26.23-.43.58-.83.61Z"/><path class="cls-67" d="M114.88,80a1.33,1.33,0,0,1-1,.42A1.85,1.85,0,0,1,114.88,80Z"/><path class="cls-71" d="M119.66,77.32a.67.67,0,0,1-.65.42A1,1,0,0,1,119.66,77.32Z"/><path class="cls-72" d="M120.85,76.34a.56.56,0,0,1-.57.45A1.48,1.48,0,0,1,120.85,76.34Z"/><path class="cls-73" d="M120.19,76.86a.53.53,0,0,1-.53.46C119.75,77.06,120,77,120.19,76.86Z"/><path class="cls-74" d="M119.81,80.26c-.16.12-.3.32-.55.16C119.36,80.09,119.57,80.1,119.81,80.26Z"/><path class="cls-74" d="M80.74,80.42c-.25.16-.39,0-.55-.16C80.43,80.1,80.64,80.09,80.74,80.42Z"/><path class="cls-6" d="M100,116.9a34.29,34.29,0,0,1,4.18.17c.47,0,.83.19.71.78-.42,2.14-1.2,4.06-3.2,5.25a3.12,3.12,0,0,1-3.44,0c-2-1.19-2.78-3.11-3.21-5.25-.11-.59.25-.74.72-.78A35.37,35.37,0,0,1,100,116.9Z"/><path class="cls-4" d="M110.89,111.62a1.94,1.94,0,0,1-1.18,1.82,2.56,2.56,0,0,1-2.77-.42,1.82,1.82,0,0,1-.81-1.9,1.78,1.78,0,0,1,1.46-1.37,4.79,4.79,0,0,1,1.66-.35C110.26,109.52,110.89,110.34,110.89,111.62Z"/><path class="cls-4" d="M89.1,111.59c0-1.59,1-2.38,2.37-2.1A8.24,8.24,0,0,1,93,110a1.7,1.7,0,0,1,.73,2.33,2.73,2.73,0,0,1-2.28,1.39,2.12,2.12,0,0,1-2-1A3,3,0,0,1,89.1,111.59Z"/><path class="cls-6" d="M107.33,99.68a18.88,18.88,0,0,1,4.19.5,3,3,0,0,1,.5.18c.22.12.4.31.3.59a.42.42,0,0,1-.54.27,19.3,19.3,0,0,0-5.52-.38c-.28,0-.57,0-.85,0s-.44-.09-.49-.35a.43.43,0,0,1,.39-.52A9.19,9.19,0,0,1,107.33,99.68Z"/><path class="cls-6" d="M92.45,100.8a14.8,14.8,0,0,0-4,.39c-.29.1-.61.08-.73-.26s.14-.52.43-.63a7.75,7.75,0,0,1,2.06-.45,12.91,12.91,0,0,1,4.34.07c.28.07.6.14.57.51s-.39.42-.7.4A17.3,17.3,0,0,1,92.45,100.8Z"/><path class="cls-75" d="M102,113.32c.17,0,.31.05.29.26s-.13.29-.31.25-.33-.08-.32-.27S101.81,113.33,102,113.32Z"/><path class="cls-76" d="M98.39,113.55a.4.4,0,0,1-.43.28.25.25,0,0,1-.23-.28c0-.21.16-.23.32-.23A.35.35,0,0,1,98.39,113.55Z"/><path class="cls-77" d="M101.85,144.81c0-.1-.15-.12-.26-.13.94-.39,1.76-1,2.66-1.46A6.47,6.47,0,0,1,101.85,144.81Z"/><path class="cls-77" d="M98.41,144.68c-.11,0-.21,0-.26.13a6.47,6.47,0,0,1-2.4-1.59C96.65,143.69,97.47,144.29,98.41,144.68Z"/><path class="cls-77" d="M101.06,144.82a3.49,3.49,0,0,1-2.12,0Z"/><path class="cls-5" d="M99.55,77.58A31.86,31.86,0,0,1,91,75.45c-5.87-2.53-10.69-6.3-13.84-12a22,22,0,0,1-2.78-8.8,20.47,20.47,0,0,1,.77-6.36,27.77,27.77,0,0,1,5.45-11.68,25.68,25.68,0,0,1,12.45-8.46c8-2.48,15.16-.72,21.76,4.11,5.48,4,8.45,9.58,10,16a29.38,29.38,0,0,1,.78,5.1,16.22,16.22,0,0,1-1.13,6.23c-2.48,7.22-7.58,12-14.3,15.27a31.13,31.13,0,0,1-9.74,2.66A1,1,0,0,1,99.55,77.58Z"/><path class="cls-3" d="M100,117.58c1.22.18,2.47-.25,3.68.24.2.08.42.12.3.38-.58,1.19-.76,2.55-1.87,3.5-2,1.73-4,.64-5.07-1a13.66,13.66,0,0,1-.94-2.25c-.13-.32-.1-.46.29-.61,1-.39,2.1-.09,3.15-.21C99.68,117.57,99.84,117.58,100,117.58Z"/><path class="cls-78" d="M105.74,41.84c.41.45,1,.38,1.5.38,3,0,6.05.41,9.08.33l2.59,0c.41,0,.83.05,1,.5s-.14.71-.45,1c-2.54,2.34-5.26,4.48-7.91,6.7a.76.76,0,0,0-.27,1,52.38,52.38,0,0,0,2.38,4.81c1.48,2.84,2.91,5.71,4.37,8.56a1.1,1.1,0,0,1-.21,1.4c-.39.4-.83.2-1.22,0-.55-.27-1.09-.58-1.62-.9-3.6-2.15-7.41-3.86-11.17-5.7-1.15-.56-2.33-1.07-3.49-1.61a.54.54,0,0,0-.54-.07c-3,1.38-6,2.81-8.92,4.27-2.36,1.16-4.69,2.38-6.94,3.75a4,4,0,0,1-.66.32c-.37.14-.76.29-1.1-.08a1.07,1.07,0,0,1-.24-1.28c.69-1.36,1.4-2.71,2.06-4.09,1.17-2.43,2.48-4.79,3.74-7.17.36-.68.61-1.42,1-2.11a.86.86,0,0,0-.3-1.23c-2-1.63-4-3.3-6-5-.71-.6-1.39-1.23-2.09-1.84a.72.72,0,0,1-.25-.77.61.61,0,0,1,.58-.48,10.13,10.13,0,0,1,1.46-.06,75,75,0,0,0,8.35-.22,26,26,0,0,1,2.79-.06,1,1,0,0,0,.91-.37c.13.07,0,.26.2.32.81-1.62,1.49-3.29,2.3-4.91.12-.23.19-.5.44-.64a.22.22,0,0,1,.2.19.9.9,0,0,1-.09.51c-.7,1.75-1.4,3.49-2.09,5.24a.84.84,0,0,1-.82.64c-3.38,0-6.75.36-10.14.41-.71,0-1.4-.19-2.11-.14-.15,0-.32,0-.44.12s.27.38.46.52c2.61,2,5.16,4,7.72,6,.65.51.71.65.37,1.4s-.74,1.36-1.11,2c-.79,1.46-1.58,2.93-2.33,4.4-1.25,2.45-2.55,4.86-3.75,7.33a1.51,1.51,0,0,0-.09.18c-.06.16-.21.33,0,.48s.39,0,.54-.08a9.83,9.83,0,0,1,2-1.29c4.6-2.42,9-5.15,13.58-7.66a2.1,2.1,0,0,1,2.16,0c3.31,1.88,6.62,3.75,9.91,5.67,1.35.79,2.77,1.48,4.14,2.25a10.77,10.77,0,0,1,1.42,1c.16.12.35.26.54.1s0-.37,0-.53q-2.68-5.34-5.49-10.62c-.55-1-1.13-2.05-1.68-3.09-.47-.87-.39-1.07.37-1.67,2.54-2,5.08-4,7.67-5.92.17-.13.39-.22.43-.51a2.34,2.34,0,0,0-1.23-.07,29.58,29.58,0,0,1-6-.11,8.37,8.37,0,0,0-1,0c-1.5.08-3-.19-4.5-.14a.7.7,0,0,1-.75-.44c-.77-1.91-1.55-3.81-2.27-5.74a.44.44,0,0,1,0-.2.25.25,0,0,1,.19-.2c.27.13.33.4.45.63.75,1.48,1.38,3,2.11,4.51.06.13.06.3.22.38C105.69,42,105.64,41.92,105.74,41.84Z"/><path class="cls-79" d="M97.11,36.68l-2.34,5.06a.82.82,0,0,1-.11.23c-.17.21-.17.68-.49.58s.1-.45,0-.69l5-11.18c.11-.25.15-.57.4-.74a.76.76,0,0,1,1,.34l5.1,11.56,0,.12c0,.2.39.44.06.6s-.31-.24-.39-.41q-1.14-2.44-2.26-4.88l-.29-.6c-.34-.22-.41-.62-.61-.93-.68-1.4-1.24-2.87-1.94-4.26-.08-.17-.11-.43-.36-.41s-.25.24-.32.39a34.76,34.76,0,0,0-1.77,4.12.64.64,0,0,1-.14.22C97.48,36.05,97.44,36.47,97.11,36.68Z"/><path class="cls-4" d="M97.61,35.74a47.4,47.4,0,0,1,2-4.44c.11-.24.21-.56.5-.55s.28.36.39.57c.7,1.44,1.35,2.89,1.94,4.38a6.26,6.26,0,0,1,.39,1.1q1.17,2.93,2.33,5.86a.5.5,0,0,0,.53.37c2.32.08,4.64.12,7,.3a40,40,0,0,0,5.36,0c.25,0,.64-.19.76.16s-.3.5-.52.67c-2.72,2-5.36,4.11-8,6.17-.39.3-.43.54-.24.91.6,1.13,1.2,2.26,1.79,3.4l5.69,10.93c.1.2.18.38,0,.54a.49.49,0,0,1-.66.06c-5.08-3.23-10.43-6-15.6-9a2.11,2.11,0,0,0-2.28,0C94.24,59.73,89.69,62.47,85,65a7.15,7.15,0,0,0-1.57,1.1.56.56,0,0,1-.78.09c-.31-.23-.11-.45,0-.69q3-5.82,6-11.65c.44-.86,1-1.66,1.37-2.56a.64.64,0,0,0-.24-.92c-2.67-2.06-5.31-4.17-8-6.17-.13-.09-.24-.2-.37-.28a.34.34,0,0,1-.17-.4c0-.2.23-.15.38-.16.69,0,1.37.1,2,.11,2.92,0,5.83-.22,8.75-.36.61,0,1.24,0,1.85,0a.53.53,0,0,0,.61-.36c.76-2,1.54-3.91,2.32-5.86A4.67,4.67,0,0,1,97.61,35.74Z"/><path class="cls-80" d="M102.78,36.8a2.15,2.15,0,0,1-.39-1.1,3.09,3.09,0,0,1,.5,1Z"/><path class="cls-80" d="M97.61,35.74a2.24,2.24,0,0,1-.39,1.06l-.11-.12A2.44,2.44,0,0,1,97.61,35.74Z"/></svg>