<svg id="Layer_1" data-name="Layer 1" xmlns="http://www.w3.org/2000/svg" viewBox="0 0 200 200"><defs><style>.cls-1{fill:#d2a36c;}.cls-2{fill:#9b74b2;}.cls-3{fill:#b391c3;}.cls-4{fill:#f89e1b;}.cls-5{fill:#846848;}.cls-6{fill:#323140;}.cls-7{fill:#9d74b2;}.cls-8{fill:#d3a46d;}.cls-9{fill:#866a49;}.cls-10{fill:#fdfdfd;}.cls-11{fill:#a78352;}.cls-12{fill:#9f78b5;}.cls-13{fill:#a680b9;}.cls-14{fill:#f5a32a;}.cls-15{fill:#efa844;}.cls-16{fill:#a475ac;}.cls-17{fill:#eeac4b;}.cls-18{fill:#9d75b2;}.cls-19{fill:#b37eb4;}.cls-20{fill:#c38f9d;}.cls-21{fill:#c38f97;}.cls-22{fill:#d6ad8e;}.cls-23{fill:#e2c19d;}.cls-24{fill:#4f4071;}.cls-25{fill:#fefefe;}.cls-26{fill:#3a3949;}.cls-27{fill:#3c3a4b;}.cls-28{fill:#333241;}.cls-29{fill:#f4f2f6;}.cls-30{fill:#373447;}.cls-31{fill:#3b394a;}.cls-32{fill:#3f3b50;}.cls-33{fill:#433c54;}.cls-34{fill:#d7cfdf;}.cls-35{fill:#e2dce7;}.cls-36{fill:#e6e2eb;}.cls-37{fill:#464156;}.cls-38{fill:#e4d9ea;}.cls-39{fill:#baacc9;}.cls-40{fill:#5e4a78;}.cls-41{fill:#454055;}.cls-42{fill:#7a589d;}.cls-43{fill:#514466;}.cls-44{fill:#a290b7;}.cls-45{fill:#f6f3f8;}.cls-46{fill:#e4dbe9;}.cls-47{fill:#5a4f6d;}.cls-48{fill:#745593;}.cls-49{fill:#605173;}.cls-50{fill:#a997bd;}.cls-51{fill:#c8bbd4;}.cls-52{fill:#b8aac4;}.cls-53{fill:#514467;}.cls-54{fill:#7e6098;}.cls-55{fill:#4c415f;}.cls-56{fill:#ded0e5;}.cls-57{fill:#6f5a86;}.cls-58{fill:#836848;}.cls-59{fill:#b37ea1;}.cls-60{fill:#c7948d;}.cls-61{fill:#343242;}.cls-62{fill:#9b73b2;}.cls-63{fill:#a681b8;}.cls-64{fill:#9a72b1;}.cls-65{fill:#3f3a4e;}.cls-66{fill:#5e516e;}.cls-67{fill:#c285a2;}.cls-68{fill:#e2b99d;}.cls-69{fill:#bd8536;}.cls-70{fill:#b7843b;}.cls-71{fill:#ac7d95;}.cls-72{fill:#c17ea0;}.cls-73{fill:#dec5b7;}.cls-74{fill:#9972b1;}.cls-75{fill:#b190c2;}.cls-76{fill:#926aad;}.cls-77{fill:#9068ac;}.cls-78{fill:#79559d;}.cls-79{fill:#835ca4;}.cls-80{fill:#75698f;}.cls-81{fill:#654b8b;}.cls-82{fill:#857a9c;}.cls-83{fill:#77539c;}.cls-84{fill:#d1c7da;}.cls-85{fill:#544a64;}.cls-86{fill:#8c6f4c;}.cls-87{fill:#e0bf98;}.cls-88{fill:#fefdfe;}.cls-89{fill:#f1f0f2;}.cls-90{fill:#eceaee;}.cls-91{fill:#dcd9e0;}.cls-92{fill:#b2aabc;}.cls-93{fill:#bfbbc7;}.cls-94{fill:#a296b0;}.cls-95{fill:#b0a6b9;}.cls-96{fill:#535160;}.cls-97{fill:#b5b4ba;}.cls-98{fill:#898893;}.cls-99{fill:#72707d;}</style></defs><path class="cls-1" d="M38.64,190.11c-2.07-.65-4-1.53-6-2.37-4-1.69-8.09-3.38-12.24-4.78-1.74-.59-3.46-1.2-5.19-1.8a2,2,0,0,1-.32-.21c-.15-.58.05-1.18-.11-1.76l0-.63a29.37,29.37,0,0,1,0-4l0-1.17a1.75,1.75,0,0,0,.06-.72v-8.82a1.75,1.75,0,0,1,.05-.72l0-.91c.16-.53,0-1.08.12-1.61a5.55,5.55,0,0,0-.27-2.65q-.09-.09,0-.15c2.61,1.1,5.25,2.12,7.82,3.3a2.8,2.8,0,0,0,.67.28h0a8.55,8.55,0,0,0,.94.4h0c.3.15.62.28.94.41l10,4.14c.69.28,1.4.52,2.09.78a.68.68,0,0,0,.65,0c1.71-1.7,3-3.75,4.54-5.57.57-.67,1.15-1.33,1.73-2a4.61,4.61,0,0,0,1-1c1.91-2.2,3.83-4.39,5.79-6.54.21-.23.35-.7.85-.48a5.57,5.57,0,0,1,0,.73,2.09,2.09,0,0,0-.05-.88c-.11-.29.2-.38.26-.59l.12-.12c.24-.06.37-.49.69-.19a5.77,5.77,0,0,1,.7,3.14c0,2,.16,4,.19,6a32.22,32.22,0,0,0,.22,4.16c.07,1.56.19,3.11.36,4.66,0,.36-.05.71,0,1.06.08,1.65.17,3.31.27,5a10.49,10.49,0,0,1,.06,1.68c0,.09.14,0,.06,0-.11-.77,0-1.56-.18-2.33,0-1.58-.23-3.15-.19-4.73a.75.75,0,0,0,0-.75.66.66,0,0,1-.08-.39c.11-1.42-.41-2.84,0-4.27a.65.65,0,0,0-.07-.45,4.25,4.25,0,0,1-.1-2.47,6.29,6.29,0,0,0,.09-1.89,5.67,5.67,0,0,1,.09-2.56.65.65,0,0,0-.16-.66.84.84,0,0,1-.08-.2,6.72,6.72,0,0,1,.06-2.1.63.63,0,0,0-.13-.56,1.12,1.12,0,0,1-.1-.4,6,6,0,0,0-.05-1.12,1.35,1.35,0,0,1,0-.29c0-.26.09-.54,0-.8,0-.06-.05-.12-.07-.17a1.32,1.32,0,0,1,0-.56c.16-.46.62-.63.9-1,.17-.14.36-.05.54-.08h.41a2.34,2.34,0,0,1,1.31.13c.32.17.54-.24.85-.16,2.1,1.09,4.07,2.4,6.11,3.59,5.13,3,10.3,6,15.55,8.76,2.5,1.33,5,2.66,7.41,4.14.19.31.55.38.82.58a2.07,2.07,0,0,0,.52.3c.13.07.23.18.39.17.33.09.36.57.76.56a5.08,5.08,0,0,0,1.65,0,3.34,3.34,0,0,0,1.17-.15c.21-.14.47,0,.69-.12a18,18,0,0,0,2.63-.41c.21-.14.47,0,.68-.12,1.59-.24,3.17-.46,4.75-.71,2.23-.37,4.46-.76,6.69-1.15.21,0,.42-.09.64-.14.4-.16.32.16.32.35,0,.48,0,1,0,1.44,0,.13-.09.34.18.33l.15-.12a5.5,5.5,0,0,0,.4-1.87c0-.3.25-.35.51-.39,2.8-.48,5.6-1,8.39-1.48.21-.13.48,0,.69-.11a11.83,11.83,0,0,0,2-.28c.21-.14.48,0,.69-.12a42.2,42.2,0,0,0,4.34-.71c3.77-.69,7.53-1.45,11.34-2,.21,0,.42-.09.64-.14s.47,0,.68-.12h.25c.21-.14.47,0,.67-.12a2.84,2.84,0,0,0,1.05-.14.11.11,0,0,1,.18.05,30.46,30.46,0,0,1,0,3.7,22.77,22.77,0,0,0-.1,3.2,13.91,13.91,0,0,1-.06,1.58,21,21,0,0,1-.07,2.63v.78a.1.1,0,0,1-.15,0c0-.06,0,0,0-.06s0-.15,0-.06a20.21,20.21,0,0,1-.16,3.39,2.49,2.49,0,0,0,0,.72c-.06.33,0,.66,0,1-.34.16,0,.42-.1.62,0,1.35-.22,2.68-.16,4a2.8,2.8,0,0,1-.23,1.14l-.37.51c-.06.12-.13.22-.27.22a3,3,0,0,0-.85,0c-.36,0-.06.19-.06.29a15.27,15.27,0,0,1-2.41.54h0c-.29.2-.64,0-.93.14h0a34.16,34.16,0,0,1-3.63.54.56.56,0,0,1-.47.11l-.15-.07a2.23,2.23,0,0,0-.85.09,2.35,2.35,0,0,1-.37,0,2.49,2.49,0,0,0-.77.08,1.57,1.57,0,0,1-.3,0,2.07,2.07,0,0,0-.82.12c-1,.26-2,.27-3,.52-1.43.22-2.85.44-4.29.58a1.75,1.75,0,0,0-.75.08,9,9,0,0,1-1.94.31,1.64,1.64,0,0,0-.73.1c-1.59.38-3.21.58-4.82.88-2.09.39-4.18.86-6.27,1.27-.54.18-1.1.21-1.65.35h0c-.2.19-.48,0-.69.14a.69.69,0,0,0-.5.13c-.58.15-1.16.28-1.74.4h0c-1.37.35-2.75.66-4.13.93h0c-.2.18-.47,0-.68.14h0c-.19.18-.47,0-.67.14h0c-.2.19-.47,0-.67.14h0c-.48.14-1,.17-1.46.28h0c-3.48.69-7,1.19-10.5,1.74h0c-.25.19-.56,0-.81.14h0c-.24.2-.56,0-.8.14h0c-.2.17-.47,0-.67.13h0c-.24.19-.56,0-.8.14h0c-.61.16-1.25.25-1.86.4h0c-.2.18-.47,0-.67.14h0c-.19.17-.46,0-.66.13h0a17.12,17.12,0,0,1-1.86.4h0c-.2.17-.46,0-.66.13h0c-.19.16-.46,0-.65.13h0c-.39.12-.8.16-1.19.26h0c-.19.17-.46,0-.66.13h0c-.2.18-.46,0-.66.14h0c-.19.17-.46,0-.65.13h0c-.2.17-.46,0-.66.13h0c-.4.11-.81.17-1.21.26s-1.09.1-1.57.41a10,10,0,0,1-1.08.26.67.67,0,0,0-.51.12c-.62.15-1.26.18-1.89.27l-.37.1a2,2,0,0,0-1.24,0,2.1,2.1,0,0,1-.51,0,5.79,5.79,0,0,1-1.38-.08.81.81,0,0,0-.57.13,2,2,0,0,1-.42.09,3.52,3.52,0,0,1-2.66-.29,2,2,0,0,1-.92-1.53c0-.19,0-.38,0-.56a5.17,5.17,0,0,1,.13-1.71c.14-.35-.16-.67-.16-1,0-1.68-.08-3.36.05-5a.86.86,0,0,0-.08-.57A1,1,0,0,1,55,185a10,10,0,0,0-.1-2.12,1.66,1.66,0,0,1,0-.32c-.14-.73.11-1.48-.1-2.21a.83.83,0,0,1,0-.22,10.86,10.86,0,0,0-.19-2.83,13.32,13.32,0,0,1,.2,3,3.59,3.59,0,0,1-.06,1.18,1.18,1.18,0,0,0,.16.76,20.71,20.71,0,0,1,.16,3.05c.1,2,0,4,0,6-.07,1,.11,2,.07,3-.1.78-.48,1.07-1.23,1-.21,0-.41-.15-.63,0-1.64-.7-3.39-1.09-5.07-1.68C45,192.32,41.82,191.22,38.64,190.11Z"/><path class="cls-2" d="M106.93,7.41a5.75,5.75,0,0,1,2.54.23A20.22,20.22,0,0,1,113,8.7a39.14,39.14,0,0,0,6.53,1.93.72.72,0,0,0,.74-.26A54.36,54.36,0,0,1,127.52,4a.83.83,0,0,1,.79-.13c6.62,1.71,13.24,3.43,19.87,5.09A4.32,4.32,0,0,1,151,10.81c1.76,2.6,3.68,5.09,5.41,7.71.35.52.53,1.11,1.17,1.46a4.8,4.8,0,0,0,1.39.29,18.87,18.87,0,0,1,4.66,1.7A36.13,36.13,0,0,1,169,25.09c2,1.56,3.95,3.22,4.95,5.68.06.13,0,.18-.12.21-.38-.11-.53-.46-.73-.74a20.54,20.54,0,0,0-6-5.79,36.12,36.12,0,0,0-4.45-2.21A19.8,19.8,0,0,0,159.43,21a13.22,13.22,0,0,0-2.15-.36,1.25,1.25,0,0,0-1.14.43,28.24,28.24,0,0,1-3.1,2.68,5.13,5.13,0,0,1-1.7,1.21c-.22-.23,0-.42.1-.57,1.18-1.17,2.13-2.54,3.37-3.65a1.07,1.07,0,0,1,.88-.35c.43,0,.56-.2.36-.58a.83.83,0,0,0-.19-.26A37.37,37.37,0,0,1,151,13.71a1.61,1.61,0,0,0-.81-.64,1.63,1.63,0,0,0,.38.92,64.23,64.23,0,0,0,4,5.29c.51.61.51.75,0,1.28-1.22,1.19-2.13,2.66-3.39,3.81-2.41,2.18-4.71,4.47-7.14,6.63a21.26,21.26,0,0,0-3.08,3.28c-.3.55.05.77.48.94a31.3,31.3,0,0,0,5.36,1.64,13.06,13.06,0,0,1,1.66.44c2.12,1.07,4.34,1.9,6.51,2.85a6.11,6.11,0,0,1,2.69,2.29,41.93,41.93,0,0,1,2.84,5,2.26,2.26,0,0,1,.25,1,5.26,5.26,0,0,0,.34,1.55c.81,2.78,1.55,5.58,2.51,8.32a2.47,2.47,0,0,0,.19.6,1.24,1.24,0,0,1,.12.32,1.16,1.16,0,0,0,.3.63,4.91,4.91,0,0,1,.4,1.19c1.56,6.42,3.4,12.77,5.26,19.11a3,3,0,0,1,.13.72,2.12,2.12,0,0,0,.07.71,8,8,0,0,0,.28,1.07c.33,1.26.71,2.51,1,3.79a2,2,0,0,0,.55,1.11c.08.14.17.27.36.13a8.17,8.17,0,0,0,.71-.49c3.84-3.41,7.39-7.12,11-10.75a15.4,15.4,0,0,1,2-1.67c.11,0,.14.12.17.21-.13.63-.76.9-1.05,1.42a2.25,2.25,0,0,1-.45.52l-5.14,5a4.1,4.1,0,0,1-.65.6c-1.77,1.77-3.81,3.25-5.4,5.22a10.86,10.86,0,0,1-2.23,1.86,17.2,17.2,0,0,1-4.13,2.29c-.37.14-.76.23-1.14.34a5.32,5.32,0,0,1-2.5-.31c-1.11-.31-2.22-.62-3.34-.89l-6.28-1.57c-3.1-.77-6.21-1.49-9.28-2.33a1.26,1.26,0,0,0-1.58.5,50.42,50.42,0,0,1-4.07,4.07c-2,2.07-4.12,4-5.94,6.21a11.9,11.9,0,0,1-1.64,1.89c-1.69,1.31-3,3.07-4.93,4.09a14.21,14.21,0,0,1-3,1.09c-.21.13-.46,0-.67.12h-.06l-.06,0c-.26.14-.57,0-.83.11l-.37,0a7.92,7.92,0,0,1-2.12,0l-.5,0c-.21-.12-.47,0-.69-.1a27.68,27.68,0,0,1-9.79-3.26,34.89,34.89,0,0,1-7-4.87c-1.17-1-2.36-2-3.43-3.18a45.79,45.79,0,0,1-5.64-7.42,31.48,31.48,0,0,1-3-6.39,17.29,17.29,0,0,1-1-4.93c-.12-.31,0-.65-.11-1v-1.8c.14-.26,0-.56.1-.82a11.12,11.12,0,0,1,1.7-5.08,14.48,14.48,0,0,0,.86-2,1.55,1.55,0,0,1,.61-1.64c.26.39.58.11.88.07a1.41,1.41,0,0,0,.7-.47c2.45-2.26,5.4-2.62,8.54-2.3a25.45,25.45,0,0,1,4.51.76,36.58,36.58,0,0,1,9.19,4.26,41.69,41.69,0,0,1,8.66,7.29,36.65,36.65,0,0,1,8.72,15.39,18.15,18.15,0,0,1,.62,3.52,5.77,5.77,0,0,0,.63,2.23c.25.53.55.56,1,.12a5.83,5.83,0,0,0,1.07-2.74c.3-1.21-.21-2.34-.31-3.52a3.31,3.31,0,0,1-.11-1.17.22.22,0,0,1,.23-.16,1.59,1.59,0,0,1,.36.9,33.24,33.24,0,0,0,1,3.58c.32.77.62.85,1.2.24,2.66-2.81,5.38-5.56,8-8.38a5.61,5.61,0,0,0,1.32-3.92A20.89,20.89,0,0,0,145.38,69a37.74,37.74,0,0,0-4.47-7.28,2.54,2.54,0,0,1-.5-.78,3.83,3.83,0,0,0-.76-1.23c-.49-.57-1-1.15-1.45-1.73-.79-.84-1.52-1.74-2.38-2.52a12.78,12.78,0,0,0-1.75-1.62,31.31,31.31,0,0,0-8.34-5.44c-.14-.07-.28-.14-.41-.22A16.21,16.21,0,0,0,122.5,47c-.24-.09-.48-.17-.72-.27a2.45,2.45,0,0,0-1-.17,31.21,31.21,0,0,0-3.44-.94,17.4,17.4,0,0,0-4.26-.29,1.9,1.9,0,0,1-.85-.1.91.91,0,0,0-.82.07,1.37,1.37,0,0,1-1.2.1,4.1,4.1,0,0,1-.62-1.38c-1.32-4.58-2.71-9.14-4.39-13.61a13.5,13.5,0,0,0-1.92-3.31,10.63,10.63,0,0,1-1-1.55,1.94,1.94,0,0,0-.36-.62.71.71,0,0,1-.1-.14A2.83,2.83,0,0,0,101,24c-.55-.57-1.33-.87-1.81-1.52a.7.7,0,0,0-.48-.58c-.55-.22-1.06-.53-1.63-.71-.29-.19-.75-.15-.81-.64.19-.35.47-.16.7-.1,1.33.35,2.62.81,3.93,1.23,3,1,5.93,1.92,8.91,2.87a.39.39,0,0,0,.31,0,8.82,8.82,0,0,0-.27-1.19,2.51,2.51,0,0,1,.49-2.24c.92-1.31,2.09-2.4,3.1-3.63,1.14-1.39,2.48-2.58,3.73-3.87.62-.63,1.16-1.32,1.8-2.1a24.84,24.84,0,0,1-3-.72c-1.7-.43-3.35-1-5-1.54-1.33-.42-2.67-.79-4-1.08a2.33,2.33,0,0,1-.52-.13c-.13,0-.25-.12-.23-.28s.14-.19.28-.24S106.77,7.55,106.93,7.41Z"/><path class="cls-1" d="M19.77,131.55a3.91,3.91,0,0,0-.89-1l-4-5.62-3.49-4.85a2.2,2.2,0,0,0-1.08-1.5.71.71,0,0,1-.38-.48,7.19,7.19,0,0,0-.61-.94c-.34-.43-.2-.81.33-.92a6.85,6.85,0,0,1,.9-.19c.2-.07.41,0,.6-.09l.24,0c.21-.12.47,0,.67-.11a.19.19,0,0,0,.13,0c.3-.14.65,0,1-.11l.38,0c.49-.14,1,0,1.49-.11l1,0a1.45,1.45,0,0,1,1.19,0h.28c.62-.14,1.26,0,1.88-.1a.09.09,0,0,0,.1,0c.48-.21,1,0,1.47-.14h0c.43-.21.9,0,1.33-.14h0c.9-.14,1.8-.18,2.69-.26a.11.11,0,0,0,.1,0c.43-.19.91,0,1.34-.13h0c.43-.2.91,0,1.34-.13h0c.43-.2.91,0,1.34-.14h0c.44-.2.92,0,1.36-.14a.09.09,0,0,0,.1,0c.35-.18.75,0,1.1-.13a.08.08,0,0,0,.09,0c.39-.2.82,0,1.21-.14h0c.4-.2.84,0,1.23-.13a.09.09,0,0,0,.1,0c.38-.21.82,0,1.21-.14h0c.43-.21.9,0,1.33-.15h0c.38-.2.82,0,1.2-.14h0c.89-.14,1.78-.18,2.67-.27h0c.43-.2.91,0,1.34-.14h0c.43-.2.9,0,1.34-.14h0c.43-.2.9,0,1.34-.14h0c.88-.13,1.77-.17,2.66-.27h0c.48-.21,1,0,1.47-.14h0c.43-.2.9,0,1.33-.13h0c.4-.2.84,0,1.23-.13a.09.09,0,0,0,.1,0c.39-.2.83,0,1.23-.13a.12.12,0,0,0,.1,0c.39-.19.83,0,1.23-.13a.09.09,0,0,0,.1,0c.35-.19.74,0,1.1-.13a.08.08,0,0,0,.09,0c.39-.2.83,0,1.23-.13a.12.12,0,0,0,.1,0c.35-.18.75,0,1.1-.13a.09.09,0,0,0,.1,0c.38-.19.82,0,1.2-.13h0c.38-.2.81,0,1.2-.14h0c.4-.2.83,0,1.23-.13a.12.12,0,0,0,.1,0c.38-.19.82,0,1.2-.13h0c.39-.2.83,0,1.22-.13a.09.09,0,0,0,.1,0c.35-.18.75,0,1.1-.12h.23c.35-.18.75,0,1.1-.13a.09.09,0,0,0,.1,0,1,1,0,0,1,.7-.06,4.67,4.67,0,0,0,2-.2.06.06,0,0,0,.09,0c.38-.19.82,0,1.21-.13h0a14.84,14.84,0,0,1,1.87-.2q3.21-.27,6.4-.65c.91-.1,1.83-.16,2.75-.24a.27.27,0,0,1,.27.14c.34.94,1,1.7,1.38,2.62a86.78,86.78,0,0,0,5,9,24.35,24.35,0,0,1,1.07,2.32c.19.13.07.33.13.49a1.45,1.45,0,0,1-1.16,1.47c-.43.12-.63.53-1,.72a8.61,8.61,0,0,1-2.42.27c-3.81.41-7.62.67-11.43,1-5,.41-10,1-15,1.66-8.17,1.16-16.36,2.23-24.53,3.36-2.1.3-4.2.65-6.3,1a1.39,1.39,0,0,0-.57.16,5,5,0,0,1-2.68.62,8.85,8.85,0,0,0-1,0,3.74,3.74,0,0,1-2.09-1.31,1.71,1.71,0,0,0-1.31-1.15Z"/><path class="cls-3" d="M186,74.79c-.47.69-1.27,1-1.85,1.61q-4,4.17-8.2,8.2a34.5,34.5,0,0,1-3.76,3.28c-.36.25-.41.13-.41-.21a51,51,0,0,1-1.56-5.11,7.31,7.31,0,0,1-.23-1c-.11-.23-.09-.49-.2-.73a29.38,29.38,0,0,0-.92-3.3q-1.77-6.49-3.6-13a40.5,40.5,0,0,0-1.3-4.83c-.16-.15-.06-.37-.15-.55l-.14-.24c0-.27-.14-.53-.2-.8-.92-2.89-1.64-5.83-2.36-8.76a26.83,26.83,0,0,0-2.71-6.82,6.43,6.43,0,0,0-3.83-3.17c-2.07-.65-4.16-1.23-6.17-2.06-1.76-.54-3.52-1.06-5.26-1.69-.52-.19-1.12-.27-1.48-.78a1.41,1.41,0,0,1,.23-1.25,14.51,14.51,0,0,1,3.13-3c.26-.24.54-.46.78-.71,1.58-1.61,3.23-3.16,4.92-4.65.16-.14.3-.34.55-.32a34.74,34.74,0,0,0,3.28-2.64,6.43,6.43,0,0,0,1.5-1.36,1.4,1.4,0,0,1,1.32-.46,16,16,0,0,1,5.33,1.62,31.19,31.19,0,0,1,6,3.3,24.4,24.4,0,0,1,5.05,5.54,7.24,7.24,0,0,1,1.52,2.82c.79,2.68,1.56,5.37,2.26,8.08.82,3.12,1.62,6.26,2.45,9.38.53,2.13,1.12,4.25,1.66,6.39,0,.07,0,.12.1.14a.34.34,0,0,1,.1.3,1.08,1.08,0,0,0,.17.76l.24.56c.42,2.09,1,4.13,1.56,6.19.26,1,.54,2.08.82,3.12A3.63,3.63,0,0,0,185,70.2c.3,1.08.52,2.19.9,3.26.17.14.1.36.15.54A1.26,1.26,0,0,1,186,74.79Z"/><path class="cls-3" d="M99.22,22.46A16.73,16.73,0,0,1,101,23.89a10.76,10.76,0,0,1,.85.94h0c.12.19.3.35.4.55a26.92,26.92,0,0,1,4.21,8.18c1.13,3.53,2.23,7.06,3.29,10.62.12.42.31.82.47,1.23a8.61,8.61,0,0,1-2,2.11c-.91.81-1.76,1.67-2.67,2.48-1.19,1-2.34,2.15-3.51,3.21-2.21,2.07-4.53,4-6.73,6.08-1.14,1.08-2.27,2.16-3.47,3.18-.16.14-.29.34-.54.35a3.44,3.44,0,0,0-.63,1.6,1,1,0,0,1-.71-.74,18.66,18.66,0,0,1-.88-2.58c-.13-.29-.15-.61-.28-.91a1.54,1.54,0,0,1-.25-.81c-.14-.45-.28-.89-.41-1.34h0A6.45,6.45,0,0,1,87.94,57h0c-.12-.3-.16-.63-.27-.94h0c-.13-.3-.17-.63-.27-.94h0c-.38-1.25-.84-2.47-1.21-3.72-.17-.14-.1-.35-.13-.53s-.15-.63-.26-.93a2.31,2.31,0,0,1-.26-1.06c-.27-.93-.5-1.87-.81-2.8-.17-.14-.1-.34-.13-.53-.19-.61-.35-1.24-.53-1.86-.18-.14-.11-.34-.13-.52-.11-.4-.16-.81-.26-1.21h0a10.37,10.37,0,0,1-.28-1.06,5.51,5.51,0,0,1-.39-1.6,9.3,9.3,0,0,1-.27-1.07h0c-.13-.3-.15-.63-.28-.92s-.1-.36-.13-.55-.16-.69-.26-1a13,13,0,0,1-.67-2.82c-.16-.2,0-.47-.12-.68A4,4,0,0,1,81,30.8,1.3,1.3,0,0,1,81,30a6.64,6.64,0,0,1,1.6-3.34c.18-.08.24-.25.35-.39,2.67-2.25,5.18-4.67,7.76-7,1.87-1.71,3.79-3.37,5.8-4.92a15.79,15.79,0,0,0,2.19-1.72c1.2-1,2.49-2,3.61-3.12a4.31,4.31,0,0,0,.52-.6,7.21,7.21,0,0,1,2.1-1.44c.12-.06.27-.14.42,0,.53.16,1.05-.13,1.58,0l-.88.45c4.58.82,8.68,2.82,13.22,3.57-.57.68-1.07,1.35-1.63,2-1.35,1.43-2.84,2.73-4.1,4.24-1,1.19-2.09,2.27-3,3.51a2.6,2.6,0,0,0-.49,2.46c.11.41.21.83.32,1.32l-2.64-.82L96.89,20.62c-.17-.06-.38-.29-.59,0,0,.05-.11.07-.16.11s0,.08,0,.08c.22.11.46.16.68.27a14.46,14.46,0,0,1,1.78.84C98.88,22,99.17,22.12,99.22,22.46Z"/><path class="cls-4" d="M106.51,162.61h-.06l0,0c-.22.14-.48,0-.7.12l-5.68.94c-.21.15-.47,0-.68.13l-2.37.4c-.21.15-.48,0-.69.13l-3.74.64a9.72,9.72,0,0,0-1.71.31,2.57,2.57,0,0,1-2.22-.22c-1.92-1.07-3.83-2.14-5.73-3.24q-5.11-2.94-10.2-5.93c-.88-.51-1.72-1.07-2.58-1.61a24.06,24.06,0,0,0-2.06-1.4A7.61,7.61,0,0,0,66,151.55c-.28-.15-.56-.28-.85-.41-1.15-.45-2.27-1-3.38-1.54a19.92,19.92,0,0,0-3.56-1.75c-.23-.2-.54-.15-.8-.24H57c-.51.17-.81,0-.89-.54a.62.62,0,0,1,.59-.49,45,45,0,0,0,4.48-.45c6.39-.77,12.74-1.79,19.06-3a55.88,55.88,0,0,1,6.2-.63,20.13,20.13,0,0,0,4.08-.85,2.14,2.14,0,0,1,.43-.07,4.79,4.79,0,0,0,1,0l.19,0a6.15,6.15,0,0,0,1-.11l.2,0a3.63,3.63,0,0,0,1-.14c2.49-.42,5-.63,7.49-1,1.64-.22,3.29-.41,4.93-.61,1-.13,1.13,0,1.14,1a6.38,6.38,0,0,0,.07,1.51c.13,2.14.12,4.28.21,6.41.13,3.1.12,6.21.24,9.31.05,1.33,0,2.65,0,4,0,.2,0,.41-.17.55h0l0,0c-.22.14-.49,0-.7.12l-.23,0C107,162.63,106.72,162.47,106.51,162.61Z"/><path class="cls-4" d="M128.7,159l-2.9.41c-.22.14-.48,0-.7.12l-.23,0c-.22.13-.48,0-.69.11-2.17.37-4.34.75-6.5,1.18-1.44.29-2.91.47-4.37.7-.21.14-.48,0-.69.12l-1,.15c-.21.13-.47,0-.69.11l-1,.15c-.49.2-.63-.05-.61-.5.07-1.09.22-2.17.33-3.26.16-1.64.33-3.28.5-4.92a7.59,7.59,0,0,1,.2-1.42h0c.16-2.44.52-4.85.73-7.28.15-1.74.42-3.48.53-5.23a.64.64,0,0,1,.14-.3,1.2,1.2,0,0,1,.79-.29q11.51-1.36,23-2.88a2.06,2.06,0,0,1,1.3,0,4,4,0,0,1,.69,1.41c.24.71.63,1.36.82,2.09v0c.87,2.07,1.65,4.17,2.5,6.24.68,1.66,1.3,3.35,2,5s1.28,3.28,1.91,4.92c.07.17.2.37,0,.55-.89.18-1.77.37-2.65.53-1.36.24-2.71.45-4.07.7-1.69.31-3.37.66-5.08.89-.85.12-1.7.28-2.55.42-.21.13-.47,0-.69.12l-.24,0C129.17,159,128.91,158.88,128.7,159Z"/><path class="cls-1" d="M112.91,127v-.14a12.05,12.05,0,0,1,.15-1.59h0c.09-1.19.21-2.38.34-3.57.15-1.43.23-2.86.45-4.28v-.13c0-.94.19-1.88.2-2.82a1.79,1.79,0,0,1,.08-.65.14.14,0,0,0,0-.11c.4-.47.78-.07,1.16,0a9.7,9.7,0,0,0,2.24.63c1.43.37,2.86.78,4.28,1.21l7.26,1.44c.32.23.27.64.44.93h0c1,2.39,2,4.78,2.94,7.19h0q1.13,2.56,2.13,5.19h0a19,19,0,0,1,.81,2h0c.26.49.4,1,.66,1.5.07.13.16.28,0,.4-1.1-.13-2.16-.42-3.24-.65-2.62-.55-5.24-1.06-7.87-1.55-3.84-.73-7.64-1.63-11.42-2.66-.27-.07-.57-.11-.73-.39A7.17,7.17,0,0,1,112.91,127Z"/><path class="cls-1" d="M141,135.62c-.36-1.41-.71-2.82-1.06-4.22-.27-1.07-.51-2.14-.81-3.2-.55-2.3-1.27-4.57-1.72-6.9a20.25,20.25,0,0,1-.53-2.14c-.23-.47-.22-.67.42-.54,3.05.63,6.11,1.22,9.16,1.83L158,122.76c1.07.21,2.14.45,3.22.67a.48.48,0,0,1,.43.36.35.35,0,0,1-.3.38,11.54,11.54,0,0,0-3.18,1.68,117.82,117.82,0,0,0-12.23,8.47l-2.3,1.72a5,5,0,0,0-1.77-.57.81.81,0,0,0-.72.19A.11.11,0,0,1,141,135.62Z"/><path class="cls-4" d="M142.25,138.2l4.77,4.1a1.43,1.43,0,0,1,.56.44l.64.49a2.14,2.14,0,0,1,.69.58l.11.08a3.25,3.25,0,0,1,.82.71l.1.09a4.1,4.1,0,0,1,1,.85l.1.08c.45.18.65.62.95.95a16.69,16.69,0,0,0,1.34,1.32h0a4.63,4.63,0,0,1,1.34,1.48l.09.12a1.23,1.23,0,0,1,.44.56c.69.91,1.1,2,1.87,2.88a.73.73,0,0,1,.39.45c0,.42-.25.62-.62.72a32.85,32.85,0,0,1-3.28.67c-.37.07-.76.11-1.14.16-.21.14-.47,0-.68.11h-.06l0,0c-.21.14-.48,0-.69.12l-3.17.54c-.2.15-.47,0-.68.12-.89.27-.93.25-1.2-.64a39.55,39.55,0,0,1-1-4.13,9.69,9.69,0,0,1-.39-1.61c-.32-1.23-.73-2.44-.93-3.7-.15-.58-.29-1.16-.41-1.74l0-.14a8.79,8.79,0,0,1-.24-.88l-.91-3.62c-.12-.48-.26-1-.34-1.44C141.93,137.66,142.07,138,142.25,138.2Z"/><path class="cls-1" d="M136.82,136.16a8.6,8.6,0,0,0-2.53.19c-2.3.26-4.58.59-6.87.89-1.9.25-3.79.51-5.69.75l-4.85.58-5.17.65a4.21,4.21,0,0,1,.08-1.8c.11-1,.17-2.08.34-3.1h0c.06-1.2.29-2.38.33-3.58a2.37,2.37,0,0,1,.14-.64c.5-.26.94,0,1.39.16,2.84.75,5.68,1.52,8.55,2.15,3.84.86,7.72,1.52,11.55,2.39a6.55,6.55,0,0,0,2.28.39.25.25,0,0,1,.2.06l.08.27C136.77,135.71,137,135.9,136.82,136.16Z"/><path class="cls-1" d="M101.79,117.72l.5-.3c.23-.12.45-.26.69-.37l1.43-.83a7.05,7.05,0,0,1,1.08-.5l.24-.13c.21-.13.46-.16.68-.27h0c.42-.22.5,0,.55.37A19.83,19.83,0,0,1,107,118c.11,3.27.3,6.53.36,9.79,0,.09-.07.19-.16.14a27.87,27.87,0,0,0-4.37-1.33c-1-.31-2-.41-3-.78a1.93,1.93,0,0,0-1.13-.24c-1.22-.19-2.42-.45-3.64-.66a29.32,29.32,0,0,0-3.75,0c-.94-.07-1.08-.18-1-.82a1.29,1.29,0,0,1,.17-.16,28,28,0,0,1,5.2-2.93c.93-.47,1.84-1,2.75-1.48.24-.12.46-.26.7-.37l.23-.16c.32-.18.64-.35,1-.5l.76-.44C101.33,118,101.55,117.82,101.79,117.72Z"/><path class="cls-5" d="M136.45,135.24c-.06.34-.27.23-.5.19-2.8-.61-5.58-1.26-8.4-1.78-4.94-.93-9.79-2.2-14.65-3.48a1.28,1.28,0,0,1-.24-.11.9.9,0,0,1,0-.8.09.09,0,0,0,0-.12.19.19,0,0,1,.11-.14c4.08,1.09,8.18,2.11,12.34,2.87,3.37.62,6.73,1.32,10.08,2,.28.06.55.18.82.26A1.25,1.25,0,0,1,136.45,135.24Z"/><path class="cls-6" d="M96.56,14.46q-5.24,4.27-10.08,9c-1.1,1.06-2.41,1.87-3.47,3-.23,0-.21-.12-.13-.27a21.41,21.41,0,0,1,3.58-3.54c.56-.5,1.1-1,1.68-1.51,1.47-1.21,2.67-2.71,4.18-3.87a49.68,49.68,0,0,0,4.26-4,72.66,72.66,0,0,1,6.11-5.39,4.37,4.37,0,0,1,3.24-1.27c.15,0,.4-.09.45.15s-.22.29-.37.38-.44.2-.66.3A8.4,8.4,0,0,0,102.93,9Q99.75,11.73,96.56,14.46Z"/><path class="cls-7" d="M90.45,124.07c-.21.8.39.64.82.69a.48.48,0,0,1-.14.48.52.52,0,0,1-.41.18c-.73,0-1.29.44-1.94.61-.52-.08-1.06.1-1.54-.21a1.56,1.56,0,0,1,1.05-.78c.68-.13.79-.73,1-1.26.11,0,.2,0,.25.08a.25.25,0,0,0,.26.1C90,124.1,90.24,123.94,90.45,124.07Z"/><path class="cls-8" d="M68.14,152.8a6.79,6.79,0,0,1,2,1.49c-2.78-1.56-5.68-2.92-8.35-4.69a16.7,16.7,0,0,1,2.56,1,2,2,0,0,1,.9.4,3.87,3.87,0,0,0,.86.5C66.77,151.94,67.47,152.35,68.14,152.8Z"/><path class="cls-9" d="M56.16,147.06c.06.49.45.5.81.56-.24.45.32.4.4.64a2.76,2.76,0,0,1-1.88.13,1.42,1.42,0,0,0,.18-1.32A.34.34,0,0,1,56.16,147.06Z"/><path class="cls-1" d="M55.49,148.39l1.88-.13.17.12a.74.74,0,0,1-1.16.22c-.28-.21-.7.07-1-.19A.15.15,0,0,1,55.49,148.39Z"/><path class="cls-10" d="M101.79,117.72a1.06,1.06,0,0,1-.7.36A.79.79,0,0,1,101.79,117.72Z"/><path class="cls-11" d="M57.39,147.61c.29,0,.6-.06.8.24A1.62,1.62,0,0,1,57.39,147.61Z"/><path class="cls-10" d="M90.45,124.07c-.23,0-.47.06-.68-.11h.71Z"/><path class="cls-10" d="M89.51,123.86l-.25-.08c0-.16,0-.32,0-.49C89.46,123.41,89.42,123.67,89.51,123.86Z"/><path class="cls-12" d="M179.88,51.27c-.6-2.31-1.19-4.61-1.8-6.91-.87-3.26-1.72-6.52-2.71-9.75a19.7,19.7,0,0,0-1.6-3.67l.15-.17a17.07,17.07,0,0,1,2.39,6c1.21,4.6,2.43,9.18,3.64,13.77A3.65,3.65,0,0,1,180,51C180.07,51.12,180.14,51.28,179.88,51.27Z"/><path class="cls-13" d="M179.88,51.27c.12-.06.13-.18.14-.29.67,2.23,1.24,4.5,1.74,6.77-.28,0-.23-.26-.26-.38C181,55.34,180.42,53.3,179.88,51.27Z"/><path class="cls-13" d="M182,58.81c-.23-.21-.38-.45-.17-.76Z"/><path class="cls-4" d="M21.23,132.59a5.61,5.61,0,0,0,2,1.3c.54-.07,1,.35,1.48.39a2.56,2.56,0,0,0,.67.13c.7.05,1.17.61,1.81.81,1.75.55,3.47,1.18,5.19,1.85,4.8,1.86,9.61,3.73,14.43,5.54l6.9,2.59a4.66,4.66,0,0,0,1.14.34.82.82,0,0,1,.81.94.62.62,0,0,1-.25.55c-.07.09-.16.2-.27.14-.69-.33-1.15,0-1.64.46a97.81,97.81,0,0,0-9.67,10.67q-3.1,3.8-6,7.74c-.2.27-.33.31-.63.17-2.85-1.31-5.71-2.62-8.57-3.89-3.3-1.46-6.62-2.89-9.93-4.33-2.4-1-4.77-2.15-7.19-3.13s-4.63-2-7-2.84a2.91,2.91,0,0,1-.35-.18c-.43-.23,0-.36.07-.52l1.1-1.09c.21-.27.48-.49.68-.77l.91-1a8.14,8.14,0,0,0,.54-.63l.52-.56c.15-.16.28-.34.42-.51l.51-.55c.17-.22.39-.41.54-.64l.39-.42c.15-.17.28-.35.42-.52l.51-.55a5.08,5.08,0,0,0,.41-.51l.39-.41c.15-.17.28-.35.42-.52l.38-.41.41-.52,3.44-4.14c.14-.16.28-.33.41-.51l.26-.28.41-.52.38-.41c.15-.17.28-.34.41-.52l1.32-1.88c.18-.23,0-.54.14-.77l.26-.3c.14-.28,0-.58.08-.86a.21.21,0,0,1,.34,0C20.53,131.9,21,132.12,21.23,132.59Z"/><path class="cls-14" d="M51.92,150.78c0,.23-.19.36-.25.55,0,0,0,.07,0,.09s0,0,0,0c-1.13,1-2.06,2.23-3.09,3.34s-2.27,2.56-3.41,3.85c-.11,0-.18,0-.13-.14A101.06,101.06,0,0,1,51.92,150.78Z"/><path class="cls-15" d="M52.58,150.39c-.18.08-.3.29-.54.27a19.48,19.48,0,0,1,2.4-2.32.14.14,0,0,1,0,.19l-.81.92c-.08.09-.15.19-.23.27C53.14,149.94,53,150.29,52.58,150.39Z"/><path class="cls-16" d="M55.43,147l.12-.48c.38-.22.75-.4,1,.13l-.42.38h-.49Z"/><path class="cls-17" d="M45,158.49l.13.14c-.31.35-.54.82-1.06.93Z"/><path class="cls-1" d="M54.46,148.53l0-.19c.22-.22.36,0,.53.08C54.83,148.59,54.63,148.51,54.46,148.53Z"/><path class="cls-10" d="M37.81,167.13c-.21.23-.43.18-.65,0Z"/><path class="cls-18" d="M52.58,150.39l.81-.81c.38,0,.07.42.26.55h0c.22.24,0,.56.14.81v.25c.16.39,0,.82.12,1.21v.38c.24.28.07.59.06.89v1.77a17.87,17.87,0,0,1,0,3.43c0,1.39-.14,2.78-.09,4.17,0,.28.16.63-.27.76-.18-2.36-.2-4.74-.32-7.11a26.11,26.11,0,0,0-.33-5C52.9,151.25,52.69,150.84,52.58,150.39Z"/><path class="cls-1" d="M54.05,155.57c.29.17.45.35.3.75a5.16,5.16,0,0,0-.07,2.73,5.79,5.79,0,0,1-.14,1.77,3.85,3.85,0,0,0,.12,2.37.62.62,0,0,1,.12.5,4.56,4.56,0,0,0,0,2.83c.07.22,0,.51,0,.77a2,2,0,0,0,.21,1.27.26.26,0,0,1-.21.43c-.19-.19-.12-.46-.22-.67a63,63,0,0,1-.21-8.79C54,158.21,53.86,156.89,54.05,155.57Z"/><path class="cls-19" d="M54.05,155.57c-.13,4.3-.15,8.59.14,12.89,0,.36.26.74-.13,1-.14-1.66-.27-3.32-.4-5,0-.24,0-.48,0-.73.18-.15.13-.36.12-.56-.09-2.6.19-5.21.14-7.81,0-.05.09,0,.13,0A.24.24,0,0,0,54.05,155.57Z"/><path class="cls-20" d="M54.06,169.51c.25-.32.06-.7.13-1,.18.14.1.35.13.53,0,1.64.09,3.28.13,4.92,0,.24.21.49-.13.66Z"/><path class="cls-1" d="M54.71,182.15c-.28-.13-.28-.37-.25-.62a11.53,11.53,0,0,0-.06-4.1,2,2,0,0,1,.11-.6c.13.66.27,1.16.32,1.68s0,1.1,0,1.65A5.81,5.81,0,0,1,54.71,182.15Z"/><path class="cls-21" d="M54.71,182.15a6.35,6.35,0,0,1,.14-2,.28.28,0,0,0,0,.13c.23.46,0,1,.06,1.42,0,.28-.07.57.07.84v.26a5.26,5.26,0,0,1,.06,1.43c0,.23-.06.48.07.7v1.46c-.32-.35,0-.84-.26-1.18C54.91,184.19,54.74,183.17,54.71,182.15Z"/><path class="cls-1" d="M54.05,155.45l-.13,0v-2.65c.24,0,.39.2.3.4A7,7,0,0,0,54.05,155.45Z"/><path class="cls-1" d="M55,182.55a7.8,7.8,0,0,1-.13-2.26c.17.08.3.21.23.42A7.56,7.56,0,0,0,55,182.55Z"/><path class="cls-22" d="M54.32,174.57c.21-.19.09-.44.13-.66a8.65,8.65,0,0,1,.1,2.38C54.34,175.73,54.59,175.12,54.32,174.57Z"/><path class="cls-1" d="M55.11,184.94a7.24,7.24,0,0,1-.13-2.13c.15.08.27.17.21.36A8.08,8.08,0,0,0,55.11,184.94Z"/><path class="cls-23" d="M51.64,151.44l0-.11c.24.34.08.7,0,1Z"/><path class="cls-1" d="M53.91,152.4c-.22-.39-.09-.81-.12-1.21C54,151.57,53.86,152,53.91,152.4Z"/><path class="cls-1" d="M53.78,150.94c-.21-.24-.11-.54-.13-.81C54.15,150.32,53.61,150.69,53.78,150.94Z"/><path class="cls-1" d="M53.65,150.13c-.2-.13,0-.43-.26-.55,0-.1.15-.12.26-.13Z"/><path class="cls-24" d="M135.5,86.21c.25,1.21.33,2.44.62,3.64a3.36,3.36,0,0,1-.23,1.57,5.27,5.27,0,0,1-1,2.35c-.56.62-.89.58-1.28-.15a10.09,10.09,0,0,1-.76-3.33,30.77,30.77,0,0,0-4.13-11A41.52,41.52,0,0,0,121,69.79a39.58,39.58,0,0,0-13.85-8.41,22.25,22.25,0,0,0-8.41-1.18,6.66,6.66,0,0,0-3.51.81,16.32,16.32,0,0,0-2.57,1.81c-.11.12-.21.4-.46.15a4.14,4.14,0,0,1,1.37-2c2.8-2.64,5.7-5.16,8.54-7.75s5.64-5,8.57-7.41a4,4,0,0,1,1.45-.76,1.19,1.19,0,0,0,.64.13,18.59,18.59,0,0,1,8.15,1.29c.3-.05.54.15.82.19s.52.23.79.31a22.84,22.84,0,0,1,2.9,1.29A44.3,44.3,0,0,1,134,53.81c.58.56,1.23,1,1.76,1.63A24.07,24.07,0,0,1,138.22,58c.51.56,1,1.16,1.48,1.73a8.89,8.89,0,0,1,.84,1.17c1,1.45,2.08,2.79,3,4.29a29.5,29.5,0,0,1,3.72,8.67,15.79,15.79,0,0,1,.24,6.67,5.46,5.46,0,0,1-1.65,2.58c-1.68,1.79-3.41,3.53-5.12,5.3-.86.88-1.7,1.79-2.57,2.67-.55.55-.93.46-1.22-.25a35.35,35.35,0,0,1-1.3-4.71,8.13,8.13,0,0,1-.44-1.38A9.56,9.56,0,0,1,135.5,86.21Z"/><path class="cls-3" d="M111,21.6a13.71,13.71,0,0,1,1.74-2c2.93-3.35,6.11-6.46,9.29-9.57,1.75-1.7,3.63-3.29,5.44-4.93A.75.75,0,0,1,128.3,5c2.15.58,4.29,1.19,6.46,1.7,3.56.83,7.05,1.94,10.6,2.81,1.21.3,2.38.79,3.58,1.2,0,.21-.16.28-.28.4-1.62,1.63-3.2,3.31-4.88,4.88s-3.6,3.12-5.35,4.73c-1.23,1.14-2.42,2.33-3.54,3.59-.89,1-1.89,1.93-2.85,2.89a.34.34,0,0,1-.4.12c-5.24-1.68-10.58-3-15.92-4.34-1.47-.37-3-.59-4.43-1C111.19,21.81,111,21.77,111,21.6Z"/><path class="cls-25" d="M120.64,104.18a22.89,22.89,0,0,1-10.61-2.6C100.85,96.94,94.1,90,90.29,80.37a19.3,19.3,0,0,1-1.41-8,10.71,10.71,0,0,1,3-7.39,9.15,9.15,0,0,1,5.48-2.36,19.64,19.64,0,0,1,10.92,1.71,40.44,40.44,0,0,1,20.91,20.39,21.63,21.63,0,0,1,2.08,8.44,9.8,9.8,0,0,1-1.13,5,10.59,10.59,0,0,0-.48,1.09c-.91,2.45-2.86,3.67-5.21,4.4A11.45,11.45,0,0,1,120.64,104.18Z"/><path class="cls-25" d="M149,77.06a5.43,5.43,0,0,0-.13-.58,2.19,2.19,0,0,1,.5-2.35,17.9,17.9,0,0,0,1.3-1.74,4.41,4.41,0,0,0,.79-2.36,19.39,19.39,0,0,0-1.94-10.3,41.21,41.21,0,0,0-5-7.36,37.56,37.56,0,0,0-11.19-8.73A16.38,16.38,0,0,0,123,41.84a4.3,4.3,0,0,0-3.3,2.5c-.18.36-.34.51-.75.44a11.88,11.88,0,0,0-1.45-.15c-.31,0-.42-.1-.24-.39a2.76,2.76,0,0,0,.38-1.13c.25-2.5,1.91-3.79,4-4.61a10.65,10.65,0,0,1,6.65,0,31.36,31.36,0,0,1,11,5.81,43,43,0,0,1,10.85,12,27.42,27.42,0,0,1,3.79,9.5,11.86,11.86,0,0,1-.19,5.46,6.09,6.09,0,0,1-2.62,3.62c-.21.13-.45.28-.43.55,0,.43-.27.62-.55.74-.49.2-1,.38-1.13,1Z"/><path class="cls-3" d="M131.11,29.76c.15.19-.05.26-.13.37.23,1.13.51,2.24.73,3.37s-.16,1.51-1.29,1.23c-1.67-.42-3.33-.91-5-1.46-2-.69-4.14-1.28-6.2-2a41.78,41.78,0,0,0-5.45-1.67c-.25,0-.58-.08-.63-.39s.22-.41.4-.57c1-.91,2.13-1.66,3.09-2.61a.6.6,0,0,1,.72-.18,1.91,1.91,0,0,0,1.21.3,17.23,17.23,0,0,1,3.61.85c2.72.91,5.51,1.59,8.27,2.39A1.16,1.16,0,0,1,131.11,29.76Z"/><path class="cls-6" d="M131.11,29.76c-2.71-.68-5.41-1.4-8.08-2.27a41.87,41.87,0,0,0-4.53-1.18,5.61,5.61,0,0,1-1.09-.27c-.17-.05-.32-.15-.49,0-1.08,1.14-2.41,2-3.58,3.05a1.5,1.5,0,0,0-.15.23c3,.48,5.73,1.81,8.63,2.57,2.36.63,4.67,1.45,7,2.17a20,20,0,0,0,2,.54c.68.14.94-.13.81-.78-.2-1-.43-2-.66-3-.07-.26-.19-.51,0-.75.42.06.34.43.37.68A11.87,11.87,0,0,0,132.56,35c.11.2.08.38-.11.44a2.43,2.43,0,0,1-1.43.2,65.4,65.4,0,0,1-6.43-2c-3.88-1.39-7.92-2.22-11.84-3.5a1.09,1.09,0,0,1-.74-.82c-.56-2.11-1.09-4.21-1.59-6.33-.13-.55.27-.5.66-.43,2.67.48,5.23,1.36,7.86,2,3.25.8,6.4,1.95,9.64,2.81a12,12,0,0,1,1.19.42C131.09,28.32,131.09,28.32,131.11,29.76Z"/><path class="cls-3" d="M122.22,44.09a18.16,18.16,0,0,1,5.94,1.45A36.91,36.91,0,0,1,137,51a37.72,37.72,0,0,1,3.41,3,39.16,39.16,0,0,1,7.3,9.77A22.56,22.56,0,0,1,150,70.29c.08.48-.05.9-.52,1s-.7-.29-.79-.72A30.12,30.12,0,0,0,142.28,58a39.64,39.64,0,0,0-9.23-8.44,33.47,33.47,0,0,0-11.15-4.91c-.3-.07-.82,0-.77-.4s.54-.08.83-.14A2.25,2.25,0,0,1,122.22,44.09Z"/><path class="cls-3" d="M148.39,71.46c0,.37,0,.63-.39.66a.55.55,0,0,1-.66-.42,29.8,29.8,0,0,0-2.12-5.13,41.9,41.9,0,0,0-3.58-6,38.87,38.87,0,0,0-5.81-6.6A39.86,39.86,0,0,0,128,48.16a24.44,24.44,0,0,0-6.15-2.36,2.78,2.78,0,0,1-.51-.17c-.22-.1-.5-.19-.38-.51a.51.51,0,0,1,.61-.28,23.94,23.94,0,0,1,7.54,2.77,37.45,37.45,0,0,1,5.57,3.79,45.7,45.7,0,0,1,4.84,4.7,50.53,50.53,0,0,1,4.39,5.62,33.25,33.25,0,0,1,4.4,9.38C148.32,71.25,148.37,71.39,148.39,71.46Z"/><path class="cls-3" d="M124.31,43a14.24,14.24,0,0,1,4,.87,24.74,24.74,0,0,1,9.26,4.82,15.77,15.77,0,0,1,2,2,8.7,8.7,0,0,0,1.41,1.3,21,21,0,0,1,2.68,3,55.38,55.38,0,0,1,4.59,6.3A15.93,15.93,0,0,1,150.43,66a4.06,4.06,0,0,1,.08,1c0,.16,0,.33-.18.38a.42.42,0,0,1-.47-.18,1.42,1.42,0,0,1-.21-.47A12.33,12.33,0,0,0,147,61.32c-.94-1.23-1.78-2.52-2.75-3.71a68.89,68.89,0,0,0-5-5.58,29,29,0,0,0-7.05-5.31,33.89,33.89,0,0,0-8.56-3c-.19,0-.56,0-.52-.37s.36-.26.6-.27Z"/><path class="cls-26" d="M151.27,24.94c-1.71,1.6-3.45,3.18-5.11,4.83a25.12,25.12,0,0,1-2.4,2.09,11,11,0,0,0-1.88,2c-.23.28-.08.6-.17.88-.28-.22-.49-.54-.86-.65a31.21,31.21,0,0,1,4.26-4.34c1.23-1.14,2.41-2.34,3.69-3.43a76.92,76.92,0,0,0,5.85-6.13c.28-.3.14-.46,0-.66a55.26,55.26,0,0,1-4.15-5.49c-.25-.38-.76-.9-.4-1.2s.74.36,1,.69c1.05,1.16,1.76,2.59,2.82,3.75.67.73,1.37,1.44,2.06,2.16.24.24.5.51.33.87s-.51.38-.85.19c-.15-.08-.24,0-.33.12A55.83,55.83,0,0,0,151.27,24.94Z"/><path class="cls-6" d="M148.39,37.32a6.66,6.66,0,0,1,1.58.46c1.37.43,2.71.95,4.1,1.3,2.52.63,4,2.33,5.1,4.54,1.69,3.28,2.31,6.88,3.28,10.38.4,1.42.74,2.86,1.1,4.29.06.14,0,.16-.11.13a97.38,97.38,0,0,1-2.85-9.62c-.62-2.67-2.17-4.8-3.67-7a5.19,5.19,0,0,0-2.24-1.6c-2.1-.93-4.27-1.69-6.29-2.79,0,0,0-.06,0-.08S148.38,37.32,148.39,37.32Z"/><path class="cls-27" d="M133.32,27.37c3.42-3.31,7-6.38,10.55-9.58.13,0,.15,0,.12.12-3,3.07-6.37,5.75-9.32,8.87a5.6,5.6,0,0,0-1,1.15c-.25.5-.79.41-1.09.74a.26.26,0,0,1,0-.38l.16-.24A2,2,0,0,1,133.32,27.37Z"/><path class="cls-28" d="M112.11,45c-.15.43-.63.29-.91.54-.94.83-1.93,1.59-2.9,2.4-2.07,1.73-4,3.62-6.15,5.29-.13.05-.16,0-.13-.12l3.51-3.3q2.37-2.21,4.72-4.43a5.4,5.4,0,0,0,1.35-.36C111.73,45,111.93,44.79,112.11,45Z"/><path class="cls-29" d="M133.9,53.93a49.48,49.48,0,0,0-7.07-4.77l-1.44-.79c-.06-.12-.34-.26,0-.32a32.29,32.29,0,0,1,5.29,3,23.56,23.56,0,0,1,3.47,2.75C134.2,54,134.06,54,133.9,53.93Z"/><path class="cls-30" d="M102,53.14l.13.12c-.88,1-2,1.76-2.91,2.68-1.1,1.07-2.3,2-3.43,3.08-.49.44-1,.91-1.47,1.33A10.28,10.28,0,0,0,92.18,63a4.13,4.13,0,0,1-.53.24c-.39.11-.37-.12-.29-.39,2.35-2.16,4.69-4.33,7-6.49C99.6,55.25,100.82,54.2,102,53.14Z"/><path class="cls-28" d="M148.39,37.32v.12a44.37,44.37,0,0,1-7.15-2.09c-.74-.3-.84-.59-.39-1.22.56-.14.79.16.86.65a3,3,0,0,0,1.34.68C144.8,36.14,146.66,36.55,148.39,37.32Z"/><path class="cls-31" d="M139.37,35.1a1.07,1.07,0,0,1-1.31.23,2.67,2.67,0,0,0-2.15-.3.26.26,0,0,1-.36-.19.23.23,0,0,1,.21-.29A7.11,7.11,0,0,1,139.37,35.1Z"/><path class="cls-32" d="M133.07,32.57c-.16-.93-.33-1.86-.48-2.78,0-.19-.07-.47.17-.5s.19.23.22.4a24.11,24.11,0,0,1,.51,3c0,.09.2.47-.22.31A.38.38,0,0,1,133.07,32.57Z"/><path class="cls-33" d="M170.28,82.51c.42,1.39.83,2.77,1.24,4.16a1.83,1.83,0,0,0,.42.74c.2.22,0,.23-.17.26a1.35,1.35,0,0,1-.58-.83c-.33-1.41-.68-2.8-1-4.2C170.11,82.5,170.17,82.48,170.28,82.51Z"/><path class="cls-34" d="M138.15,58.05l-2.5-2.54a.31.31,0,0,1,.26-.14,22.86,22.86,0,0,1,2.38,2.54C138.33,58,138.28,58.08,138.15,58.05Z"/><path class="cls-35" d="M125.43,48.05c-.17.09,0,.21,0,.32L122.48,47a.1.1,0,0,1,0-.1s0,0,0,0A12.58,12.58,0,0,1,125.43,48.05Z"/><path class="cls-36" d="M135.91,55.37a.26.26,0,0,1-.26.14l-1.75-1.58a.3.3,0,0,0,.29-.16A10,10,0,0,1,135.91,55.37Z"/><path class="cls-37" d="M99.22,22.46a12.24,12.24,0,0,0-2.39-1.35.23.23,0,0,1,.29,0,6.46,6.46,0,0,1,1.85.79C99.12,22,99.55,22.1,99.22,22.46Z"/><path class="cls-38" d="M133.07,32.57l.2.47c.06.32.11.64.18,1,0,.16,0,.27-.16.3s-.18-.16-.18-.27C133.09,33.54,132.8,33.06,133.07,32.57Z"/><path class="cls-31" d="M135.1,34.6c-.46.32-.9.17-1.32.18a.17.17,0,0,1-.18-.21c0-.13.12-.16.24-.18A3.21,3.21,0,0,1,135.1,34.6Z"/><path class="cls-39" d="M138.15,58.05l.14-.14c.49.58,1,1.15,1.46,1.73.06.14,0,.16-.12.12Z"/><path class="cls-40" d="M144,17.91l-.12-.12,1.71-1.6.12.12Z"/><path class="cls-41" d="M97.12,21.1h-.29l-1.4-.37a1.12,1.12,0,0,1,.87-.15C96.47,20.93,96.91,20.82,97.12,21.1Z"/><path class="cls-42" d="M135.5,86.21l-.44-1.55a3.09,3.09,0,0,1,.56,1.44Z"/><path class="cls-43" d="M145.89,15.94l1.16-1.09A2.14,2.14,0,0,1,145.89,15.94Z"/><path class="cls-44" d="M139.63,59.76l.12-.12c.3.39.71.71.79,1.24Z"/><path class="cls-45" d="M92.19,63.83c.26-.51.39-.92,1-.68Z"/><path class="cls-46" d="M132.56,28.29l0,.38c-.09.1-.07.3-.26.31s-.13-.12-.13-.19C132.19,28.54,132.27,28.34,132.56,28.29Z"/><path class="cls-47" d="M101.88,24.83a2.48,2.48,0,0,1-.85-.94A1.42,1.42,0,0,1,101.88,24.83Z"/><path class="cls-48" d="M149.19,13a1.27,1.27,0,0,1-.75.53l.73-.7A.1.1,0,0,1,149.19,13Z"/><path class="cls-49" d="M170.28,82.51l-.11.13a2.4,2.4,0,0,1-.27-1.08.09.09,0,0,1,.14,0Z"/><path class="cls-50" d="M121.69,46.73l-.79-.28c.35-.17.63,0,.92.16A.22.22,0,0,1,121.69,46.73Z"/><path class="cls-51" d="M121.69,46.73l.13-.12a1.56,1.56,0,0,1,.66.25V47Z"/><path class="cls-52" d="M133.32,27.37a2.06,2.06,0,0,1-.6.68A.7.7,0,0,1,133.32,27.37Z"/><path class="cls-53" d="M149.19,13l0-.17c.1-.11.17-.26.38-.31C149.62,12.87,149.45,13,149.19,13Z"/><path class="cls-54" d="M170,81.57h-.14c-.21-.2-.1-.45-.12-.68A1.42,1.42,0,0,1,170,81.57Z"/><path class="cls-55" d="M163.44,58.42l.11-.13a.72.72,0,0,1,.12.69C163.49,58.84,163.51,58.61,163.44,58.42Z"/><path class="cls-56" d="M111,21.6l.25.29c-.14,0-.31.08-.4-.06S111,21.66,111,21.6Z"/><path class="cls-47" d="M102.28,25.38a.7.7,0,0,1-.4-.55A.59.59,0,0,1,102.28,25.38Z"/><path class="cls-57" d="M163.81,59.22c.18.15.12.36.15.55A.39.39,0,0,1,163.81,59.22Z"/><path class="cls-58" d="M56.58,146.68c-.31-.28-.68-.09-1-.13.05-.7-.44-.72-.95-.88-1.51-.49-3-1.09-4.48-1.63C42.36,141.22,34.76,138,27,135.32c-.55-.19-.92-.71-1.54-.74a4,4,0,0,0-.77-.3c-.18-.1-.44-.12-.5-.39.49-.23,1,0,1.55-.22,3.89-1.38,8-1.53,12-2.14,4.61-.7,9.25-1.24,13.87-1.89,3.59-.51,7.19-1,10.79-1.47,3.06-.37,6.13-.69,9.19-1,1.86-.19,3.74-.26,5.6-.44,2.24-.21,4.48-.31,6.71-.61,1.12-.15,2.24-.19,3.36-.29a5.58,5.58,0,0,1,1.63.1c.46,0,.64.32.82.66a7,7,0,0,1,.54,3c.1,1.67.17,3.34.41,5a18.32,18.32,0,0,1-.06,5.28,5.83,5.83,0,0,0,0,1.91,15.89,15.89,0,0,1-5.41,1,77.24,77.24,0,0,0-9.56,1.38c-2.83.58-5.69,1-8.56,1.31-1.45.16-2.85.59-4.31.71-1.82.16-3.64.4-5.46.6A1.32,1.32,0,0,1,56.58,146.68Z"/><path class="cls-59" d="M24.14,133.89l.56.27c0,.09.07.19,0,.26a5.85,5.85,0,0,1-1.41-.53A.91.91,0,0,1,24.14,133.89Z"/><path class="cls-60" d="M88.08,124v-.75C88.41,123.44,88.29,123.63,88.08,124Z"/><path class="cls-6" d="M97,31.07a19.34,19.34,0,0,1,1.23,2.11,3.93,3.93,0,0,1,.89,1.53,33.9,33.9,0,0,1,1.85,4.89c.76,2.37,1.38,4.77,1.92,7.2.12.56.22,1.12.34,1.68a.73.73,0,0,1-.53.93c-.26-1.15-.52-2.28-.76-3.41a69.4,69.4,0,0,0-5-14.4,1.83,1.83,0,0,1-.08-.25C96.75,31.2,96.73,31.07,97,31.07Z"/><path class="cls-61" d="M87.15,25.25l.79-.18c2.55-.45,4.5.76,6.32,2.32a.72.72,0,0,1,.34.62.21.21,0,0,1-.29,0,11.29,11.29,0,0,0-5.7-2.59,5.93,5.93,0,0,0-1.19,0C87.29,25.41,87.14,25.5,87.15,25.25Z"/><path class="cls-62" d="M100.94,39.6q-.9-2.19-1.81-4.38c-.3-.69-.62-1.36-.93-2,.14-.7-.42-1.21-.53-1.95a4.39,4.39,0,0,1,1.06,1.68c.44,1.69,1.37,3.2,1.83,4.89A6.15,6.15,0,0,1,100.94,39.6Z"/><path class="cls-63" d="M94.61,28a7.88,7.88,0,0,0-6.67-2.94l.42-.18-.3-.12s.07-.07.09-.07a10.21,10.21,0,0,1,7.58,4c-.12.15-.27-.22-.37,0A1.24,1.24,0,0,1,94.61,28Z"/><path class="cls-64" d="M96.56,14.46a31.52,31.52,0,0,1,3.24-3A20.44,20.44,0,0,1,102.93,9a11.08,11.08,0,0,1-2.21,2.17c-1.23,1.06-2.5,2.08-3.76,3.12A.56.56,0,0,1,96.56,14.46Z"/><path class="cls-65" d="M94.61,28l.75.7A27.25,27.25,0,0,1,97,31.07c-.12.06-.13.17-.14.28A18.18,18.18,0,0,0,94.31,28Z"/><path class="cls-66" d="M87.15,25.25l.27.13-1.26.33A1.68,1.68,0,0,1,87.15,25.25Z"/><path class="cls-63" d="M96.5,29.63a1.17,1.17,0,0,1-.61-.67A1.21,1.21,0,0,1,96.5,29.63Z"/><path class="cls-1" d="M90.59,141.76c-.18,0-.32,0-.29-.27.08-.86.06-1.73.18-2.58a15.77,15.77,0,0,0-.06-4.55c-.22-1.47-.26-2.94-.37-4.41a8.78,8.78,0,0,0-.51-3.25,1.51,1.51,0,0,0-.67-.78c.62-.63,1.48-.57,2.25-.78a14.47,14.47,0,0,1,3.15.27,3.8,3.8,0,0,1,1.1.24,32.2,32.2,0,0,0,4.65,1c2.32.48,4.59,1.13,6.87,1.75a.85.85,0,0,1,.43.29,35.65,35.65,0,0,1,.22,4.62c.11,2.66.23,5.33.33,8,0,.22,0,.44,0,.66a4.08,4.08,0,0,1-.1-1.63c0-.51-.17-.68-.65-.61l-3.6.46-4.91.6-4.39.54c-.35.17-.74-.06-1.08.13h0c-.34.17-.73-.05-1.07.14h0c-.34.18-.73-.05-1.07.14Z"/><path class="cls-67" d="M68.14,152.8A9.68,9.68,0,0,1,66,151.59a.1.1,0,0,1,0-.17A6.26,6.26,0,0,1,68.14,152.8Z"/><path class="cls-68" d="M66,151.42v.17c-.28-.17-.66-.2-.81-.56A2.21,2.21,0,0,1,66,151.42Z"/><path class="cls-69" d="M92.05,141.63c.33-.27.71-.09,1.07-.14C92.79,141.74,92.41,141.58,92.05,141.63Z"/><path class="cls-70" d="M93.11,141.49c.33-.26.72-.09,1.08-.13C93.85,141.6,93.47,141.45,93.11,141.49Z"/><path class="cls-69" d="M91,141.76c.33-.26.71-.1,1.07-.14C91.72,141.88,91.34,141.71,91,141.76Z"/><path class="cls-5" d="M107.32,128.73c-2.42-.61-4.82-1.34-7.26-1.86l-4.7-1.06a32.58,32.58,0,0,0-3.68-.52,1.23,1.23,0,0,1-.56-.15l.15-.38a19.21,19.21,0,0,1,7.23.64c.1,0,.22,0,.33,0a9.81,9.81,0,0,1,1.07.26L105,127c.58.15,1.15.31,1.73.45a.78.78,0,0,1,.57.47Z"/><path class="cls-71" d="M99.9,125.68a2,2,0,0,1-1.07-.26A1.41,1.41,0,0,1,99.9,125.68Z"/><path class="cls-72" d="M50.94,147.56a.32.32,0,0,1-.33.16.29.29,0,0,1-.26-.32c0-.18.17-.1.26-.08S50.92,147.35,50.94,147.56Z"/><path class="cls-73" d="M24.66,134.42c0-.09-.1-.19,0-.26a1.33,1.33,0,0,1,.71.42A1.64,1.64,0,0,1,24.66,134.42Z"/><path class="cls-3" d="M107.36,53.66a1,1,0,0,1-.61-1.74A24.1,24.1,0,0,1,109,49.78l3-2.46a4.23,4.23,0,0,1,.68-.41,1,1,0,0,1,1.35.29.93.93,0,0,1-.19,1.31c-.83.76-1.67,1.51-2.53,2.24s-1.94,1.6-2.92,2.39A1.87,1.87,0,0,1,107.36,53.66Z"/><path class="cls-74" d="M106.42,57a22.57,22.57,0,0,1,7.35,1.84,31.92,31.92,0,0,1,7.67,4.54c.42.33.78.71,1.17,1.08,0,.22-.11.22-.26.12a55,55,0,0,0-6.48-4.33,25.25,25.25,0,0,0-8.06-2.71c-.86-.15-1.73-.27-2.6-.4C105.57,56.73,106,57,106.42,57Z"/><path class="cls-75" d="M100.68,59.9c-.38-.08-.74-.18-.8-.66s.28-.47.59-.54a6.53,6.53,0,0,1,1.7-.25c.23,0,.44,0,.24.33A2.56,2.56,0,0,1,100.68,59.9Z"/><path class="cls-76" d="M106.42,57c-.4.08-.83-.13-1.21.14a17.92,17.92,0,0,0-4,.27c-.72.15-1.33.58-2.06.67-.23.12-.54.09-.71.33a.23.23,0,0,1-.31,0c-.1-.1,0-.21.06-.27a3,3,0,0,1,.47-.25,17.26,17.26,0,0,1,7.53-1C106.26,56.87,106.34,56.94,106.42,57Z"/><path class="cls-77" d="M122.35,64.55a.27.27,0,0,0,.26-.12,17.93,17.93,0,0,1,3,2.84c.5.52.93,1.11,1.39,1.67,0,.13,0,.16-.13.13A38.59,38.59,0,0,0,122.35,64.55Z"/><path class="cls-78" d="M130.32,73.72a21.17,21.17,0,0,1,2.26,4.12c-.05,0-.09.06-.13,0-.64-1.41-1.55-2.68-2.14-4.11Z"/><path class="cls-79" d="M126.87,69.07l.13-.13a12.13,12.13,0,0,1,1.72,2.47Z"/><path class="cls-80" d="M119.45,50.45a.67.67,0,0,1,.68.17C119.81,50.7,119.81,50.7,119.45,50.45Z"/><path class="cls-81" d="M132.45,77.84h.13a1,1,0,0,1,.29.84Z"/><path class="cls-82" d="M106.22,53.65c0,.2-.14.26-.31.26s-.13,0-.08-.12S106,53.57,106.22,53.65Z"/><path class="cls-83" d="M130.31,73.73c-.24-.12-.28-.34-.45-.71a1,1,0,0,1,.46.7Z"/><path class="cls-84" d="M98.43,58.38c.12-.34.41-.34.7-.33A1.51,1.51,0,0,1,98.43,58.38Z"/><path class="cls-2" d="M129.24,91.41c.19,6.74-3.59,9.9-8.13,10.47s-8.43-.77-12.2-3a41.27,41.27,0,0,1-8.26-6.19c-4.3-4.28-7.81-9.06-9.18-15.11a12.17,12.17,0,0,1,.7-8.1c1.39-3,3.82-4.32,7-4.68a19.59,19.59,0,0,1,9.55,1.7A30.78,30.78,0,0,1,117.41,72a38.21,38.21,0,0,1,8.52,9.93A24.13,24.13,0,0,1,129.24,91.41Z"/><path class="cls-85" d="M117.41,26a1.57,1.57,0,0,1,1.09.27A1,1,0,0,1,117.41,26Z"/><path class="cls-86" d="M74,134.08,81.5,133l0,.19C79,133.45,76.55,134.12,74,134.08Z"/><path class="cls-87" d="M92.79,126.83c-.21.06-.37.09-.4-.06s.12-.11.21-.08A1.08,1.08,0,0,1,92.79,126.83Z"/><path class="cls-26" d="M121.54,78c.87,1,1.8,2.06,2.6,3.16a22.47,22.47,0,0,1,4.51,9.7c.45,2.87,0,5.49-2.27,7.58a9,9,0,0,1-2.46,1.4,5.39,5.39,0,0,1-2.52.61,16.09,16.09,0,0,1-3.67-.27,29.52,29.52,0,0,1-9.1-3.9,40.67,40.67,0,0,1-6.53-5.17A35.2,35.2,0,0,1,94.44,81c-.3-.62-.51-1.27-.81-1.89a13.53,13.53,0,0,1-.92-4c-.22-4.34,1.91-8,6.6-8.73a15.9,15.9,0,0,1,7.42,1c.86.35,1.71.72,2.57,1.09.37.19.74.38,1.12.56a43.78,43.78,0,0,1,5.46,3.57,36.93,36.93,0,0,1,3.19,2.8c.47.5,1,1,1.45,1.47a1.85,1.85,0,0,1,.29.33C121,77.46,121.4,77.65,121.54,78Z"/><path class="cls-88" d="M93.81,79.16c2.55,6.29,7,11.08,12.24,15.16a31,31,0,0,0,11.52,5.7,13,13,0,0,0,5,.23c.14,0,.36-.12.39.16-3.63,1-7,0-10.39-1.28-5.68-2.13-10.13-5.88-14-10.47A29.26,29.26,0,0,1,93,78.57a14.73,14.73,0,0,1-.7-6.53,7.35,7.35,0,0,1,6.42-6,16.38,16.38,0,0,1,8.3,1.22c-.11.38-.36.15-.53.1a21.73,21.73,0,0,0-5.11-1c-4.35-.24-8,2.25-8.54,6.68A12.35,12.35,0,0,0,93.81,79.16Z"/><path class="cls-89" d="M93.81,79.16c-.07-.08-.18-.14-.21-.23a11.43,11.43,0,0,1-.43-7.69,7,7,0,0,1,5.07-4.68,13.73,13.73,0,0,1,7.08.29c.57.15,1.09.57,1.74.38a37.18,37.18,0,0,1,4.12,2c0,.2-.13.19-.27.14a5.3,5.3,0,0,0-.59-.27,3.36,3.36,0,0,1-1-.48,9.84,9.84,0,0,0-2.55-1.12,26.47,26.47,0,0,0-4.59-1,10.69,10.69,0,0,0-3.82.27c-3.39.9-5.35,3.58-5.47,7.49a12.22,12.22,0,0,0,.69,4.1C93.66,78.61,93.73,78.89,93.81,79.16Z"/><path class="cls-90" d="M110.32,69.09c.31-.12.53.35.86.13a25.22,25.22,0,0,1,4.42,2.88c.18.13.34.28.51.42,0,.24-.14.22-.3.15A60.07,60.07,0,0,0,110.32,69.09Z"/><path class="cls-91" d="M115.81,72.67c.12,0,.24,0,.3-.15a21,21,0,0,1,3.24,2.93.27.27,0,0,1-.33,0Z"/><path class="cls-92" d="M123,100.41c-.22-.21-.45,0-.68,0a15.19,15.19,0,0,1-4.51-.26.7.7,0,0,1-.21-.14c.72.09,1.44.2,2.16.26a10.8,10.8,0,0,0,4.19-.41C123.72,100.19,123.72,100.19,123,100.41Z"/><path class="cls-93" d="M119,75.46h.33a10,10,0,0,1,1.27,1.33c0,.12,0,.18-.14.14A15.48,15.48,0,0,1,119,75.46Z"/><path class="cls-94" d="M121.54,78l-.8-.85a.1.1,0,0,1,.16,0C121.17,77.42,121.53,77.59,121.54,78Z"/><path class="cls-95" d="M120.9,77.18h-.16l-.26-.26.14-.14A.46.46,0,0,1,120.9,77.18Z"/><path class="cls-3" d="M112,87.75a27.36,27.36,0,0,1-.25,3.63,2.1,2.1,0,0,1-2.19,1.89,2.2,2.2,0,0,1-1.94-2.1c-.31-2.75-.67-5.49-1-8.23-.21-1.94-.32-3.88-.47-5.82,0-.38-.07-.75-.1-1.13a3,3,0,0,1,.19-1.82,16.33,16.33,0,0,1,2.05-2.69c.73-.84,2.12-.26,2.47.93a14.29,14.29,0,0,1,.38,2.69C111.49,79.26,111.87,83.43,112,87.75Z"/><path class="cls-3" d="M112.89,87.64a10.16,10.16,0,0,1,.56-3.46,3.24,3.24,0,0,1,.82-1.42,1.23,1.23,0,0,1,2,.19.78.78,0,0,1,.15.22,14.19,14.19,0,0,1,1.16,7,2.21,2.21,0,0,1-1.85,2,2.3,2.3,0,0,1-2.37-1.57A7.62,7.62,0,0,1,112.89,87.64Z"/><path class="cls-90" d="M106.76,67.49a5,5,0,0,1,2.55,1.12Z"/><path class="cls-96" d="M119.81,94.06l1.6.18a5.65,5.65,0,0,1-2.13,0C119.42,94,119.66,94.21,119.81,94.06Z"/><path class="cls-97" d="M118.35,93.93c-.15-.07-.45,0-.37-.28s.28-.13.44,0l.34.17C118.73,94.11,118.52,94,118.35,93.93Z"/><path class="cls-98" d="M118.35,93.93c.15,0,.32,0,.41-.15l.51.16c0,.32-.25.14-.4.13S118.49,94.08,118.35,93.93Z"/><path class="cls-99" d="M118.87,94.07c.14,0,.31,0,.4-.13l.54.12c-.14.2-.35.1-.53.14A.55.55,0,0,1,118.87,94.07Z"/><polygon class="cls-10" points="106.22 110.2 115.28 109.18 108.66 165.68 106.22 110.2"/><polygon class="cls-10" points="127.3 113.51 135.34 113.51 148.39 165.45 127.3 113.51"/><polygon class="cls-10" points="144 109.18 147.73 102.01 196.08 125.81 144 109.18"/><polygon class="cls-10" points="81.53 98.26 80.95 92.21 42.47 107.06 81.53 98.26"/><polygon class="cls-10" points="77.76 82.5 77.76 74.02 29.8 75.52 77.76 82.5"/><polygon class="cls-10" points="77.6 65.86 80.95 60.26 45.14 41.02 77.6 65.86"/></svg>