<svg id="Layer_1" data-name="Layer 1" xmlns="http://www.w3.org/2000/svg" viewBox="0 0 200 200"><defs><style>.cls-1{fill:#b391c3;}.cls-2{fill:#fcb419;}.cls-3{fill:#9b74b2;}.cls-4{fill:#323140;}.cls-5{fill:#4f4071;}.cls-6{fill:#fde8d5;}.cls-7{fill:#df6e26;}.cls-8{fill:#f89e1b;}.cls-9{fill:#4f4070;}.cls-10{fill:#9b73b2;}.cls-11{fill:#e0d3e6;}.cls-12{fill:#514172;}.cls-13{fill:#fdcc74;}.cls-14{fill:#fed89f;}.cls-15{fill:#fdbf3f;}.cls-16{fill:#fcbd48;}.cls-17{fill:#fdd17c;}.cls-18{fill:#fdc464;}.cls-19{fill:#3b384a;}.cls-20{fill:#af8dc0;}.cls-21{fill:#d9d1df;}.cls-22{fill:#fde7d2;}.cls-23{fill:#fde7d3;}.cls-24{fill:#fcb41d;}.cls-25{fill:#c9b1d4;}.cls-26{fill:#f79d1b;}.cls-27{fill:#fdc860;}.cls-28{fill:#fbb119;}.cls-29{fill:#f89d1b;}</style></defs><path class="cls-1" d="M56.61,42.86a3.6,3.6,0,0,1,1.84-3.54c3.88-2.78,7.71-5.63,11.56-8.45a20,20,0,0,1,3.09-2.05.6.6,0,0,0,.38-.42,13.68,13.68,0,0,1,4.37-6.52,29.16,29.16,0,0,1,9.34-5.71c2.76-1,5.19-2.65,7.86-3.83a30.13,30.13,0,0,1,5.26-2,16.68,16.68,0,0,1,6.26,0c6.28.95,12.53,2.12,18.76,3.34a27.58,27.58,0,0,1,4.67.93,18.85,18.85,0,0,1,4.82,3.11c2.23,1.76,4.15,3.84,6.26,5.74A50.35,50.35,0,0,0,148.8,29c1.59,1,3.22,1.85,4.84,2.76.23.12.39.24.38-.16.39.19.53.75,1.07.71a4.44,4.44,0,0,0,1.27.53,16.51,16.51,0,0,0,5.74,1.08c.2,0,.28.19.36.35A19.29,19.29,0,0,1,163.88,38c.25,1.37.57,2.72.82,4.09.68,3.69,1.41,7.37,2.4,11,0,.11.09.2.13.31a31.54,31.54,0,0,1,.52,4.34,107.72,107.72,0,0,1,.4,13.32,60.56,60.56,0,0,1-1.64,13.28c-.07.25-.07.54-.35.68a2.26,2.26,0,0,0-1.29-.16,47,47,0,0,1-7,.48,4.86,4.86,0,0,1-1.32-.22,3.22,3.22,0,0,0-2.21-.45c-3.31.79-6.64,1.46-10,2.17a56.52,56.52,0,0,0-7.63,2.66,57.25,57.25,0,0,1-10.08,3.25A19.89,19.89,0,0,1,121,93a3.46,3.46,0,0,0-.46,0c-3.41-.06-6.81-.1-10.22-.18a48.36,48.36,0,0,1-6.89-.83c-1.81-.29-3.65-.34-5.46-.59a46.68,46.68,0,0,0-6.47-.44,48.09,48.09,0,0,0-10.75,1.41,18.85,18.85,0,0,1-9.05-.07,10.06,10.06,0,0,1-5.5-3.73,2.72,2.72,0,0,1-.44-2.14c0-.41.31-.64.45-1,.93-1.2,1.94-2.31,2.89-3.49,1-.82,1.71-1.87,2.72-2.65a21.42,21.42,0,0,1,2.54-1.78,16,16,0,0,1,4.07-1.59c1.71-.46,3.46-.76,5.2-1.09a70.42,70.42,0,0,1,9.06-.57A23.33,23.33,0,0,0,102.3,72a8.34,8.34,0,0,0,4.87-5.15,13.45,13.45,0,0,0,.52-3.2,25.15,25.15,0,0,0-.6-7.39,16.41,16.41,0,0,0-2.8-5.39c-1-1.4-2-2.75-3.06-4.09a1.46,1.46,0,0,1-.42-.67c-.1-.72-.62-.94-1.2-1.16C97.76,44.28,95.88,43.7,94,43c-2-.75-4-1.61-6.09-2.27a3.85,3.85,0,0,0-2.35,0c-2.51.72-5,1.63-7.43,2.49A24.56,24.56,0,0,0,74.92,45c-.41.22-.82.45-1.21.69-.84.33-1.61.78-2.42,1.16s-1.37.56-2.06.82a25,25,0,0,1-3.79,1,8.41,8.41,0,0,1-4.21-.49,8.22,8.22,0,0,1-2.56-1.81c-.38-.54-.87-1-1.26-1.52A3.22,3.22,0,0,1,56.61,42.86Z"/><path class="cls-1" d="M139,138.71a23.53,23.53,0,0,1,6.37-.57,14.41,14.41,0,0,1,9.57,4.16c.59.6,1.15,1.22,1.7,1.85a3.58,3.58,0,0,1,1,2.33c-.37.3-.77.08-1.15,0-2.93-.24-5.84-.64-8.8-.64a30.79,30.79,0,0,0-13,2.7c-1.83.83-3.57,1.85-5.44,2.62-2.58,1.07-5.29,1.74-7.84,2.6A38.88,38.88,0,0,0,132.19,151a67.06,67.06,0,0,1,6.83-2.6,33.32,33.32,0,0,1,6.35-1,61.14,61.14,0,0,1,6.77-.12,36.79,36.79,0,0,1,8.22,1c1.53,1.06,2.81,2.32,3,4.28a3.47,3.47,0,0,1-.81,3,7.48,7.48,0,0,0-1.51,2.21,2.75,2.75,0,0,1-1.42-.22,24,24,0,0,0-7.49-.9,48.84,48.84,0,0,0-7.6,1.19c-2.52.59-5,1.3-7.51,2a3.86,3.86,0,0,1-2.33-.05,39.83,39.83,0,0,0-7.43-1.44,55.1,55.1,0,0,0-5.74-.5,33.09,33.09,0,0,0-5.35.43c-2.11.28-4.21.62-6.29,1.06a14.31,14.31,0,0,1-6.51-.14,36.25,36.25,0,0,1-8.83-3.06,50.77,50.77,0,0,0-12.25-4.28A48.89,48.89,0,0,0,69,150.69c-.63,0-1.27.13-1.91.15a.89.89,0,0,0-.72.26,1.3,1.3,0,0,0,1.06.36c1,.06,2.07.21,3.11.18a40.22,40.22,0,0,1,6.49.43,21.21,21.21,0,0,1,5.18,1.38c3.25,1.31,6.64,2.22,9.92,3.44,1.84.69,3.62,1.57,5.48,2.19,2.38.8,4.72,1.67,7.13,2.36a2.57,2.57,0,0,0,1.85-.12,23.22,23.22,0,0,1,5-1.38,51.66,51.66,0,0,1,10.88-1A36.11,36.11,0,0,1,135,161.19a24.44,24.44,0,0,1,4,2.05,4.17,4.17,0,0,1,1.36,1.44.91.91,0,0,1-.28,1.38,9.54,9.54,0,0,1-2,1.19c-.8.33-1.62.62-2.39,1a8,8,0,0,1-3.24.58,25.7,25.7,0,0,0-9,2.33c-1.65.76-3.4,1.28-5,2-2.33,1.07-4.58,2.31-6.89,3.44a43.12,43.12,0,0,1-5.84,2.18,3.62,3.62,0,0,1-1.31.15,17.06,17.06,0,0,0-3.57.15,24.06,24.06,0,0,1-5.23-.06,59.27,59.27,0,0,0-7.3,0c-1.92.11-3.83.36-5.74.56a4.09,4.09,0,0,1-.63,0,8.43,8.43,0,0,0,2.35-.05,44.94,44.94,0,0,1,7.42.43,40.59,40.59,0,0,0,4.07.56,40,40,0,0,0,5.36,0,4.33,4.33,0,0,1,1.39,0,4.54,4.54,0,0,0,2.6-.31c.83-.32,1.65-.66,2.44-1,1.71-.85,3.43-1.67,5.11-2.56a76.78,76.78,0,0,1,9.54-4c4.74-1.75,9.59-3.13,14.46-4.45,1.29-.35,2.55-.75,3.82-1.16a1.83,1.83,0,0,0,1.11-2.84,5.76,5.76,0,0,0-2-2.3,2.27,2.27,0,0,1-.42-.33c-.19-.21-.19-.39.1-.51a2.91,2.91,0,0,1,.5-.16,98.11,98.11,0,0,1,13.35-2.62,15.44,15.44,0,0,1,3.78.11c2.15.25,4.31.39,6.45.7a10.7,10.7,0,0,1,3.42,3.44,2.23,2.23,0,0,1,.23,1.72,4.86,4.86,0,0,1-4.13,3.87,61.93,61.93,0,0,0-9.78,2.36,59.52,59.52,0,0,0-7.78,3.37c-3.75,1.87-7.67,3.35-11.43,5.17-2.13,1-4.25,2.08-6.41,3a57.26,57.26,0,0,1-9,3.21,21.46,21.46,0,0,1-7.5.31,54.11,54.11,0,0,0-8-.12c-2.28.12-4.54.4-6.8.63a103.87,103.87,0,0,1-12.72.45c-2.39-.06-4.78,0-7.16-.13s-4.5.07-6.66-.51c-3.38-.9-6.85-1.38-10.17-2.5-1.9-.63-3.72-1.45-5.56-2.22A28.76,28.76,0,0,0,48,178.91c-3.67-.62-7.31-1.61-11.09-1.29-.34,0-.77-.11-.94.38-.32,0-.27-.3-.36-.47a4.73,4.73,0,0,0-.36-.71c-.25-.36-.54-.43-.88-.1s-.66.64-1,1c-.15.18-.29.4-.59.31-1-.06-2,.07-3,0-.42,0-.44.45-.71.62-.33-.17-.25-.48-.28-.76a77.46,77.46,0,0,1-.6-9.38,42.47,42.47,0,0,1,.2-4.64c.36-3.25.64-6.51,1.06-9.75A66.28,66.28,0,0,1,32.43,141c.07-.21.09-.44.29-.58a21.52,21.52,0,0,0,4.39,1.09c.44.56.94.43,1.45.12.13.22.35.15.54.15a26.73,26.73,0,0,0,7.35-.84,53.56,53.56,0,0,1,7.82-1.65c1.76-.2,3.51-.41,5.27-.57a91.53,91.53,0,0,1,10.86-.26,20.23,20.23,0,0,1,7.44,1.45,26,26,0,0,1,3.78,2,116.57,116.57,0,0,0,11.3,6.92,54.42,54.42,0,0,0,7.76,3.26,2,2,0,0,0,1.58-.06c1.09-.54,2.19-1,3.29-1.56.29-.21.55,0,.81.08a29.63,29.63,0,0,0,7.06,1.79,25,25,0,0,0,7.91-.31,24.57,24.57,0,0,0,13-6.91,24,24,0,0,0,4.21-5.93C138.63,139,138.63,138.69,139,138.71Z"/><path class="cls-2" d="M139,138.71a24.31,24.31,0,0,1-19.41,13.79,26.91,26.91,0,0,1-13.45-1.85c-.18-.07-.37-.11-.56-.17a30,30,0,0,1-6-3.71c-6.3-5.26-9.78-11.94-9.51-20.21.28-8.64,4.39-15.22,11.81-19.56a26.36,26.36,0,0,1,30.1,2.84,25.08,25.08,0,0,1,9,16.69,22.93,22.93,0,0,1-1.73,11.56C139.12,138.3,139.05,138.5,139,138.71Z"/><path class="cls-3" d="M155.06,32.36c-.68.17-.83-.35-1-.79a4.42,4.42,0,0,1,4.09-5.6,6.83,6.83,0,0,1,6.26,2.92c.24.31.46.63.78,1.05a7.24,7.24,0,0,1,1.5-3,6.74,6.74,0,0,1,3.57-2.29A4.16,4.16,0,0,1,174.35,26c.13.15.27.29.45.5.59-1.5,1.92-1.89,3.23-2.29a7.46,7.46,0,0,1,4.47.4c3.36,1.05,4.84,3.72,6,6.69a45.53,45.53,0,0,1,2.68,11.26c.51,4.06,1,8.12,1.42,12.18A95.38,95.38,0,0,1,193,68.26c-.06,1.86-.05,3.72-.15,5.58A28.34,28.34,0,0,1,189.91,86a10,10,0,0,1-5.74,5,6,6,0,0,1-3.32-.09.64.64,0,0,0-.76.31,12.32,12.32,0,0,1-6.34,4,4.92,4.92,0,0,1-3.81-.72c-.36-.2-.57-.2-.83.14a7.78,7.78,0,0,1-13-1.18A9.55,9.55,0,0,1,154.53,89a2.82,2.82,0,0,1,1.05-2.4c.31-.23.18-.57.4-.79a13.52,13.52,0,0,0,.91,2.31,12.76,12.76,0,0,0,3,3.88,3.69,3.69,0,0,0,5.35-.31,12.62,12.62,0,0,0,2.85-5.33,45,45,0,0,0,1.71-9.06,83.73,83.73,0,0,0,.38-12.06c-.09-3.22-.32-6.44-.73-9.65a95.19,95.19,0,0,0-2.36-12.78,37.65,37.65,0,0,0-4-10,6.56,6.56,0,0,0-4.49-3.44,2.46,2.46,0,0,0-.66-.06c-.78.06-1,.29-1.18,1.07a2.78,2.78,0,0,0,.17,1.66c.18.62.15.67-.52.78C155.89,32.71,155.5,32.45,155.06,32.36Z"/><path class="cls-3" d="M32.82,140.39a65.46,65.46,0,0,0-2.27,8.73c-.33,1.86-.58,3.73-.87,5.59-.2,1.33-.3,2.67-.44,4-.17,1.66-.35,3.32-.51,5-.07.68-.14,1.36-.15,2,0,1.8,0,3.6,0,5.41a48.31,48.31,0,0,0,.51,6.24c.07.42-.14.88.15,1.28.28.18.26.49.32.76a11.66,11.66,0,0,0,.84,3l1.46-2.9a7.93,7.93,0,0,1,.6-1.11c.13-.19.24-.42.53-.45.43-.46.84-.93,1.28-1.38s.84-.47,1.18.14A10.67,10.67,0,0,1,36,178a6.8,6.8,0,0,1-.14,4.16A11.94,11.94,0,0,1,34,186.42a4,4,0,0,1-5,1.42c-.1-.05-.2-.1-.3,0a.4.4,0,0,1-.38-.23,16,16,0,0,1-1.44-2.14,18.79,18.79,0,0,1-1.94-7.6c0-1.81-.27-3.61-.38-5.42a26,26,0,0,1,.12-3.64c.16-2.09.21-4.19.47-6.28.45-3.69,1.1-7.35,1.61-11A77,77,0,0,1,30,137.68a19.86,19.86,0,0,1,2.68-5.54,5.55,5.55,0,0,1,2.22-1.94.66.66,0,0,0,.33-.31,2.28,2.28,0,0,1,2.23.44,6.46,6.46,0,0,1,2.46,4.11,9.55,9.55,0,0,1-1.34,7.15c-.66.75-1,.74-1.36,0a7.9,7.9,0,0,1-.1-3.14,7.74,7.74,0,0,0-.78-4.18c-.1-.18-.16-.46-.44-.44s-.28.26-.37.43a50.62,50.62,0,0,0-2.22,5.4C33.18,139.91,33.17,140.25,32.82,140.39Z"/><path class="cls-4" d="M35.21,129.89c.14.19.08.31-.13.4-1.91.92-2.85,2.65-3.7,4.44a50.57,50.57,0,0,0-3.21,10.2c-1.26,5.39-1.8,10.89-2.67,16.34-.42,2.64-.42,5.32-.67,8-.3,3.18.28,6.3.38,9.45a17.47,17.47,0,0,0,1.63,6.24,18.19,18.19,0,0,0,1.85,2.89l1.22,2c-.17.18-.3.08-.44,0a10,10,0,0,1-4.16-4.06A18.16,18.16,0,0,1,24,182.65c-.38-.34-.37-.84-.53-1.27A10.3,10.3,0,0,1,23.2,179c-.17-2.6-.56-5.19-.52-7.8a83.16,83.16,0,0,1,1.25-13.73c.6-3.29.92-6.62,1.64-9.89a68,68,0,0,1,2.14-7.53,4.41,4.41,0,0,1,.32-.78,6.22,6.22,0,0,0,.73-1.91c.18-1.72.16-3.46-1.09-4.87a1.23,1.23,0,0,0-1.78-.29,7.22,7.22,0,0,0-1.59,1.2,24.62,24.62,0,0,0-2,2.21,4.83,4.83,0,0,0-.84,1.3A38.21,38.21,0,0,0,19.33,143a109,109,0,0,0-3.07,13.45,93.25,93.25,0,0,0-1.58,15.91,89.1,89.1,0,0,0,.79,9.78,12.35,12.35,0,0,0,1.65,4.59,1.9,1.9,0,0,1,.4,1c.11.21.38.31.4.62a2.05,2.05,0,0,1-2-.64,7.5,7.5,0,0,1-1.75-2.38.77.77,0,0,1-.36-.45,3,3,0,0,0-.81-1.24c-.51-.48-.47-1.2-.69-1.81s-.25-1.27-.41-1.9c-.32-1.88-.48-3.78-.68-5.68a10.47,10.47,0,0,1,0-1.12v-1a17.19,17.19,0,0,0-.15-2.38A56.66,56.66,0,0,1,13,154.56c.76-3.16,1.63-6.3,2.57-9.42.23-.78.55-1.54.81-2.31.12-.29.21-.58.33-.87a6,6,0,0,0,.3-.8c.09-.24.21-.46.28-.71A29.92,29.92,0,0,1,19,136.79a4.59,4.59,0,0,0,1.05-1.34,1,1,0,0,1,.51-.5,29.8,29.8,0,0,1,2.77-2.85A7.29,7.29,0,0,1,25,131a2.83,2.83,0,0,1,4.1,1.24,8.51,8.51,0,0,1,.8,3.15c.15-.27.29-.56.44-.83a11,11,0,0,1,3.09-3.84A4.37,4.37,0,0,1,35.21,129.89Z"/><path class="cls-5" d="M163.31,159c-.69.35-1.37,0-2.05-.07a69,69,0,0,0-7.72-.58,55.39,55.39,0,0,0-5.57.82,90.62,90.62,0,0,0-8.86,2c.07.28.34.33.52.45a6.34,6.34,0,0,1,2.41,2.93,2,2,0,0,1-1.12,2.44c-2.86,1-5.8,1.74-8.71,2.56a115.86,115.86,0,0,0-24,9.46c-.68.36-1.39.67-2.1,1a8,8,0,0,1-3.78.73c-1.69-.09-3.4,0-5.1,0a25.09,25.09,0,0,1-4.07-.44,45.65,45.65,0,0,0-9.12-.58,6.87,6.87,0,0,1-2.88-.22l2-.18a72.87,72.87,0,0,1,11.72-.54c1.32.05,2.64.26,4,.26a18.05,18.05,0,0,0,3-.26,4.92,4.92,0,0,1,1.58,0,10,10,0,0,0,4.51-.88,62,62,0,0,0,9-4.22,25.28,25.28,0,0,1,3-1.29c1.63-.58,3.21-1.28,4.8-1.95a26.09,26.09,0,0,1,8.84-1.87,5.14,5.14,0,0,0,1.93-.41,22.19,22.19,0,0,0,4.5-2.23c.55-.43.61-.71.21-1.27a5.52,5.52,0,0,0-1.7-1.56,26.7,26.7,0,0,0-10-3.43,44.84,44.84,0,0,0-7.67-.54c-4.58.19-9.16.56-13.48,2.17a5.69,5.69,0,0,1-4-.1c-3.93-1.27-7.8-2.73-11.63-4.28-2.69-1.09-5.53-1.74-8.22-2.82a25.9,25.9,0,0,0-6.16-1.79,44.41,44.41,0,0,0-6.2-.49,28.43,28.43,0,0,1-4.23-.25c-.13,0-.27,0-.39-.09s-.47-.15-.45-.42.27-.25.46-.31a8.51,8.51,0,0,1,2.24-.21,57.62,57.62,0,0,1,8.1.11,55.79,55.79,0,0,1,9,1.83,51.47,51.47,0,0,1,9.55,3.75,33.54,33.54,0,0,0,10.71,3.13,16.18,16.18,0,0,0,5.12-.56,66.28,66.28,0,0,1,9.52-1.22,34.43,34.43,0,0,1,5.55.37,35.58,35.58,0,0,1,7.62,1.34,7.11,7.11,0,0,0,4.56-.12,85.41,85.41,0,0,1,11-2.55,25.14,25.14,0,0,1,10.94.83l.7.22c0,.19.1.42.29.38C162.24,157.87,162.67,158.65,163.31,159Z"/><path class="cls-3" d="M16.1,156.35a81.06,81.06,0,0,1,2.17-10.1,64.71,64.71,0,0,1,2.61-8.47c.14-.34.33-.67.49-1a4.61,4.61,0,0,0,.82-1.24,14.4,14.4,0,0,1,3.38-3.32,1.61,1.61,0,0,1,2.53.53,5.26,5.26,0,0,1,.85,2.34,6.13,6.13,0,0,1-.79,4.24c-.61.18-1.07-.07-1.39-.75a10,10,0,0,1-.57-2.2c0-.06-.14,0-.05,0s0,0,0,0a19.67,19.67,0,0,1-1.33,2.73c-2.38,5.06-3.27,10.49-4,16-.85,6-1.52,12.07-2.22,18.11a49.67,49.67,0,0,0-.13,7.42c.22.67.3,1.38.55,2.05a3.28,3.28,0,0,0,.37.78.65.65,0,0,0,1,.22,8.86,8.86,0,0,0,2.2-1.8c.26-.33.53-.77,1.08-.43a5.23,5.23,0,0,1,.38,1.2c-.22.33-.09.69-.09,1a4.74,4.74,0,0,1-3.72,4.47,3.63,3.63,0,0,1-2.13-.3c-.18-.07-.32-.33-.58-.15a12.93,12.93,0,0,1-2.33-6c-.34-2.89-.6-5.8-.7-8.71,0-.18,0-.36,0-.53.12-1.4.2-2.81.3-4.21.17-2.29.46-4.56.71-6.83.16-1.51.37-3,.59-4.51A.74.74,0,0,0,16.1,156.35Z"/><path class="cls-3" d="M16.59,142.77A123.74,123.74,0,0,0,12,160.12,42.72,42.72,0,0,0,11.4,171c0,.35,0,.7,0,1.05-.36-.2-.07-.55-.18-.81,0-.08-.12.06-.05,0,.13.33,0,.68.11,1a36.46,36.46,0,0,0,.69,7.66,1.84,1.84,0,0,0,.09.25,8.63,8.63,0,0,0,.45,1.73,2.67,2.67,0,0,1,.27.87c.07.27.09.61.34.77.68.42.81,1.16,1.09,1.81-.35,0-.54.37-.85.49a2.82,2.82,0,0,1-3-.74,8.17,8.17,0,0,1-2.27-3.91,27.84,27.84,0,0,1-.93-11.23c.35-3.11.72-6.23,1.09-9.34a95.55,95.55,0,0,1,5.22-20.32,26,26,0,0,1,1.92-4.51,4.88,4.88,0,0,1,1.15-1.45,2.37,2.37,0,0,1,3-.17,12.67,12.67,0,0,1,1.1.83c-.49.62-.67,1.48-1.47,1.86a1.22,1.22,0,0,0-.86.88c-.31.85-.58,1.71-.88,2.56-.13.26-.19.53-.3.79s-.18.6-.28.89A1.55,1.55,0,0,0,16.59,142.77Z"/><path class="cls-4" d="M156.53,30.41c-.15-1.11.76-1.44,1.79-1.31a6.39,6.39,0,0,1,4.6,3.17,34.86,34.86,0,0,1,4,9.22,85.59,85.59,0,0,1,2.65,13.36c.37,3,.62,6,.73,9,.1,2.46.15,4.92.07,7.37a57.15,57.15,0,0,1-2.09,15.11A14.85,14.85,0,0,1,166,91c-2.09,2.78-5,2.86-7.27.21A19.67,19.67,0,0,1,156.12,87a3.36,3.36,0,0,1-.14-1.17,1.16,1.16,0,0,1,.56-.67,1.53,1.53,0,0,1,1.18.14c.45.11.57.52.75.87a15.29,15.29,0,0,0,2.19,3.38c1.45,1.55,2.5,1.46,3.61-.37a12.45,12.45,0,0,0,1.39-3.22c.1-.33.12-.7.45-.92a35.17,35.17,0,0,0,1-4.85,88.75,88.75,0,0,0,.77-16.61c-.1-3.27-.37-6.54-.77-9.78,0-.13-.07-.26-.1-.39-.74-3.8-1.29-7.65-2.29-11.4-.36-1.33-.64-2.69-1-4a22.13,22.13,0,0,0-1.59-4,.35.35,0,0,1-.25-.15A12.41,12.41,0,0,0,160,31a2.3,2.3,0,0,0-3.08-.6A.55.55,0,0,1,156.53,30.41Z"/><path class="cls-2" d="M56.61,42.86a8.14,8.14,0,0,0,.92,2c0,.32-.27.33-.46.37a17.84,17.84,0,0,0-6.82,3.21.42.42,0,0,1-.12,0c-.31-.32-.16-.65-.05-1,0-.12.09-.26,0-.36a.33.33,0,0,0-.38,0,6.83,6.83,0,0,0-1.49,1.3.46.46,0,0,0,.16.73.48.48,0,0,1,.14.74,12,12,0,0,1-1.74,1.75c-.31-.15-.27-.48-.36-.74-.17-.48-.5-.6-.81-.22A7.56,7.56,0,0,0,44.22,53c-.19.56,0,.79.62.83.15,0,.32,0,.39.16-.26,1-.88,1.92-1.21,2.92a18.41,18.41,0,0,0-.78,9.39c0,.23-.12.36-.25.51a1.64,1.64,0,0,0-.38.68c-.13.57,0,.81.65.82a.53.53,0,0,1,.37.07c.29.93.61,1.85.95,2.76,0,.27-.17.43-.33.61a2.93,2.93,0,0,0-.51.75.67.67,0,0,0,.13.84.72.72,0,0,0,.86.08c.2-.09.33-.37.62-.22a.67.67,0,0,1-.5.81c-.4.15-.41.38-.2.66.63.87,1.27,1.74,1.89,2.62a3.73,3.73,0,0,0,1.33,1.23.88.88,0,0,1,.37.37,5.15,5.15,0,0,0,2,1.91q1.93,1.39,4,2.64a23.54,23.54,0,0,0,2.22.83,20.22,20.22,0,0,0,3.91,1.16,5.37,5.37,0,0,0,2.49.26.65.65,0,0,1,.38.09c.93.32,1.86.57,2.7-.22a.29.29,0,0,1,.42,0l-.54.89c-9.44,0-16.71-3.94-21.86-11.84l-.33-.49A22.34,22.34,0,0,1,41,67.59a20.51,20.51,0,0,1-.43-7.28,20.24,20.24,0,0,1,1.94-6.54,21.18,21.18,0,0,1,4-5.55A20.55,20.55,0,0,1,56.61,42.86Z"/><path class="cls-5" d="M160.36,148.23a.7.7,0,0,1-.63.08,51.63,51.63,0,0,0-13.13-.85,34.83,34.83,0,0,0-13.66,3.4,40.14,40.14,0,0,1-10.46,3c-.45.08-.92.11-1.38.15-.14,0-.36.06-.39-.15s.18-.19.32-.23c1.91-.57,3.81-1.12,5.7-1.74a34.71,34.71,0,0,0,5.18-2.2,32.47,32.47,0,0,1,9.6-3.54,37.29,37.29,0,0,1,9.38-.39c2.24.19,4.49.37,6.72.67a5.84,5.84,0,0,1,1.84.5C160,147.24,160.4,147.57,160.36,148.23Z"/><path class="cls-6" d="M70.29,128.18,69,128c-.13,0-.29,0-.34-.15s.1-.28.21-.37a8.82,8.82,0,0,1,1.91-.91,49.89,49.89,0,0,1,10.38-3,4,4,0,0,1,2.28,0c.33.12.69.23.78.63a1.1,1.1,0,0,1-.37,1.07,4.51,4.51,0,0,1-1.87,1,54.43,54.43,0,0,1-7.13,1.61C73.34,128.06,71.79,127.94,70.29,128.18Z"/><path class="cls-6" d="M89.09,109.83A3.22,3.22,0,0,1,87.2,109c-2.1-1.53-4.21-3-6.24-4.67a10.26,10.26,0,0,1-2.51-2.7c-.09-.15-.27-.28-.09-.46s.29,0,.42.06a56.5,56.5,0,0,1,9.28,5.17,7.29,7.29,0,0,1,1.88,2,1,1,0,0,1,0,1A.85.85,0,0,1,89.09,109.83Z"/><path class="cls-6" d="M71.13,110.9a63.15,63.15,0,0,1,7.39.85,35.57,35.57,0,0,1,4.64,1,7.09,7.09,0,0,1,2.29,1.29,1,1,0,0,1,.44,1c-.12.5-.57.39-.93.39a11.61,11.61,0,0,1-3.54-.76c-2.76-.78-5.57-1.38-8.29-2.29l-2.69-.91c-.19-.07-.46-.11-.42-.34s.3-.21.5-.21S70.87,110.9,71.13,110.9Z"/><path class="cls-6" d="M149.21,101.2a.79.79,0,0,1,.6.29c.16.22,0,.42-.12.6a2.38,2.38,0,0,1-.7.6c-2,1.57-3.82,3.26-5.89,4.68a28,28,0,0,1-3.8,2.51l-.49.21a.67.67,0,0,1-.92-.26.66.66,0,0,1,.18-.88,37.68,37.68,0,0,1,3.68-3.12,46.73,46.73,0,0,1,5.59-3.87A7,7,0,0,1,149.21,101.2Z"/><path class="cls-6" d="M144,118.81c-.31-.08-.77-.1-.86-.59s.21-.64.58-.78a52.92,52.92,0,0,1,8.35-2.73,12.07,12.07,0,0,1,3.33-.36c.19,0,.47-.11.52.15s-.2.31-.38.4a31.42,31.42,0,0,1-3.93,1.76,43,43,0,0,1-6.36,2C144.87,118.73,144.47,118.76,144,118.81Z"/><path class="cls-6" d="M130.35,103.06a4.56,4.56,0,0,1,1-2.39,19.34,19.34,0,0,1,4.64-5c.14-.1.25-.3.45-.19s.09.34.05.53a10.42,10.42,0,0,1-1.44,3.25,28.47,28.47,0,0,1-3.17,4.39,1,1,0,0,1-1.1.37C130.33,103.89,130.34,103.48,130.35,103.06Z"/><path class="cls-7" d="M58.77,46.3A9.37,9.37,0,0,0,61.14,48c-.37.34-.85.13-1.27.22a3.53,3.53,0,0,1-2,.1.93.93,0,0,0-.58.11C50.83,50.7,47.07,55.25,46.06,62a15.42,15.42,0,0,0,1.62,9.47,19.48,19.48,0,0,0,2.85,3.91,16.57,16.57,0,0,0,9.86,5.31,12.87,12.87,0,0,0,8.91-1.16,17.86,17.86,0,0,0,6.87-6.41,15.29,15.29,0,0,0,1.77-5.81,17.86,17.86,0,0,0-.66-6.89,15.62,15.62,0,0,0-3-5.65A21.26,21.26,0,0,0,68.81,50,10.52,10.52,0,0,0,66,48.79c-.19,0-.4,0-.52-.24l3.74-1a7.08,7.08,0,0,1,2.5,1,17.26,17.26,0,0,1,7.7,9.54,16.58,16.58,0,0,1,1.11,5.5A20.84,20.84,0,0,1,79.84,69a20.74,20.74,0,0,1-4.08,7.29,10.89,10.89,0,0,1-1.36,1.44l-2.47,1.73a20.55,20.55,0,0,1-8,2.55,16.8,16.8,0,0,1-12.78-3.89c-3.85-3.06-5.79-7.16-6.65-11.88a17.06,17.06,0,0,1,1.44-10.1A16.45,16.45,0,0,1,53,48.48a14.54,14.54,0,0,1,4.11-1.66,2.71,2.71,0,0,0,.77-.36A.88.88,0,0,1,58.77,46.3Z"/><path class="cls-8" d="M65.5,48.55a8.57,8.57,0,0,1,3.82,1.56,22.91,22.91,0,0,1,3.94,3.22,17.49,17.49,0,0,1,4.78,10,18.59,18.59,0,0,1-1.29,9.17,8.35,8.35,0,0,1-1.68,2.61A20.63,20.63,0,0,1,68.88,80,13.54,13.54,0,0,1,61.65,81a18.68,18.68,0,0,1-6.14-1.72,17.36,17.36,0,0,1-6.63-5.63,14.91,14.91,0,0,1-3-7.39A16.51,16.51,0,0,1,57.44,48.23a.85.85,0,0,1,.76,0,.82.82,0,0,0,.65.05A7.71,7.71,0,0,1,61.14,48,9.38,9.38,0,0,0,65.5,48.55Z"/><path class="cls-2" d="M73.6,45.62A24.09,24.09,0,0,1,84.29,58.06a21,21,0,0,1-.56,17L78.4,76.09c-.12-.38.17-.62.34-.89A19.58,19.58,0,0,0,81,71.09a18.35,18.35,0,0,0,1-4.93,30.08,30.08,0,0,0-.16-4.35,3.21,3.21,0,0,0-.18-1c-1-2.11-1.41-4.42-2.63-6.43a19.45,19.45,0,0,0-6.55-6.55c-.3-.18-.61-.34-.9-.55s-.47-.22-.32-.55A17.72,17.72,0,0,1,73.6,45.62Z"/><path class="cls-8" d="M58.77,46.3c-.11,0-.24,0-.32.05-1.14.81-2.56.88-3.8,1.45a19.86,19.86,0,0,0-4.24,2.68,15.84,15.84,0,0,0-5,7.47,16.52,16.52,0,0,0-1,6.1,20.1,20.1,0,0,0,1.89,7.52,16.69,16.69,0,0,0,4,5.56A17.65,17.65,0,0,0,60.5,81.82c3.8.36,7.28-.68,10.7-2.14a1.75,1.75,0,0,1,.73-.27L69.23,82a18.28,18.28,0,0,1-5.8,1.14,20.5,20.5,0,0,1-9.3-1.73,18.36,18.36,0,0,1-6.75-5.21,20.15,20.15,0,0,1-1.56-2.14,3.5,3.5,0,0,1-.47-1,.67.67,0,0,1,0-.2c.29-1.21.29-1.21-.78-1.69a6.54,6.54,0,0,1-1-2.86c-.09-.16,0-.29.07-.43.43-.93.43-.93-.4-1.5a2.16,2.16,0,0,1-.42-1.6,20.15,20.15,0,0,1,.78-7.24,31.89,31.89,0,0,1,1.58-3.7c.25-.37.61-.14.9-.13A.83.83,0,0,0,47,52.61a2.14,2.14,0,0,1-.19-1,7.53,7.53,0,0,1,1.59-1.74c.42.15.81.56,1.31.17s.62-.56.4-1c-.09-.2-.17-.42,0-.6a9,9,0,0,1,2.49-1.7,15.65,15.65,0,0,1,4.32-1.63,3.75,3.75,0,0,0,.6-.24Z"/><path class="cls-9" d="M80.27,26.39c-2.55,1.08-5.24,1.81-7.62,3.29A6.85,6.85,0,0,1,74.93,28c2-1,4.13-1.7,6.08-2.79,1.72-.95,3.43-1.94,5.18-2.83,2.51-1.27,5.17-2.21,7.76-3.28a10.46,10.46,0,0,1,5.55-.37c3.67.52,7.31,1.24,11,1.64a15.5,15.5,0,0,0,2.26,0,17.45,17.45,0,0,1,6.67,1.21c3.8,1.33,7.61,2.61,11.29,4.26.23.11.51.15.7.42a2.22,2.22,0,0,1-1.59-.08,41.7,41.7,0,0,1-10.14-3.44,12.55,12.55,0,0,0-7.21-1.2,17.67,17.67,0,0,1-5.65-.51c-2.94-.62-5.89-1.17-8.87-1.55a8.59,8.59,0,0,0-4.1.9c-3.81,1.45-7.48,3.21-11.2,4.86a13.66,13.66,0,0,0-2.38,1.13Z"/><path class="cls-8" d="M71.23,46.75c.11.33.42.42.68.57a19.6,19.6,0,0,1,7.55,7.51A10,10,0,0,1,80.38,57c.41,1.49,1.22,2.84,1.53,4.35a16,16,0,0,1,.21,1.83,21.07,21.07,0,0,1-.21,5.26,16.33,16.33,0,0,1-3,6.79c-.2.29-.37.6-.56.9a24.68,24.68,0,0,0-4,1.59c.2-.6.73-1,1.11-1.4a19.17,19.17,0,0,0,4.64-9.64A18.05,18.05,0,0,0,76,52.3a14.66,14.66,0,0,0-6.44-4.59,1.59,1.59,0,0,1-.27-.18Z"/><path class="cls-2" d="M45.44,73a13.37,13.37,0,0,0,2.32,3.43,17.31,17.31,0,0,0,5.91,4.62A20.4,20.4,0,0,0,60,82.87,21.12,21.12,0,0,0,68.93,82c.12,0,.21-.07.3,0l-2.89,3.48c-.14,0-.31,0-.36.14-.25.67-.82.54-1.32.51s-1,.2-1.45-.23c-.05,0-.12-.12-.16-.11-.51.11-1,.31-1.5-.11-.38.39-.83,0-1.06-.08A11.3,11.3,0,0,0,58,85c-1.19-.21-2.12-1-3.32-1.13A2,2,0,0,1,53.35,83a.4.4,0,0,0-.2-.16,22.08,22.08,0,0,1-3.45-2.23c-.51-.32-1.37-.61-1.47-1.49a.61.61,0,0,0-.33-.39,3.81,3.81,0,0,1-1.72-1.57c-.4-.59-.84-1.16-1.22-1.76a8.93,8.93,0,0,1-.57-.8c-.18-.39-.23-.71.36-.76.4,0,.46-.4.57-.7C45.28,73,45.34,73,45.44,73Z"/><path class="cls-9" d="M123.68,18.57a1.32,1.32,0,0,1-1.07.22c-5.17-.47-10.28-1.37-15.4-2.12-1.66-.25-3.3-.6-5-.73a22,22,0,0,0-3.25.12,30.77,30.77,0,0,0-8.2,1.69,58,58,0,0,0-14.1,6.94c-.28.2-.73.62-1,.29s.31-.6.58-.81a32.73,32.73,0,0,1,6.17-3.58,57.36,57.36,0,0,1,7.36-3.15c3.11-1,6.1-2.37,9.34-2.92a19,19,0,0,1,7.17.29c4.62,1,9.25,1.85,13.87,2.81C121.33,17.85,122.41,18.21,123.68,18.57Z"/><path class="cls-9" d="M69.46,88.77c0,.23.19.58-.08.66s-.39-.29-.51-.51a2.12,2.12,0,0,1-.1-1.74,5.08,5.08,0,0,1,2.28-2.83c.31-.19.67-.49,1.09-.14.19.16.32,0,.45-.13a7.14,7.14,0,0,1,6.85-.47,4.26,4.26,0,0,1,2.69,3.92,2.71,2.71,0,0,1-.27,1c0,.11-.09.22-.22.19s-.12-.14-.13-.26c-.25-2.46-1.74-3.89-4.36-4.29a7.54,7.54,0,0,0-5.1.91c-.18.11-.19.11-.49-.14-.1-.09-.16,0-.21,0A7.5,7.5,0,0,0,69.46,88.77Z"/><path class="cls-10" d="M163.71,38a43.21,43.21,0,0,1,1.7,5.9c.69,2.9,1.17,5.84,1.6,8.78,0,.24,0,.49,0,.73-.49-1.7-1-3.41-1.33-5.15-.6-2.94-1.17-5.89-1.73-8.84A5.84,5.84,0,0,1,163.71,38Z"/><path class="cls-9" d="M58,42.19c-.27,0-.48,0-.5-.24s.19-.24.36-.3a13.58,13.58,0,0,0,3.94-2,4.56,4.56,0,0,0,1.19-1.4c.08-.14,0-.4.32-.32a.39.39,0,0,1,.23.54,2.58,2.58,0,0,1-.34.71A8.46,8.46,0,0,1,58,42.19Z"/><path class="cls-11" d="M80.27,26.39l.57,0c-.19.07-.36.48-.57,0Z"/><path class="cls-9" d="M65.71,181.51a2.66,2.66,0,0,1,1.43-.3,23.61,23.61,0,0,0,8.46-1.28,9.79,9.79,0,0,1,2.75-.24c.14,0,.37,0,.4.15s-.18.25-.35.3c-3.09,1-6.17,2.07-9.5,1.7A19.53,19.53,0,0,1,65.71,181.51Z"/><path class="cls-12" d="M108.84,154.72c.4,0,1-.08,1.07.37s-.61.35-1,.48a3.15,3.15,0,0,1-1.75-.06c-.13,0-.28-.08-.29-.23s.14-.21.26-.24A5.26,5.26,0,0,1,108.84,154.72Z"/><path class="cls-8" d="M131.69,135.09c.37.57.72,1.15,1.13,1.69.7.93,1.18,2,1.88,2.91.54.7.22,1.14-.9,1.37-.23.18-.48.08-.72.06s-.4-.1-.59-.19c-4.63-1.41-9.19-3.07-13.89-4.29a2.07,2.07,0,0,0-2.07.63,53.41,53.41,0,0,1-4.31,3.49c-2.26,1.82-4.74,3.3-7.14,4.91-.33.23-.75.66-1.11.34s-1-.75-1-1.48a17.76,17.76,0,0,1,.67-3.76c.42-2.31.8-4.63,1.2-6.94a7.07,7.07,0,0,1,.53-1.63c.13-.31,0-.43-.21-.56-1.23-.61-2.46-1.22-3.72-1.75a42.5,42.5,0,0,1-4.83-2.62c-.78-.46-.69-1.16.13-1.63.25-.24.45-.62.91-.41,2.65-.85,5.25-1.87,7.95-2.49a2.89,2.89,0,0,0,2.42-2.49c.89-3.29,1.9-6.56,2.84-9.84.17-.57.2-1.17.38-1.73.3-1,.84-1.09,1.55-.4s1.67,1.64,2.54,2.42a45.15,45.15,0,0,1,3.84,4.54,40.89,40.89,0,0,0,3.4,3.44c.52.47,1.34.25,2,.15,1.41-.23,2.85-.21,4.25-.48a38.37,38.37,0,0,1,4.15-.26c1-.09,1.28.46.82,1.36a9.23,9.23,0,0,1-1.73,2.15c-1.27,1.3-2.61,2.52-3.9,3.8-.58.57-1.1,1.19-1.67,1.78-.17.18-.18.28,0,.5,1.53,2,2.87,4.18,4.32,6.25a7.49,7.49,0,0,0,.51.61C131.4,134.74,131.57,134.89,131.69,135.09Z"/><path class="cls-6" d="M101.79,135.91c-.15,2-1,3.31-2.7,3.31a3,3,0,0,1-2.87-3.12,2.89,2.89,0,0,1,2.91-2.91A2.66,2.66,0,0,1,101.79,135.91Z"/><path class="cls-6" d="M104.08,115.41a2.69,2.69,0,0,1-2.62,2.78,3.38,3.38,0,0,1-3-2.9,2.83,2.83,0,0,1,2.84-2.67A2.69,2.69,0,0,1,104.08,115.41Z"/><path class="cls-6" d="M114.12,146.22a2.36,2.36,0,0,1,4.13-1.81,2.86,2.86,0,0,1,.78,3.48,2.48,2.48,0,0,1-2.34,1.36,2.58,2.58,0,0,1-2.38-1.81A3.43,3.43,0,0,1,114.12,146.22Z"/><path class="cls-6" d="M133.23,124a2.4,2.4,0,0,1,2.47,2.53,3.4,3.4,0,0,1-3.06,2.8,2.52,2.52,0,0,1-2.4-2.59A2.87,2.87,0,0,1,133.23,124Z"/><path class="cls-6" d="M124.55,112.54a1.92,1.92,0,0,1-1.94,1.92,2.34,2.34,0,0,1-2.19-2.32,2.06,2.06,0,0,1,2.07-2C123.83,110.09,124.54,111,124.55,112.54Z"/><path class="cls-13" d="M97.65,125.23c-.41-.09-.54.43-.91.41-.19-.5.29-.43.5-.57S97.63,124.89,97.65,125.23Z"/><path class="cls-14" d="M133,141.05h.79c-.2.45-.51.17-.78.12,0,0-.06-.05,0-.08S133,141.05,133,141.05Z"/><path class="cls-15" d="M112.65,107.56c.42,0,.61.12.79.37A1.49,1.49,0,0,1,112.65,107.56Z"/><path class="cls-16" d="M131.69,135.09a.66.66,0,0,1-.4-.55A.65.65,0,0,1,131.69,135.09Z"/><path class="cls-17" d="M116.94,138c-.07,0-.19,0-.17-.11a.14.14,0,0,1,.19-.12c.06,0,.13.07.14.11S117,138,116.94,138Z"/><path class="cls-18" d="M133,141.05s0,.09,0,.13c-.17-.1-.4-.07-.53-.25C132.67,140.94,132.87,140.86,133,141.05Z"/><path class="cls-1" d="M173,83.39a50.57,50.57,0,0,0,1-8c0-.9.05-1.8.09-2.71.16-3.15.13-6.31.14-9.48,0-2.6-.3-5.18-.52-7.77s-.63-5.15-1.09-7.7a44.49,44.49,0,0,0-3.54-11.12L168,34.22a.55.55,0,0,1,.41-.18,44.14,44.14,0,0,1,4.88.05,1,1,0,0,1,.5.74,55.19,55.19,0,0,1,2.67,12.58c.18,2.22.54,4.43.71,6.66,0,.44.07.88.07,1.33,0,6.08,0,12.17,0,18.26,0,1.5-.15,3-.17,4.51,0,1.32.07,2.65.06,4a1.53,1.53,0,0,1-.18,1c-.59-.56-1.21-.19-1.83-.07A6.8,6.8,0,0,1,173,83.39Z"/><path class="cls-1" d="M182.06,80.75a27.27,27.27,0,0,1,.42-4.13c.21-1.32.36-2.65.47-4a93,93,0,0,0,.4-10.56c-.07-2.7-.25-5.4-.48-8.1a82.34,82.34,0,0,0-2.31-13.43,41.32,41.32,0,0,0-2.36-6.73,5.38,5.38,0,0,1,3.77,0,6.22,6.22,0,0,1,1.25.59,1.36,1.36,0,0,1,.3.72,124.38,124.38,0,0,1,2,13.45c.33,3.28.54,6.57.7,9.86s.13,6.33.07,9.49a76.6,76.6,0,0,1-.86,10.37A12.25,12.25,0,0,1,182.06,80.75Z"/><path class="cls-4" d="M185.25,78.48c.17-1.35.37-2.71.5-4.06a117.35,117.35,0,0,0,.39-13.52c-.09-4.78-.45-9.54-1-14.28-.46-4-1.07-7.92-1.91-11.83a1.88,1.88,0,0,0-.12-.3,1.14,1.14,0,0,1-.34-.76,17.93,17.93,0,0,0-1.62-4.48c-.8-1.45-1.37-1.47-2.26-.09-.35.54-.53,1.17-.84,1.72-.15.26-.23.61-.65.54a1.07,1.07,0,0,1-.16-.65c-.28-.68.08-1.2.42-1.73a10.81,10.81,0,0,1,.91-1.67,1.08,1.08,0,0,1,.9-.46,3.61,3.61,0,0,1,3.67,1.95A36.71,36.71,0,0,1,186,37.23a86.19,86.19,0,0,1,1.83,11.64c.21,2.22.26,4.45.45,6.68s.16,4.38.18,6.56c0,2.92-.05,5.84-.29,8.75a66,66,0,0,1-.85,7.3,29.62,29.62,0,0,1-1.51,5.63,4.37,4.37,0,0,1-2.55,2.87,5.3,5.3,0,0,0-1.14.79c-.11.08-.26.21-.42.07s0-.28,0-.42a1.76,1.76,0,0,0,.42-1.47.73.73,0,0,1,.39-.72,3.92,3.92,0,0,0,1.48-2.2,20.62,20.62,0,0,0,.95-3.63A.84.84,0,0,1,185.25,78.48Z"/><path class="cls-4" d="M176.75,83.13a9,9,0,0,0,.1-2.83c-.08-1.48,0-3,0-4.44.13-4,.06-7.92.08-11.88,0-2.19,0-4.39,0-6.58a59.53,59.53,0,0,0-.56-8c-.27-2.32-.42-4.66-.91-7a64.64,64.64,0,0,0-2-7.62,1.18,1.18,0,0,0-.27-.59,5.26,5.26,0,0,1-.79-1.59,13.34,13.34,0,0,0-1-1.85,4.64,4.64,0,0,0-1.77-1.23c-.35-.22-.08-.29.1-.33a2.73,2.73,0,0,1,2.5.76,10.22,10.22,0,0,1,2.35,3.1A33.77,33.77,0,0,1,178,43.71a89.55,89.55,0,0,1,1.24,17.69c-.09,3,0,5.94-.06,8.9-.08,2.79.06,5.58-.26,8.35A33.72,33.72,0,0,1,177.13,86a16.88,16.88,0,0,1-2.25,4.49,1.7,1.7,0,0,1-2.64.32c-.29-.24-.12-.54-.17-.8,0-.57.47-.7.85-.75,1.69-.22,2.43-1.36,2.88-2.82.26-.84.47-1.7.66-2.56C176.52,83.65,176.5,83.34,176.75,83.13Z"/><path class="cls-19" d="M168,30.37c-.22.59-.81.91-1.06,1.48-.27,0-.37-.19-.38-.43s.13-.34.35-.39C167.28,30.91,167.51,30.47,168,30.37Z"/><path class="cls-1" d="M18.34,180.79c-.21-.2-.13-.46-.13-.69,0-1.6-.06-3.19,0-4.78.1-1.93.32-3.86.6-5.77.18-1.28.29-2.58.44-3.86.34-2.79.65-5.59,1-8.37s.69-5.41,1.23-8.08a38.31,38.31,0,0,1,2.93-9.65c.1-.21,0-.5.27-.65a4.66,4.66,0,0,0,2.35.88,2.32,2.32,0,0,1,.82.18,67.21,67.21,0,0,0-2.58,9.94c-.66,4.5-1.59,9-2,13.51a64.7,64.7,0,0,0-.43,8.35c.08,2.16.29,4.32.45,6.48,0,.26,0,.53,0,.79a5.1,5.1,0,0,1-2.36.57c-.42,0-.83.09-1.25.13A1.38,1.38,0,0,0,18.34,180.79Z"/><path class="cls-20" d="M16.1,156.35c.33.6,0,1.21-.06,1.8-.15,1.92-.41,3.84-.62,5.76S15,168,14.77,170a19.53,19.53,0,0,1-.27,2.41,53.25,53.25,0,0,1,.56-8.92C15.41,161.11,15.62,158.71,16.1,156.35Z"/><path class="cls-21" d="M17.27,140.24c0,.11,0,.22.14.28l-.26.67c-.13,0-.19,0-.15-.14A1.66,1.66,0,0,1,17.27,140.24Z"/><path class="cls-6" d="M46.77,51.65c.16.47.56.88.4,1.41-.29.94-.6,1.07-1.67.76-.13,0-.23-.12-.33,0-.35.17-.71.32-1,0a.89.89,0,0,1-.06-1,18.17,18.17,0,0,1,1.32-2.21.67.67,0,0,1,.76-.27c.28.07.35.29.39.55S46.54,51.43,46.77,51.65Z"/><path class="cls-6" d="M50.12,48.44a.37.37,0,0,0,0,.38c.49.58.22,1-.29,1.34-.7.48-.86.44-1.47-.25.1-.28.16-.49-.21-.66s-.46-.57-.14-.92A10.81,10.81,0,0,1,49.55,47a.54.54,0,0,1,.67-.09c.24.18.18.44,0,.65S50.14,48.15,50.12,48.44Z"/><path class="cls-22" d="M45.44,73l-.12.16c-.14.11-.26.24-.4.35a.85.85,0,0,1-1.1,0,.82.82,0,0,1-.28-1.07,3.53,3.53,0,0,1,1-1.28C45.71,71.15,46,71.82,45.44,73Z"/><path class="cls-23" d="M43.23,66.4c.91-.05,1.13.78.67,1.37a4,4,0,0,0-.34.56c-.33.19-.69.33-1,0a.9.9,0,0,1-.07-1A1.66,1.66,0,0,1,43.23,66.4Z"/><path class="cls-2" d="M60.29,49.79a7.39,7.39,0,0,0,2.48.09,15.28,15.28,0,0,1,9.28,3.56,20.77,20.77,0,0,1,4.75,5.88,9,9,0,0,1,.64,2.88,13.82,13.82,0,0,1-2.23,10.65,13,13,0,0,1-7,5.63,13.94,13.94,0,0,1-6.26.42A16.21,16.21,0,0,1,54.61,76a15.56,15.56,0,0,1-6.49-8.43,1.9,1.9,0,0,0,1.75-1.06c1.44-2,2.88-4.08,4.22-6.18,1.68-2.62,3.49-5.16,5.22-7.75A3.83,3.83,0,0,0,60.29,49.79Z"/><path class="cls-6" d="M60.29,49.79a1.61,1.61,0,0,1-.12,1.75c-3.44,5-6.69,10.19-10.24,15.15-.14.2-.31.37-.47.56a1,1,0,0,1-1.34.3,1.39,1.39,0,0,1-.26-.86,4.12,4.12,0,0,1,.86-2c2.49-4.17,5.16-8.23,7.74-12.34a6.1,6.1,0,0,1,1.35-1.94c.15-.19.29-.39.45-.57A1.32,1.32,0,0,1,60.29,49.79Z"/><path class="cls-6" d="M47.83,60.8l.15-.5a25.52,25.52,0,0,1,3.48-6.14c.53-.8,1-1.61,1.6-2.4a1.33,1.33,0,0,1,2.09-.39,1.37,1.37,0,0,1,.18,1.85c-.46.81-1,1.57-1.53,2.33-1.22,1.72-2.37,3.48-3.71,5.1a5.52,5.52,0,0,1-.92,1,.84.84,0,0,1-1,.16A.73.73,0,0,1,47.83,60.8Z"/><path class="cls-2" d="M47.83,60.8c0,.38.07.72.47.87a.83.83,0,0,0,.93-.33A23.82,23.82,0,0,0,51.85,58C52.93,56.49,54,54.94,55,53.39a1.65,1.65,0,0,0,.12-2,15,15,0,0,1,2.66-.93c-1.73,2.77-3.45,5.55-5.19,8.31-1.42,2.26-2.87,4.5-4.2,6.82-.21.37-.38.75-.56,1.12A17.35,17.35,0,0,1,47.72,61,.8.8,0,0,1,47.83,60.8Z"/><path class="cls-24" d="M51.46,54.16C50.3,56.21,49,58.18,48,60.3A11.32,11.32,0,0,1,51.46,54.16Z"/><path class="cls-6" d="M132.34,119.34c-1.12,1.16-2.17,2.3-3.29,3.36s-2.23,2.15-3.32,3.25c-.69.7-.74,1-.27,1.89a54,54,0,0,0,3,4.58c1.68,2.54,3.39,5.06,5.2,7.75-1.35-.48-2.57-.89-3.78-1.33a117.53,117.53,0,0,0-11.45-3.56,1.58,1.58,0,0,0-1.46.15c-2.18,1.65-4.39,3.25-6.53,4.95-1.9,1.51-4,2.73-5.89,4.39a5,5,0,0,1,.14-2c.6-2.53,1.24-5.06,1.88-7.59.28-1.09.47-2.2.84-3.27.19-.54-.12-.88-.6-1.09-1.56-.68-3.11-1.39-4.69-2s-3.16-1.55-4.82-2.36a3.38,3.38,0,0,1,1.33-.51c2.4-.52,4.78-1.09,7.13-1.8.4-.12.82-.16,1.23-.24a1.31,1.31,0,0,0,1.25-1.46,1,1,0,0,1,.12-.37,72.74,72.74,0,0,0,3.8-11.23,5.23,5.23,0,0,1,.21-1,42.51,42.51,0,0,1,4.92,5.87,29.15,29.15,0,0,0,3.73,4,1.22,1.22,0,0,0,1,.33c1.69-.12,3.39-.24,5.08-.38l4.36-.37A2.35,2.35,0,0,1,132.34,119.34Z"/><path class="cls-25" d="M24.83,145.73c-.27.21-.46.32-.68.18s0-.16,0-.22C24.4,145.49,24.55,145.74,24.83,145.73Z"/><path class="cls-7" d="M60.06,68v-.13c-.15-.25,0-.55-.12-.8A18.39,18.39,0,0,0,59.67,64a10.17,10.17,0,0,1-2.05-1.65,3.87,3.87,0,0,1-.87-4.2,5.77,5.77,0,0,1,2.57-3.08c.27-.13.18-.43.29-.64s.16-.37.4-.39a.43.43,0,0,1,.47.3c.12.33.35.31.68.31.91,0,1.67-.06,1.55-1.28a.36.36,0,0,1,.37-.39c.27,0,.4.15.49.37,0,0,0,0,0,.06-.12,1.41.93,1.91,1.91,2.49a1.85,1.85,0,0,1,.94,1.45.87.87,0,0,1-.44.95,1,1,0,0,1-1.18-.1c-.12-.1-.23-.34-.42-.22s-.09.33-.07.5c.1,1,.24,2,.27,3A.47.47,0,0,0,65,62c2.73.41,3.71,2.74,4.06,4.64a5.61,5.61,0,0,1-.4,4.13C68,71.86,67.2,73,65.64,73c-.25,0-.23.13-.26.28s-.08.52-.14.78a.87.87,0,0,1-.89.74,1,1,0,0,1-1.08-.67c-.14-.48-.26-.91-.89-1-.4-.06-.47.06-.46.39s0,.45,0,.67a.55.55,0,0,1-.57.6.49.49,0,0,1-.58-.49c.2-1.18-.67-1.43-1.44-1.8-.15-.08-.27-.23-.46-.24a3,3,0,0,1-1.61-1.83c-.23-.78,0-1.1.78-1.13a6.47,6.47,0,0,1,1.39,0c.43.08.57-.09.49-.51A.9.9,0,0,1,60.06,68Z"/><path class="cls-8" d="M60.06,68c-.09.51.34,1.11,0,1.47s-1-.13-1.45,0a1.27,1.27,0,0,1-.39,0c-1-.08-1.11.13-.72,1.19a4.71,4.71,0,0,0,1.34,1.6,3.86,3.86,0,0,1-2.31-1.93,1.67,1.67,0,0,1,.15-1.92,1.72,1.72,0,0,1,1.84-.61A5.08,5.08,0,0,0,60.06,68Z"/><path class="cls-26" d="M56.75,58.14c-.53,2.37.51,4,2.38,5.32.21.14.5.21.54.53a5.5,5.5,0,0,1-3.42-3.87A2.6,2.6,0,0,1,56.75,58.14Z"/><path class="cls-8" d="M59.94,67c.22.24.1.53.12.8C59.83,67.6,60,67.31,59.94,67Z"/><path class="cls-27" d="M131,138.43c-.31-.15-.5-.21-.5-.48C130.78,138,130.84,138.15,131,138.43Z"/><path class="cls-2" d="M65.06,65.34a2.9,2.9,0,0,1,1.2,4c-.15.26-.38.48-.69.39s-.33-.37-.33-.65a9.51,9.51,0,0,0,0-1.85C65.1,66.64,65.17,66,65.06,65.34Z"/><path class="cls-2" d="M62.58,58a31.88,31.88,0,0,0,.1,3.24c0,.17,0,.29-.2.34a1.11,1.11,0,0,1-1.33-.92c0-.57,0-1.15,0-1.72-.1-.32-.12-.65.23-.78S62.11,57.56,62.58,58Z"/><path class="cls-28" d="M62.06,68.64c-.17-1.24-.35-2.48-.52-3.71,0-.22,0-.46.3-.39s.82-.09.89.53a30.26,30.26,0,0,1,.13,3.43C62.76,69,62.67,69,62.06,68.64Z"/><path class="cls-2" d="M59.67,58.48a3.47,3.47,0,0,0,.11,1c0,.3.08.67-.28.81s-.55-.2-.72-.44a1.5,1.5,0,0,1,.12-1.89c.15-.16.31-.35.56-.28s.18.36.21.56A2.78,2.78,0,0,1,59.67,58.48Z"/><path class="cls-8" d="M62.58,58c-.85-.06-1.4.29-1.46.94A3.17,3.17,0,0,1,61,57.2c.06-.49.58-.21.9-.24s.64,0,.65.46C62.59,57.62,62.58,57.81,62.58,58Z"/><path class="cls-29" d="M62.06,68.64c.25-.16.61.36.8-.14.26.48.08,1,.12,1.48,0,.2-.15.25-.32.25s-.44-.08-.46-.36A4.65,4.65,0,0,1,62.06,68.64Z"/></svg>