<svg xmlns="http://www.w3.org/2000/svg" xmlns:xlink="http://www.w3.org/1999/xlink" width="65" height="57" viewBox="0 0 65 57">
    <defs>
        <path id="a" d="M0 0h46.105v53.663H0z"/>
    </defs>
    <g fill="none" fill-rule="evenodd">
        <path fill="#00C967" d="M62.933 22.288l-12.698 6.074V15.198l11.11-5.098 1.588-.728v12.916zM35.323 9.495l12.845 5.711v13.177l-12.845-5.96V9.495zm13.881-7.37l12.333 5.658-12.342 5.663-12.456-5.538 12.465-5.783zM64.99 7.646l-.009-.045a.903.903 0 0 0-.02-.087 1.007 1.007 0 0 0-.14-.294 1.141 1.141 0 0 0-.046-.063l-.037-.044a.99.99 0 0 0-.057-.056l-.042-.039a1.005 1.005 0 0 0-.069-.051l-.042-.03-.008-.006a1.018 1.018 0 0 0-.107-.057l-.007-.004L49.64.096a1.057 1.057 0 0 0-.883.002L33.846 7.016h-.001c-.04.019-.078.04-.115.063l-.007.005c-.013.008-.025.018-.038.027a.97.97 0 0 0-.073.055l-.04.037a.97.97 0 0 0-.058.059l-.035.042a1.041 1.041 0 0 0-.117.182c-.008.016-.017.033-.024.05a.997.997 0 0 0-.03.078l-.015.048a.992.992 0 0 0-.021.098l-.007.035a.965.965 0 0 0-.01.132v15.134c0 .39.23.744.59.911l14.913 6.919.016.006.037.015a1.069 1.069 0 0 0 .221.061l.04.007a1.06 1.06 0 0 0 .262 0l.04-.007a1.042 1.042 0 0 0 .222-.063l.04-.016c.007-.003.014-.005.02-.009l14.765-7.062c.354-.17.579-.52.579-.906V7.783a.98.98 0 0 0-.01-.137z"/>
        <g transform="translate(0 3.023)">
            <mask id="b" fill="#fff">
                <use xlink:href="#a"/>
            </mask>
            <path fill="#00C967" d="M16.779 45.043V32.035l12.547 5.681.146.066v13.259l-11.516-5.44-1.177-.557zm14.59-9.445l-.882.412-.14-.063-1.02-.462-11.149-5.047 11.148-5.267 1.021-.482.149-.07.873.407 11.313 5.286-11.313 5.286zM2.043 24.928l5.916 2.679 6.777 3.202v13.125L2.043 37.938v-13.01zm0-15.373l12.693 5.747v13.143l-5.914-2.678-5.268-2.489-1.19-.562-.321-.152V9.554zm25.715.609l1.568-.733v12.996l-.315.154-1.176.573-5.226 2.545-5.83 2.724V15.294l10.979-5.13zm.188-2.332L15.751 13.53 3.442 7.957 15.76 2.138l12.186 5.694zm16.116 24.08v12.996l-12.547 6.111V37.773l10.979-5.129 1.568-.733zm2.024-1.783a.93.93 0 0 0-.02-.088 1.022 1.022 0 0 0-.138-.296 1.094 1.094 0 0 0-.139-.164l-.04-.038a.993.993 0 0 0-.07-.052c-.013-.01-.026-.021-.04-.03l-.008-.006a.976.976 0 0 0-.107-.058l-.006-.004h-.001l-14.148-6.61V7.832c0-.047-.004-.093-.01-.138l-.009-.045a1.055 1.055 0 0 0-.02-.088c-.004-.018-.01-.034-.016-.051a1.033 1.033 0 0 0-.029-.076c-.007-.018-.016-.035-.024-.052a.966.966 0 0 0-.208-.281l-.04-.038a.972.972 0 0 0-.07-.053l-.04-.03-.008-.005a.989.989 0 0 0-.109-.06l-.004-.002h-.001L16.19.096a1.028 1.028 0 0 0-.872.002L.583 7.06c-.04.019-.078.04-.114.063l-.007.005c-.014.009-.025.019-.038.028a.999.999 0 0 0-.072.055l-.039.037c-.02.02-.04.039-.058.06L.22 7.35a1.05 1.05 0 0 0-.115.183l-.023.05a.994.994 0 0 0-.03.08l-.015.047a1.005 1.005 0 0 0-.021.099l-.007.035A.987.987 0 0 0 0 7.977v15.229c0 .022.003.045.005.067-.002.026-.005.052-.005.078v15.228c0 .392.227.749.583.917l14.344 6.777c.099.138.231.254.392.33l14.736 6.962.015.006.037.015a.957.957 0 0 0 .219.061l.039.007a1.04 1.04 0 0 0 .26 0l.038-.007a.97.97 0 0 0 .22-.063c.014-.005.027-.01.04-.017l.02-.008 14.59-7.106c.35-.171.572-.525.572-.912V30.312c0-.046-.004-.092-.01-.138-.002-.015-.006-.03-.01-.045z" mask="url(#b)"/>
        </g>
    </g>
</svg>
