<svg xmlns="http://www.w3.org/2000/svg" viewBox="0 0 147.7 146.04"><title>Artboard 12</title><path d="M59.07,117.57A58.69,58.69,0,0,1,57.41,109c-.28-1.87-1.18-3.54-1.59-5.36-.54-2.41-1.64-4.66-2.1-7.1-.22-1.17-.41-2.34-.62-3.51a13.56,13.56,0,0,0-.32-1.8,23.59,23.59,0,0,1-.44-4.1,3.14,3.14,0,0,0-.08-2c-.84-3.81.34-7.35,1.42-10.91a40.34,40.34,0,0,0,2-6.91c0-.36.14-.76.55-.85s.57.37.71.67c.78,1.65,1.92,3.14,2.29,5a3,3,0,0,1,.16,1.18c-.49,2.28.23,4.35,1.12,6.38a38.86,38.86,0,0,0,1.78,3.68A3.56,3.56,0,0,0,62,81.91a36.17,36.17,0,0,1-1.36-8.14c-.28-2.57-.75-5.13-2.55-7.19-.73-.82-1-1.89-1.7-2.74a1.08,1.08,0,0,1-.14-.81,75.87,75.87,0,0,1,1.41-9,1.59,1.59,0,0,1,.36-.75c.65-.24,1,.2,1.25.65a5.49,5.49,0,0,1,.07,2.93,2.38,2.38,0,0,0,.08,1.93,4.29,4.29,0,0,0,.77-2.56c0-.54-.09-1.12.3-1.6,1.16-.16,2.26.28,3.43.25A8.05,8.05,0,0,0,68,53.75c.3-.19.61-.5,1-.31s.26.71.26,1.08c0,1.64,0,3.28,0,4.92s1,2.34,2.09,3.1a.61.61,0,0,0,.57.09c2.2-.71,4.35.2,6.52.26a2.88,2.88,0,0,0,2-.55,21.84,21.84,0,0,1,4.25-2.67,1.83,1.83,0,0,0,1.23-1.84c0-1.4.28-1.55,1.59-1.3a8.12,8.12,0,0,0,8.54-4c.75-1.34,1.11-1.52,2.45-1.3a2.11,2.11,0,0,1,.5,1.19c.42,2.24.88,4.47,1.25,6.72a5.81,5.81,0,0,1-2.34,5.9c-1.7,1.32-3.62,2.36-5.08,4a8.16,8.16,0,0,0-1.65,2.47C88.72,77.92,85.33,83.81,82,89.72a95.19,95.19,0,0,0-4.77,9.53,11.35,11.35,0,0,0-.56,7.5,88.88,88.88,0,0,1,1.71,11.12c1.12,8.51,1.76,17.08,3.08,25.57a2.26,2.26,0,0,1-.28,1.95,43.74,43.74,0,0,1-15.14,0,5.75,5.75,0,0,1-5-6.21c0-.4,0-.8,0-1.2a11.88,11.88,0,0,0,.22-3c0-2.09.1-4.18-.09-6.26a4.12,4.12,0,0,0-.11-1,6,6,0,0,1,0-1c0-.49-.17-1-.15-1.46a3.16,3.16,0,0,0-.12-2.1C60.22,121.29,59.64,119.43,59.07,117.57Z" fill="#ecbac5"/><path d="M59.07,54l-1-.73A1.72,1.72,0,0,1,57,52.29a4.2,4.2,0,0,0-1.27-1.18c-.41-.56-1.39.17-1.64-.73.06-.15.16-.34.31-.32,1.38.19,1.32-.67,1.24-1.61-.06-.68.05-1.37,0-2-.5-4.08,3.27-7.19,6.67-7.59a8.41,8.41,0,0,1,8,2.93,6.75,6.75,0,0,1,1.58,5.36A12.63,12.63,0,0,1,71,51.44c-.23.43,0,.7.48.72,1.51.06,3,.33,4.54.31.86,0,1-.54,1-1.19a50.94,50.94,0,0,1,0-5.39c.33-2.74.36-5.48.54-8.22.25-3.84.07-7.67.13-11.51a1.21,1.21,0,0,0-1.25-1.32,6,6,0,0,0-1.79.06C69.31,26,64,27.05,58.7,28.38c-.63.15-1.21.42-1.83.58-1.07-.2-1.35-.54-.86-1.38,1.07-1.86,1.81-3.9,3.24-5.57,1.2-1.4,1.72-3.23,2.72-4.77.28-.43.51-.9.81-1.33s.54-.66,1-.4.23.65.09,1a43,43,0,0,1-2.51,4.62,7.88,7.88,0,0,0-1.06,2.64A6,6,0,0,1,58.39,27a.92.92,0,0,1-.32.1c.08.12.15,0,.23,0a2.19,2.19,0,0,0,.43-.15l.33-.09a12.11,12.11,0,0,0,2.08-.49c5-1.22,10.06-2.58,15.17-3.51a1.4,1.4,0,0,0,.33-.15c.61-.34.53-.93.54-1.48,0-2.33,0-4.67,0-7a6,6,0,0,1,.3-2.11c.21-.53.48-1,1.19-.94.49.37.41.92.41,1.43,0,2.91.4,5.8.26,8.72,0,.38-.12.89.3,1.08s.62-.27.9-.47a9.31,9.31,0,0,1,6.88-1.8,11.59,11.59,0,0,1,4.12,1.63,8.08,8.08,0,0,1,1.1.93c1.46,2.09,3.75,2.86,6,3.77a4.22,4.22,0,0,1,2.14,1.46c.39.61.51,1.2-.4,1.49-2.2-1-4.32-2.2-6.58-3.08a2.16,2.16,0,0,1-1-1c-2.07-3.68-8.57-5.09-12.65-1.19a3.65,3.65,0,0,0-.78,1.84c-.11.26-.08.6-.31.8.19-.09.16-.32.25-.5.7-2.68,2.83-3.68,5.21-4.14a8.22,8.22,0,0,1,7,1.78,7.84,7.84,0,0,1,2.89,7.34.76.76,0,0,1-.39.7c-.47-.19-.41-.63-.46-1-.42-3.22-2.37-5.19-6-6a7,7,0,0,0-7.18,3,7.27,7.27,0,0,0-.78,5,33.24,33.24,0,0,1,0,6.69A10.17,10.17,0,0,0,79.89,44a5.27,5.27,0,0,1,.1,2,26,26,0,0,0,.26,5.85c.06.38.06.38.52.79.26-.38,0-.69-.14-1-1.34-3.63-.72-7.09.93-10.43a6,6,0,0,1,5.4-3.4,12.36,12.36,0,0,1,3.22-.11c2.91.57,4.75,2.46,6.24,4.83.25.4.33.91.79,1.19.37-.37.16-.84.22-1.25a2,2,0,0,1,2.11-1.87,2,2,0,0,1,1.81,2.17,2,2,0,0,1-2,2,5.69,5.69,0,0,1-.71-.07c-.72,0-1.09.34-1,1a21.16,21.16,0,0,1,.12,3.47c0,.63.29.73.82.65,1.43-.21,2.86-.38,4.25-.72.49-.22.56-.8,1-1.11l.16,0c.45-.27,1-.41.71.37-.31,1-.56,2.2-2,2.31-.72.06-.54.48-.33.88a23.31,23.31,0,0,1,1.87,3.39,1.89,1.89,0,0,0,2.49.22c1.72-.93,3.5-1.76,5.25-2.65a9.48,9.48,0,0,1,2.48-.86,1.63,1.63,0,0,1,2.2,1.28c1,3.57,2,7.16,3.38,10.62a2.58,2.58,0,0,1-.72,3,87.13,87.13,0,0,1-7.22,5.93,3.72,3.72,0,0,0-1.7,2.21,1,1,0,0,1-.82.94c-.52.06-.76-.37-1-.74a2.58,2.58,0,0,1,.23-3.51,12.75,12.75,0,0,1,2.28-2.12c.39-.28.77-.57,1.13-.88,1.79-1.51,2.63-3.2,1.9-5.69a23.62,23.62,0,0,0-2.49-6.19c-.65-1-1.11-1.15-2.2-.71-.15.06,0,0-.11,0-1,.58-2.48.59-3.08,1.48s.09,2.16-.06,3.25A8.24,8.24,0,0,0,107.32,66a3.35,3.35,0,0,1-.11,3.23,16,16,0,0,1-3.2,4.16,5.5,5.5,0,0,0-1.54,2.26A73.58,73.58,0,0,1,94,92.76a2.37,2.37,0,0,0,.07,3c.86,1.19,2.15,2,2.8,3.39a4.57,4.57,0,0,0-1.33-3,3.15,3.15,0,0,1-.32-4.32c1-1.56,1.79-3.22,2.83-4.73s1.93-1.45,3.18-.29c.63.58,1.13,1.29,1.7,1.93A7.83,7.83,0,0,0,101,86a2.89,2.89,0,0,1-.64-3.4c.77-1.85,1.46-3.72,2.13-5.61.58-1.66,1.19-2.08,3-2a19.2,19.2,0,0,1,2.5.23,1.65,1.65,0,0,1,1.56,1.78,18.58,18.58,0,0,1-.68,5,31.43,31.43,0,0,1-1.49,4.55,72.06,72.06,0,0,1-12.19,19.83,40.23,40.23,0,0,1-5.87,5.8c-.71.56-1.45,1.06-2.39.47l-.27-.48c-.65-.52-.45-1.37-.77-2-.64-1.47-1-3-1.47-4.56a5.31,5.31,0,0,1,.53-4.17c2-4,4.19-7.91,6.3-11.86a38.62,38.62,0,0,0,2.29-5.28,13.19,13.19,0,0,1,3.14-5c1.9-1.94,3.49-4.16,5.23-6.25.87-1,1.88-2,2.81-3a4.22,4.22,0,0,0-.34-6.3c-.34-.3-.19-.57-.12-.85.21-.93.44-1.86.64-2.8a4.3,4.3,0,0,0-.51-3.12c-.94-1.67-2-3.3-2.87-5-.29-.53-.69-.56-1.21-.51s-1.24.42-1.86,0a2,2,0,0,0-2.12,1.28,8.34,8.34,0,0,1-9.55,4.07c-.15,0-.3-.06-.67-.13.81,2.38-.68,3.15-2.43,3.95a18.32,18.32,0,0,0-3.43,2.38,1.49,1.49,0,0,1-1.18.38c-1.74-.23-3.47-.45-5.21-.64a3.33,3.33,0,0,0-1.18.09A3.06,3.06,0,0,1,69,60.08a60.39,60.39,0,0,1,0-6.58,9,9,0,0,1-8.48,1.21A1.32,1.32,0,0,1,59.07,54Z" fill="#323140"/><path d="M98.43,51.38c1-.16,2.12-.7,2.9-.37s.92,1.54,1.39,2.36c.66,1.17,1.35,2.33,2,3.5,1.1,1.9.31,3.78-.11,5.65-.11.53-.14.5.24.82a1.35,1.35,0,0,1,.3.51,26,26,0,0,1,1.08,2.63,3.09,3.09,0,0,1-.89,3.19c-3.36,3.12-5.79,7-9,10.24a9.22,9.22,0,0,0-2.2,3.54A57.28,57.28,0,0,1,89.69,93c-1.54,2.7-2.9,5.5-4.38,8.24a5.37,5.37,0,0,0-.39,4.71c.5,1.29.82,2.65,1.22,4,.06,1,.24,1.92.28,2.88a41.3,41.3,0,0,0,1.82,10.53c1.32,4.54,2.78,9,4.18,13.56a4.51,4.51,0,0,0,.4,1.12c.91,1.39.29,2.42-.64,3.5-1.51,1.75-3.63,2.24-5.69,2.79-1.76.47-3.57.75-5.35,1.11a55.15,55.15,0,0,0-.85-7.69c-.34-2.95-.72-5.9-1.06-8.85-.45-4-.71-8-1.36-11.94-.49-3-.52-6-1.32-8.93a15.05,15.05,0,0,1,1.24-10.93c3-6.34,6.87-12.25,9.93-18.57,1-2.15,2-4.33,2.89-6.56.93-2.46,2.77-4,4.78-5.5.93-.68,1.93-1.28,2.79-2,1.84-1.63,2.06-3.73,1.61-6S98.88,53.72,98.43,51.38Z" fill="#f1cdd5"/><path d="M53.05,91.39a1.53,1.53,0,0,1,.05,1.68,52.9,52.9,0,0,1-9.9-15.68,27.88,27.88,0,0,0-7-9.44,11.4,11.4,0,0,0-1.11-1.09c-2.48-1.76-2.51-4.19-1.84-6.76.73-2.77,1.56-5.52,2.4-8.27.69-2.27,1.4-2.55,3.62-1.74a83.07,83.07,0,0,1,10.65,4.28,17.13,17.13,0,0,0,4.59,1.3.64.64,0,0,1,.39.41C53.71,60,53.37,64.14,51.67,68a29.49,29.49,0,0,0-2.34,11.56,17.12,17.12,0,0,0,1.85,7.87A41.74,41.74,0,0,1,53.05,91.39Z" fill="#b391ca"/><path d="M56.65,28.83c2.14-1.18,4.56-1.36,6.86-1.92C67.22,26,71,25.29,74.7,24.51a6.67,6.67,0,0,1,1.19-.08c1.83,0,2.08.28,2.15,2.14A135.93,135.93,0,0,1,77.65,43c-.25,3-.14,6-.33,9,0,.53-.24,1-.71.94-2.13-.11-4.26-.31-6.52-.48A11,11,0,0,0,71.35,45a7.23,7.23,0,0,0-6.51-5.92,8.14,8.14,0,0,0-7.29,2.5,5.28,5.28,0,0,0-1.61,4.1c.13,1.43-.26,2.88.19,4.29.12.36,0,.47-.41.45a4.59,4.59,0,0,0-1.65-.07c0-.08,0-.17,0-.26A1.46,1.46,0,0,1,53.77,49c.3-5.05.77-10.08,1.29-15.11a21.71,21.71,0,0,1,.31-3.69C55.56,29.49,55.84,28.92,56.65,28.83Z" fill="#b391ca"/><path d="M86.91,112.54a3.14,3.14,0,0,0,2.56-1,56.18,56.18,0,0,0,9.61-10.81,60.09,60.09,0,0,0,9.49-19,17.37,17.37,0,0,0,.66-5c0-.74-.25-1.19-1.06-1.32a12.86,12.86,0,0,0-4-.14,1.26,1.26,0,0,0-1,.9c-.9,2.39-1.81,4.77-2.71,7.14a1.9,1.9,0,0,0,.55,2.08,15.74,15.74,0,0,1,2.15,2.86c.24.44.49.86,0,1.37-.86-.78-1.33-1.9-2.21-2.68-1.07-1-1.71-1-2.52.22a53.32,53.32,0,0,0-3.51,6,1.6,1.6,0,0,0,.22,2,11.81,11.81,0,0,1,2.07,3.35,1,1,0,0,1-.45,1.41c-.52-1.79-2.15-2.75-3.15-4.22A2.19,2.19,0,0,1,93.44,93c2-3.48,4.39-6.78,6-10.5.92-2.16,1.78-4.35,2.58-6.55A7.44,7.44,0,0,1,103.92,73a13.31,13.31,0,0,0,3-3.85,3.54,3.54,0,0,0-.16-3.59,5.81,5.81,0,0,1-1-4,8,8,0,0,0-.16-4c-.13-.34,0-.5.29-.63,1.28-.51,2.56-1.05,3.85-1.57a1.49,1.49,0,0,1,2,.73,22.19,22.19,0,0,1,3,8.12c.35,1.67-.66,2.71-1.63,3.76-1.14,1.24-2.67,2-3.79,3.31-1.27,1.46-1.37,2.2-.33,3.81.35.53.81.6.92,0,.53-2.73,3.15-3.41,4.82-5,1.4-1.35,3-2.47,4.45-3.82a2.2,2.2,0,0,0,.56-2.76,89.74,89.74,0,0,1-3.29-10.2c-.43-1.48-.65-1.61-2.16-1.32-1.89.36-3.41,1.51-5.13,2.24-.91.4-1.77.91-2.67,1.35-1.44.72-1.44.71-2.25-.68,1.89-.83,3.77-1.68,5.66-2.48a51.33,51.33,0,0,1,5.21-2.14c1.36-.4,1.57-.29,2,1,1.25,3.58,2.46,7.17,3.81,10.71a4.24,4.24,0,0,1-1.11,5.14c-2.67,2.58-5.59,4.89-8.18,7.55a5.19,5.19,0,0,0-1.7,4.12c.15,3.9-1.41,7.41-3,10.86a75.36,75.36,0,0,1-17,23.82c-1.89,1.77-1.87,1.8-2.83-.51Z" fill="#b391ca"/><path d="M56.65,28.83c-1.17.67-1.12,1.89-1.15,3-.13,3.72-.66,7.41-1,11.11-.21,2.41-.34,4.82-.51,7.23-1,.07-.94-.79-.92-1.31.07-2.33.24-4.65.38-7,.1-1.59.19-3.18.31-4.77a58.65,58.65,0,0,1,.69-7.59,10.67,10.67,0,0,1,1-2.67A79,79,0,0,1,60.71,17,8.58,8.58,0,0,1,66,13.26c3.3-.74,6.57-1.58,9.86-2.38.34-.08.69-.26,1,.12a2.6,2.6,0,0,1,0,1.3,11.78,11.78,0,0,0,0,3.7,30.68,30.68,0,0,1-.18,7C72.53,24,68.47,25,64.38,25.88a16.62,16.62,0,0,1-3.34.74,18.17,18.17,0,0,0-2.21.51h0c-.28,0-.64.3-.73-.24A5.74,5.74,0,0,0,60,23.19a4.08,4.08,0,0,1,.8-1.83c1-1.65,1.88-3.31,2.8-5,.11-.21.45-.51.11-.73s-.55.18-.7.43a20.45,20.45,0,0,0-1.3,2.27c-1.45,3.14-3.85,5.71-5.21,8.89C56.3,27.72,55.41,28.42,56.65,28.83Z" fill="#a86ed8"/><path d="M79.19,26.12c-.28-2.2,1.44-3,2.88-3.77,3.75-2.05,9.42-.61,11.09,3a1.19,1.19,0,0,0,.74.71c2,.64,3.73,1.78,5.64,2.55a3.26,3.26,0,0,1,.81.68c.71.28.84.94,1,1.55a88.42,88.42,0,0,1,2,14.75,3.85,3.85,0,0,0,.57,2.14c0,.08,0,.17,0,.25l0,.05c-.57.18-.59.71-.74,1.16a.82.82,0,0,1-.67.43c-1.22.18-2.44.37-3.66.51-1.47.18-1.47.16-1.44-1.28a12,12,0,0,0-.19-3.21c-.24-.9.55-1.55,1.48-1.26a1.61,1.61,0,0,0,2-.69,1.91,1.91,0,0,0-.18-2.24,1.47,1.47,0,0,0-1.92-.4,1.62,1.62,0,0,0-1,2c.19.73,0,1.11-.71,1.54a12,12,0,0,0-3.34-4.81A7,7,0,0,0,88.08,38c-.67.07-1.35.09-2,.21-2.88.52-4.29,2.55-5.1,5.12-1,3.22-1.27,6.41.61,9.44-1.49.57-1.4.56-1.66-.93-.19-1.12-.06-2.24-.19-3.34-.68-5.54,0-11.12-.47-16.67-.37-4.53,3-7.14,6.59-7.37,4.12-.27,8,2.59,8,6.84a1.87,1.87,0,0,0,.08.4,7.43,7.43,0,0,0-4-8.48,8,8,0,0,0-9.4,1.19,3.17,3.17,0,0,0-1.14,2.17C79,26.64,79.12,26.36,79.19,26.12Z" fill="#b391ca"/><path d="M103,37.79a67.19,67.19,0,0,0-1.1-8.35,13.11,13.11,0,0,1-.4-1.3,24.89,24.89,0,0,1-1.61-3c-.57-1.26-1.48-2.27-2.12-3.49a3.17,3.17,0,0,1-.35-.45c-.75-1.17-1.56-2.32-2.28-3.51a7.42,7.42,0,0,0-3.54-2.92,50.71,50.71,0,0,0-6.35-2.32c-2-.56-3.92-1.48-6-1.86A22.67,22.67,0,0,0,79.59,16c.21,2.19.26,2.18,2.28,1.22a7.65,7.65,0,0,1,8.92,1.83,1.56,1.56,0,0,1-.54-.25,11.25,11.25,0,0,0-2.73-1.19c-.77-.16-1.06.12-.86.9a4.38,4.38,0,0,0,1,1.9A12.86,12.86,0,0,1,91.47,22c.65-.16.65.5,1,.77a6.94,6.94,0,0,0,3,2.59c1.13.45,2.23,1,3.35,1.47A4,4,0,0,1,100.5,28c.37.48.48.93-.15,1.28a8.76,8.76,0,0,1,.63,1.54c.74,3.56,1.19,7.17,1.8,10.75.31,1.81,0,3.65.42,5.44.11.45.17.76.71.71a7.85,7.85,0,0,0,0-.84C103.62,43.86,103.25,40.83,103,37.79Z" fill="#a86ed8"/><path d="M54.78,55.91l-.27-.24c.47,0,.69-.17.74-.69.12-1.29.3-2.58.46-3.87a1,1,0,0,1,1.18.52,12.39,12.39,0,0,0,1.23,1.6A91.53,91.53,0,0,0,56.58,63c0,.23-.22.48,0,.68,1.05,1.09,1.42,2.66,2.56,3.68a1.37,1.37,0,0,1,.43.57c.39,1.86,1.35,3.57,1.44,5.5a29,29,0,0,0,1.43,8.67,3.25,3.25,0,0,1,.08,2.2,26.6,26.6,0,0,1-3.42-7.66A9.42,9.42,0,0,1,59,73.31a6.34,6.34,0,0,0-1.16-3.71,32,32,0,0,1-1.55-3c-.58.45-.35,1.08-.44,1.56-.61,3.22-1.91,6.24-2.81,9.37A17.87,17.87,0,0,0,52.74,86c.07.39.2.78-.12,1.13a4.68,4.68,0,0,1-1-3.28,2.33,2.33,0,0,0-.1-1.83,22.18,22.18,0,0,1,.71-7c.47-2.22,1.26-4.36,1.85-6.55a16.41,16.41,0,0,0,.55-4c.07-2.74-.29-5.49.26-8.22C54.93,56.12,54.84,56,54.78,55.91Z" fill="#f1cdd5"/><path d="M79.25,10.57a12.61,12.61,0,0,1,.42,3.28,21.79,21.79,0,0,1,.27,4,12.57,12.57,0,0,1,4.66-1.64A9.17,9.17,0,0,1,90,17.87a7.55,7.55,0,0,1,1.2,1,.59.59,0,0,1,.11.86c-.29.28-.46-.12-.68-.25a10,10,0,0,0-3.8-1.64c0,1,.66,1.72.75,2.62-2.9-.26-5.56.26-7.63,2.48-.43.46-.59.13-.84-.09A.94.94,0,0,1,79,22c.2-3.59-.33-7.16-.23-10.75-.11-.16-.27-.31-.25-.54A.73.73,0,0,1,79.25,10.57Z" fill="#b391ca"/><path d="M78.48,10.75a.52.52,0,0,1,.25.54c-.68-.13-.78.41-.93.84a7,7,0,0,0-.25,2.24c0,2.58,0,5.16,0,7.74,0,.76-.25,1-1,.93a1.2,1.2,0,0,1-.24-1.23c.51-2.8,0-5.59,0-8.39a6.28,6.28,0,0,1,.5-2.42C77.49,11.62,77.92,10.77,78.48,10.75Z" fill="#b390ca"/><path d="M59.07,117.57a30.79,30.79,0,0,1,2.24,6.82c.09.42.08.68-.32.86-.37-.21-.25-.67-.48-1Z" fill="#f1ced6"/><path d="M60.51,124.3a1.32,1.32,0,0,1,.48,1l.24,1.45a.81.81,0,0,0,0,1c.28.18.23.46.23.73a37.6,37.6,0,0,0,0,6.71A5.24,5.24,0,0,1,61,138,124.56,124.56,0,0,0,60.51,124.3Z" fill="#eabece"/><path d="M86.42,112.78a5.54,5.54,0,0,1-.28-2.88,8.38,8.38,0,0,1,.5,2.16C86.38,112.24,86.44,112.52,86.42,112.78Z" fill="#f6eff1"/><path d="M67,8.86c.94.21.32.84.49,1.49-.72-.52-.4-1.06-.47-1.5Z" fill="#b47be1"/><path d="M51.9,83.73a11.73,11.73,0,0,0,.72,3.36c.14,1.43.29,2.87.43,4.3a23,23,0,0,1-3.59-7.83c-1.1-4.87-.11-9.58,1.3-14.23a16.28,16.28,0,0,1,1.11-2.89C53.26,63.88,53.19,61,54,58.27c.23-.8.53-1.57.8-2.36.41,0,.45.24.4.55A34.25,34.25,0,0,0,55,64.1c.17,2.55-.72,4.86-1.42,7.21a37.17,37.17,0,0,0-1.86,9.91,5.83,5.83,0,0,0,.08.82A2.79,2.79,0,0,1,51.9,83.73Z" fill="#323140"/><path d="M76.82,140.73c-.08.31.22.9-.29,1s-.58-.54-.71-.93a34.13,34.13,0,0,1-1.13-7c-.4-3.43-1.1-6.8-1.58-10.21-.29-2-1-4-.37-6.12.09-.31.05-.72.48-.68s.46.44.46.74c0,3.59,1.1,7,1.3,10.62a59.53,59.53,0,0,0,1.68,11.4A4.34,4.34,0,0,1,76.82,140.73Z" fill="#f1cdd5"/><path d="M55,94.15c4.14,4.22,4.85,9.9,6.48,15.2C59.26,104.33,58.86,98.52,55,94.15Z" fill="#353342"/><path d="M59.07,54l1.44.75a9.72,9.72,0,0,1-.49,4c-.13.34-.3.74-.7.68s-.45-.5-.48-.85a2.53,2.53,0,0,1,0-.95A8.41,8.41,0,0,0,59.07,54Z" fill="#f1cdd5"/><path d="M61.46,135.09c-.52-1.53-.15-3.11-.21-4.66,0-.68-.27-1.42.21-2.05Z" fill="#e2c0e3"/><path d="M61.23,127.65c-.06.09-.1.41-.2.15a1,1,0,0,1,.2-1.1Z" fill="#e2c0e3"/><path d="M62.18,50.62A2.84,2.84,0,0,1,62.45,54a7.69,7.69,0,0,1-.81-.5c-4.73-2.6-4.88-7.47-.23-10.38-.29-.26-.73-.14-.93-.43,1.82-.88,2.69-.38,2.71,1.54,0,1.07.07,2-1.24,2.59a1.64,1.64,0,0,0-.48,2.57.55.55,0,0,1,.37.41C62,50.1,62.06,50.36,62.18,50.62Z" fill="#a86ed8"/><path d="M115.49,64.29a19.61,19.61,0,0,0-3.69-9c-.51-.68-.28-.77.26-1,2.26-1.12,2.24-1.12,3,1.34.58,1.94,1.21,3.86,1.8,5.8a4.29,4.29,0,0,1-1.12,4.47C115.41,65.35,115.75,64.77,115.49,64.29Z" fill="#b391ca"/><path d="M102.51,90.75c0,.91-3.66,6.54-4.32,6.8-.41.16-.6-.08-.71-.41a11.62,11.62,0,0,0-1.46-3c-.3-.44-.09-.74.11-1.08l2.52-4.46c.57-1,1.07-1.1,2-.42A6.6,6.6,0,0,1,102.51,90.75Z" fill="#ae70df"/><path d="M90.8,106.72c-.34,0-.38-.23-.42-.39A22.27,22.27,0,0,0,89,101.81a.36.36,0,0,1,.1-.51,34.45,34.45,0,0,0,3.51-3.74.9.9,0,0,1,1.52,0c.25.26.52.51.75.78,1.52,1.8,1.51,2.51-.19,4.11-1.19,1.13-2.16,2.46-3.23,3.68C91.25,106.34,91,106.53,90.8,106.72Z" fill="#ae70de"/><path d="M104.41,87.16a14.59,14.59,0,0,0-2.28-2.86.75.75,0,0,1-.23-1,26.52,26.52,0,0,0,1.52-5.6c.27-1.14.89-1.55,2-1.36,1.57.29,2,.77,1.87,2.05a22.33,22.33,0,0,1-1.38,4.8C105.38,84.48,104.93,85.75,104.41,87.16Z" fill="#ae70de"/><path d="M60.48,42.72c.55.1,1.39-.43,1.58.24s-.79.6-1.24.89a4.72,4.72,0,0,0-2.43,4.58,5.17,5.17,0,0,0,3.09,4.72c.46.19.93.28,1,.88-1.13.64-2-.11-2.81-.66C55.64,50.58,56.51,44.34,60.48,42.72Z" fill="#fbf9fc"/><path d="M96.33,45.79a20.4,20.4,0,0,0-5.3.79c.58-1.65,2.29-3,.92-4.94A6.77,6.77,0,0,1,96.33,45.79Z" fill="#d1bcdf"/><path d="M91.51,49.14a2.46,2.46,0,0,1-2.65,2.43,3.06,3.06,0,0,1-2.92-2.76,3,3,0,0,1,2.84-2.52A2.74,2.74,0,0,1,91.51,49.14Z" fill="#b392c9"/><path d="M70.32,60.1c-.51-2,0-4,0-6.06,0-.27-.19-.72.3-.76s.6.31.68.78c.4,2.51.44,5.06.73,7.58,0,.24.12.45-.18.59s-.37,0-.48-.19C71,61.47,69.89,61.28,70.32,60.1Z" fill="#b291c9"/><path d="M91.57,43.13a7.24,7.24,0,0,0-5-.21c-.25.1-.57.23-.68-.31s-.11-.91.37-1.09a7.54,7.54,0,0,1,4.43-.37C91.77,41.38,91.4,42.3,91.57,43.13Z" fill="#b391c9"/><path d="M92.42,95.84a.77.77,0,0,1-.11.33,29.49,29.49,0,0,1-3.22,3.66.7.7,0,0,1-1.06,0c-.32-.32-.16-.67.09-1,1-1.17,2-2.34,3.08-3.49a.74.74,0,0,1,.85-.26A.59.59,0,0,1,92.42,95.84Z" fill="#b190c8"/><path d="M61.71,49.8l-.24-.38c.09-.51,0-1.1.49-1.48.37.19.16,1.14.9.78s.52-.79.11-1.25a.54.54,0,0,1-.09-.22,1.79,1.79,0,0,1,2.59,2.13,1.79,1.79,0,0,1-2,1l-1.08-.06C62.15,50.23,61.74,50.26,61.71,49.8Z" fill="#a86ed7"/><path d="M69.5,42.88c-4.44-3.61-9.26-2.79-12.11.72.4-1.63,2.65-3.24,5.24-3.5A7.22,7.22,0,0,1,69.5,42.88Z" fill="#a36dd0"/><path d="M100.61,42.62a1.26,1.26,0,0,1-1.22,1.47c-.73,0-1.18-.51-1.21-1.32A1.27,1.27,0,0,1,99.4,41.3C100.18,41.24,100.59,41.83,100.61,42.62Z" fill="#b391ca"/><path d="M68.45,45.26c1.21.92,1.73,3.27,1.22,4.89-.6,1.88-1.91,3.15-3.53,3.2C69.83,51.46,69.47,48.53,68.45,45.26Z" fill="#a66cd5"/><path d="M81.57,46.19a6.73,6.73,0,0,1,1.58-2.66c.64.7,1.62,1.5,1.42,2.22s-1.49.2-2.29.32Z" fill="#ceb9dc"/><path d="M94.09,47.7c.62-.07.94,0,1,.71a5.36,5.36,0,0,1-.79,3.48c-.09.15-.17.4-.41.28s-.3-.3-.17-.58A5.15,5.15,0,0,0,94.09,47.7Z" fill="#d0bcde"/><path d="M91.65,54.84a4.39,4.39,0,0,1-3.57.67c-.47-.12-1.42.17-1.3-.54s1.08-.37,1.57-.2C89.47,55.16,90.54,54.71,91.65,54.84Z" fill="#ae8fc4"/><path d="M62.88,47.25c.55.25,1.23.5.65,1.26-.25.33-.5.89-1.1.73s-.42-.82-.47-1.3C62.23,47.67,62.35,47.19,62.88,47.25Z" fill="#faf8fc"/><path d="M94.52,53.15a5.59,5.59,0,0,1-1.71,1.33,6,6,0,0,0-.42-.88c-.25-.4-.39-.92-.09-1.2s.73.12,1,.39S94.11,52.85,94.52,53.15Z" fill="#ceb9dc"/><path d="M94.63,52.2a5.64,5.64,0,0,0,.81-4.28c-.07-.34.1-.45.33-.51s.26.21.26.38a7.61,7.61,0,0,1-.5,3.86C95.36,52,95.28,52.47,94.63,52.2Z" fill="#b191c8"/><path d="M90.84,46.34c-1.32-.26-2.4-.63-3.47-.14a.26.26,0,0,1-.38-.13c-.1-.23.1-.34.26-.45C88.07,45,89.64,45.28,90.84,46.34Z" fill="#cfbadd"/><path d="M85.89,55c-.47-.25-.83-.4-1.15-.61s-.91-.44-.8-.86.83-.11,1.2-.48c.17-.17.29.13.33.32A4.3,4.3,0,0,1,85.89,55Z" fill="#cfbadd"/><path d="M86.46,45.3c1.07-1,3.54-1.09,4.44-.23.13.12.25.2.11.35s-.24.18-.27.15C89.41,44.46,87.94,44.83,86.46,45.3Z" fill="#ccb8da"/><path d="M86.09,44.42a4.26,4.26,0,0,1,5.07.13A7.93,7.93,0,0,0,86.09,44.42Z" fill="#c9b5d7"/><path d="M83.48,52.41c-1.57-.89-1.56-2.43-1.67-3.92C82.52,49.72,82.31,51.36,83.48,52.41Z" fill="#ac8cc2"/><path d="M84.44,47.74a4.18,4.18,0,0,0,.28,3.88C83.26,50.42,83.07,48.36,84.44,47.74Z" fill="#cbb7d9"/><path d="M91.09,54A3.85,3.85,0,0,1,87,53.68,25.82,25.82,0,0,0,91.09,54Z" fill="#d0bbde"/><path d="M87.13,52.12c1.34.25,2.4.77,3.42.05.13-.09.26.12.29.28s-.08.26-.26.32A3.44,3.44,0,0,1,87.13,52.12Z" fill="#c8b4d6"/><path d="M92.33,51.39c.21-1.33.64-2.55,0-4A3.06,3.06,0,0,1,92.33,51.39Z" fill="#cab6d8"/><path d="M68.05,45l-1.78-1.25c-.14-.1-.25-.25-.14-.38a.45.45,0,0,1,.41-.12A2.31,2.31,0,0,1,68.05,45Z" fill="#9d68c9"/><path d="M93.45,50.3l-.15-3a3.9,3.9,0,0,1,.49,3Z" fill="#c7b4d5"/><path d="M84.82,48.56a5.11,5.11,0,0,0,.51,2.15c.13.21.1.4-.11.49s-.28-.2-.34-.33A2.13,2.13,0,0,1,84.82,48.56Z" fill="#c5b2d3"/><path d="M89.79,43.36c-1-.29-2,.29-3.25-.08,1.22-.21,2.21-.74,3.24-.09.08,0,.11.06.09.1S89.82,43.36,89.79,43.36Z" fill="#b3a1c0"/><path d="M85.65,47.81c.13.87-.05,1.65.12,2.39C85.05,49.5,85.19,48.73,85.65,47.81Z" fill="#bfadcd"/><path d="M91.78,50.72A21.27,21.27,0,0,0,92,48.09,3.19,3.19,0,0,1,91.78,50.72Z" fill="#cdb9db"/><path d="M89.79,43.36a.32.32,0,0,0,0-.17,3.66,3.66,0,0,1,2.33.72C91.05,44.17,90.55,43.27,89.79,43.36Z" fill="#c7b4d5"/><path d="M103.24,49.19c-.31-.74,0-1.09.74-1.16C103.62,48.34,103.76,49,103.24,49.19Z" fill="#a86ed8"/><path d="M91.47,22c.54-.46.59-.42,1,.77Z" fill="#b18dc9"/><path d="M58.83,27.13A3.3,3.3,0,0,1,61,26.62,5.62,5.62,0,0,1,58.83,27.13Z" fill="#ad8bc5"/><path d="M58.12,26.89c.18.26.48.18.73.24a3.52,3.52,0,0,1-1.55.43C57.42,27.06,57.82,27,58.12,26.89Z" fill="#9e7cb8"/><path d="M115.49,64.29c.38.46.17,1,.23,1.54-.18.35-.25.15-.26-.06C115.45,65.27,115.48,64.78,115.49,64.29Z" fill="#846e97"/><path d="M89.72,53.3l1.7-.18C90.69,53.69,90.18,53.37,89.72,53.3Z" fill="#cebadc"/><path d="M83,49.81a2.59,2.59,0,0,1,0-1.65A2.73,2.73,0,0,1,83,49.81Z" fill="#c9b5d7"/><path d="M61.71,49.8l.72.56-.25.26C61.94,50.39,61.43,50.33,61.71,49.8Z" fill="#6c4e8a"/><path d="M79.19,26.12c.08.16,0,.39.26.47,0,.2-.19.45-.33.32S79,26.37,79.19,26.12Z" fill="#6c5c7e"/><path d="M87.2,52.87l.69.22C87.62,53.37,87.39,53.26,87.2,52.87Z" fill="#d2bde0"/><path d="M89.55,85.87c-1.6,2.73-3.24,5.45-4.79,8.22-.32.58-1.06.9-1,1.69-.52.27-.43.86-.67,1.28-.13.23,0,.68-.51.59a17.05,17.05,0,0,1-2.64,3.52,2.57,2.57,0,0,0-.67,1.64,5.67,5.67,0,0,1-.52,1.83,5.35,5.35,0,0,0-.3,4.49,1.54,1.54,0,0,1,0,.71c0,.25-.19.47-.48.44a.39.39,0,0,1-.35-.52c.4-1.42-.28-2.74-.43-4.1a12.45,12.45,0,0,1,.56-4.67c1.09-4.17,3.47-7.77,5.06-11.72a15.12,15.12,0,0,1,2.33-3.74,42.69,42.69,0,0,0,4.52-7.87,29.77,29.77,0,0,1,3-4.41c.39-.52.65-.5,1,.09A3.6,3.6,0,0,1,94,75.89a7.07,7.07,0,0,0-.24,1.83c.25.22,0,.4,0,.6A34.9,34.9,0,0,0,91.48,82l0,.29A12.37,12.37,0,0,0,89.55,85.87Z" fill="#ecbac5"/><path d="M81.86,107.89c0,1.51-.41,2.08-1.37,2a1,1,0,0,1-.81-.41,3.19,3.19,0,0,1,.59-3.07,1,1,0,0,1,1,0A1.56,1.56,0,0,1,81.86,107.89Z" fill="#ecbbc6"/><path d="M97,70.29c-.21,0-.52.09-.6-.23s.16-.44.34-.58a7.56,7.56,0,0,0,2.11-2.07.43.43,0,0,1,.52-.18c.24.08.25.29.25.49A3.32,3.32,0,0,1,97,70.29Z" fill="#ecbbc5"/><path d="M82.58,97.65c.61-.48.14-1.66,1.18-1.87a26.68,26.68,0,0,0-1.69,6.87c-.59-.05-.23-.45-.25-.7C81.7,100.45,82.44,99.1,82.58,97.65Z" fill="#7a7581"/><path d="M93.62,78.18c.06-.15.11-.3.17-.46.71-.76,1.13-1.8,2.15-2.29a17.57,17.57,0,0,1-2.3,3.3A.4.4,0,0,1,93.62,78.18Z" fill="#716f79"/><path d="M93.62,78.18l0,.55c-.76,1.07-1.07,2.43-2.16,3.29A10.32,10.32,0,0,1,93.62,78.18Z" fill="#6d5d6b"/><path d="M89.55,85.87a4.8,4.8,0,0,1,1.91-3.56A15.28,15.28,0,0,1,89.55,85.87Z" fill="#6b5c6a"/><path d="M81.82,102c.07.24,0,.53.25.7v.74C81.63,102.83,81.47,102.43,81.82,102Z" fill="#b2a0aa"/><path d="M47.69,81.63a3.37,3.37,0,0,1-1.32-1.92c-.38-2.15-1.69-3.73-3-5.3a96,96,0,0,0-7.56-8.31,4.13,4.13,0,0,1-1.3-4.21A31.93,31.93,0,0,1,37.55,53a2.18,2.18,0,0,1,3.24-.87c.2.12.4.26.6.37,1.54.78,1.53.86.44,2.18C40.3,56.56,40,58.87,39.39,61.1c-.9,3.61,1.13,6.19,3.1,8.77,1.52,2,3.24,3.87,4,6.3C47.1,77.92,47.13,79.82,47.69,81.63Z" fill="#323140"/><path d="M47,55c1.19.47,2.15.8,3.07,1.22a4.89,4.89,0,0,0,2.62.63c.19,0,.51,0,.58.29s-.16.35-.34.43C51.5,58.13,47.76,56.65,47,55Z" fill="#343242"/><path d="M65.29,30.73a3.12,3.12,0,0,1,2.07-3.25,4.19,4.19,0,0,1,4.74.84,3.35,3.35,0,0,1,.9,3.82c-.48,1.1-.46,2.32-1,3.42a3.37,3.37,0,0,1-5.16,1,3.52,3.52,0,0,1-1.29-3.07C65.71,32.55,65.2,31.69,65.29,30.73Z" fill="#333141"/><path d="M74.9,49c0-.75-.05-1.51,0-2.26.08-1.07,0-1.85-1.45-1.41v2c0,1.93,0,1.93,2,2.2A2.7,2.7,0,0,0,74,51c-.41.76-1.56.19-2.4.17.43-.47,1-.32,1.49-.33.79,0,.86-.65.48-.89-.78-.51-.53-1.17-.55-1.79,0-.88,0-1.76,0-2.64,0-.57.21-.91.92-1,1.11-.09,1.65.18,1.46,1.4-.16,1-.22,2-.33,3.05Z" fill="#333241"/><path d="M64.67,31.81a.92.92,0,0,1-1,.34c-.94-.11-1.56,0-1.9,1.16s-2.16,1.66-3.45,1a2.65,2.65,0,0,1-1.13-3.65A2.54,2.54,0,0,1,60.88,30a1,1,0,0,1,.26.25A2.89,2.89,0,0,0,64.67,31.81Z" fill="#353343"/><path d="M66.07,14.23l3.6-.87.08.31c-1.18.42-2.26,1.18-3.61.9Z" fill="#363345"/><path d="M93.35,30.93c.2,4-3.4,7-7.66,6.43a6.8,6.8,0,0,1-5.06-3,6,6,0,0,1,2-8.39A7.21,7.21,0,0,1,92,27.57c.07.07.09.13.07.19s0,.1-.07.1c-.58.08-.86-.4-1.2-.69-2.62-2.22-8-2-9.86,2.16,0,0,0,0,0,0,3.19-4.76,6.89-4.62,10.9-1.09.79.7.76,1.84,1.29,2.68A.2.2,0,0,1,93.35,30.93Z" fill="#323140"/><path d="M99.15,35.09l-.4.39c-1.8.87-3.07.39-3.37-1.28a2.23,2.23,0,0,1,1.37-2.5A2.05,2.05,0,0,1,99.34,33a2.13,2.13,0,0,1,.16.93C99.53,34.38,99.12,34.66,99.15,35.09Z" fill="#b391ca"/><path d="M99.38,34.29c-.06-1.57-.66-2.3-1.86-2.41a1.5,1.5,0,0,0-1.66.85,2.44,2.44,0,0,0,.07,2.37,1.74,1.74,0,0,0,1.8.62c.36,0,.64-.35,1-.24-1.51,1.19-2.9.85-3.45-1a7.15,7.15,0,0,0-1.4-2.13c.85.63,1.33.37,1.89-.37a2,2,0,0,1,2.49-.52,2.36,2.36,0,0,1,1.32,2.78C99.53,34.39,99.46,34.39,99.38,34.29Z" fill="#353344"/><path d="M81.63,40c0,.56-.23.94-.72,1A1,1,0,0,1,80,40a.71.71,0,0,1,.73-.87A.85.85,0,0,1,81.63,40Z" fill="#373445"/><path d="M91.91,27.91l0-.34a3,3,0,0,1,1,1.86.26.26,0,0,1,0,.33A2.29,2.29,0,0,1,91.91,27.91Z" fill="#403c4f"/><path d="M92.91,29.74v-.31a2.52,2.52,0,0,1,.43,1.5h-.18A.75.75,0,0,1,92.91,29.74Z" fill="#333241"/><path d="M99.38,34.29h.22c-.11.29-.15.62-.45.81C98.92,34.73,99.15,34.51,99.38,34.29Z" fill="#5b506c"/><path d="M146.5,43.64c-.14-1,0-2.08-.74-3-2.14-2.62-4.31-5.22-6.4-7.89a1.42,1.42,0,0,0-1.75-.58c-3.79,1.3-7.58,2.65-11.37,4a.8.8,0,0,0-.61,1.09,6.13,6.13,0,0,1,.15.94c.26,3.5.5,7,.76,10.48a3.08,3.08,0,0,0,1,2.19c2.41,2.1,4.77,4.25,7.13,6.39.36.33.66.26,1.08.13,3.55-1,7.09-2,10.65-3a1.48,1.48,0,0,0,1.25-1.76C147.3,49.62,146.94,46.63,146.5,43.64Zm-1.68-2.85a1.71,1.71,0,0,1,.82,1.81A1.42,1.42,0,0,1,144.82,40.79Zm0,2c1.27.51,1.1,1.63,1.31,2.68C145.14,44.83,144.46,44.12,144.82,42.82Zm1.55,5.77c-1.43-.74-1.55-1.9-1.34-3.17C146.32,46.27,146.49,46.66,146.37,48.59ZM130,47c.21-.58-.26-1.24.42-1.48a6.93,6.93,0,0,1,2.38-.52c.26,0,.32,1,.38,1.51s0,.71-.45.85a10.59,10.59,0,0,1-2.14.67C129.55,48.18,130.51,47.19,130,47Zm6-.76a4.84,4.84,0,0,1-2.13.6c-.42,0-.29-1-.43-1.58a.5.5,0,0,1,.44-.69,9.36,9.36,0,0,0,1.24-.39c1.18-.4,1.18-.4,1.18.95C136.23,45.49,136.61,46,136.05,46.26Zm2.76-3.75c-.3.1-.61.18-.91.27-1.32.4-1.32.4-1.31-1,0-.9,1.51-2,2.26-1.67.43.21.4.68.36,1.06S139.53,42.25,138.81,42.51ZM140.94,46c-1.4-.59-.9-1.69-1-2.7C141.29,43.92,140.79,45,140.94,46Zm-.3-3.12c-1.07-.49-.6-1.37-.65-2.09,0,0,.22-.16.25-.14s.37.26.38.41C140.67,41.6,140.64,42.19,140.64,42.84Zm.42,4.37c-.65.26-1.21.44-1.74.69-1,.48-1.37-.41-1.89-.93-.16-.16,0-.3.19-.43C139,45.68,140,45.84,141.06,47.21Zm1.6,1.72a.44.44,0,0,1,0,.3,3,3,0,0,1-3,.23c-.26-.25-.5-.52-.88-.92.71-.26,1.3-.48,1.9-.67A2,2,0,0,1,142.66,48.93Zm-1.19-4.17c1.66.53.93,2,1.51,3.2A2.55,2.55,0,0,1,141.47,44.76Zm-1.82,5.51a8.48,8.48,0,0,0-1.38.51c-1.11.64-1.63-.2-2.23-.85a.53.53,0,0,1-.11-.31,7.31,7.31,0,0,1,1.81-.73c.37-.15.66-.23.93.16S139.26,49.79,139.65,50.27ZM138,45.64l-1.12.35V45a1.85,1.85,0,0,1,2-2c.33,0,.37.19.42.43C139.55,44.77,139.31,45.19,138,45.64Zm-.11,2.74c-.64.21-1.29.39-1.9.65a.73.73,0,0,1-1-.15c-.28-.32-.79-.65-.8-1,0-.49.68-.37,1-.57C136.42,46.66,137.28,47,137.84,48.38Zm-2.62-4.68c-1.65.46-2.18,0-1.93-1.7.05-.34.27-.44.56-.51l2.28-.63a5.55,5.55,0,0,0,0,1.38C136.39,43.12,136.09,43.46,135.22,43.7Zm-2-2.58a5.32,5.32,0,0,1,0-1.07c.16-.75-.67-1.65,0-2.15a8.3,8.3,0,0,1,2.54-.89C136.49,40.92,136.39,40.33,133.23,41.12ZM133,43.4c.14.74-.17,1.2-1.06,1.24-.19,0-.43.23-.56.17-.49-.23-1.17.85-1.48-.18s0-1.9,1-2.22l.56-.2C132.86,41.79,133,41.87,133,43.4Zm.06,4.66c1-.28,1.14.68,1.41,1.15s-.48.46-.77.57c-2,.75-2,.73-3.32-.82C131.33,48.64,132.18,48.32,133.05,48.06Zm-.48,2.57a2.58,2.58,0,0,1,3.94.63,7.35,7.35,0,0,1-2.41.91c-.9.23-1.2-.71-1.71-1.19C132.25,50.85,132.43,50.73,132.57,50.63Zm3.76,1.28a1,1,0,0,1,1.19.23c.3.36.89.74.85,1.06s-.78.34-1.16.58c-1.44.91-2.13-.14-3-1.14Zm1.38-.49c.65-.21,1.29-.38,1.89-.64a.6.6,0,0,1,.83.18c.32.47,1.22.66.94,1.39-.2.53-2.25.67-2.65.26S137.91,52,137.71,51.42Zm3-1c.67-.26,1.32-.53,2-.74.39-.12,1.72,1,1.73,1.41s-.24.36-.46.46C142.38,52.29,142.19,52.23,140.75,50.44Zm2.13-4.37c1.87.92,1.68,2.29,1.61,3.72C142.91,49,143.44,47.46,142.88,46.07Zm1.55.52c-1.49-.65-1.42-2-1.54-3.28C144.44,44,144.73,45.13,144.43,46.59Zm-1.49-8.18c.63.79,1.37,1.4,1.26,2.58C143.4,40.29,142.52,39.75,142.94,38.41Zm.11,2.31a2.26,2.26,0,0,1,1.14,2.76C142.74,42.52,142.59,42.14,143.05,40.72Zm-.53,4a2.51,2.51,0,0,1-1.31-3.09C142.61,42.23,142.71,43.38,142.52,44.73Zm0-2.93c-1.49-.61-1.41-1.88-1.52-3.08C142.26,39.19,142.58,39.82,142.52,41.8Zm-1.67-5.89c.62.88,1.83,1.43,1.42,2.84A2.63,2.63,0,0,1,140.85,35.91Zm-1.34,1c1.31.75,1.13,2,1.16,3.41C139.19,39.35,139.91,37.92,139.51,36.86Zm.83-.31c-1.28-.54-1.12-1.73-1.37-2.81A2.74,2.74,0,0,1,140.34,36.55Zm-1.61.2c.09.62.16,1.25.26,1.88s-.15.92-.74,1.11c-1.7.58-1.87.42-1.9-2,0-.69,1.44-1.68,2.1-1.44C138.68,36.35,138.7,36.55,138.73,36.75Zm-5.47-2.37a11.8,11.8,0,0,1,2.59-.81h0a3.14,3.14,0,0,1,.39-.24c1.81-.69,1.81-.68,2.17,1.14a1.52,1.52,0,0,1-1.79,1.79c-.47-.09-.24-.42-.29-.65-.16-.68.32-1.51-.48-2h0c0,.16,0,.31,0,.46.09,2.8.09,2.8-2.78,3.18a15.29,15.29,0,0,0-.24-2.12C132.66,34.69,132.94,34.48,133.26,34.38Zm-.73,7a16.54,16.54,0,0,1-2.6.77c-.06,0-.25-.2-.26-.33a22.59,22.59,0,0,0-.18-2.72c-.05-.22.25-.28.42-.35s.54-.12.8-.22c1.7-.67,2-.8,2,1.58C132.66,40.5,133,41.16,132.53,41.38Zm-3.19-5.48a4.91,4.91,0,0,1,2.59-1c.9-.07.41.89.6,1.34-.11.48.22,1.11-.34,1.33a19.13,19.13,0,0,1-2.59.73c-.19,0-.19-.21-.2-.36C129.35,37.23,129,36.18,129.34,35.9Zm-.94.13c.9.1.3.9.51,1.26a1.69,1.69,0,0,1-2,1.79c-.68-.15-.48-1.08-.58-1.66S127.49,35.93,128.4,36Zm-1.84,4.4c-.23-.84.52-.84,1-1,1.57-.5,1.57-.49,1.58,1.11,0,2.12,0,2.12-2.36,2.46A16.07,16.07,0,0,0,126.56,40.43Zm.43,4.28c-.06-1.09.56-1.61,1.84-1.74.68-.07.53.4.55.76.09,1.63-.26,2-1.85,2.1C126.26,45.89,127.51,44.83,127,44.71Zm.25,3.35c-.07-1.64.36-2.2,1.93-2.12,1.06.05,0,1.08.45,1.35a1.84,1.84,0,0,1-2,1.79C127,49,127.26,48.42,127.24,48.06Zm.41,1.88c1.74-.95,2.25-.9,3.14.22.33.41.24.48-.21.73C129.21,51.67,128.4,50.94,127.65,49.94Zm2.09,1.89c1.58-1.1,2-1,3.34.58A2.06,2.06,0,0,1,129.74,51.83Zm2,1.75c1.82-.95,1.83-.95,3.35.78C133.41,55.19,133.41,55.19,131.73,53.58Zm3.47,3.15a1.11,1.11,0,0,1-.43-.4c-.19-.37-1.09-.57-.58-1A1.32,1.32,0,0,1,136,55.2a11.83,11.83,0,0,0,.95.74C137,56.63,135.65,57,135.2,56.73Zm1.19-2c2.23-1.37,2.62-1.32,4.14.57C138.07,56.51,137.75,56.46,136.39,54.72Zm3.41-1.15c2-1.17,2.48-1.08,3.87.8C141.3,55.47,141.25,55.46,139.8,53.57Zm6.6,0a4.59,4.59,0,0,1-1.91.51c-.66-.11-1.08-.87-1.55-1.41-.13-.14,0-.32.14-.37.55-.2,1.12-.37,1.73-.56a4.07,4.07,0,0,1,1.69,1.55S146.46,53.59,146.4,53.61Zm.46-1.2a3.46,3.46,0,0,1-1.78-4.1A3.91,3.91,0,0,1,146.86,52.41Z" fill="#ae71df"/><path d="M25.61,50c-1.35-3.61-2.67-7.23-4-10.84-.16-.45-.47-.86-1-.7a18.93,18.93,0,0,1-3.09.31c-2.39.36-4.8.59-7.21.88a2,2,0,0,0-1.95.64C5.78,42.34,3.2,44.47.6,46.57a1.48,1.48,0,0,0-.48,1.81C1.36,52,2.61,55.67,3.83,59.32c.16.48.37.81.9.78,3.62-.21,7.23-.49,10.85-.63a4.93,4.93,0,0,0,4.54-2.42,3.51,3.51,0,0,1,.33-.34C22,55,23.61,53.22,25.16,51.44A1.34,1.34,0,0,0,25.61,50ZM23.32,45.6c.25.7.49,1.42.79,2.1.14.33,0,.5-.17.73-.53.59-1,1.2-1.69,2l-.64-1.53c-.73-1.8-.54-2.39,1-3.52C23.06,45.08,23.18,45.23,23.32,45.6Zm-5.88-.2c-1-2.1-1.36-1.63,1.18-3.6C19.45,43.56,19.41,43.69,17.44,45.4Zm1.95-1.18c1.25,2.55,1.19,2.81-1,4.55C17.19,46.06,17.2,46.05,19.39,44.22ZM9.91,46.91c.58,0,1.18-.13,2-.14.93-.26,1.7.09,2,1.31.09.42,0,.64-.43.6a28.53,28.53,0,0,0-3.33.25.82.82,0,0,1-1-.65C8.9,47.51,8.72,46.94,9.91,46.91ZM8.86,46.3c1-1.21,2-1.85,3.37-1.71a12.5,12.5,0,0,0,2.29-.21C13.14,46.46,11.09,46.24,8.86,46.3Zm1.45,3.11c.84.05,1.64-.38,2.32-.24A2.28,2.28,0,0,1,15,51.58c-.07.46-.5.44-.83.46a12.49,12.49,0,0,0-2.73.23.82.82,0,0,1-1.13-.73,5.51,5.51,0,0,0-.48-1.34C9.52,49.62,9.68,49.38,10.31,49.41Zm5.51-5.13c.27-.13.51-.15.6.12.21.64.76,1.29.15,2s-1.13,1.22-1.77,1.92C13.62,46.26,14,45.16,15.82,44.28Zm-4.23-.18c1.55-2,2.87-2.52,5.86-2.3C15.34,44,14.74,44.21,11.59,44.1Zm-4.22.15a5.94,5.94,0,0,1,5.5-2.16C11.4,43.76,9.77,44.89,7.37,44.25Zm2.15.61c-1.28,1.79-3,1.77-4.8,1.63C5.87,44.51,7.68,44.81,9.52,44.86ZM6.46,47c1.89-.17,1.9-.15,2.3,1.8-.65.08-1.3.15-1.95.26-1.91.32-2.12.18-2.56-1.77C5.05,47.22,5.75,47.1,6.46,47Zm-.9,2.61,1.3-.18c1.93-.3,2.73.32,3,2.26,0,.33,0,.51-.39.58a7.17,7.17,0,0,1-2,.22c-.51-.08-1.23.27-1.49-.15a9.63,9.63,0,0,1-.83-2.33C5,49.73,5.3,49.68,5.56,49.65Zm.79,3.91c.22-1.14,1.37-.42,2.09-.53,1.83-.29,1.86-.24,2.35,1.52a3.06,3.06,0,0,1,.31,1.51c-1.13.21-2.3-.1-3.42.26-.33.11-.54-.12-.64-.4C6.77,55.13,6.22,54.28,6.35,53.56Zm4.51-.46c-.08-.31.28-.27.5-.34,1.16-.35,2.38-.1,3.55-.34.42-.08.42.22.53.47,1.12,2.57,1,2.83-1.77,3H13c-.4-.1-1.07.28-1.34-.31A13.79,13.79,0,0,1,10.86,53.1Zm5-1.45c-.27-.76-.41-1.26-.62-1.72a1.46,1.46,0,0,1,.46-2.06c.5-.35,1-1.38,1.34-1.11.67.53.7,1.6,1,2.46,0,.15-.3.43-.48.63Zm2.34-1.77c.37.95.71,1.78,1,2.62s-.37,1.07-.75,1.49c-1.36,1.5-1.23,1.44-2-.38C15.48,51.56,17.24,51.06,18.15,49.88Zm2.42-2.28c.35.83.68,1.66,1,2.48a.65.65,0,0,1-.15.83c-.52.54-1,1.13-1.57,1.81C18.28,49.74,18.34,49.39,20.57,47.6Zm1.54-5.35c1,2,1,2-.59,3.55l-.74.7c-.16-.46-.28-.82-.4-1.19C19.82,43.64,20,43,21.44,42,21.86,41.72,21.94,41.91,22.11,42.25Zm-1.2-3c.8,1.67.38,2.93-.94,3.59-.2.1-.42.17-.47-.1-.09-.55-.68-1-.21-1.64S20.29,39.94,20.91,39.23Zm-1.5.08a.66.66,0,0,1,.41.16c.15.22-.09.33-.21.48-1.27,1.53-3.06,1.36-5,1.58A4.84,4.84,0,0,1,19.41,39.31Zm-3.79.39c-1,1.59-2.37,2.16-4.81,1.95A5.68,5.68,0,0,1,15.62,39.7Zm-3.86.39c-1.4,1.54-2.48,2-4.28,1.79C9.24,40,9.33,40,11.76,40.09ZM8.65,42.54c-1.41,1-2.42,2.46-4.49,2C6.74,42.36,6.74,42.36,8.65,42.54ZM5.17,45.22a4.46,4.46,0,0,1-4,1.72C2.52,46,3.32,44.47,5.17,45.22ZM.66,48.13c0-.8.85-.57,1.38-.64.16,0,.32,0,.52,0C3,47.63,3.65,47,3.94,48s.29,1.32-.8,1.18a3.47,3.47,0,0,0-.83.12C1.2,49.51.61,49.16.66,48.13Zm1.45,4.26c-.23-.8-.52-1.58-.81-2.45l.63-.08c3.22-.47,2.3-.45,3.38,2.31.17.45,0,.64-.47.61a4.91,4.91,0,0,0-1.9.18C2.45,53.13,2.24,52.84,2.11,52.39Zm1.5,4A9,9,0,0,1,2.66,54c0-.13-.07-.39,0-.42a5.49,5.49,0,0,1,2.57-.32c.6,0,.58.44.7.77.27.74.49,1.5.77,2.36-.46,0-.82,0-1.17,0C4.87,56.34,4.06,57,3.61,56.4Zm2.65,3c-1.62.3-2.17-.11-2.35-1.76,0-.11-.05-.29,0-.34a2.27,2.27,0,0,1,1.78-.43c.44.05,1.06-.35,1.3.41s.42,1.25.64,1.89Zm2.82-.16a.93.93,0,0,1-1.14-.73c-.66-1.82-.64-1.89,1.34-1.9H9.4c2.16,0,2.16,0,2.82,2.3Zm7.5-.49a26.7,26.7,0,0,0-3.34.18c-.69.13-.62-.59-.78-1-.57-1.48-.57-1.5.95-1.57.64,0,1.24-.35,1.82-.24a2.1,2.1,0,0,1,2,2.11C17.23,58.7,16.89,58.72,16.58,58.75Zm5-4.39c-.33.33-.63.7-.95,1v0h0l-2.51,2.87c-1.1-2.21-.89-3,1-4.33.41-.29.49-.12.67.22s.1,1.18.87,1.24h0v0l0,0h0c-.78-2.46-.77-2.47,1.21-4.16a.42.42,0,0,1,.12,0C23,53,23,53,21.62,54.36Zm1.56-1.66c-.82-2.15-.82-2.15,1.14-3.87C25.37,50.45,25.31,50.64,23.18,52.7Z" fill="#ae71df"/><path d="M34.11,30.89c-.23-3.93-.78-7.64-.74-11.4A2.06,2.06,0,0,0,32.52,18c-2.32-2.14-4.65-4.26-6.9-6.47a1.66,1.66,0,0,0-1.86-.44c-3.33.94-6.56,2.18-9.85,3.22-1.16.37-1.54.87-1.41,2,.36,2.91.6,5.85,1,8.75.16,1.05,0,2.17.88,3.13,2,2.27,3.92,4.63,5.77,7a1.86,1.86,0,0,0,2.54.6c3.32-1.22,6.67-2.34,10.05-3.39C33.75,32.12,34.42,31.87,34.11,30.89Zm-1.22-7.08c0,.51,0,1,.11,1.55.3,1.81-.18,2.46-2,2.64-.39,0-.54-.1-.51-.44.08-.81-.38-1.57-.24-2.24a2.44,2.44,0,0,1,2.26-2C32.86,23.33,32.88,23.57,32.89,23.81Zm-.22-2.52c.46,1.31-.51,1.74-1.67,2.1-.64.2-.91,0-.95-.61C30,22,30,21.27,30,20.52c0-.36.18-.38.39-.46s.37-.12.56-.18C32.67,19.32,32.67,19.32,32.67,21.29Zm-.77-3c.3.42.11.51-.24.65-1.84.76-2.07.71-3.38-.86-.17-.21-.36-.41-.62-.69.31-.12.49-.2.68-.26C30.06,16.52,30.84,16.79,31.9,18.27ZM17.7,27.74c-1.78-1.51-2-2.06-2-5.07C17.7,23.8,18,25.57,17.7,27.74Zm-2.36-9.07c2,1,2.16,2.88,2.19,4.86C15.44,21.75,14.82,20.3,15.34,18.67Zm.48-.82c2.6-1.1,2.81-1,4.47,1.27C18,20.32,17.69,20.23,15.82,17.85Zm7,.09c.17.33.11.4-.24.55-1.47.64-1.83.59-2.84-.66-.23-.27-.42-.58-.69-.95a4.71,4.71,0,0,1,.48-.28A2.47,2.47,0,0,1,22.82,17.94Zm.57-2.53,1.05-.31A5.82,5.82,0,0,1,26.61,17c0,.07,0,.19-.05.2-.89.31-1.79.62-2.7.89-.56.16-.73-.39-1-.68C21.65,16,21.66,16,23.39,15.41Zm-5.51,5.77a4.52,4.52,0,0,1,2,4.94C18.34,25.41,17.64,23.75,17.88,21.18Zm1.78.78c-.46-.48-.88-1-1.4-1.56.77-.26,1.42-.51,2.1-.71.34-.1,1.87,1.18,1.91,1.56a.41.41,0,0,1,0,.22A3.76,3.76,0,0,1,19.66,22Zm2.45-1.57c-.08-.1-.12-.22-.2-.3-.69-.62-.37-.87.35-1a7.49,7.49,0,0,0,1-.34,7.11,7.11,0,0,1,1.86,1.76.45.45,0,0,1-.16.28A2.23,2.23,0,0,1,22.11,20.39Zm3.07,1c.51,0,.64.28.69.63.1.86.13,1.73.2,2.6,0,.36-.28.33-.49.39l-2.19.66c-.07-.62-.1-1.17-.2-1.71C22.83,22.07,23.27,21.51,25.18,21.36Zm-1.06-2.85c.49-.18,1-.36,1.45-.52a2.18,2.18,0,0,1,3,1.2c.18.34.23.52-.22.7C26.27,20.75,25.31,20.46,24.12,18.51Zm2.36,2.57c.85-.2,1.69-.44,2.67-.69.21,0,.37.11.39.47a10.4,10.4,0,0,0,.17,2.61c.09.27-.08.43-.36.5-.77.2-1.53.41-2.29.64-.43.13-.61-.07-.62-.46a8.11,8.11,0,0,0-.26-2.6C26.07,21.25,26.18,21.15,26.48,21.08ZM28,14.64c.4.38.79.77,1.19,1.17.08.08.15.18.3.37-.24.11-.42.21-.6.28a2.34,2.34,0,0,1-3.23-1.28c-.07-.16-.12-.26,0-.41A2.26,2.26,0,0,1,28,14.64Zm-2.44-2.27a12.58,12.58,0,0,0,1.51,1.37c-2.69,1-1.85,1-4.15-1.67A1.71,1.71,0,0,1,25.57,12.37Zm-4.15,0a1.08,1.08,0,0,1,1.25.26c.6.58,1.25,1.09,2,1.7a10.14,10.14,0,0,1-2.93,1.12c-.57.18-.78-.46-1.06-.79C19.26,13,19.29,13,21.42,12.38Zm-2,1.38c.48.62.94,1.26,1.47,2l-.38.11c-1.81.61-2.73.26-3.68-1.4a.58.58,0,0,1-.12-.42C17,13.43,19,13.25,19.4,13.76Zm-5.64,1.29c.7-.27,1.41-.52,2.11-.78.63.09.75.68,1.08,1.05,1.1,1.23,1.08,1.24-.43,1.73a2.47,2.47,0,0,1-2.91-1.53C13.53,15.29,13.52,15.14,13.76,15.05Zm-.54,1.43c1.42.75,1.84,1.82,1.56,4C13.42,19.47,13.31,18,13.22,16.48Zm2.21,8.72c-2-1.33-1.3-3.28-1.83-5.05C15.48,21.47,15.23,23.28,15.43,25.2Zm-1.18-.14c1.59.77,1.44,2.2,1.66,3.61C14.49,27.78,14.36,26.47,14.25,25.06ZM16.18,27a4.87,4.87,0,0,1,2,4.57A5,5,0,0,1,16.18,27Zm2.18-1.43a4.18,4.18,0,0,1,1.73,4.72A4.3,4.3,0,0,1,18.36,25.56Zm.19,4.06c2,1,2.05,2.88,2.13,4.89C18.87,33.2,18.55,31.51,18.55,29.62Zm2.07-4.16a3.81,3.81,0,0,1-.13-.45c-.38-2.06-.12-2.41,2.06-2.77.1,1.05.22,2,.27,2.93.06,1.16-1,1-1.61,1.15S20.74,25.82,20.62,25.46Zm.3,4.7c-.07-.86-.06-1.73-.17-2.6-.13-1.14,1-.8,1.61-1s.64.35.68.75a15.41,15.41,0,0,0,.2,2.87c-.17.83-1.1.78-1.71,1C20.74,31.34,21,30.57,20.92,30.16Zm.52,5.39c0-.6,0-1.18-.11-1.75-.35-2.19-.36-2.19,1.94-2.73a13.67,13.67,0,0,0,.09,1.52C23.71,34.8,23.72,34.79,21.44,35.55Zm2.11-6.28a8.63,8.63,0,0,0-.18-2.48c-.16-.44.11-.67.49-.79s.85-.2,1.25-.37c.81-.36,1.13-.19,1.1.76a9.35,9.35,0,0,0,.21,1.78,2.23,2.23,0,0,1-2.45,2C23.53,30,23.58,29.62,23.55,29.27ZM26,33.84c-2,.73-2,.73-2.19-1.46a4.7,4.7,0,0,1,0-.55c.11-.32-.27-.89.3-1.1.74-.27,1.52-.43,2.28-.64,0,0,.08,0,.1.06.44,1,.05,2,.37,3.05C27,33.66,26.35,33.71,26,33.84Zm.92-5.05c-.08-.87-.17-1.73-.28-2.89-.11-.49.24-.89,1-1a2.86,2.86,0,0,0,.91-.25c.87-.38,1.38-.28,1.23.83a1.55,1.55,0,0,0,0,.48c.47,2.81.54,2.2-2.25,3.15C27.18,29.26,27,29.26,26.91,28.79ZM30.27,32c0,.69-.55.68-1,.81-2,.62-2.14,1-2.15-1.87.17-.35-.41-.95.12-1.2A18.78,18.78,0,0,1,29.74,29a.25.25,0,0,1,.2,0A7.83,7.83,0,0,1,30.27,32Zm.53.14a17.34,17.34,0,0,0-.25-3,.49.49,0,0,1,.42-.7A12.07,12.07,0,0,0,32.54,28c.41-.17.61-.12.61.35a4,4,0,0,0,0,.6C33.61,31.94,33.75,31.4,30.8,32.18Z" fill="#ae71df"/><path d="M123.66,17.12q-4.26-3.66-8.42-7.45a2,2,0,0,0-1.58-.59q-4.68.15-9.34.25a1.59,1.59,0,0,0-1.52.77c-1.39,2.6-2.76,5.21-4.13,7.82-.12.23-.32.52.1.69s.45-.17.5-.36c.27-1,1-1.11,1.86-1a12.1,12.1,0,0,1,1.22.31c-.12.9-.95,1.52-.8,2.48a11.37,11.37,0,0,0,1.18-2,.82.82,0,0,1,1.06-.52,8.31,8.31,0,0,0,2.38.2c.54,0,.7.1.47.69-.84,2.07-.91,2.14-3.17,2.17a1,1,0,0,0-.84.21c1.49.73,3.54,0,4.4,1.91h-2.09c-.26,0-.59-.24-.74.13a.75.75,0,0,0,.29.95,2.64,2.64,0,0,1,1,1c-.25.36-1-.15-1,.54a1.44,1.44,0,0,0,.62,1.35,14.21,14.21,0,0,1,2,1.68,1.84,1.84,0,0,0,1.41.68c3.13.2,6.28.38,9.4.74a1.53,1.53,0,0,0,1.79-1.12c1.47-3.18,2.89-6.39,4.37-9.56A1.45,1.45,0,0,0,123.66,17.12Zm-3.54-2.21c1.37.89,1.5,1.34.7,2.74-.31.54-.6,1.09-.9,1.65-2.34-1.76-2.33-1.79-.73-4.16C119.46,14.73,119.67,14.62,120.12,14.91Zm-6.61,4.35c-.36-.38.17-.7.28-1.06a1.88,1.88,0,0,1,.22-.42c1-2,1.3-2.05,2.81-.28.2.22.38.39.19.71-.45.8-.89,1.61-1.33,2.41-.08.15-.2.23-.46.19A8,8,0,0,1,113.51,19.26Zm1.66,2.28c-.54,1-1.08,1.95-1.63,2.91-.17.29-.33,0-.46-.07-.29-.2-.55-.45-.84-.65-.76-.54-1.06-1.15-.38-2,.13-.15.16-.37.27-.52.37-.5.5-1.57,1-1.45.69.15,1.24.92,1.85,1.43C115.06,21.29,115.09,21.42,115.17,21.54Zm-1-5.05c-.14.28-.28.56-.43.84-.84,1.61-.85,1.58-2.3.37-.45-.37-.61-.64-.28-1.16s.72-1.33,1.08-2c.09-.16.14-.38.4-.37C113.47,14.13,114.54,15.75,114.17,16.49Zm-4.15.67c-.56.8-1.39-.11-2.26.13.54-1.07.94-2,1.47-2.91s1.52-.23,2.56-.54A30.45,30.45,0,0,1,110,17.16Zm.06,1.54c.25-.29.22-1.07.76-.82a3.65,3.65,0,0,1,1.76,1.57c-.52.94-1,1.89-1.56,2.81-.18.29-.39.07-.59-.08-1.59-1.14-1.6-1.14-.71-2.86A3.08,3.08,0,0,1,110.08,18.7ZM112.5,25c-1.75.57-2.68-.49-3.69-1.67C110.62,22.83,111.53,23.91,112.5,25Zm-.85,1.79c-1.55,0-3.16.41-4.25-1.35C109,25.36,110.59,25.1,111.65,26.83Zm-.19-1.11c1.82-.14,1.82-.14,3.1.92C113.07,27.13,112.5,27,111.46,25.72Zm3.16-2.2c.29-.55.62-1.09.93-1.64,2.73,2,2.15,1.36.73,4.09-.27.51-.42.62-.94.25C113.76,25.13,113.74,25.16,114.62,23.52Zm1.8-3.32a4.72,4.72,0,0,1,.49-.81c.31-.35.25-1.25.86-1a3.55,3.55,0,0,1,1.71,1.42c0,.06,0,.16,0,.3-.5.88-1,1.81-1.56,2.73a.4.4,0,0,1-.3.08A1.9,1.9,0,0,1,116.42,20.2Zm1-7.64c1.92,1.71,2,2.11.38,4.27-.28.38-.47.49-.8.12l-.08-.09c-1.88-1.55-1.87-1.69.13-4.57C117.14,12.38,117.26,12.46,117.38,12.56ZM116,11.3c.45.34.65.61.31,1.16s-.73,1.4-1.11,2.1c-.1.2-.17.46-.38.48-1,0-2-1.59-1.64-2.35l.42-.85C114.49,10.08,114.48,10.09,116,11.3Zm-2-1.54c-.61,1.18-1.12,2.2-1.68,3.2a2.27,2.27,0,0,1-2.26.51c-.37-.19-.16-.4-.08-.57a22,22,0,0,1,1.37-2.64C112,9.31,113,10,114,9.76Zm-6.38.08c.8,0,1.6,0,2.39,0,1-.08.88.32.54.94s-.66,1.19-.93,1.81-.66,1.1-1.23.88c-1,0-1.7-.34-2.48-.27-.5.05-.48-.23-.29-.6.4-.73.78-1.48,1.13-2.24A.83.83,0,0,1,107.59,9.84Zm-5.28,2.49c.3-.6.64-1.18.92-1.79.21-.46.55-.5,1-.5.6,0,1.19,0,1.79,0,.06,0,.12.06.28.14-.44.88-.85,1.76-1.33,2.61-.26.47-2.52.51-2.74.08C102.13,12.74,102.23,12.5,102.31,12.33Zm.68,4.22c-.25.51-.67.5-1.11.43s-1.09-.2-1.63-.3c.74-2.94,1.46-3.45,4.15-2.87C103.92,14.73,103.44,15.63,103,16.55Zm3.15.7c-3,0-2.88.05-1.68-2.57.57-1.26,1.49-1.06,2.44-1a18.8,18.8,0,0,1,1.92.34c-.49,1-1,1.84-1.36,2.74C107.17,17.44,106.62,17.24,106.14,17.25Zm.09,3.35a7.79,7.79,0,0,1,1.12-2.47c.48-.74,1.28-.34,2-.25.06,0,.12.19.13.29a3.06,3.06,0,0,1-2.25,2.43Zm.51.82a2.81,2.81,0,0,1,3.07,1.14C108.24,23.07,107.8,22.91,106.74,21.42Zm-2.16,1.66c2,.11,4-.06,5.12,2C107.81,25,105.77,25.19,104.58,23.08Zm.23,2.45a2.31,2.31,0,0,1,2.8,1A2.58,2.58,0,0,1,104.81,25.53Zm2.07,1.64a2.7,2.7,0,0,1,3,1.27C108.46,28.87,107.77,28,106.88,27.17Zm2.69.16c1.55.09,3.14-.53,4.14,1.46C112.19,28.67,110.7,28.84,109.57,27.33Zm3.9.18c1.74-.45,1.9-.39,3.77,1.51C115.68,29,114.28,29,113.47,27.51ZM120,26.15c-.36.71-.77,1.53-1.19,2.33-.17.3-.46.13-.63,0-.58-.4-1.14-.83-1.7-1.27-.31-.24-.08-.51,0-.74a9.73,9.73,0,0,1,.65-1.13c.31-.42.36-1.34.9-1.22.83.18,1.37,1,1.93,1.66C120,25.85,120,26,120,26.15Zm.48-1.17c0,.06-.14.15-.17.13a7.58,7.58,0,0,1-1.69-1.24.65.65,0,0,1-.12-.95c.25-.4.43-.84.66-1.26.82-1.53,1.68-1.54,2.63,0a1.66,1.66,0,0,1,.12.31C121.43,23,121,24,120.48,25Zm1.84-3.92c0,.06-.16.15-.18.14l-1.67-1.28c-.33-.26-.08-.51,0-.73.28-.53.57-1.05.89-1.55.22-.33.26-1.08.75-.87a4,4,0,0,1,1.54,1.5Z" fill="#af71df"/><path d="M66.87,8.13q-2.78-3-5.5-6a.83.83,0,0,0-.92-.29c-1.08.24-2.19.35-3.28.53-4.42.73-8.84,1.44-13.26,2.19-.57.1-.88.33-.76,1.14.37,2.52.61,5.05.78,7.58.13,2.08.28,4.07,1.75,5.77A32.55,32.55,0,0,1,48.43,23a1.53,1.53,0,0,0,1.71.76c.94-.15,1.88-.33,2.81-.52,2.74-.57,2.75-.57,2.73-3.39,0-.94-.07-1.78,1.29-1.67.23,0,.74,0,.82-.5-2.25,0-2.25,0-2.32-.58-.23-2.2-.13-2.3,2.64-2.81,1.4-.25.28,1.13,1.11,1.46-.34-1.57.76-2,2.1-2.3-.73-.39-1.11,0-1.54,0s-.6.05-.71-.41c-.45-1.78,0-2.62,1.81-2.94.12,0,.24,0,.36,0,1.77-.33,1.77-.33,2,1.41,0,0,.11.05.18.08.65-.55-.33-1.71.7-2.06A17.81,17.81,0,0,1,66.42,9L67,8.85A.57.57,0,0,0,66.87,8.13ZM64.26,6.38c-.66.13-1.33.22-2,.39-.32.08-.54.09-.69-.22C61.35,6,60.38,5.7,60.85,5s2.25-.33,2.66.25C63.77,5.59,64.31,5.78,64.26,6.38ZM51.39,12.79c0-.87,1.42-1.72,2.89-1.41,1.06.23.31,1.56.65,2.36.25.61-1.25,1.52-2.71,1.28C50.94,14.81,52.08,13.32,51.39,12.79Zm1.42-4.07c-3.23,1-3.35.95-4.46-1.37C52.34,6.38,51.41,6.37,52.81,8.72Zm-.57-2.17c.88-.19,1.68-.37,2.49-.53a1,1,0,0,1,1.12.36c1.18,1.5,1.19,1.54-.63,2C53.21,8.77,53.21,8.77,52.24,6.55ZM48.91,9.42c-.11.38-1.69.65-2,.32a5.46,5.46,0,0,1-.47-.68c-.26-.38-.85-.92-.65-1.15s1-.36,1.38-.48S49,9.09,48.91,9.42Zm-1,.9c.57,0,1.13-.61,1.68-.05a10.15,10.15,0,0,1,.83,1.16,9.84,9.84,0,0,1-1.8.27c-.55,0-.7-.58-.93-1C47.51,10.5,47.61,10.31,47.86,10.32ZM50,9.91c3.24-.76,3.11-1.07,3.9.69C50.13,11.6,50.92,11.41,50,9.91Zm3.89-.38c-.29-.46.22-.54.46-.61a20.25,20.25,0,0,1,2.31-.51c.85-.12.92.7,1.29,1.15,0,.42-.31.42-.56.47a10.57,10.57,0,0,0-2,.39C54.48,10.8,54.26,10.05,53.92,9.53Zm2.2-3.73c1.06-.19,2.09-.37,3.12-.57.32-.06.58-.15.85.17s1,.93,1,1.44-.91.18-1.33.5a.89.89,0,0,1-.34.07C57.23,7.85,57.23,7.85,56.12,5.8Zm6-2.28c.29.53.2.6-.31.78-1.52.54-2.42-.17-3.18-1.56C59.94,2.56,61.22,1.91,62.09,3.52ZM59.32,4.6c-4.3,1.12-3.53.94-4.78-1.18C56.36,3.26,58.35,2,59.32,4.6ZM51.15,4a14.51,14.51,0,0,1,2.32-.42c1.07,0,1,1.17,1.71,1.73a5.65,5.65,0,0,1-2,.53c-1.35.35-1.89,0-2.4-1.31C50.66,4.14,50.83,4.08,51.15,4Zm-3.33.52c.56,0,1-.42,1.49-.25A2.51,2.51,0,0,1,51.09,5.9c0,.33-.25.41-.45.46-.81.18-1.63.34-2.44.47-.29,0-1.61-1.42-1.54-1.78C46.79,4.4,47.37,4.54,47.82,4.54ZM44.25,5c1-.1,2-.38,2.42.89a5,5,0,0,0,.55.91c-1.56.76-2.68.31-3.29-1.24C43.76,5.18,44,5.07,44.25,5Zm-.13,2c.91,3.28.73,6.69,1.05,10C44.32,13.82,44.74,10.38,44.12,7.06Zm2.93,12.48a3.42,3.42,0,0,1-1.34-2.92c-.25-2.56-.41-5.14-.62-7.89a3.62,3.62,0,0,1,1.37,3C46.53,14.32,47.17,16.85,47.05,19.54Zm.48,0c-.16-2.72-.39-5.43-.6-8.15l.31-.06c1,3.18.61,6.56,1.37,9.89A1.57,1.57,0,0,1,47.53,19.58Zm1-4.25c-.11-.78-.2-1.57-.28-2.36,0-.34.17-.44.47-.56,1.8-.76,2.38-.35,2.4,1.7a1.85,1.85,0,0,1-2.23,1.65A.47.47,0,0,1,48.56,15.33Zm.22,1.4c0-.63.6-.6,1.06-.68,1.5-.28,1.5-.28,1.55,1.52-.13.38.35,1,0,1.18a8.33,8.33,0,0,1-2,.58c-.07,0-.21,0-.22,0A22.13,22.13,0,0,1,48.78,16.73ZM51.2,22.8c-1.77.35-2,.2-2-2a1.91,1.91,0,0,1,2.15-1.48c.3.08.22.27.24.44.08.71.14,1.42.21,2.13C51.88,22.4,51.82,22.68,51.2,22.8Zm.67-4.74c-.34-2.41-.33-2.39,2-2.94.85-.19,1.24,0,1.1.93a8.47,8.47,0,0,0,0,1.42h.06a1.29,1.29,0,0,1,0,.34,11.9,11.9,0,0,1-3,.77C51.86,18.46,51.9,18.25,51.87,18.06ZM55,21.92a9.61,9.61,0,0,1-2.42.57.27.27,0,0,1-.22-.07c-.52-.89-.22-1.86-.28-2.8,0-.52.36-.65.79-.69l.35-.07c2-.51,2-.51,2,1.54C55.14,20.87,55.51,21.67,55,21.92Zm3.37-8.29a16,16,0,0,1-2.75.65c-.2,0-.2-.3-.27-.47A5.88,5.88,0,0,1,55.22,12c0-.69.18-1.06.92-1a3.48,3.48,0,0,0,.69-.17c1.73-.37,1.73-.37,1.76,1.52C58.34,12.71,59.09,13.38,58.41,13.63Zm3.8-4.54a11.94,11.94,0,0,0-2,.38A1.64,1.64,0,0,1,57.79,8.2a22.63,22.63,0,0,0,3-.64c1.07-.36,1.32.41,1.73,1C62.77,8.9,62.57,9,62.21,9.09Zm.09-1.8c1.49-.47,3-1,3.77.93C63.39,9.06,63.39,9.06,62.3,7.29Z" fill="#af71df"/><path d="M67,8.86h0Z" fill="#af71df"/><path d="M60.12,76.47a10.31,10.31,0,0,1-.6-5.86C59.89,72.55,59.75,74.55,60.12,76.47Z" fill="#6d6c76"/><path d="M57.33,67.65a1.56,1.56,0,0,1,1.45,1A2.35,2.35,0,0,1,57.33,67.65Z" fill="#76737d"/><path d="M51.9,83.73,51.84,82A1.44,1.44,0,0,1,51.9,83.73Z" fill="#fbf3f5"/><path d="M96.18.71A1.24,1.24,0,0,0,94.71,0a49.07,49.07,0,0,1-5.84,1.07c-2,.15-3.22.83-3.3,2.94,0,.52-.54.94-.13,1.58a20.26,20.26,0,0,1,1.54,3,1.46,1.46,0,0,0,1.75,1c2.2-.29,4.42-.5,6.63-.75,1.19,0,1.22,0,1.37-.49C97.55,5.74,97.81,3.17,96.18.71Zm-.47.56c.33.72.91,1.36.23,2.19A1.55,1.55,0,0,1,95.71,1.27ZM94.38.72c.49-.06.72,0,.54.63-.37,1.4-1.54.91-2.4,1.26A1.89,1.89,0,0,1,94.38.72Zm-5.87,4c.16-2.11,2-1,3.13-1.74C91.07,4.67,90.67,4.87,88.51,4.71Zm2.21,1.74a5.81,5.81,0,0,1-1.16.23.79.79,0,0,1-.78-1c.14-.56.8-.42,1-.44a5.26,5.26,0,0,1,1,0,.9.9,0,0,1,.62.8C91.46,6.62,91,6.39,90.72,6.45Zm2.51-1.66a.77.77,0,0,1,1,.67c.12.72-.48.42-.8.52-.85.27-1.67.47-1.91-.87Zm.53-.71a3.62,3.62,0,0,1-2,.11A2.13,2.13,0,0,1,94,2.85c.24.06.38.17.31.39S94.17,3.92,93.76,4.08Zm-3.7-2.54a6.91,6.91,0,0,1,2.32-.28,1.68,1.68,0,0,1-2.12,1.58c-.31,0-.84.24-.88-.29A.9.9,0,0,1,90.06,1.54Zm-3.37.73c.61-.54,1.44-.29,2.15-.53.15-.05.22.18.18.38s-.17.82-.61.91a4.78,4.78,0,0,1-1.83.14C86.26,3.1,86.42,2.51,86.69,2.27ZM86,4.88a1,1,0,0,1,.62-1.16,3.22,3.22,0,0,1,1.62-.1c-.14.86-.35,1.58-1.39,1.4C86.55,5,86.09,5.55,86,4.88Zm.4.91c.71,0,1.64-.91,2.09.5.12.37.1.52-.34.66C87.08,7.27,86.48,7,86.39,5.79Zm2.32,3.3c-1,.09-1.18-.67-1.27-1.27s.55-.35.89-.41c.93-.14,1,.68,1.13,1.2C89.64,9.28,89,9,88.71,9.09Zm.76-1.81c3.17-.83,2.37-.66,3.32,1.26C90,8.8,90,8.8,89.47,7.28Zm4.92,1.09A1.4,1.4,0,0,1,92.66,7c-.1-.84.82-.34,1-.49,1.47-.41,1.28.77,1.52,1.31S94.76,8.3,94.39,8.37ZM96.15,8c-.41-.75-.86-1.26-.84-2a0,0,0,0,1,0,0h0V6a2.11,2.11,0,0,1-.24-2.72c1.11.85.28,1.81.24,2.72h0c.47,0,.44-.47.7-.74C96.85,6.09,96.41,6.92,96.15,8Zm.51-2.85a1.15,1.15,0,0,1,0-1.67A1.19,1.19,0,0,1,96.66,5.11Z" fill="#af71df"/><path d="M41.5,102.47a5,5,0,0,0-4.9,5,5.32,5.32,0,0,0,5.3,5.3,4.74,4.74,0,0,0,4.92-4.84A5.4,5.4,0,0,0,41.5,102.47Zm.39,9.84a4.6,4.6,0,0,1-4.79-4.73A4.32,4.32,0,0,1,41.55,103a4.89,4.89,0,0,1,4.8,4.93A4.29,4.29,0,0,1,41.89,112.31Z" fill="#af72df"/><path d="M36.67,36.73c-2.37.2-3.75,2-3.54,3.6-.29,1.81,1.42,3.58,3.67,3.74a3.68,3.68,0,1,0-.13-7.34Zm.21,6.8A3.14,3.14,0,1,1,37,37.27a3.33,3.33,0,0,1,3.08,3.21A3.24,3.24,0,0,1,36.88,43.53Z" fill="#b073e0"/><path d="M20.56,75.09a3.43,3.43,0,0,0-3.24,3.22,3.72,3.72,0,0,0,3.43,3.74A3.41,3.41,0,0,0,24,78.76,3.62,3.62,0,0,0,20.56,75.09Zm.18,6.48a3.19,3.19,0,0,1-2.95-3,3,3,0,0,1,2.83-3,3.09,3.09,0,0,1,2.92,3.18A2.84,2.84,0,0,1,20.74,81.57Z" fill="#af72e0"/><path d="M107.43,107.48a2.52,2.52,0,0,0-2.76,2.46c0,1.48,1,2.37,2.64,2.37a2.44,2.44,0,1,0,.12-4.83Zm-.14,4.49a2.13,2.13,0,0,1-2.14-2.11c0-1.18.87-1.9,2.24-1.9a2.21,2.21,0,0,1,2.29,1.94A2.5,2.5,0,0,1,107.29,112Z" fill="#b073e0"/><path d="M28.61,90.93a2.52,2.52,0,0,0-2.53,2.47,1.73,1.73,0,0,0,2,1.86,2.41,2.41,0,0,0,2.47-2.36A1.86,1.86,0,0,0,28.61,90.93ZM28,94.82a1.38,1.38,0,0,1-1.51-1.36c-.12-1,1-2,2.34-2A1.31,1.31,0,0,1,30,92.91,1.94,1.94,0,0,1,28,94.82Z" fill="#b073e0"/><path d="M132.66,14.14a2.21,2.21,0,0,0-1.94,2.31,2.06,2.06,0,0,0,2.08,2.25c1.19,0,1.89-.82,1.88-2.22A2.25,2.25,0,0,0,132.66,14.14Zm.05,4.09a1.73,1.73,0,0,1-1.56-1.77,1.89,1.89,0,0,1,1.54-1.84c.88,0,1.53.78,1.53,1.89S133.65,18.25,132.71,18.23Z" fill="#ae71df"/><path d="M124.49,78.21a3.94,3.94,0,0,0-3.76,4.13,4.2,4.2,0,0,0,4.09,4.51,3.79,3.79,0,0,0,3.87-4.07A4.34,4.34,0,0,0,124.49,78.21Zm.39,8.16a3.82,3.82,0,0,1-3.65-4,3.42,3.42,0,0,1,3.32-3.63,3.77,3.77,0,0,1,3.64,4A3.41,3.41,0,0,1,124.88,86.37Z" fill="#af71df"/><path d="M136.15,86.36a2.46,2.46,0,0,0-2.59,2.38,2.88,2.88,0,0,0,2.71,2.67A2.47,2.47,0,0,0,138.75,89,2.58,2.58,0,0,0,136.15,86.36Zm0,4.57A2.38,2.38,0,0,1,134,88.78a2.16,2.16,0,0,1,4.3.27A1.89,1.89,0,0,1,136.14,90.93Z" fill="#af71df"/><path d="M135.63,67.33a1.55,1.55,0,0,0-1.56-1.6,1.68,1.68,0,0,0-1.8,1.78,1.56,1.56,0,0,0,1.82,1.58A1.62,1.62,0,0,0,135.63,67.33Zm-2.83-.15c-.09-.76.65-.88,1.16-1,.87.06,1.23.48,1.19,1.26s-.32,1.16-1.08,1.14S132.87,67.82,132.8,67.18Z" fill="#af71df"/><path d="M3.49,30.69a1.51,1.51,0,0,0-1.58,1.68,1.52,1.52,0,0,0,1.68,1.68,1.68,1.68,0,1,0-.1-3.36Zm0,2.88c-.81,0-1.11-.48-1.17-1.18s.4-1.23,1.19-1.21a1.2,1.2,0,1,1,0,2.39Z" fill="#b074e0"/><path d="M19.61,106.56A1.82,1.82,0,0,0,18,108.21a1.48,1.48,0,0,0,1.55,1.69,1.69,1.69,0,0,0,1.79-1.54A2,2,0,0,0,19.61,106.56Zm0,2.88a1.05,1.05,0,0,1-1.13-1.2,1.08,1.08,0,0,1,1.08-1.17,1.19,1.19,0,0,1,1.29,1.25A1.06,1.06,0,0,1,19.63,109.44Z" fill="#b175e0"/><path d="M101.55,90.9A6.53,6.53,0,0,1,100,93.82a8.07,8.07,0,0,1-.92.93c-.31.31-.63.72-1.1.32s-.93-.88-.56-1.53c.71-1.24,1.47-2.45,2.24-3.65a.74.74,0,0,1,1-.31A2.18,2.18,0,0,1,101.55,90.9Z" fill="#b391ca"/><path d="M91.49,104.33c-.4,0-.65-.14-.7-.43-.11-.69-1-1.31-.23-2.09a12.15,12.15,0,0,0,2.58-3.37c.16-.36.5-.35.82-.23a2.07,2.07,0,0,1,.85,2.71,16.44,16.44,0,0,1-3,3.2A2.45,2.45,0,0,1,91.49,104.33Z" fill="#b391ca"/><path d="M106.35,79.26a12.05,12.05,0,0,1-1.54,4.85c-.15.3-.4.64-.85.46s-.7-.36-.73-.85a4,4,0,0,1,.26-1.64,13.81,13.81,0,0,0,.93-3.44c0-.61,0-1.17.85-1.14s1.07.45,1.08,1.16Z" fill="#b391ca"/><path d="M90.74,49c-.37.5-.46,1.08-1.2,1.45a1.39,1.39,0,0,1-2.14-.57c-.53-.83-.26-1.62.71-2.29.57-.61,1.16-.19,1.75-.06a.39.39,0,0,0,.14.17A10.38,10.38,0,0,1,90.74,49Z" fill="#fdfcfd"/><path d="M89.86,47.52c-.58.07-1.17-.18-1.75.06C88.66,46.51,89.26,47.06,89.86,47.52Z" fill="#504d5c"/><path d="M90.74,49a1.91,1.91,0,0,1-.74-1.3C90.67,47.88,90.64,48.47,90.74,49Z" fill="#504f5c"/><path d="M90.11,79.45c.22,0,.35.12.37.29s0,.31-.22.34a.33.33,0,0,1-.39-.32C89.87,79.65,90,79.54,90.11,79.45Z" fill="#7b6674"/><path d="M38.14,64.92c-2-2.2-1.34-4.56-.77-6.89a27.68,27.68,0,0,1,1.8-4.15c.41-1,1-1.25,1.88-.69.2.12.49.07.63.35C39.09,56.83,38.19,60.69,38.14,64.92Z" fill="#b391ca"/><path d="M67,32.35a3.27,3.27,0,0,1,3.5-.23,2.35,2.35,0,0,1,.85,3.43,1.16,1.16,0,0,1-1.62.06C68.75,34.82,68,33.74,67,33A.41.41,0,0,1,67,32.35Z" fill="#fbf9fc"/><path d="M67,32.35c1.07,1.11,2.1,2.25,3.22,3.3.18.17.74-.06,1.13-.1a3,3,0,0,1-3.56,1,2.66,2.66,0,0,1-1.55-3.13A1.18,1.18,0,0,1,67,32.35Z" fill="#a86ed7"/><path d="M67,31.25a2.31,2.31,0,0,1,4.3.54C70.07,30.45,68.65,30.66,67,31.25Z" fill="#af8ec6"/><path d="M70.36,28.73a4.62,4.62,0,0,0-3.75.52c.46-1.3,2-1.78,3.74-1.23C70.38,28.26,70.5,28.49,70.36,28.73Z" fill="#a16bce"/><path d="M70.36,28.73c-.11-.23-.5-.46,0-.71a3.75,3.75,0,0,1,2.23,2c.14.26.42.59,0,.8s-.45-.16-.59-.42A3.29,3.29,0,0,0,70.36,28.73Z" fill="#f4f0f8"/><path d="M57.39,31.93A1.81,1.81,0,0,1,59.28,30a2.41,2.41,0,0,1,2.42,2.28,2,2,0,0,1-2,1.92A2.24,2.24,0,0,1,57.39,31.93Z" fill="#b391ca"/><path d="M92.91,29.74a1.71,1.71,0,0,0,.26,1.19c-.08.29.09.65-.38,1-.29-3.82-2.52-5.83-6.1-6-2.94-.1-5.09,1.48-6,4.64a4,4,0,0,1,1.77-3.71,7.06,7.06,0,0,1,9.08.68c.12.11.23.23.34.34C92.24,28.52,92.57,29.13,92.91,29.74Z" fill="#b08fc7"/><path d="M86.15,31.14a1.73,1.73,0,0,1,2.31,1.16,2.11,2.11,0,0,1-1,2.61A2,2,0,0,1,84.74,34c.92-.43,1.11-1.45,1.74-2.12C86.75,31.62,86.26,31.4,86.15,31.14Z" fill="#b392c9"/><path d="M82.92,33.54A3.21,3.21,0,0,1,85,29.75c2.15-.66,4.15-.07,4.92,1.45.14.29.31.67,0,.87s-.59-.17-.8-.44a3.21,3.21,0,0,0-3.68-1.21,2.74,2.74,0,0,0-1.92,1.74C83.37,32.57,83.45,33.09,82.92,33.54Z" fill="#fbfbfc"/><path d="M84.59,28.79c1.63-1.47,4.39-.89,6,1.1a3.51,3.51,0,0,1-.76,5.31c1.44-1.76,1.74-3.59.21-5.32A4.38,4.38,0,0,0,84.59,28.79Z" fill="#b190c8"/><path d="M86.15,31.14c.33.1.79,0,.92.41s-.23.57-.48.76a2.57,2.57,0,0,0-.87,1.39c-.18.61-.52.62-1,.34C84.13,32.42,84.52,31.61,86.15,31.14Z" fill="#fbfafc"/><path d="M81.51,32a4.13,4.13,0,0,1,2.07-4.33,4.77,4.77,0,0,1,4.7-.4C84.64,26.89,82.11,28,81.51,32Z" fill="#b08fc7"/><path d="M83.5,34.93a.47.47,0,0,1-.6-.22,5.55,5.55,0,0,1-.28-.63C83.26,34.13,83.24,34.61,83.5,34.93Z" fill="#ab8cc2"/><path d="M91.22,29a1.06,1.06,0,0,1,.71,1.14,1.33,1.33,0,0,1-.7-1.16Z" fill="#a486ba"/><path d="M91.23,29a1.83,1.83,0,0,1-.3-.18c-.16-.16-.41-.28-.35-.56,0-.08.2-.18.26-.16a.73.73,0,0,1,.38.56,2.16,2.16,0,0,1,0,.36Z" fill="#a688bc"/><path d="M87.35,36.13c.32-.5.63-.41,1-.28C88.11,36.41,87.77,36.16,87.35,36.13Z" fill="#ad8dc4"/><path d="M90.17,28c-.4.08-.73.12-.75-.14,0-.42.25-.25.45-.12A2.55,2.55,0,0,1,90.17,28Z" fill="#a184b6"/><path d="M87.77,33.91c-.07.31-.15.62-.55.61A.48.48,0,0,1,86.7,34a.58.58,0,0,1,.54-.64C87.58,33.34,87.68,33.63,87.77,33.91Z" fill="#f9f7fa"/></svg>