<svg xmlns="http://www.w3.org/2000/svg" viewBox="0 0 135.53 135.19"><title>Artboard 13</title><path d="M.14,117.39c0,.23,0,.47,0,.7-.21-.09-.47-.17-.44-.46S0,117.4.14,117.39Z" fill="#53505f"/><polygon points="73.04 97.45 73.04 98.12 72.24 98 72.41 97.71 72.84 97.73 73.04 97.45" fill="#ae71df"/><path d="M107.9,58.44c-.49-.17-.52-.38-.56-.8a5.5,5.5,0,0,0-2.85-4.55c-1.51-.87-2-.57-2.14,1.18h0c0,.56,0,1.12,0,1.69h0a6.66,6.66,0,0,1,0,2,3.28,3.28,0,0,1-.23-2c0-.57,0-1.13,0-1.7h0c-.08-1.23-.2-2.45-.24-3.68,0-.64-.21-.92-.89-.89-1.11,0-2.23,0-3.34,0-.69,0-.94.29-1,.87,0,1-.06,2-.08,3a9.78,9.78,0,0,1,0,4.24,5.36,5.36,0,0,1-.2-2.32h0c0-.48,0-1,0-1.43s.05-1.1-.51-1.36a1.58,1.58,0,0,0-1.56.29,6,6,0,0,0-2.94,4.39c-.1.77-1.25,1.25-.57,2.2.88.41,1.91.61,2.22,1.74a4.15,4.15,0,0,1,.29,1.44c.43,1.21,1.52.87,2.31.82a56.93,56.93,0,0,1,8.26.05c.63.06,1.37.3,1.87-.41.12-1.47.6-2.67,2.18-3.13C108.57,59.45,108.6,58.69,107.9,58.44Z" fill="#ae71df"/><path d="M29.23,48.5c-.62.09-.94-.28-1.26-.72A7.85,7.85,0,0,1,27.86,39c2.37-3.89,7.27-6.38,11.36-5.76,5.64.84,9.64,4.24,10.87,9.23a2.93,2.93,0,0,1,.18.69c0,.82.35.77,1,.51,4.1-1.72,7.65-.72,10.74,2.29a5.71,5.71,0,0,1,1.65,2.47c.25.88.66.94,1.47.77,2.47-.5,4.84-.34,6.89,1.39a5,5,0,0,1,1.63,2.18c.28.87.7.88,1.4.55a4.85,4.85,0,0,1,2.09-.48,3.13,3.13,0,0,1,3,2.34,2.29,2.29,0,0,1-.87,2.65,2.57,2.57,0,0,1-3.52-.17c-1.09-1.21-1.67-1.29-2.87-.05s-3.22,1.14-4.76-.11A2.14,2.14,0,0,1,68,54a9,9,0,0,1,.91-.6c-.83-.42-1-.41-1.92.39-.51.46-.75.61-1-.18a2.07,2.07,0,0,0-1.73-1.5,4,4,0,0,1,1.39,3.52,5.37,5.37,0,0,1-2.45,3.56,8.49,8.49,0,0,1-7,1.32,3.64,3.64,0,0,1-2.77-3.71c0-1.66-.23-2.24-1.39-3.13a7.75,7.75,0,0,0,0,2c-.07,4-4.6,7-9.08,4.46-3.83-2.18-5.2-7.47-2.79-10.89a10.69,10.69,0,0,1,.69-.82c.46-.52,1.34-.78,1.19-1.67-.2-1.08-.21-2.22-1.14-3.07-1.52-1.39-4.34-.7-5.25.35a1,1,0,0,0-.25,1c.08.27.16.54.23.81.53,2,.53,2-1.48,2a4.62,4.62,0,0,1-1.77-.22c.11.28.54,0,.63.3-.29.59-.81.43-1.28.41a2,2,0,0,0-1.32-.06C30.07,48.33,29.7,48.69,29.23,48.5Z" fill="#b391ca"/><path d="M119.64,88.9l.73.2a8.83,8.83,0,0,1,.48,4.1c-.18,3.06,0,6.13-.35,9.18a24.14,24.14,0,0,0-.24,4.65,2,2,0,0,1-1.55,2.2c-4.2,1.51-8.38,3.07-12.56,4.65-1.42.54-2.84,1.05-4.25,1.61a3.66,3.66,0,0,1-3.33-.17c0-.68.5-.57.87-.63.53-.1,1.13,0,1.49-.55a29.79,29.79,0,0,0,.4-6.19c0-1.63,0-3.27,0-4.91-.12-1.87.39-3.71.25-5.57a11.11,11.11,0,0,0-.2-2.82,1.3,1.3,0,0,0-.9-1.12c-1.18-.39-2.43-.21-3.62-.51-.49-.12-1-.13-1.24-.74a.88.88,0,0,1,.83-.51c4.09.08,8.14.15,12.18-.89A61.36,61.36,0,0,1,119.64,88.9Z" fill="#d1a26b"/><path d="M66.4,106.53a12.87,12.87,0,0,0-3.82-.18c-1.79.54-3.61,1-5.42,1.48-3.81,1-7.63,2-11.44,3.08-2.17.59-2.37-.1-2.26-1.63,0-.16,0-.32,0-.48-.08-11.22.12-22.44-.05-33.67a3.9,3.9,0,0,1,3.73-4.08c1.31-.15,2.62-.27,3.94-.34,3.07-.18,6.13-.38,9.2-.52s5.92-.73,8.92-.56c1.39.08,1.79.47,1.88,1.86.11,1.56-.28,3.09-.23,4.65a12.7,12.7,0,0,1-.18,3.2,11.76,11.76,0,0,0-.24,1.77,15.9,15.9,0,0,0,.17,5.33,2.85,2.85,0,0,0,2.54.23c0-2.7-.07-5.39,0-8.08,0,.1.17-1.17.22-1.07a19.34,19.34,0,0,0,0-2.89c0-.38-.17-1.31-.19-1.71,0,.21.07.41.09.61,0-.76.1-1.52.11-2.25,0,0,0-.07,0-.11l0-.1a1.68,1.68,0,0,0-.26.78c0-.46-.1-.92-.19-1.39a2.55,2.55,0,0,0-1.54-2.24,13.89,13.89,0,0,0-3.09.12c-3.23.06-6.44.35-9.66.54-3.74.23-7.47.61-11.21.59a6,6,0,0,0-6.34,6.25,5.26,5.26,0,0,1-.38,2.22,6.34,6.34,0,0,0-.13,1.79c0,2.91.13,5.83.18,8.74.12,6.54.1,13.09.32,19.64a28.53,28.53,0,0,0,0,3.46,2.19,2.19,0,0,0,1.63.61c4.8.38,9.57,1,14.36,1.37,2.29-.69,4.57-1.43,6.85-2.14,3.54-1.1,7-2.37,10.61-3.34.24-.06.6-.07.5-.5a1.32,1.32,0,0,0-1-.36C71.49,107,69,106.73,66.4,106.53Z" fill="#b391ca"/><path d="M23.21,125.28c-1.15-.55-2.52-.21-3.62-.93-2.67-.91-3.71-2.85-3.47-5.57.25-3,1.07-5.71,3.81-7.47,1.8-1.17,3.74-.88,5.67-.65,2.69.33,5.39.57,8.08.88,3.48.39,7,.74,10.44,1.16,3.24.39,6.5.68,9.74,1a5.07,5.07,0,0,0,1.64-.31,4.13,4.13,0,0,1,1.71.32c.55.54,1.31.37,1.92.41,2.35.14,4.68.43,7,.57a30.6,30.6,0,0,0,4.06.22c3.22.14,6.42.61,9.63.9,2.62.23,5.23.52,7.85.79,1.82.19,3.65.37,5.47.52a7.27,7.27,0,0,1,5.55,3.38c2,3,3,6.25,1.78,9.87-.63,1.87-2.77,4.2-5,4-1.5-.13-3-.2-4.51-.39-10-1.29-20.07-2.46-30.1-3.74a2.48,2.48,0,0,1-1.66-.57l-18.08-2.23c-.37-.21-.83,0-1.2-.19a25.79,25.79,0,0,1-5-.52,1.83,1.83,0,0,0-1.2,0l-.73-.23a2.7,2.7,0,0,0-1.41,0l-.75-.22a2.88,2.88,0,0,0-1.4,0l-.51-.2c-.62-.26-1.29.08-1.9-.2s-1.47.25-2.13-.25C24.35,125.28,23.73,125.56,23.21,125.28Z" fill="#ae71df"/><path d="M96.64,34.6c0-4.36,0-8.72,0-13.08,0-1.1.4-1.35,1.4-1.36,3.75,0,3.78-.06,3.84,3.7.05,3.48-.12,7-.08,10.43.06,4.52-.2,9-.06,13.54,0,1-.27,1.26-1.21,1.17a15.4,15.4,0,0,0-2.63,0c-1,.08-1.26-.36-1.25-1.32C96.67,43.32,96.64,39,96.64,34.6Z" fill="#ae71df"/><path d="M99.74,87.42c2.8.44,5.65,0,8.46.43a9.29,9.29,0,0,1,1.39.3c-.2.7-.86.64-1.35.75C104,89.9,99.82,91,95.59,92A1.73,1.73,0,0,0,94,93.8c-.23,2.86-.2,5.72-.43,8.58a1.6,1.6,0,0,1-.36,1.22c-1.73.4-3.45-.06-5.17-.1a6.38,6.38,0,0,1-2.69-.38,1,1,0,0,1-.33-.74,47.59,47.59,0,0,1,.06-6.09,23.49,23.49,0,0,0,.1-3.93c-.09-1.56.15-2,1.69-2.32C91,89.23,95,88.23,99.16,87.59A3.86,3.86,0,0,0,99.74,87.42Z" fill="#b391ca"/><path d="M120.66,104.9c2.8-.06,5.58.4,8.37.26a2.25,2.25,0,0,1,1.25.36c4.88,2.64,6.38,7.07,4.42,12.6-1,2.73-3.14,3.64-5.49,4.62-9.57,4-19.43,7.19-29.07,11a4.41,4.41,0,0,1-2.32.41,18.84,18.84,0,0,1,2.46-2.82,27.63,27.63,0,0,1,3-1.16c7-2.34,13.9-4.78,20.89-7,2.17-.71,4.3-1.51,6.45-2.25a6.44,6.44,0,0,0,3.77-6.15c-.22-1.51-.7-1.77-2.08-1.22-9.27,3.71-18.56,7.38-27.83,11.1a7.48,7.48,0,0,1-3.4,1,.94.94,0,0,1-.27-1.22c3.61-1.26,7.13-2.76,10.69-4.17,6.54-2.59,13-5.25,19.57-7.91a9.11,9.11,0,0,1,1.26-.37c1-.25,1.23-.73.78-1.68a4.52,4.52,0,0,0-3.07-2.66,6.22,6.22,0,0,0-4.41.36c-3,1.53-6.2,2.35-9.32,3.47-5.52,2-11,4-16.6,5.92-1,.35-1,1.17-1.33,1.92a2.12,2.12,0,0,1-2.05-1.42c1.23-.94,2.78-1.16,4.11-1.86,6.19-2.34,12.41-4.6,18.62-6.91a7,7,0,0,0,1.45-.8,31.28,31.28,0,0,1,3.74-1.47,14.16,14.16,0,0,0-2.4-.14c-.5,0-1.06.09-1.42-.43A1.14,1.14,0,0,1,120.66,104.9Z" fill="#ae71df"/><path d="M37.13,71.06a8.76,8.76,0,0,1,5-1.9c.09.36-.2.47-.41.64a7.49,7.49,0,0,0-3,4.88,2.39,2.39,0,0,0-.12.7A2.29,2.29,0,0,1,37.17,78a20.76,20.76,0,0,0-3.58,3c-3.13,2.73-6.4,5.29-9.68,7.84-5.73,4.46-11.44,9-16.9,13.75-2.28,2-4.52,4.09-5.33,7.21a12.11,12.11,0,0,0-.51,3.42c.06,1.29-.21,2.55-.2,3.82-.42.55.07,1.51-.82,1.85l0-.75a.52.52,0,0,1,0-.7,38.07,38.07,0,0,1,.7-8.91,7.1,7.1,0,0,1,2.72-4.08,11.74,11.74,0,0,0,1-.89c3.63-3.54,7.18-7.17,10.92-10.6s7.18-7.27,11-10.64a1.78,1.78,0,0,0,.81-1.15c1.62-1.65,3.23-3.33,4.93-4.9,1.75-1.18,2.82-3,4.18-4.52C36.63,71.47,36.76,71.13,37.13,71.06Z" fill="#dec3f0"/><path d="M100.31,131.56a11.55,11.55,0,0,1-2.49,2.59c-1.12.22-2.2,1-3.4.22a.34.34,0,0,0-.3.06c-1.86,1.49-3.86.36-5.73.16-5.47-.57-10.92-1.34-16.37-2.1-5.29-.74-10.61-1.28-15.87-2.24-.82-.15-1.65-.26-2.48-.39.1-.57.47-.28.76-.24,1.37.12,2.73.22,4.09.37.34,0,.62.14.7-.32l23.37,2.88c4.23.52,8.45,1.1,12.68,1.55,1.86.19,3.64-1,4.71-3.4,1.93-4.19-.28-9.59-3.5-12.07a6.78,6.78,0,0,0-3.55-1.21q-8.06-.89-16.12-1.67c-2.17-.22-4.35-.35-6.53-.53-3.54-.27-7.07-.67-10.61-.94a9.63,9.63,0,0,1-2.43-.44l-1.66-.23c-1.31.45-2.62,0-3.91-.1-3.89-.27-7.75-.81-11.63-1.19s-7.49-.78-11.23-1.2c-1.89-.21-3.79-.35-5.68-.64-2.62-.41-4.8.93-6.06,3.69a10.16,10.16,0,0,0-.84,7.22c.1.34.25.69,0,1l-.71-.23a3.5,3.5,0,0,1-.81-2.59c0-.21,0-.41,0-.61a8.64,8.64,0,0,1,.09-1.83,12.58,12.58,0,0,1,2.46-5.53,5.7,5.7,0,0,1,5.45-2.28c5.37.73,10.79,1.14,16.19,1.72a5.21,5.21,0,0,1,2.31.53l16.08,1.68a6.1,6.1,0,0,1,1.47-.18c3.49.32,7,.68,10.45,1.05,1.1.11,2.21.28,3.32.31a5.48,5.48,0,0,0,1.66.2c4.24.42,8.47.88,12.71,1.27a4.7,4.7,0,0,0,1.63.17c2.17.38,4.42.25,6.55.91.53.17,1.1.26,1.34.87l1.86,1.52a7.56,7.56,0,0,1,2.72,5,1.46,1.46,0,0,0,.21,1.2A6,6,0,0,1,100.31,131.56Z" fill="#32313f"/><path d="M32.33,76.39l-4.41,4.46a.69.69,0,0,1-.62.27,79.31,79.31,0,0,0,.71-9,45.34,45.34,0,0,0,.23-5.34c.44-.26.82.16,1.24.12.67-.08,1.53.07,1.42-1.07a.58.58,0,0,1-.18-.42c0-.4.27-.74.3-1.14a1.91,1.91,0,0,0-1.55-2.06c-.33-.08-.73,0-1-.31l.24-.72c.58-.5,1.33,0,2.15-.41A1.56,1.56,0,0,1,30,61c-.44,0-1-.06-1-.6s.53-.36.87-.42c1.22-.24,1.63-.68,1.64-1.8a2,2,0,0,0-1.69-2.11c-.38-.07-.8,0-1.12-.32a3.1,3.1,0,0,0,.25-1.85,25,25,0,0,1,.23-3.67,2.62,2.62,0,0,1,2.76-.4,3.49,3.49,0,0,1,1.55,3.71,92.06,92.06,0,0,0-.55,14.57c0,2.4-.25,4.77-.26,7.16A1.88,1.88,0,0,1,32.33,76.39Z" fill="#ae71df"/><path d="M71.42,68.44c-5.51.39-11,.71-16.54,1-2.53.14-5.07.46-7.61.39a5.61,5.61,0,0,0-5.87,5.89c0,.69.41,1.55-.46,2.07-1.33.61-1.95.42-2.37-.74,0-.31.13-.62.13-.94a7,7,0,0,1,4.65-7.19c1.12.28,2.14-.35,3.25-.32,1.34,0,2.67-.31,4-.39,4.68-.28,9.37-.49,14.05-.76,1.46-.08,2.91-.29,4.37-.44a2.66,2.66,0,0,0,1.65,0,1.2,1.2,0,0,1,1.22.64C72.11,68.14,71.79,68.31,71.42,68.44Z" fill="#dec3f0"/><path d="M15.07,117.17,15,119.08a14.23,14.23,0,0,1-4.27.07c-2.83-.27-5.67,0-8.58-.39a1.29,1.29,0,0,0,1,.19c3.44-.13,6.86.39,10.29.26a2.2,2.2,0,0,1,1.6.34,11.24,11.24,0,0,0,.53,2.64l-8.78-.8c-1.5-.13-3-.3-4.51-.38-1.94-.11-2.13-.27-2.07-2.17.53-.53-.15-1.51.7-1.92a2,2,0,0,1,1.57-.38c3.82-.11,7.63.09,11.44.24A1.57,1.57,0,0,1,15.07,117.17Z" fill="#b391ca"/><path d="M88.9,26.15c0,4.08,0,8.15,0,12.23,0,1.19-.1,2.39-.16,3.58,0,.5-.21.91-.74.91s-.75-.4-.75-.9c0-4.43-.06-8.87.13-13.3,0-.6.11-1.19.09-1.79-.1-5.31.22-10.62.3-15.93,0-.56-.05-1.47.61-1.44s.3.92.35,1.43C89.13,16,88.84,21.08,88.9,26.15Z" fill="#af71df"/><path d="M120.66,104.9v1.46a1.8,1.8,0,0,1,0,2.15c-1.44,1.23-3.29,1.52-5,2.15-4.63,1.76-9.3,3.4-14,5.09-.4.14-.71.53-1.2.45-2,.3-4-.35-6-.47a18.11,18.11,0,0,1-2.83-.36,8.22,8.22,0,0,1-1.64-.24c-4-.41-8-.86-11.9-1.43-.63-.12-1.32.09-1.91-.3a2.23,2.23,0,0,1-.53-1.76,24.52,24.52,0,0,1,.07-3.43,1,1,0,0,1,.18-.39.53.53,0,0,1,.59-.09c.6,1,.24,2.09.29,3.14,0,.61-.08,1.23.71,1.45,4.38.56,8.77,1.06,13.15,1.6,2.17.27,4.34.51,6.52.77a2.27,2.27,0,0,1,1.43.51c2,.72,3.7-.21,5.48-.88q7.41-2.8,14.86-5.53a1.25,1.25,0,0,0,1-1.42c-.1-3.2.6-6.36.53-9.55-.07-2.91.35-5.82-.09-8.72.27-.07.46,0,.5.31a19.6,19.6,0,0,1,.22,2c0,3.67.08,7.34-.23,11A8.64,8.64,0,0,0,120.66,104.9Z" fill="#33313f"/><path d="M115.61,24.51V41.29c0,.47.08,1.11-.61,1.07s-.61-.63-.61-1.13c0-9.35,0-18.7.08-28,0-2.11.09-4.23.16-6.35,0-.37-.13-.93.44-.93s.37.58.38.87q.14,3.35.15,6.71C115.62,17.15,115.61,20.83,115.61,24.51Z" fill="#ae71df"/><path d="M99.23,19.47c-1,0-2,0-3,0-.72,0-1.08-.34-1.06-1.11,0-1.8,0-3.59,0-5.39a1.23,1.23,0,0,1,1.4-1.39c1.79,0,3.59,0,5.38,0,1,0,1.28.63,1.34,1.38.13,1.7.21,3.42.22,5.13a1.25,1.25,0,0,1-1.42,1.39c-1,0-1.92,0-2.87,0Z" fill="#ae71df"/><path d="M119.64,88.9c-5,1-10,2-15,3.07a16.62,16.62,0,0,1-6.13,0c-.73-.12-1.47.53-2.19,0,0-.45.38-.35.6-.39,4-.81,7.83-1.88,11.76-2.79.39-.09.92-.05,1.09-.6Z" fill="#bd7767"/><path d="M16.22,122.42c-1.81-4.17.35-9.63,3-11.46a3.29,3.29,0,0,1,2.19-.78c3.09.2,6.16.56,9.23.91,2.6.3,5.21.52,7.82.79,2.84.29,5.67.61,8.51.9s5.77.55,8.66.83a3.12,3.12,0,0,1-2.52.28,16.76,16.76,0,0,0-3.32-.24c-2.54-.16-5-.69-7.56-.84s-5-.6-7.43-.87-5.2-.52-7.8-.78c-1-.1-2.07-.13-3.08-.3a5.92,5.92,0,0,0-5.76,2.54,11.29,11.29,0,0,0-1.65,6.85,4.28,4.28,0,0,0,2.69,3.62c.24.12.41.21.44.48-.58.07-1.09-.38-1.69-.22-1,.17-1.22-.62-1.64-1.19Z" fill="#b391ca"/><path d="M70.69,86.43a10.24,10.24,0,0,1,2.41.2.14.14,0,0,1,.23.05c2.56-.16,5.09.34,7.65.23.46,0,.84.13.89.59s-.51.52-.77.53a20.76,20.76,0,0,1-3.94,0,37.7,37.7,0,0,0-3.82-.18,1,1,0,0,1-.5.27A7.53,7.53,0,0,1,71,88h-.39c-.35,0-.69,0-1,0q-5.86-.19-11.7-.74c-.53,0-1.14-.17-1.11-.84s.6-.68,1.08-.77a4.18,4.18,0,0,1,1.32,0,19.94,19.94,0,0,0,4.3.18c2.08-.07,4.14.28,6.22.29A1.47,1.47,0,0,1,70.69,86.43Z" fill="#dec3f0"/><path d="M82.55,0a.72.72,0,0,1,.4.78c.29,10.07.21,20.14.24,30.22,0,.43.09,1-.58.95s-.62-.51-.6-1c.44-9,.07-18.06.27-27.09C82.3,2.63,82.45,1.38,82.55,0Z" fill="#af72df"/><path d="M85.33,70.12a.9.9,0,0,1,1,.59c1.1,2.15,2.26,4.28,3.41,6.41a2.62,2.62,0,0,1,.14,1.17c0,.54,0,1.13-.57,1.32s-.79-.43-1-.8c-1.55-2.22-3.08-4.44-4.59-6.69-.43-.64-.81-1.32.56-1.31.41,0,1-.06,1.09-.7Z" fill="#ae71df"/><path d="M76.46,98.24A.71.71,0,0,0,76,98c-.45,0-.89,0-1.33,0s-.56,0-.19,0c0,0,0,0-.07,0a.86.86,0,0,1-.23.05l-.07,0L74,98a.83.83,0,0,1-.36-.08.24.24,0,0,1-.12,0,1,1,0,0,1-.46-.12.83.83,0,0,1-.32.07.89.89,0,0,1-.73-.33,6.49,6.49,0,0,1-2.48-.18c-1.42-.19-2.86-.09-4.3-.24-2.34-.23-4.71,0-7.06-.29-.57-.07-1.36,0-1.42.74s.73.76,1.24.83c1.11.14,2.22.28,3.34.35,2.95.18,5.89.47,8.84.52a2.07,2.07,0,0,0,.42.08,4.73,4.73,0,0,0,.75,0c.61,0,.79.26.79.84s-.17,1.33.39,1.84A.45.45,0,0,0,73,102s0-.07,0-.1a.82.82,0,0,1-.06-.27v-.53a2.9,2.9,0,0,1,.15-1.1c0-.3,0-.15,0-.59a20.42,20.42,0,0,0,2.72,0C76.49,99.41,76.85,98.94,76.46,98.24Z" fill="#dec3f0"/><path d="M73.11,94.66c-.06-.14.12-.26,0-.08a.6.6,0,0,1-.33.18c-.57,0-1.13-.11-1.7-.11a3.14,3.14,0,0,1-.61-.12c-2.38,0-4.76-.14-7.13-.29-3.25-.21-6.51-.25-9.73-.76-.41-.07-.81-.2-.8-.69s.41-.6.82-.67a74.58,74.58,0,0,1,9.57.28c2.11.1,4.23.17,6.33.41.35,0,.7,0,1,0h.6a6.54,6.54,0,0,1,1.53.11,1.19,1.19,0,0,1,.6.46c.4,0,.8,0,1.2,0s1,0,.94.63-.48.56-.89.57S73.51,94.65,73.11,94.66Z" fill="#dec3f0"/><path d="M114.4,72.25c.34.34.19.61-.06.93-1.52,1.89-3,3.79-4.52,5.68a3.94,3.94,0,0,1-.84.84c-.37.26-.77.12-.8-.33-.05-.77-.32-1.62.15-2.33,1.22-1.85,2.51-3.66,3.78-5.48a3.53,3.53,0,0,1,.54-.46A4.68,4.68,0,0,1,114.4,72.25Z" fill="#af71df"/><path d="M109.09,38.78v8.51c0,.5.1,1.18-.66,1.15s-.56-.66-.55-1.12l.51-17.23c0-.36,0-.9.39-.89.6,0,.32.61.33.95,0,2.87,0,5.75,0,8.63Z" fill="#af71df"/><path d="M109.62,62.7c1.18.43,1.78,1.53,2.66,2.31a4.55,4.55,0,0,1,.76.76c.42.59,1.54,1,1.2,1.71-.23.48-1.25.67-1.74,1.26-.16.19-.4.07-.53-.06-1.43-1.43-3.13-2.58-4.28-4.29A20.66,20.66,0,0,1,109.62,62.7Z" fill="#ae71df"/><path d="M90.39,63.6a.61.61,0,0,1,0,1,22.05,22.05,0,0,0-3.23,3.32c-.47.55-.87.55-1.05-.22a1,1,0,0,0-.65-.78c-1-.35-.87-.75-.21-1.4a19.69,19.69,0,0,0,2.67-2.88,1.14,1.14,0,0,1,1.27-.44A4.11,4.11,0,0,1,90.39,63.6Z" fill="#af71df"/><path d="M77.45,89.85c3.85-.49,7.69-1.07,11.55-1.42,3-.27,6-1,9.09-1-.64.79-1.64.7-2.47.87-2.88.56-5.73,1.23-8.61,1.77a7.67,7.67,0,0,0-2,.72,46.6,46.6,0,0,1-7-.47C77.76,90.3,77.46,90.22,77.45,89.85Z" fill="#bd7767"/><path d="M77.45,89.85a9.33,9.33,0,0,0,2.68.38c1.64.23,3.32.21,5,.3.26.47,0,.79-.32,1.09-1.35.43-2.68-.08-4-.05-2.31.06-3.26.91-3.22,3.27,0,2.15-.37,4.28-.28,6.44a1.33,1.33,0,0,1-.29,1,.3.3,0,0,1-.39-.09,3.16,3.16,0,0,1-.19-2.29,6.13,6.13,0,0,0-.16-2.77c0-2,0-4,0-6,0-.38-.09-.8.29-1.09Z" fill="#d1a26a"/><path d="M37.13,71.06l-.51.73a1.87,1.87,0,0,1-.38-1.35c-.32-4.1-.28-8.22-.22-12.33,0-1.88-.34-3.74-.26-5.62A4.4,4.4,0,0,1,36,50.84c.43-.53.8-.31,1.14.1Z" fill="#b175e0"/><path d="M109.81,88.16c.41.62-.1.64-.48.72-4.19,1-8.29,2.3-12.57,2.85a1.4,1.4,0,0,0-.4.21l-.67.3c-1.38,1-1.21,2.6-1.33,4a49.72,49.72,0,0,0-.27,6.1,1.81,1.81,0,0,1-.23,1,.34.34,0,0,1-.55,0c0-3.47.19-6.93.43-10.4.07-.91.74-1.14,1.46-1.32l14.2-3.43a.62.62,0,0,0,.19-.14A.41.41,0,0,1,109.81,88.16Z" fill="#343240"/><path d="M84.82,91.47l.3-.94c2.1-1,4.42-1.13,6.64-1.68s4.22-.94,6.33-1.41c.55,0,1.09-.32,1.65,0a.75.75,0,0,1-.64.46L87.15,90.29c-1.67.33-1.77.48-1.6,2.17a34.57,34.57,0,0,1-.16,4.66c-.07,1.95-.06,3.9-.08,5.85a.37.37,0,0,1-.59-.07,3.26,3.26,0,0,1-.23-1.63q0-4.39.06-8.79A1.56,1.56,0,0,1,84.82,91.47Z" fill="#343240"/><path d="M31.05,65.78c.78-.11.56.24.29.62-.66.91-1.65,1-3.1.4-1.76-1.7-1.95-4.31.24-4.88.92-.09,1.82-.1,2.4.79a2.37,2.37,0,0,1,0,2.84c-.22.73-.85.73-1.39.82A2.58,2.58,0,0,0,31.05,65.78Z" fill="#343240"/><path d="M28.69,55.74c1.78-.05,2.73.44,3.08,1.6.53,1.74-.46,2.9-2.53,3,.62.51.62.51,2.19.07-.3,1-.38,1-2.71.81C26.75,59.61,26.73,57.2,28.69,55.74Z" fill="#333240"/><path d="M31.55,48c.5,0,1,.16,1.47-.16A1,1,0,0,1,34,48a6.67,6.67,0,0,1,2.27.62A1.13,1.13,0,0,1,37.06,50a2.14,2.14,0,0,1-1.85,0,12.73,12.73,0,0,0-5.56-.21.63.63,0,0,1-.46-.09l0-1.21L30.44,48A1.52,1.52,0,0,1,31.55,48Z" fill="#ae72df"/><path d="M90.8,59.54a2,2,0,0,1,2.47,1.73.9.9,0,0,1-.22,1.19,2.09,2.09,0,0,1-2.66.87,1.89,1.89,0,0,1-1.18-1.65A2.56,2.56,0,0,1,90.8,59.54Z" fill="#b492cb"/><path d="M113,71.08a2.1,2.1,0,0,1,.57-2.78,1.93,1.93,0,0,1,2.47,3,5.9,5.9,0,0,1-.9.56A1.65,1.65,0,0,1,113,71.08Z" fill="#b493cb"/><path d="M105.75,63.18c-.33-2.07.35-3,2.18-3.13a2.58,2.58,0,0,1,1.38,2.63c-.58,1.32-.82,1.45-2.37,1.23C106.43,63.86,106.17,63.39,105.75,63.18Z" fill="#b492cb"/><path d="M85.35,70.11a6.75,6.75,0,0,0-.8.24,1.53,1.53,0,0,1-2.13-.7,1.61,1.61,0,0,1,.32-2.08,1.87,1.87,0,0,1,2.51-.22c.78.51.7,1.28.46,2a4.31,4.31,0,0,1-.38.74Z" fill="#b492cb"/><path d="M29.19,49.71a9.77,9.77,0,0,1,5.41-.16c.82.19,1.64.29,2.46.43.27.31.54.62,0,1l-.94-.27A15.05,15.05,0,0,1,31.83,50a6.14,6.14,0,0,0-2.66.18C28.94,50,29.14,49.88,29.19,49.71Z" fill="#363443"/><path d="M43.35,68.93c0,.3-.15.37-.39.49A6.39,6.39,0,0,0,39,76c0,.31.1.64-.23.87-.72-.65-.25-1.46-.29-2.2a7.28,7.28,0,0,1,3.65-5.52C42.57,69.17,42.91,68.78,43.35,68.93Z" fill="#373545"/><path d="M73.33,86.68l-.23,0a2.3,2.3,0,0,1-.23-1.39c0-2.18,0-4.36,0-6.55a4.36,4.36,0,0,1,.56-2.36c0,.8,0,1.89,0,2.69Q73.35,82.85,73.33,86.68Z" fill="#ae71df"/><path d="M76.48,97.19q0-3.52,0-7a1,1,0,0,1-.26,0h0a1.33,1.33,0,0,1-.19.14c-.15,2.57,0,5.1-.1,7.61l.25.24C76.88,98,76.53,97.56,76.48,97.19Z" fill="#353441"/><path d="M71.42,68.44c.16-.27.32-.53.49-.79,1.17.85,1.26,2.15,1.45,3.41,0,1.19,0,2.79,0,4-.05,0-.07-.18-.15-.4-.2-1.33-.39-2.66-.6-4A2.93,2.93,0,0,0,71.42,68.44Z" fill="#af73df"/><path d="M54.43,129.62c-.26,0-.57,0-.76.24l-8.15-1c0-.24.08-.32.31-.24A85.74,85.74,0,0,1,54.43,129.62Z" fill="#42414d"/><path d="M73.31,93.4l-.46-.23a7.91,7.91,0,0,1,0-5.28h.47Z" fill="#b074e0"/><path d="M16.26,122.94c.72.16.86,1.12,1.64,1.19,0,.21.38.36.17.6s-.34,0-.5-.08C16.92,124.24,16.19,123.9,16.26,122.94Z" fill="#3c3a48"/><path d="M45.83,128.63l-.31.24a12.32,12.32,0,0,1-2.7-.4c.11-.21.36-.1.51-.22C44.13,128.6,45,128.18,45.83,128.63Z" fill="#575662"/><path d="M23.21,125.28a2.18,2.18,0,0,1,1.67.28,5.33,5.33,0,0,1-1.69-.1s0,0,0-.08A.19.19,0,0,1,23.21,125.28Z" fill="#464352"/><path d="M27,125.81c.63,0,1.3-.2,1.9.2C28.27,126,27.6,126.26,27,125.81Z" fill="#4c455c"/><path d="M70.69,67A1.46,1.46,0,0,1,69,67Z" fill="#dec3f0"/><path d="M40,128.16a1.37,1.37,0,0,1-1.13-.27c.43-.33.77.12,1.13.11Z" fill="#62616c"/><path d="M29.42,126.21a1.24,1.24,0,0,1,1.4,0Z" fill="#534864"/><path d="M31.57,126.46a1.17,1.17,0,0,1,1.41,0Z" fill="#685c79"/><path d="M35.93,127.68a1.63,1.63,0,0,1-1.14-.29c.46-.29.77.19,1.14.13Z" fill="#9a99a1"/><path d="M35.93,127.68a.43.43,0,0,1,0-.16,2,2,0,0,1,1.28.1A2.16,2.16,0,0,1,35.93,127.68Z" fill="#5a5964"/><path d="M41.16,128l.75.22c.07,0,.1.08.08.12s-.05.07-.07.07a1.27,1.27,0,0,1-1-.17C40.92,128.09,41.07,128.07,41.16,128Z" fill="#73727c"/><path d="M41.92,128.41a.61.61,0,0,1,0-.19l1.42,0-.51.22Z" fill="#3a3946"/><path d="M28.88,126.63c-.41.17-.77.21-.82.05s.23-.13.37-.16S28.64,126.57,28.88,126.63Z" fill="#c9c8cc"/><path d="M33.71,126.72a.89.89,0,0,1,1.2,0Z" fill="#584b6c"/><path d="M39.94,127.25c.41,0,.85-.16,1.2.19C40.73,127.44,40.29,127.65,39.94,127.25Z" fill="#76618d"/><path d="M41.16,128l-.26.24-.91-.08V128Z" fill="#3d3d4a"/><path d="M93.73,103.45a96,96,0,0,1,.48-9.74c.08-1,.62-1.35,1.48-1.47.73.7,1.72.48,2.58.63s1.65.14,2.46.31a5.2,5.2,0,0,1,.91,3.26,35.31,35.31,0,0,1,0,3.71,18.23,18.23,0,0,0-.09,2.86c0,3.84-.23,7.68-.36,11.52-.24.59-.77.43-1.23.48s-1-.17-1.38.19l-8.83-1c-3.06-.36-6.13-.71-9.18-1.13a14.38,14.38,0,0,1-3.39-.49c-.78-1.33-.4-2.79-.41-4.2,0-.31.25-.48.53-.58a20.06,20.06,0,0,1,5.36.23c4.93.44,9.86.81,14.79,1.23.3,0,.65.11.87-.35-1.35-.86-3-.19-4.37-.82a1.1,1.1,0,0,1-.7-.91c0-.13,0-.26,0-.39a1.86,1.86,0,0,1,.41-1.43,1.06,1.06,0,0,1,.33-.18,8.16,8.16,0,0,1,2.61,0,5.36,5.36,0,0,0,.7.1c.44,0,1,.06,1.08-.48s-.5-.62-.92-.7-.79,0-1.19-.06A4.6,4.6,0,0,1,93.73,103.45Z" fill="#bd7767"/><path d="M108.87,96.38c-.13,2.28-.13,2.28-2.42,2.84s-2.25.55-2.45-1.67c0-.16-.07-.31-.08-.47A5.24,5.24,0,0,1,104,95c.35-1.1,1.23-.37,1.81-.63a2.66,2.66,0,0,1,.68-.2C109.05,93.84,108.84,93.21,108.87,96.38Z" fill="#34323f"/><path d="M101.18,114.53a4.08,4.08,0,0,1-.21-2.64c.25-3,.4-5.92.49-8.88h.16a91.46,91.46,0,0,1-.2,10.73A4.76,4.76,0,0,1,101.18,114.53Z" fill="#34323f"/><path d="M116.28,105.7a1.51,1.51,0,0,1,1.49-1.4,1.14,1.14,0,0,1,1.17,1.34,1.43,1.43,0,0,1-1.46,1.41C116.66,107.07,116.35,106.46,116.28,105.7Z" fill="#353340"/><path d="M101.45,100.1c0-2.33.1-4.67-.72-6.92,1.17.54,1,1.67,1.16,2.65a7.52,7.52,0,0,1,0,1.42,15.34,15.34,0,0,0-.09,2.25C101.75,99.72,101.94,100.1,101.45,100.1Z" fill="#383540"/><path d="M104.36,100.87a7.82,7.82,0,0,1,4.18-1C107.15,100.19,105.88,101.05,104.36,100.87Z" fill="#353340"/><path d="M101.45,100.1c.55-.89-.12-2,.41-2.85.2,1.93-.26,3.83-.24,5.76h-.16C101.46,102,101.46,101.07,101.45,100.1Z" fill="#514048"/><path d="M38.5,74.68c.19.72-.23,1.52.29,2.2,0,.62.25.93.88.92h1.27c0,2.39-.13,4.8,0,7.18.37,5.62,0,11.25.27,16.86.13,2.67.09,5.33.18,8a5,5,0,0,1-.23,1.76c-1.86-.15-3.73-.27-5.58-.46s-3.86-.48-5.8-.69c-2.37-.26-4.76-.37-7.11-.76-2.7-.44-4.35.92-5.76,2.91a15.57,15.57,0,0,0-1.87,4.57c-4.74-.09-9.48-.37-14.22-.25A24.53,24.53,0,0,1,1,111.71c.29-4,2.8-6.78,5.63-9.25,3.6-3.13,7.27-6.21,11.05-9.14,4.91-3.8,9.76-7.68,14.6-11.58,1.45-1.18,2.82-2.46,4.23-3.69.12-.11.22-.3.35-.32,1.59-.33,1.59-1.5,1.5-2.74C38.34,74.89,38.45,74.78,38.5,74.68Z" fill="#ae71df"/><path d="M53.63,92.42c-.28,0-.73-.11-.72.36s.43.37.74.39c.92,1.62.6,2.21-1.22,2.24h-.82c-1.34,0-2.68,0-4.26,0a35.09,35.09,0,0,1,5.62.25c.39.08.8.08,1.08.42a10.7,10.7,0,0,1,0,4.61c-.56.67-1.3.46-2,.37a29,29,0,0,0-5.59,0,24.66,24.66,0,0,0,5.24.83,6.1,6.1,0,0,1,2,.38.59.59,0,0,1,.27.27c-.36,1.16-1.34,1.7-2.28,2.29a10.62,10.62,0,0,1-2.27.14c.3.26,1,0,.87.74a10.79,10.79,0,0,0-1.84,1.47c-.9,1-2,.76-2.71-.47a21.15,21.15,0,0,1,.07,2.84c0,.46,0,1-.43,1.29-.67.29-1-.08-1.13-.66a5.25,5.25,0,0,1-.09-1.43c0-4.55-.18-9.11,0-13.66.28-5.83.1-11.65.21-17.48,0-1.2.19-2.39.29-3.58.15-1.84.92-2.48,2.77-2.6,4.46-.3,8.9-.76,13.36-1.15,2-.17,4-.3,6-.54a16.6,16.6,0,0,1,3.15.16c1.62.9,1,2.52,1.17,3.86a18.9,18.9,0,0,1-.06,2.37,14.52,14.52,0,0,1-.14,3.09q-.11,3.6-.23,7.18h-.92c-.47-.45-.34-1-.36-1.58-.17-3.76.25-7.51.24-11.27,0-.36,0-.72,0-1.08s0-.7-.31-.84-.48.19-.71.34a74.21,74.21,0,0,1-6.82,3.77C59.54,77,57.32,78.25,55,79.3a1.62,1.62,0,0,0-1.06,1.88c.17,2.07.06,4.15.06,6.23a1.51,1.51,0,0,1-.29,1c-1.68.62-3.37.12-5.11,0a18,18,0,0,0,3.78.31,1.64,1.64,0,0,1,1.47.65A3.61,3.61,0,0,1,53.63,92.42Z" fill="#32313f"/><path d="M71,76.12c-.08-1.38-.18-2.77-.21-4.15A2.16,2.16,0,0,0,70,70.19a7.1,7.1,0,0,0-3.11-.1c-2.27.46-4.6.47-6.89.71-4,.42-8.11.69-12.16,1C45.3,72,45.14,72.36,45,75c-.34,5.72,0,11.44-.26,17.15s-.1,11.67-.2,17.51c0,.59-.2,1.44.94,1a3.88,3.88,0,0,1,1.92-.9c4.32-1.13,8.61-2.34,12.93-3.47.78-.1,1.58-.4,2.23.32a38,38,0,0,1-5.46,1.61c-3.79,1.06-7.6,2.06-11.4,3.08a6.3,6.3,0,0,1-1,.25c-1.2.09-1.53-.23-1.53-1.46,0-8.91-.11-17.83.06-26.74.06-2.83-.2-5.63-.15-8.43,0-2.39,1.37-4.08,4.51-4.31,4.2-.3,8.42-.47,12.61-.81,2.21-.18,4.46,0,6.66-.58a8.43,8.43,0,0,1,3.28,0A1.63,1.63,0,0,1,71.44,71c.08,1.72-.27,3.41-.26,5.13C71.1,76.23,71,76.23,71,76.12Z" fill="#ae71df"/><path d="M98,108.23c-1.42-.28-2.88-.06-4.28-.45a3.45,3.45,0,0,0-1.38-.33c-2.22-.22-4.44-.33-6.66-.54-2.85-.28-5.71-.42-8.57-.66h-.65c-.21,0-.42,0-.64,0-3.19-.41-6.41-.48-9.63-.7a5.42,5.42,0,0,1-1.88-.17c-2.5-.17-5-.38-7.51-.55a28.32,28.32,0,0,0-4.6-.25,1,1,0,0,1-.58.2.87.87,0,0,1-.37-.08,12.43,12.43,0,0,0-2.91.14c.48.83,1.38.31,1.91.78a1.74,1.74,0,0,0,1.12.33c3,.17,6,.6,9,.63a5.38,5.38,0,0,1,2.19,0c3.2.25,6.41.42,9.59.81,1,.12,2-.15,2.91.36a.68.68,0,0,0,1,0h.45c.3.28.69,0,1,.16,1.71.11,3.42.19,5.13.34,5.09.43,10.17.9,15.25,1.35.53,0,1-.09,1.12-.65S98.53,108.33,98,108.23Z" fill="#dec3f0"/><path d="M75,107.78l1,0a1.6,1.6,0,0,1,0,.21,2.11,2.11,0,0,1-1,.57c-4.77,1.46-9.49,3-14.26,4.51a3.24,3.24,0,0,1-2,.21l-1.42,0c4.36-1.63,8.86-2.88,13.28-4.33C72,108.47,73.43,107.73,75,107.78Z" fill="#ae71df"/><path d="M71,76.12h.23c-.13,1,.31,2.13-.26,3.13Z" fill="#b07ed7"/><path d="M24.94,112.13c2.17-.25,4.44.57,6.78.77,3.06.25,6.11.6,9.17.89,4.84.47,9.69.94,14.54,1.38,4,.36,8,.59,12,1.07s8.09.49,12.11,1.1c2.63.4,5.33.38,8,.54a22.14,22.14,0,0,1,6.56,1.18c3,1.12,5.7,5,5.6,8.12a6.07,6.07,0,0,1-7.37,5.95c-2.51-.39-5-.65-7.58-.83-3.13-.23-6.24-.68-9.35-1.09-3.26-.43-6.52-.89-9.79-1.33L56,128.59l-9.91-1.35c-2.63-.36-5.26-.76-7.9-1a34.89,34.89,0,0,0-5.88-.46c-1.52.1-3-.48-4.57-.7-1.92-.28-3.86-.43-5.75-.9-3.61-.91-5.21-3.48-4.3-7S19.74,111.88,24.94,112.13Z" fill="#32313f"/><path d="M57.24,113.84c1.81.15,3.62.29,5.43.46,2.32.22,4.63.47,7,.71a4.2,4.2,0,0,1,.66.21,81.26,81.26,0,0,1-9-.65c-1.5-.14-3-.21-4.51-.31C56.76,113.92,57.2,114.07,57.24,113.84Z" fill="#b18fc9"/><path d="M53.89,102.53l-6.43-.73a3.19,3.19,0,0,1-.82-.12c-.39-.17-1.17,0-1.07-.66s.77-.4,1.22-.42c2.36-.08,4.71.1,7.07.21a3.38,3.38,0,0,1,2.31-.31c3.84.29,7.67.54,11.52.71a10.4,10.4,0,0,1,1.65.23c.41,0,.83,0,1.24,0a7.06,7.06,0,0,1,.8,0c.41,0,.81.1,1,.54h.51c.1-.09.09.07.21,0,1.44.12,1.76.12,2.94.22.27,0,.44-.22.64,0H77a1.5,1.5,0,0,1,1.13-.27c1.86.23,3.74.24,5.59.49a2.1,2.1,0,0,1,1.19.51l.45,0,8,.47h.42c1.27.1,2.54.18,3.81.3.64.07,1.42.22,1.37,1s-.8.89-1.48.84l-3.69-.29a7.92,7.92,0,0,1-3.32.14c-1.66-.19-3.34-.18-5-.44h-.64c-2.56-.07-5.12-.17-7.67-.47l-.62,0h-.62c-1.17,0-2.31-.33-3.49-.22a17.94,17.94,0,0,1-2.3-.24c-4.8-.2-9.58-.72-14.38-1C55.13,102.79,54.42,103,53.89,102.53Z" fill="#dec3f0"/><path d="M101,124.36a22.14,22.14,0,0,0-2.72-5c.1-1.89.11-1.86,2-2.52,8.22-2.94,16.47-5.81,24.63-8.92a8.6,8.6,0,0,1,5.23-.7,5.1,5.1,0,0,1,3.55,3.29,1.09,1.09,0,0,1-.81,1.66c-2.45.47-4.62,1.67-6.9,2.57-7.82,3.08-15.62,6.25-23.41,9.4A4.49,4.49,0,0,1,101,124.36Z" fill="#b391ca"/><path d="M100.31,131.56a11.24,11.24,0,0,0,.88-6l25-9.88q3.16-1.26,6.32-2.55c1.31-.53,2-.2,2.24,1.22.32,2.2-1.23,5.89-3.89,6.8-6.22,2.12-12.46,4.2-18.68,6.32C108.21,128.81,104.26,130.19,100.31,131.56Z" fill="#b391ca"/><path d="M91.57,115l8.47,1a1.49,1.49,0,0,1,.43.19,20.06,20.06,0,0,1-4.07,1.68c-1.75-.95-3.7-1-5.6-1.17-.78-.08-1.55-.24-2.33-.31.23-.9,1.12-.74,1.71-1.05A8,8,0,0,1,91.57,115Z" fill="#b391ca"/><path d="M120.61,108.51c0-.71,0-1.43,0-2.15,1.44.08,2.9-.23,4.45.4Z" fill="#b391cb"/><path d="M91.25,58.6c1.38,0,2.76,0,4.13,0,3.91.06,7.81.15,11.72.24.28,0,.71-.15.75.34s-.36.32-.61.4a2,2,0,0,0-1.11.67,2.48,2.48,0,0,1-2.62,1c-2.8-.33-5.62-.06-8.42-.21-.76,0-1.34-.06-1.72-.9A2.24,2.24,0,0,0,91.13,59Z" fill="#dec3f0"/><path d="M31.83,50a9.93,9.93,0,0,1,4.32.63c.3,5.49.14,11,.28,16.48,0,1.54.17,3.09.19,4.64-1.31,1.64-2.4,3.5-4.29,4.6.19-5.7.15-11.4.28-17.1a31.61,31.61,0,0,1,.62-6.63C33.51,51.47,32.46,50.83,31.83,50Z" fill="#b391ca"/><path d="M58.69,113.33c1.74-.51,3.49-1,5.23-1.55,3.82-1.21,7.62-2.44,11.44-3.66A2.8,2.8,0,0,1,76,108c.18,1.75-.23,3.53.29,5.27a6.51,6.51,0,0,1-3.62,1.44,65.9,65.9,0,0,1-6.87-.62c-2-.2-3.94-.38-5.92-.57C59.44,113.53,59,113.62,58.69,113.33Z" fill="#b391ca"/><path d="M78.12,113.37l12,1.47c-.76,1.09-2,1.07-3.12,1.4-4.33-.28-8.63-.79-12.93-1.28.05-.62.6-.64,1-.81A13.19,13.19,0,0,1,78.12,113.37Z" fill="#b391ca"/><path d="M15,119.55c-4.15.19-8.29-.35-12.44-.25-.55,0-1.54-.06-1.48-.54.08-.71,1-.46,1.54-.35a11.42,11.42,0,0,0,3,.18c2.76-.08,5.49.4,8.25.26a5.41,5.41,0,0,1,1.16.23Z" fill="#ae71df"/><path d="M78.12,113.37c-1.29.69-2.81.78-4.05,1.59a2.14,2.14,0,0,1-1.45-.21,28.12,28.12,0,0,1,3.62-1.44Z" fill="#ae71de"/><path d="M87,116.24c.92-.73,2.16-.76,3.12-1.4l1.45.2c-1,.63-2.16.69-3.1,1.36C88,116.42,87.46,116.57,87,116.24Z" fill="#ae71de"/><path d="M31.05,65.78c-.65,1.24-1.6.69-2.49.49a3.07,3.07,0,0,0,2.3-.72Z" fill="#a46bd2"/><path d="M76.45,107.84a1.26,1.26,0,0,1,1,.16c-.63.13-.47.63-.51,1a26,26,0,0,0,.23,3.53c-.67-.2-.8-.71-.78-1.33C76.43,110.11,76.43,109,76.45,107.84Z" fill="#d0a16b"/><path d="M99.24,18.3a2.54,2.54,0,0,1-2.77-2.61,2.82,2.82,0,0,1,2.91-2.94,2.77,2.77,0,0,1,3,2.61A3.08,3.08,0,0,1,99.24,18.3Z" fill="#dec3f0"/><path d="M53.64,88.34a77.83,77.83,0,0,0-.14-7.79,1.15,1.15,0,0,1,.8-1.26q6.68-3.51,13.34-7c.44-.24,1-.4,1.19-.94.44-.95.84-.25,1.07.13A2.3,2.3,0,0,1,70,72.51c0,4.64-.38,9.27-.21,13.91-3.53-.23-7.07-.08-10.6-.43a7.78,7.78,0,0,0-1.67,0c-.25,0-.62.09-.6.46s.35.42.63.42a24.86,24.86,0,0,1,2.6.23c3.22.21,6.43.36,9.65.53a9.12,9.12,0,0,1,0,5.47c-3.67-.22-7.34-.48-11-.67-1.71-.08-3.42,0-5.13,0,0-1,0-2.07,0-3.1,1.08-.66,2.25-.37,3.38-.26,1.78.18,3.59.11,5.37.37a1.66,1.66,0,0,0,1.1-.19c-2.35.14-4.67-.38-7-.31A4.39,4.39,0,0,1,53.64,88.34Z" fill="#b391ca"/><path d="M72.87,87.89c0,1.76,0,3.52,0,5.28l-1.67,0a2,2,0,0,1-.32-1.58,25.41,25.41,0,0,1,.09-3.9Z" fill="#b492cb"/><path d="M69.77,93.14c0-1.82,0-3.65,0-5.47h.89a11.72,11.72,0,0,1,0,5.46Z" fill="#32313f"/><path d="M70.68,93.14c0-1.82,0-3.64,0-5.46H71c.5,1.81.1,3.66.23,5.48Z" fill="#ad74da"/><path d="M69.57,101.74c-3-.21-6-.43-9-.62-2.23-.13-4.46-.21-6.68-.31,0-1.58,0-3.16,0-4.73.72-.65,1.6-.27,2.38-.4-1.08,0-2.2,0-3.3,0-.5,0-1.15.16-1.43-.53.16,0,.31,0,.47,0,1.91,0,1.91,0,1.68-1.91,5.46.5,10.93.89,16.42,1a2.32,2.32,0,0,1,.67.19l-.09.15a1.38,1.38,0,0,0-.6,1.31,5.44,5.44,0,0,1-.11,1.75.55.55,0,0,1-.24.26c-2.54-.11-5.09-.27-7.64-.29-1.44,0-2.86-.28-4.29-.25-.35,0-.84,0-.85.42s.5.33.76.37a28.42,28.42,0,0,0,3.31.38c3,.13,6,.6,9.06.51.14,0,.28.12.43.19C69.53,99.77,70.07,100.93,69.57,101.74Z" fill="#b391ca"/><path d="M71.18,94.37a2.73,2.73,0,0,1,1.69.25,8.13,8.13,0,0,1,0,3.11,5.42,5.42,0,0,1-3.14.06l0-.08a1.44,1.44,0,0,1,.84-.33c.61,0,.46-.53.5-.9A10,10,0,0,1,71.18,94.37Z" fill="#b794cf"/><path d="M69.57,101.74c0-.56,0-1.12,0-1.67-.08-.75.25-1,1-.95l.2.06a2.15,2.15,0,0,1,0,2.58Z" fill="#403a4f"/><path d="M72.37,102l-1-.24a2.4,2.4,0,0,1,0-2.61c.76-.09,1.28,0,1,1C72.22,100.78,72.63,101.42,72.37,102Z" fill="#b492cb"/><path d="M76,102.26c0-1,0-1.9,0-2.85.55-.31.54-.73.22-1.21.37-.26.2-.67.27-1a21.7,21.7,0,0,1,.19,5Z" fill="#3d3946"/><path d="M71.42,99.18v2.61l-.77,0,0-2.58Z" fill="#ae71df"/><path d="M72.84,97.73l0-3.11c.08,0,.16,0,.24,0,0,1,0,2-.08,3.07,0,0,0,0-.08,0Z" fill="#ae71df"/><path d="M73.13,99.41c0,.88,0,1.75,0,2.63h-.21C73,101.16,72.52,100.23,73.13,99.41Z" fill="#af72df"/><path d="M71.18,94.37c.45.91.18,1.87.23,2.81,0,.51-.34.54-.73.53a3.64,3.64,0,0,1,0-3.31l.06-.08Z" fill="#af73dd"/><path d="M84.86,103,77,102.22c-.18-2.79.33-5.56.26-8.35A2.76,2.76,0,0,1,80,91.25c1.62,0,3.23.14,4.85.22.26,3.23-.06,6.46,0,9.68C84.83,101.75,84.85,102.35,84.86,103Z" fill="#bd7767"/><path d="M29.26,65.59A1.76,1.76,0,0,1,27.75,64a1.43,1.43,0,0,1,1.51-1.5,1.68,1.68,0,0,1,1.56,1.77A1.4,1.4,0,0,1,29.26,65.59Z" fill="#b24436"/><path d="M31.34,58.24A1.61,1.61,0,0,1,29.7,59.8,1.89,1.89,0,0,1,28,57.89a1.6,1.6,0,0,1,1.52-1.67A2.18,2.18,0,0,1,31.34,58.24Z" fill="#02cd75"/><path d="M92.06,61.31a.76.76,0,0,1-.78.84c-.53,0-.65-.36-.65-.8a.66.66,0,0,1,.74-.74C91.81,60.63,92.11,60.9,92.06,61.31Z" fill="#af72de"/><path d="M115.34,70a.88.88,0,0,1-.82.84.75.75,0,0,1-.8-.83.83.83,0,0,1,.89-.78C115.1,69.16,115.32,69.44,115.34,70Z" fill="#af72de"/><path d="M108.26,61.82c-.09.44-.26.83-.8.84a.64.64,0,0,1-.74-.7.75.75,0,0,1,.71-.8C107.9,61.07,108.14,61.38,108.26,61.82Z" fill="#ae71df"/><path d="M84.59,68.84a.6.6,0,0,1-.66.54c-.35,0-.5-.19-.49-.52s.2-.62.57-.62A.55.55,0,0,1,84.59,68.84Z" fill="#af72de"/><path d="M77,104.27l7.86.44c.11,1.51,1.21,1.66,2.37,1.8,1.77.21,3.54.39,5.3.68a1.76,1.76,0,0,1,1,.36l.26.23L82.07,107c-1.71-.13-3.41-.28-5.12-.42A2,2,0,0,1,77,104.27Z" fill="#bd7767"/><path d="M85.32,104.7l8.42.62a.69.69,0,0,1,0,.13c-.51.41-.33.91-.2,1.41a.6.6,0,0,0,0,.19c-.73.44-1.49.07-2.2,0-1.69-.21-3.39-.35-5.07-.66C85,106.15,84.88,105.94,85.32,104.7Z" fill="#b391ca"/><path d="M85.32,104.7c0,.89,0,1.43,1.26,1.49,2.31.1,4.61.55,6.91.86,0,.16,0,.33,0,.5-2.67-.32-5.35-.58-8-1-1.08-.17-.75-1.12-.66-1.85Z" fill="#343240"/><path d="M99.32,111.12c-.16,1.14.28,2.34-1.36,2.21-1.35-.12-1.84-.69-1.78-2.33s1.22-1,2-1C99.29,109.88,99.53,110.46,99.32,111.12Z" fill="#34323f"/><path d="M93.49,106.86c-.26-.51-.58-1,.2-1.41C93.62,105.92,93.56,106.39,93.49,106.86Z" fill="#343341"/><path d="M106.39,96.92c.19,2,.11,2.11-1.13,2.22-.51,0-.67-.2-.72-.69C104.4,97.17,104.38,97.17,106.39,96.92Z" fill="#d1a26a"/><path d="M104.56,95.85c-.38-1.34.77-1,1.3-1.12s.54.54.59.93c.15,1.11-.86.89-1.39,1C104.31,96.9,104.64,96.17,104.56,95.85Z" fill="#d0a26a"/><path d="M108.29,97.11c.35,1.1-.2,1.41-.93,1.47s-.34-.52-.41-.83a1,1,0,0,1,1-1.38C108.71,96.32,108.21,97,108.29,97.11Z" fill="#d1a26a"/><path d="M108.37,95.07c.14.94-.63,1-1.14,1s-.41-.62-.47-.95c-.12-.77.53-.72,1-.78S108.43,94.65,108.37,95.07Z" fill="#d0a16a"/><path d="M118.46,105.82a.93.93,0,0,1-.93.77c-.58,0-.76-.31-.75-.83a1.07,1.07,0,0,1,1.09-1C118.31,104.69,118.51,105.12,118.46,105.82Z" fill="#cfa16a"/><path d="M38.54,77.91a.81.81,0,0,1,.48.92Q39,94,39,109.16a.48.48,0,0,1,0,.12c-.09.3.21.87-.34.83s-.28-.59-.26-.9c.24-4.55.13-9.11.15-13.66,0-5.39,0-10.79,0-16.18Z" fill="#333140"/><path d="M40.79,102.8a.36.36,0,0,1-.3.42.4.4,0,0,1-.42-.34.39.39,0,0,1,.36-.49C40.67,102.37,40.72,102.6,40.79,102.8Z" fill="#473c5b"/><path d="M37.33,108a.28.28,0,0,1-.3.28.35.35,0,0,1-.38-.34.28.28,0,0,1,.35-.33A.34.34,0,0,1,37.33,108Z" fill="#403851"/><path d="M40.7,96.88c0,.23-.08.4-.29.44A.31.31,0,0,1,40,97a.39.39,0,0,1,.31-.42C40.56,96.52,40.64,96.72,40.7,96.88Z" fill="#3f3850"/><path d="M36.94,91.49c.23,0,.39.07.39.31s-.06.33-.26.33a.39.39,0,0,1-.4-.35C36.63,91.61,36.75,91.49,36.94,91.49Z" fill="#3b354a"/><path d="M40.37,91.46c.06.05.22.13.25.24s-.13.35-.32.33a.49.49,0,0,1-.29-.29C40,91.57,40.11,91.47,40.37,91.46Z" fill="#453a57"/><path d="M40.64,108.13c0,.23-.09.35-.26.37s-.32,0-.35-.2a.35.35,0,0,1,.31-.41C40.43,107.87,40.56,108.06,40.64,108.13Z" fill="#3f3850"/><path d="M37,102.25c.13,0,.31.06.28.28s-.18.22-.33.22-.31-.07-.28-.27S36.85,102.27,37,102.25Z" fill="#383447"/><path d="M37.11,81.68c0,.19-.06.38-.28.33a.33.33,0,0,1-.19-.25c0-.16,0-.34.26-.29S37.05,81.62,37.11,81.68Z" fill="#4b3e5f"/><path d="M36.81,86.67c.15,0,.3.08.27.28a.26.26,0,0,1-.32.22c-.14,0-.31-.07-.28-.27S36.66,86.69,36.81,86.67Z" fill="#3f374f"/><path d="M37.32,97.07c-.09.21-.2.35-.37.3s-.3-.15-.21-.34.2-.23.26-.21A1.26,1.26,0,0,1,37.32,97.07Z" fill="#3c364b"/><path d="M39.86,82c.1-.11.16-.24.24-.25a.32.32,0,0,1,.28.12c.08.18-.05.29-.22.29S40,82,39.86,82Z" fill="#413953"/><path d="M50.27,105.61a38,38,0,0,1,6.13.39c1.32.12,2.71-.1,4,.57l-14.89,4.09v-4.12c1.48,1.43,2.39,1.35,3.29-.22C49.13,105.65,49.82,106,50.27,105.61Z" fill="#32313f"/><path d="M55.57,102.74c4.34.15,8.66.58,13,1,.55,0,1.11,0,1.67,0,.26.49-.1.67-.44.76a21.33,21.33,0,0,1-5.29,1.18c-4.08,0-8.11-.67-12.18-.75a.68.68,0,0,1-.62-.28l2.2-1.87A2.88,2.88,0,0,1,55.57,102.74Z" fill="#32313f"/><path d="M53.64,88.34c2.93.17,5.86.34,8.79.49a5.9,5.9,0,0,0,1.19-.07c.3-.05.67-.32.77.16a.67.67,0,0,1-.61.85,12.87,12.87,0,0,1-2.15,0,70.67,70.67,0,0,0-8-.46c-1.71-.42-3.49-.16-5.21-.47-.41-.07-.91.09-1.07-.72C49.51,88.06,51.57,88.52,53.64,88.34Z" fill="#ddc3ef"/><path d="M51.5,95.12c1.43.45,2.9.08,4.35.19.31,0,.63,0,.95,0s.63,0,.64.35-.35.36-.62.37l-3,0c-2.5-.48-5.11,0-7.6-.58v-.38Z" fill="#dcc1ed"/><path d="M66.87,70.09a4,4,0,0,1,3.11.1Z" fill="#b28dcd"/><path d="M55.57,102.74l-1.67,0c0-.08,0-.16,0-.23C54.45,102.6,55.05,102.31,55.57,102.74Z" fill="#d1aeec"/><path d="M72.38,104a29.38,29.38,0,0,1,3.63.25,2.3,2.3,0,0,1,0,2.35l-9.88-.71c.11-.64.7-.54,1.1-.66A36.13,36.13,0,0,1,72.38,104Z" fill="#b392ca"/><path d="M72.38,104a56.31,56.31,0,0,1-5.7,1.66c-.18.06-.35.16-.53.23-.55,0-1.14.2-1.65-.2,1.7-.48,3.39-1,5.09-1.44.31-.08.66,0,.64-.5Z" fill="#b175df"/><path d="M76,106.57l0-2.35.46,0a2.56,2.56,0,0,1,0,2.32Z" fill="#353342"/><path d="M76.45,106.56c0-.78,0-1.55,0-2.32l.49,0c0,.76,0,1.53,0,2.29Z" fill="#cc9f6c"/><path d="M85.52,122c2.42-2.73,4.72-3.5,7.45-2.4s5,3.77,4.84,6.93a6.55,6.55,0,0,1-3.94,6c-.58.28-1.1.06-1.64,0-4-.1-4.66-.45-7-3.75a5.69,5.69,0,0,1-4.86,2.5,7.26,7.26,0,0,1-6.48-4.11c-1.23,2.83-3.65,2.61-5.94,2.46a5.4,5.4,0,0,1-5.24-3.81c-4.81,3.68-8.34,3.24-11.57-1.4a8.32,8.32,0,0,1-1.76,1.41,7.46,7.46,0,0,1-7.83-.56c-.19-.15-.44-.3-.51-.5-.54-1.55-1.16-1.29-2.33-.43a6.05,6.05,0,0,1-8.94-2.55c-.11-.24-.17-.54-.47-.66-2.82,2.79-4.87,3.34-7.4,2-2.08-1.12-3.1-2.81-2.77-4.58.65-3.47,2.28-5.1,5.41-5.41,2.39-.23,4,1.07,5.44,4.39,2.73-3.55,7-4.41,10.78.3,3-4.35,9.1-3.19,11.31.29A6.65,6.65,0,0,1,55.57,116a6.52,6.52,0,0,1,6.52,2.61c.86,1.09.93,1.08,1.78.08A4.92,4.92,0,0,1,68.25,117a5.94,5.94,0,0,1,5.57,4.18C78,116.77,81.83,117.05,85.52,122Z" fill="#ae71df"/><path d="M70.68,94.4v3.31h-.93c0-.83,0-1.66,0-2.49S70,94.24,70.68,94.4Z" fill="#333140"/><path d="M96.89,111.68c-.15-.87,0-1.43,1-1.23.38.08,1.27-.28,1,.47s.6,1.93-1,1.94C96.91,112.87,96.71,112.44,96.89,111.68Z" fill="#bd7666"/><path d="M91.51,131.35a5.6,5.6,0,0,1-5.44-5.66c0-2.78,2.31-5.29,4.91-5.12a5.56,5.56,0,0,1,5.42,6A4.74,4.74,0,0,1,91.51,131.35Z" fill="#333140"/><path d="M79.12,119.56a5.87,5.87,0,0,1,5.93,5.5,4.78,4.78,0,0,1-5,4.71,5.77,5.77,0,0,1-5.77-5.64C74.3,121.37,76.22,119.56,79.12,119.56Z" fill="#333140"/><path d="M62.08,122.45a4.82,4.82,0,0,1-4.92,4.78A5.11,5.11,0,0,1,52,122.11a4.93,4.93,0,0,1,5-4.71A5.09,5.09,0,0,1,62.08,122.45Z" fill="#333140"/><path d="M73.6,124.25c0,3-1.85,5-4.59,5a5.82,5.82,0,0,1-5.54-5.62c-.11-2.63,2-5.31,4.67-5.27A5.9,5.9,0,0,1,73.6,124.25Z" fill="#333140"/><path d="M50.8,120.89a4.94,4.94,0,0,1-9.87.25,4.81,4.81,0,0,1,4.94-5A4.74,4.74,0,0,1,50.8,120.89Z" fill="#323140"/><path d="M35.29,124.66a4.49,4.49,0,0,1-4.72-4.35c-.14-2.16,2.37-4.76,4.65-4.65,2.78.12,4.79,1.84,4.79,4.4A4.47,4.47,0,0,1,35.29,124.66Z" fill="#333140"/><path d="M29.19,118.7a4.57,4.57,0,1,1-9.14,0c0-3,2.27-4.43,4.64-4.61S29.18,116.2,29.19,118.7Z" fill="#333140"/><path d="M95.67,126.39a4,4,0,0,1-4.14,4.28,5,5,0,0,1-4.74-5.12,4.25,4.25,0,0,1,4.31-4.31A4.93,4.93,0,0,1,95.67,126.39Z" fill="#b391ca"/><path d="M84.21,125.11a3.89,3.89,0,0,1-4,4,5.22,5.22,0,0,1-5.19-5,3.82,3.82,0,0,1,4.13-4A5.17,5.17,0,0,1,84.21,125.11Z" fill="#b391ca"/><path d="M61.35,122.52a4.15,4.15,0,0,1-4.13,4A4.48,4.48,0,0,1,52.71,122c.06-2.61,1.88-3.83,4.23-3.89A4.3,4.3,0,0,1,61.35,122.52Z" fill="#b391ca"/><path d="M64.15,123.29a4,4,0,0,1,4-4.18,5.14,5.14,0,0,1,4.75,5.32A4,4,0,0,1,69,128.61,5.08,5.08,0,0,1,64.15,123.29Z" fill="#b391ca"/><path d="M41.63,120.94a3.91,3.91,0,0,1,4.21-4,4,4,0,0,1,4.22,4,4.13,4.13,0,0,1-4.17,4.13A4,4,0,0,1,41.63,120.94Z" fill="#b391ca"/><path d="M35.17,123.94a3.69,3.69,0,0,1-3.87-3.89c0-2.25,1.68-3.65,4.24-3.61a3.74,3.74,0,0,1,3.73,3.91A3.84,3.84,0,0,1,35.17,123.94Z" fill="#b391ca"/><path d="M28.47,118.71a3.86,3.86,0,1,1-7.71,0,3.86,3.86,0,1,1,7.71,0Z" fill="#b391ca"/><path d="M91.68,128.21a2.63,2.63,0,0,1-2.75-2.37,2.11,2.11,0,0,1,2-2.1,2.87,2.87,0,0,1,2.83,2.51A1.91,1.91,0,0,1,91.68,128.21Z" fill="#343241"/><path d="M79.17,127a2.19,2.19,0,0,1-2.25-2.1,2,2,0,0,1,2-2.27,2.62,2.62,0,0,1,2.56,2.45A2.24,2.24,0,0,1,79.17,127Z" fill="#333241"/><path d="M59.18,122.15a2,2,0,0,1-2.08,2.25,2.08,2.08,0,0,1-2-2.23,2.45,2.45,0,0,1,2.15-2.31A2.09,2.09,0,0,1,59.18,122.15Z" fill="#333240"/><path d="M65.9,123.44a2.21,2.21,0,0,1,2.2-2.2,2.29,2.29,0,0,1,2.37,2.31,2.21,2.21,0,0,1-2.18,2.22A2.45,2.45,0,0,1,65.9,123.44Z" fill="#333241"/><path d="M48.14,121.06a2.22,2.22,0,0,1-2,2.09,2.87,2.87,0,0,1-2.56-2.64,1.85,1.85,0,0,1,1.83-1.8A2.52,2.52,0,0,1,48.14,121.06Z" fill="#333140"/><path d="M35.31,122A2.13,2.13,0,0,1,33,119.79a2.19,2.19,0,0,1,2.14-2.11,3.09,3.09,0,0,1,2.4,2.46A2.15,2.15,0,0,1,35.31,122Z" fill="#333240"/><path d="M24.17,116.47a2.68,2.68,0,0,1,2.61,2.16,2.51,2.51,0,0,1-2,2.35,2.61,2.61,0,0,1-2.57-2.33A2.21,2.21,0,0,1,24.17,116.47Z" fill="#343241"/><path d="M91,124.36a2,2,0,0,1,2.1,1.87,1.32,1.32,0,0,1-1.4,1.44c-1.08.07-2.32-1-2.22-1.88S89.89,124.33,91,124.36Z" fill="#ae70de"/><path d="M80.93,125c0,.65-1,1.47-1.79,1.47a2.1,2.1,0,0,1-1.71-1.58A1.81,1.81,0,0,1,79,123.17,2.23,2.23,0,0,1,80.93,125Z" fill="#ae70de"/><path d="M58.46,122.48a.94.94,0,0,1-1.09.91c-.87,0-1.58-.47-1.63-1.39A1.15,1.15,0,0,1,57,120.75,1.52,1.52,0,0,1,58.46,122.48Z" fill="#ad70de"/><path d="M68.15,122a1.81,1.81,0,0,1,1.81,1.7,1.63,1.63,0,0,1-1.77,1.42,1.84,1.84,0,0,1-1.8-1.72A1.59,1.59,0,0,1,68.15,122Z" fill="#ae70de"/><path d="M45.62,119.55c.92.06,1.67.46,1.76,1.41.07.74-.41,1.24-1.26,1.24s-1.91-.79-1.78-1.4S44.68,119.45,45.62,119.55Z" fill="#ae70de"/><path d="M35.26,121.25c-.83-.11-1.51-.5-1.48-1.46,0-.55.19-1.29,1-1.15s1.74.34,1.8,1.38C36.63,120.78,36.11,121.22,35.26,121.25Z" fill="#ad70de"/><path d="M26.06,119a1.31,1.31,0,0,1-1.39,1.26c-1,0-2-.88-1.93-1.72a1.45,1.45,0,0,1,1.63-1.38A1.76,1.76,0,0,1,26.06,119Z" fill="#ae70de"/><path d="M43.35,68.93s4.2-.58,8.49-1S69,67,69,67v.63L43,70Z" fill="#dec3f0"/><polygon points="74.44 97.97 68.73 97.75 69.22 98.27 73.93 98.49 74.44 97.97" fill="#dec3f0"/><polygon points="70.23 103.72 45.67 101.42 45.83 102.95 66.15 104.53 70.23 103.72" fill="#32313f"/><path d="M60.35,106.57l-11.58-1a.58.58,0,0,1-.41-.74c.2-.55,16.14.83,16.14.83l5.19.45Z" fill="#dec3f0"/><polygon points="72.62 70.66 72.64 86.54 73.1 86.64 73.42 72.24 73.34 70.53 72.91 70.46 72.62 70.66" fill="#af73df"/></svg>