<svg xmlns="http://www.w3.org/2000/svg" width="48" height="48" viewBox="0 0 48 48">
    <path fill="#9B59B6" fill-rule="evenodd" d="M45.818 35.31l-20.727 9.871V23.6l20.727-9.871v21.583zM24 21.7l-5.973-2.844L38.58 9.242 44.372 12 24 21.7zm-1.09 23.481l-20.728-9.87V13.728l6.545 3.117v11.519c0 .459.286.847.688 1.009l-.002.004 5.434 2.173c-.242-.102.158.086.426.086a1.09 1.09 0 0 0 1.09-1.09V20.48l6.546 3.118V45.18zM24 2.3l5.863 2.792-20.372 9.7L3.628 12 24 2.299zm12.026 5.727L14.182 18.215v10.72l-3.273-1.31V16.364L32.44 6.317l3.587 1.709zm11.349 2.995l.003-.006L24.47.105S24.341 0 24 0c-.341 0-.47.106-.47.106L.623 11.015s0 .003.002.005C.538 11.057 0 11.35 0 12v24c0 .433.257.802.625.977l-.003.007 22.909 10.91.003-.007c.143.068.298.113.466.113.168 0 .323-.045.466-.113l.003.006 22.91-10.909-.004-.007c.368-.175.625-.544.625-.977V12c0-.239-.14-.746-.625-.979z"/>
</svg>
