<svg xmlns="http://www.w3.org/2000/svg" xmlns:xlink="http://www.w3.org/1999/xlink" width="44" height="44" viewBox="0 0 44 44">
    <defs>
        <path id="a" d="M0 .209h15.804v19.914H0z"/>
    </defs>
    <g fill="none" fill-rule="evenodd">
        <path fill="#00C967" d="M32.543 2.014c3.34 0 6.05 2.705 6.05 6.04 0 3.336-6.018 9.061-6.05 9.061-.001 0-6.05-5.725-6.05-9.06 0-3.336 2.709-6.041 6.05-6.041m0 18.122c.012 0 8.066-7.634 8.066-12.082S36.997 0 32.543 0c-4.455 0-8.067 3.606-8.067 8.054s8.045 12.082 8.067 12.082"/>
        <path fill="#00C967" d="M32.91 5.78c1.112 0 2.016.918 2.016 2.05 0 1.133-.904 2.051-2.017 2.051-1.114 0-2.016-.918-2.016-2.05 0-1.133.902-2.051 2.016-2.051m0 6.152c2.228 0 4.034-1.836 4.034-4.101 0-2.266-1.806-4.102-4.034-4.102-2.227 0-4.033 1.836-4.033 4.102 0 2.265 1.806 4.101 4.033 4.101"/>
        <g transform="translate(.276 19.39)">
            <mask id="b" fill="#fff">
                <use xlink:href="#a"/>
            </mask>
            <path fill="#00C967" d="M7.902 17.136c-.001 0-5.927-5.663-5.927-8.962C1.975 4.876 4.63 2.2 7.902 2.2s5.926 2.676 5.926 5.974c0 3.3-5.894 8.962-5.926 8.962m0-16.927C3.538.209 0 3.775 0 8.174c0 4.4 7.881 11.949 7.902 11.949.012 0 7.902-7.55 7.902-11.949S12.266.21 7.902.21" mask="url(#b)"/>
        </g>
        <path fill="#00C967" d="M7.243 30.017c-1.114 0-2.017-.919-2.017-2.05 0-1.133.903-2.052 2.017-2.052 1.113 0 2.016.919 2.016 2.051 0 1.132-.903 2.05-2.016 2.05m0-6.152c-2.228 0-4.034 1.837-4.034 4.102 0 2.265 1.806 4.102 4.034 4.102 2.227 0 4.033-1.837 4.033-4.102 0-2.265-1.806-4.102-4.033-4.102"/>
        <path fill="#00C967" d="M38.92 32h-6.21c1.167-2.761 1.835-5.819 1.951-9h6.868a20.067 20.067 0 0 1-2.609 9zm-14.66 9.843c3.184-1.832 5.713-4.569 7.489-7.843h5.883c-3.145 4.246-7.915 7.18-13.372 7.843zM22.886 34h6.683c-1.636 2.75-3.88 5.021-6.683 6.509V34zm0-11h9.807c-.123 3.182-.824 6.264-2.07 9h-7.737v-9zm-1.967-13h-6.683c1.636-2.75 3.881-5.022 6.683-6.509V10zm-8.863 0H6.173c3.145-4.246 7.915-7.18 13.373-7.843-3.185 1.832-5.714 4.569-7.49 7.843zm29.52 4c-.185-.584-.44-1-.984-1-1.218 0-1.06 1.035-.758 1.613.69 1.879 1.604 4.493 1.695 6.387h-6.947l-1.156 1.175a1.004 1.004 0 0 1-1.437 0L30.834 21h-7.948v-9a.991.991 0 0 0 .984-1c0-.553-.44-1-.984-1V2h1.402c.233-.005.483-.012.565 0a.991.991 0 0 0 .984-1c0-.553-.44-1-.984-1h-2.95C10.205 0 .674 9.435.275 21.229c0 0 .015.762.878.771.865.009 1.075-.559 1.075-.559l.12-1.382A20.058 20.058 0 0 1 4.884 12h6.211a24.674 24.674 0 0 0-1.562 5.345c-.108.619.344 1.192.963 1.192.481 0 .88-.358.962-.84.34-1.999.917-3.922 1.724-5.697h7.737v9h-3.935A.992.992 0 0 0 16 22c0 .552.441 1 .984 1h3.935v9h-3.935A.992.992 0 0 0 16 33c0 .552.441 1 .984 1h3.935v6.509c-2.12-1.125-3.92-2.701-5.379-4.592-.334-.434-.979-.454-1.362-.063a.951.951 0 0 0-.079 1.247c1.508 1.907 3.33 3.525 5.447 4.742a19.23 19.23 0 0 1-7.592-2.629.992.992 0 0 0-1.226.146 1.035 1.035 0 0 0 .209 1.609A21.265 21.265 0 0 0 21.902 44c11.953 0 21.64-9.85 21.64-22 0-2.454-.985-6.08-1.967-8z"/>
    </g>
</svg>
