<svg xmlns="http://www.w3.org/2000/svg" viewBox="0 0 141.62 134.39"><title>Artboard 11</title><path d="M125.61,66.15c.74,0,1.58.15,1.84,1s-.49,1.91-1.76,1.73c-2.15-.3-4.31,0-6.45-.36a17.55,17.55,0,0,0-3-.06A1.06,1.06,0,0,1,115,67.26c0-.75.25-1.44,1.25-1.4s1.76,0,2.64,0C118.92,66,123.38,66.1,125.61,66.15Z" fill="#e1c8cd"/><path d="M.87,124.79c-1-.61-.86-1.65-.86-2.57C0,114.47,0,106.72.15,99c.17-6.63,0-13.27.12-19.9.22-10.27,0-20.54.25-30.81.2-8.59.07-17.19.2-25.78.05-3.15.13-6.31.2-9.46,0-.62.08-1.24.77-1.48A1,1,0,0,1,3,12.22c.33.44.09.89,0,1.33A8.43,8.43,0,0,0,3.13,17c.1,4.32.24,8.63-.09,12.94C3,30.56,3,31.2,3,31.84,3,41.19,3,50.55,3,59.9c0,2.32-.28,4.63-.26,6.95,0,1.57,0,1.57,1.52,1.37.36,0,.71-.13,1.07-.16A10.9,10.9,0,0,1,6.47,68c3.7-.67,7.45-.91,11.17-1.43.95-.13,1.91-.26,2.86-.32s1.39-.61,1.42-1.64c0-2-.27-4.06-.27-6.11q0-21.22,0-42.46c0-.12,0-.24,0-.36.58-3.32,0-6.7.46-10,.12-.9-.09-1-.91-.57C19.15,6.24,17.08,7.45,15,8.66c-3.07,1.8-6.2,3.48-9.35,5.14a5.36,5.36,0,0,1-1.1.47c-.58.14-1-.07-1-.68S3.29,12.52,3.31,12a45.8,45.8,0,0,1,6-3.58c4.25-2.35,8.53-4.65,12.79-7,.28-.15.66-.26.8-.51.62-1.07,1.5-1,2.48-.66.22,6.79.1,13.59.1,20.38q0,55.29,0,110.59a7.58,7.58,0,0,0,0,1.43,9,9,0,0,1,0-1.56q0-63.87,0-127.74c0-1-.4-2.07.06-3.08l1.63.2c.74.07,1.28.35,1.31,1.2a7.38,7.38,0,0,1,.56,1.8c0,.47.33.66.74.8s.82.06.5.65c-1,.23-1.26.86-1.24,1.83,0,2,0,4,0,6.07,0,7.77.29,15.55-.24,23.31a14.77,14.77,0,0,1,0,1.63c.05,7.26.07,14.52,0,21.77.14,2.3-.24,4.6-.17,6.9a18.93,18.93,0,0,0,0,3.61,1.41,1.41,0,0,1,0,.41,38.5,38.5,0,0,0,0,5.37c0,.65-.15,1.29-.09,1.94.06,6.64.22,13.28,0,19.9-.28,7.63-.05,15.26-.18,22.88,0,.6-.06,1.2,0,1.8.05,2.38,0,4.77,0,7.15a4.49,4.49,0,0,1-.51,2.3c-.17,2.25-.35,2.46-2.08,2.6-2,.16-2.83-.57-3.34-2.85a2.36,2.36,0,0,1-.13-1.29c-.29-11.33-.05-22.67-.28-34C21.92,89.48,22,82.74,21.92,76c0-1.27,0-2.55,0-3.83,0-.89-.29-1.2-1.21-1.08-3.79.49-7.59,1-11.4,1.36-1.31.14-2.61.3-3.92.46-3,.24-2.64.11-2.66,2.81,0,9.14.09,18.29-.07,27.42-.09,5.07-.06,10.14-.26,15.2a7,7,0,0,0-.2,2.27,20.83,20.83,0,0,0,0,2.37C2.08,123.8,1.94,124.65.87,124.79Z" fill="#ae71df"/><path d="M28.78,12.72l0-6.21c0-1.71,0-1.71,1.67-1.79a2.24,2.24,0,0,1,1.84-.15c8.07,1.09,16.05,2.77,24.09,4.06,7.44,1.2,14.86,2.58,22.31,3.79,1.36.22,1.36.24,1.65-1.12a1.4,1.4,0,0,1,.25-.54l.32-.92c.32-.23.52,0,.7.2a1.77,1.77,0,0,1,.33,1.13c0,4,.21,8.08-.12,12.11,0,.44-.08.87-.08,1.31s0,1.12,0,1.68c.16,13.75-.24,27.5-.32,41.25,0,5.91.09,11.83-.21,17.74-.25,5.11,0,10.23-.24,15.34-.3,5.51,0,11-.22,16.54-.1,2.83-.17,5.67-.27,8.5,0,.86.2,2-1,2.43-.2.43-.18,1-.87,1.08s-.89-.48-1.1-1a2.15,2.15,0,0,1-.4-1.46c.1-12.64,0-25.27.06-37.9,0-2.48.29-5,.23-7.43-.07-3.08-.22-3.28-3.29-3.24-2.52,0-5-.38-7.54-.27a1.58,1.58,0,0,1-1.32-.46A11,11,0,0,1,65.41,71a1.73,1.73,0,0,1,.58-.65,1.67,1.67,0,0,1,.93-.17c3.84.33,7.71.2,11.56.6.76.08,1.36,0,1.47-.94.09-.7-.08-1.2-.91-1.18s-1.58-.2-2.38-.22a1.55,1.55,0,0,1-1.22-.37,9.05,9.05,0,0,1-.14-4,13.12,13.12,0,0,0,.12-2.73c0-6.74-.15-13.49.26-20.22,0-.53,0-1,0-1.58-.21-5.63.37-11.26.22-16.89,0-.4,0-.8,0-1.2,0-1.34-.14-1.47-1.5-1.67-3.44-.49-6.89-.94-10.32-1.48-2.93-.46-5.87-.77-8.79-1.28a6.55,6.55,0,0,0-1.65-.21c-7.66-1.1-15.34-2-23-3.31C30,13.41,29.22,13.43,28.78,12.72Z" fill="#4f3f70"/><path d="M22.22,75.85c0,5.83-.06,11.67.12,17.5.29,9.7,0,19.41.24,29.11.06,2.43.12,4.87.16,7.3a4.77,4.77,0,0,1-.27,1.76,4.21,4.21,0,0,1-1.85-.39L3.32,125a2.79,2.79,0,0,1-.62-2.35q0-9.51,0-19,0-8.86,0-17.72c0-2.12.14-4.22.21-6.34s.37-2.38,2.39-2.71c3.18-.13,6.34-.48,9.51-.78,2.14-.2,4.28-.3,6.42-.51A1.06,1.06,0,0,1,22.22,75.85Z" fill="#cd9d78"/><path d="M65.27,77.27a1.73,1.73,0,0,0,.92.21c3,.08,6,.19,9,.26,2.1.05,2.21,0,2.41,2a34.89,34.89,0,0,1,0,6.93c0,.44-.07.88-.07,1.31q0,18.9-.07,37.79c0,.79,0,1.59,0,2.38l-23.14,1.93c-6.61.56-13.21,1.09-19.83,1.48-2.2.13-4.39.15-6.59.2q.08-4.71.16-9.42c.16-.68.72-.78,1.28-.88,1.62-.28,3.26-.28,4.89-.4,4.79-.35,9.56-.74,14.34-1.17,1.06-.1,1.52-.52,1.42-1.57,0-.16,0,0,0-.12-.17-5.68.33-11.34.25-17,0-1.56-.11-1.78-1.69-1.7-6.15.33-12.31.14-18.46.26-.46,0-1.16.26-1.27-.28s.56-.87,1.12-1A50.22,50.22,0,0,1,36.86,98c4-.12,8,0,12-.26,1.25-.1,1.53-.27,1.58-1.59.08-2,.19-4,.24-6,.09-3.23.34-6.46.35-9.7,0-1-.39-1.36-1.29-1.39l-4.42-.2c-3.51-.15-7-.41-10.53-.56-1.6-.07-3.19-.25-4.78-.29a2.3,2.3,0,0,1-1.67-.56,2.73,2.73,0,0,1,.26-1.64.83.83,0,0,1,.67-.2c4.5,0,9,.1,13.5.45,1.67.13,3.35.21,5,.24,3,0,6.05.33,9.08.33,2.31,0,4.62.26,6.93.24A3.56,3.56,0,0,1,65.27,77.27Z" fill="#cd9d78"/><path d="M124.51,127.91l-.11,0c-2-.84-3.3-2.19-3.06-4.55-.82-.9-.33-2.08-.66-3.08-.1-.72-.16-1.45-.31-2.17a11.47,11.47,0,0,0-.23-2c-.65-5.84-1.33-11.69-2-17.53a5.88,5.88,0,0,0-.18-1.45c-.6-5.28-1.21-10.57-1.76-15.86,0-.74-.48-.92-1.1-1-.8,0-1.6,0-2.39,0a1.92,1.92,0,0,1-1.92-1.15A19.41,19.41,0,0,1,111,72.7c.57-.77,1.41-.57,2.18-.58,2.07,0,2.07,0,1.78-2l-.09-.47a14.35,14.35,0,0,0-.2-2.17,9.35,9.35,0,0,1-.14-1.39c-.33-.92-.05-1.91-.37-2.82-.69-5.92-1.42-11.83-2-17.75-.2-.94-.12-1.92-.35-2.86-.56-4.79-1.08-9.59-1.49-14.4a10.85,10.85,0,0,1,0-3.22c.19-.86,0-1.09-.86-1.2-4.39-.6-8.78-1.24-13.16-1.87q-3.33-.46-6.64-1a2.49,2.49,0,0,1-1.6-.74c-.74-1.79-.37-3.64-.27-5.48.33-.94,1.06-.79,1.79-.66,4.87.85,9.77,1.6,14.65,2.37,6,1,12.07,1.87,18.1,2.82,1.84.29,1.84.29,2.61-1.29.28-.52-.4-1.34.52-1.65a2.36,2.36,0,0,1,.61,2c.06,2.14-.1,4.28.12,6.42a39.84,39.84,0,0,0,.54,6.64c.1.89-.06,1.08-.88.87a6.36,6.36,0,0,0-1.07-.1,1.81,1.81,0,0,1-.38-1.45c0-1,0-2,0-3-.11-1.32-.5-1.74-1.8-1.95-2.15-.34-4.32-.63-6.48-.93a3.09,3.09,0,0,1-1.67-.56c-.34-.31-.16-.76-.34-1.12s-.23-.95-.82-.82-.53.55-.51,1c.09,1.47.13,3,.3,4.42q2.31,20.12,4.68,40.22,2.43,20.58,4.89,41.16,1.07,9,2.16,18.08C124.82,127.45,125.11,127.85,124.51,127.91Z" fill="#4f3f70"/><path d="M88,14.7a37.86,37.86,0,0,0,.16,5.43,3.12,3.12,0,0,1,.22,1.17c0,6.3,0,12.61,0,18.91a18.22,18.22,0,0,1,0,2.09q.09,10.47,0,21c0,1.74,0,3.49,0,5.23,0,1,0,2,0,3a8.48,8.48,0,0,1,.06.87c-.13,2.33,0,4.66-.07,7a3.38,3.38,0,0,1,0,.45c.21,6-.34,12-.24,18,0,.24,0,.47,0,.7q.09,10.14,0,20.27c.07,1.82,0,3.63,0,5.45a1.79,1.79,0,0,1-.35,1.34c-.08,1.83-.07,1.84-1.9,2.07-.74.1-1.48.17-2.21.25a4.51,4.51,0,0,1-.1-2.36c.22-8.84,0-17.68.25-26.51s0-17.67.2-26.5c.45-16.63,0-33.27.29-49.9.06-4.08.2-8.15.11-12.22a.9.9,0,0,1,.2-.55c2-.06,2.93.61,3.15,2.14A2.88,2.88,0,0,1,88,14.7Z" fill="#ae71df"/><path d="M79.42,128.07a3.13,3.13,0,0,0,.67-2.51c.14-5.63.19-11.27.27-16.9.1-7,.09-13.92.32-20.87.18-5.55,0-11.11.21-16.66.28-7.55,0-15.11.26-22.66.25-7.28,0-14.55.2-21.83.12-5.11.23-10.23.18-15.34,0-.56.18-1.25-.65-1.46.71-.79,1.79-.8,3.33,0a5,5,0,0,1,.31,3,79.39,79.39,0,0,0-.18,9c.08,9-.28,18-.26,27.08,0,6.88-.31,13.75-.22,20.62a5.92,5.92,0,0,1-.1,1.19,4.68,4.68,0,0,0-.18,1.18c0,4.74,0,9.48,0,14.22,0,5.78,0,11.56,0,17.35a5.52,5.52,0,0,1-.09,1.07,4.69,4.69,0,0,0-.19,1.17c0,3.48,0,7,0,10.42s0,6.83,0,10.25a2,2,0,0,1-.36,1.47C81.84,128.25,80.65,128.68,79.42,128.07Z" fill="#ae71df"/><path d="M3.31,12c.32.27.61.47.54,1-.16,1.25,0,1.36,1.21.76,1.66-.85,3.32-1.72,4.94-2.64,4-2.25,7.94-4.54,11.91-6.81A6.6,6.6,0,0,1,22.58,4C22,7.92,22.47,11.66,22,15.38a2.08,2.08,0,0,1-1.18.76c-3.82,1.4-7.52,3.08-11.28,4.64-.46.19-1.07.87-1.58,0,.26-.8,1-1,1.65-1.25A19.41,19.41,0,0,0,14,17.38c-2.47,0-4.77,0-7.07,0a.94.94,0,0,0-1.07,1.1c0,.12,0,.24,0,.36-.31,12.5-.32,25-.19,37.49,0,3.43.17,6.86.18,10.3a2.42,2.42,0,0,1-.34,1.72l-2.93.52c0-3.78,0-7.53,0-11.28,0-8.63-.05-17.26.08-25.88.08-5,.14-10,.14-15a14.27,14.27,0,0,1,0-3.33c.07-.4.13-.81.2-1.21Z" fill="#4f3f70"/><path d="M87.83,125.55c0-2.26,0-4.53,0-6.79.66-.69,1.53-.56,2.36-.6,4.3-.25,8.62-.14,12.9-.72l.83-.11c1.68-.25,1.72-.28,1.72-1.93q0-7.49,0-15c0-1.59-.07-1.66-1.71-1.66H89.68c-.62,0-1.29.13-1.82-.38V97.9c.49-.48,1.11-.37,1.7-.38,3.43,0,6.87,0,10.3,0,1.6,0,3.18-.27,4.78-.27.69,0,1-.34,1-1q0-6.95,0-13.9c0-.75-.36-1-1.07-1.14-2.37-.35-4.78-.25-7.16-.37s-4.78-.35-7.17-.34c-.81,0-1.72,0-2.21-.88,0-.07,0-.14,0-.21.34-.58.92-.58,1.47-.58,5.5-.07,11,.17,16.47.43,1.71.08,3.42,0,5.13,0,.33.65,1,.59,1.54.63a20.43,20.43,0,0,0,2.71,0c.94,0,1.32.31,1.15,1.24a2.13,2.13,0,0,1-1.59.34,49.88,49.88,0,0,1-5.73-.2c-1.45-.15-1.52.07-1.45,1.52.21,3.9.06,7.81.09,11.72,0,2.78,0,2.81,2.74,2.77a44.28,44.28,0,0,0,6.81-.19,2.5,2.5,0,0,1,.94.1,2.09,2.09,0,0,1,.13,1.21,2.14,2.14,0,0,1-1.59.36c-2.39,0-4.79,0-7.18,0-1.52,0-1.6.09-1.6,1.64q0,7.48,0,15c0,1.53.21,1.71,1.78,1.54,2.81-.3,5.63-.57,8.44-.85a4,4,0,0,1,2.13.11,4.28,4.28,0,0,1,.22,1.88,6.15,6.15,0,0,1-3.37.6,37.11,37.11,0,0,0-6.32.44c-.8.13-1.34.51-1.4,1.37,0,.49.15.78.68.74,3.26-.22,6.54-.22,9.79-.66.32,0,.6-.22.92-.27.12,1,.25,2,.37,3-3.27-.09-6.5.43-9.75.6s-6.58.58-9.87.86q-5.76.48-11.53.91A5,5,0,0,1,87.83,125.55Z" fill="#cd9d78"/><path d="M80.56,10.76c.12,2.37.12,2.35-2.11,2l-35.26-6c-4.25-.73-8.49-1.52-12.77-2a.77.77,0,0,0-.68-.18c-.79.11-1-.23-1-1a12.08,12.08,0,0,0-.18-1.88c.59.78,1.54.65,2.3.68A92.08,92.08,0,0,1,43.43,4.18C49.56,5.27,55.7,6.31,61.82,7.43c3.4.62,6.76,1.41,10.16,2C74.83,10,77.67,10.51,80.56,10.76Z" fill="#dec3f0"/><path d="M83.44,70.79c0-4.4,0-8.8.09-13.19.23-6.94,0-13.9.26-20.84s0-13.82.19-20.73c0-2.07.15-4.15.23-6.22l.46,0a64.57,64.57,0,0,1,.16,10.77c-.13,4-.12,8-.14,12,0,12.16.09,24.31-.11,36.47-.14,9,0,18.07-.22,27.1-.22,7.08,0,14.15-.23,21.22-.12,3.31.06,6.62-.26,9.92a4,4,0,0,1-.15.57H83c0-3.9,0-7.81,0-11.71a48.05,48.05,0,0,0,.11-5.23c.06-2.1-.1-4.21.08-6.31q0-9.23,0-18.44a2.86,2.86,0,0,0,.11-1.3V72.09A4.07,4.07,0,0,1,83.44,70.79Z" fill="#4f3f70"/><path d="M25.6.25a99.78,99.78,0,0,1,.25,12q.06,59.56,0,119.13c0,.6.06,1.2.07,1.8,0,.32,0,.69-.45.68s-.35-.35-.36-.62,0-.4,0-.6V1.73c0-.51-.13-1,.25-1.5A.31.31,0,0,1,25.6.25Z" fill="#4f3f70"/><path d="M124.78,42.68c-2.5-.16-5-.32-7.5-.46-.44,0-.63-.18-.68-.64-.31-2.56-.64-5.12-.95-7.68-.1-.83.09-1.09,1.06-.92,1.87.32,3.79.41,5.68.59l2.37.25a1.58,1.58,0,0,1,.37,1.1q0,3.33,0,6.65A1.59,1.59,0,0,1,124.78,42.68Z" fill="#e1c8cd"/><path d="M88,14.7c-.07-.91-.15-1.82-.22-2.73.44.65,1.16.62,1.81.71,3.57.52,7.16,1,10.73,1.53,4.35.66,8.7,1.39,13,2.08l10.34,1.63a11.91,11.91,0,0,0,1.2,0c0,2,0,2-2,1.73-11.37-1.8-22.75-3.58-34.12-5.44C88.21,14.16,88.31,14.59,88,14.7Z" fill="#dec3f0"/><path d="M114.43,24.24l7.61,1c.19,0,.38.1.58.12,1.62.17,2.1.67,2.13,2.3,0,1.47,0,2.94,0,4.41-3-.31-5.91-.63-8.87-.93-.51-.06-.67-.4-.72-.81C114.93,28.33,114.68,26.28,114.43,24.24Z" fill="#e1c8cd"/><path d="M5.4,77c-.23.07-.44.17-.67.22-1.05.2-1.45.73-1.48,1.87C2.9,91.31,3.19,103.49,3,115.66c0,2.52,0,5,0,7.55A15.43,15.43,0,0,0,3.32,125a4.86,4.86,0,0,1-2.45-.18,4.14,4.14,0,0,0,1.22-1.7A13.54,13.54,0,0,1,2,120.71a12,12,0,0,1,.08-2.16c0-3.43,0-6.87.09-10.3.34-11.41.11-22.83.17-34.24,0-1.06.29-1.49,1.34-1.32.61.1,1.23-.48,1.84,0A9.27,9.27,0,0,1,6,76.19.87.87,0,0,1,5.4,77Z" fill="#4f3f70"/><path d="M124.59,64.55c-1.67.39-3.3,0-4.94-.27-.43,0-.37-.43-.41-.74-.31-2.44-.61-4.88-.95-7.32-.13-1,.11-1.42,1.19-1.29,1.77.21,3.55.35,5.33.52a1.94,1.94,0,0,1,.32,1.36c0,2.1,0,4.2,0,6.3C125.12,63.63,125.26,64.26,124.59,64.55Z" fill="#e1c8cd"/><path d="M124.77,53.73c-2,.16-4-.36-6-.23-.56,0-.78-.21-.84-.75-.21-1.72-.44-3.45-.66-5.18-.08-.66-.16-1.33-.23-2a3.37,3.37,0,0,1,1.86.08c1.53.19,3.06.42,4.58.65a1.92,1.92,0,0,1,1.39.57A16.52,16.52,0,0,1,124.77,53.73Z" fill="#e1c8cd"/><path d="M122.39,77.2c-1.56,0-1.55,0-1.71-1.55-.07-.75-.19-1.49-.28-2.24-.27-.94.35-1,1-1,.87.1,1.75.06,2.6.2s1.19-.3,1.15-1.13L125.05,70c.21-1.1-.23-2.29.43-3.34.84-.06.92.61,1,1.16a17.53,17.53,0,0,1,.07,2.71,20.74,20.74,0,0,0,0,2.23c0,1,0,2.07,0,3.1s-.28,1.4-1.33,1.32A11.83,11.83,0,0,0,122.39,77.2Z" fill="#4f3f70"/><path d="M125,89.94A4.72,4.72,0,0,0,124,90c-1.27.41-1.69-.13-1.79-1.34-.21-2.45-.51-4.88-.77-7.33a3.58,3.58,0,0,1,3.78.43,44.66,44.66,0,0,1,.11,7.67A.89.89,0,0,1,125,89.94Z" fill="#e1c8cd"/><path d="M125.05,91.44c3.06-.1,3.06-.1,3.06,2.88V102c0,1.88,0,1.88-1.89,1.93a2.16,2.16,0,0,1-.39-1.7q0-4.31,0-8.61c0-.7,0-1.38-.72-1.77A.25.25,0,0,1,125.05,91.44Z" fill="#af71df"/><path d="M126.21,105.57l.93-.2c.7-.13,1,.09,1,.88,0,3.39,0,6.79,0,10.19,0,1.47-1.17.92-1.91,1.12a3,3,0,0,1-.35-1.71c-.09-3,0-6,0-8.94A1.86,1.86,0,0,1,126.21,105.57Z" fill="#ae71df"/><path d="M126.18,78.73a3.57,3.57,0,0,0,.47,0c1.12-.19,1.52.2,1.48,1.4-.1,2.58,0,5.17,0,7.76,0,2,.48,1.88-1.88,1.92a1.48,1.48,0,0,1-.4-1.21c0-2.87,0-5.74,0-8.6A1.61,1.61,0,0,1,126.18,78.73Z" fill="#af72df"/><path d="M124.78,42.68c0-3,0-5.91,0-8.86,2.35,0,2.34,0,2.6,2.24.22,1.9.4,3.8.77,5.67.25,1.26-.26,1.33-1.2,1.13-1-.5-.55-1.49-.71-2.24a12,12,0,0,1-.26-2.94c.05-.54-.12-1.06-.12-1.6.14,1.75.23,3.5.21,5.26a1.94,1.94,0,0,1-.32,1.36Z" fill="#4f3f70"/><path d="M126.18,78.73c0,3.68,0,7.36,0,11a2.18,2.18,0,0,1-1.18.17c0-2.78-.07-5.57-.1-8.36a2.46,2.46,0,0,0-2.4-1.13,1.39,1.39,0,0,1-1.3-.34c-.22-1.82-.47-1.67,1.41-1.58C123.83,78.58,125,78.66,126.18,78.73Z" fill="#4f3f70"/><path d="M122.39,77.2a6.66,6.66,0,0,1,2.59-.13c1,.05,1.3-.34,1.24-1.3s0-2.06,0-3.09a5.1,5.1,0,0,0,0-2.13c0-.89,0-1.79-.1-2.68,0-.43.14-1.08-.6-1.2-.08,0-.11-.07-.09-.12a.1.1,0,0,1,.07-.06c2.39.26,2.38.26,2.41,2.65s.08,4.62.18,6.92c0,.91-.3,1.19-1.17,1.16C125.42,77.16,123.91,77.2,122.39,77.2Z" fill="#af72df"/><path d="M138.45,115.09c.11.79-.57.62-1,.74s-.67-.13-.74-.62c-.43-3.32-.88-6.63-1.37-9.93-.09-.58.13-.71.6-.74s.9-.38,1,.37Q137.72,110,138.45,115.09Z" fill="#504071"/><path d="M136.59,102c.15.42,0,.67-.57.66s-.93.26-1-.54c-.34-2.69-.75-5.36-1.12-8a15.39,15.39,0,0,1-.23-1.9c0-.35-.51-1,.42-1,.76-.06,1.05.18,1.14.93.23,1.9.52,3.79.79,5.69C136.19,99.18,136.38,100.56,136.59,102Z" fill="#504070"/><path d="M126.2,24.7c-.67-.11-.47-.64-.47-1,0-1.71,0-3.42,0-5.12a11.91,11.91,0,0,0-.26-2.23,1.78,1.78,0,0,1,.34-.48,1,1,0,0,1,1.12-.22c.69.25.74.86.74,1.49,0,3.06,0,6.13,0,9.3-.47-.44-.44-.95-.59-1.38S126.67,24.32,126.2,24.7Z" fill="#af72df"/><path d="M126,55.65c2.24,0,1.86,0,1.88,1.88,0,2.11,0,4.23.07,6.35,0,.88-.21,1.28-1.13,1.11-.5-.09-1,.18-1.51-.16a11.4,11.4,0,0,0,.31-3.9c0-1.32,0-2.63,0-3.94A1.74,1.74,0,0,1,126,55.65Z" fill="#af71df"/><path d="M133.93,89.47c-.55.11-.74-.11-.81-.68-.38-3-.82-6-1.21-9,0-.33-.53-.92.34-.94.53,0,1.08-.13,1.18.74.33,2.69.75,5.36,1.13,8a5.75,5.75,0,0,0,.13.94C134.92,89.32,134.62,89.55,133.93,89.47Z" fill="#504071"/><path d="M125.27,70c0,.07.14.13.14.19,0,.88.31,1.91,0,2.59-.5.94-1.53-.12-2.36.07a5.56,5.56,0,0,1-1.89-.13c-.55-.08-.71.18-.71.66-.38-1.18-.1-2.43-.41-3.62a1.54,1.54,0,0,1,1.23-.33A11.82,11.82,0,0,1,125.27,70Z" fill="#dec3ef"/><path d="M130.09,66.81c1.14-.26,1.62,0,1.74,1.18.3,2.77.73,5.53,1.1,8.29,0,.36.3.86-.42.82-.48,0-1,.18-1.1-.67C131,73.23,130.54,70,130.09,66.81Z" fill="#504071"/><path d="M124.7,46.8a67.37,67.37,0,0,1-7.61-1.23c-.2-1.89-.2-1.87,1.71-1.61s4,.47,6,.7A1.61,1.61,0,0,1,124.7,46.8Z" fill="#cd9e78"/><path d="M125,91.64c1-.19,1.19.25,1.18,1.16,0,3.7,0,7.4,0,11.1a2,2,0,0,1-1.19.21,1.63,1.63,0,0,1-.4-1.3c0-1.37,0-2.74,0-4.11a14.23,14.23,0,0,1,0-1.6c-.07-1.39,0-2.77,0-4.15A1.61,1.61,0,0,1,125,91.64Z" fill="#4f3f70"/><path d="M125.75,44.65l1.4.22c.77,1.6.52,2.43.76,4.13-.11,1.34.2,3.08,0,5a8.78,8.78,0,0,1-2.89-.19,3,3,0,0,0,.58-2c0-2,0-3.9,0-5.85A2.35,2.35,0,0,1,125.75,44.65Z" fill="#ae71df"/><path d="M127.15,44.87c1.09-.23,1.53.23,1.65,1.33.25,2.24.64,4.47.91,6.72,0,.37.47,1-.25,1.16s-1.28,0-1.31-.93C128.15,53,127.22,46.57,127.15,44.87Z" fill="#504071"/><path d="M129.21,55.88c.57-.06.94.07,1,.78.31,2.53.68,5.05,1,7.58,0,.32.37.87-.39.81-.46,0-1,.18-1.11-.68-.25-2.21-.61-4.41-.93-6.61-.06-.43-.13-.86-.21-1.3S128.7,55.77,129.21,55.88Z" fill="#504071"/><path d="M126.21,105.57c0,4,0,8,0,12-.66.31-.49-.23-.55-.53a56.87,56.87,0,0,1-.71-10.26C124.93,105.76,125.21,105.36,126.21,105.57Z" fill="#514071"/><path d="M139.88,124.68c-2-.44-2-.45-2.16-2.24-.14-1.31-.33-2.61-.5-3.91-.06-.52-.07-1,.67-1,.54,0,1-.08,1.06.7C139.2,120.41,139.56,122.53,139.88,124.68Z" fill="#504171"/><path d="M125,91.64c0,1.84-.05,3.68-.08,5.53a1.41,1.41,0,0,1-1.65.23c-.23-1.68-.47-3.36-.69-5-.07-.49.15-.74.67-.72a4.06,4.06,0,0,0,1.76-.2A.45.45,0,0,0,125,91.64Z" fill="#e1c8cd"/><path d="M126,55.65c0,2.71,0,5.42,0,8.12,0,.53.09,1.09-.71,1.06-.22-.11-.55,0-.68-.28.42-.35.2-.82.2-1.23,0-2.62,0-5.24,0-7.87Z" fill="#514171"/><path d="M125.27,70,120,69.79a5.83,5.83,0,0,0-.08-.84c-.14-.61,0-.76.68-.67a19,19,0,0,0,2.39.09c1.37,0,1.56-.3,1-1.67-.06-.23,0-.33.25-.27l1.23.06a.55.55,0,0,0,0,.18C125.34,67.78,125.7,68.94,125.27,70Z" fill="#cd9e78"/><path d="M125.75,44.65a10.39,10.39,0,0,1,.17,3.29c0,1.62,0,3.25,0,4.87,0,.74-.25,1-.93,1l-.25-.05q0-3.46-.07-6.93c0-.71,0-1.42,0-2.14Z" fill="#524173"/><path d="M126.2,119c1.92-.31,2-.83,1.87,1.71,0,.75-.14,1.49-.18,2.24a.93.93,0,0,1-1,1c-.54,0-.67-.46-.72-.92-.06-.63-.13-1.26-.2-1.88C126.28,120.47,125.79,119.71,126.2,119Z" fill="#af72df"/><path d="M125,98.63c0,1.83.05,3.66.07,5.48-.58.21-1,.31-1-.6-.12-1.72-.41-3.44-.63-5.15A1.65,1.65,0,0,1,125,98.63Z" fill="#e1c9ce"/><path d="M121.24,80.11c.75,0,1.5,0,2.24.06s1.57.32,1.46,1.41a19.84,19.84,0,0,0-3.53-.26C121.35,80.92,121.29,80.52,121.24,80.11Z" fill="#cc9d79"/><path d="M126.17,37.67a50.3,50.3,0,0,0,.76,5.19,1.62,1.62,0,0,1-1-.14,33.43,33.43,0,0,1-.1-4.8C125.85,37.74,126,37.65,126.17,37.67Z" fill="#a971d7"/><path d="M125,98.63c-.55-.06-1.13.12-1.61-.27,0-.32,0-.64,0-1l1.65-.24Z" fill="#cd9e7a"/><path d="M126.17,37.67c-.47,1.67-.09,3.37-.21,5l-.23,0V35h.15Z" fill="#9a66c8"/><path d="M126.2,119a4.34,4.34,0,0,1-.19,2.14c-.06-.55-.12-1.09-.2-1.63C125.77,119.23,125.77,119,126.2,119Z" fill="#695b85"/><path d="M121.59,66.17h-1.48C120.84,65.93,121.23,65.94,121.59,66.17Z" fill="#f1e4da"/><path d="M124.28,66.43l-.25.27-.81-.38C123.66,66.19,124,66.13,124.28,66.43Z" fill="#eddcce"/><path d="M28.32,77.49c5.68.44,11.37.73,17.06,1a37,37,0,0,1,5.36.31c.66.13.89.35.73,1a8.73,8.73,0,0,0-.14,1.78c-.18,4.86-.33,9.73-.51,14.59-.08,1.9-.12,1.82-2,1.92-4.31.22-8.63.07-12.94.28a35.91,35.91,0,0,0-5.95.39c-.43.09-.88.06-1,.47,3.05,0,6.11,0,9.18,0,3.56.08,7.1-.25,10.66-.22,1.8,0,1.81.06,1.81,1.82,0,5.95-.44,11.9-.25,17.85,0,1.1-.31,1.4-1.41,1.47-4.33.31-8.64.8-13,1.12-2.31.17-4.62.25-6.92.49a1.57,1.57,0,0,0-1,.49C27.91,107.4,28.35,92.44,28.32,77.49Z" fill="#e1c8cd"/><path d="M8.12,21.07c4.63-1.93,9.19-4,13.92-5.7q0,22.26,0,44.51c0,1.87.11,3.75.18,5.62,0,.61-.11.91-.82,1-4,.43-8.06.93-12.09,1.41-1,.12-2,.27-2.95.4a2,2,0,0,1-.33-1.48c0-11.64,0-23.28,0-34.92a5.45,5.45,0,0,1,.08-1.07,1.52,1.52,0,0,1,1.2-1.17c4-1.23,7.78-2.9,11.71-4.23.32-.1.7-.21.79-.66-.53-.2-.95.09-1.37.27-3.55,1.45-7.2,2.66-10.69,4.25-1.08.49-1.36.3-1.4-.88s0-2.55,0-3.83a7.83,7.83,0,0,1,.23-2.46C6.81,21.37,7.23,20.86,8.12,21.07Z" fill="#cd9d78"/><path d="M28.78,12.72a80.89,80.89,0,0,0,9.64,1.65c5.09.77,10.18,1.47,15.27,2.19a1.9,1.9,0,0,1,.16,1.17c-.49,5.91-.13,11.82-.23,17.73,0,2.84,0,2.79-2.78,2.62q-7.89-.48-15.77-1a53.73,53.73,0,0,1-5.37-.44,1.64,1.64,0,0,1-1.1-.38,23,23,0,0,1,.14-4.15Q28.74,22.4,28.78,12.72Z" fill="#e1c8cd"/><path d="M28.53,59.79l.06-22.14c.5-.47,1.12-.34,1.71-.37a58.69,58.69,0,0,1,9.08.5c4,.46,8.1.73,12.15,1.18,1.83.2,2.08.48,2.08,2.35,0,6.11-.37,12.21-.25,18.32,0,1.47-.29,1.72-1.8,1.69-3.59-.09-7.17-.43-10.75-.65-3.11-.18-6.21-.46-9.32-.55A12.27,12.27,0,0,1,28.53,59.79Z" fill="#e1c8cd"/><path d="M28.53,59.79c.62-.61,1.29,0,1.93,0,4.59,0,9.14.55,13.72.75,2.66.12,5.32.36,8,.49.69,0,.82-.18.82-.77q0-1.92,0-3.84c.07-5.19.13-10.38.27-15.56,0-1.07-.41-1.41-1.34-1.49-5.35-.47-10.7-.9-16-1.47-2.43-.26-4.86-.15-7.29-.21,0-.48,0-.95,0-1.43q6.24.47,12.47.91c1.51.1,3,.12,4.53.24,2.14.17,4.29.23,6.42.51.91.12,1.24-.15,1.23-1.15q-.06-8.25,0-16.51a14.59,14.59,0,0,1,.42-3.66,2.57,2.57,0,0,1,1.45.18c-.22,3-.06,5.91-.08,8.86,0,3.52,0,7,0,10.55,0,1.47.09,1.5,1.55,1.63,4.58.38,9.16.73,13.73,1.12,1.47.12,3,.14,4.42.3a1.84,1.84,0,0,1,1.23.36V41c-.48.43-1,.28-1.6.23-4.29-.41-8.59-.65-12.89-.86-1.79-.09-3.58-.22-5.38-.31-1.17-.06-1.27,0-1.28,1.11-.06,5.94.36,11.89.23,17.84,0,1.54.32,1.88,1.9,2,5.37.31,10.74.74,16.1,1.2,1,.09,2,.22,2.67-.76-.06,2.23-.11,4.45-.17,6.67a1.84,1.84,0,0,1-1.46.38c-3.63,0-7.25-.2-10.88-.42-2-.12-4-.17-6-.23-4.87-.14-9.73-.45-14.59-.58-4.34-.11-8.69-.39-13-.45a1.63,1.63,0,0,1-1.13-.31,3.53,3.53,0,0,1-.12-2.33C28.54,62.72,28.39,61.26,28.53,59.79Z" fill="#cd9d78"/><path d="M28.5,66.52c4.38-.19,8.76.14,13.13.37,2.11.11,4.22.09,6.34.22,4.85.29,9.71.35,14.57.57,4.34.2,8.67.53,13,.45,1.31,0,2.6.3,3.92.13.59-.07,1,.19.88.91a4.18,4.18,0,0,0,0,.71c0,1.06-.42,1.56-1.59,1.39-4.24-.6-8.52-.37-12.77-.71a11.58,11.58,0,0,1-2.28.09,7,7,0,0,0-1.83-.12H60.61a8.54,8.54,0,0,1-1.51-.12c-9.62,0-19.23-.61-28.86-.48a8.84,8.84,0,0,0-1.78.13A7.19,7.19,0,0,1,28.5,66.52Z" fill="#dec3f0"/><path d="M28.46,70.06c.15-.6.64-.5,1.07-.51,6.27-.08,12.53.16,18.8.39,3.63.14,7.26.26,10.9.39q.12.06.09.12s-.06.07-.09.07c-6.87.11-13.73-.13-20.6-.19a76.14,76.14,0,0,0-10,.15c-.05,0-.11-.1-.16-.16Z" fill="#514172"/><path d="M2.8,13.43v3.33A5.81,5.81,0,0,1,2.8,13.43Z" fill="#b787df"/><path d="M2.08,120.7c0,.8,0,1.59,0,2.39-.44-.77-.11-1.59-.2-2.38C2,120.59,2,120.59,2.08,120.7Z" fill="#ae71df"/><path d="M2.08,120.7H1.89c.07-.72-.22-1.47.19-2.16Z" fill="#ae71df"/><path d="M75.73,61.46c0,1.07-.54,1.26-1.51,1.17-3.93-.36-7.86-.65-11.79-.94-2.14-.16-4.29-.33-6.44-.42-1.19-.05-1.31-.79-1.31-1.68,0-2.84,0-5.68,0-8.52,0-3.34-.12-6.68-.19-10,0-1.57,0-1.55,1.61-1.31s3.1.12,4.65.26c3.37.3,6.76.35,10.15.55,1.7.1,3.4.32,5.11.49Q75.85,51.26,75.73,61.46Z" fill="#e1c8cd"/><path d="M76,39.56c-4.2-.15-8.4-.48-12.59-.9-2.37-.24-4.75-.39-7.13-.51-1.61-.09-1.6,0-1.61-1.71,0-6.22.12-12.44-.07-18.66,0-.43,0-.91.56-1L70,18.81c1.85.27,3.7.57,5.56.81.59.07.81.24.8.88C76.2,26.85,76.1,33.21,76,39.56Z" fill="#e1c8cd"/><path d="M63.57,70.53l2.41,0-.27.45c-.82-.51-1.75-.09-2.61-.27C63.09,70.3,63.33,70.41,63.57,70.53Z" fill="#4f3f70"/><path d="M16.25,123c1.87.68,3.21.58,4.22,2.2a1.62,1.62,0,0,1,0,2,1.44,1.44,0,0,1-1.78.48,8.13,8.13,0,0,1-3.67-1.6,1.72,1.72,0,0,1-.38-2A1.7,1.7,0,0,1,16.25,123Z" fill="#fefefe"/><path d="M20.17,121c-2.33-.33-4.65-.64-7-1q-4.29-.66-8.58-1.37c-.38-.06-1.08,0-.95-.6s.75-.39,1.22-.32L17,119.26l3.18.47c.48.07,1.07.08,1.05.71S20.57,120.86,20.17,121Z" fill="#e1c8cd"/><path d="M11.23,123.41a1.49,1.49,0,0,1-2,1.54,10.27,10.27,0,0,1-2.83-1.1c-.62-.46-.95-1-.56-1.74a1.24,1.24,0,0,1,1.8-.58,10.78,10.78,0,0,0,2.43.72A1.23,1.23,0,0,1,11.23,123.41Z" fill="#fefefd"/><path d="M12.08,103.91h6.23c.55,0,1.28-.06,1.27.71s-.74.7-1.29.7c-3.87,0-7.73-.33-11.61-.26-.63,0-1.83.06-1.79-.7.06-.94,1.17-.39,1.79-.42,1.8-.08,3.6,0,5.4,0Z" fill="#e1c7cb"/><path d="M12.43,108c-2.35,0-4.71,0-7.06,0-.33,0-.93.29-1-.31,0-.41.53-.35.88-.4a76.21,76.21,0,0,1,11.2-.47c1.24,0,2.48,0,3.71,0,.43,0,1-.07,1,.55s-.5.66-1,.66c-2.07,0-4.15,0-6.22,0Z" fill="#e1c8cd"/><path d="M13.09,109.9c1.67.1,4.15-.22,6.6.23a5.47,5.47,0,0,1,.8.19c.26.1.55.24.48.59s-.36.38-.65.41a32.48,32.48,0,0,1-3.69-.22c-3.42,0-6.85,0-10.27-.24-.41,0-1,.11-1-.51s.66-.44,1.07-.45C8.38,109.89,10.34,109.9,13.09,109.9Z" fill="#e1c8cc"/><path d="M14.57,89a60.2,60.2,0,0,1,6.31.16c.4.06,1.15-.08,1,.66-.08.55-.7.4-1.12.39-2.83-.07-5.66-.12-8.49-.24-2.2-.09-4.38.27-6.58.23-.41,0-1.05.17-1.08-.42s.62-.48,1-.53A81.89,81.89,0,0,1,14.57,89Z" fill="#e1c8cd"/><path d="M18.71,77.73h.84c.44,0,1,0,1,.57s-.57.63-1,.61c-3.79-.21-7.5.82-11.28.76a21.94,21.94,0,0,0-3.31.38c-.35,0-.7,0-.78-.33s.29-.46.61-.57a15.92,15.92,0,0,1,4.59-.61C12.49,78.46,15.58,77.9,18.71,77.73Z" fill="#e1c8cc"/><path d="M18.24,114.65c-4.18-.27-8-.77-12-.69-.39,0-.91,0-1-.52-.06-.63.56-.42.89-.47a23.72,23.72,0,0,1,6.07,0c2.14.2,4.28.36,6.41.56.41,0,1-.12,1.07.47s-.61.46-1,.59A1.93,1.93,0,0,1,18.24,114.65Z" fill="#e1c8cc"/><path d="M6,115.17c4.4.27,8.79.55,13.15,1.24a5.82,5.82,0,0,1,.68.2c.25.07.5.18.47.46s-.34.26-.57.27A34.68,34.68,0,0,1,14.8,117c-2.29-.16-4.57-.49-6.87-.61-1-.06-2-.25-3.08-.28-.43,0-.9-.15-.87-.61s.55-.33.89-.34Z" fill="#e1c8cc"/><path d="M4.51,98.41A2,2,0,0,1,5.8,97.9c4.62-.26,9.25-.28,13.88-.25.37,0,.91-.11.88.51s-.57.43-.93.46c-4.38.39-8.78.16-13.16.23A3.33,3.33,0,0,1,4.51,98.41Z" fill="#e1c7cc"/><path d="M12.44,87.35c-2.19,0-4.39,0-6.58,0-.36,0-1,.21-1-.32s.56-.37.9-.42c4.48-.67,9-.42,13.48-.45.47,0,1.1,0,1.07.66s-.69.52-1.15.52h-6.7Z" fill="#e1c8cc"/><path d="M10.39,101.25c2.84-.21,5.65.37,8.49.25a.25.25,0,0,1,.12,0c.61.25,1.76-.08,1.7.83,0,.72-1.08.35-1.65.34-4.66-.15-9.31-.61-14-.47-.26,0-.65.09-.66-.29s.34-.37.62-.44C6.8,101,8.61,101.41,10.39,101.25Z" fill="#e1c8cd"/><path d="M14.15,84.46c-2.56-.18-5.53.38-8.52.24h-1c-.21,0-.43-.09-.45-.31s.22-.37.47-.4c1.3-.16,2.6-.4,3.9-.46,3.18-.13,6.37-.18,9.55-.26.6,0,1.5,0,1.51.59s-.89.6-1.47.61C17,84.47,15.78,84.46,14.15,84.46Z" fill="#e1c8cc"/><path d="M13.23,96a67.13,67.13,0,0,1-8.12-.25c-.36,0-1,.14-.86-.47s.57-.32,1-.32a132.69,132.69,0,0,0,13.38-.13,7.26,7.26,0,0,1,1.68,0c.32,0,.78.15.72.63s-.42.35-.76.38C17.84,96.09,15.41,95.9,13.23,96Z" fill="#e1c7cc"/><path d="M12.3,93.1H5.49c-.33,0-.83.18-.9-.31s.48-.46.78-.54a4.19,4.19,0,0,1,1.18-.1c3.23,0,6.46,0,9.69,0a15,15,0,0,1,3.42,0c.35.07.83,0,.84.46s-.51.51-.9.51Z" fill="#e1c8cd"/><path d="M17.37,81.82c-4,.34-8.12.12-12.15.67-.33,0-.82.22-.89-.29s.44-.55.77-.59a49.34,49.34,0,0,1,5-.48c2.91,0,5.81-.28,8.71-.38.55,0,1.65-.28,1.65.63s-1,.36-1.51.43S17.89,81.82,17.37,81.82Z" fill="#e1c8cc"/><path d="M75.78,108.53v8c0,1.69,0,1.71-1.65,1.71-4.31,0-8.58.6-12.87.92-2.86.21-5.71.41-8.56.76-.78.1-1-.27-.93-1,.11-3.23.24-6.46.25-9.69,0-3,.43-6,.24-9-.07-1.1.47-1.24,1.38-1.24,5.68,0,11.36,0,17,0,1.24,0,2.46-.21,3.69-.28,1.08-.06,1.5.28,1.47,1.42-.07,2.76,0,5.52,0,8.28Z" fill="#e1c8cd"/><path d="M64.44,98.14c-3.43,0-6.87,0-10.31,0-.6,0-1.36.61-1.74,0a3.66,3.66,0,0,1-.1-1.88c.27-5.43.23-10.86.22-16.28,0-.81.27-1.05,1-1,3.69.24,7.39.46,11.08.68,1.83.11,3.66.14,5.49.23s3.73.36,5.61.29c.78,0,.89.42.72,1a7.38,7.38,0,0,0-.17,2.14c0,4.63-.4,9.25-.24,13.88,0,.82-.3,1-1.05,1-3.52,0-7,0-10.55,0Z" fill="#e1c8cd"/><path d="M88.07,63.37l0-21.12c1.15-.4,2.3,0,3.42.15,6.42.7,12.84,1.39,19.25,2.14a2,2,0,0,1,1.68.75l2,18.07c.25.91-.21,1.24-1,1.29a25.41,25.41,0,0,1-4.18-.31c-.83-.08-1-.77-1-1.43.08-2.48-.36-4.95-.27-7.43a66.91,66.91,0,0,0-.33-8.13,19.33,19.33,0,0,0-.35,3.41c0,3.8,0,7.59,0,11.39,0,1.77-.27,2.09-2,2-2.72-.1-5.43-.18-8.14-.38-2.47-.18-5,0-7.43-.08A2.48,2.48,0,0,1,88.07,63.37Z" fill="#e1c8cd"/><path d="M88.11,40.31q0-9.87,0-19.73a1.56,1.56,0,0,1,.14-.45,31.92,31.92,0,0,0,6.42,1.22c4.27.67,8.54,1.27,12.82,1.86a34.73,34.73,0,0,1,3.77.59c-1.1,1.45-.64,3.09-.51,4.62.39,4.77.93,9.53,1.41,14.29,0,1-.79.71-1.31.65-3.21-.36-6.41-.77-9.62-1.14-3.77-.43-7.52-1-11.29-1.34A2.56,2.56,0,0,1,88.11,40.31Z" fill="#e1c8cd"/><path d="M120.45,116.16c-2,.23-3.94.48-5.91.68s-3.8.31-5.7.51c-.92.09-1.14-.28-1.13-1.15q0-8.39,0-16.76c0-.85.25-1.09,1.08-1.08,3.24,0,6.47,0,9.7,0Z" fill="#e1c8cd"/><path d="M118.34,97.18a6.17,6.17,0,0,1-2.54.45c-2.32,0-4.64,0-7,.05-1.07,0-1.32-.48-1.33-1.34s0-2,0-3c0-3,0-6.08,0-9.12a13.19,13.19,0,0,0-.2-2.26c-.14-.78.1-1.21,1-1.12,2.74.28,5.5.25,8.25.27Q117.45,89.15,118.34,97.18Z" fill="#e1c8cd"/><path d="M88.07,63.37a126.06,126.06,0,0,1,15.3.43c3.62.33,3.62.39,3.62-3.17,0-3.23,0-6.47,0-9.71,0-1.35.15-2.7.23-4.05,0-.32,0-.73.45-.7s.45.44.47.73c.11,1.51.27,3,.25,4.54-.07,3.87.28,7.73.25,11.61,0,.78.25,1,1,1,1.27,0,2.55.1,3.81.22.76.07,1-.26,1-.94.36.85.06,1.78.33,2.64-.42.4-1,.21-1.48.35s-1,.21-1,.85.66.57,1.13.63a2.72,2.72,0,0,0,1.47-.38,6.31,6.31,0,0,1,.18,2.12,2,2,0,0,1-1.71.33c-3-.2-6-.32-9-.45-5.07-.21-10.13-.52-15.21-.46a1.68,1.68,0,0,1-1.23-.38C88.06,66.86,88.06,65.12,88.07,63.37Z" fill="#cd9d78"/><path d="M88.05,68.61c6.59-.2,13.15.42,19.73.53,2.46,0,4.92.28,7.39.43a13.21,13.21,0,0,1,.36,2.35c.15.54-.23.57-.62.56-.84,0-1.68,0-2.51,0-.38,0-.82-.16-1.11.25-.65-.64-1.48-.46-2.26-.46l-2.76,0a10.66,10.66,0,0,0-2.46-.12h-1.93c-2.55.07-5.09-.08-7.64-.12-1.65,0-3.29,0-4.94,0A2.36,2.36,0,0,1,88,71.76Z" fill="#dec3f0"/><path d="M88.11,40.31l15.35,1.87,7.92,1c.37,0,.63,0,.73-.43.11.86.23,1.72.34,2.58a33,33,0,0,0-6.09-.89C103,44,99.6,43.61,96.22,43.23L89,42.45a7.18,7.18,0,0,1-.92-.2C88.1,41.61,88.11,41,88.11,40.31Z" fill="#cd9d78"/><path d="M121,120.26c0,.37-.08.65-.6.69-2.78.16-5.55.48-8.33.51-.44,0-.88,0-1.31.05s-1.32.6-1.58-.4a1.84,1.84,0,0,1,1.29-2.33,30.24,30.24,0,0,1,5.1-.47c1.73.08,3.42-.2,5.13-.27Z" fill="#cd9d78"/><path d="M115,67.45c-.17,1.19-1.07.57-1.67.65s-1.12.05-1.31-.68a.88.88,0,0,1,.59-1.21,5.62,5.62,0,0,1,2.23-.21C114.89,66.48,114.94,67,115,67.45Z" fill="#fdfcfc"/><path d="M114.72,51.27c0-.56-.13-.87.09-1.17A1.21,1.21,0,0,1,114.72,51.27Z" fill="#614f7b"/><path d="M114.64,49.13a2.17,2.17,0,0,1-.17-1.34A2.08,2.08,0,0,1,114.64,49.13Z" fill="#5f4e7a"/><path d="M114.31,47a1.61,1.61,0,0,1,0-1.17C114.52,46.13,114.46,46.44,114.31,47Z" fill="#604f7b"/><path d="M113.83,42.88a1.64,1.64,0,0,1,0-1.18C114,42,114,42.36,113.83,42.88Z" fill="#61507b"/><path d="M87.86,98.37c5.64,0,11.28,0,16.91,0,1,0,1.29.26,1.28,1.27,0,5.55,0,11.11,0,16.67,0,.88-.23,1.19-1.18,1.33-5.15.75-10.33.71-15.5.94-.51,0-1,.13-1.54.2Z" fill="#e1c8cd"/><path d="M88,79.6a3,3,0,0,0,1.82.5c2.08-.07,4.13.24,6.21.29,3.06.09,6.12.32,9.18.44.65,0,.8.3.8.88,0,5,0,10.07,0,15.11,0,1-.6.81-1.19.85-5.66.39-11.34.16-17,.23C87.66,91.8,88.13,85.7,88,79.6Z" fill="#e1c8cd"/><path d="M88,71.76h6.21c-.1.58-.56.27-.84.31a15.17,15.17,0,0,0-2,.09,14.33,14.33,0,0,1-3.14,0Z" fill="#594a78"/><path d="M83.44,70.79q0,7.35,0,14.71a2.82,2.82,0,0,1-.17.68q0-7.25,0-14.49C83.24,71.38,83.17,71,83.44,70.79Z" fill="#b07bdb"/><path d="M83.2,104.62q0,5.26,0,10.51a1.39,1.39,0,0,1-.21,1V105.53C83,105.21,83,104.88,83.2,104.62Z" fill="#bc889f"/><path d="M126.23,70.55a2.45,2.45,0,0,1,0,2.13Z" fill="#ae71df"/><path d="M6.47,30.47a31,31,0,0,1,.18-5.78v4.79c3.94-1.91,7.91-3.2,11.77-4.77a10.92,10.92,0,0,1,1.47-.47.53.53,0,0,1,.6.31.44.44,0,0,1-.23.6,7.42,7.42,0,0,1-1.37.71C15.48,27.08,12,28.21,8.73,29.67,8,30,7,29.65,6.47,30.47Z" fill="#e1c8cc"/><path d="M20.78,39.14a1,1,0,0,1-.67.64L8.32,44.66a1.82,1.82,0,0,1-.44.17c-.29,0-.65.36-.85-.06s.2-.51.45-.7a16.24,16.24,0,0,1,3.1-1.53c2.77-1.2,5.49-2.52,8.37-3.48a13,13,0,0,1,1.26-.34A.43.43,0,0,1,20.78,39.14Z" fill="#e1c8cd"/><path d="M21,36.09a.92.92,0,0,1-.59.55C16.67,38.19,13,39.9,9.22,41.25a3.53,3.53,0,0,1-.46.15c-.4.13-.87.2-1-.28s.34-.57.65-.7c1.39-.6,2.79-1.18,4.19-1.77l6.07-2.53a3.74,3.74,0,0,1,1.86-.39C20.73,35.75,21,35.72,21,36.09Z" fill="#e1c8cd"/><path d="M20.52,27.55c-.07.47-.47.55-.78.67Q15,30.07,10.25,31.87a12.12,12.12,0,0,1-1.8.65c-.39.09-.93.72-1.21,0-.22-.53.44-.69.81-.85,1.39-.6,2.79-1.18,4.2-1.73,2.34-.91,4.69-1.79,7-2.7A.92.92,0,0,1,20.52,27.55Z" fill="#e1c8cc"/><path d="M20.42,42.43a17.48,17.48,0,0,1-5,2.46,48.25,48.25,0,0,1-6.73,2.44,4.47,4.47,0,0,1-.81.16c-.26,0-.61.1-.69-.28s.25-.48.49-.58c1.55-.63,3.1-1.27,4.67-1.84a50.15,50.15,0,0,1,7.47-2.44A3,3,0,0,1,20.42,42.43Z" fill="#e1c8cd"/><path d="M20.31,33.78c0,.27-.33.36-.57.45q-5.58,2.27-11.17,4.5c-.35.14-.87.36-1-.1s.4-.52.69-.66c3.45-1.64,7-3.11,10.55-4.45a2.61,2.61,0,0,1,1.17-.17C20.15,33.37,20.32,33.44,20.31,33.78Z" fill="#e1c8cc"/><path d="M20,46.4c-.1.31-.39.4-.64.49A71.79,71.79,0,0,1,8.13,50.08c-.37.06-.77.07-.88-.37s.25-.46.53-.52c3.66-.79,7.19-2.07,10.8-3.06a4.2,4.2,0,0,1,1.07-.06C19.84,46.07,20.05,46.11,20,46.4Z" fill="#e1c8cc"/><path d="M8,36c-.4,0-.73,0-.78-.34s.27-.33.49-.42l11-4.37c.3-.12.67-.28.87,0s-.14.6-.43.83a7.11,7.11,0,0,1-2,.85q-4,1.55-8,3.06C8.72,35.76,8.3,35.87,8,36Z" fill="#e1c8cc"/><path d="M7.54,61.19a16.52,16.52,0,0,1,4.26-.95c2.79-.56,5.6-1,8.41-1.55.42-.08,1-.39,1.14.12s-.53.68-1,.77c-3,.6-6,1.25-9,1.62A10.38,10.38,0,0,1,7.54,61.19Z" fill="#e1c8cc"/><path d="M8,53.43c-.21,0-.38-.06-.4-.23a.57.57,0,0,1,.18-.4,1.51,1.51,0,0,1,.52-.27c3.52-1.26,7.09-2.32,10.71-3.25.3-.08.68-.25.81.16s-.28.55-.56.63c-3.62,1.17-7.23,2.4-10.95,3.25A2.68,2.68,0,0,0,8,53.43Z" fill="#e1c8cc"/><path d="M20.78,52.56a10.05,10.05,0,0,1-3.4,1.54A61.07,61.07,0,0,1,8.8,56.61c-.34.07-.85.45-1-.11s.4-.58.75-.68c3.89-1.15,7.78-2.28,11.68-3.42A.43.43,0,0,1,20.78,52.56Z" fill="#e1c8cc"/><path d="M13.54,63.58a1.12,1.12,0,0,1,1,.79,1,1,0,0,1-.66,1.24,42.6,42.6,0,0,1-4.2.8.73.73,0,0,1-.87-.77A1.7,1.7,0,0,1,10,64.12,35.61,35.61,0,0,1,13.54,63.58Z" fill="#fefdfd"/><path d="M8,27.34c-.4,0-.65,0-.72-.17-.13-.37.2-.46.44-.6a36.92,36.92,0,0,1,5.17-2.12c2.05-.77,4.07-1.58,6.13-2.32.34-.12.93-.6,1.12,0,.14.46-.51.62-.9.77-2.82,1.09-5.64,2.14-8.46,3.23C9.81,26.54,8.84,27,8,27.34Z" fill="#e1c8cc"/><path d="M17.7,65.28c-.74,0-1.67.45-1.69-.91,0-.6.18-1,.79-1.14,1-.21,2-.47,3-.58a1.23,1.23,0,0,1,1.52,1.14c.07.88-.55,1.15-1.29,1.24Z" fill="#fefdfd"/><path d="M21.17,19a1.24,1.24,0,0,1-.94.84L8.72,24.51c-.11,0-.22.13-.33.13-.31,0-.73.45-.9-.1s.29-.48.59-.6c1.46-.54,2.92-1.06,4.36-1.65,2.4-1,4.78-2,7.18-3A2.55,2.55,0,0,1,21.17,19Z" fill="#e1c8cc"/><path d="M19.91,56.36a5.74,5.74,0,0,1-2.44.86c-2.49.7-4.91,1.65-7.45,2.15-.61.13-1.59.41-1.7-.14s.9-.54,1.41-.66c3.09-.73,6.08-1.87,9.24-2.34A1.11,1.11,0,0,1,19.91,56.36Z" fill="#e1c8cc"/><path d="M35,62.14c4.48.31,9.22.64,14,.94.61,0,.7.3.71.83.05,1.86,0,1.9-1.77,1.78-4.59-.31-9.18-.51-13.77-.46-1,0-1.4-.33-1.21-1.31a.49.49,0,0,0,0-.12C33,62.09,33,62.09,35,62.14Z" fill="#fefefe"/><path d="M60.12,63.82c3,.16,6,.33,9,.48.86,0,1.28.46,1.16,1.29S70,67,68.84,66.86c-3.15-.25-6.3-.28-9.46-.41-.53,0-1.31.23-1.48-.42a4.9,4.9,0,0,1,.18-2c.05-.29.37-.24.6-.25h1.44Z" fill="#fefefe"/><path d="M63.57,70.53l-.47.21a14,14,0,0,1-3.66-.16c.33-.32.74-.09,1.1-.16a3.62,3.62,0,0,0,1.31-.1C62.43,70.35,63,70.12,63.57,70.53Z" fill="#4f3f70"/><path d="M60.65,70.49l-1.21.09a.26.26,0,0,1-.21-.06v-.19h1.43Z" fill="#4f3f70"/><path d="M60.65,70.49a.38.38,0,0,0,0-.15l1.19,0C61.49,70.67,61.06,70.49,60.65,70.49Z" fill="#4f3f70"/><path d="M107,33.84a79.47,79.47,0,0,1,.23-8.73c.06-.44-.2-1.2.39-1.22s.55.72.58,1.23c.28,4.71.23,9.42.25,14.13a4.76,4.76,0,0,0,.12,1.55.81.81,0,0,1-.7,1.14c-.72.1-.86-.47-.86-1C107,38.56,107,36.2,107,33.84Z" fill="#cd9e79"/><path d="M91.39,72.17c.9-.5,2,.13,2.86-.4l7.69.23q.14.06.09.12s-.06.06-.08.06Z" fill="#82759a"/><path d="M103.86,72c.8.07,1.64-.25,2.41.22l-2.41,0c-.07,0-.09-.08-.07-.12S103.83,72,103.86,72Z" fill="#c7b2da"/><path d="M103.86,72a.6.6,0,0,1,0,.19H102a1.09,1.09,0,0,0,0-.18Z" fill="#a494ba"/><path d="M102.25,65.06c.73,0,1.57.15,1.84,1,.31,1.05-.5,1.92-1.77,1.74-2.14-.31-4.31,0-6.45-.36a16.56,16.56,0,0,0-3-.06c-.92,0-1.24-.5-1.21-1.26s.25-1.43,1.25-1.39,1.76,0,2.63,0C95.55,64.86,100,65,102.25,65.06Z" fill="#fefefe"/><polygon points="88.04 71.76 115.57 72.18 115.98 72.21 115.57 73.22 112.57 72.68 111.38 72.98 111.01 72.7 88.46 72.37 88.04 71.76" fill="#4f3f70"/><polygon points="28.32 77.49 28.26 75.52 77.75 77.49 77.75 83.99 76.52 78.92 30.02 76.64 28.32 77.49" fill="#cd9d78"/><polygon points="28.45 69.26 80.18 70.72 79.76 71.76 74.78 71.01 28.45 70.51 28.36 69.54 28.45 69.26" fill="#4f3f70"/><polygon points="7.4 72.67 2.38 73.5 2.57 71.76 8.08 71.76 7.4 72.67" fill="#ae71df"/><path d="M112.7,22.37a3.09,3.09,0,0,1,1.17-.18s.23,0,.23.18.45,2.86.45,2.86l12.6,102.64-2.64,0Z" fill="#fefefe"/><path d="M126.38,23.74l1,.12a.39.39,0,0,1,.35.34l13.92,100.48a1.82,1.82,0,0,1-2.07-.07L125.81,24.32A.52.52,0,0,1,126.38,23.74Z" fill="#fefefe"/><polygon points="115.2 30.37 127.91 31.79 127.85 35 115.65 33.9 114.19 32.11 115.2 30.37" fill="#fefefe"/><polygon points="116.6 41.58 128.39 42.68 128.75 45.3 116.6 44.22 116.6 41.58" fill="#fefefe"/><polygon points="117.98 52.76 130.59 53.38 130.59 56.68 118.29 56.22 117.09 53.76 117.98 52.76" fill="#fefefe"/><polygon points="118.78 64.06 132.24 64.83 133.01 67.08 119.04 66.64 118.34 64.76 118.78 64.06" fill="#fefefe"/><polygon points="120.39 77.1 133.68 77.1 134.07 78.86 120.39 78.86 120.39 77.1" fill="#fefefe"/><polygon points="121.7 89.77 135.07 89.26 135.63 91.6 121.59 91.9 121.7 89.77" fill="#fefefe"/><polygon points="123.98 103.51 137.2 102 137.49 104.88 123.83 106.18 123.98 103.51" fill="#fefefe"/><polygon points="124.96 117.56 139.52 115.13 139.88 117.66 125.03 119.56 124.96 117.56" fill="#fefefe"/><path d="M120.33,72.34h5.08a5.68,5.68,0,0,1,.12,2c-.2.62-5-.19-5-.19Z" fill="#4f3f70"/><path d="M103.21,79.11H116s1.12,1.17.27,2.09L102,80.11Z" fill="#cd9d78"/><polygon points="112.7 22.37 110.33 25 121.24 125.03 124.51 127.91 112.7 22.37" fill="#4f3f70"/><polygon points="124.95 16.7 124.76 21.07 125.47 24.73 125.81 24.73 126.07 15.54 124.95 16.7" fill="#4f3f70"/><polygon points="90.44 123.03 120.5 120.58 120.63 121.81 88.53 124.22 90.44 123.03" fill="#cd9d78"/><rect x="92.72" y="120.33" width="10.16" height="2.07" rx="0.94" transform="translate(-8.37 7.25) rotate(-4.07)" fill="#fefefe"/><rect x="110.31" y="118.83" width="10.16" height="2.07" rx="0.94" transform="translate(-8.22 8.49) rotate(-4.07)" fill="#fefefe"/><rect x="33.64" y="124.36" width="12.68" height="2.58" rx="0.94" transform="translate(-8.82 3.15) rotate(-4.07)" fill="#fefefe"/><rect x="58.61" y="122.48" width="12.68" height="2.58" rx="0.94" transform="translate(-8.62 4.92) rotate(-4.07)" fill="#fefefe"/><polygon points="22.05 15.38 6.04 21.39 6.13 30.83 6.47 30.47 6.97 30.69 6.56 22.12 20.78 16.76 22.05 15.38" fill="#cd9d78"/><path d="M106.56,25.87a.37.37,0,0,1-.35.39.35.35,0,0,1-.37-.36.34.34,0,0,1,.34-.38A.33.33,0,0,1,106.56,25.87Z" fill="#4d4c59"/></svg>