<svg xmlns="http://www.w3.org/2000/svg" viewBox="0 0 113.75 120.44"><title>Artboard 15</title><path d="M58.45,31.54,58,32.74l-1.38.09a12.55,12.55,0,0,0,1.28-2.12C57.88,30.39,58.45,31.54,58.45,31.54Z" fill="#2e1e49"/><path d="M73.14,45.11a7,7,0,0,0-1.43-1.44c-2.17-1.8-4.5-3.4-6.18-5.75a18,18,0,0,0-2.12-2.43A5.79,5.79,0,0,0,59.89,34a27.38,27.38,0,0,0-5.42-.34,2.38,2.38,0,0,0-1.16.38c-.16.18-.05.36,0,.55.05.35-.1.76-.43.44s.3-.62.43-1l0,0,0-.05a2.65,2.65,0,0,0-.91-2.37,20.29,20.29,0,0,1-6.07.39,1.36,1.36,0,0,0-.89,1.5.12.12,0,0,0,0,.08l-.12-.07a3.5,3.5,0,0,0-1.93.41,6,6,0,0,1-5.78-.52,1.93,1.93,0,0,0-1.62-.56.29.29,0,0,0-.09.42c.78,1,.08,1.1-.73,1.19C33,34.62,31.83,36,31.07,38a11,11,0,0,0,.12,2.56.7.7,0,0,1,.12.48c.45.34.5.53.16,1a102.51,102.51,0,0,0,3,11.59c.36,1.06.44,2.48,1.77,3.06a17.41,17.41,0,0,0,6.68-1.1,79,79,0,0,0,11.46-6,2.8,2.8,0,0,0,1.15-1c0-1.25-1-2.17-1.13-3.38a.56.56,0,0,0-.27-.23,1.64,1.64,0,0,0-1.25,0,1,1,0,0,0-.26.24,6.29,6.29,0,0,1-4.65,2.2c-.77.14-1.11.77-1.42,1.34-.78,1.43-2.33,1.85-3.48,2.78-.09.07-.25.14-.33.08-.88-.71-1.43.22-2.13.41-.71,0-.69-.55-.63-1a3.77,3.77,0,0,1,.38-1.47,3.67,3.67,0,0,0,.55-1.08,4.8,4.8,0,0,0,.27-2.1,22.55,22.55,0,0,0-.86-5.11c.22.54.27,1.27.57,1.93s.72,1.35,1.66,1.28a1.1,1.1,0,0,0,.41-.42c1.14-2.15,3.07-2.85,5.35-2.94a11.75,11.75,0,0,1,4.45.76,3,3,0,0,0,3.68-1c1.14-1.28,2.54-2.19,4.42-1.7.45-.33.77-.15,1.11.21a27.76,27.76,0,0,0,5.89,4.19c.07,0,.24.08.19.11s-.3.08-.4.22c0,.35.23.55.46.76,0,0,.08,0,.1.07s0,.09,0,.09c-1.41,0-2.68.61-4.05.81-.9.13-1.8-.46-2.67.08a1.09,1.09,0,0,0-.23.29,1.15,1.15,0,0,0-.08,1,4.6,4.6,0,0,0,2.15,1.2,16.81,16.81,0,0,0,12.2-.58.27.27,0,0,0,.19-.3A4.93,4.93,0,0,1,73.14,45.11Zm-27-10.66c-.49-.11-.42-.55-.57-.82C45.84,33.85,46.29,34,46.17,34.45Z" fill="#dec3f0"/><path d="M57.36,75.56c-2.92-3.92-6.38-7.14-11.12-8.79-1.42-.49-2.83-.16-4.24-.28.19-.74.84-1.13,1.27-1.7.63-.85,1.2-1.75,1.79-2.63.85-1.26,1.29-2.4.35-3.78a3.62,3.62,0,0,1-.32-1,7.74,7.74,0,0,1,2.32-1.15,89.09,89.09,0,0,1,10-4,2.75,2.75,0,0,1,1.17-.19c.7.42.7.42.93,1.61,0-.64-.17-1.28.34-1.8,1.69-.7,3.44-.36,5.18-.31l0,1c-1-.07-1.2.43-1,1.32a24.29,24.29,0,0,1,.12,5.84c-.11,1.57-1,3-1.16,4.6-.1.74-.31,1.54.63,2,.27.78.95,1.44.74,2.37a6.42,6.42,0,0,1-2.07,3.5c-1.12,1.23-2.47,2.23-3.63,3.42C58.26,75.89,57.79,76.31,57.36,75.56Z" fill="#dec3f0"/><path d="M45.56,33.57c-1.1,0-2,.76-3,.94a6.29,6.29,0,0,1-5.21-1A8.31,8.31,0,0,0,36,32.8a2.07,2.07,0,0,1-1.21-.67c-1-1-.78-2.35-.9-3.52-.16-1.48-.57-2.91-.6-4.39-.21-.74.07-1.52-.17-2.26l-.07-2.06a35.19,35.19,0,0,1,0-5l.07-.88c.26-.73-.08-1.52.2-2.25-.06-1.44.74-2.68,1-4,.42-.32.65,0,.9.26a7,7,0,0,0,3.3,1.6,57.78,57.78,0,0,0,9.1,1.16c1.58.07,3.15.16,4.74.12.69.67-.38,1.07-.24,1.66-.57,1.33-2,1.49-3,2.15a5.85,5.85,0,0,1-.68.3,11,11,0,0,1-2.39.71,1.74,1.74,0,0,0-1.45,1.26,21.77,21.77,0,0,0-.13,10.46,4.46,4.46,0,0,0,.58,1.3,3.22,3.22,0,0,0,1.48,1.27c.52.33,1,.82.09,1.27-.47.22-.21.6-.32.9-.09.56-.81.82-.71,1.47Z" fill="#191226"/><path d="M48.94.18c1.89.52,3.83,1,5.24,2.49a25.64,25.64,0,0,0,3.37,2.71c.93.68,1.13,1.86,1.75,2.76.42.74.08,1.24-.57,1.53a3.19,3.19,0,0,1-2.17.35c-.63-.38-.59-1-.78-1.58-.52.65-.89,1.57-1.87,1.89-1.47.14-2.94,0-4.41.08A60,60,0,0,1,38.24,9.28c-1.45-.27-2.93-.67-3.45-2.36,1.1-3.3,3.7-4.9,6.77-5.93.93-.32,1.89-.54,2.83-.8.39-.2.86,0,1.25-.19h2C48.06.2,48.52,0,48.94.18Z" fill="#191226"/><path d="M60.46,15.34c.44.51.16,1.13.24,1.69a26.58,26.58,0,0,1-1.79,11.4c-.35.29-.53-.05-.77-.2.1.22.37.22.5.4.21,1.28-.6,2.26-1,3.35-.42.36-.69.86-1.17,1.15a2.68,2.68,0,0,1-1.24.28,1.59,1.59,0,0,1-1.74-1.15,1,1,0,0,0-1-.75.67.67,0,0,1-.63-.47c-.23-1.14-1-1.46-2-1.5a1.76,1.76,0,0,0-1.16-.93,11.12,11.12,0,0,1-2.74-1.09,3.67,3.67,0,0,1-1.6-1.37c-.16-.33-.27-.72.09-1s.55.12.78.33A9.8,9.8,0,0,0,52.43,28a2.87,2.87,0,0,0,1.65-.87A11.51,11.51,0,0,0,57,20.25c.09-1,0-2.06,0-3.09,0-1.65-.43-3.25-.54-4.88a2.66,2.66,0,0,1,0-1.19,3.92,3.92,0,0,1,2.82-.94c.87,1,.59,2.39.88,3.58A11.27,11.27,0,0,0,60.46,15.34Z" fill="#191226"/><path d="M65,51.55c-.64.49-1.38.21-2.07.26a11,11,0,0,0-3.18.26c-.33.42-.83,0-1.19.22a74.61,74.61,0,0,0-8.84,3.21c-1.54.61-2.93,1.63-4.62,1.87-.22-.11-.22-.31-.24-.51-.08-.36.2-.49.43-.63,4.24-2.46,8.18-5.38,12.4-7.88,1.19-.7,2.22-1.1,3.44,0a5.71,5.71,0,0,0,2.8,1,.66.66,0,0,1,.32.14Z" fill="#ae71df"/><path d="M55.07,33.17l1.32-.28a2.22,2.22,0,0,0,1,0l1.2-.24c.36-.28.84.06,1.2-.24H60a3.39,3.39,0,0,1,1.92,0c2.58.59,3.75,2.82,5.28,4.6a42.82,42.82,0,0,0,5.5,5.44,8.35,8.35,0,0,1,2.91,4.12.62.62,0,0,1,0,.72,1.69,1.69,0,0,1-2-1,10.83,10.83,0,0,0-3.77-3.75C67.6,41.09,66.08,39,64.37,37a6.94,6.94,0,0,0-5-2.83c-1.66-.14-3.34-.09-5-.37C54.14,33.1,54.79,33.32,55.07,33.17Z" fill="#f6e3fc"/><path d="M36.2,56.63a3.66,3.66,0,0,1,2-.44,13.29,13.29,0,0,0,5.53-1.35A75.81,75.81,0,0,0,55.4,48.46a.74.74,0,0,1,.63.76A33.6,33.6,0,0,1,52,52.05c-2.42,1.74-5,3.19-7.55,4.79a16.36,16.36,0,0,1-4.84,1.72,1.94,1.94,0,0,1-1.42,0h0a3.54,3.54,0,0,1-1-.47C36.82,57.61,36,57.47,36.2,56.63Z" fill="#bc9fcf"/><path d="M59.25,10.29,56.64,11c-.8.6-1.77.14-2.61.45-.57.09-1.14.15-1.53-.42A50.22,50.22,0,0,1,38.3,9.83c-1.43-.31-2.85-.73-3.65-2.16,0,0-.22,0-.34,0a1.16,1.16,0,0,1,.48-.77c1.93,2.5,4.86,2.26,7.51,2.64,2.35.34,4.74.38,7.11.55A38.36,38.36,0,0,0,54.77,10a15,15,0,0,0,4.46-.63c.26-.11.54.07.62.41S59.49,10.19,59.25,10.29Z" fill="#f1d0c4"/><path d="M64.24,49.42h-.17a9.59,9.59,0,0,1-3.29-1.21c-.3-.22-.8-.38-.62-.88a.81.81,0,0,1,1-.55c4.22,2.42,8.6,2.46,13.08.88a3.83,3.83,0,0,1,1.29-.15c.08,0,.1.1.07.15s0,.07-.08.07c-.67,1.08-1.87,1.06-2.9,1.39a12.67,12.67,0,0,1-1.63.31,23,23,0,0,1-4.54,0Z" fill="#bca0cf"/><path d="M34.8,32.13c.59-.1.9.27,1.21.67.12.19.24.4.38.58s.59.63.44,1-.63,0-.95.12c-1.5.33-3.09.47-3.78,2.22-.16.4-.51,3.58-.91,3.78a18.8,18.8,0,0,1,0-4.56A3.94,3.94,0,0,1,34.8,32.13Z" fill="#f6e3fc"/><path d="M61.19,46.79l-1,.7a5.67,5.67,0,0,0,2.84,1.44c.38.09.77.13,1,.5a4.67,4.67,0,0,1-3.65-1.19,1.2,1.2,0,0,0-1.66-.12c-2,1.16-3.95,2.31-5.86,3.59-2.64,1.77-5.36,3.44-8,5.15l-.44,0a13.27,13.27,0,0,1,3.75-2.6c2.68-1.55,5.1-3.48,7.75-5.07a5.36,5.36,0,0,1,2.21-1.52A15.25,15.25,0,0,0,60.87,46a.39.39,0,0,1,.48.06C61.58,46.37,61.34,46.57,61.19,46.79Z" fill="#1b1328"/><path d="M58.46,28.52a32.18,32.18,0,0,0,1.78-6.31c.39-1.71,0-3.49.46-5.18a11.71,11.71,0,0,1,0,6,70.23,70.23,0,0,1-2.17,8.17c-.16.44-.13,1.08-.85,1.1-.24,0-.23-.25-.31-.39.33-1.17,1.15-2.17,1.11-3.46Z" fill="#2e1e49"/><path d="M59.76,10c-.25-.76-.73-.34-1.15-.23a25.87,25.87,0,0,1-9.2.33l4.8-.1c.72-.24,1.42-.71,2.21-.21a5,5,0,0,0,1.85-.24,1.17,1.17,0,0,0,1-1.42c1.16.32.55,1.22.62,1.9C59.85,10.12,59.8,10.11,59.76,10Z" fill="#cfa26d"/><path d="M59.76,10a.16.16,0,0,0,.16,0,21,21,0,0,1,.54,5.3c-.74-1.3-.66-2.78-1-4.19-.06-.3.05-.64-.26-.86C59.35,10.06,59.57,10.06,59.76,10Z" fill="#2e1f49"/><path d="M31.18,36v4.56A9,9,0,0,1,31.18,36Z" fill="#f6e3fc"/><path d="M75.55,47.74a.55.55,0,0,0,0-.22l0-.26v-.72A.79.79,0,0,1,75.55,47.74Z" fill="#f6e3fc"/><path d="M42.56,44.4c.95-2.94,4.28-4,7.42-3.52a22,22,0,0,1,3.92,1,1.35,1.35,0,0,0,1.66-.45,12.13,12.13,0,0,1,2.14-1.9A3,3,0,0,1,61,39.1,4.3,4.3,0,0,1,63.87,42a.93.93,0,0,1-.72,1,16.31,16.31,0,0,0-3.2.52,10.49,10.49,0,0,0-4.43,1.31c-.38.18-.71.54-1.2.39v-.07c-.37-.31-.86-.1-1.26-.29a3.76,3.76,0,0,0-1.3-.43,27.75,27.75,0,0,0-4.37-.07,4.09,4.09,0,0,0-2.22,1,5.64,5.64,0,0,1-1.06.75.63.63,0,0,1-.23.08c-.48,0-1,.62-1.41,0A1.48,1.48,0,0,1,42.56,44.4Z" fill="#ae71df"/><path d="M54.21,45.12a9.64,9.64,0,0,1,5.51-1.94.93.93,0,0,1,.55.64c.19.77.92,1.36.74,2.24-.07.52-.53.68-.88.87-1.39.78-2.81,1.5-4.22,2.24l-.51-.71C55.05,47.33,54.09,46.42,54.21,45.12Z" fill="#d1a26b"/><path d="M50,29.46c1.08-.4,1.72,0,2,1.08.08.32.08.73.54.83a.26.26,0,0,1,0,.33,10.91,10.91,0,0,1-6.27.41c-.61-.53-1-1,.23-1.16.19,0,.41,0,.38-.31s-.2-.38-.44-.48c-.61-.25-1.27-.44-1.55-1.14.56-.5,1.17-.19,1.76-.08.42.08.83.17,1.26.21A3.7,3.7,0,0,1,50,29.46Z" fill="#d1a26b"/><path d="M43.92,45.83c2.23-2.46,5.06-2.19,7.93-1.72.39.74-.13,1-.67,1.23a9.94,9.94,0,0,1-3.15.55,4.32,4.32,0,0,0-2.66.91,7.58,7.58,0,0,1-2,1.11,5.79,5.79,0,0,0-2.25,1.53c-.28.33-.55.72-1.09.53a.4.4,0,0,1,0-.53c.13-.34.52-.55.48-1C41.33,47.16,42.8,46.71,43.92,45.83Z" fill="#f5e1fb"/><path d="M39.34,44v2.07c0,.24-.05.51-.34.54s-.31-.21-.41-.38a6.61,6.61,0,0,1-.72-2.5c-.14-1.14-.31-2.27-.44-3.41,0-.41,0-.82.53-.94s.65.3.78.68A9.65,9.65,0,0,1,39.34,44Z" fill="#f6e3fc"/><path d="M43.92,45.83c-.88,1.2-2.33,1.66-3.38,2.64.68-2.34,0-4.59-.41-6.86-.07-.37-.37-.71-.2-1.24,1.18,1.19.64,3.38,2.52,4,0,.08,0,.15,0,.23C42.47,46.12,42.47,46.12,43.92,45.83Z" fill="#bda0d0"/><path d="M63.09,42.68a.74.74,0,0,0,.26-1.17,5.37,5.37,0,0,0-2.43-2.44c0-.44.13-1,.65-.38,2,2.14,4.52,3.43,6.87,5-.24.29-.54.12-.78.18a1.5,1.5,0,0,1-1.24-.17,11.42,11.42,0,0,0-3-.83A.55.55,0,0,1,63.09,42.68Z" fill="#bda0d0"/><path d="M48,47.49c-.3.3-.73.55-.89.92-.8,1.87-2.73,2.39-4.14,3.53-.08.06-.28.14-.31.11-.88-1.1-1.38.3-2.09.31-.54-.11-.23-.39-.13-.62a14.73,14.73,0,0,1,1.86-1.48.49.49,0,0,1,.56.27c.06.13.09.4.26.3,1.36-.8,2.79-1.55,3.46-3.1a1.53,1.53,0,0,1,1.86-1,.51.51,0,0,1,.17.3A.54.54,0,0,1,48,47.49Z" fill="#20182d"/><path d="M55.86,38.57c-.31.75-.6,1.51-1,2.25-.24.5-.76.64-1,.16-.65-1.1-1.79-1.23-2.81-1.62-.36-.13-.91-.24-.71-.73s.63,0,.94,0a2.81,2.81,0,0,1,.87.38c1,.61,2.1,1.72,2.87-.31A.59.59,0,0,1,55.86,38.57Z" fill="#bda0d0"/><path d="M63.36,42.72c1.58-.14,2.9.68,4.3,1.19.14.24.51.31.48.67-.23.34-.59.25-.91.28a11.09,11.09,0,0,1-2.67-.59C63.88,44,63.27,43.61,63.36,42.72Z" fill="#f5e1fb"/><path d="M67.25,44.66l.89-.08,1.15.08c-2.61.52-5.11,1.79-7.87,1.15l-.09-.17a.54.54,0,0,1,.64-.55C63.78,45.44,65.48,44.71,67.25,44.66Z" fill="#1e172b"/><path d="M52.53,31.7v-.33c.72-.41,1.14-.1,1.21.63s.61,1.1,1.33,1.17c-.22.21-.72.14-.64.64a1.5,1.5,0,0,1-1.18.24l0,0Z" fill="#191226"/><path d="M48,47.49l.49-.44a8.62,8.62,0,0,1,4.31-1.72c-1,1.68-2.87,1.9-4.5,2.49C48.22,47.84,48.08,47.6,48,47.49Z" fill="#f4dffb"/><path d="M47.34,34.55c.46.08.85.23.9.77s-.09.84-.58.84a1.1,1.1,0,0,1-1-.84C46.52,34.88,46.94,34.66,47.34,34.55Z" fill="#d2a471"/><path d="M52.78,45.33l-4.31,1.72,0-.35c0-.37.34-.51.63-.62,1.08-.43,2.16-.85,3.27-1.21a.6.6,0,0,1,.48.26A1.46,1.46,0,0,0,52.78,45.33Z" fill="#31204d"/><path d="M50.09,36.28a1,1,0,0,1-.87.66c-.41,0-.72-.17-.65-.62s.23-.8.72-.79A.89.89,0,0,1,50.09,36.28Z" fill="#d2a471"/><path d="M52.06,35.85c0,.51-.2.83-.69.86s-.72-.15-.72-.59a.8.8,0,0,1,.71-.82C51.81,35.21,52,35.52,52.06,35.85Z" fill="#d1a36d"/><path d="M53.25,34.05c.44.45.89.93.08,1.4-.32.18-.86.22-1-.29-.17-.7.32-1,.92-1.09Z" fill="#d2a470"/><path d="M45.55,33.58a3.73,3.73,0,0,1,.47,0,.64.64,0,0,1,.67.78c0,.3-.3.63-.65.57a.75.75,0,0,1-.66-.94,2.3,2.3,0,0,1,.18-.43Z" fill="#d3a678"/><path d="M40.53,51.82c0,.18-.4.37,0,.54-.95.13-1-.63-.93-1.16a3.25,3.25,0,0,1,.44-1.76l0,.44C40.79,50.4,40.21,51.21,40.53,51.82Z" fill="#bb9ece"/><path d="M57.62,36.64c1.38-.31,1.82.56,2.44,1.07A6.11,6.11,0,0,1,57.62,36.64Z" fill="#f3dffb"/><path d="M61,46.06l-1-2.17c.83-.25.92.47,1.21.94.2.31-.06.71.21,1l0,0-.07.26Z" fill="#21192c"/><path d="M52.83,45.13l-.57,0c.06-.49.37-.57.78-.49s1.05-.38,1.19.45Z" fill="#1d152a"/><path d="M57.69,60.72c.69-2,1.3-3.85,2-5.76C60.17,56.15,59,59.77,57.69,60.72Z" fill="#bda0d0"/><path d="M58.55,52.29c.34-.38.79-.18,1.19-.22v2.8C58.89,53.93,59.49,52.78,58.55,52.29Z" fill="#bea0d1"/><path d="M57.57,65c.07-.48,0-1.08.64-1.12.42,0,.33.46.33.76s.08,1-.53,1S57.63,65.29,57.57,65Z" fill="#bea1d0"/><path d="M61.05,66.09c-.69-.54-.59-1.34-.8-2a.28.28,0,0,1,.19-.37.34.34,0,0,1,.43.29C61,64.67,61.4,65.31,61.05,66.09Z" fill="#f6e2fc"/><path d="M60.17,70.41a4,4,0,0,1,1.09-2.61A4.17,4.17,0,0,1,60.17,70.41Z" fill="#f5e2fc"/><path d="M47.78,29.43c-1,.08-1.9-.52-2.9-.41a7.81,7.81,0,0,1-1.24-4,29.24,29.24,0,0,1,.48-7.92A2,2,0,0,1,46,15.32a24.16,24.16,0,0,0,2.5-.65,1.47,1.47,0,0,0,1.13.12c-.29,0-.64.09-.63-.37,1-.63,2.25-.83,2.9-1.94a.41.41,0,0,1,.48.25,1.43,1.43,0,0,0,1.9.67c.44,0,.86.19,1.41.08-.3-.28-.69-.23-.94-.44-.28-.59-.25-1.29-.71-1.81.85-.43,1.76-.11,2.64-.19a59,59,0,0,1,.66,6.23.86.86,0,0,1-1,.14.32.32,0,0,1-.09-.5c.07-.1.24-.27-.08-.25s-.39.05-.58.05c.08.14.25.13.37.23a2,2,0,0,1,.32.49c1.26,1.72.64,3.56.17,5.29a14.85,14.85,0,0,1-2.17,4.65c-1,1.24-2.42,1.05-3.71.88a12.52,12.52,0,0,1-4.22-1.41c-.71-.38-1.49-.72-1.73-1.63-.26,1.21.85,1.51,1.48,2.11.47.37,1,.59,1.52.93S48.49,28.91,47.78,29.43Z" fill="#dec3f0"/><path d="M54.21,13.65c-1.27.6-1.82-.27-2.35-1.17-.15-.64.48-.92.64-1.41a3.07,3.07,0,0,0,1.5.16c1,.26.8,1,.74,1.7C54.88,13.4,54.45,13.46,54.21,13.65Z" fill="#d3a67a"/><path d="M35.53,29.51c.27.23.78.22.81.72a1,1,0,0,0,.45.77c.16.12.5.23.23.52a.47.47,0,0,1-.73-.06,7.28,7.28,0,0,0-1-1.41C35.14,29.94,35.18,29.59,35.53,29.51Z" fill="#ca9d68"/><path d="M39.2,20.3c-.05.32-.19.59-.53.53a.93.93,0,0,1-.84-.73c-.08-.42.2-.44.5-.44A.8.8,0,0,1,39.2,20.3Z" fill="#c89b67"/><path d="M49,14.42c.38.49.8-.16,1.19,0-.54.83-1,.89-1.69.22Z" fill="#bea2d1"/><path d="M35.47,28.2a.94.94,0,0,1,.72.68c.05.24-.12.35-.33.38a.57.57,0,0,1-.68-.5A.43.43,0,0,1,35.47,28.2Z" fill="#bb9162"/><path d="M39.8,28.61a.53.53,0,0,1-.65.39c-.29-.07-.54-.24-.51-.57s.34-.4.63-.35A.55.55,0,0,1,39.8,28.61Z" fill="#c79b67"/><path d="M40.33,30.93a.49.49,0,0,1,.59.46.44.44,0,0,1-.49.52.47.47,0,0,1-.49-.42A.44.44,0,0,1,40.33,30.93Z" fill="#b88f61"/><path d="M34.77,22.78c.28.09.65.16.71.58a.29.29,0,0,1-.36.34.91.91,0,0,1-.78-.62C34.28,22.85,34.5,22.77,34.77,22.78Z" fill="#c49866"/><path d="M37.09,15.23a.58.58,0,0,1-.67.36c-.27,0-.48-.14-.38-.45s.43-.29.71-.27S37.13,15,37.09,15.23Z" fill="#c09564"/><path d="M42.27,18.88c0,.31-.13.55-.49.53a.46.46,0,0,1-.47-.44c0-.33.2-.49.53-.51S42.26,18.6,42.27,18.88Z" fill="#c99c68"/><path d="M38.39,25c.28.11.59.21.59.52s-.23.38-.5.36-.54-.17-.55-.49A.39.39,0,0,1,38.39,25Z" fill="#c39765"/><path d="M35.16,25.72c.21.19.71.14.67.62,0,.21-.23.3-.45.29A.58.58,0,0,1,34.8,26C34.78,25.84,34.84,25.64,35.16,25.72Z" fill="#c89b67"/><path d="M42.23,26.41c0,.27-.11.46-.41.44a.5.5,0,0,1-.52-.53c0-.34.29-.44.59-.42S42.23,26.16,42.23,26.41Z" fill="#ca9d68"/><path d="M39.12,27.6c-.37,0-.67,0-.71-.39s.21-.35.46-.36.59.08.65.39S39.25,27.54,39.12,27.6Z" fill="#c99c67"/><path d="M38.43,24c-.32,0-.58,0-.61-.31s.28-.4.56-.41.65,0,.64.36A.47.47,0,0,1,38.43,24Z" fill="#cc9e69"/><path d="M42.15,20.66c-.09.24-.19.44-.49.44s-.42-.2-.38-.47a.44.44,0,0,1,.46-.44A.43.43,0,0,1,42.15,20.66Z" fill="#c29765"/><path d="M36,27.45c-.07.26-.21.37-.44.36a.58.58,0,0,1-.58-.61.3.3,0,0,1,.37-.34A1.26,1.26,0,0,1,36,27.45Z" fill="#c59966"/><path d="M35.73,19.87c0,.36-.18.5-.45.5a.47.47,0,0,1-.49-.52c0-.21.1-.41.33-.34S35.66,19.62,35.73,19.87Z" fill="#c29665"/><path d="M35.49,24.93c0,.26-.24.27-.43.26a.49.49,0,0,1-.52-.51c0-.2.06-.43.32-.34S35.46,24.54,35.49,24.93Z" fill="#c79a67"/><path d="M42,22.31c0,.32-.11.61-.47.59s-.32-.21-.33-.43.14-.55.47-.55S42,22.12,42,22.31Z" fill="#c29765"/><path d="M41.68,24c.3.06.34.29.32.54a.37.37,0,0,1-.38.38c-.29,0-.41-.23-.4-.5A.39.39,0,0,1,41.68,24Z" fill="#c39765"/><path d="M38.85,22.1a.41.41,0,0,1-.48.41.46.46,0,0,1-.44-.48.39.39,0,0,1,.47-.4A.48.48,0,0,1,38.85,22.1Z" fill="#cb9e68"/><path d="M40,29.66c0,.25-.18.31-.39.33s-.57,0-.61-.36a.35.35,0,0,1,.36-.37A.61.61,0,0,1,40,29.66Z" fill="#c59966"/><path d="M34.75,21.39c.27.08.53.18.54.51,0,.15,0,.34-.25.33a.6.6,0,0,1-.6-.44C34.37,21.56,34.56,21.46,34.75,21.39Z" fill="#bc9263"/><path d="M41.56,16.18c-.25-.06-.49-.15-.46-.44a.4.4,0,0,1,.49-.38.42.42,0,0,1,.38.5A.39.39,0,0,1,41.56,16.18Z" fill="#b78d61"/><path d="M39.63,15.85c0,.28-.25.36-.46.4a.4.4,0,0,1-.5-.36c0-.23.18-.31.39-.32S39.53,15.53,39.63,15.85Z" fill="#c09564"/><path d="M38.94,17.51c-.27,0-.55,0-.51-.35s.26-.37.53-.37a.35.35,0,0,1,.4.33C39.4,17.45,39.16,17.49,38.94,17.51Z" fill="#cd9f69"/><path d="M39.22,18.57c-.08.18-.17.36-.41.35a.39.39,0,0,1-.44-.42c0-.2.14-.26.31-.28A.48.48,0,0,1,39.22,18.57Z" fill="#c19665"/><path d="M44.87,31.87c.28.29.47.55.28.87,0,.08-.36.13-.41.07C44.52,32.54,44.54,32.24,44.87,31.87Z" fill="#bd9263"/><path d="M36.2,17.09a.54.54,0,0,1-.63.4c-.2,0-.31-.13-.27-.3s.33-.41.64-.42S36.17,16.93,36.2,17.09Z" fill="#cd9f69"/><path d="M41.78,17.73a.28.28,0,0,1-.24-.4.52.52,0,0,1,.32-.28.3.3,0,0,1,.34.36C42.19,17.64,42,17.75,41.78,17.73Z" fill="#b88f61"/><path d="M42.45,27.88a.37.37,0,0,1-.34.41.34.34,0,0,1-.4-.32.32.32,0,0,1,.33-.39C42.26,27.57,42.43,27.63,42.45,27.88Z" fill="#c99c67"/><path d="M42.18,32.74a.41.41,0,0,1-.43.34c-.21,0-.26-.19-.26-.34s0-.32.26-.33A.41.41,0,0,1,42.18,32.74Z" fill="#c89c67"/><path d="M42.48,30.14c-.06-.09-.2-.21-.21-.33s.17-.31.38-.3.3.11.27.29A.37.37,0,0,1,42.48,30.14Z" fill="#c89b67"/><path d="M43.82,31.39c-.27,0-.41,0-.4-.22a.53.53,0,0,1,.16-.37c.23-.1.38.08.4.28S43.86,31.32,43.82,31.39Z" fill="#b28a5f"/><path d="M35.48,18.19c.13,0,.36.07.35.3s-.26.22-.43.23-.4-.09-.35-.34S35.24,18.15,35.48,18.19Z" fill="#bd9363"/><path d="M36.16,16.59c-.19,0-.35-.05-.37-.24s.13-.26.29-.27a.28.28,0,0,1,.33.23C36.46,16.55,36.22,16.5,36.16,16.59Z" fill="#c69966"/><path d="M50.69,4.62a4.15,4.15,0,0,0-2.84.73c-.41.23-.76.57-1.16.83s-.94.87-1.43.22.23-.93.58-1.25,1-.74,1.67-1.22C45.93,3.7,44.94,5,43.6,5c0-.54.58-.63.62-1.24L36.69,6.82a1.28,1.28,0,0,1,.59-1.42C40.28,3,43.39.8,47.45,1a11.51,11.51,0,0,1,6.17,2.54c.7.51.6,1,0,1.43a43.3,43.3,0,0,0-4,2.51.85.85,0,0,1-1.29,0A1,1,0,0,1,48.58,6,24.71,24.71,0,0,1,50.69,4.62Z" fill="#2c1c48"/><path d="M56.42,9.8a9.11,9.11,0,0,1-2.21.21L55.8,8A5.12,5.12,0,0,1,56.42,9.8Z" fill="#d6bbe2"/><path d="M54.24,27.37c.53-1.32,1-2.66,1.6-3.94a11.38,11.38,0,0,0,.76-3.81c.06-.53.25-1.17-.52-1.52-.37-.17,0-.56.06-.85h0l1.17,0a12.8,12.8,0,0,1-2.13,9.05A2.7,2.7,0,0,1,54.24,27.37Z" fill="#f4e0fb"/><path d="M47.78,29.43c.37-.51,0-.77-.36-1s-1.06-.51-1.36-1.07a31.44,31.44,0,0,0,3.34,1.16c.68.17.41.66.6,1Z" fill="#af73de"/><path d="M59.85,21.68c-.59.2-1,.28-1.2-.29a.37.37,0,0,1,.26-.47C59.47,20.85,59.52,21.36,59.85,21.68Z" fill="#c59966"/><path d="M59.87,20.25a.41.41,0,0,1-.4.37.54.54,0,0,1-.65-.54.38.38,0,0,1,.36-.41C59.57,19.65,59.63,20.07,59.87,20.25Z" fill="#c69966"/><path d="M59.31,22.67c.1.3,0,.49-.24.48s-.54-.15-.53-.52a.49.49,0,0,1,.4-.51C59.37,22.09,59.22,22.51,59.31,22.67Z" fill="#b88f61"/><path d="M58.92,24.46a.65.65,0,0,1-.57-.64c0-.22.14-.53.38-.45s.38.54.49.85S59.06,24.43,58.92,24.46Z" fill="#c99c67"/><path d="M57.37,30.49a.38.38,0,0,1-.41.42.37.37,0,0,1-.36-.39c0-.25,0-.49.34-.52S57.33,30.2,57.37,30.49Z" fill="#c19665"/><path d="M58.48,28.5c-.23,0-.46.1-.67-.09a.59.59,0,0,1-.21-.63.4.4,0,0,1,.22-.25c.34-.07.29.29.42.45a1.75,1.75,0,0,1,.22.54Z" fill="#bf9464"/><path d="M59.51,19.19c-.32,0-.52-.09-.5-.4a.31.31,0,0,1,.4-.31c.29,0,.56.15.52.5S59.63,19.14,59.51,19.19Z" fill="#cea06a"/><path d="M59.94,16.32c-.14.28-.39.24-.62.2a.31.31,0,0,1-.25-.45c.11-.27.35-.29.59-.21A.38.38,0,0,1,59.94,16.32Z" fill="#c59966"/><path d="M59.44,17.28c.36,0,.53.06.52.31a.34.34,0,0,1-.37.36.31.31,0,0,1-.32-.28C59.24,17.43,59.32,17.29,59.44,17.28Z" fill="#c29765"/><path d="M58,26.29c0-.2.1-.37.34-.37s.22.26.29.42,0,.46-.19.45S58,26.54,58,26.29Z" fill="#c09564"/><path d="M58,29.22a.29.29,0,0,1-.32.26c-.21,0-.37-.15-.3-.37s.2-.29.29-.28A.36.36,0,0,1,58,29.22Z" fill="#b0885e"/><path d="M58.91,25.57c-.4-.22-.45-.47-.29-.74a.33.33,0,0,1,.29,0A.6.6,0,0,1,58.91,25.57Z" fill="#cb9d68"/><path d="M59.38,13.78a1,1,0,0,1,0,.91C59.16,14.42,59.24,14.16,59.38,13.78Z" fill="#67626f"/><path d="M53,44.6c-.24.19-.62.17-.78.49L48.45,46.7a2.62,2.62,0,0,0-1.91,1.59,3.83,3.83,0,0,1-2.28,2.14,3.87,3.87,0,0,0-1,.67c-.18.13-.32.46-.57.3s0-.51,0-.78A2.46,2.46,0,0,1,43,50c-.23.2-.57.2-.77.45a4.69,4.69,0,0,1-1.72,1.37c-.6-.09-.52-.56-.42-.92a1.33,1.33,0,0,0,0-1c.81-.06.87-1,1.44-1.31,1.51-.93,3.14-1.63,4.64-2.62,1.1-.72,2.57-.24,3.82-.62.73-.22,1.78,0,1.86-1.22C52.3,44.15,52.79,44.07,53,44.6Z" fill="#dec3f0"/><path d="M61.44,45.84c-.61-.55-.33-1.75-1.42-2l-.3-.71a7.19,7.19,0,0,1,3.37-.5l.27,0c.51,1.23,1.63,1.47,2.76,1.65a3.09,3.09,0,0,1,1.13.29,8.68,8.68,0,0,1-4.9.71C62.06,45.3,61.38,45,61.44,45.84Z" fill="#dec3f0"/><path d="M46.15,42c.29,0,.57.13.55.48a.47.47,0,0,1-.59.44.5.5,0,0,1-.49-.56C45.64,42.05,45.89,42,46.15,42Z" fill="#ce9e75"/><path d="M59,40.78a.47.47,0,0,1-.44.45c-.28,0-.46-.08-.45-.38a.45.45,0,0,1,.41-.47A.42.42,0,0,1,59,40.78Z" fill="#cfa071"/><path d="M48.68,41.54a.69.69,0,0,1,.58.49.29.29,0,0,1-.3.39.59.59,0,0,1-.58-.47C48.3,41.72,48.48,41.61,48.68,41.54Z" fill="#cd9c79"/><path d="M56.48,42.44a.31.31,0,0,1-.3-.41c0-.25.23-.3.44-.3s.44.07.39.32A.49.49,0,0,1,56.48,42.44Z" fill="#cfa070"/><path d="M45,43.25c-.09.25-.24.41-.51.38s-.31-.13-.28-.3a.45.45,0,0,1,.51-.38A.28.28,0,0,1,45,43.25Z" fill="#cc9b7b"/><path d="M60.39,40.75A.35.35,0,0,1,60,40.4a.37.37,0,0,1,.31-.42c.22,0,.35.14.37.36A.34.34,0,0,1,60.39,40.75Z" fill="#ce9e75"/><path d="M51.16,42.39c-.12.09-.2.22-.27.21s-.21-.15-.2-.21a.37.37,0,0,1,.22-.22C51,42.16,51.05,42.29,51.16,42.39Z" fill="#cc9b7b"/><path d="M42.25,50.45c.37-.42.61-1,1.28-1.31a1.52,1.52,0,0,1-.79,1.48C42.63,50.42,42.43,50.45,42.25,50.45Z" fill="#c0a3d2"/><path d="M50.67,23.83a2,2,0,0,0,2.16-.1,1.55,1.55,0,0,1,1-.21c.3.05.54.19.56.52s-.22.37-.45.45a3.61,3.61,0,0,1-2.88.19C50.81,24.55,50.62,24.38,50.67,23.83Z" fill="#af72df"/><path d="M47,17c1.22.15,2.31.65,3.3-.21C49.71,18,48.28,18.12,47,17Z" fill="#383645"/><path d="M54.21,13.65l.53-.72a2.93,2.93,0,0,1,1.58.42C55.69,14.31,54.9,13.62,54.21,13.65Z" fill="#bfa3d1"/><path d="M54,25.54a.67.67,0,0,1-.91.47c-.31-.1-1-.2-.81-.43s.93-.35,1.43-.46C54,25.05,54,25.3,54,25.54Z" fill="#b175e0"/><path d="M56.14,17.25a1.33,1.33,0,0,0-.44-.17c-.38,0-.9-.19-.87-.44.07-.53.51-.21.85-.18s.82-.34,1.28-.07c0,.57-.58.54-.83.86Z" fill="#353342"/><path d="M53.45,20.32a.61.61,0,0,1-.41-.7c0-.21.11-.42.37-.31a.77.77,0,0,1,.53.72C53.94,20.26,53.77,20.37,53.45,20.32Z" fill="#f5e1fb"/><path d="M53.76,21.1a.42.42,0,0,1-.34.39c-.18,0-.27-.17-.24-.3a.55.55,0,0,1,.29-.31C53.62,20.82,53.76,20.89,53.76,21.1Z" fill="#3b3848"/><path d="M53.44,11.5c.59.05,1,.32,1,.94a.82.82,0,0,1-.86.92c-.51,0-1-.26-1-.92A.94.94,0,0,1,53.44,11.5Z" fill="#f2d2c6"/><path d="M42,66.16l.24-.25c1.18.16,2.38-.16,3.56.2,5,1.53,8.58,4.85,11.6,8.92A2.8,2.8,0,0,0,59,78.27a10.36,10.36,0,0,0,4.49,1.1,58.86,58.86,0,0,0,7.14-.44c4.68-.41,9.23-1.56,13.88-2.11,2.64-.32,5.27-.8,7.91-1A18.89,18.89,0,0,1,99.72,77a21.26,21.26,0,0,1,7.71,4,11.65,11.65,0,0,1,4,10.5c0,.32-.15.63.19.86a8.57,8.57,0,0,1-2.29,3,19.89,19.89,0,0,1-14,5.42c-3.51-.09-7-.52-10.47-.9-3-.33-6-.22-8.94-.64-4.56-.64-8.87.42-13.2,1.49A10.37,10.37,0,0,0,59,102.42h0c-.14,0-.26.07-.25.25h0a.36.36,0,0,0-.49.25h0a1.7,1.7,0,0,0-1.21,1h0c-.94-.33-.22-.77,0-1a8,8,0,0,1,3.15-2.52A65.93,65.93,0,0,1,69,96.82c3.77-1,7.6-.77,11.43-.49,1.63.11,3.27.08,4.9.26,1.78.21,3.58.16,5.37.29A8.64,8.64,0,0,0,96,95.56a6.31,6.31,0,0,0,3.08-5.85,4.85,4.85,0,0,0-3.26-4.5,10.33,10.33,0,0,0-6.11-.43,51.5,51.5,0,0,0-12.38,5c-5,2.77-10.48,4.52-15.9,6.3-3.1,1-6.31.69-9.48,0l-1.28-.29c-.1-.48-.56-.52-.89-.73a19.24,19.24,0,0,1-7.53-8c-1.88-4-1.56-8.32-1.33-12.59.11-2,.87-3.87,1.14-5.84.44.09,1,.21,1.07-.37s-.38-.72-.86-.77A2.5,2.5,0,0,0,42,66.16ZM56,76.26c-.47,0-.63.26-.59.63s.14,1,.78,1a.58.58,0,0,0,.63-.69A.94.94,0,0,0,56,76.26Zm-4.38-4.5c-.3.1-.66.23-.66.65a.67.67,0,0,0,.69.67c.43,0,.6-.31.6-.7S52.05,71.83,51.66,71.76ZM54.16,75a.59.59,0,0,0,.66-.6.72.72,0,0,0-.69-.79.48.48,0,0,0-.57.56C53.6,74.59,53.73,75,54.16,75Zm-7.89-5.86a.69.69,0,0,0-.71-.61c-.34,0-.65.05-.67.48a.61.61,0,0,0,.61.71A.64.64,0,0,0,46.27,69.18Zm2.17,1.32c.41,0,.69-.19.63-.57a.74.74,0,0,0-.75-.63c-.39,0-.59.18-.55.57A.62.62,0,0,0,48.44,70.5ZM59,79.13c0-.35-.2-.49-.53-.46s-.56.16-.55.49a.56.56,0,0,0,.63.55C58.92,79.69,59,79.45,59,79.13Z" fill="#af71df"/><path d="M85.62,20a18.28,18.28,0,0,1,11.85,4.58c3.18,2.83,3.83,6.64,3.42,10.65A12.39,12.39,0,0,1,97.68,43c-2.43,2.5-5.54,3.27-8.84,3.79-6.07,1-10.31-4.49-10.09-9.47a6.12,6.12,0,0,1,4.18-5.58c1.46-.41,2.55,0,3,1.2s0,2.11-1.47,2.72A2.25,2.25,0,0,0,83,38.32a4.4,4.4,0,0,0,4.82,4.13c2.86-.17,5.53-.88,7.35-3.38,3-4.11,1.55-10.58-2.89-12.94a14.64,14.64,0,0,0-17.93,2.66,25.82,25.82,0,0,0-4.17,4.92.92.92,0,0,1-1,.56c-.55-.09-.68-.54-.76-1A4.11,4.11,0,0,1,69,30.75C72.33,24,77.75,20.29,85.62,20Z" fill="#b073e0"/><path d="M57.38,75c.28.2.55.31.84,0,2.11-2.25,4.78-4,6.1-7h0l.24.24h0c.14,2.19,2.56,4.72,4.61,4.8a66.59,66.59,0,0,0,7.72-.64c2.73-.22,5.08-.66,8.17-.83a58.81,58.81,0,0,1,10,.68c4.25.49,9,1.33,13.67,4.64,4,3.53,5.92,9.21,3.59,14.28-.18.39-.28.84-.69,1.08-.34-.23-.23-.54-.19-.86a11.65,11.65,0,0,0-4-10.5,21.26,21.26,0,0,0-7.71-4,18.89,18.89,0,0,0-7.26-1.21c-2.64.21-5.27.69-7.91,1-4.65.55-9.2,1.7-13.88,2.11a58.86,58.86,0,0,1-7.14.44A10.36,10.36,0,0,1,59,78.27,2.8,2.8,0,0,1,57.38,75Zm5.71-1.51a.85.85,0,0,0,.73-.8.61.61,0,0,0-.56-.75c-.49,0-.65.42-.74.79S62.72,73.39,63.09,73.52Zm-2.23,2a.52.52,0,0,0-.56-.5c-.41,0-.57.21-.53.6a.55.55,0,0,0,.53.54C60.71,76.21,60.79,75.87,60.86,75.56Z" fill="#c78aea"/><path d="M5.29,70.61A13.36,13.36,0,0,1,14.85,58.5c5.18-1.33,10-.12,14.87,1.6a49.42,49.42,0,0,1,6.2,2.83,5.92,5.92,0,0,1,3.21,3.83c.11.43.24.91-.2,1.21a1.13,1.13,0,0,1-1.35-.08,15,15,0,0,0-2-1.54C30.78,64,25.84,62,20.39,61.62c-3.63-.22-6.89.62-9.32,3.6a9,9,0,0,0-2,5.15,2.37,2.37,0,0,0,1.31,2.38c.82.46,1.43-.24,2-.67a4.58,4.58,0,0,0,1.73-2.78c.37-1.54,1.11-2.14,2.25-1.91s1.68,1.3,1.39,2.76a8.14,8.14,0,0,1-5.83,6.4c-2.55.82-5.44-1.21-6.43-4.27A4.58,4.58,0,0,1,5.29,70.61Z" fill="#b073e0"/><path d="M15.57,46.42a8.4,8.4,0,0,0,2.62,6.41,5.38,5.38,0,0,1,1,1.45c.22.46.36.93-.06,1.33a1.08,1.08,0,0,1-1.34,0A10,10,0,0,1,13.9,52,11.79,11.79,0,0,1,13,41.88c1.24-3.44,4.1-4.65,7.43-4.91a9.31,9.31,0,0,1,9.77,10.74,6.72,6.72,0,0,1-6.43,5.46c-2.72,0-5.14-3.63-4.14-6.18a1.66,1.66,0,0,1,1.41-1.14,1.59,1.59,0,0,1,1.69.9,13.67,13.67,0,0,1,.59,1.81,1,1,0,0,0,1.37.73,3,3,0,0,0,2.14-3.21,6.07,6.07,0,0,0-7.54-5.52C16.63,41.16,15.55,42.77,15.57,46.42Z" fill="#b074e0"/><path d="M91.65,59.86a7.29,7.29,0,0,1-4.15,5.9,6.06,6.06,0,0,1-6.79-.3c-2.22-1.63-2.47-4.67-.51-6.16a1.72,1.72,0,0,1,2.31-.06,1.55,1.55,0,0,1,.3,2.06c-.41.94-.07,1.52,1,1.74A4.06,4.06,0,0,0,88,61a3.63,3.63,0,0,0-.59-4.32c-1.89-2-4.15-2.16-6.63-1.4s-4.24,2.52-5.86,4.41c-1.28,1.48-2.44,3.06-3.64,4.6a7.29,7.29,0,0,1-4.11,2.94c-.5.11-1,.11-1.28-.37a.9.9,0,0,1,.38-1.16c2.28-1.71,3.32-4.36,5-6.56,1.81-2.41,3.65-4.82,6.38-6.22,4.77-2.46,8.46-2.09,11.84,1A7.44,7.44,0,0,1,91.65,59.86Z" fill="#b073e0"/><path d="M19.82,12.44a17.08,17.08,0,0,1,5,1,7.61,7.61,0,0,1,5.25,6,22.24,22.24,0,0,1,.64,3.89c0,.33,0,.68-.37.82s-.61-.09-.85-.31a8,8,0,0,1-1.86-3.43c-1.35-3.9-6.45-6-10.25-4.36-2.7,1.16-3.29,4.25-2.94,6.49a6.11,6.11,0,0,0,4.18,5.12c1.32.47,2,0,2-1.4A3.39,3.39,0,0,0,19.86,24a1.55,1.55,0,0,1,0-2.26,1.58,1.58,0,0,1,2.28-.06A5.74,5.74,0,0,1,24,27.42a4.87,4.87,0,0,1-3.53,3.84,2.76,2.76,0,0,1-1.07,0,9.61,9.61,0,0,1-7.94-10.74c.32-3.26,1.57-5.92,4.76-7.33A9.39,9.39,0,0,1,19.82,12.44Z" fill="#b074e0"/><path d="M28.93,66.16a8.27,8.27,0,0,1,7.59,3.94,1.44,1.44,0,0,1,.19.31c.28.76.94,1.65.13,2.3s-1.46-.22-2-.74c-1.7-1.53-3.5-2.67-6-2.52a6.17,6.17,0,0,0-5.55,7.91A3.91,3.91,0,0,0,26,79.84a2,2,0,0,0,2.39-1.17,1.62,1.62,0,0,0-.4-2.16,1.37,1.37,0,0,1-.19-2.11,1.66,1.66,0,0,1,2.3,0A4.44,4.44,0,0,1,31,80.29c-1.24,1.81-2.86,3-5.21,2.7a6.27,6.27,0,0,1-5.42-4.47C18.41,72.21,22.77,66.12,28.93,66.16Z" fill="#b074e0"/><path d="M97.6,68.07a5.08,5.08,0,0,1-4.08-1.64A2.92,2.92,0,0,1,92.79,65a1.51,1.51,0,0,1,.55-1.6,1.19,1.19,0,0,1,1.56.09,3.76,3.76,0,0,0,4.7.82,5.23,5.23,0,0,0,2.82-4.58c.21-2.73-.35-5.13-2.91-6.75a5.33,5.33,0,0,0-4.36-.51c-.93.23-1.82.61-2.73.89-.5.16-1,.35-1.44-.15s-.12-1.1.21-1.54c1.3-1.7,3.2-2.26,5.17-2.72,3.31-.77,8.53,2.61,9.22,7.46a14.58,14.58,0,0,1-.24,5.7A8.1,8.1,0,0,1,97.6,68.07Z" fill="#b073e0"/><path d="M70.17,12c4.31,0,7.17,3.51,6.12,7.46a3.55,3.55,0,0,1-.29.79c-.37.66-.73,1.5-1.65,1.29s-.54-1.1-.63-1.73a.49.49,0,0,1,0-.12c.28-4.5-3.57-5.2-6.42-3.49a3.61,3.61,0,0,0-1.79,3.55,1.69,1.69,0,0,0,1.32,1.53c.56.2.94,0,.9-.67a3.47,3.47,0,0,1,0-.72,1.61,1.61,0,0,1,1.33-1.5,1.55,1.55,0,0,1,1.78.91,3.48,3.48,0,0,1-.28,3.85,3.91,3.91,0,0,1-4,1.64,5,5,0,0,1-4.27-3.58,6.68,6.68,0,0,1,1.57-6.46A8.53,8.53,0,0,1,70.17,12Z" fill="#b074e0"/><path d="M113.75,32.72a13.7,13.7,0,0,1-4.78,9.7,17.32,17.32,0,0,1-9,4.4c-.79.15-1.88.5-2.22-.47s.79-1.31,1.49-1.69c2.13-1.15,4.54-1.78,6.41-3.43,2.3-2,4.19-4.25,4.67-7.43a3.08,3.08,0,0,0-3.78-3.58c-.61.15-.87.67-1.1,1.18-.33.71-.6,1.47-1.64,1a1.78,1.78,0,0,1-1.12-2.13A4.08,4.08,0,0,1,106,27.12c3.13-.26,6.71.86,7.56,4.41A9.56,9.56,0,0,1,113.75,32.72Z" fill="#b074e0"/><path d="M5.22,39.52a4.33,4.33,0,0,1,4,2.43,5,5,0,0,1,.06,4.84,1.59,1.59,0,0,1-2,.8c-.9-.3-.79-1.09-.69-1.82.06-.43.2-.86.23-1.29a1.79,1.79,0,0,0-1.63-2.1A1.88,1.88,0,0,0,2.9,44.33c0,2.43,1.36,4.21,3.05,5.75a23.7,23.7,0,0,0,5.49,3.39c1.25.62,2.49,1.28,3.73,1.93.31.17.68.39.57.81s-.49.31-.79.4a5.25,5.25,0,0,1-3.06-.27C8.18,55.27,4.8,53.65,2.3,50.57A9.33,9.33,0,0,1,0,44.78C0,41.53,2,39.52,5.22,39.52Z" fill="#b074e0"/><path d="M42,66.16a2.5,2.5,0,0,1,.27,1.45c-.59.28-.3.73-.21,1.14-.27,2-1,3.84-1.14,5.84-.23,4.27-.55,8.59,1.33,12.59a19.24,19.24,0,0,0,7.53,8c.33.21.79.25.89.73a9.39,9.39,0,0,1-3.86-1.44A36.52,36.52,0,0,1,42,90.88a12.33,12.33,0,0,1-3.61-8.1A29.11,29.11,0,0,1,40.31,69,6,6,0,0,1,42,66.16Z" fill="#c78aea"/><path d="M59,102.42c1.93-.27,3.75-1,5.68-1.29a15.33,15.33,0,0,1,5.69.07,4,4,0,0,1,2.81,5.89,3.3,3.3,0,0,1-5,1,10.46,10.46,0,0,1-1.53-1.83,1.16,1.16,0,0,1,.11-1.44c.43-.59.86-.77,1.18.09a1.35,1.35,0,0,0,1.26.94c.62,0,.93-.4,1.19-.86a1.08,1.08,0,0,0-.59-1.73,7.69,7.69,0,0,0-4.35-.54c-2.38.42-4.83.71-7,2-.41.25-.89.53-1.35.28s.32-.77,0-1.15h0c.74.09,1.07-.32,1.21-1h0a.34.34,0,0,0,.49-.25h0c.16,0,.27-.06.25-.25Z" fill="#b073e0"/><path d="M29.47,96.68c-3.58-.05-6.12-1.6-7.3-4.5a6.5,6.5,0,0,1-.3-3.18c0-.29.12-.69.52-.71s.35.44.38.71a5,5,0,0,0,4.05,4.59c3.32.61,6.28,0,8.4-2.94a1.54,1.54,0,0,1,2-.62c.82.36.83,1.15.66,1.86A4.28,4.28,0,0,1,36,94.47,10.64,10.64,0,0,1,29.47,96.68Z" fill="#b074e0"/><path d="M28.7,90.39a5.94,5.94,0,0,1-5.54-3.25,1.16,1.16,0,0,1,.27-1.62,1.22,1.22,0,0,1,1.71.34c1.2,1.58,2.6,2.32,4.67,1.66a5.93,5.93,0,0,0,4.3-4.8c.1-.47.12-1,.22-1.42s.12-1,.76-1,.74.58.86,1a6.72,6.72,0,0,1-1,5.38C33.42,89.21,30.84,90,28.7,90.39Z" fill="#b074e0"/><path d="M66.13,111.07a2.77,2.77,0,0,1-2,2.83c-1.58.41-3.49-.11-4.13-1.16a2,2,0,0,1-.06-2,.78.78,0,0,1,1.18-.41c.71.35,1.44,1.17,2.11,0a2.53,2.53,0,0,0-1.14-2.87,10.16,10.16,0,0,0-2.78-.66c-.38-.08-.9,0-.9-.53s.41-.62.8-.77a4.39,4.39,0,0,1,2.25.11A5.84,5.84,0,0,1,66.13,111.07Z" fill="#b074e0"/><path d="M99.85,58.32a1.35,1.35,0,0,1-1.77,1.43,6.39,6.39,0,0,0-3.36-.43c-.65.16-1-.46-.84-1.12.14-.87,1.45-1.76,2.67-1.86,1.57-.12,2.91.49,3.23,1.49A2.11,2.11,0,0,1,99.85,58.32Z" fill="#b074e0"/><path d="M103.9,35.05a1,1,0,0,1,1-1,2.26,2.26,0,0,1,1.93,1.83,1.14,1.14,0,0,1-1.19,1.22A2,2,0,0,1,103.9,35.05Z" fill="#b074e0"/><path d="M34.27,104.57c.48,0,.91,0,.66.72a9,9,0,0,0-.61,2.61l-.49,0H33.6a9.14,9.14,0,0,1-2.16-.78c.4-.77,1.18-1.2,1.71-1.86.08-.1.21-.31.21-.31A4.11,4.11,0,0,1,34.27,104.57Z" fill="#e6c2ae"/><path d="M30.29,27.5c.09-.55,0-1.22.73-1.37s1,.42,1.21.94a2,2,0,0,1,0,2.06.81.81,0,0,1-1.08.22C30.36,29,30.38,28.2,30.29,27.5Z" fill="#b074e0"/><path d="M57.94,98.82c.45,0,.54.21.44.56a6.12,6.12,0,0,1-2.63,3.69c-.2.12-.52.36-.75.05s.06-.45.2-.64c.78-1.1,1.57-2.2,2.36-3.29A3.27,3.27,0,0,1,57.94,98.82Z" fill="#b074e0"/><path d="M28,106.05c-.4.5-.13,1.07-.2,1.61,0,.29-.07.6-.4.64s-.51-.32-.5-.55a3.7,3.7,0,0,0-1.77-3.23,3,3,0,0,1,1.49-.19h0l.38.25C27.72,104.81,27.82,105.47,28,106.05Z" fill="#e6c2ae"/><path d="M23.19,56.55c-.33-.07-1.24,0-1.27-.85s.86-.83,1.47-.88,1.25.21,1.23,1S24.12,56.65,23.19,56.55Z" fill="#b074e0"/><path d="M34.49,101.74a.49.49,0,0,1,0-.79v.75Z" fill="#d1a36d"/><path d="M34.54,101l.21-.26,0,0-.24.24Z" fill="#d1a36d"/><path d="M27,104.57l-.38-.25Z" fill="#d1a36d"/><path d="M56,76.26a.94.94,0,0,1,.82,1,.58.58,0,0,1-.63.69c-.64,0-.72-.53-.78-1S55.57,76.27,56,76.26Z" fill="#d1a36d"/><path d="M51.66,71.76c.39.07.64.24.63.62s-.17.71-.6.7a.67.67,0,0,1-.69-.67C51,72,51.36,71.86,51.66,71.76Z" fill="#d1a36d"/><path d="M54.16,75c-.43-.05-.56-.45-.6-.83a.48.48,0,0,1,.57-.56.72.72,0,0,1,.69.79A.59.59,0,0,1,54.16,75Z" fill="#d1a36d"/><path d="M46.27,69.18a.64.64,0,0,1-.77.58.61.61,0,0,1-.61-.71c0-.43.33-.49.67-.48A.69.69,0,0,1,46.27,69.18Z" fill="#d1a36d"/><path d="M48.44,70.5a.62.62,0,0,1-.67-.63c0-.39.16-.58.55-.57a.74.74,0,0,1,.75.63C49.13,70.31,48.85,70.49,48.44,70.5Z" fill="#d1a36d"/><path d="M42,68.75c-.09-.41-.38-.86.21-1.14.48,0,.93.27.86.77S42.48,68.84,42,68.75Z" fill="#d1a36d"/><path d="M59,79.13c0,.32-.12.56-.45.58a.56.56,0,0,1-.63-.55c0-.33.25-.47.55-.49S59,78.78,59,79.13Z" fill="#d1a36d"/><path d="M58.32,102.89c-.14.65-.47,1.06-1.21,1A1.7,1.7,0,0,1,58.32,102.89Z" fill="#af71df"/><path d="M58.8,102.65a.34.34,0,0,1-.49.25A.36.36,0,0,1,58.8,102.65Z" fill="#af71df"/><path d="M59,102.41c0,.19-.09.24-.25.25C58.78,102.48,58.9,102.43,59,102.41Z" fill="#af71df"/><path d="M63.09,73.52c-.37-.13-.67-.34-.57-.76s.25-.81.74-.79a.61.61,0,0,1,.56.75A.85.85,0,0,1,63.09,73.52Z" fill="#e6c2ae"/><path d="M60.86,75.56c-.07.31-.15.65-.56.64a.55.55,0,0,1-.53-.54c0-.39.12-.61.53-.6A.52.52,0,0,1,60.86,75.56Z" fill="#e6c2ae"/><path d="M49.66,108.79c-3.19,2.61-6.67,4.42-11,3.72-.37-.06-.92-.08-.91-.57s.6-.43.94-.39c2.93.3,5.42-1,8-2.06.94-.38,1.89-.71,2.84-1.07Z" fill="#1d1528"/><path d="M55.9,105.52a6.32,6.32,0,0,0-4.79.81c-2.23,1.26-4.54,2.27-7.25,1.62-1.16-.27-2.72-.25-3.32-1A10.18,10.18,0,0,0,37,104.25a1.22,1.22,0,0,1-.49-1.93c.44-.57.77-1.14.17-1.68a1.24,1.24,0,0,0-1.91,0l0,0c.29,0,.72-.15.83.21a1.15,1.15,0,0,1-.23.86c-.26.33-.56,0-.84-.1l-.06,0c1.13,1.82,1.16,1.73-.22,2.83.48,0,.91,0,.66.72a9,9,0,0,0-.61,2.61H39c.13.3,0,.41-.16.42a33,33,0,0,1-4.77.07c-.26,0-.27-.24-.27-.44H33.6c0,.37-.1.51-.5.36-.62-.23-1.26-.42-1.89-.63-1.74,1.27-2.1,2.68-1.23,4.75.13.31.5.67.07.94s-.65-.14-.9-.39a2.54,2.54,0,0,1-.83-2.78c.47-1.34,1.18-2.52,2.79-2.73l.33-.3c.46-.88,1.42-1.32,1.92-2.17L28,108.3v-2.25c-.4.5-.13,1.07-.2,1.61,0,.29-.07.6-.4.64s-.51-.32-.5-.55a3.7,3.7,0,0,0-1.77-3.23,3,3,0,0,1,1.49-.19,6.76,6.76,0,0,0-6.56.46,1.66,1.66,0,0,0-.22,2.52,5.11,5.11,0,0,0,1.69,1.09c1.29.62,2.57,1.29,4.05,2l-.72.32c-.76.32-1.36.81-1,1.72s1.19.82,2,.68a1.44,1.44,0,0,0,.9-.73c.48-.74,1-.58,1.37.07a7.54,7.54,0,0,0,4.79,3.11c.54.15,1.09.26,1.63.39-1.06.53-1.75,1.42-2.75,1.85a1.39,1.39,0,0,0-.83,1.48c.09.72.79.68,1.3.83a4.68,4.68,0,0,0,1.05.16,23,23,0,0,0,6.2-.16c.92-.19,1.18-.67.79-1.53A3.72,3.72,0,0,0,38,116.7c-.28-.11-.86,0-.76-.55s.52-.26.82-.27a8.21,8.21,0,0,0,3.79-1,47.42,47.42,0,0,0,9.69-6.55,4.43,4.43,0,0,1,2.67-1.45,9.21,9.21,0,0,0,1.84-.47c.25-.08.59-.21.54-.55S56.17,105.58,55.9,105.52Zm-20.07,1.92a2,2,0,0,1-.55-1.71c0-.26.09-.52.37-.53s.33.23.33.44A4.2,4.2,0,0,1,35.83,107.44Zm1.67,0c0,.07-.35.18-.38.14a4.54,4.54,0,0,1-.74-2,1.17,1.17,0,0,1,0-.45.75.75,0,0,1,.12-.31c.54.08.5.39.59.58A3.06,3.06,0,0,1,37.5,107.46Zm-10.66,2.83a.62.62,0,0,1-.83-.24,10.76,10.76,0,0,0-3.36-2.42c-.66-.36-1.27-.78-1-1.65s1.06-.61,1.68-.68c1.74-.2,2.5.87,3,2.27a9.13,9.13,0,0,1,.61,1.92C27,109.78,27.29,110.07,26.84,110.29Zm9.68,6.25a3.83,3.83,0,0,1-2.52.74C34.76,116.35,35.43,115.79,36.52,116.54Zm-3.89,2,2.12.26A1.46,1.46,0,0,1,32.63,118.56Zm4.85-.57a3.6,3.6,0,0,1-4.2-.46A16.44,16.44,0,0,0,37.48,118Zm1.44-3.58c-2.09.24-4.14,1.27-6.29.38-.38-.16-1-.2-.91-.76s.67-.28,1.07-.16c.92.28,1.65-.43,2.52-.48.38,0-.68-.55.07-.67.35,0,.59.26.7.56s-.16.5-.4.61A2.76,2.76,0,0,1,35,114a7.26,7.26,0,0,0,3.62-.14c.23-.07.49-.22.63.07S39.17,114.38,38.92,114.41Zm-.28-1.9c-.37-.06-.92-.08-.91-.57s.6-.43.94-.39c2.93.3,5.42-1,8-2.06.94-.38,1.89-.71,2.84-1.07l.15.37C46.47,111.4,43,113.21,38.64,112.51Z" fill="#d1a36d"/><path d="M35,114a7.26,7.26,0,0,0,3.62-.14c.23-.08.49-.22.63.07s-.11.45-.36.48c-2.09.24-4.14,1.27-6.29.38-.38-.16-1-.2-.91-.76s.67-.28,1.07-.16c.92.28,1.65-.43,2.52-.48.38,0-.68-.55.07-.67.35,0,.59.26.7.56s-.16.5-.4.61A2.76,2.76,0,0,1,35,114Z" fill="#20172e"/><path d="M31.21,107.68c-1.74,1.27-2.1,2.68-1.23,4.75.13.31.5.67.07.94s-.65-.14-.9-.39a2.54,2.54,0,0,1-.83-2.78c.47-1.34,1.18-2.52,2.79-2.73A.67.67,0,0,1,31.21,107.68Z" fill="#e6c2ae"/><path d="M33.83,108l.49,0H39c.13.3,0,.41-.16.42a33,33,0,0,1-4.77.07C33.84,108.39,33.83,108.15,33.83,108Z" fill="#20172e"/><path d="M36.46,104.86c.54.08.5.39.59.58a3.06,3.06,0,0,1,.45,2c0,.07-.35.18-.38.14a4.54,4.54,0,0,1-.74-2,1.4,1.4,0,0,1,0-.45A.75.75,0,0,1,36.46,104.86Z" fill="#e6c2ae"/><path d="M33.28,117.53a16.44,16.44,0,0,0,4.2.46A3.6,3.6,0,0,1,33.28,117.53Z" fill="#1d1528"/><path d="M34,117.28c.76-.93,1.43-1.49,2.52-.74A3.83,3.83,0,0,1,34,117.28Z" fill="#20172e"/><path d="M35.83,107.44a2,2,0,0,1-.55-1.71c0-.26.09-.52.37-.53s.33.23.33.44A4.2,4.2,0,0,1,35.83,107.44Z" fill="#e6c2ae"/><path d="M31.21,107.68a.67.67,0,0,0-.1-.21l.33-.3a9.14,9.14,0,0,0,2.16.78c0,.37-.1.51-.5.36C32.48,108.08,31.84,107.89,31.21,107.68Z" fill="#20172e"/><path d="M34.55,101l.24-.24c.29,0,.72-.15.83.21a1.15,1.15,0,0,1-.23.86c-.26.33-.56,0-.84-.1Z" fill="#e6c2ae"/><path d="M34.75,118.82a1.46,1.46,0,0,1-2.12-.26Z" fill="#1d1528"/><path d="M32.19,45.36s-.91-4.35-1-4.82,1.24,2.3,1.24,2.3v3.08Z" fill="#dec3f0"/><path d="M39.1,58.66s-2.72,1.17-4.31-3.85c-1.8-5.67.85,2.35,2.44,2.56A2,2,0,0,1,39.1,58.66Z" fill="#bc9fcf"/><path d="M34.28,31.4a2.71,2.71,0,0,0,2.31,1.68c1.87.26,1.8-.45,1.8-.45Z" fill="#191226"/><polygon points="42.25 50.45 43.05 49.7 42.74 50.62 42.01 50.91 42.25 50.45" fill="#191226"/><path d="M40.53,51.82a.36.36,0,0,1-.45-.41c0-.51-.52.43-.29.74s.55.34,1.05.13Z" fill="#191226"/><path d="M53,44.6l1.87-.17,2.28-.85a23.65,23.65,0,0,0-3,1.54H52.83Z" fill="#1d152a"/><path d="M62.08,45.93l-.88.1-.47-.9a3.92,3.92,0,0,1,1.62.24C63.37,45.7,62.08,45.93,62.08,45.93Z" fill="#1d152a"/><path d="M63.06,48.93s6.21.92,8.37.44a31.51,31.51,0,0,1-8.37.06l-.32-.26Z" fill="#1b1328"/><path d="M74.65,48.55s1.07-.72.29-1.09a2.93,2.93,0,0,1-1.15-.92l1.1-.18.7.9S76,47.73,74.65,48.55Z" fill="#f6e3fc"/><path d="M63.49,63.1a26.79,26.79,0,0,1,.79-2.6,17,17,0,0,0,.74-8c-.38-.18-.7-.69-1.16-.39s-.31,1-.25,1.43a20.45,20.45,0,0,1-.67,9.51,4.13,4.13,0,0,0-.1,3c.24.55.43.43.73.12C62.67,65.23,63.24,64.13,63.49,63.1Z" fill="#f6e3fc"/><path d="M62.42,32.53s-1.73-.79-5.83.3l-.75.18,1.6.44,4.28-.4Z" fill="#f6e3fc"/><path d="M56.16,34.07a8.42,8.42,0,0,0-1.23.14,2.35,2.35,0,0,1-2.22-.57,1.88,1.88,0,0,1-.18-2.26s1.78,2,2.54,1.8.27.68,1.77.88Z" fill="#dec3f0"/><path d="M54.18,32.71c.42.42.66.77-.11,1.21-.31.18-.81.21-.93-.27-.17-.66.17-.89.74-1Z" fill="#d2a470"/><path d="M51.7,29.82s1.1,1.53,1,1.7a2.5,2.5,0,0,1-.81.39l-1-1.25Z" fill="#d1a26b"/><path d="M44.88,29s.56,2.92,1.38,3.09S48,30.77,48,30.77l-1.84-1.33Z" fill="#d1a26b"/></svg>