<svg xmlns="http://www.w3.org/2000/svg" viewBox="0 0 99.29 48.1"><title>Artboard 22</title><path d="M93.83,10.06l3.52.28a1.2,1.2,0,0,1,1,.47c-2.18.13-4.29-.5-6.46-.49a.42.42,0,0,1-.48-.41c.35,0,.71.29,1-.26.62-1.11,1.35-2.15,2-3.23.15-.23.37-.48.19-.76-.28-.45-2.65-.56-2.93-.09a46.37,46.37,0,0,1-2.89,4.31h1.8A12.78,12.78,0,0,1,85.8,10a57.91,57.91,0,0,0-10,.08c-.34,0-.72.07-.82.49a2.66,2.66,0,0,0,2.2.53,40.54,40.54,0,0,1,5.72-.23c1.66,0,3.35.08,5,.16s3.35-.12,4.86.35c1.69.52,3.32.21,5,.35.66.06,1-.25.65-.95.84.13.91.79.93,1.43s-.4.9-1.05,1a14.81,14.81,0,0,0-5.81,3,2.32,2.32,0,0,0-.82,1.38c-1.18,5.3-3,10.35-6.46,14.61A14.56,14.56,0,0,1,77,37a71.82,71.82,0,0,0-15.21-3.48c-1.93-.17-4.07-1-5.77.84-.25.27-.53,0-.78,0-2.83-.46-5.64-1-8.47-1.35a45.94,45.94,0,0,0-5.38,0c1,.79,2.09,1.33,3.09,2,.41.27,1.25.41,1,1.16s-1.05.34-1.61.39a1.36,1.36,0,0,1-.35-.07c-2.21-.5-4.42-1-6.63-1.5a96.36,96.36,0,0,0-12.66-1.53,2.55,2.55,0,0,0-1.79.39c.37.81,1.1,1,1.78,1.32.18.07.41.17.28.42a.53.53,0,0,1-.38.23,26.18,26.18,0,0,1-3.07,0c-1.18-.14-2.35-.33-3.54-.43a25.35,25.35,0,0,1-4.58-.7,28.87,28.87,0,0,1-1.71-7.16,4,4,0,0,0-.15-.45c-.58-2-.58-1.95,1.45-2.21,1.69-.21,3.38-.5,5.07-.75.6-.09.91-.36.87-1a30.72,30.72,0,0,0-.17-4.89c-.12-.55.2-.67.61-.83,1.51-.61,3-1.26,4.51-1.89,5.88-2.25,11.85-4.27,17.83-6.24a.5.5,0,0,0,.51-.26c.43.13.77-.19,1.17-.22.87-.25,1.76-.45,2.61-.76,1.66-.6,3.45-.78,5.05-1.57a4.9,4.9,0,0,0,2.12-.54c4.57-1.25,9.15-2.42,13.82-3.24a131.28,131.28,0,0,1,17-2.35C88,0,92.53.09,97,0c.5,0,1.15-.2,1.43.35s-.38.87-.59,1.31C98.07.59,97.69.17,96.48.21c-4.87.15-9.74.18-14.6.3a14.3,14.3,0,0,0-2.13.34c5.83.22,11.63-.43,17.48.22a4.31,4.31,0,0,1-1.06,2.58,4.42,4.42,0,0,1,.54-1.81c.17-.4.15-.61-.33-.61-1,0-1.92,0-2.88,0-.16,0-.48-.07-.43.23.13.77-.32,1.38-.45,2.07-.05.25,0,.51.3.54,1,.07,2,.63,3,0a2.1,2.1,0,0,1-.21.92,29,29,0,0,1-2,4.14C93.55,9.39,92.86,9.92,93.83,10.06ZM43,12.25l1.15-.48L55.4,7.68C59.56,6.6,63.8,5.93,68,5.2c2.32-.4,4.64-.67,7-.87a1.45,1.45,0,0,0,1.24-1.75c-.23-.8-.84-.31-1.29-.24-2.55.42-5.11.79-7.64,1.29a99.82,99.82,0,0,0-13,3.05l-11,3c-.37.2-.85.13-1.16.47a.5.5,0,0,0-.51.28,2,2,0,0,0-1.16.15c-3.32,1.1-6.65,2.16-10,3.27-2.42.81-2.41.83-1.9,3.45,4.25-2,8.76-3.13,13.16-4.62.17-.05.29-.25.43-.39Zm-20.2,4.56a7.7,7.7,0,0,0-2.79,1l2,.58a1.92,1.92,0,0,1-2.32-.12c-.65-.39-.8-.19-.8.49a10.11,10.11,0,0,0,.36,2.27,5.45,5.45,0,0,0,2.6-1.1c1.69-.66,3.37-1.37,5.09-2a1.1,1.1,0,0,0,.84-1.43,9.12,9.12,0,0,1-.22-1.16c0-.52-.29-.45-.64-.31A31.45,31.45,0,0,0,22.77,16.81Zm-1.32,4.57c-.57.11-1.15.2-1.72.34-.85.21-.62.93-.53,1.45s.6.2.93.15c.5-.07,1-.18,1.5-.27,2.34-.45,4.54-1.37,6.85-1.91.45-.11.62-.29.42-.75s-.34-.89-.49-1.34-.35-.45-.72-.32A37.23,37.23,0,0,0,21.45,21.38ZM44.77,13a1.26,1.26,0,0,0-1.38.43c-.25,0-.49-.06-.68.17a6.82,6.82,0,0,0-2.07.55A107.84,107.84,0,0,0,30,17.78c-.35.15-.85.2-1,.63-.28,1,1.1,2.27,2.13,2L50.1,15c3.54-1,7.12-1.87,10.55-3.22.26-.09.52-.2.78-.27A85.77,85.77,0,0,1,73.56,9.7a1.78,1.78,0,0,0,1.68-1.49,11,11,0,0,0,.3-1.52c.2-1-.19-1.24-1.16-1.12-3.23.38-6.46.8-9.66,1.42a50.53,50.53,0,0,0-7.89,1.66,97.4,97.4,0,0,0-10.1,3.4C46.06,12.3,45.21,12.28,44.77,13Zm44.85,2.62a7.77,7.77,0,0,0,1.62-.2c1.83-.68,3.46-1.78,5.28-2.47.24-.1.46-.19.38-.49s-.3-.22-.49-.23h-.72a215.54,215.54,0,0,0-22.58,1.13A86.19,86.19,0,0,0,59.83,15.7c-9.76,2.59-19.42,5.59-29.31,7.71-4.08.87-8.11,2-12.25,2.56-1.73.23-3.44.63-5.2.69-.28,0-.62,0-.59.4s.32.3.56.31a7.79,7.79,0,0,0,1.08,0C17,27,20,26.71,22.85,26.12c10.76-2.2,21.41-4.84,32-7.82,8-2.26,16-3.94,24.39-3.38A99.05,99.05,0,0,1,89.62,15.65ZM64.91,27.87a6.06,6.06,0,0,0,5.85-5.93,4.31,4.31,0,0,0-4.29-4.39,6.08,6.08,0,0,0-5.8,5.61C60.66,26.09,62.26,27.86,64.91,27.87ZM75.65,9.51a5,5,0,0,0,1.81,0,53.53,53.53,0,0,1,9.3.26,1.49,1.49,0,0,0,1.59-.65c.64-1,1.26-1.93,1.85-2.93.7-1.17.6-1.36-.73-1.34-3.47,0-6.94.09-10.4.25-2.46.11-2.45.18-3,2.58C76,8.28,75.8,8.88,75.65,9.51Zm13.29-8.3v.26c-2.39,0-4.78-.06-7.17,0A43.28,43.28,0,0,0,77.38,2c-1,.14-.51,1-.6,1.54-.11.7.45.59.89.54a68.18,68.18,0,0,1,12-.32c1.53.11,2.13-.21,2.54-1.58.22-.72.32-1-.58-.94S89.82,1.21,88.94,1.21Zm-.67,20.05c0-.55,0-.94-.46-1-.6-.12-.84.36-1,.79a34.92,34.92,0,0,1-4.27,7.7c-.34.43-.46,1,.12,1.34s1,0,1.28-.44c.84-1.25,1.7-2.49,2.48-3.78A26.2,26.2,0,0,0,88.27,21.26ZM70.24,12c.39,0,.91,0,.88-.53a.75.75,0,0,0-.87-.65c-.44,0-.82.25-.82.7S69.87,12,70.24,12Z" fill="#b392ca"/><path d="M12.91,34.57a25.35,25.35,0,0,0,4.58.7c1.19.1,2.36.29,3.54.43a26.18,26.18,0,0,0,3.07,0,.53.53,0,0,0,.38-.23c.13-.25-.1-.35-.28-.42-.68-.3-1.41-.51-1.78-1.32a2.55,2.55,0,0,1,1.79-.39,96.36,96.36,0,0,1,12.66,1.53c2.21.47,4.42,1,6.63,1.5a1.36,1.36,0,0,0,.35.07c.56,0,1.32.32,1.61-.39s-.54-.89-1-1.16c-1-.65-2.06-1.19-3.09-2a45.94,45.94,0,0,1,5.38,0c2.83.32,5.64.89,8.47,1.35.25,0,.53.29.78,0,1.7-1.79,3.84-1,5.77-.84A71.82,71.82,0,0,1,77,37a12.17,12.17,0,0,0,3.74.4c3.41.1,6.85.35,10.21-.63.69-.2,1.32.23,2,.24a.31.31,0,0,1,.29.33c0,.24-.18.33-.38.37-.86.16-1.71.35-2.58.45-4.61.52-9.23,1-13.87,1.24a4.47,4.47,0,0,0-2.5.79c.53.59,1.29.5,1.85.84a3.07,3.07,0,0,1,.25.26,40.12,40.12,0,0,1-6.93.22,46.62,46.62,0,0,1-13.84-2.16,19.69,19.69,0,0,0-11.18-.21c-.09,0-.18.1-.55.3,2.84.42,5.52-.2,8,.9h-8c-1.42,0-2.84.53-4.26,0-.33-.13-.68-.23-1-.34,0-.58.61-.24.83-.51-.1,0-.16-.1-.22-.09-2.48.39-4.56-.92-6.78-1.62a12.5,12.5,0,0,0-6.91-.32c-.19,0-.46,0-.56.17-1,1.4-2.2.55-3.35.27-2.84-.7-5.72-.42-8.59-.41a5.89,5.89,0,0,1-3-.61c-1-.6-2.33-.95-2.76-2.29h0c1.1.54,2.18,1.11,3.3,1.62a2.64,2.64,0,0,0,1.49.3.36.36,0,0,0,.47.19s.05-.06.07-.09l-.53-.1c-.26-.34-.68-.38-1-.54s-.6-.33-.55-.69a.76.76,0,0,1,.75-.66C11.56,34.56,12.23,34.58,12.91,34.57Zm56,5.24,0-.43-8.52-1,0,.37C63.21,39.31,66,40,68.91,39.81Z" fill="#dec4f0"/><path d="M41.22,9.13c-6,2-11.95,4-17.83,6.24.13-1.43.08-1.47-1.32-1-1.74-1.75-1.4-3.9.84-5,4.79-2.35,9.61-4.63,14.4-7,1-.52,1.53-.26,1.79.82A51.17,51.17,0,0,0,41.22,9.13ZM26.34,11.58c.41.35.66.06.93-.06,2.27-1,4.54-2.1,6.82-3.1,1.56-.69,3.15-1.31,4.72-2,.21-.09.53-.19.45-.47s-.43-.21-.69-.11L38.24,6C35.3,7.3,32.35,8.57,29.43,9.89A14.1,14.1,0,0,0,26.34,11.58Z" fill="#504071"/><path d="M40.49,2c.2-.42.59-.32.94-.34,2.87-.16,5.73.25,8.6.28,1.36,0,2.93,1.94,2.69,3.1a2,2,0,0,0-.67-.24c-3,0-6,0-9,.09-2,.1-2,.24-2.35-1.73C40.68,2.8,40.57,2.42,40.49,2Z" fill="#ddc2ef"/><path d="M40.49,2c.08.39.19.77.25,1.16.32,2,.31,1.83,2.35,1.73,3-.14,6-.08,9-.09a2,2,0,0,1,.67.24c0,.23,0,.47,0,.71a4.9,4.9,0,0,1-2.12.54c-2.19,0-4.39-.15-6.57,0-2.35.16-2.34.28-1.09,2.34-.4,0-.74.35-1.17.22-.41-1-.88-2-1.23-3.08-.45-1.3-1.45-2.53-.69-4Z" fill="#524273"/><path d="M42.35,47c-2,0-3.92.1-5.8,0-2.24-.14-4.43-.84-6.72-.4-2,.39-3.73-.44-5.55-1a5.62,5.62,0,0,0-3.75.1c-.27.1-.64.19-.6.63,0,.26.79.69-.15.75a1,1,0,0,1-1.09-.88c-.11-.65.26-1,.8-1.32a6.86,6.86,0,0,1,6.62.07,8.72,8.72,0,0,0,3.34.73c2.77.15,5.53.47,8.28.83,1.1.14,2.22.07,3.34.11C41.47,46.59,41.93,46.45,42.35,47Z" fill="#f4ecf9"/><path d="M39.81,1.75c-.76,1.51.24,2.74.69,4,.35,1,.82,2.06,1.23,3.08a.5.5,0,0,1-.51.26,51.17,51.17,0,0,1-2.12-5.9c-.26-1.08-.75-1.34-1.79-.82-4.79,2.35-9.61,4.63-14.4,7-2.24,1.1-2.58,3.25-.84,5-1,.48-1.45-.21-1.52-1a12.42,12.42,0,0,0-.21-1.49c-.34-1.8.83-2.58,2.14-3.25,5-2.56,10.29-4.66,15.45-6.94C38.52,1.47,39.19,1.14,39.81,1.75Z" fill="#d8bee4"/><path d="M96.17,3.65a4.31,4.31,0,0,0,1.06-2.58c-5.85-.65-11.65,0-17.48-.22A14.3,14.3,0,0,1,81.88.51c4.86-.12,9.73-.15,14.6-.3,1.21,0,1.59.38,1.4,1.49a16.53,16.53,0,0,1-1.83,4.72,32.47,32.47,0,0,1-2.22,3.64c-1-.14-.28-.67-.14-.9a29,29,0,0,0,2-4.14A2.1,2.1,0,0,0,96,4.1.45.45,0,0,0,96.17,3.65Z" fill="#ddc2ef"/><path d="M61,44.15a37,37,0,0,1-5.11-.81c-1.68-.24-3.38-.41-5.07-.61a1.43,1.43,0,0,0-1.46.79,2.4,2.4,0,0,1-2.56.85A.38.38,0,0,1,46.4,44c0-.08.13-.24.2-.24,1.53.09,2.44-1.29,3.88-1.56a12.54,12.54,0,0,1,4.82.33c1.92.36,3.83.84,5.74,1.27Z" fill="#f4ecf9"/><path d="M75.19,43.49a3.81,3.81,0,0,1,3.36-.89,24.25,24.25,0,0,0,5.11,0,8.26,8.26,0,0,1,3.21.07c.25.07.63.07.63.45s-.39.53-.68.55a19.39,19.39,0,0,1-2.64,0C81.2,43.47,78.22,43,75.19,43.49Z" fill="#f4ecf9"/><path d="M44,43.44c-1.31.57-2.3,0-3.3,0-1.69-.09-3.37-.37-5.05-.61-.38-.05-1,0-.86-.7s.68-.65,1.14-.55A62.19,62.19,0,0,1,44,43.44Z" fill="#f4ecf9"/><path d="M16,39.46c1.48,1,2.56-.59,4-.36a4.42,4.42,0,0,1,1.77.64.7.7,0,0,1,.21,1c-.2.39-.49.28-.82.14-.86-.36-1.75-.81-2.46.3-.14.2-.45.17-.67,0-.7-.41-1.39-.85-2.09-1.27Z" fill="#f4ecf9"/><path d="M54.28,47.21c-.89-.05-1.78-.13-2.67-.15a8,8,0,0,0-3.56.73,3.2,3.2,0,0,1-3.36-.39,2,2,0,0,1,.13-.25c2.4.85,4.43-1.21,6.78-.84A5.2,5.2,0,0,1,54.28,47.21Z" fill="#f4ecf9"/><path d="M.61,30.46c.84,1.76,2.26,2.72,3.38,3.95.32.35.81.75.36,1.2s-.83,0-1.13-.32A10.07,10.07,0,0,1,.66,32.16,2,2,0,0,1,.61,30.46Z" fill="#f4ecf9"/><path d="M73.87,43.84a39.49,39.49,0,0,1-6.79-.37c-.27,0-.78.14-.74-.33s.51-.39.86-.41a20.11,20.11,0,0,1,3.88.4A6.63,6.63,0,0,1,73.87,43.84Z" fill="#f4ecf9"/><path d="M.74,36.25a14.52,14.52,0,0,1,3.59,1.41c.21.14.47.35.29.68s-.41.31-.72.24c-1.37-.31-2.39-1.39-3.76-1.71-.15,0-.18-.26-.09-.41S.37,36.27.74,36.25Z" fill="#f4ecf9"/><path d="M11.55,40.34c-1.37-.12-2.76-.16-4.12-.39-.53-.09-1.61.15-1.51-.48s1.18-.37,1.75-.29a12.21,12.21,0,0,1,3.92.83Z" fill="#f4ecf9"/><path d="M76,41.29a3.07,3.07,0,0,0-.25-.26c.07-.05.13-.14.19-.14,2.9-.08,5.79-.14,8.68-.49A31.67,31.67,0,0,1,76,41.29Z" fill="#e9dcf0"/><path d="M6.67,34.34l.25.23h0l-.23-.25Z" fill="#dec4f0"/><path d="M6.68,34.33l-.11,0,.1.06Z" fill="#dec4f0"/><path d="M89.62,15.65a99.05,99.05,0,0,0-10.4-.73C70.86,14.36,62.81,16,54.83,18.3c-10.57,3-21.22,5.62-32,7.82C20,26.71,17,27,14.12,27.35a7.79,7.79,0,0,1-1.08,0c-.24,0-.54,0-.56-.31s.31-.39.59-.4c1.76-.06,3.47-.46,5.2-.69,4.14-.57,8.17-1.69,12.25-2.56,9.89-2.12,19.55-5.12,29.31-7.71a86.19,86.19,0,0,1,13.28-2.31,215.54,215.54,0,0,1,22.58-1.13h.72c.19,0,.43,0,.49.23s-.14.39-.38.49c-1.82.69-3.45,1.79-5.28,2.47A7.77,7.77,0,0,1,89.62,15.65Z" fill="#514172"/><path d="M59.72,11.83l.93,0C57.22,13.14,53.64,14,50.1,15L31.19,20.39c-1,.29-2.41-1-2.13-2,.11-.43.61-.48,1-.63a107.84,107.84,0,0,1,10.62-3.6,6.82,6.82,0,0,1,2.07-.55c.27.61.54,1.22.82,1.82.09.19.16.46.5.3s.19-.36.1-.58c-.25-.57-.5-1.14-.74-1.71A1.26,1.26,0,0,1,44.77,13c.21.51.46,1,.63,1.54a.69.69,0,0,0,1,.51C50.77,13.72,55.27,12.88,59.72,11.83Z" fill="#514172"/><path d="M64.91,27.87c-2.65,0-4.25-1.78-4.24-4.71a6.08,6.08,0,0,1,5.8-5.61,4.31,4.31,0,0,1,4.29,4.39A6.06,6.06,0,0,1,64.91,27.87Zm1.64-8.4A4.19,4.19,0,0,0,63.1,22.2c-.34,1.51.4,2.58,1.72,2.47a4,4,0,0,0,3.4-3.22A1.64,1.64,0,0,0,66.55,19.47Z" fill="#524273"/><path d="M59.72,11.83c-4.45,1.05-8.95,1.89-13.33,3.25a.69.69,0,0,1-1-.51c-.17-.53-.42-1-.63-1.54.44-.75,1.29-.73,2-1a97.4,97.4,0,0,1,10.1-3.4c.56.9,1.6,1.28,2.24,2.1C59.33,11.09,59.74,11.33,59.72,11.83Z" fill="#ddc2ef"/><path d="M42.23,12.24c-.14.14-.26.34-.43.39-4.4,1.49-8.91,2.63-13.16,4.62-.51-2.62-.52-2.64,1.9-3.45,3.31-1.11,6.64-2.17,10-3.27a2,2,0,0,1,1.16-.15Z" fill="#514172"/><path d="M98.36,10.81c.36.7,0,1-.65.95-1.64-.14-3.27.17-5-.35-1.51-.47-3.23-.26-4.86-.35s-3.36-.13-5-.16a40.54,40.54,0,0,0-5.72.23A2.66,2.66,0,0,1,75,10.6c.1-.42.48-.47.82-.49a57.91,57.91,0,0,1,10-.08,12.78,12.78,0,0,0,4.85-.15l.78,0a.42.42,0,0,0,.48.41c2.17,0,4.28.62,6.46.49Z" fill="#ddc2ef"/><path d="M54.33,6.68c.32.37.86.51,1.07,1L44.12,11.77l-.79-2.14Z" fill="#ddc2ef"/><path d="M88.27,21.26a26.2,26.2,0,0,1-1.88,4.58c-.78,1.29-1.64,2.53-2.48,3.78-.3.46-.68.83-1.28.44s-.46-.91-.12-1.34A34.92,34.92,0,0,0,86.78,21c.19-.43.43-.91,1-.79C88.26,20.32,88.28,20.71,88.27,21.26Z" fill="#ddc2ef"/><path d="M21.45,21.38a37.23,37.23,0,0,1,6.24-2.65c.37-.13.59-.06.72.32s.3.9.49,1.34,0,.64-.42.75c-2.31.54-4.51,1.46-6.85,1.91C20.67,22.59,21.52,21.93,21.45,21.38Z" fill="#514172"/><path d="M22.77,16.81a31.45,31.45,0,0,1,4.16-1.73c.35-.14.6-.21.64.31a9.12,9.12,0,0,0,.22,1.16A1.1,1.1,0,0,1,27,18c-1.72.61-3.4,1.32-5.09,2C22.16,18.91,22.47,17.86,22.77,16.81Z" fill="#514172"/><path d="M42.9,8.65C41.65,6.59,41.64,6.47,44,6.31c2.18-.14,4.38,0,6.57,0-1.6.79-3.39,1-5.05,1.57C44.66,8.2,43.77,8.4,42.9,8.65Z" fill="#ddc2ef"/><path d="M43.33,9.63l.79,2.14L43,12.25l-.8-2.15C42.48,9.76,43,9.83,43.33,9.63Z" fill="#524273"/><path d="M70.23,12c-.36,0-.81,0-.8-.48s.38-.68.82-.7a.75.75,0,0,1,.87.65C71.15,12,70.63,12,70.23,12Z" fill="#dabfec"/><path d="M43.39,13.46c.24.57.49,1.14.74,1.71.09.22.22.43-.1.58s-.41-.11-.5-.3c-.28-.6-.55-1.21-.82-1.82C42.9,13.4,43.14,13.44,43.39,13.46Z" fill="#dabfec"/><path d="M42.17,10.1l.8,2.15h-.74l-.57-1.86A.5.5,0,0,1,42.17,10.1Z" fill="#dabfec"/><path d="M68.91,39.81c-2.91.23-5.7-.5-8.52-1l0-.37,8.52,1Z" fill="#fdfcfd"/><path d="M11.72,36.49l.53.1s0,.08-.07.09a.36.36,0,0,1-.47-.19Z" fill="#fefefe"/><path d="M26.34,11.58a14.1,14.1,0,0,1,3.09-1.69C32.35,8.57,35.3,7.3,38.24,6l.33-.14c.26-.1.57-.27.69.11s-.24.38-.45.47c-1.57.65-3.16,1.27-4.72,2-2.28,1-4.55,2.06-6.82,3.1C27,11.64,26.75,11.93,26.34,11.58Z" fill="#d8bee4"/><path d="M66.55,19.47a1.64,1.64,0,0,1,1.67,2,4,4,0,0,1-3.4,3.22c-1.32.11-2.06-1-1.72-2.47A4.19,4.19,0,0,1,66.55,19.47Z" fill="#b090c7"/></svg>