<svg xmlns="http://www.w3.org/2000/svg" viewBox="0 0 107.28 41.07"><title>Artboard 21</title><path d="M70.22,13.34l7-.61A49.38,49.38,0,0,0,91.6,9c.43-.17.8-.55,1.33-.29A19,19,0,0,1,87,11.18a106.36,106.36,0,0,1-27.95,4.46c-1.31,0-2.63,0-4,0-.5,0-1,0-1.12.75,2.1-.05,4.18.21,6.22.1,4.34-.21,8.63-.92,12.92-1.53,7.24-1,14.08-3.53,21.1-5.39.54.52,1.06,1.08,1.64,1.56a1.89,1.89,0,0,1,.43,2.83l-.19.28h0c-.27.06-.26.26-.25.47h0c-.57,0-.65-.48-1-.78s-.37-1-.83-.59a1,1,0,0,0-.15,1.47,2.16,2.16,0,0,1,.73,1.57c-.56.05-1-.09-1.12-.74,0-.22-.29-.66-.56-.29s-1,.77-.46,1.5A6.53,6.53,0,0,1,93,17.89c.14.25,0,.34-.18.45s-.38.16-.5-.06-.19-.87-.64-.59-.75.76-.52,1.21c.37.73.29,1.56.66,2.26l-.24.28c-.76-.16-.78-1.05-1.34-1.38-.62.5-.55,1.11-.44,1.81.07.39.64,1,0,1.25s-.31-.73-.72-.85c-1,.84-.88,1.91-.59,3l-.27.27c-.53-.23-.5-.83-.73-1.32-1.15.76-1.3,1.84-1.24,3.21l-.62-1c-.44.65-1.67.69-1.26,1.89-1.13-.23-1.76.65-2.55,1.17-1,.66-2.58.81-3.23.08-.79-.88-1.53-.67-2.41-.34a20.88,20.88,0,0,1-8.59,1.13,32.22,32.22,0,0,1-12.25-2.78,2,2,0,0,0-2.5.1,1.37,1.37,0,0,1-1,.29c-2.44-.51-5-.5-7.31-1.61,3.69-4.44,7.16-9.07,11.25-13.16.17-.12.37-.22.26-.49h0c.21.05.3,0,.25-.25h0c.21.05.3,0,.25-.25h0a2.28,2.28,0,0,1,2,.05c2.92,1,6,.94,9,1.09A8.74,8.74,0,0,0,70.22,13.34Zm22.55.4a1.14,1.14,0,0,0,.3-1.25l-.43,1.12-.17.3A6.05,6.05,0,0,0,91,16.79a3,3,0,0,0-.18.25s.08.07.12.1l.09-.31A6.45,6.45,0,0,0,92.57,14ZM81.14,26.82l-7.9,2A24.69,24.69,0,0,0,78,28.16c1.19-.18,2.39-.17,3.22-1.23,0-.05.15-.13.14-.14S81.21,26.73,81.14,26.82Zm3.14-4.3a9.58,9.58,0,0,0-1.06.13A83,83,0,0,1,66,25c-2.13,0-4.27.22-6.55.17a2.33,2.33,0,0,0,1.81.49c2.75-.06,5.49-.05,8.24-.15a47.8,47.8,0,0,0,10.33-1.59c1.51-.4,3.16-.38,4.5-1.35.1-.05.34,0,.27-.16S84.37,22.38,84.28,22.52Zm-.72-1.35c-9,1.3-18,1.66-27.06,2.14C65.58,23.43,74.66,23.66,83.56,21.17Zm7.33-5.9c-4.4,2-8.9,2.45-13.37,3.05s-9.07.52-13.5,1.24C66.94,21,89.25,17.64,90.89,15.27Zm-26.17,6.2a27,27,0,0,0,6.66-.19c3.43-.34,6.84-.84,10.25-1.36a39.12,39.12,0,0,0,7.1-1.4c.33-.12.86-.16.7-.6s-.61-.14-1-.05c-1.42.37-2.82.86-4.27,1.09C77.75,20,71.32,21.33,64.72,21.47Zm12.39-4.62,0,.2a2.46,2.46,0,0,0,.47,0,126.81,126.81,0,0,0,12.95-3.2c.53-.18,1.19-.18,1.6-.68.18-.22.42-.44.22-.73s-.41-.15-.64,0c-.86.41-1.79.62-2.67,1a24.37,24.37,0,0,1-3.91,1.43C82.5,15.58,79.8,16.19,77.11,16.85Zm2.47,8.71c-4,1-8.15,1.28-12.48,1.89C71.63,28.12,75.58,26.67,79.58,25.56ZM63.42,18c2.43.06,4.54-.41,6.67-.3A23.8,23.8,0,0,0,63.42,18Zm17,7.37s-.06-.07-.08-.07a.76.76,0,0,0-.2.06s.06.07.08.06A.73.73,0,0,0,80.39,25.34Z" fill="#504071"/><path d="M44.52,26.39c2.31,1.11,4.87,1.1,7.31,1.61a1.37,1.37,0,0,0,1-.29,2,2,0,0,1,2.5-.1,32.22,32.22,0,0,0,12.25,2.78,20.88,20.88,0,0,0,8.59-1.13c.88-.33,1.62-.54,2.41.34.65.73,2.22.58,3.23-.08.79-.52,1.42-1.4,2.55-1.17.67-.15,1.11-.89,1.89-.72s1.29.61,1.91,1c1.54.85,3.1.27,4.51-.17a9.08,9.08,0,0,1,7.35.8c1.7.91,3.63.76,5.47,1a4.56,4.56,0,0,1,1.78.56,10.77,10.77,0,0,1-4.58-.09,13,13,0,0,1-5.43-2.05,1,1,0,0,0-1.1,0,23.32,23.32,0,0,1-3.08,1.08c2.31.85,4.78,1,7.19,1.55a1.33,1.33,0,0,1-1.26.63,28.28,28.28,0,0,1-8.88-.83c-1.46-.42-2.93-.79-4.38-1.22a1.27,1.27,0,0,0-1.12.15A6.93,6.93,0,0,1,82,31.12a8.24,8.24,0,0,0,3.44,1.05,5.89,5.89,0,0,0,.84,0c.42,0,.78.18.75.58s-.54.43-.87.35c-1.67-.38-3.41-.33-5-.91-2-.71-3.93.23-5.89.32s-3.92.62-5.92.64c-1.55,0-3.1.16-4.66.21-.39,0-1.08.23-1.13-.31s.7-.45,1.1-.62c.2-.09.5.07.62-.35A5.84,5.84,0,0,0,61.82,32a15.6,15.6,0,0,1-5.87.88,1.74,1.74,0,0,1-.79-.23c1.77-.66,3.71-.56,5.39-1.33-1.85-1.67-5.66-2.42-8.66-1.66a29.66,29.66,0,0,1-7.66,1c-.32,0-.86.17-.87-.34s.54-.3.85-.38c1.5-.37,3.11-.1,4.79-1a11.86,11.86,0,0,1-4.21-.45,3.28,3.28,0,0,1-1-.3C42,27,40.23,27.52,38.41,28a15.8,15.8,0,0,1-3.4.57c-.3,0-.73.12-.77-.34s.37-.33.62-.4a18.31,18.31,0,0,0,3.26-1.3c-.92-.72-1.8-.05-2.65,0a5.51,5.51,0,0,1-1.66.08c-2.22-.54-4.35.09-6.51.36a32.79,32.79,0,0,1-5.23.38,4.24,4.24,0,0,1-1-.24c-.24-.06-.47-.19-.45-.48s.32-.41.6-.48c1.23-.31,2.47-.61,3.69-.95,1-.28,2-.63,3.05-1a2.37,2.37,0,0,0-2.59-.95c-2.08.53-4.19.9-6.29,1.36-.35.07-.7.13-.8-.24s.33-.5.61-.57c1.38-.35,2.77-.7,4.17-1a9.63,9.63,0,0,0,3.68-1.36c.62-.44,1-.35,1.33.29a4.47,4.47,0,0,0,.88,1c.62.59.69.11.72-.4.67.12,1.11.83,1.86.75,1.83,1.16,4.14,1,5.93,2s3.35,0,4.95.55c.3.11.43-.29.59-.48,2.39-2.83,4.57-5.83,7.13-8.52a.86.86,0,0,0,.41-.7c1.64-1.2,2.43-3.2,4.14-4.34.35-.23.44-.63.63-1a36.16,36.16,0,0,0,3.86-4.35c1.68-1.91,3.31-3.85,5-5.78.33-.38.77-.67,1.23-.26s.46.76-.12,1.05c-.5-.54-.71-.07-1,.26L57.06,9.66c-2.09,2.39-4.18,4.78-6.24,7.19q-3.37,3.93-6.7,7.91c-.31.37-.86.74-.67,1.28C43.58,26.39,44.1,26.45,44.52,26.39Z" fill="#d8bee4"/><path d="M44.52,26.39c-.42.06-.94,0-1.07-.35-.19-.54.36-.91.67-1.28q3.33-4,6.7-7.91c2.06-2.41,4.15-4.8,6.24-7.19l7.15-8.15c.29-.33.5-.8,1-.26C64.89,2.81,63.66,3.79,62.8,5c-.26.35-.56.66-.85,1A1.12,1.12,0,0,0,61,7.16l-.27.27c-.54.08-.67.46-.69.93l0,0a10.87,10.87,0,0,0-3.52,3.89h0l-.25.25h0l-.25.25h0c-.23.09-.25.28-.26.49C51.68,17.32,48.21,22,44.52,26.39Z" fill="#b392ca"/><path d="M38.84,39.06a25.14,25.14,0,0,1-9.59,0,40,40,0,0,0-4.31-.84,9.21,9.21,0,0,0-4.52.92,6.76,6.76,0,0,1-2.91.48,14.78,14.78,0,0,0-3.57.21c-.25.06-.73.18-.76-.29,0-.31.34-.37.63-.41,3.63-.52,7.1-1.73,10.67-2.49,1.66-.36,3.09.47,4.63.77,2.53.51,5.06,1,7.59,1.49C37.32,39,37.91,38.43,38.84,39.06Z" fill="#f4ecf9"/><path d="M50.5,15.89a.86.86,0,0,1-.41.7.76.76,0,0,0-.75-.49c-1.36.08-2.7-.21-4.06-.23A39.16,39.16,0,0,1,38,15c-2-.41-4-.86-6.06-1.26-1.64-.32-2.39.22-2.54,1.64a9.67,9.67,0,0,0,2.13,7.71c-.75.08-1.19-.63-1.86-.75-1-1.12-1-2.63-1.43-4a18.83,18.83,0,0,1-.72-5.24,1.59,1.59,0,0,1,1.61-1.87.8.8,0,0,0,.13.13c0,.3-.71.66.09.9,1.69.52,3.28,1.42,5.11,1.42h0c.05.06.09.16.15.17,3.89.58,7.75,1.33,11.68,1.55A17,17,0,0,1,50.5,15.89Z" fill="#b090c7"/><path d="M94.24,9.53c-7,1.86-13.86,4.37-21.1,5.39-4.29.61-8.58,1.32-12.92,1.53-2,.11-4.12-.15-6.22-.1.16-.72.62-.76,1.12-.75,1.32,0,2.64.06,4,0A106.36,106.36,0,0,0,87,11.18,19,19,0,0,0,92.93,8.7,1.34,1.34,0,0,1,94.24,9.53Z" fill="#ab8bc3"/><path d="M74.14,40.49A4.88,4.88,0,0,1,71,41a38,38,0,0,1-11.75-1.67,17.21,17.21,0,0,0-4.7-1.27,4.62,4.62,0,0,0-2.08.28,10.62,10.62,0,0,1-7.78.25,6.43,6.43,0,0,0-2.8.14c-.4,0-.76.21-1.25-.25a7.44,7.44,0,0,1,4.47-.46,10.6,10.6,0,0,0,7.56-.31,6.43,6.43,0,0,1,4.8.11,49,49,0,0,0,11.43,2.27C70.55,40.29,72.18,40.4,74.14,40.49Z" fill="#f4ecf9"/><path d="M56.51,12.27A10.87,10.87,0,0,1,60,8.38c-.32,1.15-1.36,1.8-2.06,2.84l8.11,1.71a.89.89,0,0,0,.9-.4C70.22,9,73.74,5.75,77.1,2.34c.37-.38.74-.76,1.33-.62s.81.31.21.74c-.6-.63-.93,0-1.26.31-2.47,2.48-4.75,5.14-7.25,7.58a11,11,0,0,0-2.61,3.06c-3-.15-6.07-.06-9-1.09A2.28,2.28,0,0,0,56.51,12.27Z" fill="#caaeda"/><path d="M67.52,13.41a11,11,0,0,1,2.61-3.06c2.5-2.44,4.78-5.1,7.25-7.58.33-.33.66-.94,1.26-.31a10.26,10.26,0,0,1-2.34,3C74,8,71.52,10.51,69.06,13.12l1.16.22A8.74,8.74,0,0,1,67.52,13.41Z" fill="#b392ca"/><path d="M55.27,10.59c-.19.33-.28.73-.63,1a4.11,4.11,0,0,0-2.81-1,38.46,38.46,0,0,1-5.26-.05A106,106,0,0,0,35,9.86a2.26,2.26,0,0,0-1.17.16,13.37,13.37,0,0,1-4.63,1.36.8.8,0,0,1-.13-.13c1.34-.61,2.7-1.17,4-1.86.56-.29,1,0,1.49,0,5.75.23,11.49.69,17.24.46A7.21,7.21,0,0,1,55.27,10.59Z" fill="#b090c7"/><path d="M21.11,31.7a1,1,0,0,1-1.12.36c-1.3-.33-2.62-.59-3.92-.93a1.41,1.41,0,0,0-1,0,25.13,25.13,0,0,1-6,1.46c-.36.07-.81.08-.93-.34s.32-.56.67-.64a30.18,30.18,0,0,1,3.8-1,4.53,4.53,0,0,0,2.56-.87,1.36,1.36,0,0,1,1.68-.05A21.33,21.33,0,0,0,21.11,31.7Z" fill="#e9dcf0"/><path d="M102.17,35.17c-5.9,2.2-11.7,1.25-17.72-.57,1.4-.59,2.56-.11,3.67,0,3.3.44,6.58,1.14,9.94.89C99.43,35.43,100.8,35.29,102.17,35.17Z" fill="#e9dcf0"/><path d="M17.66,35.7C11.85,36.89,6.19,37.06.56,37.53l-.05-.39c1.08-.14,2.18-.2,3.25-.42,3.18-.65,6.49-.35,9.64-1.31A8.29,8.29,0,0,1,17.66,35.7Z" fill="#f4ecf9"/><path d="M91.09,40.08a13.25,13.25,0,0,1-5-.5c-1.28-.26-2.55-.59-3.83-.87a1.75,1.75,0,0,0-.82,0,35.47,35.47,0,0,1-4.2.84c-.33.06-.81.24-.94-.2s.44-.43.72-.51a16.62,16.62,0,0,1,10.83.35A32.84,32.84,0,0,0,91.09,40.08Z" fill="#f4ecf9"/><path d="M18.81,27.55c-.4.22-.8,0-1.07-.45-.56-.87-1.2-.9-2.11-.49-1.74.76-3.36,1.83-5.3,2.12a7.58,7.58,0,0,1-.82.08c-.2,0-.43,0-.47-.27s.17-.38.42-.44A17.07,17.07,0,0,0,15,25.62c1.11-.75,1.82-.59,2.67.47C18,26.57,18.43,27.06,18.81,27.55Z" fill="#d8bee4"/><path d="M43.25,33.74c1.47-.2,2.94-.38,4.41-.61a17.86,17.86,0,0,0,3.82-.84,3.55,3.55,0,0,1,2.21.22.47.47,0,0,1,.3.33c0,.26-.23.29-.43.29-2.48,0-4.8,1-7.26,1.17-1,.07-2-.4-3.07-.19Z" fill="#d8bee4"/><path d="M91.82,21.16c-.37-.7-.29-1.53-.66-2.26-.23-.45.18-1,.52-1.21s.48.31.64.59.31.17.5.06.32-.2.18-.45a6.53,6.53,0,0,0-.47-1.08c-.53-.73.16-1.1.46-1.5s.52.07.56.29c.14.65.56.79,1.12.74l.33.05A43.45,43.45,0,0,1,91.82,21.16Z" fill="#b392ca"/><path d="M20.62,29.64c4,.28,7.75-1.55,11.72-1.21-.68.59-1.49.36-2.24.47-2.7.39-5.26,1.63-8.08,1.36A1.62,1.62,0,0,1,20.62,29.64Z" fill="#e9dcf0"/><path d="M32.64,31.84c3.08.39,6-1.37,9.07-.77C38.73,31.78,35.8,33.16,32.64,31.84Z" fill="#e9dcf0"/><path d="M88.49,25.27c-.29-1.09-.42-2.16.59-3,.41.12.18,1.05.72.85s.07-.86,0-1.25c-.11-.7-.18-1.31.44-1.81.56.33.58,1.22,1.34,1.38A12.88,12.88,0,0,1,88.49,25.27Z" fill="#b090c7"/><path d="M104.59,39.9c-3.85.73-7.77.16-11.64.56C96.79,39.48,100.71,40.11,104.59,39.9Z" fill="#f4ecf9"/><path d="M86.26,27.63c-.78-.17-1.22.57-1.89.72-.41-1.2.82-1.24,1.26-1.89l.62,1c-.06-1.37.09-2.45,1.24-3.21.23.49.2,1.09.73,1.32A7.8,7.8,0,0,1,86.26,27.63Z" fill="#b392ca"/><path d="M71.27,35.53a12.48,12.48,0,0,1,2.29,0,24.23,24.23,0,0,0,3.8.22c.29,0,.76-.17.81.24s-.43.46-.78.47a27.27,27.27,0,0,1-6.11-.57Z" fill="#e9dcf0"/><path d="M5,30.13c-.78-.66-1.33.06-2,.15-1,.15-1.79-.47-2.73-.35A.26.26,0,0,1,0,29.6c0-.11.26-.29.34-.26,1.59.5,3.09,0,4.63-.26.4-.07,1.2-.29,1.23.27C6.25,30.12,5.26,29.59,5,30.13Z" fill="#e9dcf0"/><path d="M95,16.39l-.33-.05a2.16,2.16,0,0,0-.73-1.57,1,1,0,0,1,.15-1.47c.46-.36.59.34.83.59s.38.82,1,.78A2.59,2.59,0,0,1,95,16.39Z" fill="#b090c7"/><path d="M38.29,33.13c.5,0,1,.17,1,.61,0,.6-.69.71-1.17.77a.67.67,0,0,1-.83-.65C37.29,33.2,37.78,33.12,38.29,33.13Z" fill="#e9dcf0"/><path d="M61.79,34.84a7.05,7.05,0,0,1-4-.26C59.35,34,60.56,34.65,61.79,34.84Z" fill="#e9dcf0"/><path d="M84.06,34.64a3,3,0,0,1-1.66.15c-.36,0-1,.29-1-.33s.7-.34,1.11-.36A1.92,1.92,0,0,1,84.06,34.64Z" fill="#e9dcf0"/><path d="M106.69,34.94c-.67.11-1.1.17-1.52.25s-.71.27-.79-.16.32-.63.69-.66A2.5,2.5,0,0,1,106.69,34.94Z" fill="#e9dcf0"/><path d="M53.56,35.3c-.51.4-1.06.14-1.52.37-.24.12-.47-.08-.5-.35a.44.44,0,0,1,.43-.47A1.55,1.55,0,0,1,53.56,35.3Z" fill="#e9dcf0"/><path d="M5.21,32.3l-2.81.55A3.84,3.84,0,0,1,5.19,32Z" fill="#e9dcf0"/><path d="M47.11,36.48c-.39,0-.69,0-.65-.41s.32-.52.67-.53.77,0,.78.32S47.32,36.27,47.11,36.48Z" fill="#e9dcf0"/><path d="M33.84,36a.64.64,0,0,1-.61-.71c0-.27.13-.48.42-.42a.81.81,0,0,1,.71.8C34.36,36,34.1,36,33.84,36Z" fill="#e9dcf0"/><path d="M100.13,33.63c-.15.31-.34.64-.75.61a.39.39,0,0,1-.31-.54c.11-.3.25-.59.66-.55S100.16,33.31,100.13,33.63Z" fill="#e9dcf0"/><path d="M21.78,33.37a3.06,3.06,0,0,1-1.84.22C20.51,33,20.75,33,21.78,33.37Z" fill="#e9dcf0"/><path d="M103.44,34.12c-.48-.3-1-.07-1.22-.53-.1-.24.19-.4.44-.43C103.21,33.09,103.41,33.42,103.44,34.12Z" fill="#e9dcf0"/><path d="M39.88,34.91a.5.5,0,0,1,.5.49c0,.24,0,.51-.29.55s-.38-.2-.4-.45A.64.64,0,0,1,39.88,34.91Z" fill="#e9dcf0"/><path d="M61,7.16A1.12,1.12,0,0,1,62,6,1.37,1.37,0,0,1,61,7.16Z" fill="#caaeda"/><path d="M60.06,8.36c0-.47.15-.85.69-.93A.9.9,0,0,1,60.06,8.36Z" fill="#caaeda"/><path d="M95.87,14.67c0-.21,0-.41.25-.47C96.12,14.4,96.09,14.58,95.87,14.67Z" fill="#b090c7"/><path d="M96.12,14.2l.19-.28Z" fill="#b090c7"/><path d="M83.56,21.17c-8.9,2.49-18,2.26-27.06,2.14C65.54,22.83,74.58,22.47,83.56,21.17Z" fill="#ab8bc3"/><path d="M90.89,15.27C89.25,17.64,66.94,21,64,19.56c4.43-.72,9-.64,13.5-1.24S86.49,17.24,90.89,15.27Z" fill="#ab8bc3"/><path d="M84.35,22.59c-1.34,1-3,.95-4.5,1.35a47.8,47.8,0,0,1-10.33,1.59c-2.75.1-5.49.09-8.24.15a2.33,2.33,0,0,1-1.81-.49c2.28,0,4.42-.14,6.55-.17a83,83,0,0,0,17.2-2.37,9.58,9.58,0,0,1,1.06-.13Z" fill="#ab8bc3"/><path d="M64.72,21.47c6.6-.14,13-1.47,19.49-2.51,1.45-.23,2.85-.72,4.27-1.09.34-.09.83-.29,1,.05s-.37.48-.7.6a39.12,39.12,0,0,1-7.1,1.4c-3.41.52-6.82,1-10.25,1.36A27,27,0,0,1,64.72,21.47Z" fill="#ab8bc3"/><path d="M77.11,16.85c2.69-.66,5.39-1.27,8.06-2a24.37,24.37,0,0,0,3.91-1.43c.88-.4,1.81-.61,2.67-1,.23-.11.47-.2.64,0s0,.51-.22.73c-.41.5-1.07.5-1.6.68a126.81,126.81,0,0,1-12.95,3.2,2.46,2.46,0,0,1-.47,0Z" fill="#ab8bc3"/><path d="M79.58,25.56c-4,1.11-8,2.56-12.48,1.89C71.43,26.84,75.56,26.52,79.58,25.56Z" fill="#ab8bc3"/><path d="M81.25,26.93C80.42,28,79.22,28,78,28.16a24.69,24.69,0,0,1-4.79.68l7.9-2Z" fill="#ab8bc3"/><path d="M63.42,18a23.8,23.8,0,0,1,6.67-.3C68,17.56,65.85,18,63.42,18Z" fill="#ab8bc3"/><path d="M91,16.79a6.16,6.16,0,0,1,1.45-2.88l.1.11a6.47,6.47,0,0,1-1.51,2.81Z" fill="#ab8bc3"/><path d="M92.64,13.6l.43-1.11a1.14,1.14,0,0,1-.3,1.25Z" fill="#ab8bc3"/><path d="M91.06,16.83l-.09.31s-.13-.09-.12-.1l.17-.25Z" fill="#ab8bc3"/><path d="M55.77,13.23c0-.21,0-.4.26-.49C56.14,13,55.94,13.11,55.77,13.23Z" fill="#caaeda"/><path d="M80.39,25.34a.73.73,0,0,1-.2.05s0,0-.08-.06a.76.76,0,0,1,.2-.06S80.36,25.31,80.39,25.34Z" fill="#ab8bc3"/><path d="M84.28,22.52c.09-.14.29-.23.34-.09s-.17.11-.27.16Z" fill="#ab8bc3"/><path d="M56.26,12.51l.25-.25C56.56,12.48,56.47,12.56,56.26,12.51Z" fill="#caaeda"/><path d="M81.14,26.82c.07-.09.16-.17.25,0s-.09.09-.14.14Z" fill="#ab8bc3"/><path d="M92.47,13.91l.17-.3a1.59,1.59,0,0,1,.13.13l-.2.27Z" fill="#ab8bc3"/><path d="M56,12.75l.25-.25C56.32,12.72,56.23,12.8,56,12.75Z" fill="#caaeda"/><path d="M31.49,23.07a9.67,9.67,0,0,1-2.13-7.71c.15-1.42.9-2,2.54-1.64,2,.4,4,.85,6.06,1.26a39.16,39.16,0,0,0,7.32.89c1.36,0,2.7.31,4.06.23a.76.76,0,0,1,.75.49c-2.56,2.69-4.74,5.69-7.13,8.52-.16.19-.29.59-.59.48-1.6-.58-3.25.4-4.95-.55S33.32,24.23,31.49,23.07Z" fill="#4f3f6f"/><path d="M29.22,11.38A13.37,13.37,0,0,0,33.85,10,2.26,2.26,0,0,1,35,9.86a106,106,0,0,1,11.55.64,38.46,38.46,0,0,0,5.26.05,4.11,4.11,0,0,1,2.81,1c-1.71,1.14-2.5,3.14-4.14,4.34a17,17,0,0,0-4.26-.48c-3.93-.22-7.79-1-11.68-1.55-.06,0-.1-.11-.15-.17a4.06,4.06,0,0,0,.32-2.8,2.82,2.82,0,0,0-.31,2.81c-1.83,0-3.42-.9-5.11-1.42C28.51,12,29.22,11.68,29.22,11.38Z" fill="#504071"/><path d="M34.42,13.7a2.82,2.82,0,0,1,.31-2.81,4.06,4.06,0,0,1-.32,2.8Z" fill="#ab8bc3"/></svg>