<svg xmlns="http://www.w3.org/2000/svg" viewBox="0 0 125.74 42.48"><title>Artboard 20</title><path d="M17.7,30.75a1.67,1.67,0,0,1,1.52-1.26c1.32-.26,2.63-.61,3.94-.91-.18.64-.26,1.29.5,1.59A.93.93,0,0,0,24.84,30c.52-.7,0-1.15-.42-1.61.47-1.12.92-2.25,1.44-3.35.33-.71.09-1-.59-1.19-1.41-.4-2.82-.83-4.22-1.27-.43-.14-1-.18-1.12-.94,1.86-.24,3.7-.45,5.53-.71,3.51-.49,7-1,10.52-1.51a4.1,4.1,0,0,0,2.94-1.79c1.57-2.21,3.3-4.3,4.91-6.48.39-.51,1-1.13.6-1.81a2.69,2.69,0,0,0-2.22-1.17c-3.93-.26-7.86-.25-11.82-.34C33.91,6.5,37.3,4.91,40.93,4c1.54,1.32-.87,1.12-.71,2a1.16,1.16,0,0,0,.42-.08A8.7,8.7,0,0,1,48.56,5a1.75,1.75,0,0,0,.69.17c1.16-.09,2.3.76,3.46,0A34.69,34.69,0,0,0,59.22,3,31.67,31.67,0,0,1,67.93.1a22.83,22.83,0,0,1,3.7,0c3.43.12,6.87.22,10.29.44a26,26,0,0,1,8.69,1.83c3.66,1.57,7.38,3,11,4.66a2.83,2.83,0,0,1-2.13.34c.37-.66-.3-.63-.56-.74-2.11-1-4.2-1.94-6.37-2.73C90.67,3.15,89,2,86.85,1.77A144.83,144.83,0,0,0,72.28,1.2c-.21,0-.58-.22-.61.25l.71.46a82.1,82.1,0,0,0,7,4.69c1.93,1.32,4.08,2.28,6,3.68a14.79,14.79,0,0,1-4.12.72c.22-.31.38-.64,0-.89a14,14,0,0,0-3.52-1.72h0c-.09-.29-.34-.29-.58-.29-3.46.1-6.93.12-10.39.33-3.85.23-7.69.62-11.54.64a38.86,38.86,0,0,0-7.07.8c-.8.15-1.8.34-2.09,1.4h0c-.64-.09-.41.42-.49.72h0c-.18,0-.26.08-.25.25h0c-.18,0-.24.09-.25.25h0a2.36,2.36,0,0,0-1.2,2h0a.27.27,0,0,0-.25.37h0A2.71,2.71,0,0,0,42.14,17h0a1.54,1.54,0,0,0-.73,1.44,2,2,0,0,1-1.26.76c-1.83.31-3.65.77-5.47,1.15-.56.12-1,.27-.95,1h0c-.35-.2-.6-.07-.81.24-1,1.48-2,3-2.95,4.46a.5.5,0,0,0,.06.66,2.77,2.77,0,0,1,.64-.28c3.71-.55,7.35-1.48,11-2.17,8.24-1.54,16.45-3.2,24.65-4.93q10.42-2.22,20.85-4.44c5-1.06,10.12-2.06,15.17-3.14,6.06-1.3,12.1-2.67,18.16-4,1.15-.25,1.37,0,1.07,1.11q-1,3.93-2.05,7.84c-.1.38-.35.76.12,1.07a39.86,39.86,0,0,1-6.23,5c-3.83,2.76-7.81,5.31-11.55,8.21-2.72-1-5.58-1.67-8.31-2.7,1.79,1.66,4.22,1.93,6.34,2.86-2.45,0-4.91.42-7.27-.63a3.57,3.57,0,0,0-3.64.41,2.07,2.07,0,0,1-1.62.23c-2.07-.33-4.14-.69-6.24-.91A8.16,8.16,0,0,1,77,28.87a3.9,3.9,0,0,0-2-1,25.43,25.43,0,0,0,5,4,12.69,12.69,0,0,1-4.24.16,39.34,39.34,0,0,1-4.2-1.1c-1.38-.43-2.24-1.65-3.34-2.58.51,1.25.7,2.59,1.72,3.61a19.51,19.51,0,0,1-10.05-1.07c-.29-.12-.62-.39-.85,0s.09.58.33.8l.5.43a69.35,69.35,0,0,0-9.12.46,17.29,17.29,0,0,1-5.45-.47c-2.29-.43-4.64-.58-6.66-2A5.47,5.47,0,0,0,35.73,29c-.31,0-.8-.24-.92.25-.07.32.29.58.59.67,1.45.48,2,2,3.27,2.72.15.09.34.29.18.5a.58.58,0,0,1-.41.15c-1.07-.06-2.14,0-3.22-.14-3.28-.42-6.44-2-9.87-1.06a.73.73,0,0,1-.35-.05,21.8,21.8,0,0,0-3.78-.45A5.94,5.94,0,0,1,17.7,30.75Zm101.73-19A1.38,1.38,0,0,0,119,12c-2.79,2.85-5.74,5.53-8.67,8.23-.77.71-1.83,1.3-2,2.47a4.09,4.09,0,0,1-.79,2.64c.31-.06.44,0,.51-.1l9.08-6.81a1.25,1.25,0,0,0,.57-.72c.53-2,1.08-4,1.62-5.95l.19-.23-.12-.06ZM93,23.09c4.51-.49,8.62-.95,12.74-1.38a3.17,3.17,0,0,0,2-1c3.61-3.39,7-7,10.8-10.2.2-.16.55-.29.33-.64s-.6-.22-1-.11c-4,1.21-8.08,2-12.13,3a92.88,92.88,0,0,0-9.19,2.57,1.92,1.92,0,0,0-1.16,1.09c-.86,1.84-1.74,3.68-2.68,5.48C92.24,22.78,92.18,23.24,93,23.09ZM72.51,25.16a19,19,0,0,0,3.9-.28c4.12-.4,8.22-.93,12.33-1.34a1.48,1.48,0,0,0,1.37-.9,42.67,42.67,0,0,1,3-5.59c.2-.3.6-.65.23-1.06s-.76-.23-1.13-.14c-1.12.29-2.21.7-3.33.94a110.43,110.43,0,0,0-13.11,3.57c-.49.17-1.13.25-1.34.71A24.73,24.73,0,0,0,72.51,25.16ZM43.24,28.24l0,.36c3.27-.35,6.55-.69,9.82-1.07,5.17-.61,10.33-1.26,15.5-1.85a2.14,2.14,0,0,0,2-1.39c.19-.48.45-.94.62-1.42s.64-.8.26-1.17-.82-.08-1.26,0Q59.5,24.32,48.72,26.88C46.89,27.32,45.07,27.79,43.24,28.24Zm32-21.91c-.79-.59-1.44-1.1-2.11-1.58C70,2.52,66.83,1.12,62.76,3,59.09,4.69,55.2,5.94,51.51,7.74ZM26.72,30.26c.45-.1,1-.19,1.6-.35.23-.07.61-.15.51-.52a.58.58,0,0,0-.69-.35,10,10,0,0,0-1.73.32c-.32.11-1,0-.87.57S26.21,30.18,26.72,30.26Zm38.65-.67c-.07-.35-.41-.29-.71-.33-.69-.09-1.45.29-2-.34-.16-.18-.28-.42-.56-.29a.53.53,0,0,0-.21.37c-.05.36.21.44.48.56.87.38,1.83,0,2.69.38C65.15,30,65.32,29.87,65.37,29.59ZM84.74,28.4c1.38.86,2.49,1.14,3.2.76C86.87,28.84,86,28.07,84.74,28.4Zm-52.19,3c.27-.1.63-.26.62-.67s-.33-.62-.71-.69a.48.48,0,0,0-.65.49C31.76,31,32,31.23,32.55,31.37ZM54.18,31c-.11-1.5-.33-1.71-1.52-1.48C53.34,29.84,53.56,30.46,54.18,31Zm-9.36-.43a3.4,3.4,0,0,0-2.37-.44A3.34,3.34,0,0,0,44.82,30.59ZM31.73,29.11c-.12-.23-.2-.54-.56-.52s-.32.22-.27.44a.53.53,0,0,0,.62.44C31.71,29.44,31.77,29.31,31.73,29.11Z" fill="#b392ca"/><path d="M17.7,30.75a5.94,5.94,0,0,0,3.52.88,21.8,21.8,0,0,1,3.78.45.73.73,0,0,0,.35.05c3.43-1,6.59.64,9.87,1.06,1.08.14,2.15.08,3.22.14a.58.58,0,0,0,.41-.15c.16-.21,0-.41-.18-.5C37.41,32,36.85,30.44,35.4,30c-.3-.09-.66-.35-.59-.67.12-.49.61-.26.92-.25a5.47,5.47,0,0,1,2.89,1.07c2,1.44,4.37,1.59,6.66,2a17.29,17.29,0,0,0,5.45.47,69.35,69.35,0,0,1,9.12-.46l-.5-.43c-.24-.22-.55-.46-.33-.8s.56-.1.85,0A19.51,19.51,0,0,0,69.92,32c-1-1-1.21-2.36-1.72-3.61,1.1.93,2,2.15,3.34,2.58a39.34,39.34,0,0,0,4.2,1.1A12.69,12.69,0,0,0,80,31.91a25.43,25.43,0,0,1-5-4,3.9,3.9,0,0,1,2,1,8.16,8.16,0,0,0,4.15,1.34c2.1.22,4.17.58,6.24.91A2.07,2.07,0,0,0,89,30.89a3.57,3.57,0,0,1,3.64-.41c2.36,1.05,4.82.61,7.27.63-2.12-.93-4.55-1.2-6.34-2.86,2.73,1,5.59,1.67,8.31,2.7a24.7,24.7,0,0,0,6.65,1.68c1.74.32,3.08,1.67,4.89,1.75.11,0,.2.2.31.31-.12.1-.22.27-.35.29a10.07,10.07,0,0,1-2.84.27c-3-.41-6-.11-8.92-.69-.31-.06-.62-.09-.94-.13a4.67,4.67,0,0,0-3.72.68c-1.6,1.17-3.65,1.24-5.6,1.35a58.14,58.14,0,0,1-11.4-.9,18.6,18.6,0,0,0-4.88.22c-.28,0-.63.21-.6.48,0,.42.5.47.84.44a9.36,9.36,0,0,1,5.05,1.22c-1.49.33-2.93-.47-4.42-.26a.36.36,0,0,0-.46-.18s0,.06-.06.09l.51.11c.82.78,2,.57,3,1.18-.82.32-1.6.27-3.94-.53a5.63,5.63,0,0,0-4.07.27c5.23.19,9.93,3.73,15.53,2-.22.81-.7.81-1,.82-3.07.15-6.2.79-9.12-.71-.55-.28-.76-.29-1.13.21a2.9,2.9,0,0,1-3,1.2,26.38,26.38,0,0,0-6,.21A17.56,17.56,0,0,1,55.79,40.6c-3-1.51-6.27-1.94-9.53-2.44A21.24,21.24,0,0,0,42,37.9a1.73,1.73,0,0,0-1.3.34c1,.29,2,.61,3,.84s2.19.38,3.27.64,2.15-.06,3.28.22c-.27.64-.79.58-1.28.61a26.8,26.8,0,0,1-8.62-1,38.05,38.05,0,0,0-12.16-1.39,26.51,26.51,0,0,0-3.52.54c4.15.86,8.29,1.71,12.86,1.31-.84.92-1.64.7-2.33.83a33.52,33.52,0,0,1-9,.43,126.22,126.22,0,0,1-12.85-1.86,24.78,24.78,0,0,0-3-.07,29.33,29.33,0,0,0-6.88.22,8.3,8.3,0,0,0-2.37.75c-.35.17-.81.45-1,0s.31-.6.57-.81A13.18,13.18,0,0,1,6.85,37c1.75-.27,3.51-.56,5.27-.89a47.86,47.86,0,0,1-6.33-.56,5.73,5.73,0,0,1-.69-.16c-.37-.11-.86-.16-.84-.69s.48-.51.88-.61c1.26-.3,2.37-1.17,3.77-.94a23.8,23.8,0,0,1,2.72.31,6.75,6.75,0,0,0,4.35,0C15,33,14,32.51,13.07,32c-.5-.26-.77-.57,0-.82l.11.1-.11-.11c-.1-.62-.65-.71-1.07-1-.48.31.25.55-.1.89a32,32,0,0,1-4.79-1.46c-.4-.17-.91-.39-.68-.95s.78-.43,1.26-.3a25.29,25.29,0,0,0,3,1.11.2.2,0,0,0,0,.08s0,0,.06,0l-.1-.1L9,27.2A1.86,1.86,0,0,1,8.53,26c0-.83.59-1.21,1.27-.78a7.37,7.37,0,0,1,2.12,1.52c1.23,1.63,3.08,2.47,4.66,3.64A1.85,1.85,0,0,0,17.7,30.75ZM63.12,39a25.74,25.74,0,0,1,3.11,1.55,4.79,4.79,0,0,0,3,.77,17.09,17.09,0,0,1,3.58.08,2,2,0,0,0,1.63-.44c.21-.15.53-.31.4-.65s-.41-.15-.63-.21c-2.7-.72-5.54-.22-8.27-.9A5.59,5.59,0,0,0,63.12,39Zm-11.33-2c4.48,1.89,8.58,5,14,4.18C61.07,39.63,56.56,37.83,51.79,36.93Zm37.57-5.51c1.65.91,3,.22,4.39.06A5,5,0,0,0,89.36,31.42ZM31.73,33.56c-1.61-.56-3.25-1.2-4.88,0Zm-18-2a.7.7,0,0,0,.73.44.44.44,0,0,0,0-.3C14.3,31.37,14,31.4,13.7,31.52Z" fill="#dec4f0"/><path d="M72.38,1.91l-.71-.46c4.3-.07,8.58.48,12.87.49A15.77,15.77,0,0,1,91.11,3.7C93.87,5,96.7,6.12,99.49,7.32A2.83,2.83,0,0,0,101.62,7c3.43-.43,6.78-1.3,10.15-2,3.73-.78,7.43-1.67,11.15-2.5a4.58,4.58,0,0,1,.83-.08c2,0,2.35.43,1.67,2.28-1.57,4.22-3.45,8.3-5.29,12.39a5.72,5.72,0,0,1-.44.69c-.47-.31-.22-.69-.12-1.07q1.05-3.91,2.05-7.84c.3-1.14.08-1.36-1.07-1.11-6.06,1.34-12.1,2.71-18.16,4-5,1.08-10.12,2.08-15.17,3.14q-10.43,2.21-20.85,4.44c-8.2,1.73-16.41,3.39-24.65,4.93-3.68.69-7.32,1.62-11,2.17a2.77,2.77,0,0,0-.64.28A.5.5,0,0,1,30,26c1-1.5,2-3,2.95-4.46.21-.31.46-.44.81-.24a39.17,39.17,0,0,1-2.32,3.73c.19.06.27.11.34.1,1.32-.25,2.65-.48,4-.77a4.23,4.23,0,0,0,3.5-3.93l-5.5.88c-.08-.7.39-.85.95-1,1.82-.38,3.64-.84,5.47-1.15a2,2,0,0,0,1.26-.76,1,1,0,0,0,1,.21q6.39-1.21,12.77-2.46c6.87-1.33,13.74-2.64,20.61-4A24,24,0,0,0,81.22,11a14.79,14.79,0,0,0,4.12-.72l12.9-2.47c-.23-.19-.3-.31-.4-.33-4.74-1-9.49-1.91-14.22-2.93C79.86,3.73,76.13,2.79,72.38,1.91Zm-10,16.43a2.27,2.27,0,0,0,.42,0c4.43-.94,8.85-1.91,13.29-2.81.9-.18,1.16-.7,1.39-1.48s0-1-.77-.83c-3.81.77-7.6,1.67-11.44,2.24C63.35,15.75,62.89,16.91,62.33,18.34Zm-.1-2.23c-3.5.66-6.9,1.42-10.35,1.9-2.07.29-2.42,1.81-3.2,3.27a2.55,2.55,0,0,0,.52,0c3.1-.68,6.18-1.49,9.32-2A4.21,4.21,0,0,0,62.23,16.11ZM39.31,23.49c2.63-.57,5.14-1.13,7.65-1.66a.74.74,0,0,0,.54-.42c.44-.84.87-1.68,1.34-2.6a10.18,10.18,0,0,0-3,.4c-2.67.39-5.56.47-6.46,3.85C39.38,23.14,39.37,23.21,39.31,23.49Z" fill="#ddc2ef"/><path d="M52.71,5.24c-1.16.72-2.3-.13-3.46,0A1.75,1.75,0,0,1,48.56,5a8.7,8.7,0,0,0-7.92.86,1.16,1.16,0,0,1-.42.08c-.16-.84,2.25-.64.71-2a2.59,2.59,0,0,1,2.55-.88c2.84.5,5.68,1.08,8.51,1.62C52.31,4.81,52.65,4.8,52.71,5.24Z" fill="#dec4f0"/><path d="M97.91,37.93c-2.46-.17-4.81.92-7.26.64a17.8,17.8,0,0,1-3.91-1c-.71-.26-1.32.25-2.09,0A2.16,2.16,0,0,1,86.74,37c1.75.31,3.39,1.18,5.22,1.11A2.46,2.46,0,0,0,93.13,38C94.69,37.15,96.31,37.79,97.91,37.93Z" fill="#dec4f0"/><path d="M86.93,40.67c.11-.4.64-.57.53-1-.51-1.7.64-1,1.25-.83a7.93,7.93,0,0,0,4.55.24,2.34,2.34,0,0,1,1.31.16,5.69,5.69,0,0,1-3.7.73c-.27,0-.53-.14-.8-.18-1-.14-2-.67-2.55.76C87.47,40.74,87.21,40.83,86.93,40.67Z" fill="#dec4f0"/><path d="M20.53,25.9a2.73,2.73,0,0,1,2.18.87.71.71,0,0,1,.13.88c-.18.26-.51.2-.78.15-.74-.14-1.31-1-2.28-.34-.29.2-.51-.51-.37-.9A1,1,0,0,1,20.53,25.9Z" fill="#dec4f0"/><path d="M118.35,34.27a2,2,0,0,1-1.3-.31c-.24-.12-.54-.22-.47-.59s.37-.48.71-.5a2.32,2.32,0,0,0,.7,0c.72-.28,1.47-.31,1.58.58S118.63,34,118.35,34.27Z" fill="#dec4f0"/><path d="M24.42,28.34c.44.46.94.91.42,1.61a.93.93,0,0,1-1.18.22c-.76-.3-.68-1-.5-1.59A1.65,1.65,0,0,1,24.42,28.34Z" fill="#ddc2ef"/><path d="M111.84,28.85a10.64,10.64,0,0,1,2.81-2.1c.21-.13.48-.17.62.1a.41.41,0,0,1-.23.59C113.86,27.67,113,28.65,111.84,28.85Z" fill="#dec4f0"/><path d="M106.36,36.94c1.58-.82,3.16-.38,4.75,0C109.53,37.31,107.93,36.58,106.36,36.94Z" fill="#dec4f0"/><path d="M122.49,30c.43,0,1.14.07,1.07.44-.13.76-1,.5-1.57.7a.47.47,0,0,1-.59-.54C121.47,29.92,122,30,122.49,30Z" fill="#dec4f0"/><path d="M118.85,29.67c-.92.37-1.53.62-2.15.85-.21.08-.47.25-.58-.1a.46.46,0,0,1,.31-.57A3.29,3.29,0,0,1,118.85,29.67Z" fill="#dec4f0"/><path d="M84.17,37.44c-1,.45-2-.18-3-.18C82.23,36.65,83.18,37.23,84.17,37.44Z" fill="#dec4f0"/><path d="M104.88,37.16,102,36.6l0-.31a5.2,5.2,0,0,1,2.84.55Z" fill="#dec4f0"/><path d="M117.86,28.31a1.15,1.15,0,0,1-.74.78c-.27.13-.53.4-.86.2a.4.4,0,0,1-.15-.52c.14-.41.49-.46.86-.46Z" fill="#dec4f0"/><path d="M84.88,40.07c-.9-.14-1.84.2-3-.35A3.78,3.78,0,0,1,84.88,40.07Z" fill="#dec4f0"/><path d="M36.5,41.16a6.4,6.4,0,0,1,3,.08A3.65,3.65,0,0,1,36.5,41.16Z" fill="#dec4f0"/><path d="M4.62,29c-.36-.05-.58-.2-.6-.53a.53.53,0,0,1,.56-.62.52.52,0,0,1,.56.51C5.18,28.76,4.92,28.93,4.62,29Z" fill="#dec4f0"/><path d="M111,29c.31,0,.53.11.46.42a.85.85,0,0,1-.81.74c-.3,0-.35-.28-.33-.53A.66.66,0,0,1,111,29Z" fill="#dec4f0"/><path d="M17.58,27.72c.31.08.64.19.71.54s-.15.45-.41.49a.54.54,0,0,1-.67-.51A.43.43,0,0,1,17.58,27.72Z" fill="#dec4f0"/><path d="M3.2,31.08c.51,0,1-.59,1.54-.18C4.12,31.51,4.12,31.51,3.2,31.08Z" fill="#dec4f0"/><path d="M93,23.09c-.82.15-.76-.31-.3-1.2.94-1.8,1.82-3.64,2.68-5.48a1.92,1.92,0,0,1,1.16-1.09,92.88,92.88,0,0,1,9.19-2.57c4-1,8.14-1.77,12.13-3,.36-.11.7-.29,1,.11s-.13.48-.33.64c-3.83,3.16-7.19,6.81-10.8,10.2a3.17,3.17,0,0,1-2,1C101.62,22.14,97.51,22.6,93,23.09Z" fill="#504071"/><path d="M81.22,11a24,24,0,0,1-5.41,1.22c-6.87,1.36-13.74,2.67-20.61,4q-6.39,1.25-12.77,2.46a1,1,0,0,1-1-.21A1.54,1.54,0,0,1,42.15,17c.05.13-.1.5.23.32a9.1,9.1,0,0,0,1.22-1c2.83-2.32,5.54-4.71,9.55-4.9,3.53-.16,7-.79,10.56-1.18q6.72-.75,13.43-1.45c.33,0,.53-.11.51-.48a14,14,0,0,1,3.52,1.72C81.6,10.36,81.44,10.69,81.22,11Z" fill="#514172"/><path d="M72.51,25.16a24.73,24.73,0,0,1,1.88-4.09c.21-.46.85-.54,1.34-.71a110.43,110.43,0,0,1,13.11-3.57c1.12-.24,2.21-.65,3.33-.94.37-.09.82-.2,1.13.14s0,.76-.23,1.06a42.67,42.67,0,0,0-3,5.59,1.48,1.48,0,0,1-1.37.9c-4.11.41-8.21.94-12.33,1.34A19,19,0,0,1,72.51,25.16Z" fill="#504071"/><path d="M72.38,1.91c3.75.88,7.48,1.82,11.24,2.64,4.73,1,9.48,2,14.22,2.93.1,0,.17.14.4.33l-12.9,2.47c-1.88-1.4-4-2.36-6-3.68A82.1,82.1,0,0,1,72.38,1.91Z" fill="#514172"/><path d="M43.24,28.24c1.83-.45,3.65-.92,5.48-1.36q10.77-2.58,21.53-5.16c.44-.1,1-.32,1.26,0s-.12.79-.26,1.17-.43.94-.62,1.42a2.14,2.14,0,0,1-2,1.39c-5.17.59-10.33,1.24-15.5,1.85-3.27.38-6.55.72-9.82,1.07Z" fill="#504071"/><path d="M77.65,8.39c0,.37-.18.44-.51.48q-6.72.71-13.43,1.45c-3.52.39-7,1-10.56,1.18-4,.19-6.72,2.58-9.55,4.9a9.1,9.1,0,0,1-1.22,1c-.33.18-.18-.19-.23-.32h0a6.36,6.36,0,0,0,1.45-2.17h0a.33.33,0,0,0,.25-.37h0a4.68,4.68,0,0,0,1.2-2h0c.23.06.24-.1.25-.25h0c.17,0,.23-.11.25-.25h0a.79.79,0,0,0,.49-.72h0c2.16-1.11,4.53-1,6.86-1.2,2.86-.22,5.75-.21,8.59-.61,5.39-.75,10.82-.65,16.22-1.07Z" fill="#dabfec"/><path d="M75.27,6.33,51.51,7.74c3.69-1.8,7.58-3,11.25-4.74,4.07-1.88,7.22-.48,10.4,1.75C73.83,5.23,74.48,5.74,75.27,6.33Zm-19.22.13a2.5,2.5,0,0,0,.47,0c3.2-.34,6.4-.63,9.59-1.06a36.85,36.85,0,0,0,5.68-.82c-1.19-.69-2.15-1.31-3.17-1.83a2.44,2.44,0,0,0-1.83-.38Q61.36,4.26,56.07,6.48l-.72.06C55.69,6.72,55.92,6.83,56.05,6.46Z" fill="#524273"/><path d="M119.41,11.75c-.54,2-1.09,4-1.62,5.95a1.25,1.25,0,0,1-.57.72l-9.08,6.81c-.07.06-.2,0-.51.1a4.09,4.09,0,0,0,.79-2.64c.12-1.17,1.18-1.76,2-2.47,2.93-2.7,5.88-5.38,8.67-8.23a1.38,1.38,0,0,1,.39-.23Z" fill="#514172"/><path d="M77.66,8.4c-5.4.42-10.83.32-16.22,1.07-2.84.4-5.73.39-8.59.61-2.33.17-4.7.09-6.86,1.2.29-1.06,1.29-1.25,2.09-1.4a38.86,38.86,0,0,1,7.07-.8c3.85,0,7.69-.41,11.54-.64,3.46-.21,6.93-.23,10.39-.33C77.32,8.11,77.57,8.11,77.66,8.4Z" fill="#514172"/><path d="M99.49,7.32C96.7,6.12,93.87,5,91.11,3.7a15.77,15.77,0,0,0-6.57-1.76c-4.29,0-8.57-.56-12.87-.49,0-.47.4-.25.61-.25a144.83,144.83,0,0,1,14.57.57C89,2,90.67,3.15,92.56,3.85c2.17.79,4.26,1.78,6.37,2.73C99.19,6.69,99.86,6.66,99.49,7.32Z" fill="#524273"/><path d="M26.72,30.26c-.51-.08-1.09.14-1.18-.33s.55-.46.87-.57A10,10,0,0,1,28.14,29a.58.58,0,0,1,.69.35c.1.37-.28.45-.51.52C27.75,30.07,27.17,30.16,26.72,30.26Z" fill="#ddc2ef"/><path d="M65.37,29.59c-.05.28-.22.4-.35.35-.86-.38-1.82,0-2.69-.38-.27-.12-.53-.2-.48-.56a.53.53,0,0,1,.21-.37c.28-.13.4.11.56.29.59.63,1.35.25,2,.34C65,29.3,65.3,29.24,65.37,29.59Z" fill="#dabfec"/><path d="M84.74,28.4c1.24-.33,2.13.44,3.2.76C87.23,29.54,86.12,29.26,84.74,28.4Z" fill="#ddc2ef"/><path d="M32.55,31.37c-.52-.14-.79-.37-.74-.87a.48.48,0,0,1,.65-.49c.38.07.71.3.71.69S32.82,31.27,32.55,31.37Z" fill="#dabfec"/><path d="M54.18,31c-.62-.56-.84-1.18-1.52-1.48C53.85,29.31,54.07,29.52,54.18,31Z" fill="#dabfec"/><path d="M43.59,14.87A6.36,6.36,0,0,1,42.14,17,2.71,2.71,0,0,1,43.59,14.87Z" fill="#514172"/><path d="M44.82,30.59a3.34,3.34,0,0,1-2.37-.44A3.4,3.4,0,0,1,44.82,30.59Z" fill="#ddc2ef"/><path d="M45,12.47a4.68,4.68,0,0,1-1.2,2A2.36,2.36,0,0,1,45,12.47Z" fill="#514172"/><path d="M31.73,29.11c0,.2,0,.33-.21.36A.53.53,0,0,1,30.9,29c0-.22,0-.42.27-.44S31.61,28.88,31.73,29.11Z" fill="#dabfec"/><path d="M46,11.28a.79.79,0,0,1-.49.72C45.58,11.7,45.35,11.19,46,11.28Z" fill="#514172"/><path d="M119.43,11.76l0-.3.12.06-.19.23Z" fill="#514172"/><path d="M43.83,14.51a.33.33,0,0,1-.25.37A.27.27,0,0,1,43.83,14.51Z" fill="#514172"/><path d="M45.27,12.23c0,.15,0,.31-.25.25C45,12.32,45.09,12.22,45.27,12.23Z" fill="#514172"/><path d="M45.51,12c0,.14-.08.25-.25.25C45.25,12.07,45.33,12,45.51,12Z" fill="#514172"/><path d="M89.36,31.42a5,5,0,0,1,4.39.06C92.37,31.64,91,32.33,89.36,31.42Z" fill="#b392ca"/><path d="M31.73,33.56H26.85C28.48,32.36,30.12,33,31.73,33.56Z" fill="#b392ca"/><path d="M13.7,31.52c.34-.12.6-.15.77.14a.44.44,0,0,1,0,.3A.7.7,0,0,1,13.7,31.52Z" fill="#fefefe"/><path d="M76,37.68l-.51-.11s0-.08.06-.09a.36.36,0,0,1,.46.18Z" fill="#fefefe"/><path d="M13.1,31.18l.11.11-.11-.1Z" fill="#fefefe"/><path d="M10.7,29.51l.1.1s-.05,0-.06,0a.2.2,0,0,1,0-.08Z" fill="#fefefe"/><path d="M62.33,18.34c.56-1.43,1-2.59,2.89-2.86,3.84-.57,7.63-1.47,11.44-2.24.74-.15,1,0,.77.83s-.49,1.3-1.39,1.48c-4.44.9-8.86,1.87-13.29,2.81A2.27,2.27,0,0,1,62.33,18.34Z" fill="#b392ca"/><path d="M62.23,16.11a4.21,4.21,0,0,1-3.71,3.22c-3.14.51-6.22,1.32-9.32,2a2.55,2.55,0,0,1-.52,0c.78-1.46,1.13-3,3.2-3.27C55.33,17.53,58.73,16.77,62.23,16.11Z" fill="#b392ca"/><path d="M39.31,23.49c.06-.28.07-.35.09-.43.9-3.38,3.79-3.46,6.46-3.85a10.18,10.18,0,0,1,3-.4c-.47.92-.9,1.76-1.34,2.6a.74.74,0,0,1-.54.42C44.45,22.36,41.94,22.92,39.31,23.49Z" fill="#b392ca"/><path d="M33.74,21.35l5.5-.88a4.23,4.23,0,0,1-3.5,3.93c-1.32.29-2.65.52-4,.77-.07,0-.15,0-.34-.1a39.17,39.17,0,0,0,2.32-3.73Z" fill="#b392ca"/><path d="M56.07,6.48q5.3-2.21,10.72-4.06a2.44,2.44,0,0,1,1.83.38c1,.52,2,1.14,3.17,1.83a36.85,36.85,0,0,1-5.68.82c-3.19.43-6.39.72-9.59,1.06a2.5,2.5,0,0,1-.47,0Z" fill="#ddc2ef"/><path d="M56.05,6.46c-.13.37-.36.26-.7.08l.72-.06Z" fill="#ddc2ef"/></svg>